<svg xmlns="http://www.w3.org/2000/svg" height="175.446" width="500">
    <path fill="#fff" d="M54.28 82.2v.507c21.794.427 37.885 4.988 48.274 13.686 10.39 8.697 15.586 19.21 15.586 31.535 0 13.767-5.905 25.132-17.739 34.071-11.809 8.964-27.546 13.447-47.16 13.447-16.953 0-30.054-3.577-39.33-10.7C4.637 157.623 0 149.513 0 140.386c0-6.055 2.078-10.964 6.235-14.673 4.155-3.708 9.147-5.548 14.95-5.548 5.447 0 10.137 1.627 14.014 4.854 3.901 3.257 5.827 7.551 5.827 12.862 0 7.096-4.51 13.045-13.557 17.847-1.773.935-2.686 2-2.686 3.176 0 2.186 2.534 4.109 7.629 5.763 5.068 1.654 10.237 2.454 15.557 2.454 17.41 0 26.127-13.474 26.127-40.418 0-26.68-10.464-40.02-31.37-40.02l-17.36.745c-3.497 0-5.272-1.36-5.272-4.078 0-3.125 1.85-4.7 5.526-4.7l12.645.508c12.897 0 21.54-3.014 25.923-9.071 4.41-6.03 6.588-14.621 6.588-25.773 0-11.472-1.647-19.929-4.966-25.318-3.32-5.417-9.022-8.11-17.08-8.11-4.384 0-8.513.774-12.366 2.345-3.852 1.55-5.802 3.07-5.802 4.591 0 1.413 1.267 2.881 3.801 4.403 6.638 4.455 9.983 9.283 9.983 14.486 0 5.123-1.849 9.178-5.575 12.22-3.725 3.015-7.907 4.535-12.57 4.535-5.37 0-10.16-1.735-14.367-5.176C7.627 44.822 5.5 40.553 5.5 35.405c0-8.75 4.689-16.33 14.064-22.705C28.94 6.294 40.95 3.095 55.65 3.095c16.244 0 29.928 3.628 41.077 10.857 11.175 7.232 16.75 16.488 16.75 27.828 0 22.303-19.741 35.777-59.196 40.42M158.278 164.025V10.616h-22.856V2.322h91.58c26.482 0 47.463 7.897 62.898 23.717 15.432 15.795 23.16 35.751 23.16 59.842 0 12.486-2.356 24.253-7.07 35.217-4.713 10.992-11.96 20.998-21.742 29.988-9.783 8.992-19.816 14.78-30.105 17.37-10.288 2.587-22.908 3.867-37.91 3.867h-80.81v-8.298zm44.069-153.409v153.409h14.265c21.82 0 34.997-6.028 39.532-18.061 4.537-12.06 6.793-32.655 6.793-61.816 0-22.81-1.396-39.22-4.182-49.172-2.76-9.976-6.994-16.541-12.646-19.66-5.65-3.124-12.847-4.7-21.54-4.7h-22.222M338.63 86.684c0-25.43 7.955-46.238 23.921-62.433C378.49 8.085 397.623 0 419.921 0c20.704 0 39.23 7.603 55.573 22.81C491.842 38.018 500 59.654 500 87.695c0 26.28-7.704 47.356-23.162 63.205-15.457 15.848-34.335 23.773-56.635 23.773-24.1 0-43.739-8.433-58.866-25.241-15.132-16.808-22.707-37.725-22.707-62.748zm111.246.719c0-26.04-.507-43.196-1.52-51.464-1.039-8.301-3.676-14.97-7.931-20.04-4.26-5.067-11.278-7.603-21.033-7.603-8.237 0-14.8 2.054-19.691 6.137-4.89 4.108-7.93 10.672-9.15 19.717-1.19 9.043-1.797 26.705-1.797 52.986 0 26.012.505 43.247 1.544 51.65 1.014 8.405 3.753 15.102 8.187 20.09 4.435 4.989 11.403 7.47 20.907 7.47 7.878 0 14.316-2 19.281-6.001 4.969-4.03 8.087-10.54 9.328-19.583 1.267-9.045 1.875-26.84 1.875-53.36"
    />
</svg>