<svg xmlns="http://www.w3.org/2000/svg" viewBox="0 0 948.6 114.4"><path d="M80.079 79.993h-34.22l-6.68 6.814-7.523 7.414c-1.446 1.626-2.493 3.093-3.133 4.407-.5 1.008-.718 2.015-.672 3.023.054 1.054.796 2.03 2.234 2.93 1.438.899 3.773 1.415 6.998 1.547l.11 2.257H4.003l.71-2.257c2.922-.39 5.5-1.227 7.735-2.493 2.97-1.757 7.18-5.366 12.63-10.84l75.05-74.34h3.688l-.008 71.95c.023 3.76.055 6.032.093 6.82.157 2.993 1 5.164 2.548 6.524 1.554 1.367 4.055 2.156 7.523 2.375l-.703 2.257H65.23l.79-2.257c4.742-.352 7.461-.657 8.156-.913 1.507-.61 2.836-1.893 4-3.83 1.156-1.945 1.758-5.312 1.79-10.12l.108-11.27zm-.265-5.304l.741-28.7-29.31 28.7h28.57M183.779 20.493l11.3 60.54 49.74-60.54h39.02l-.875 2.257c-5.344 0-9.368.907-12.06 2.728-2.686 1.82-4.882 5.414-6.578 10.79l-17.61 56.38c-1.132 3.594-1.658 6.266-1.562 8.016.077 1.616.96 2.921 2.649 3.906 1.688.985 4.936 1.522 9.74 1.61l-.624 2.256h-55.37l.867-2.257c5.952 0 10.3-.906 13.05-2.728 2.742-1.82 4.97-5.422 6.664-10.8l17.83-57.1-59.76 72.89h-3.438l-13.76-74.32-18.28 58.53c-.75 2.406-1.086 4.422-1.009 6.047.11 2.187 1.141 3.944 3.086 5.281 1.954 1.335 5.196 2.072 9.735 2.204l-.704 2.257h-36.68l.627-2.257c4.414-.132 7.757-.875 10.04-2.235 4.024-2.452 6.835-6.218 8.445-11.3l20.68-65.09c-2.39-1.992-4.516-3.288-6.375-3.898-1.852-.6-4.938-.907-9.242-.907l.86-2.257h39.61M293.579 22.693l.789-2.257h54.23l-.953 2.257c-4.915 0-8.625.876-11.13 2.626-2.508 1.742-4.601 5.39-6.289 10.95l-17.58 56.29c-1.274 4.023-1.875 6.71-1.812 8.062.079 1.577.906 2.797 2.478 3.672 2.022 1.133 5.764 1.75 11.23 1.836l-.71 2.257h-54.96l.789-2.257c5.516 0 9.508-.844 11.99-2.523 2.476-1.68 4.618-5.367 6.406-11.05l17.58-56.29c1.078-3.5 1.57-6.142 1.484-7.938-.085-1.61-.915-2.883-2.484-3.797-1.571-.922-5.266-1.53-11.06-1.837M511.079 79.993h-34.21l-6.68 6.814-7.524 7.414c-1.446 1.626-2.494 3.093-3.14 4.407-.493 1.008-.72 2.015-.665 3.023.054 1.054.796 2.03 2.235 2.93 1.436.899 3.764 1.415 6.999 1.547l.11 2.257h-33.19l.704-2.257c2.93-.39 5.506-1.227 7.735-2.493 2.968-1.757 7.186-5.366 12.64-10.84l75.05-74.34h3.688l-.015 71.95c.03 3.76.062 6.032.1 6.82.15 2.993 1 5.164 2.547 6.524 1.548 1.367 4.055 2.156 7.516 2.375l-.703 2.257h-48.04l.798-2.257c4.734-.352 7.46-.657 8.156-.913 1.5-.61 2.835-1.893 3.99-3.83 1.166-1.945 1.76-5.312 1.799-10.12l.1-11.27zm-.265-5.304l.75-28.7-29.31 28.7h28.56M450.279 19.293c.797.735 1.022 3.156 1.022 3.156l-5.274 24.15h-2.851c-.843-8.14-1.14-14-5.57-17.58-4.421-3.579-6.71-5.586-14.38-5.586-7.897 0-17.88 2.407-25.56 6.79-7.67 4.383-17.19 11.14-22.3 20.27-5.1 9.132-8.188 18.73-7.687 28.79.437 8.632 3.344 15.23 8.719 19.78 5.374 4.554 11.52 6.828 18.44 6.828 2.922 0 6.438-.625 10.55-1.883l7.24-23.22c1.227-3.899 1.806-6.445 1.75-7.656-.084-1.602-1.007-2.953-2.78-4.055-1.781-1.1-4.766-1.655-8.968-1.655l.686-2.516h47.68l-.61 2.516c-2.83.14-5.032.57-6.61 1.312-1.57.734-2.79 1.82-3.64 3.25-.509.844-1.242 3.04-2.211 6.562l-8.172 26.16c-11.55 3.79-23.81 5.688-36.78 5.688-10.01 0-18.58-1.406-25.74-4.21-7.155-2.813-13.2-7.258-18.11-13.35-4.921-6.095-7.57-13.03-7.961-20.81-.828-16.59 7.812-30.27 25.92-41.03 14.19-8.345 30.19-11.99 48.55-12.89 1.742 0 6.235-.422 12.5-.422 5.32 0 11.48.17 20.4.804 0 0 .766-.093 1.742.813" fill="#dc2b27"/><path d="M597.559 41.493v43.88c0 12.11 9.61 21.94 21.45 21.94h47.02c11.84 0 21.45-9.826 21.45-21.94l-.007-11.21h-21.28v4.22c0 5.445-3.898 9.43-9.218 9.43h-29.24c-5.314 0-9.21-3.984-9.21-9.43v-27.94c0-5.447 3.896-9.43 9.21-9.43h27.33c5.32 0 9.22 3.983 9.22 9.43v2.272h21.28l.007-11.22c0-12.11-9.61-21.94-21.45-21.94H619c-11.84 0-21.45 9.828-21.45 21.94M721.489 87.893v-48.76h37.66c6.579 0 11.91 5.46 11.91 12.2v24.38c0 6.726-5.335 12.19-11.91 12.19h-37.66zm-20.97 19.5h68.47c12.7 0 23.36-10.91 23.36-23.89v-39.98c0-12.98-10.66-23.89-23.36-23.89h-68.47v87.76" fill="#231f20"/><path d="M894.979 29.893c-8.54 0-17.24 4.508-17.24 13.12v7.97l.086.006v11.52h66.72V50.17h-48.08c-6.195-1.578.595-6.626 3.744-6.992h28.87c8.54 0 15.46-6.994 15.46-15.6V19.6c0-8.61-6.921-15.6-15.46-15.6h-33.98c-8.539 0-17.37 5.038-17.37 13.66v7.97h16.8V24.01c0-3.867 2.812-6.704 6.648-6.704h21.6c3.695 0 6.438 2.634 6.632 6.29-.195 3.648-2.938 6.28-6.632 6.28l-27.81.01M857.079 33.293c6.46-.484 11.2-2.5 11.2-9.618V15.7c0-8.61-6.93-11.7-15.46-11.7h-30.18c-8.53 0-17.37 5.038-17.37 13.66v7.97h16.81V24.01c0-3.867 2.805-6.704 6.64-6.704h17.79c3.697 0 6.44.688 6.636 4.337-.195 3.656-2.94 6.28-6.635 6.28l-14.46.01v10.83h16.37c3.696 0 6.436 2.631 6.63 6.288-.194 3.648-2.934 4.328-6.63 4.328h-19.7c-3.836 0-6.641-2.829-6.641-6.696V41.06h-16.81v7.976c0 8.61 8.838 13.65 17.37 13.65h32.09c9.74-.172 15.46-5.039 15.46-13.65v-6.022c0-7.806-5.686-9.469-13.1-9.71" fill="#dc2b27"/></svg>
