<svg xmlns="http://www.w3.org/2000/svg" xmlns:xlink="http://www.w3.org/1999/xlink" width="444" height="123"><defs><path id="a" d="M189.835 43.617l-2.684-4.03c.107.162.29.285.537.305l2.684 4.03a.695.695 0 0 1-.537-.305z"/></defs><clipPath id="b"><use xlink:href="#a" overflow="visible"/></clipPath><g clip-path="url(#b)"><path fill="#767273" d="M187.689 39.892l2.684 4.03a.694.694 0 0 1-.537-.305l-2.684-4.03a.69.69 0 0 0 .537.305"/></g><path fill="#787575" d="M192.292 40.826l2.684 4.03-4.603-.934-2.684-4.03z"/><defs><path id="c" d="M194.044 42.088l2.684 4.03c-.41-.616-1.012-1.085-1.752-1.262l-2.684-4.03c.74.177 1.342.646 1.752 1.262z"/></defs><clipPath id="d"><use xlink:href="#c" overflow="visible"/></clipPath><g clip-path="url(#d)"><path fill="#767273" d="M194.044 42.088l2.684 4.03c-.41-.616-1.012-1.085-1.752-1.262l-2.684-4.03c.74.177 1.342.646 1.752 1.262"/></g><defs><path id="e" d="M198.312 53.627l2.684 4.03c-.208-.313-.552-.514-.896-.514-.363 0-.727.225-.929.782l-2.684-4.03c.203-.557.565-.782.93-.782.343-.001.686.201.895.514z"/></defs><clipPath id="f"><use xlink:href="#e" overflow="visible"/></clipPath><g clip-path="url(#f)"><path fill="#767273" d="M198.312 53.627l2.684 4.03c-.208-.313-.552-.514-.896-.514-.363 0-.727.225-.929.782l-2.684-4.03c.203-.557.565-.782.93-.782.343-.001.686.201.895.514"/></g><path fill="#787475" d="M196.487 53.895l2.684 4.03-11.49 35.95-2.683-4.03z"/><defs><path id="g" d="M243.03 52.278l2.685 4.03a.622.622 0 0 0-.521-.296c-.267 0-.55.179-.733.547l-2.684-4.03c.183-.368.467-.547.734-.547.2-.001.389.1.52.296z"/></defs><clipPath id="h"><use xlink:href="#g" overflow="visible"/></clipPath><g clip-path="url(#h)"><path fill="#767273" d="M243.03 52.278l2.685 4.03a.622.622 0 0 0-.521-.296c-.267 0-.55.179-.733.547l-2.684-4.03c.183-.368.467-.547.734-.547.2-.001.389.1.52.296"/></g><defs><path id="i" d="M172.225 107.52c-.894-1.344-1.79-2.687-2.684-4.029.122.182.368.32.752.34l2.684 4.028c-.384-.02-.631-.157-.752-.34z"/></defs><clipPath id="j"><use xlink:href="#i" overflow="visible"/></clipPath><g clip-path="url(#j)"><path fill="#767273" d="M170.293 103.83l2.684 4.03c-.384-.022-.631-.158-.752-.34l-2.684-4.03c.122.182.368.32.752.34"/></g><defs><path id="k" d="M269.555 38.521l2.684 4.03c.166.249-.197.595-1.896 1.039-3.104.808-5.648.503-6.664 4.547l-2.684-4.03c1.016-4.044 3.56-3.739 6.664-4.547 1.698-.444 2.062-.79 1.896-1.039z"/></defs><clipPath id="l"><use xlink:href="#k" overflow="visible"/></clipPath><g clip-path="url(#l)"><path fill="#767273" d="M269.555 38.521l2.684 4.03c.166.249-.197.595-1.896 1.039-3.104.808-5.648.503-6.664 4.547l-2.684-4.03c1.016-4.044 3.56-3.739 6.664-4.547 1.698-.444 2.062-.79 1.896-1.039"/></g><defs><path id="m" d="M188.06 101.645c-.894-1.344-1.788-2.688-2.683-4.03a6.313 6.313 0 0 1-.267-.435c-1.121-1.934-1.053-4.603-.113-7.335l2.684 4.03c-.94 2.732-1.008 5.4.113 7.334.08.143.17.288.267.436z"/></defs><clipPath id="n"><use xlink:href="#m" overflow="visible"/></clipPath><g clip-path="url(#n)"><path fill="#767273" d="M184.998 89.845l2.684 4.03c-.94 2.732-1.008 5.4.113 7.334.08.143.17.288.267.436l-2.684-4.03a6.313 6.313 0 0 1-.267-.435c-1.12-1.933-1.053-4.602-.113-7.335"/></g><g><path fill="#787475" d="M180.404 103.452l2.683 4.03-10.11.377-2.684-4.029z"/></g><g><path fill="#787575" d="M214.109 38.436l2.683 4.03 2.649 41.64-2.684-4.03z"/></g><g><path fill="#787575" d="M192.438 103.955l2.684 4.03-12.035-.503-2.683-4.03z"/></g><g><defs><path id="o" d="M193.264 102.785c.895 1.343 1.789 2.688 2.684 4.03.328.492.03 1.126-.826 1.17l-2.684-4.03c.857-.043 1.153-.678.826-1.17z"/></defs><clipPath id="p"><use xlink:href="#o" overflow="visible"/></clipPath><g clip-path="url(#p)"><path fill="#767273" d="M193.264 102.785l2.684 4.03c.328.492.03 1.126-.826 1.17l-2.684-4.03c.857-.043 1.153-.678.826-1.17"/></g></g><g><path fill="#787475" d="M241.777 52.528l2.683 4.03-33.494 48.606-2.684-4.03z"/></g><g><defs><path id="q" d="M205.354 106.572l-2.684-4.03c.5.751 1.188 1.08 1.93 1.08 1.293 0 2.753-.993 3.68-2.488l2.685 4.03c-.928 1.495-2.388 2.486-3.68 2.486-.743 0-1.431-.328-1.931-1.078z"/></defs><clipPath id="r"><use xlink:href="#q" overflow="visible"/></clipPath><g clip-path="url(#r)"><path fill="#767273" d="M208.282 101.134l2.684 4.03c-.928 1.495-2.388 2.486-3.68 2.486-.744 0-1.432-.328-1.931-1.078l-2.684-4.03c.5.751 1.188 1.08 1.93 1.08 1.294 0 2.753-.993 3.681-2.488"/></g></g><g><defs><path id="s" d="M224.251 107.652l-2.684-4.029c.146.219.447.377.895.377l2.684 4.03c-.448 0-.75-.158-.895-.378z"/></defs><clipPath id="t"><use xlink:href="#s" overflow="visible"/></clipPath><g clip-path="url(#t)"><path fill="#767273" d="M222.462 104l2.684 4.03c-.448 0-.75-.158-.895-.378l-2.684-4.029c.146.219.447.377.895.377"/></g></g><g><path fill="#787475" d="M260.995 44.107l2.684 4.03-12.232 49.11-2.684-4.031z"/></g><g><path fill="#787475" d="M240.56 103.39l2.683 4.03-18.097.61-2.684-4.03z"/></g><g><defs><path id="u" d="M252.467 102.64l-2.684-4.03c-1.034-1.551-1.479-3.412-1.02-5.394l2.684 4.03c-.46 1.983-.014 3.84 1.02 5.395z"/></defs><clipPath id="v"><use xlink:href="#u" overflow="visible"/></clipPath><g clip-path="url(#v)"><path fill="#767273" d="M248.763 93.216l2.684 4.03c-.46 1.983-.014 3.842 1.02 5.395l-2.684-4.032c-1.033-1.55-1.479-3.41-1.02-5.393"/></g></g><g><path fill="#787575" d="M255.453 103.938l2.684 4.03-14.894-.548-2.683-4.03z"/></g><g><defs><path id="w" d="M256.225 102.982c.895 1.343 1.788 2.687 2.684 4.03.264.396.039.91-.771.955l-2.684-4.03c.81-.042 1.034-.558.77-.955z"/></defs><clipPath id="x"><use xlink:href="#w" overflow="visible"/></clipPath><g clip-path="url(#x)"><path fill="#767273" d="M256.225 102.982l2.684 4.03c.264.396.039.91-.771.955l-2.684-4.03c.81-.042 1.034-.558.77-.955"/></g></g><g><path fill="#242021" d="M245.338 37.896l22.667.144c.432 0 3.543.504-.346 1.52-3.104.808-5.648.503-6.664 4.547l-12.232 49.109c-1.016 4.386 2.396 8.17 6.81 9.354.998.244 1.06 1.304-.12 1.368l-14.894-.55-18.097.612c-1.314 0-1.365-1.365.065-1.616 4.23-.433 7.967-3.92 8.782-6.779l11.896-42.645c.001-.644-.33-.979-.695-.979-.267 0-.55.18-.734.547l-33.495 48.606c-.928 1.495-2.388 2.487-3.68 2.487-1.396 0-2.595-1.157-2.72-4.087l-3.372-45.316c-.037-.628-.565-1.105-1.094-1.105-.363 0-.726.226-.93.782l-11.488 35.95c-.94 2.733-1.008 5.402.113 7.335 1.112 1.986 3.976 4.413 7.33 5.095 1.304.315 1.239 1.618-.002 1.681l-12.034-.503-10.11.378c-1.187-.063-1.06-1.24.003-1.43 3.482-.746 7.473-4.287 9.281-9.329l14.884-47.832c.624-1.807-.362-3.982-2.169-4.414l-4.604-.934c-.809-.063-.924-1.241.002-1.241l26.417-.215 2.648 41.64 1.938-2.355 25.208-37.397c.308-.504 1.057-1.682 1.436-2.428z"/></g><g><defs><path id="y" d="M281.736 43.439l-2.684-4.03c.087.131.21.223.375.25l2.684 4.029a.543.543 0 0 1-.375-.249z"/></defs><clipPath id="z"><use xlink:href="#y" overflow="visible"/></clipPath><g clip-path="url(#z)"><path fill="#767273" d="M279.428 39.658l2.684 4.03a.54.54 0 0 1-.375-.249l-2.684-4.03c.087.131.21.223.375.25"/></g><defs><path id="A" d="M285.05 42.66l2.684 4.029c-1.014-1.523-3.227-2.442-5.622-3.001l-2.684-4.03c2.395.559 4.608 1.478 5.622 3.001z"/></defs><clipPath id="B"><use xlink:href="#A" overflow="visible"/></clipPath><g clip-path="url(#B)"><path fill="#767273" d="M285.05 42.66l2.684 4.029c-1.014-1.523-3.227-2.442-5.622-3.001l-2.684-4.03c2.395.559 4.608 1.478 5.622 3.001"/></g><defs><path id="C" d="M310.966 38.532l2.684 4.03c.506.761.233 2.055-1.769 2.231-3.058.27-6.257 2.445-7.008 5.05l-2.683-4.029c.752-2.606 3.949-4.782 7.007-5.05 2.001-.177 2.276-1.471 1.77-2.232z"/></defs><clipPath id="D"><use xlink:href="#C" overflow="visible"/></clipPath><g clip-path="url(#D)"><path fill="#767273" d="M310.966 38.532l2.684 4.03c.506.761.233 2.055-1.769 2.231-3.058.27-6.257 2.445-7.008 5.05l-2.683-4.029c.752-2.606 3.949-4.782 7.007-5.05 2.001-.177 2.276-1.471 1.77-2.232"/></g><defs><path id="E" d="M261.054 107.504l-2.683-4.03c.091.137.257.23.513.23l2.684 4.03c-.256-.002-.422-.093-.514-.23z"/></defs><clipPath id="F"><use xlink:href="#E" overflow="visible"/></clipPath><g clip-path="url(#F)"><path fill="#767273" d="M258.884 103.703l2.684 4.03c-.256 0-.422-.092-.514-.23l-2.683-4.028c.091.136.257.228.513.228"/></g><g><path fill="#787475" d="M302.19 45.814l2.683 4.03-14.255 49.28-2.683-4.03z"/></g><g><path fill="#787475" d="M276.146 103.184l2.683 4.029-17.262.52-2.683-4.03z"/></g><g><defs><path id="G" d="M291.533 103.575l-2.684-4.03c-.967-1.451-1.255-3.163-.915-4.451l2.684 4.03c-.34 1.288-.052 3 .915 4.451z"/></defs><clipPath id="H"><use xlink:href="#G" overflow="visible"/></clipPath><g clip-path="url(#H)"><path fill="#767273" d="M287.935 95.094l2.684 4.03c-.34 1.288-.052 3 .915 4.452l-2.684-4.03c-.967-1.452-1.255-3.164-.915-4.452"/></g></g><g><path fill="#787575" d="M294.115 103.874l2.684 4.03-17.97-.691-2.683-4.03z"/></g><g><defs><path id="I" d="M294.525 102.77l2.684 4.03c.286.43.14 1.104-.41 1.104l-2.684-4.03c.551 0 .697-.675.41-1.104z"/></defs><clipPath id="J"><use xlink:href="#I" overflow="visible"/></clipPath><g clip-path="url(#J)"><path fill="#767273" d="M294.525 102.77l2.684 4.03c.286.43.14 1.104-.41 1.104l-2.684-4.03c.551 0 .697-.675.41-1.104"/></g></g><g><path fill="#242021" d="M279.529 37.725l30.428.252c1.43 0 2.102 2.534-.76 2.786-3.058.27-6.255 2.445-7.007 5.051l-14.256 49.279c-.689 2.616 1.21 6.983 6.12 7.352.809.189.807 1.429.061 1.429l-17.97-.69-17.262.52c-.936 0-.682-1.24.12-1.365 2.365-.432 9.242-3.1 10.554-7.325l15.895-49.198c.996-3.541-2.293-5.285-6.024-6.157-.809-.127-.645-1.87.1-1.934z"/></g></g><g><defs><path id="K" d="M156.5 36.906l2.684 4.03c.284.426.454.959.464 1.609l-2.684-4.03c-.01-.65-.18-1.183-.464-1.609z"/></defs><clipPath id="L"><use xlink:href="#K" overflow="visible"/></clipPath><g clip-path="url(#L)"><path fill="#767273" d="M156.5 36.906l2.684 4.03c.284.426.454.959.464 1.609l-2.684-4.03c-.01-.65-.18-1.183-.464-1.609"/></g><defs><path id="M" d="M142.808 53.465l2.684 4.03c-.078-.117-.167-.177-.263-.177-.13 0-.27.11-.415.335l-2.684-4.03c.144-.225.285-.334.415-.335.096.001.185.06.263.177z"/></defs><clipPath id="N"><use xlink:href="#M" overflow="visible"/></clipPath><g clip-path="url(#N)"><path fill="#767273" d="M142.808 53.465l2.684 4.03c-.078-.117-.167-.177-.263-.177-.13 0-.27.11-.415.335l-2.684-4.03c.144-.225.285-.334.415-.335.096.001.185.06.263.177"/></g><defs><path id="O" d="M142.131 53.624l2.684 4.03c-4.987 7.082-11.856 15.764-16.78 22.791l-2.684-4.029c4.923-7.027 11.793-15.71 16.78-22.792z"/></defs><clipPath id="P"><use xlink:href="#O" overflow="visible"/></clipPath><g clip-path="url(#P)"><path fill="#767273" d="M142.131 53.624l2.684 4.03c-4.987 7.082-11.856 15.764-16.78 22.791l-2.684-4.029c4.923-7.027 11.793-15.71 16.78-22.792"/></g><defs><path id="Q" d="M127.958 80.97l-2.684-4.029c-.08-.117-.058-.289.076-.524l2.684 4.03c-.134.237-.155.407-.076.524z"/></defs><clipPath id="R"><use xlink:href="#Q" overflow="visible"/></clipPath><g clip-path="url(#R)"><path fill="#767273" d="M125.35 76.416l2.685 4.03c-.134.238-.155.408-.076.525l-2.684-4.03c-.08-.118-.059-.289.076-.525"/></g><defs><path id="S" d="M97.963 107.393l-2.684-4.032c.11.166.31.287.6.307l2.684 4.03c-.29-.02-.49-.141-.6-.305z"/></defs><clipPath id="T"><use xlink:href="#S" overflow="visible"/></clipPath><g clip-path="url(#T)"><path fill="#767273" d="M95.88 103.667l2.684 4.03c-.291-.02-.49-.14-.6-.306l-2.684-4.03c.11.164.31.285.6.306"/></g><path fill="#777474" d="M123.544 80.416l2.684 4.03L117.372 97l-2.684-4.03z"/><g><path fill="#787475" d="M105.785 102.273l2.683 4.032-9.905 1.392-2.683-4.03z"/></g><g><defs><path id="U" d="M117.507 101.94l-2.684-4.03c-1.008-1.514-1.22-3.242-.135-4.94l2.684 4.031c-1.085 1.697-.873 3.425.135 4.938z"/></defs><clipPath id="V"><use xlink:href="#U" overflow="visible"/></clipPath><g clip-path="url(#V)"><path fill="#767273" d="M114.688 92.97l2.684 4.031c-1.085 1.697-.873 3.425.135 4.938l-2.684-4.029c-1.008-1.514-1.22-3.242-.135-4.94"/></g></g><g><path fill="#787475" d="M143.763 80.541l2.684 4.03-20.22-.126-2.683-4.029z"/></g><g><defs><path id="W" d="M121.927 103.964l2.684 4.03c-.109-.046-2.175-.908-6.87-1.35-1.258-.12-3.516-.503-6.271-.503-.948 0-1.955.045-3.001.162l-2.684-4.03a26.963 26.963 0 0 1 3.001-.164c2.756 0 5.014.386 6.27.506 4.696.442 6.762 1.303 6.871 1.349z"/></defs><clipPath id="X"><use xlink:href="#W" overflow="visible"/></clipPath><g clip-path="url(#X)"><path fill="#767273" d="M121.927 103.964l2.684 4.03c-.109-.046-2.175-.908-6.87-1.35-1.258-.12-3.516-.503-6.271-.503-.948 0-1.955.045-3.001.162l-2.684-4.03a26.963 26.963 0 0 1 3.001-.164c2.756 0 5.014.386 6.27.506 4.696.442 6.762 1.303 6.871 1.349"/></g></g><g><defs><path id="Y" d="M122.65 102.523l2.685 4.029c.33.494.19 1.487-.46 1.487a.86.86 0 0 1-.264-.047l-2.684-4.03a.822.822 0 0 0 .263.048c.651 0 .79-.992.46-1.487z"/></defs><clipPath id="Z"><use xlink:href="#Y" overflow="visible"/></clipPath><g clip-path="url(#Z)"><path fill="#767273" d="M122.65 102.523l2.685 4.029c.33.494.19 1.487-.46 1.487a.86.86 0 0 1-.264-.047l-2.684-4.03a.822.822 0 0 0 .263.048c.651 0 .79-.992.46-1.487"/></g></g><g><path fill="#787575" d="M156.964 38.515l2.683 4.03 1.327 56.264-2.683-4.032z"/></g><g><defs><path id="aa" d="M162.27 102.727l-2.683-4.032c-.695-1.043-1.151-2.324-1.297-3.918l2.684 4.032c.146 1.591.603 2.875 1.297 3.918z"/></defs><clipPath id="ab"><use xlink:href="#aa" overflow="visible"/></clipPath><g clip-path="url(#ab)"><path fill="#767273" d="M158.291 94.777l2.684 4.032c.146 1.591.603 2.875 1.297 3.918l-2.684-4.032c-.695-1.043-1.151-2.324-1.297-3.918"/></g></g><g><defs><path id="ac" d="M138.215 107.336l-2.684-4.03c.149.226.39.266.635.253 9.328-.413 8.239-.45 10.542-.692 1.84-.195 3.154-.283 4.29-.283 1.312 0 2.386.117 3.76.318 5.872.873 10.785.95 11.044.953l2.684 4.03c-.26-.004-5.172-.08-11.044-.951-1.374-.204-2.448-.32-3.761-.32-1.135 0-2.45.087-4.29.282-2.302.243-1.214.279-10.541.693-.245.013-.485-.028-.635-.253z"/></defs><clipPath id="ad"><use xlink:href="#ac" overflow="visible"/></clipPath><g clip-path="url(#ad)"><path fill="#767273" d="M165.803 103.855l2.684 4.029c-.26-.004-5.172-.08-11.044-.952-1.374-.202-2.448-.32-3.761-.32-1.135 0-2.45.088-4.29.284-2.302.243-1.214.278-10.541.692-.245.012-.485-.027-.635-.253l-2.685-4.028c.15.224.391.263.636.252 9.328-.414 8.239-.45 10.542-.693 1.84-.195 3.154-.283 4.29-.283 1.312 0 2.386.117 3.76.32 5.872.87 10.785.949 11.044.952"/></g></g><g><defs><path id="ae" d="M166.08 102.814c.894 1.344 1.788 2.688 2.683 4.03.263.396.04.936-.276 1.04l-2.684-4.029c.316-.105.539-.645.276-1.04z"/></defs><clipPath id="af"><use xlink:href="#ae" overflow="visible"/></clipPath><g clip-path="url(#af)"><path fill="#767273" d="M166.08 102.814l2.683 4.03c.263.396.04.936-.276 1.04l-2.684-4.029c.316-.105.539-.645.276-1.04"/></g></g><g><path fill="#242021" d="M165.868 102.605c.557.377.313 1.124-.065 1.25-.259-.003-5.172-.082-11.044-.953-1.374-.202-2.448-.319-3.76-.319-1.136 0-2.45.088-4.29.283-2.303.243-1.215.279-10.542.693-.354.017-.699-.075-.773-.675.083-.693 1.126-1.025 1.459-1.114 3.726-1.034 5.564-2.903 6.382-7.487.881-5.042.646-9.329.528-13.743l-20.219-.125-8.855 12.556c-2.625 4.107 2.34 8.395 7.817 9.392.502.389.417 1.647-.315 1.647a.822.822 0 0 1-.263-.047c-.11-.046-2.175-.908-6.87-1.349-1.257-.12-3.516-.505-6.27-.505-.949 0-1.956.046-3.002.162l-9.905 1.395c-.936-.062-.934-1.178.002-1.43 4.786-.62 10.522-4.17 13.886-8.95l40.29-56.201c.665-.965 2.088-1.527 3.472-1.527 1.733 0 3.402.881 3.434 2.956l1.327 56.263c.43 4.72 3.593 6.714 7.576 7.828zm-27.814-25.477c2.05 0 3.98.01 5.419.042l-.533-23.42c-.102-.304-.239-.46-.395-.46-.129 0-.271.109-.415.334-4.987 7.082-11.856 15.765-16.78 22.792-.316.557-.001.746.745.746.12.01.523.014 1.139.014 1.06 0 2.743-.011 4.67-.022 1.927-.013 4.1-.026 6.15-.026"/></g></g><g><defs><path id="ag" d="M371.742 37.11c.896 1.343 1.79 2.687 2.685 4.03.229.344.302.744.142 1.207l-2.684-4.03c.16-.463.088-.862-.143-1.207z"/></defs><clipPath id="ah"><use xlink:href="#ag" overflow="visible"/></clipPath><g clip-path="url(#ah)"><path fill="#767273" d="M371.742 37.11l2.685 4.03c.229.344.302.744.142 1.207l-2.684-4.03c.16-.463.088-.862-.143-1.207"/></g><path fill="#787475" d="M371.885 38.316l2.683 4.031-4.492 11.449-2.682-4.029z"/><defs><path id="ai" d="M367.607 55.038l-2.684-4.03c.288.433.608.631.925.631.599 0 1.188-.707 1.545-1.873l2.683 4.03c-.354 1.167-.945 1.873-1.545 1.873-.315 0-.635-.198-.924-.63z"/></defs><clipPath id="aj"><use xlink:href="#ai" overflow="visible"/></clipPath><g clip-path="url(#aj)"><path fill="#767273" d="M367.394 49.767l2.683 4.03c-.354 1.167-.945 1.873-1.545 1.873-.315 0-.636-.198-.924-.63l-2.684-4.031c.288.433.607.631.925.631.598 0 1.188-.707 1.545-1.873"/></g><defs><path id="ak" d="M340.395 78.135l-2.684-4.03c.204.308.853.59 1.735.684l2.684 4.03c-.884-.094-1.53-.378-1.735-.684z"/></defs><clipPath id="al"><use xlink:href="#ak" overflow="visible"/></clipPath><g clip-path="url(#al)"><path fill="#767273" d="M339.446 74.79l2.684 4.028c-.884-.093-1.53-.375-1.735-.683l-2.684-4.03c.204.308.852.588 1.735.684"/></g><defs><path id="am" d="M343.603 76.589l2.683 4.03c-.776-1.167-2.175-1.433-4.155-1.8l-2.684-4.03c1.98.366 3.377.633 4.156 1.8z"/></defs><clipPath id="an"><use xlink:href="#am" overflow="visible"/></clipPath><g clip-path="url(#an)"><path fill="#767273" d="M343.603 76.589l2.683 4.03c-.776-1.167-2.175-1.433-4.155-1.8l-2.684-4.03c1.98.366 3.377.633 4.156 1.8"/></g><g><defs><path id="ao" d="M362.73 39.01l2.683 4.03c-.308-.463-.704-.754-1.215-.783-.644-.035-1.29-.05-1.933-.05a39.14 39.14 0 0 0-11.734 1.82c-13.742 4.387-22.454 11.882-28.197 24.681-5.241 11.49-3.178 23.847.345 29.136l-2.685-4.03c-3.521-5.29-5.586-17.647-.344-29.136 5.744-12.798 14.456-20.294 28.197-24.68a39.133 39.133 0 0 1 11.733-1.822c.645 0 1.29.017 1.934.051.51.029.908.32 1.216.783z"/></defs><clipPath id="ap"><use xlink:href="#ao" overflow="visible"/></clipPath><g clip-path="url(#ap)"><path fill="#767273" d="M362.73 39.01l2.683 4.03c-.308-.463-.704-.754-1.215-.783-.644-.035-1.29-.05-1.933-.05a39.14 39.14 0 0 0-11.734 1.82c-13.742 4.387-22.454 11.882-28.197 24.681-5.241 11.49-3.178 23.847.345 29.136l-2.685-4.03c-3.521-5.29-5.586-17.647-.344-29.136 5.744-12.798 14.456-20.294 28.197-24.68a39.133 39.133 0 0 1 11.733-1.822c.645 0 1.29.017 1.934.051.51.029.908.32 1.216.783"/></g></g><g><defs><path id="aq" d="M369.48 74.16l2.683 4.03c-4.544.683-6.352 1.555-6.786 3.235l-2.684-4.03c.435-1.681 2.244-2.552 6.787-3.235z"/></defs><clipPath id="ar"><use xlink:href="#aq" overflow="visible"/></clipPath><g clip-path="url(#ar)"><path fill="#767273" d="M369.48 74.16l2.683 4.03c-4.544.683-6.352 1.555-6.786 3.235l-2.684-4.03c.435-1.681 2.244-2.552 6.787-3.235"/></g></g><g><defs><path id="as" d="M370.022 73.456l2.683 4.03c.155.232-.039.455-.542.703l-2.683-4.029c.503-.248.697-.472.542-.704z"/></defs><clipPath id="at"><use xlink:href="#as" overflow="visible"/></clipPath><g clip-path="url(#at)"><path fill="#767273" d="M370.022 73.456l2.683 4.03c.155.232-.039.455-.542.703l-2.683-4.029c.503-.248.697-.472.542-.704"/></g></g><g><defs><path id="au" d="M306.28 95.89l-2.684-4.03c2.225 3.34 5.281 6.365 9.241 8.786 3.794 2.297 9.688 3.181 15.826 3.181 7.648 0 15.68-1.37 20.513-3.09l2.684 4.029c-4.833 1.72-12.865 3.091-20.512 3.091-6.14 0-12.033-.882-15.827-3.181-3.96-2.421-7.016-5.447-9.241-8.785z"/></defs><clipPath id="av"><use xlink:href="#au" overflow="visible"/></clipPath><g clip-path="url(#av)"><path fill="#767273" d="M349.177 100.736l2.684 4.03c-4.833 1.72-12.865 3.091-20.512 3.091-6.14 0-12.033-.882-15.827-3.181-3.96-2.421-7.017-5.446-9.241-8.785l-2.684-4.032c2.225 3.34 5.281 6.366 9.241 8.787 3.794 2.297 9.688 3.181 15.826 3.181 7.649 0 15.68-1.37 20.513-3.09"/></g></g><g><path fill="#242021" d="M359.153 34.66c3.123 0 6.185.259 9.13.808 1.87.377 4.162 1.231 3.602 2.849l-4.491 11.45c-.356 1.167-.946 1.873-1.545 1.873-.831 0-1.679-1.363-1.94-4.749-.148-1.852.15-8.52-2.394-8.664a35.493 35.493 0 0 0-1.934-.051c-4.077 0-8.127.673-11.733 1.822-13.741 4.386-22.453 11.88-28.197 24.68-5.618 12.313-2.845 25.624 1.123 30.163 2.703 3.093 9.023 5.227 13.879 5.227 2.853 0 5.2-.737 6.011-2.45 2.63-6.318 3.904-14.066 3.659-17.607.007-4.296-1.675-4.63-4.876-5.222-2.246-.24-2.965-1.693 1.228-1.693.223 0 .459.004.71.013 1.345-.007 2.656-.011 3.945-.011 2.952 0 5.78.017 8.593.029 2.64.014 5.265.027 7.964.027 2.469 0 5-.011 7.66-.045.745.37.682.683-.065 1.052-4.544.683-6.353 1.554-6.787 3.235-1.756 5.968-3.333 12.502-6.178 18.624-1.012 2.192-5.783 4.278-7.339 4.718-4.833 1.72-12.864 3.091-20.513 3.091-6.14 0-12.032-.884-15.826-3.18-14.23-8.7-16.79-25.193-10.98-36.068 8.618-16.185 34.58-29.92 57.294-29.92z"/></g><g><defs><path id="aw" d="M362.693 77.395l2.684 4.03c-1.757 5.968-3.333 12.502-6.179 18.622-1.011 2.193-5.783 4.28-7.338 4.719l-2.684-4.03c1.556-.44 6.327-2.525 7.339-4.718 2.845-6.122 4.423-12.655 6.178-18.623z"/></defs><clipPath id="ax"><use xlink:href="#aw" overflow="visible"/></clipPath><g clip-path="url(#ax)"><path fill="#767273" d="M362.693 77.395l2.684 4.03c-1.757 5.968-3.333 12.502-6.179 18.622-1.011 2.193-5.783 4.28-7.338 4.719l-2.684-4.03c1.556-.44 6.327-2.525 7.339-4.718 2.845-6.122 4.423-12.655 6.178-18.623"/></g></g></g><g><defs><path id="ay" d="M416.156 37.003l2.685 4.03c.284.426.455.96.465 1.611l-2.685-4.03c-.01-.651-.18-1.185-.465-1.611z"/></defs><clipPath id="az"><use xlink:href="#ay" overflow="visible"/></clipPath><g clip-path="url(#az)"><path fill="#767273" d="M416.156 37.003l2.685 4.03c.284.426.455.96.465 1.611l-2.685-4.03c-.01-.651-.18-1.185-.465-1.611"/></g><defs><path id="aA" d="M402.469 53.56l2.684 4.029c-.08-.12-.171-.18-.268-.18-.13 0-.271.11-.411.334l-2.685-4.03c.14-.225.282-.334.411-.334.098 0 .19.06.269.18z"/></defs><clipPath id="aB"><use xlink:href="#aA" overflow="visible"/></clipPath><g clip-path="url(#aB)"><path fill="#767273" d="M402.469 53.56l2.684 4.029c-.08-.12-.171-.18-.268-.18-.13 0-.271.11-.411.334l-2.685-4.03c.14-.225.282-.334.411-.334.098 0 .19.06.269.18"/></g><defs><path id="aC" d="M401.79 53.713l2.684 4.03c-4.996 7.091-11.857 15.773-16.79 22.792L385 76.505c4.934-7.019 11.794-15.7 16.79-22.792z"/></defs><clipPath id="aD"><use xlink:href="#aC" overflow="visible"/></clipPath><g clip-path="url(#aD)"><path fill="#767273" d="M401.79 53.713l2.684 4.03c-4.996 7.091-11.857 15.773-16.79 22.792L385 76.505c4.934-7.019 11.794-15.7 16.79-22.792"/></g><defs><path id="aE" d="M387.61 81.06l-2.683-4.029c-.078-.118-.06-.288.071-.525l2.685 4.03c-.13.237-.15.407-.072.525z"/></defs><clipPath id="aF"><use xlink:href="#aE" overflow="visible"/></clipPath><g clip-path="url(#aF)"><path fill="#767273" d="M385 76.506l2.684 4.03c-.131.237-.15.407-.072.525l-2.684-4.03c-.078-.117-.06-.288.072-.525"/></g><defs><path id="aG" d="M357.62 107.482l-2.684-4.028c.11.163.306.282.593.303l2.684 4.03c-.286-.02-.484-.14-.594-.305z"/></defs><clipPath id="aH"><use xlink:href="#aG" overflow="visible"/></clipPath><g clip-path="url(#aH)"><path fill="#767273" d="M355.529 103.757l2.684 4.03c-.286-.02-.483-.14-.594-.305l-2.683-4.028c.11.163.306.282.593.303"/></g><path fill="#777474" d="M383.194 80.516l2.684 4.028-8.856 12.558-2.683-4.032z"/><g><path fill="#787475" d="M365.444 102.363l2.684 4.032-9.915 1.392-2.684-4.03z"/></g><g><defs><path id="aI" d="M377.16 102.025c-.895-1.341-1.79-2.685-2.684-4.028-1.006-1.51-1.218-3.235-.138-4.927l2.684 4.03c-1.08 1.692-.868 3.416.137 4.925z"/></defs><clipPath id="aJ"><use xlink:href="#aI" overflow="visible"/></clipPath><g clip-path="url(#aJ)"><path fill="#767273" d="M374.34 93.07l2.683 4.03c-1.08 1.691-.868 3.416.137 4.925l-2.683-4.028c-1.006-1.51-1.218-3.235-.138-4.927"/></g></g><g><path fill="#787475" d="M403.413 80.63l2.685 4.031-20.22-.117-2.684-4.028z"/></g><g><defs><path id="aK" d="M381.575 104.055l2.685 4.028c-.108-.045-2.174-.897-6.86-1.349-1.257-.12-3.516-.504-6.27-.504-.948 0-1.956.045-3 .163l-2.685-4.03a26.941 26.941 0 0 1 3-.163c2.755 0 5.015.385 6.272.505 4.685.45 6.751 1.304 6.858 1.35z"/></defs><clipPath id="aL"><use xlink:href="#aK" overflow="visible"/></clipPath><g clip-path="url(#aL)"><path fill="#767273" d="M381.575 104.055l2.685 4.028c-.108-.045-2.174-.897-6.86-1.349-1.257-.12-3.516-.504-6.27-.504-.948 0-1.956.045-3 .163l-2.685-4.03a26.941 26.941 0 0 1 3-.163c2.755 0 5.015.385 6.272.505 4.685.45 6.751 1.304 6.858 1.35"/></g></g><g><defs><path id="aM" d="M382.308 102.611l2.683 4.03c.332.498.189 1.489-.465 1.489a.815.815 0 0 1-.266-.048l-2.685-4.03a.828.828 0 0 0 .267.05c.652 0 .797-.995.466-1.49z"/></defs><clipPath id="aN"><use xlink:href="#aM" overflow="visible"/></clipPath><g clip-path="url(#aN)"><path fill="#767273" d="M382.308 102.611l2.683 4.03c.332.498.189 1.489-.465 1.489a.815.815 0 0 1-.266-.048l-2.685-4.03a.828.828 0 0 0 .267.05c.652 0 .797-.995.466-1.49"/></g></g><g><path fill="#787575" d="M416.621 38.614l2.685 4.03 1.327 56.252-2.685-4.028z"/></g><g><defs><path id="aO" d="M421.927 102.82l-2.685-4.03c-.693-1.043-1.15-2.327-1.294-3.923l2.685 4.03c.142 1.597.599 2.88 1.294 3.923z"/></defs><clipPath id="aP"><use xlink:href="#aO" overflow="visible"/></clipPath><g clip-path="url(#aP)"><path fill="#767273" d="M417.948 94.868l2.685 4.03c.143 1.596.6 2.88 1.294 3.922l-2.685-4.029c-.693-1.044-1.15-2.327-1.294-3.923"/></g></g><g><defs><path id="aQ" d="M397.875 107.43l-2.684-4.032c.147.224.383.264.624.25 9.338-.412 8.24-.448 10.552-.691 1.819-.191 3.122-.277 4.247-.277 1.329 0 2.41.118 3.804.323 5.871.862 10.784.938 11.043.942l2.684 4.03c-.258-.004-5.171-.08-11.043-.942-1.395-.205-2.475-.325-3.804-.325-1.125 0-2.429.086-4.246.278-2.313.243-1.215.28-10.554.694-.239.01-.476-.03-.623-.25z"/></defs><clipPath id="aR"><use xlink:href="#aQ" overflow="visible"/></clipPath><g clip-path="url(#aR)"><path fill="#767273" d="M425.461 103.945l2.684 4.03c-.258-.005-5.171-.08-11.043-.943-1.395-.205-2.475-.325-3.804-.325-1.125 0-2.429.086-4.246.28-2.313.242-1.215.277-10.554.69-.239.012-.476-.027-.623-.25l-2.684-4.029c.147.223.383.263.624.25 9.338-.414 8.24-.449 10.552-.692 1.819-.192 3.122-.278 4.247-.278 1.329 0 2.41.119 3.804.324 5.871.862 10.784.94 11.043.943"/></g></g><g><defs><path id="aS" d="M425.738 102.912l2.684 4.03c.259.39.03.928-.277 1.033l-2.684-4.03c.309-.105.535-.644.277-1.033z"/></defs><clipPath id="aT"><use xlink:href="#aS" overflow="visible"/></clipPath><g clip-path="url(#aT)"><path fill="#767273" d="M425.738 102.912l2.684 4.03c.259.39.03.928-.277 1.033l-2.684-4.03c.309-.105.535-.644.277-1.033"/></g></g><g><path fill="#242021" d="M425.527 102.705c.557.368.302 1.113-.066 1.24-.259-.004-5.172-.08-11.043-.943-1.394-.205-2.475-.324-3.804-.324-1.125 0-2.428.086-4.247.278-2.312.243-1.214.278-10.552.692-.349.018-.688-.074-.763-.673.082-.693 1.126-1.017 1.45-1.116 3.734-1.024 5.571-2.902 6.39-7.486.883-5.033.639-9.32.521-13.742l-20.22-.117-8.854 12.556c-2.616 4.099 2.35 8.385 7.824 9.383.503.397.411 1.649-.321 1.649a.828.828 0 0 1-.267-.05c-.107-.044-2.173-.898-6.858-1.348-1.258-.12-3.518-.505-6.271-.505-.949 0-1.956.046-3.001.162l-9.915 1.395c-.926-.063-.924-1.178.002-1.43 4.795-.62 10.522-4.161 13.896-8.952l40.29-56.19c.665-.97 2.087-1.531 3.47-1.531 1.734 0 3.404.884 3.435 2.959l1.327 56.254c.422 4.729 3.594 6.715 7.577 7.84zM397.683 77.23c2.057 0 3.996.01 5.44.04l-.523-23.43c-.104-.304-.243-.46-.399-.46-.13 0-.27.109-.41.334-4.996 7.091-11.856 15.773-16.79 22.792-.307.558-.002.746.744.746.147.013.72.017 1.58.017 1.048 0 2.527-.007 4.195-.017 1.924-.012 4.103-.022 6.163-.022"/></g></g><text transform="translate(434 107.333)" opacity=".78" fill="#231F20" font-family="'ArialMT'" font-size="6">TM</text><g><path fill="none" d="M197.877-62.544l11.29 31.711M210.546 120.193L143.4 173.167"/><linearGradient id="aU" gradientUnits="userSpaceOnUse" x1="46.454" y1="-11.449" x2="46.454" y2="39.552" gradientTransform="matrix(1 0 0 -1 8.4 97.01)"><stop offset=".06" stop-color="#53b848"/><stop offset=".555" stop-color="#65ccec"/><stop offset=".583" stop-color="#61c3e7"/><stop offset=".688" stop-color="#55a7d8"/><stop offset=".793" stop-color="#4d92cd"/><stop offset=".898" stop-color="#4886c6"/><stop offset="1" stop-color="#4682c4"/></linearGradient><path fill="url(#aU)" stroke="#000" stroke-width=".25" d="M28.688 57.458h18.166l34.167 51.001h-18z"/><linearGradient id="aV" gradientUnits="userSpaceOnUse" x1="55.585" y1="-11.401" x2="136.543" y2="85.081" gradientTransform="matrix(1 0 0 -1 8.4 97.01)"><stop offset="0" stop-color="#6ebe44"/><stop offset=".001" stop-color="#6ebe44"/><stop offset=".245" stop-color="#bcda20"/><stop offset=".419" stop-color="#eceb09"/><stop offset=".505" stop-color="#fff200"/><stop offset=".578" stop-color="#fbca08"/><stop offset=".679" stop-color="#f79a11"/><stop offset=".775" stop-color="#f47419"/><stop offset=".864" stop-color="#f1581f"/><stop offset=".941" stop-color="#f04822"/><stop offset="1" stop-color="#ef4223"/></linearGradient><path fill="url(#aV)" stroke="#000" stroke-width=".25" d="M127.375 12.292h18l-64.167 96.167H64.042z"/><g><linearGradient id="aW" gradientUnits="userSpaceOnUse" x1="24.788" y1="-11.448" x2="24.788" y2="39.552" gradientTransform="matrix(1 0 0 -1 8.4 97.01)"><stop offset=".06" stop-color="#53b848"/><stop offset=".555" stop-color="#65ccec"/><stop offset=".583" stop-color="#61c3e7"/><stop offset=".688" stop-color="#55a7d8"/><stop offset=".793" stop-color="#4d92cd"/><stop offset=".898" stop-color="#4886c6"/><stop offset="1" stop-color="#4682c4"/></linearGradient><path fill="url(#aW)" stroke="#000" stroke-width=".25" d="M7.02 57.458h18.168l34.167 51h-18z"/><linearGradient id="aX" gradientUnits="userSpaceOnUse" x1="33.919" y1="-11.4" x2="114.876" y2="85.081" gradientTransform="matrix(1 0 0 -1 8.4 97.01)"><stop offset="0" stop-color="#6ebe44"/><stop offset=".001" stop-color="#6ebe44"/><stop offset=".245" stop-color="#bcda20"/><stop offset=".419" stop-color="#eceb09"/><stop offset=".505" stop-color="#fff200"/><stop offset=".578" stop-color="#fbca08"/><stop offset=".679" stop-color="#f79a11"/><stop offset=".775" stop-color="#f47419"/><stop offset=".864" stop-color="#f1581f"/><stop offset=".941" stop-color="#f04822"/><stop offset="1" stop-color="#ef4223"/></linearGradient><path fill="url(#aX)" stroke="#000" stroke-width=".25" d="M105.708 12.291h18l-64.166 96.167H42.375z"/></g></g></svg>