<svg xmlns="http://www.w3.org/2000/svg" xmlns:xlink="http://www.w3.org/1999/xlink" width="330" height="102" viewBox="19.333 0 330 102"><defs><path id="a" d="M0 0h349.483v101.995H0z"/></defs><clipPath id="b"><use xlink:href="#a" overflow="visible"/></clipPath><g clip-path="url(#b)" fill="#ED1C24"><path d="M276.424 8.05h13.698v86.104h-13.698zM60.14 5.87c-4.316 0-7.996 2.673-9.421 6.494v.071l-24.41 81.72h14.632l5.638-22.197h27.192l5.924 22.196h14.988l-25.051-81.79h-.071a10.052 10.052 0 0 0-9.421-6.495zm-.143 18.77l9.42 35.828H50.79l9.207-35.829zM86.76 7.725v11.562h21.27v74.867h13.702V19.287h21.34V7.725H86.76zM247.904 62.89a4.753 4.753 0 0 1-.64-2.413c0-.826.21-1.573.533-2.213.507-.803 1.416-1.256 2.023-1.642 7.13-4.336 12.196-13.45 12.196-24.007 0-14.156-8.909-25.756-19.96-26.65-1.376-.18-4.485-.163-4.485-.163h-15.59.01c-5.407 0-9.805 5.857-9.805 13.07l.017.022v75.25h13.316v-69.88h-.007c0-2.19 1.334-3.976 2.972-3.976h8.985c.813 0 3.254.063 3.737.154v.004c3.97.437 7.2 4.209 8.137 9.2.049.206.085.409.113.614v.044c.052.306.078.598.106.895.048.462.055.934.055 1.416 0 4.597-1.898 8.618-4.713 10.703-.566.453-1.16.846-1.779 1.185a14.6 14.6 0 0 1-1.49.753c-3.596 1.691-5.134 2.69-6.633 4.613-1.682 2.346-2.746 5.518-2.774 9.022-.028 3.292.834 6.3 2.296 8.633l16.915 26.63h15.84L247.906 62.89M170.849 5.87c-4.314 0-7.996 2.673-9.421 6.494v.071l-24.409 81.72h14.63l5.64-22.197h27.191l5.924 22.196h14.988l-25.051-81.79h-.071a10.054 10.054 0 0 0-9.421-6.495zm-.143 18.77l9.421 35.828h-18.628l9.207-35.829z"/></g><g clip-path="url(#b)" fill="#ED1C24"><path d="M326.912 94.027c-.492 0-1.634-.29-3.725-2.226a769.983 769.983 0 0 1-5.333-4.987c-2.001-1.891-3.547-2.772-4.867-2.772-.801 0-1.545.32-2.21.952-.668.638-1.02 1.472-1.02 2.416 0 .993.35 1.848 1.04 2.536a3.431 3.431 0 0 0 1.621.927v3.09c-1.39-.194-2.592-.83-3.656-1.928-1.307-1.35-1.944-2.885-1.944-4.694 0-1.797.633-3.274 1.935-4.514 1.313-1.254 2.802-1.862 4.545-1.862 1.834 0 3.692.894 5.526 2.659a728.464 728.464 0 0 1 5.799 5.637l1.598 1.571.079-9.867h2.842V92.73c0 .204-.236.475-.644.746-.555.366-1.087.551-1.586.551M321.798 76.025c-.417 0-1.578-.203-4.68-1.562a144.745 144.745 0 0 1-7.262-3.416 153.538 153.538 0 0 1-3.037-1.559v-3.553l8.776 4.181v-1.504c0-2.147.614-3.865 1.877-5.252 1.24-1.361 2.78-2.022 4.706-2.022 2.114 0 3.83.747 5.245 2.285 1.436 1.56 2.134 3.374 2.134 5.542 0 1.958-.755 3.546-2.307 4.855-1.599 1.35-3.383 2.005-5.452 2.005m.554-11.506c-1.172 0-2.19.409-3.026 1.216-.847.818-1.276 1.809-1.276 2.947 0 1.135.47 2.12 1.398 2.927.887.774 1.841 1.166 2.834 1.166 1.256 0 2.265-.39 3.001-1.156.724-.755 1.092-1.755 1.092-2.973 0-1.26-.41-2.279-1.219-3.028a4.01 4.01 0 0 0-2.804-1.1M318.343 57.54c-3.291 0-6.004-1.124-8.293-3.434-2.291-2.313-3.404-4.949-3.404-8.056 0-3.039 1.113-5.64 3.404-7.954 2.29-2.31 4.866-3.434 7.878-3.434 2.99 0 5.588 1.014 7.941 3.097 2.32 2.054 3.446 4.653 3.446 7.945 0 3.228-.999 5.96-3.054 8.347-2.017 2.347-4.606 3.488-7.918 3.488m-.415-19.695c-2.092 0-3.984.818-5.624 2.432-1.645 1.618-2.478 3.514-2.478 5.635 0 2.405.873 4.445 2.596 6.065 1.708 1.604 3.7 2.418 5.92 2.418 2.346 0 4.298-.851 5.804-2.527 1.479-1.647 2.229-3.639 2.229-5.92 0-2.209-.79-4.13-2.345-5.712-1.562-1.587-3.615-2.39-6.102-2.39M318.343 30.69c-3.292 0-6.005-1.123-8.293-3.433-2.291-2.313-3.404-4.948-3.404-8.055 0-3.04 1.113-5.64 3.404-7.954 2.29-2.31 4.867-3.434 7.878-3.434 2.99 0 5.589 1.014 7.941 3.097 2.32 2.053 3.446 4.652 3.446 7.944 0 3.228-.999 5.96-3.054 8.349-2.017 2.346-4.606 3.486-7.918 3.486m-.415-19.694c-2.092 0-3.983.817-5.624 2.432-1.645 1.617-2.478 3.513-2.478 5.634 0 2.405.873 4.445 2.596 6.065 1.708 1.604 3.7 2.417 5.92 2.417 2.346 0 4.298-.85 5.804-2.525 1.479-1.647 2.229-3.64 2.229-5.921 0-2.208-.79-4.13-2.345-5.711-1.562-1.588-3.615-2.391-6.102-2.391"/></g><path clip-path="url(#b)" d="M298.64 5.627c.613 0 1.21.157 1.794.472a3.351 3.351 0 0 1 1.363 1.348c.325.585.488 1.195.488 1.829 0 .629-.161 1.233-.481 1.813s-.77 1.03-1.349 1.35c-.578.32-1.183.48-1.814.48s-1.237-.16-1.815-.48a3.404 3.404 0 0 1-1.351-1.35 3.692 3.692 0 0 1-.483-1.813c0-.634.163-1.244.49-1.83a3.35 3.35 0 0 1 1.366-1.347 3.724 3.724 0 0 1 1.793-.472m0 .605c-.513 0-1.011.13-1.496.393a2.827 2.827 0 0 0-1.138 1.127 3.077 3.077 0 0 0-.411 1.524c0 .526.134 1.029.403 1.511.269.481.646.857 1.129 1.126s.987.403 1.513.403 1.029-.134 1.512-.403.859-.645 1.126-1.126c.268-.482.402-.985.402-1.511 0-.528-.137-1.036-.409-1.524a2.8 2.8 0 0 0-1.138-1.127 3.11 3.11 0 0 0-1.493-.393m-1.6 5.06V7.367h1.348c.46 0 .794.037 1 .11.207.072.37.198.494.378.122.181.183.373.183.576 0 .286-.102.536-.307.749-.204.212-.476.332-.814.357.139.058.25.128.334.208.157.155.35.414.58.778l.478.769h-.773l-.348-.62c-.274-.485-.495-.79-.662-.912-.116-.091-.286-.136-.508-.136h-.372v1.668h-.633zm.633-2.209h.768c.368 0 .618-.055.752-.164.134-.11.2-.255.2-.435a.532.532 0 0 0-.096-.312.578.578 0 0 0-.268-.205c-.115-.046-.327-.068-.636-.068h-.72v1.184zM334.853 11.662V7.596h-1.547v-.71h3.903v.71h-1.56v4.066h-.796zm2.89 0V6.887h1.171l1.207 3.814 1.166-3.814h1.148v4.775h-.726V7.653l-1.231 4.009h-.72l-1.284-4.066v4.066h-.732z"/></svg>