<svg xmlns="http://www.w3.org/2000/svg" width="1182.299" height="88.953" viewBox="0 0 312.817 23.535"><g stroke-width=".795"><path style="isolation:auto;mix-blend-mode:normal;solid-color:#000;solid-opacity:1" color="#000" overflow="visible" fill="#5b5652" d="M0 0h312.817v23.536H0z"/><path d="M113.116 8.566h-2.26v6.486h2.358v-3.39c0-.884.541-1.327 1.525-1.327.982 0 1.228.295 1.277 1.13h2.212c0-2.212-.295-3.047-2.654-3.047-1.425 0-1.917.295-2.457 1.376V8.566zm10.86 5.209c-2.26 0-2.603-.197-2.603-1.328h6.192c-.098-3.143-.098-3.881-4.275-3.881-3.54 0-4.326.639-4.326 3.44 0 2.604 1.033 3.243 3.883 3.293 3.195 0 4.718-.148 4.718-2.26h-2.31c-.099.49-.294.736-1.279.736zm-2.653-2.702c.098-.689.294-.935 1.867-.935 1.722 0 1.967.1 2.065.935zm-87.874.245h2.358c-.196-2.212-.835-2.752-4.127-2.752-3.735 0-4.57.588-4.57 3.342 0 2.752.786 3.39 4.275 3.39 3.686 0 4.423-.491 4.423-2.801h-2.359c0 .639-.245.934-2.064.934-1.573 0-1.917-.393-1.917-1.67 0-1.23.344-1.23 2.213-1.23 1.374 0 1.62.148 1.768.787zm54.798.392c0-2.653-.786-3.193-4.57-3.193-4.08 0-4.57.688-4.57 3.44s.687 3.341 4.57 3.341c4.128 0 4.57-.687 4.57-3.588zm-6.733.149c0-1.327.295-1.474 2.016-1.474 1.916 0 2.26.048 2.26 1.474 0 1.327-.246 1.573-2.065 1.573-1.965 0-2.21-.198-2.21-1.573zm27.915-.149c0-2.653-.738-3.193-4.52-3.193-4.03 0-4.522.637-4.522 3.39 0 2.802.687 3.391 4.522 3.391 4.126 0 4.52-.687 4.52-3.588zm-6.683.149c0-1.327.294-1.474 2.014-1.474 1.917 0 2.26.048 2.26 1.474 0 1.327-.245 1.573-2.063 1.573-1.965 0-2.211-.198-2.211-1.573zm-56.47-.149c0-2.653-.737-3.193-4.521-3.193-4.08 0-4.571.637-4.571 3.39 0 2.802.689 3.391 4.57 3.391 4.13 0 4.522-.687 4.522-3.588zm-6.636.149c0-1.327.295-1.474 1.967-1.474 1.916 0 2.26.048 2.26 1.474 0 1.327-.246 1.573-2.064 1.573-1.917 0-2.163-.198-2.163-1.573zm56.815-6.046v3.784c-.54-.737-1.032-1.13-2.998-1.13-3.145 0-3.735.836-3.735 3.391 0 2.606.836 3.341 3.882 3.341 1.917 0 2.507-.49 2.95-1.326v1.178h2.359V5.812h-2.458zm-1.72 4.522c1.326 0 1.77.197 1.77 1.228 0 1.573-.1 1.722-1.966 1.722-1.868 0-2.36-.05-2.36-1.377 0-1.524.59-1.573 2.555-1.573zM50.01 8.566H47.8v6.486h2.359V11.71c0-.982.491-1.326 1.819-1.326 1.228 0 1.572.442 1.572 1.67v2.998h2.408v-3.44c0-.933.737-1.228 1.867-1.228 1.082 0 1.573.295 1.573 1.229v3.439h2.359v-3.833c0-1.916-1.18-2.801-3.342-2.801-1.868 0-2.556.688-2.802 1.425-.491-.836-1.18-1.425-3.047-1.425-1.77 0-2.26.59-2.556 1.67V8.567zm15.874 0h-2.211v6.486h2.358V11.71c0-.982.59-1.326 1.77-1.326 1.229 0 1.572.394 1.572 1.67v2.998h2.41v-3.44c0-.933.687-1.228 1.818-1.228 1.08 0 1.62.344 1.62 1.229v3.439h2.36v-3.833c0-1.916-1.179-2.801-3.342-2.801-1.867 0-2.507.638-2.8 1.425-.493-.836-1.18-1.425-3.048-1.425-1.72 0-2.162.59-2.506 1.67V8.567zM21.118 12.13h-3.796v3.113h6.823zm3.027-3.752h-6.823v3.112h3.753zm-7.036-.214V4.156c-.81-.213-1.365-.299-2.175-.299-4.222 0-7.931 3.54-7.931 7.932 0 4.52 3.752 7.89 7.974 7.89.767 0 1.194-.086 2.132-.343v-4.093c-.939.468-1.407.596-2.175.596-2.345 0-4.137-1.96-4.137-4.136 0-2.26 1.748-4.18 4.094-4.18.811 0 1.493.215 2.218.641z" fill="#fff"/><g stroke-width=".503" color="#000"><path style="isolation:auto;mix-blend-mode:normal;solid-color:#000;solid-opacity:1" overflow="visible" fill="#2fabc5" d="M131.454 6.614h2.48v10.305h-2.48z"/><path style="isolation:auto;mix-blend-mode:normal;solid-color:#000;solid-opacity:1" overflow="visible" fill="#2ba7c1" d="M134.753 6.614h2.481v10.305h-2.48z"/><path style="isolation:auto;mix-blend-mode:normal;solid-color:#000;solid-opacity:1" overflow="visible" fill="#2c9fb9" d="M138.053 6.614h2.48v10.305h-2.48z"/><path style="isolation:auto;mix-blend-mode:normal;solid-color:#000;solid-opacity:1" overflow="visible" fill="#2da6c0" d="M141.352 6.614h2.481v10.305h-2.48z"/><path style="isolation:auto;mix-blend-mode:normal;solid-color:#000;solid-opacity:1" overflow="visible" fill="#28b2c3" d="M144.652 6.614h2.48v10.305h-2.48z"/><path style="isolation:auto;mix-blend-mode:normal;solid-color:#000;solid-opacity:1" overflow="visible" fill="#28a5a8" d="M147.951 6.614h2.481v10.305h-2.48z"/><path style="isolation:auto;mix-blend-mode:normal;solid-color:#000;solid-opacity:1" overflow="visible" fill="#269857" d="M151.25 6.614h2.482v10.305h-2.481z"/><path style="isolation:auto;mix-blend-mode:normal;solid-color:#000;solid-opacity:1" overflow="visible" fill="#319b58" d="M154.548 6.614h2.481v10.305h-2.48z"/><path style="isolation:auto;mix-blend-mode:normal;solid-color:#000;solid-opacity:1" overflow="visible" fill="#309a57" d="M157.848 6.614h2.48v10.305h-2.48z"/><path style="isolation:auto;mix-blend-mode:normal;solid-color:#000;solid-opacity:1" overflow="visible" fill="#2b9850" d="M161.147 6.614h2.481v10.305h-2.48z"/><path style="isolation:auto;mix-blend-mode:normal;solid-color:#000;solid-opacity:1" overflow="visible" fill="#34a35c" d="M164.447 6.614h2.48v10.305h-2.48z"/><path style="isolation:auto;mix-blend-mode:normal;solid-color:#000;solid-opacity:1" overflow="visible" fill="#2d974f" d="M167.746 6.614h2.481v10.305h-2.48z"/><path style="isolation:auto;mix-blend-mode:normal;solid-color:#000;solid-opacity:1" overflow="visible" fill="#68b057" d="M171.046 6.614h2.48v10.305h-2.48z"/><path style="isolation:auto;mix-blend-mode:normal;solid-color:#000;solid-opacity:1" overflow="visible" fill="#6faf55" d="M174.345 6.614h2.481v10.305h-2.48z"/><path style="isolation:auto;mix-blend-mode:normal;solid-color:#000;solid-opacity:1" overflow="visible" fill="#6cae55" d="M177.645 6.614h2.48v10.305h-2.48z"/><path style="isolation:auto;mix-blend-mode:normal;solid-color:#000;solid-opacity:1" overflow="visible" fill="#acc249" d="M180.944 6.614h2.481v10.305h-2.48z"/><path style="isolation:auto;mix-blend-mode:normal;solid-color:#000;solid-opacity:1" overflow="visible" fill="#bac441" d="M184.244 6.614h2.48v10.305h-2.48z"/><path style="isolation:auto;mix-blend-mode:normal;solid-color:#000;solid-opacity:1" overflow="visible" fill="#e0d640" d="M187.541 6.614h2.481v10.305h-2.48z"/><path style="isolation:auto;mix-blend-mode:normal;solid-color:#000;solid-opacity:1" overflow="visible" fill="#dccc3d" d="M190.84 6.614h2.482v10.305h-2.481z"/><path style="isolation:auto;mix-blend-mode:normal;solid-color:#000;solid-opacity:1" overflow="visible" fill="#ddce45" d="M194.14 6.614h2.481v10.305h-2.48z"/><path style="isolation:auto;mix-blend-mode:normal;solid-color:#000;solid-opacity:1" overflow="visible" fill="#e2c03e" d="M197.44 6.614h2.48v10.305h-2.48z"/><path style="isolation:auto;mix-blend-mode:normal;solid-color:#000;solid-opacity:1" overflow="visible" fill="#dc9f2d" d="M200.74 6.614h2.48v10.305h-2.48z"/><path style="isolation:auto;mix-blend-mode:normal;solid-color:#000;solid-opacity:1" overflow="visible" fill="#e69434" d="M204.039 6.614h2.48v10.305h-2.48z"/><path style="isolation:auto;mix-blend-mode:normal;solid-color:#000;solid-opacity:1" overflow="visible" fill="#e98f34" d="M207.338 6.614h2.481v10.305h-2.48z"/><path style="isolation:auto;mix-blend-mode:normal;solid-color:#000;solid-opacity:1" overflow="visible" fill="#e37c20" d="M210.638 6.614h2.48v10.305h-2.48z"/><path style="isolation:auto;mix-blend-mode:normal;solid-color:#000;solid-opacity:1" overflow="visible" fill="#ca6627" d="M213.937 6.614h2.481v10.305h-2.48z"/><path style="isolation:auto;mix-blend-mode:normal;solid-color:#000;solid-opacity:1" overflow="visible" fill="#dd561d" d="M217.237 6.614h2.48v10.305h-2.48z"/><path style="isolation:auto;mix-blend-mode:normal;solid-color:#000;solid-opacity:1" overflow="visible" fill="#d55522" d="M220.534 6.614h2.481v10.305h-2.48z"/><path style="isolation:auto;mix-blend-mode:normal;solid-color:#000;solid-opacity:1" overflow="visible" fill="#d65424" d="M223.834 6.614h2.48v10.305h-2.48z"/><path style="isolation:auto;mix-blend-mode:normal;solid-color:#000;solid-opacity:1" overflow="visible" fill="#d6481d" d="M227.133 6.614h2.481v10.305h-2.48z"/><path style="isolation:auto;mix-blend-mode:normal;solid-color:#000;solid-opacity:1" overflow="visible" fill="#e13e28" d="M230.433 6.614h2.48v10.305h-2.48z"/><path style="isolation:auto;mix-blend-mode:normal;solid-color:#000;solid-opacity:1" overflow="visible" fill="#dd261a" d="M233.732 6.614h2.481v10.305h-2.48z"/><path style="isolation:auto;mix-blend-mode:normal;solid-color:#000;solid-opacity:1" overflow="visible" fill="#e92a2a" d="M237.032 6.614h2.48v10.305h-2.48z"/><path style="isolation:auto;mix-blend-mode:normal;solid-color:#000;solid-opacity:1" overflow="visible" fill="#e22821" d="M240.331 6.614h2.481v10.305h-2.48z"/><path style="isolation:auto;mix-blend-mode:normal;solid-color:#000;solid-opacity:1" overflow="visible" fill="#e50e10" d="M243.63 6.614h2.482v10.305h-2.481z"/><path style="isolation:auto;mix-blend-mode:normal;solid-color:#000;solid-opacity:1" overflow="visible" fill="#e11613" d="M246.93 6.614h2.481v10.305h-2.48z"/><path style="isolation:auto;mix-blend-mode:normal;solid-color:#000;solid-opacity:1" overflow="visible" fill="#e11413" d="M250.23 6.614h2.48v10.305h-2.48z"/></g><path d="M256.295 13.058V8.52l1.103.023 1.103.023.025.354c.015.194.054.354.088.354.034 0 .188-.13.343-.29.476-.491.9-.584 2.664-.584 1.83.001 2.356.114 2.946.634.558.49.657.815.698 2.292.043 1.519-.065 2.277-.396 2.8-.432.68-1.419.973-3.28.973-1.385 0-2.165-.207-2.622-.697-.11-.117-.231-.193-.27-.17-.04.025-.072.791-.072 1.704v1.66h-2.33zm5.782.119c.2-.05.45-.185.557-.298.18-.192.194-.276.194-1.15 0-.885-.013-.958-.202-1.159-.286-.304-.651-.38-1.837-.38-1.621 0-1.937.158-2.081 1.044-.173 1.063.092 1.765.73 1.934.429.114 2.197.12 2.639.009zm9.874 1.834c-.963-.172-1.68-.681-2.017-1.431-.19-.424-.196-.505-.198-2.725V8.566h2.35v1.96c0 2.133.088 2.231.58 2.554.186.121.414.147 1.31.147.94 0 1.125-.023 1.377-.17.544-.314.688-.585.73-2.679V8.525h1.103c.967 0 1.143.02 1.186.131v6.217h-2.29v-.377c-.014-.218.027-.395 0-.395-.297 1.075-1.81.934-2.602.96-.595.016-1.283-.007-1.53-.05zm9.643.03c-1.422-.15-2.123-.665-2.289-1.679-.044-.268-.03-.383.054-.436.062-.039.59-.072 1.172-.073 1.044 0 1.061.002 1.198.211.285.435.533.495 2.029.495 1.59 0 1.855-.071 1.898-.512.047-.488-.115-.528-2.146-.53-2.69-.002-3.443-.168-3.9-.858-.203-.307-.221-.404-.221-1.18 0-.78.017-.869.228-1.188.456-.688 1.077-.848 3.517-.908 2.984-.072 4.018.155 4.434.974.117.23.18.487.166.666l-.023.29-1.117.024-1.116.024-.241-.232-.242-.231h-1.392c-1.193 0-1.424.021-1.617.148-.283.185-.303.512-.04.653.125.067.953.117 2.489.152l2.301.052.482.247c.664.339.889.766.885 1.68-.008 1.486-.577 1.981-2.515 2.184-.743.077-3.355.096-3.994.028zm-15.318-.168V5.94h2.316v8.933zM303.45 17.346v-2.03h-8.899v-4.358l6.657-4.769h5.521v6.523h2.213v2.605h-2.213v2.03zm0-8.525h-.367l-5.487 3.61.003.28h5.85zM287.653 17.472c0-.04 1.481-2.642 3.291-5.78l3.292-5.704h1.56l-.14.242-3.34 5.78-3.199 5.537h-.732c-.441 0-.732-.03-.732-.075z" fill="#fff"/></g></svg>
