<svg xmlns="http://www.w3.org/2000/svg" width="1183.785" height="117.526" viewBox="0 0 313.21 31.095"><g stroke-width=".639"><path d="M15.548 0h282.114c8.552 0 15.548 6.996 15.548 15.547 0 8.552-6.996 15.548-15.548 15.548H15.548C6.996 31.095 0 24.1 0 15.547 0 6.997 6.996 0 15.548 0z" fill="#5b5652" fill-rule="evenodd"/><g stroke-width=".337" color="#000"><path style="isolation:auto;mix-blend-mode:normal;solid-color:#000;solid-opacity:1" overflow="visible" fill="#2fabc5" d="M177.963 7.706h2.02v15.685h-2.02z"/><path style="isolation:auto;mix-blend-mode:normal;solid-color:#000;solid-opacity:1" overflow="visible" fill="#2c9fb9" d="M182.324 7.706h2.02v15.685h-2.02z"/><path style="isolation:auto;mix-blend-mode:normal;solid-color:#000;solid-opacity:1" overflow="visible" fill="#2da6c0" d="M186.685 7.706h2.02v15.685h-2.02z"/><path style="isolation:auto;mix-blend-mode:normal;solid-color:#000;solid-opacity:1" overflow="visible" fill="#269857" d="M191.046 7.706h2.02v15.685h-2.02z"/><path style="isolation:auto;mix-blend-mode:normal;solid-color:#000;solid-opacity:1" overflow="visible" fill="#319b58" d="M195.407 7.706h2.02v15.685h-2.02z"/><path style="isolation:auto;mix-blend-mode:normal;solid-color:#000;solid-opacity:1" overflow="visible" fill="#309a57" d="M199.768 7.706h2.02v15.685h-2.02z"/><path style="isolation:auto;mix-blend-mode:normal;solid-color:#000;solid-opacity:1" overflow="visible" fill="#34a35c" d="M204.126 7.706h2.02v15.685h-2.02z"/><path style="isolation:auto;mix-blend-mode:normal;solid-color:#000;solid-opacity:1" overflow="visible" fill="#68b057" d="M208.487 7.706h2.02v15.685h-2.02z"/><path style="isolation:auto;mix-blend-mode:normal;solid-color:#000;solid-opacity:1" overflow="visible" fill="#6cae55" d="M212.848 7.706h2.02v15.685h-2.02z"/><path style="isolation:auto;mix-blend-mode:normal;solid-color:#000;solid-opacity:1" overflow="visible" fill="#bac441" d="M217.209 7.706h2.02v15.685h-2.02z"/><path style="isolation:auto;mix-blend-mode:normal;solid-color:#000;solid-opacity:1" overflow="visible" fill="#e0d640" d="M221.57 7.706h2.02v15.685h-2.02z"/><path style="isolation:auto;mix-blend-mode:normal;solid-color:#000;solid-opacity:1" overflow="visible" fill="#dccc3d" d="M225.93 7.706h2.02v15.685h-2.02z"/><path style="isolation:auto;mix-blend-mode:normal;solid-color:#000;solid-opacity:1" overflow="visible" fill="#ddce45" d="M230.292 7.706h2.02v15.685h-2.02z"/><path style="isolation:auto;mix-blend-mode:normal;solid-color:#000;solid-opacity:1" overflow="visible" fill="#dc9f2d" d="M234.653 7.706h2.02v15.685h-2.02z"/><path style="isolation:auto;mix-blend-mode:normal;solid-color:#000;solid-opacity:1" overflow="visible" fill="#e98f34" d="M239.014 7.706h2.02v15.685h-2.02z"/><path style="isolation:auto;mix-blend-mode:normal;solid-color:#000;solid-opacity:1" overflow="visible" fill="#e37c20" d="M243.375 7.706h2.02v15.685h-2.02z"/><path style="isolation:auto;mix-blend-mode:normal;solid-color:#000;solid-opacity:1" overflow="visible" fill="#dd561d" d="M247.735 7.706h2.02v15.685h-2.02z"/><path style="isolation:auto;mix-blend-mode:normal;solid-color:#000;solid-opacity:1" overflow="visible" fill="#d65424" d="M252.096 7.706h2.02v15.685h-2.02z"/><path style="isolation:auto;mix-blend-mode:normal;solid-color:#000;solid-opacity:1" overflow="visible" fill="#e13e28" d="M256.457 7.706h2.02v15.685h-2.02z"/><path style="isolation:auto;mix-blend-mode:normal;solid-color:#000;solid-opacity:1" overflow="visible" fill="#dd261a" d="M260.818 7.706h2.02v15.685h-2.02z"/><path style="isolation:auto;mix-blend-mode:normal;solid-color:#000;solid-opacity:1" overflow="visible" fill="#e22821" d="M265.18 7.706h2.02v15.685h-2.02z"/><path style="isolation:auto;mix-blend-mode:normal;solid-color:#000;solid-opacity:1" overflow="visible" fill="#e11613" d="M269.54 7.706h2.02v15.685h-2.02z"/><path style="isolation:auto;mix-blend-mode:normal;solid-color:#000;solid-opacity:1" overflow="visible" fill="#e11413" d="M273.901 7.706h2.02v15.685h-2.02z"/></g><g fill="#fff"><path d="M292.895 23.154c-1.977-.14-3.019-.475-3.747-1.203-.568-.567-.861-1.302-1.002-2.508-.103-.884-.166-4.304-.11-5.97.056-1.63.126-2.264.325-2.933.426-1.438 1.441-2.111 3.657-2.426 1.103-.156 1.793-.19 4.593-.217 6.044-.06 7.775.231 8.594 1.443.322.475.473 1.198.503 2.4l.011.53-2.115-.013-2.115-.012-.046-.155c-.192-.648-.265-.678-1.821-.753-1.396-.068-5.247-.033-5.774.051-.609.098-.888.2-1.082.393-.281.282-.347.574-.376 1.688-.013.531-.011 1.002.003 1.047.025.064.096.03.355-.172.63-.494 1.34-.751 2.469-.895.741-.094 5.363-.096 6.164-.001 2.198.257 3.188.757 3.757 1.894.319.64.448 1.474.449 2.917.001 2.029-.274 3.073-1.001 3.795-.73.723-1.65.978-4.005 1.107-1.11.061-6.818.058-7.69-.003zm5.988-3.35c1.423-.059 1.693-.11 1.947-.372.252-.26.324-.53.324-1.226 0-.533-.013-.632-.12-.83-.159-.302-.45-.448-1.102-.554-.667-.109-5.79-.128-6.285-.025-.627.133-.983.422-1.121.912-.076.268-.075.972.001 1.248.157.569.484.776 1.324.84.818.063 3.56.066 5.032.004z"/><path style="isolation:auto;mix-blend-mode:normal;solid-color:#000;solid-opacity:1" color="#000" overflow="visible" d="M281.716 7.895h4.288V23.2h-4.288z"/></g><g stroke-width=".722" fill="#fff"><path d="M153.43 11.115h-3.13v8.98h3.265V15.4c0-1.224.75-1.837 2.11-1.837 1.36 0 1.702.408 1.769 1.563h3.062c0-3.06-.408-4.217-3.674-4.217-1.973 0-2.654.408-3.402 1.905v-1.7zm15.035 7.212c-3.129 0-3.605-.273-3.605-1.838h8.574c-.136-4.352-.136-5.374-5.92-5.374-4.9 0-5.99.884-5.99 4.762 0 3.606 1.431 4.49 5.377 4.56 4.423 0 6.533-.205 6.533-3.13h-3.2c-.136.68-.407 1.02-1.77 1.02zm-3.674-3.742c.136-.953.408-1.293 2.586-1.293 2.383 0 2.722.137 2.857 1.293zm-121.657.34h3.265c-.272-3.062-1.156-3.81-5.714-3.81-5.171 0-6.328.815-6.328 4.626 0 3.81 1.089 4.694 5.92 4.694 5.102 0 6.123-.68 6.123-3.878h-3.266c0 .885-.34 1.294-2.858 1.294-2.177 0-2.653-.544-2.653-2.314 0-1.7.476-1.7 3.063-1.7 1.903 0 2.243.204 2.448 1.088zm75.865.543c0-3.673-1.088-4.42-6.328-4.42-5.647 0-6.326.951-6.326 4.76 0 3.811.951 4.627 6.326 4.627 5.717.001 6.328-.95 6.328-4.967zm-9.32.206c0-1.838.408-2.04 2.79-2.04 2.652 0 3.128.066 3.128 2.04 0 1.837-.34 2.178-2.858 2.178-2.721 0-3.06-.274-3.06-2.178zm38.645-.206c0-3.673-1.02-4.42-6.258-4.42-5.58 0-6.26.882-6.26 4.693 0 3.878.952 4.694 6.26 4.694 5.714.001 6.258-.95 6.258-4.967zm-9.252.206c0-1.838.407-2.04 2.789-2.04 2.654 0 3.13.066 3.13 2.04 0 1.837-.34 2.178-2.857 2.178-2.72 0-3.062-.274-3.062-2.178zm-78.18-.206c0-3.673-1.02-4.42-6.259-4.42-5.647 0-6.328.882-6.328 4.693 0 3.878.954 4.694 6.328 4.694 5.716.001 6.26-.95 6.26-4.967zm-9.186.206c0-1.838.408-2.04 2.723-2.04 2.653 0 3.13.066 3.13 2.04 0 1.837-.342 2.178-2.859 2.178-2.654 0-2.994-.274-2.994-2.178zm78.656-8.37v5.239c-.748-1.021-1.428-1.564-4.15-1.564-4.354 0-5.17 1.157-5.17 4.694 0 3.607 1.157 4.626 5.374 4.626 2.654 0 3.47-.68 4.083-1.837v1.631h3.266V7.303h-3.403zm-2.381 6.26c1.836 0 2.45.272 2.45 1.7 0 2.178-.138 2.384-2.721 2.384-2.586 0-3.267-.07-3.267-1.906 0-2.11.816-2.178 3.538-2.178zm-61.918-2.449h-3.06v8.98h3.265v-4.627c0-1.36.68-1.836 2.518-1.836 1.701 0 2.177.612 2.177 2.313v4.15h3.334v-4.762c0-1.293 1.02-1.7 2.585-1.7 1.497 0 2.177.408 2.177 1.7v4.761h3.266v-5.306c0-2.652-1.633-3.878-4.626-3.878-2.587 0-3.54.953-3.88 1.973-.68-1.157-1.632-1.973-4.218-1.973-2.45 0-3.13.816-3.539 2.313v-2.108zm21.978 0h-3.062v8.98h3.265v-4.627c0-1.36.816-1.836 2.449-1.836 1.702 0 2.178.545 2.178 2.313v4.15h3.335v-4.762c0-1.293.953-1.7 2.518-1.7 1.496 0 2.244.475 2.244 1.7v4.761h3.266v-5.306c0-2.652-1.632-3.878-4.626-3.878-2.585 0-3.471.884-3.878 1.973-.681-1.157-1.634-1.973-4.22-1.973-2.38 0-2.992.816-3.469 2.313v-2.108zM26.063 16.049h-5.256v4.31h9.446zm4.19-5.195h-9.446v4.31h5.196zm-9.741-.295v-5.55c-1.121-.295-1.89-.413-3.01-.413-5.846 0-10.982 4.9-10.982 10.98 0 6.26 5.195 10.924 11.04 10.924 1.063 0 1.653-.119 2.952-.474v-5.667c-1.3.648-1.948.825-3.01.825-3.248 0-5.729-2.714-5.729-5.726 0-3.128 2.421-5.786 5.668-5.786 1.123 0 2.068.297 3.071.887z"/></g></g></svg>
