<?xml version="1.0" encoding="UTF-8" standalone="no"?>
<!-- Created with Inkscape (http://www.inkscape.org/) -->

<svg
   xmlns:dc="http://purl.org/dc/elements/1.1/"
   xmlns:cc="http://creativecommons.org/ns#"
   xmlns:rdf="http://www.w3.org/1999/02/22-rdf-syntax-ns#"
   xmlns:svg="http://www.w3.org/2000/svg"
   xmlns="http://www.w3.org/2000/svg"
   xmlns:sodipodi="http://sodipodi.sourceforge.net/DTD/sodipodi-0.dtd"
   xmlns:inkscape="http://www.inkscape.org/namespaces/inkscape"
   width="312.94241mm"
   height="31.0688mm"
   viewBox="0 0 312.94241 31.0688"
   version="1.1"
   id="svg5951"
   inkscape:version="0.92.0 r15299"
   sodipodi:docname="c64_new_udb.svg">
  <defs
     id="defs5945" />
  <sodipodi:namedview
     id="base"
     pagecolor="#ffffff"
     bordercolor="#666666"
     borderopacity="1.0"
     inkscape:pageopacity="0.0"
     inkscape:pageshadow="2"
     inkscape:zoom="0.35"
     inkscape:cx="95.672927"
     inkscape:cy="15.855545"
     inkscape:document-units="mm"
     inkscape:current-layer="layer1"
     showgrid="false"
     fit-margin-top="0"
     fit-margin-left="0"
     fit-margin-right="0"
     fit-margin-bottom="0"
     inkscape:window-width="1920"
     inkscape:window-height="1137"
     inkscape:window-x="-8"
     inkscape:window-y="-8"
     inkscape:window-maximized="1" />
  <metadata
     id="metadata5948">
    <rdf:RDF>
      <cc:Work
         rdf:about="">
        <dc:format>image/svg+xml</dc:format>
        <dc:type
           rdf:resource="http://purl.org/dc/dcmitype/StillImage" />
        <dc:title></dc:title>
      </cc:Work>
    </rdf:RDF>
  </metadata>
  <g
     inkscape:label="Layer 1"
     inkscape:groupmode="layer"
     id="layer1"
     transform="translate(42.32239,-121.95965)">
    <g
       id="g6524">
      <g
         style="stroke-width:0.85651904"
         transform="matrix(1.1675164,0,0,1.1675164,-46.860039,201.43012)"
         id="g4581">
        <path
           inkscape:connector-curvature="0"
           d="M 17.192401,-68.067972 H 258.62188 c 7.31878,0 13.30582,5.987055 13.30582,13.305188 v 0 c 0,7.318774 -5.98704,13.30583 -13.30582,13.30583 H 17.192401 c -7.318774,0 -13.3058187,-5.987056 -13.3058187,-13.30583 v 0 c 0,-7.317502 5.9870447,-13.305188 13.3058187,-13.305188 z"
           id="path5"
           style="fill:#5b5652;fill-opacity:1;fill-rule:evenodd;stroke-width:0.22662064" />
        <polygon
           points="434.238,411.131 319.269,411.131 319.269,408.062 434.238,408.062 "
           id="polygon7"
           style="fill:#e2001a;fill-rule:evenodd;stroke-width:0.35735893"
           transform="matrix(0.63415419,0,0,0.63415419,-50.650681,-322.29405)" />
        <polygon
           points="434.238,417.269 319.269,417.269 319.269,414.2 434.238,414.2 "
           id="polygon9"
           style="fill:#e95e38;fill-rule:evenodd;stroke-width:0.35735893"
           transform="matrix(0.63415419,0,0,0.63415419,-50.650681,-322.29405)" />
        <polygon
           points="434.238,423.406 319.269,423.406 319.269,420.337 434.238,420.337 "
           id="polygon11"
           style="fill:#ffcc00;fill-rule:evenodd;stroke-width:0.35735893"
           transform="matrix(0.63415419,0,0,0.63415419,-50.650681,-322.29405)" />
        <polygon
           points="434.238,429.544 319.269,429.544 319.269,426.475 434.238,426.475 "
           id="polygon13"
           style="fill:#57ab27;fill-rule:evenodd;stroke-width:0.35735893"
           transform="matrix(0.63415419,0,0,0.63415419,-50.650681,-322.29405)" />
        <polygon
           points="434.238,435.682 319.269,435.682 319.269,432.613 434.238,432.613 "
           id="polygon15"
           style="fill:#009ee0;fill-rule:evenodd;stroke-width:0.35735893"
           transform="matrix(0.63415419,0,0,0.63415419,-50.650681,-322.29405)" />
        <path
           inkscape:connector-curvature="0"
           d="m 246.12461,-51.930652 c 0,2.46623 -2.16755,3.699018 -6.50516,3.699018 h -2.21954 c -2.44403,0 -4.13786,-0.422341 -5.08465,-1.263868 -0.94743,-0.843421 -1.41924,-2.303246 -1.41924,-4.379466 v -2.792817 c 0,-2.063535 0.47181,-3.516377 1.41924,-4.359808 0.94616,-0.84342 2.64062,-1.2645 5.08465,-1.2645 h 2.21954 c 2.01407,0 3.52843,0.270149 4.54308,0.81172 1.01592,0.541561 1.52323,1.333623 1.52323,2.37807 v 1.000703 h -5.21464 v -0.358298 c 0,-0.32723 -0.0939,-0.541571 -0.28347,-0.642405 -0.18961,-0.100193 -0.5682,-0.151561 -1.13577,-0.151561 h -1.23977 c -0.70455,0 -1.1567,0.05711 -1.35392,0.170587 -0.19849,0.112877 -0.29742,0.383026 -0.29742,0.811089 v 1.924017 c 0.75655,-0.414737 1.69446,-0.621463 2.81438,-0.621463 h 1.83207 c 1.84158,0 3.18789,0.311368 4.04019,0.933473 0.85104,0.622737 1.2772,1.582841 1.2772,2.878421 z M 129.12442,-58.68947 h -2.51188 v 7.206529 h 2.62096 v -3.766869 c 0,-0.982307 0.60117,-1.474413 1.69382,-1.474413 1.09138,0 1.36534,0.32786 1.41924,1.254991 h 2.45798 c 0,-2.45671 -0.32786,-3.385115 -2.94882,-3.385115 -1.58411,0 -2.13012,0.327861 -2.73066,1.528949 v -1.364072 z m -103.062103,4.32938 h -4.217755 v 3.459308 h 7.581309 z m 3.36292,-4.168931 H 21.84392 v 3.458676 h 4.170204 z m 111.766503,5.627484 c -2.51061,0 -2.89301,-0.218791 -2.89301,-1.475045 h 6.88121 c -0.10908,-3.492922 -0.10908,-4.312888 -4.75109,-4.312888 -3.93302,0 -4.80688,0.709624 -4.80688,3.822055 0,2.894271 1.14782,3.603896 4.31478,3.659072 3.55,0 5.24319,-0.164256 5.24319,-2.511887 h -2.56769 c -0.10908,0.545998 -0.32659,0.818693 -1.42051,0.818693 z m -2.94818,-3.00272 c 0.10907,-0.76479 0.32722,-1.038116 2.07495,-1.038116 1.91261,0 2.18466,0.109711 2.29374,1.038116 z m -97.64199,0.272684 h 2.62096 c -0.218149,-2.457984 -0.928402,-3.057897 -4.586203,-3.057897 -4.15054,0 -5.078941,0.653817 -5.078941,3.712975 0,3.057897 0.873864,3.76751 4.751083,3.76751 4.095368,0 4.914694,-0.546009 4.914694,-3.113062 h -2.620958 c 0,0.710255 -0.272686,1.038746 -2.293736,1.038746 -1.747729,0 -2.12949,-0.436929 -2.12949,-1.856808 0,-1.365334 0.381761,-1.365334 2.457982,-1.365334 1.527677,0 1.800364,0.164245 1.964609,0.87387 z m 60.88958,0.435667 c 0,-2.948186 -0.87323,-3.548099 -5.078937,-3.548099 -4.532301,0 -5.077673,0.764159 -5.077673,3.821414 0,3.058528 0.763521,3.713606 5.077673,3.713606 4.588107,6.42e-4 5.078937,-0.763517 5.078937,-3.986921 z m -7.481114,0.165508 c 0,-1.475045 0.327858,-1.638018 2.239198,-1.638018 2.129491,0 2.511251,0.05385 2.511251,1.638018 0,1.474413 -0.27332,1.747728 -2.293736,1.747728 -2.184027,0 -2.456713,-0.219411 -2.456713,-1.747728 z m 31.017114,-0.165508 c 0,-2.948186 -0.81933,-3.548099 -5.0225,-3.548099 -4.4784,0 -5.0244,0.708352 -5.0244,3.76751 0,3.112432 0.76415,3.76751 5.0244,3.76751 4.58557,6.42e-4 5.0225,-0.763517 5.0225,-3.986921 z m -7.42594,0.165508 c 0,-1.475045 0.32722,-1.638018 2.23856,-1.638018 2.13012,0 2.51189,0.05385 2.51189,1.638018 0,1.474413 -0.27269,1.747728 -2.29311,1.747728 -2.18339,0 -2.45734,-0.219411 -2.45734,-1.747728 z m -62.74639,-0.165508 c 0,-2.948186 -0.819327,-3.548099 -5.023769,-3.548099 -4.5323,0 -5.078942,0.708352 -5.078942,3.76751 0,3.112432 0.765424,3.76751 5.078942,3.76751 4.587471,6.42e-4 5.023769,-0.763517 5.023769,-3.986921 z m -7.37331,0.165508 c 0,-1.475045 0.327857,-1.638018 2.185295,-1.638018 2.129489,0 2.511884,0.05385 2.511884,1.638018 0,1.474413 -0.273954,1.747728 -2.293736,1.747728 -2.130757,0 -2.403443,-0.219411 -2.403443,-1.747728 z m 63.12942,-6.718231 v 4.205081 c -0.60055,-0.819324 -1.14656,-1.254991 -3.33058,-1.254991 -3.49483,0 -4.15054,0.928404 -4.15054,3.76751 0,2.894913 0.92903,3.712333 4.31415,3.712333 2.13012,0 2.7852,-0.545367 3.27667,-1.473772 v 1.308896 h 2.6216 V -61.74926 h -2.7313 z m -1.91135,5.025037 c 1.47378,0 1.96652,0.218149 1.96652,1.364071 0,1.74836 -0.11035,1.913247 -2.18403,1.913247 -2.07559,0 -2.62159,-0.05581 -2.62159,-1.529579 0,-1.693194 0.65508,-1.747739 2.8391,-1.747739 z m -87.092194,-2.042605 v -4.453669 c -0.89987,-0.237165 -1.516895,-0.332299 -2.416134,-0.332299 -4.691465,0 -8.813466,3.93366 -8.813466,8.813477 0,5.023144 4.168921,8.766547 8.860397,8.766547 0.852939,0 1.326649,-0.09508 2.369203,-0.380492 v -4.548149 c -1.043185,0.52064 -1.563194,0.662693 -2.416134,0.662693 -2.606368,0 -4.597615,-2.178957 -4.597615,-4.595722 0,-2.510614 1.943055,-4.643903 4.549423,-4.643903 0.901132,0 1.658948,0.237807 2.464326,0.711517 z m 37.397339,0.07669 h -2.456714 v 7.206529 h 2.62096 v -3.712965 c 0,-1.091388 0.546006,-1.473141 2.021049,-1.473141 1.365335,0 1.747729,0.490834 1.747729,1.856167 v 3.329939 h 2.675497 v -3.821414 c 0,-1.037473 0.818693,-1.364692 2.074318,-1.364692 1.201722,0 1.747729,0.32785 1.747729,1.364692 v 3.821414 h 2.620959 v -4.258974 c 0,-2.12822 -1.310797,-3.112431 -3.712973,-3.112431 -2.075587,0 -2.840376,0.764789 -3.113696,1.583483 -0.546008,-0.928405 -1.310163,-1.583483 -3.38575,-1.583483 -1.965877,0 -2.511885,0.655078 -2.839742,1.856808 v -1.691932 z m 17.638999,0 h -2.457347 v 7.206529 h 2.620958 v -3.712965 c 0,-1.091388 0.655082,-1.473141 1.965245,-1.473141 1.365968,0 1.747728,0.43693 1.747728,1.856167 v 3.329939 h 2.676765 v -3.821414 c 0,-1.037473 0.76479,-1.364692 2.021049,-1.364692 1.201088,0 1.800998,0.381753 1.800998,1.364692 v 3.821414 h 2.621594 v -4.258974 c 0,-2.12822 -1.310163,-3.112431 -3.712973,-3.112431 -2.074953,0 -2.78584,0.709624 -3.112428,1.583483 -0.546642,-0.928405 -1.311431,-1.583483 -3.386384,-1.583483 -1.910707,0 -2.402176,0.655078 -2.784571,1.856808 v -1.691932 z m 188.362816,7.720827 h -2.21953 v 2.567064 h -5.21339 v -2.567064 h -9.42163 l 0.026,-3.73643 7.4602,-7.417073 h 7.14882 v 8.115275 h 2.21953 z m -7.43228,-3.038228 v -4.547519 l -4.51708,4.547519 z m -16.66304,1.86822 v -0.999431 c 0,-0.353218 -0.11668,-0.576447 -0.34942,-0.670928 -0.23146,-0.09323 -0.73562,-0.141423 -1.50992,-0.141423 h -1.00577 c -0.77557,0 -1.28289,0.04373 -1.52324,0.132546 -0.24161,0.08692 -0.36146,0.313903 -0.36146,0.679174 v 0.999431 c 0,0.378588 0.11985,0.614491 0.36146,0.70771 0.24035,0.09388 0.74831,0.142053 1.52324,0.142053 h 1.00577 c 0.79143,0 1.29938,-0.04754 1.52324,-0.142053 0.22322,-0.09258 0.3361,-0.328491 0.3361,-0.707079 z"
           id="path17"
           style="fill:#ffffff;stroke-width:0.22662064" />
      </g>
    </g>
  </g>
</svg>
