<svg xmlns="http://www.w3.org/2000/svg" version="1.0" width="670.54" height="113.21"><path style="marker:none" d="M58.375 4.594c-29.054 0-52.625 23.57-52.625 52.625 0 29.054 23.57 52.593 52.625 52.593 5.587 0 10.98-.887 16.031-2.5v-26.25c-4.362 2.537-9.467 4-14.937 4-15.988 0-28.938-12.465-28.938-27.843 0-15.379 12.95-27.844 28.938-27.844 5.47 0 10.575 1.464 14.937 4V7.094a52.598 52.598 0 0 0-16.031-2.5z" color="#000" fill="#025" overflow="visible"/><path fill="#025" d="M74.87 37.205h39.195l-17.53 18.256H74.87z"/><path fill="red" d="M74.87 77.417h39.195L96.535 59.16H74.87z"/><path style="line-height:125%;-inkscape-font-specification:Frutiger LT Std 55 Roman" d="M203.846 89.055c7.678-.05 13.97-2.133 18.873-6.247 4.904-4.114 7.438-9.954 7.602-17.519-.164-7.607-2.698-13.472-7.602-17.595-4.904-4.123-11.195-6.21-18.873-6.259-7.678.05-13.969 2.136-18.873 6.259-4.904 4.123-7.438 9.988-7.602 17.595.164 7.565 2.698 13.405 7.602 17.519 4.904 4.114 11.195 6.196 18.873 6.247zm0-11.01c-3.599-.11-6.209-1.395-7.83-3.855-1.623-2.459-2.42-5.426-2.393-8.901-.027-3.517.77-6.51 2.392-8.978 1.622-2.468 4.232-3.757 7.831-3.866 3.599.11 6.21 1.398 7.831 3.866 1.622 2.469 2.42 5.461 2.392 8.978.028 3.475-.77 6.442-2.392 8.901-1.622 2.46-4.232 3.745-7.83 3.856zM236.68 88.007h15.728V68.784c.022-4.875.809-8.472 2.36-10.79 1.55-2.32 3.735-3.47 6.553-3.452 2.211.053 3.817.908 4.816 2.566 1 1.659 1.491 3.803 1.475 6.434v24.465h15.727V68.784c.022-4.875.809-8.472 2.36-10.79 1.55-2.32 3.735-3.47 6.553-3.452 2.211.053 3.817.908 4.816 2.566 1 1.659 1.491 3.803 1.475 6.434v24.465h15.728V61.182c.149-6.212-.893-11.044-3.124-14.493-2.232-3.45-6.55-5.2-12.954-5.254-3.273-.018-6.316.674-9.13 2.076-2.815 1.401-5.16 3.622-7.034 6.662-1.26-2.963-3.131-5.162-5.614-6.597-2.483-1.434-5.36-2.148-8.628-2.14-3.63-.017-6.9.737-9.808 2.26-2.91 1.524-5.174 3.916-6.794 7.176h-.175v-8.388h-14.33zM322.818 88.007h15.727V68.784c.022-4.875.809-8.472 2.36-10.79 1.55-2.32 3.735-3.47 6.553-3.452 2.211.053 3.817.908 4.816 2.566 1 1.659 1.491 3.803 1.475 6.434v24.465h15.727V68.784c.022-4.875.809-8.472 2.36-10.79 1.55-2.32 3.735-3.47 6.553-3.452 2.211.053 3.817.908 4.816 2.566 1 1.659 1.491 3.803 1.475 6.434v24.465h15.727V61.182c.15-6.212-.892-11.044-3.123-14.493-2.232-3.45-6.55-5.2-12.954-5.254-3.273-.018-6.316.674-9.13 2.076-2.815 1.401-5.16 3.622-7.034 6.662-1.26-2.963-3.131-5.162-5.614-6.597-2.483-1.434-5.36-2.148-8.628-2.14-3.63-.017-6.9.737-9.808 2.26-2.91 1.524-5.174 3.916-6.794 7.176h-.175v-8.388h-14.33zM433.245 89.055c7.678-.05 13.97-2.133 18.873-6.247 4.904-4.114 7.438-9.954 7.602-17.519-.164-7.607-2.698-13.472-7.602-17.595-4.904-4.123-11.195-6.21-18.873-6.259-7.678.05-13.97 2.136-18.873 6.259-4.904 4.123-7.438 9.988-7.602 17.595.164 7.565 2.698 13.405 7.602 17.519 4.904 4.114 11.195 6.196 18.873 6.247zm0-11.01c-3.599-.11-6.21-1.395-7.831-3.855-1.622-2.459-2.42-5.426-2.392-8.901-.027-3.517.77-6.51 2.392-8.978 1.622-2.468 4.232-3.757 7.831-3.866 3.599.11 6.21 1.398 7.831 3.866 1.622 2.469 2.42 5.461 2.392 8.978.027 3.475-.77 6.442-2.392 8.901-1.622 2.46-4.232 3.745-7.83 3.856zM515.01 22.475h-15.815v25.863h-.175c-2.017-2.581-4.34-4.387-6.968-5.417-2.628-1.03-5.52-1.526-8.672-1.486-6.317.259-11.137 2.69-14.46 7.296-3.325 4.606-5 9.834-5.025 15.684.02 6.914 1.793 12.703 5.32 17.366 3.525 4.664 8.684 7.089 15.476 7.274 3.699-.065 6.96-.96 9.786-2.687 2.825-1.725 4.776-3.888 5.854-6.487h.175v8.126h14.504zm-34.863 42.29c.015-3.107.837-5.74 2.469-7.897 1.63-2.157 3.982-3.282 7.055-3.375 2.924.064 5.246 1.182 6.968 3.353 1.722 2.172 2.603 5.015 2.643 8.53-.072 3.39-1.019 6.157-2.84 8.301-1.82 2.144-4.077 3.251-6.77 3.32-2.997-.056-5.327-1.188-6.991-3.396-1.664-2.208-2.508-5.154-2.534-8.836zM547.495 89.055c7.678-.05 13.97-2.133 18.873-6.247 4.904-4.114 7.438-9.954 7.602-17.519-.164-7.607-2.698-13.472-7.602-17.595-4.904-4.123-11.195-6.21-18.873-6.259-7.678.05-13.969 2.136-18.873 6.259-4.904 4.123-7.438 9.988-7.602 17.595.164 7.565 2.698 13.405 7.602 17.519 4.904 4.114 11.195 6.196 18.873 6.247zm0-11.01c-3.599-.11-6.209-1.395-7.83-3.855-1.623-2.459-2.42-5.426-2.393-8.901-.027-3.517.77-6.51 2.392-8.978 1.622-2.468 4.232-3.757 7.831-3.866 3.599.11 6.21 1.398 7.831 3.866 1.622 2.469 2.42 5.461 2.392 8.978.027 3.475-.77 6.442-2.392 8.901-1.622 2.46-4.232 3.745-7.83 3.856zM613.62 41.96a45.61 45.61 0 0 0-2.567-.36 25.902 25.902 0 0 0-2.763-.165c-3.373.033-6.13.885-8.268 2.556-2.139 1.671-3.868 3.965-5.188 6.881h-.175v-8.388h-14.33v45.523h15.728V68.784c.019-4.492 1.009-7.98 2.971-10.463 1.962-2.483 4.788-3.743 8.476-3.78.915-.01 1.814.012 2.697.066.883.055 1.76.208 2.633.46zM663.002 69.833v-2.884c.097-6.988-1.625-12.933-5.166-17.835-3.54-4.903-9.478-7.462-17.813-7.679-7.209.051-13.041 2.134-17.497 6.248-4.457 4.114-6.75 9.953-6.881 17.519.164 7.569 2.697 13.423 7.601 17.562 4.904 4.14 11.195 6.237 18.874 6.291 2.94.006 5.82-.224 8.639-.688a39.56 39.56 0 0 0 8.05-2.195V75.075c-2.376 1.254-4.746 2.154-7.11 2.698-2.366.544-4.626.81-6.783.797-3.867.03-6.947-.64-9.24-2.01-2.294-1.368-3.67-3.611-4.129-6.727zm-31.63-8.913c.162-2.69.952-4.933 2.37-6.728 1.418-1.794 3.54-2.727 6.368-2.796 3.116.07 5.359 1.002 6.728 2.796 1.369 1.795 2.039 4.038 2.01 6.728z" font-size="87.377" font-weight="400" letter-spacing="-1.24" word-spacing="0" fill="#025" font-family="Frutiger LT Std 55 Roman"/><path d="M143.738 88.477c-6.88-1.856-12.005-4.882-16.463-9.717-4.409-4.784-6.377-9.156-7.563-16.8-2.357-15.189 4.228-29.114 16.639-35.186 6.328-3.096 14.881-4.634 23.355-4.634 5.3 0 9.847.863 14.286 1.708l-1.467 13.62s-1.114-.237-4.146-1.023a34.78 34.78 0 0 0-8.883-1.094c-5.94.035-11.564 1.584-15.297 4.432-8.895 6.784-8.75 24.541.262 31.995 5.565 4.603 15.629 6.161 24.66 3.819l4.233-1.098 1.23 13.76c-2.582.61-8.207 1.702-15.034 1.702-8.738 0-11.606-.35-15.812-1.484z" fill="#025"/></svg>