<?xml version="1.0" encoding="utf-8"?>
<!-- Generator: Adobe Illustrator 16.0.0, SVG Export Plug-In . SVG Version: 6.00 Build 0)  -->
<!DOCTYPE svg PUBLIC "-//W3C//DTD SVG 1.1//EN" "http://www.w3.org/Graphics/SVG/1.1/DTD/svg11.dtd">
<svg version="1.1" id="Layer_1" xmlns="http://www.w3.org/2000/svg" xmlns:xlink="http://www.w3.org/1999/xlink" x="0px" y="0px"
	 width="530.5px" height="219px" viewBox="0 0 530.5 219" enable-background="new 0 0 530.5 219" xml:space="preserve">
<g>
	<path d="M59.942,16.382h77.222c20.277,0,23.656,0.169,29.401,0.845c22.305,3.042,28.557,11.997,28.557,41.399
		c0,24.501-4.225,34.302-17.235,39.371c-7.604,2.873-15.377,3.549-40.385,3.549H94.244v27.543H59.942V16.382z M137.164,73.327
		c15.545-0.169,16.222-0.169,19.094-1.689c3.379-1.859,4.562-5.069,4.562-13.011s-1.352-11.152-5.576-12.842
		c-2.366-1.014-2.704-1.014-18.08-1.183h-42.92v28.726H137.164z"/>
</g>
<g>
	<path d="M326.646,15.793v26.529h-90.91v16.391h86.347v24.839h-86.347v17.912h91.585V128.5h-125.38V15.793H326.646z"/>
</g>
<g>
	<path d="M472.363,16.382v28.726h-50.186v83.981h-35.992V45.107H336V16.382H472.363z"/>
</g>
<g>
	<path d="M71.779,179.435c-0.051-0.617-0.051-1.39-0.051-1.544c0-10.345,2.161-11.632,19.558-11.632
		c13.999,0,15.801,0.155,18.064,1.493c2.471,1.44,3.294,3.757,3.294,9.367c0,4.015-0.411,6.073-1.492,7.72
		c-1.492,2.213-4.684,3.346-10.499,3.654c-14.411,0.927-16.419,1.081-17.088,1.39c-1.286,0.515-1.646,1.184-1.698,2.883v0.359
		h31.344V201H72.294c-0.154-1.75-0.154-2.265-0.154-3.911c0-6.022,0.206-8.544,0.875-10.242c1.184-3.037,3.603-4.323,9.265-4.941
		c0.36-0.052,2.109-0.206,5.353-0.463c1.904-0.104,4.786-0.36,8.698-0.669c6.021-0.464,6.536-0.721,6.536-3.552
		c0-1.904-0.36-2.625-1.544-3.036c-0.927-0.31-2.419-0.36-7.875-0.36c-6.382,0-9.213,0.154-10.345,0.565
		c-0.927,0.36-1.184,1.185-1.235,3.86v1.184H71.779z"/>
	<path d="M152.892,166.877c4.014,0.566,6.588,2.934,7.257,6.64c0.411,2.059,0.411,2.624,0.411,10.345c0,7.669,0,8.234-0.411,10.293
		c-0.669,3.706-3.243,6.073-7.257,6.64c-2.574,0.412-7.721,0.618-13.846,0.618c-6.176,0-11.322-0.206-13.845-0.618
		c-4.065-0.566-6.639-2.934-7.309-6.64c-0.359-2.059-0.411-2.934-0.411-10.705c0-6.794,0.052-7.978,0.411-9.933
		c0.67-3.706,3.243-6.073,7.309-6.64c2.573-0.412,7.669-0.618,13.845-0.618C145.171,166.259,150.317,166.465,152.892,166.877z
		 M129.679,176.09c-1.286,0.823-1.749,2.728-1.749,7.565c0,8.544,0.36,8.853,10.396,8.853c6.278,0,8.853-0.258,10.036-0.927
		c1.338-0.823,1.75-2.728,1.75-7.771c0-5.404-0.464-7.154-2.162-7.926c-1.132-0.515-4.015-0.721-9.573-0.721
		C133.385,175.163,130.76,175.421,129.679,176.09z"/>
	<path d="M199.571,166.877c4.014,0.566,6.588,2.934,7.257,6.64c0.411,2.059,0.411,2.624,0.411,10.345c0,7.669,0,8.234-0.411,10.293
		c-0.669,3.706-3.243,6.073-7.257,6.64c-2.574,0.412-7.721,0.618-13.846,0.618c-6.176,0-11.322-0.206-13.845-0.618
		c-4.065-0.566-6.639-2.934-7.309-6.64c-0.359-2.059-0.411-2.934-0.411-10.705c0-6.794,0.052-7.978,0.411-9.933
		c0.67-3.706,3.243-6.073,7.309-6.64c2.573-0.412,7.669-0.618,13.845-0.618C191.851,166.259,196.997,166.465,199.571,166.877z
		 M176.358,176.09c-1.286,0.823-1.749,2.728-1.749,7.565c0,8.544,0.36,8.853,10.396,8.853c6.278,0,8.853-0.258,10.036-0.927
		c1.338-0.823,1.75-2.728,1.75-7.771c0-5.404-0.464-7.154-2.162-7.926c-1.132-0.515-4.015-0.721-9.573-0.721
		C180.064,175.163,177.439,175.421,176.358,176.09z"/>
	<path d="M240.796,166.671V201h-10.448v-25.374h-2.728l-10.139,8.544l-5.765-6.742l12.558-10.757H240.796z"/>
</g>
<g>
	<path d="M267.323,189.626c0,2.059,0.206,2.728,1.029,3.242c0.978,0.617,2.11,0.721,9.47,0.721c7.926,0,9.11-0.052,10.088-0.464
		c0.771-0.359,1.132-1.132,1.132-2.573c0-2.059-0.823-2.573-4.169-2.625c-1.132,0-4.528-0.154-8.183-0.309
		c-3.758-0.206-7.257-0.36-8.338-0.36c-4.992-0.154-7.411-0.875-8.956-2.625c-1.286-1.544-1.904-3.757-1.904-7.205
		c0-5.096,1.185-8.184,3.604-9.521c2.676-1.441,5.661-1.75,18.064-1.75c9.573,0,13.176,0.463,15.646,1.904
		c2.213,1.39,3.14,3.603,3.14,7.823c0,0.206,0,0.927-0.052,1.596h-10.087c-0.052-1.699-0.206-2.162-0.772-2.677
		c-0.823-0.669-2.007-0.771-9.882-0.771c-8.801,0-9.521,0.205-9.521,2.728c0,1.235,0.463,1.904,1.441,2.213
		c0.926,0.258,3.603,0.412,11.116,0.618c11.066,0.309,13.382,0.617,15.544,1.904c2.521,1.492,3.448,3.809,3.448,8.749
		c0,5.815-1.338,8.75-4.684,10.088c-2.11,0.875-6.331,1.184-16.933,1.184c-10.242,0-14.515-0.463-16.984-1.853
		c-2.574-1.441-3.397-3.5-3.397-8.39v-1.646H267.323z"/>
	<path d="M336.082,193.229c-0.669,6.742-4.015,8.389-17.036,8.389c-7.051,0-10.396-0.617-12.609-2.264
		c-2.367-1.802-3.088-4.272-3.088-10.448c0-6.485,0.772-8.956,3.294-10.757c2.367-1.647,5.456-2.162,13.33-2.162
		c7.978,0,10.859,0.464,13.073,2.11c2.367,1.75,3.242,4.529,3.242,10.242c0,0.309,0,1.441-0.052,2.471h-23.778
		c0,2.471,0.258,3.294,1.133,3.963c0.927,0.721,2.934,1.029,6.176,1.029c5.765,0,6.897-0.412,7.257-2.573H336.082z M327.127,185.817
		c-0.052-1.904-0.154-2.368-0.721-2.935c-0.823-0.874-2.728-1.234-6.279-1.234c-6.124,0-7.565,0.771-7.669,4.169H327.127z"/>
	<path d="M349.823,176.655v3.654h0.463c1.698-3.088,4.271-4.271,9.367-4.271c4.065,0,6.69,0.875,8.184,2.728
		c1.184,1.544,1.646,3.448,1.646,7.052v1.646h-8.595v-0.052v-0.205c0-1.699-0.258-2.574-0.824-3.191
		c-0.669-0.721-2.109-1.133-4.014-1.133c-2.008,0-3.706,0.67-4.581,1.75c-0.875,1.185-1.132,2.522-1.132,6.279V201h-9.11v-24.345
		H349.823z"/>
	<path d="M382.555,166.671v6.846h-9.11v-6.846H382.555z M382.555,176.655V201h-9.11v-24.345H382.555z"/>
	<path d="M420.279,193.229c-0.669,6.742-4.015,8.389-17.036,8.389c-7.051,0-10.396-0.617-12.609-2.264
		c-2.367-1.802-3.088-4.272-3.088-10.448c0-6.485,0.772-8.956,3.294-10.757c2.367-1.647,5.456-2.162,13.33-2.162
		c7.978,0,10.859,0.464,13.073,2.11c2.367,1.75,3.242,4.529,3.242,10.242c0,0.309,0,1.441-0.052,2.471h-23.778
		c0,2.471,0.258,3.294,1.133,3.963c0.927,0.721,2.934,1.029,6.176,1.029c5.765,0,6.897-0.412,7.257-2.573H420.279z M411.324,185.817
		c-0.052-1.904-0.154-2.368-0.721-2.935c-0.823-0.874-2.728-1.234-6.279-1.234c-6.124,0-7.565,0.771-7.669,4.169H411.324z"/>
	<path d="M433.917,193.229c0.154,2.11,1.904,2.728,7.617,2.728c5.867,0,7.617-0.515,7.617-2.265c0-0.978-0.771-1.646-2.11-1.801
		c-1.234-0.104-3.551-0.155-12.455-0.155c-6.896-0.103-9.778-2.265-9.778-7.463c0-3.653,1.286-5.918,3.963-6.999
		c2.007-0.823,6.228-1.235,12.867-1.235c8.286,0,11.322,0.515,13.381,2.265c1.287,1.029,1.75,2.316,1.956,5.25h-9.264
		c-0.206-0.721-0.31-0.979-0.618-1.133c-0.771-0.463-2.676-0.721-5.713-0.721c-5.713,0-7.463,0.464-7.463,2.008
		c0,0.978,0.721,1.492,2.213,1.596c1.493,0.103,2.985,0.154,12.404,0.205c7.051,0.052,9.728,2.162,9.728,7.566
		c0,3.654-1.184,5.919-3.758,7.051c-2.161,1.029-6.588,1.492-13.639,1.492c-8.853,0-11.889-0.565-14.051-2.521
		c-1.492-1.338-2.11-3.037-2.161-5.867H433.917z"/>
</g>
<g>
	<path d="M484.935,28.77V14.105h-5.844v-2.986h15.65v2.986h-5.83V28.77H484.935z"/>
	<path d="M496.841,28.77V11.119h5.951l3.573,12.04l3.533-12.04h5.965V28.77h-3.694V14.875l-3.91,13.895h-3.828l-3.896-13.895V28.77
		H496.841z"/>
</g>
<g>
</g>
<g>
</g>
<g>
</g>
<g>
</g>
<g>
</g>
<g>
</g>
</svg>
