<?xml version="1.0" encoding="UTF-8" ?>
<!DOCTYPE svg PUBLIC "-//W3C//DTD SVG 1.1//EN" "http://www.w3.org/Graphics/SVG/1.1/DTD/svg11.dtd">
<svg width="740pt" height="140pt" viewBox="0 0 740 140" version="1.1" xmlns="http://www.w3.org/2000/svg">
<g id="#ffffffff">
</g>
<g id="#000000ff">
<path fill="#000000" opacity="1.00" d=" M 89.79 9.50 C 93.57 9.50 97.35 9.49 101.13 9.50 C 113.35 45.01 125.80 80.44 138.04 115.94 C 150.29 80.44 162.74 45.01 174.96 9.50 C 178.57 9.50 182.19 9.50 185.80 9.48 C 172.00 49.87 157.94 90.19 144.33 130.64 C 140.27 130.85 136.21 130.72 132.15 130.73 C 118.06 90.31 103.93 49.90 89.79 9.50 Z" />
<path fill="#000000" opacity="1.00" d=" M 280.03 9.48 C 293.63 9.54 307.23 9.44 320.83 9.53 C 329.84 10.10 339.63 12.11 346.09 18.92 C 351.31 24.14 352.90 31.86 352.76 39.00 C 352.63 46.57 353.63 54.69 349.75 61.58 C 345.47 69.54 336.40 73.24 327.93 74.76 C 338.42 93.32 348.75 111.97 358.89 130.72 C 354.95 130.77 351.00 130.74 347.06 130.76 C 337.20 112.72 327.10 94.80 316.82 77.00 C 308.04 77.03 299.26 76.95 290.48 77.04 C 290.54 94.94 290.47 112.83 290.51 130.73 C 287.01 130.76 283.51 130.75 280.01 130.75 C 280.01 90.33 279.97 49.91 280.03 9.48 M 290.51 17.75 C 290.49 34.75 290.52 51.74 290.49 68.74 C 299.02 68.74 307.56 68.89 316.09 68.44 C 322.94 67.95 330.32 67.28 336.08 63.16 C 340.87 59.77 342.29 53.53 342.02 47.98 C 341.70 40.68 343.29 32.56 338.86 26.16 C 334.50 19.78 326.15 18.27 318.96 17.84 C 309.48 17.63 299.99 17.81 290.51 17.75 Z" />
<path fill="#000000" opacity="1.00" d=" M 378.30 24.34 C 386.85 15.02 399.34 9.56 411.97 9.49 C 440.39 9.52 468.81 9.47 497.23 9.51 C 496.23 12.24 495.17 14.95 494.45 17.77 C 470.62 17.72 446.78 17.76 422.95 17.75 C 409.53 17.96 395.71 22.49 386.26 32.33 C 374.61 44.16 369.99 61.72 371.95 77.97 C 373.46 91.54 379.44 105.09 390.24 113.79 C 397.43 119.69 406.77 122.56 416.02 122.51 C 430.18 122.44 444.35 122.60 458.51 122.42 C 457.11 124.93 456.39 127.73 455.50 130.44 C 457.74 130.39 460.00 130.33 462.25 130.45 C 446.16 131.09 430.04 130.58 413.95 130.76 C 400.61 131.11 387.12 125.70 378.13 115.75 C 366.36 102.99 361.48 85.08 361.99 67.99 C 362.37 52.23 367.48 36.09 378.30 24.34 Z" />
<path fill="#000000" opacity="1.00" d=" M 506.05 9.25 C 509.91 9.25 513.77 9.24 517.63 9.27 C 531.89 49.76 546.17 90.25 560.47 130.73 C 528.38 130.77 496.28 130.75 464.19 130.74 C 478.15 90.25 492.17 49.77 506.05 9.25 M 511.84 24.96 C 500.95 57.11 489.75 89.15 478.72 121.25 C 501.10 121.24 523.48 121.27 545.87 121.24 C 534.48 89.16 523.24 57.03 511.84 24.96 Z" />
<path fill="#000000" opacity="1.00" d=" M 662.02 9.49 C 685.00 9.50 707.99 9.51 730.97 9.48 C 731.00 12.24 731.00 15.00 730.99 17.75 C 711.49 17.74 692.00 17.75 672.51 17.75 C 672.50 33.58 672.50 49.42 672.51 65.25 C 688.92 65.25 705.33 65.25 721.74 65.25 C 721.77 67.94 721.77 70.63 721.66 73.32 C 705.27 73.16 688.89 73.30 672.51 73.25 C 672.49 89.66 672.50 106.08 672.50 122.50 C 692.00 122.49 711.49 122.51 730.99 122.49 C 731.00 125.24 731.00 128.00 730.99 130.75 C 708.00 130.75 685.00 130.74 662.01 130.75 C 662.00 90.33 661.98 49.91 662.02 9.49 Z" />
<path fill="#000000" opacity="1.00" d=" M 9.25 130.75 C 9.29 90.31 9.17 49.88 9.32 9.45 C 32.38 9.57 55.44 9.46 78.50 9.50 C 78.50 12.25 78.50 15.00 78.49 17.76 C 59.00 17.74 39.50 17.75 20.00 17.75 C 20.00 33.58 20.00 49.42 20.00 65.25 C 36.33 65.25 52.66 65.26 68.99 65.25 C 69.00 67.91 69.00 70.58 69.00 73.25 C 52.67 73.25 36.34 73.26 20.01 73.25 C 19.99 89.66 20.00 106.08 20.00 122.50 C 39.50 122.50 59.00 122.49 78.50 122.50 C 78.50 125.25 78.50 128.00 78.49 130.76 C 55.41 130.74 32.33 130.76 9.25 130.75 Z" />
<path fill="#000000" opacity="1.00" d=" M 197.75 9.50 C 220.75 9.49 243.74 9.51 266.74 9.49 C 266.75 12.24 266.75 15.00 266.75 17.75 C 247.33 17.75 227.92 17.75 208.50 17.75 C 208.50 33.58 208.50 49.42 208.51 65.25 C 224.84 65.26 241.18 65.23 257.51 65.27 C 257.50 67.93 257.50 70.59 257.50 73.25 C 241.16 73.26 224.83 73.23 208.49 73.26 C 208.51 89.67 208.50 106.08 208.50 122.49 C 227.91 122.50 247.32 122.51 266.73 122.49 C 266.75 125.24 266.75 127.99 266.75 130.75 C 243.74 130.72 220.73 130.80 197.73 130.71 C 197.78 90.31 197.73 49.90 197.75 9.50 Z" />
<path fill="#000000" opacity="1.00" d=" M 572.24 9.51 C 586.17 9.49 600.09 9.49 614.01 9.51 C 623.78 9.97 634.16 12.66 641.12 19.94 C 646.60 25.44 648.91 33.41 648.76 41.03 C 648.73 58.36 648.76 75.68 648.75 93.00 C 648.68 98.02 649.13 103.13 647.80 108.03 C 646.16 115.42 641.12 121.85 634.52 125.48 C 627.97 129.05 620.46 130.52 613.06 130.75 C 599.46 130.76 585.85 130.75 572.25 130.75 C 572.24 90.33 572.26 49.92 572.24 9.51 M 583.00 17.75 C 583.00 52.67 583.00 87.58 583.00 122.50 C 592.31 122.47 601.63 122.55 610.94 122.47 C 618.05 122.17 625.77 121.13 631.35 116.30 C 635.80 112.58 637.91 106.71 638.00 101.03 C 638.01 80.69 637.98 60.35 638.01 40.01 C 638.02 33.57 635.44 26.76 630.00 23.00 C 624.54 19.03 617.59 17.96 611.01 17.75 C 601.67 17.74 592.34 17.75 583.00 17.75 Z" />
</g>
</svg>
