<svg xmlns="http://www.w3.org/2000/svg" width="1199" height="231"><path d="M16.26 125.627h24.496V81.704h36.532V56.997H40.544V35.88h37.588V11.807H15.838zM127.757 12.018L47.302 125.627h27.452l13.514-18.16h35.688l.29 18.052h22.939l-.423-113.712z" fill="red" fill-rule="evenodd" stroke="red"/><path d="M104.95 84.66l19.006-26.396.211 26.607z" fill="#fff" fill-rule="evenodd" stroke="#fff"/><path d="M155.93 125.521V11.596h25.551l34.42 73.275 32.732-73.064h25.129l.053 113.661H250.85c0-32.439.106-35.458.106-53.056l-25.446 53.056h-22.331L180.636 73.68v51.79z" fill="red" fill-rule="evenodd" stroke="red"/><path fill="red" stroke="red" d="M281.457 11.807h24.179v114.031h-24.179zM311.959 11.807h24.918v114.031h-24.918z"/><path fill="red" stroke="red" d="M317.386 102.398h33.787v23.44h-33.787z"/><path d="M680.61 126.047V11.594h25.552l34.42 73.275 32.732-73.064h25.129v114.03h-22.807V72.41l-25.55 53.637h-22.174l-22.595-52.37v52.159zM343.723 11.906h25.534l22.248 41.405 22.697-41.66h25.533l-35.687 69.732v44.347h-25.086V81.98z" fill="red" fill-rule="evenodd" stroke="red"/><ellipse cx="614.216" cy="68.506" rx="58.274" ry="58.591" fill="red" stroke="red" stroke-width="1.017"/><ellipse cx="614.111" cy="68.423" rx="34.723" ry="34.912" fill="#fff" stroke="#fff" stroke-width=".606"/><path d="M1102.512 154.768l14.992-13.515H15.626v13.937z" fill="#0055d4" fill-rule="evenodd" stroke="#0055d4"/><path d="M1154.487 12.863c18.748 0 39.277 19.547 39.277 39.066 0 14.774-9.939 30.521-22.383 36.743l22.455 38.895h-27.735l-32.73-54.521v54.904h-23.23V13.074z" fill="red" fill-rule="evenodd" stroke="red"/><path d="M1153.22 66.288c18.324 0 18.896-26.396-.845-26.396h-18.794v26.185z" fill="#fff" fill-rule="evenodd" stroke="#fff"/><path d="M972.707 37.57h17.105v89.324h24.284V37.992h17.739v-25.13h-59.128zM1041.002 12.652h60.183v25.551h-35.265v19.85h34.843v25.974h-35.265v19.427h35.054v24.496h-59.761z" fill="red" fill-rule="evenodd" stroke="red"/><path d="M155.975 182.77l67.94 8.063v-13.438l-67.94-8.66zM155.9 200.243l67.94 8.063v-13.439l-67.94-8.66zM156.05 217.414l67.94 8.064v-13.439l-67.94-8.66z" fill="#0055d4" fill-rule="evenodd" stroke="#0055d4"/><path fill="#0055d4" stroke="#0055d4" d="M233.051 170.078h12.244v33.895h-12.244zM309.977 190.087h64.804v13.588h-64.804zM484.287 170.675h39.271v13.737h-39.271zM406.166 170.526h67.641v14.335h-67.641zM405.942 208.154h67.641v14.335h-67.641z"/><path fill="#0055d4" stroke="#0055d4" d="M462.757 180.53h11.05v34.941h-11.05zM693.415 190.983h65.551v14.633h-65.551z"/><path d="M75.107 185.01c0 26.364-18.963 24.04-18.963 24.04H23.592v13.887l40.764.15c12.437-.642 21.353-18.425 21.353-27.476l.299-25.384H17.022v14.932z" fill="#0055d4" fill-rule="evenodd" stroke="#0055d4"/><path d="M526.91 44.802l28.19-.105c-5.069-16.839-16.828-24.44-28.44-29.454-34.49-14.892-79.558 9.835-79.557 53.476.002 43.64 45.603 69.432 79.566 53.375 11.612-5.49 23.228-15.223 28.754-28.603l-27.49-.26c-20.52 22.365-57.303 5.367-57.3-24.851.001-30.218 35.868-45.873 56.594-23.42" fill="red" fill-rule="evenodd" stroke="red"/><ellipse cx="619.611" cy="180.32" rx="9.344" ry="9.291" fill="#0055d4" stroke="#0055d4"/><ellipse cx="619.608" cy="180.316" rx="3.537" ry="3.643" fill="#fff" stroke="#fff"/><path d="M638.968 222.659h54.903v-12.881H682.68v-25.763h-38.644v13.832h29.986V210.2h-34.843z" fill="#0055d4" fill-rule="evenodd" stroke="#0055d4"/><path fill="#0055d4" stroke="#0055d4" d="M786.643 191.3h42.656v14.359h-42.656z"/><path d="M767.85 187.605c9.02 0 9.796-8.25 10.241-16.26h58.177v27.874c0 5.93-8.395 23.017-18.9 23.017h-44.45V209.99h39.066c9.375 0 13.62-14.482 13.62-23.862h-39.383c0 3.372-8.03 16.26-18.266 16.26zM289.866 169.705v19.486c0 8.619-6.354 19.486-15.753 19.486H242.98v14.185h35.09c10.946 0 22.323-13.308 22.323-24.339l-.074-28.818zM542.298 171.363v18.008c0 8.619-5.72 19.38-15.12 19.38h-42.78v13.514l46.588.074c10.946 0 20.572-11.97 20.572-23.002l.136-27.974zM630.117 199.008l-58.283-.106c0 5.128.156 10.876 6.863 10.876h50.892v12.775h-55.854c-5.965 0-11.72-5.44-11.72-12.459V171.24h9.925v12.142h35.582c0 3.11 1.444 4.224 4.434 4.224h18.16zM91.8 222.638h24.19c6.997 0 9.406-8.335 9.406-11.05h12.692c6.773 0 11.2-5.301 11.2-11.646v-17.62h-57.34v13.588l44.946-.299v3.584h-21.502v10.751H91.949z" fill="#0055d4" fill-rule="evenodd" stroke="#0055d4"/><path d="M940.003 12.845h23.891v81.379c0 44.2-73.315 41.905-73.315 1.344l-.15-82.723h23.891v77.049c0 17.627 26.28 16.973 26.28.15zM806.933 12.547l45.223.373c14.5 0 29.884 17.793 29.884 34.866 0 28.996-12.166 38.823-51.067 38.823v39.57h-23.742z" fill="red" fill-rule="evenodd" stroke="red"/><path d="M846.857 63.074c18.324 0 18.896-26.396-.845-26.396h-18.794v26.185z" fill="#fff" fill-rule="evenodd" stroke="#fff"/></svg>
