<?xml version="1.0" encoding="UTF-8" standalone="no"?>
<!-- Created with Inkscape (http://www.inkscape.org/) -->
<svg xmlns:dc="http://purl.org/dc/elements/1.1/" xmlns:cc="http://creativecommons.org/ns#" xmlns:rdf="http://www.w3.org/1999/02/22-rdf-syntax-ns#" xmlns:svg="http://www.w3.org/2000/svg" xmlns="http://www.w3.org/2000/svg" xmlns:sodipodi="http://sodipodi.sourceforge.net/DTD/sodipodi-0.dtd" xmlns:inkscape="http://www.inkscape.org/namespaces/inkscape" id="svg7185" version="1.1" inkscape:version="0.91 r13725" width="1199" height="231" viewBox="0 0 1199 231" sodipodi:docname="Family Computer.svg">
  <metadata id="metadata7191">
    <rdf:RDF>
      <cc:Work rdf:about="">
        <dc:format>image/svg+xml</dc:format>
        <dc:type rdf:resource="http://purl.org/dc/dcmitype/StillImage"/>
        <dc:title/>
      </cc:Work>
    </rdf:RDF>
  </metadata>
  <defs id="defs7189"/>
  <sodipodi:namedview pagecolor="#ffffff" bordercolor="#666666" borderopacity="1" objecttolerance="10" gridtolerance="10" guidetolerance="10" inkscape:pageopacity="0" inkscape:pageshadow="2" inkscape:window-width="1920" inkscape:window-height="1001" id="namedview7187" showgrid="false" showguides="false" inkscape:zoom="13.394163" inkscape:cx="602.80813" inkscape:cy="51.59716" inkscape:window-x="-9" inkscape:window-y="-9" inkscape:window-maximized="1" inkscape:current-layer="svg7185"/>
  <path style="fill:#ff0000;fill-rule:evenodd;stroke:#ff0000;stroke-width:1px;stroke-linecap:butt;stroke-linejoin:miter;stroke-opacity:1" d="m 16.259985,125.62685 24.495562,0 0,-43.923078 36.532175,0 0,-24.706731 -36.743343,0 0,-21.116864 37.588018,0 0,-24.073225 -62.294749,0 z" id="path7735" inkscape:connector-curvature="0"/>
  <path style="fill:#ff0000;fill-rule:evenodd;stroke:#ff0000;stroke-width:1px;stroke-linecap:butt;stroke-linejoin:miter;stroke-opacity:1" d="m 127.75703,12.018121 -80.455255,113.608729 27.451923,0 13.514793,-18.1605 35.687499,0 0.28948,18.05261 22.93907,0 -0.42234,-113.712008 z" id="path7737" inkscape:connector-curvature="0" sodipodi:nodetypes="ccccccccc"/>
  <path style="fill:#ffffff;fill-rule:evenodd;stroke:#ffffff;stroke-width:1px;stroke-linecap:butt;stroke-linejoin:miter;stroke-opacity:1" d="m 104.95081,84.660133 19.00518,-26.39608 0.21117,26.607249 z" id="path7739" inkscape:connector-curvature="0" sodipodi:nodetypes="cccc"/>
  <path style="fill:#ff0000;fill-rule:evenodd;stroke:#ff0000;stroke-width:1px;stroke-linecap:butt;stroke-linejoin:miter;stroke-opacity:1" d="m 155.92973,125.52127 0,-113.925486 25.55141,0 34.42049,73.275517 32.73114,-73.064349 25.12906,0 0.0528,113.661518 -22.96458,0 c 0,-32.439497 0.10558,-35.458732 0.10558,-53.056118 l -25.44581,53.056118 -22.33109,1e-5 -22.54226,-51.789116 0,51.789106 z" id="path7741" inkscape:connector-curvature="0" sodipodi:nodetypes="cccccccccccccc"/>
  <rect style="fill:#ff0000;fill-opacity:1;stroke:#ff0000;stroke-opacity:1" id="rect7747" width="24.178797" height="114.03106" x="281.45731" y="11.806952"/>
  <rect style="fill:#ff0000;fill-opacity:1;stroke:#ff0000;stroke-opacity:1" id="rect7757" width="24.9179" height="114.03106" x="311.95895" y="11.806952"/>
  <rect style="fill:#ff0000;fill-opacity:1;stroke:#ff0000;stroke-opacity:1" id="rect7759" width="33.786983" height="23.439718" x="317.38647" y="102.3983"/>
  <path style="fill:#ff0000;fill-rule:evenodd;stroke:#ff0000;stroke-width:1px;stroke-linecap:butt;stroke-linejoin:miter;stroke-opacity:1" d="m 680.61058,126.04704 0,-114.453408 25.55141,0 34.42049,73.27552 32.73114,-73.06435 25.12906,0 0,114.031068 -22.80621,0 0,-53.425668 -25.5514,53.636838 -22.17271,0 -22.59505,-52.369828 0,52.158658 z" id="path7741-6" inkscape:connector-curvature="0"/>
  <path style="fill:#ff0000;fill-rule:evenodd;stroke:#ff0000;stroke-width:1px;stroke-linecap:butt;stroke-linejoin:miter;stroke-opacity:1" d="m 343.72311,11.905619 25.53351,0 22.2485,41.405036 22.69645,-41.659938 25.53351,0 -35.68719,69.731868 0,44.347675 -25.08555,0 0,-43.750399 z" id="path7776" inkscape:connector-curvature="0" sodipodi:nodetypes="cccccccccc"/>
  <ellipse style="fill:#ff0000;fill-opacity:1;stroke:#ff0000;stroke-width:1.01657009;stroke-opacity:1" id="path7778" cx="614.21637" cy="68.50573" rx="58.274258" ry="58.591011"/>
  <ellipse style="fill:#ffffff;fill-opacity:1;stroke:#ffffff;stroke-width:0.60573179;stroke-opacity:1" id="path7778-2" cx="614.11078" cy="68.422577" rx="34.723206" ry="34.911945"/>
  <path style="fill:#0055d4;fill-rule:evenodd;stroke:#0055d4;stroke-width:1px;stroke-linecap:butt;stroke-linejoin:miter;stroke-opacity:1" d="m 1102.5115,154.76812 14.9929,-13.51479 -1101.877921,0 0,13.93713 z" id="path7795" inkscape:connector-curvature="0"/>
  <path style="fill:#ff0000;fill-rule:evenodd;stroke:#ff0000;stroke-width:1px;stroke-linecap:butt;stroke-linejoin:miter;stroke-opacity:1" d="m 1154.487,12.862795 c 18.748,0 39.2774,19.546757 39.2774,39.066199 0,14.774345 -9.9393,30.521067 -22.3839,36.743343 l 22.4556,38.894173 -27.7348,0 -32.7311,-54.520652 0,54.903842 -23.2286,0 0,-114.875736 z" id="path7797" inkscape:connector-curvature="0" sodipodi:nodetypes="cccccccccc"/>
  <path style="fill:#ffffff;fill-rule:evenodd;stroke:#ffffff;stroke-width:1px;stroke-linecap:butt;stroke-linejoin:miter;stroke-opacity:1" d="m 1153.22,66.288461 c 18.3243,0 18.8962,-26.39608 -0.8446,-26.39608 l -18.794,0 0,26.184912 z" id="path7799" inkscape:connector-curvature="0" sodipodi:nodetypes="ccccc"/>
  <path style="fill:#ff0000;fill-rule:evenodd;stroke:#ff0000;stroke-width:1px;stroke-linecap:butt;stroke-linejoin:miter;stroke-opacity:1" d="m 972.70747,37.569526 17.10466,0 0,89.324334 24.28437,0 0,-88.901997 17.7382,0 0,-25.129068 -59.12723,0 z" id="path7803" inkscape:connector-curvature="0"/>
  <path style="fill:#ff0000;fill-rule:evenodd;stroke:#ff0000;stroke-width:1px;stroke-linecap:butt;stroke-linejoin:miter;stroke-opacity:1" d="m 1041.0022,12.651627 60.1831,0 0,25.551405 -35.2652,0 0,19.849852 34.8428,0 0,25.973743 -35.2651,0 0,19.427513 35.054,0 0,24.49556 -59.7608,0 z" id="path7805" inkscape:connector-curvature="0"/>
  <path style="fill:#0055d4;fill-rule:evenodd;stroke:#0055d4;stroke-width:1px;stroke-linecap:butt;stroke-linejoin:miter;stroke-opacity:1" d="m 155.97491,182.77004 67.94004,8.06321 0,-13.43869 -67.94004,-8.66049 z" id="path7807" inkscape:connector-curvature="0"/>
  <path style="fill:#0055d4;fill-rule:evenodd;stroke:#0055d4;stroke-width:1px;stroke-linecap:butt;stroke-linejoin:miter;stroke-opacity:1" d="m 155.90025,200.2428 67.94004,8.06321 0,-13.43869 -67.94004,-8.66049 z" id="path7807-3" inkscape:connector-curvature="0"/>
  <path style="fill:#0055d4;fill-rule:evenodd;stroke:#0055d4;stroke-width:1px;stroke-linecap:butt;stroke-linejoin:miter;stroke-opacity:1" d="m 156.04957,217.41446 67.94004,8.06321 0,-13.43869 -67.94004,-8.66049 z" id="path7807-3-9" inkscape:connector-curvature="0"/>
  <rect style="fill:#0055d4;fill-opacity:1;stroke:#0055d4;stroke-opacity:1" id="rect7839" width="12.24414" height="33.895363" x="233.05064" y="170.07794"/>
  <rect style="fill:#0055d4;fill-opacity:1;stroke:#0055d4;stroke-opacity:1" id="rect7841" width="64.804352" height="13.588009" x="309.97705" y="190.08665"/>
  <rect style="fill:#0055d4;fill-opacity:1;stroke:#0055d4;stroke-opacity:1" id="rect7843" width="39.27084" height="13.737328" x="484.28659" y="170.67522"/>
  <rect style="fill:#0055d4;fill-opacity:1;stroke:#0055d4;stroke-opacity:1" id="rect7845" width="67.641403" height="14.334602" x="406.16562" y="170.52589"/>
  <rect style="fill:#0055d4;fill-opacity:1;stroke:#0055d4;stroke-opacity:1" id="rect7845-3" width="67.641403" height="14.334602" x="405.94165" y="208.15424"/>
  <rect style="fill:#0055d4;fill-opacity:1;stroke:#0055d4;stroke-opacity:1" id="rect7864" width="11.049589" height="34.940594" x="462.75742" y="180.53026"/>
  <rect style="fill:#0055d4;fill-opacity:1;stroke:#0055d4;stroke-opacity:1" id="rect7866" width="65.550941" height="14.63324" x="693.41461" y="190.98257"/>
  <path style="fill:#0055d4;fill-rule:evenodd;stroke:#0055d4;stroke-width:1px;stroke-linecap:butt;stroke-linejoin:miter;stroke-opacity:1" d="m 75.107345,185.00982 c 0,26.3642 -18.963485,24.04032 -18.963485,24.04032 l -32.551493,0 0,13.88665 40.764025,0.14932 c 12.436631,-0.641 21.352586,-18.42434 21.352586,-27.47466 l 0.298638,-25.38419 -68.985275,0 0,14.93188 z" id="path7870" inkscape:connector-curvature="0" sodipodi:nodetypes="cccccccccc"/>
  <path style="fill:#ff0000;fill-rule:evenodd;stroke:#ff0000;stroke-width:1px;stroke-linecap:butt;stroke-linejoin:miter;stroke-opacity:1" d="m 526.91032,44.802052 28.18979,-0.105264 C 550.03097,27.858182 538.2723,20.256762 526.66004,15.242873 c -34.48977,-14.89183813 -79.55827,9.835229 -79.5566,53.475773 0.002,43.640544 45.60243,69.432284 79.56527,53.374994 11.61226,-5.49016 23.22801,-15.22259 28.75474,-28.603007 l -27.49014,-0.2599 c -20.52113,22.365697 -57.30324,5.367073 -57.30124,-24.850744 0.002,-30.217814 35.86914,-45.872576 56.595,-23.41956" id="path7920" inkscape:connector-curvature="0" sodipodi:nodetypes="ccscscccc"/>
  <ellipse style="fill:#0055d4;fill-opacity:1;stroke:#0055d4;stroke-opacity:1" id="path7943" cx="619.61121" cy="180.31952" rx="9.3442125" ry="9.29142"/>
  <ellipse style="fill:#ffffff;fill-opacity:1;stroke:#ffffff;stroke-opacity:1" id="path7941" cx="619.60822" cy="180.31578" rx="3.5370748" ry="3.6426589"/>
  <path style="fill:#0055d4;fill-rule:evenodd;stroke:#0055d4;stroke-width:1px;stroke-linecap:butt;stroke-linejoin:miter;stroke-opacity:1" d="m 638.96764,222.65884 54.90385,0 0,-12.88129 -11.19194,0 0,-25.76257 -38.64386,0 0,13.83154 29.98595,0 0,12.35337 -34.84283,0 z" id="path7945" inkscape:connector-curvature="0"/>
  <rect style="fill:#0055d4;fill-opacity:1;stroke:#0055d4;stroke-opacity:1" id="rect7947" width="42.656067" height="14.359468" x="786.64349" y="191.30029"/>
  <path style="fill:#0055d4;fill-rule:evenodd;stroke:#0055d4;stroke-width:1px;stroke-linecap:butt;stroke-linejoin:miter;stroke-opacity:1" d="m 767.84948,187.60484 c 9.01987,0 9.7967,-8.2502 10.24168,-16.25998 l 58.17696,0 0,27.87426 c 0,5.93021 -8.39555,23.01738 -18.89959,23.01738 l -44.451,0 0,-12.24778 39.0662,0 c 9.37529,0 13.62038,-14.48145 13.62038,-23.86206 l -39.38295,0 c 0,3.37222 -8.03011,16.25999 -18.26609,16.25999 z" id="path7951" inkscape:connector-curvature="0" sodipodi:nodetypes="ccccsccccccc"/>
  <path style="fill:#0055d4;fill-rule:evenodd;stroke:#0055d4;stroke-width:1px;stroke-linecap:butt;stroke-linejoin:miter;stroke-opacity:1" d="m 289.86644,169.70464 0,19.4861 c 0,8.61907 -6.35421,19.4861 -15.75313,19.4861 l -31.13297,0 0,14.18529 35.08992,0 c 10.94575,0 22.32315,-13.30765 22.32315,-24.33896 l -0.0747,-28.81853 z" id="path7953" inkscape:connector-curvature="0" sodipodi:nodetypes="ccscccccc"/>
  <path style="fill:#0055d4;fill-rule:evenodd;stroke:#0055d4;stroke-width:1px;stroke-linecap:butt;stroke-linejoin:miter;stroke-opacity:1" d="m 542.29802,171.36306 0,18.00792 c 0,8.61907 -5.7207,19.38052 -15.11962,19.38052 l -42.77983,0 0,13.51336 46.58746,0.0746 c 10.94575,0 20.57195,-11.97128 20.57195,-23.00259 l 0.13647,-27.97386 z" id="path7953-8" inkscape:connector-curvature="0" sodipodi:nodetypes="ccscccccc"/>
  <path style="fill:#0055d4;fill-rule:evenodd;stroke:#0055d4;stroke-width:1px;stroke-linecap:butt;stroke-linejoin:miter;stroke-opacity:1" d="m 630.11687,199.00795 -58.28255,-0.10558 c 0,5.12756 0.15559,10.87518 6.86298,10.87518 l 50.89164,0 0,12.7757 -55.8541,0 c -5.96484,0 -11.71986,-5.43966 -11.71986,-12.45895 l 0,-38.85503 9.92493,0 0,12.1422 35.58191,0 c 0,3.10976 1.4439,4.22337 4.43454,4.22337 l 18.16051,0 z" id="path7998" inkscape:connector-curvature="0" sodipodi:nodetypes="cccccccccccccc"/>
  <path style="fill:#0055d4;fill-rule:evenodd;stroke:#0055d4;stroke-width:1px;stroke-linecap:butt;stroke-linejoin:miter;stroke-opacity:1" d="m 91.799441,222.63815 24.189639,0 c 6.99815,0 9.40709,-8.33491 9.40709,-11.04959 l 12.69209,0 c 6.77243,0 11.19891,-5.30181 11.19891,-11.64687 l 0,-17.61961 -57.338411,0 0,13.58801 44.944951,-0.29864 0,3.58365 -21.5019,0 0,10.75095 -23.44305,0 z" id="path8000" inkscape:connector-curvature="0" sodipodi:nodetypes="cccccccccccccc"/>
  <path style="fill:#ff0000;fill-rule:evenodd;stroke:#ff0000;stroke-width:1px;stroke-linecap:butt;stroke-linejoin:miter;stroke-opacity:1" d="m 940.00312,12.845267 23.89101,0 0,81.378733 c 0,44.19942 -73.31552,41.90491 -73.31552,1.343869 l -0.14932,-82.722602 23.89101,0 0,77.048489 c 0,17.627304 26.2801,16.972854 26.2801,0.149319 z" id="path8004" inkscape:connector-curvature="0" sodipodi:nodetypes="ccccccccc"/>
  <path style="fill:#ff0000;fill-rule:evenodd;stroke:#ff0000;stroke-width:1px;stroke-linecap:butt;stroke-linejoin:miter;stroke-opacity:1" d="m 806.93285,12.546629 45.22285,0.373297 c 14.50051,0 29.88449,17.792673 29.88449,34.865934 0,28.995986 -12.16593,38.822882 -51.06702,38.822882 l 0,39.569478 -23.74169,0 z" id="path8006" inkscape:connector-curvature="0" sodipodi:nodetypes="ccccccc"/>
  <path style="fill:#ffffff;fill-rule:evenodd;stroke:#ffffff;stroke-width:1px;stroke-linecap:butt;stroke-linejoin:miter;stroke-opacity:1" d="m 846.85705,63.07436 c 18.3243,0 18.8962,-26.39608 -0.8446,-26.39608 l -18.794,0 0,26.18492 z" id="path7799-7" inkscape:connector-curvature="0" sodipodi:nodetypes="ccccc"/>
</svg>