<svg xmlns="http://www.w3.org/2000/svg" width="149.362" height="119.059"><path d="M35.623 18.626a11.07 11.07 0 00-9.065-4.703c-6.131 0-11.096 4.968-11.096 11.095 0 6.127 4.965 11.094 11.096 11.094 4.448 0 8.285-2.621 10.056-6.401h-9.793v-5.045h15.64c.006.119.01.235.01.352 0 1.632-.244 3.209-.701 4.693-2.002 6.499-8.054 11.229-15.212 11.229-8.79 0-15.918-7.132-15.918-15.922 0-8.792 7.127-15.917 15.918-15.917 6.515 0 12.113 3.919 14.577 9.525h-5.512zM59.357 9.416L39.244 39.705h6.227l4.296-6.468h9.59v6.48h5.187v-30.3h-5.187zM53.21 28.047l6.146-9.252v9.252H53.21zM105.166 9.416l-13.87 20.88V9.416h-5.188L65.994 39.705h6.233l13.881-20.91v20.923h5.188v-.037l13.87-20.886v20.923h5.186V9.415h-5.186zM130.306 14.605v-5.19h-15.758v30.31l5.186-.02h10.572v-5.19h-10.572v-7.062h10.572v-5.186h-10.572v-7.662h10.572zM79.655 64.652l4.16-9.369h-5.088l-2.68 6.039-3.988-3.684c1.826-1.467 3.43-3.324 3.43-6.42a6.24 6.24 0 00-1.841-4.421c-1.355-1.351-3.261-2.126-5.238-2.126-3.423 0-6.968 2.448-6.968 6.547 0 2.855 1.572 4.7 3.133 6.066-2.891 2.048-5.408 4.228-5.408 8.724 0 2.551.923 4.873 2.598 6.548 1.689 1.69 4.048 2.622 6.645 2.622 4.918 0 7.358-2.38 9.227-6.06l6.032 5.576 3.16-3.415-7.174-6.627zM66.582 50.033c.438-.44 1.142-.71 1.828-.71.732 0 1.475.293 1.947.763.326.325.485.693.485 1.132 0 1.306-.627 2.018-2.338 3.283-1.496-1.198-2.411-2.033-2.411-3.283 0-.465.16-.855.489-1.185m7.378 15.988c-1.605 3.576-2.745 4.502-5.55 4.502-1.377 0-2.535-.436-3.357-1.252-.809-.812-1.234-1.94-1.234-3.263 0-2.445 1.256-3.414 4.35-5.557a.344.344 0 00.045-.034l5.839 5.394-.093.21zM58.587 78.907l-20.111 30.289h6.226l4.296-6.468h9.589v6.483h5.19V78.907h-5.19zm-6.146 18.635l6.146-9.251v9.251h-6.146zM16.15 109.21l13.863-20.885v20.886h5.188v-.001l20.113-30.289h-6.228L35.2 99.828v-20.92h-5.188v.04L16.15 99.828v-20.92h-5.19v30.303h5.19zM127.322 78.907v12.2h-9.366v-12.2h-5.187v30.299h5.187V96.298h9.366v12.908h5.189V78.907h-5.189zM82.737 78.907H65.804v5.186h5.874v25.113h5.189V84.093h5.87v-5.186z"/><path d="M105.438 101.04a10.84 10.84 0 01-8.086 3.602c-6.013 0-10.885-4.871-10.885-10.879 0-6.01 4.872-10.881 10.885-10.881 3.161 0 6.01 1.421 7.995 3.605h6.077c-2.656-5.052-7.962-8.622-14.072-8.622-8.78 0-15.898 7.118-15.898 15.898 0 8.779 7.118 15.902 15.898 15.902 6.154 0 11.489-3.51 14.131-8.625h-6.045zM145.214 114.495v.677h-1.15v3.14h-.791v-3.14h-1.147v-.677h3.088zM148.221 114.495h1.141v3.817h-.74v-2.582l.003-.313.004-.309-.722 3.204h-.78l-.718-3.204c0 .074.003.177.003.31l.001.312v2.582h-.738v-3.817h1.157l.695 3 .693-3z"/><path d="M.75 9.212v101.583s0 7.514 8.45 7.514h124.143s7.536 0 7.536-7.514V9.212s0-8.462-7.536-8.462H9.2S.75.75.75 9.212z" fill="none" stroke="#000" stroke-width="1.5"/></svg>
