<svg xmlns="http://www.w3.org/2000/svg" width="577.287" height="235.663"><path d="M205.885 179.624s-9.498 16.571-30.35 14.614c-24.483-2.51-27.367-24.014-27.367-24.014s-3.35-15.825 11.728-29.604c15.268-12.848 31.186-10.893 31.186-10.893s10.705 1.024 16.202 18.712c7.072 22.53-1.399 31.185-1.399 31.185zm36.958-44.59c-3.072-9.307-11.173-18.152-11.173-18.152s-12.191-15.828-36.117-21.223c-20.482-4.285-36.588 4.746-36.588 4.746s-14.611 5.864-25.6 17.966c-17.5 16.848-22.53 41.425-22.53 41.425s-6.699 21.411 3.912 38.355l11.543 13.963c16.291 13.593 33.701 14.987 33.701 14.987s14.058 3.166 30.441-1.115c14.334-2.886 24.764-9.964 24.764-9.964s23.738-13.122 30.254-39.933l-2.607-41.055" fill="#4e4ba8"/><path d="M408.36 184.468c-26.345 15.824-42.915-1.493-42.915-1.493s-7.354-4.839-8.938-19.547c-1.116-17.037 15.825-25.88 15.825-25.88s8.94-5.493 20.11-4.655c11.174.837 14.707.092 23.738 6.796 8.561 7.727 8.008 13.404 8.008 13.404s3.068 19.18-15.828 31.375zm44.587-54.366c-16.283-26.623-44.956-30.627-44.956-30.627s-9.126-3.074-28.674-.469c-36.677 6.983-49.433 35.19-49.433 35.19s-13.128 20.667-7.913 45.708l16.013 31.651c11.821 11.076 16.66 11.076 17.407 11.732 15.64 7.074 33.791 2.977 33.791 2.977s22.902-2.234 43.848-18.525c16.756-12.288 24.021-30.346 24.021-30.346l-4.104-47.291" fill="#daac06"/><path d="M492.428 136.058l-1.773-24.296s17.034-.373 24.111.837c13.968 2.142 13.215 6.053 13.215 6.053s-.461 4.931-11.073 9.776c-11.545 5.582-24.48 7.63-24.48 7.63zm-35.377 41.336s.554 14.891-1.772 18.523c-3.166 6.794-2.7 13.406-2.7 13.406s-2.141 20.107 21.135 23.46c16.011-.096 17.966-13.41 18.242-19.085.933-4.468.559-25.23.559-25.23l20.76 16.944s15.085 12.66 23.925 20.017c9.226 7.258 11.541 8.562 11.541 8.562s1.963 2.326 9.028 1.489c5.688.098 10.898-5.026 10.898-5.026s6.607-4.839 8.277-13.312c2.051-10.053-5.762-14.987-5.762-14.987s-28.857-23.274-48.408-39.287c13.12-7.166 19.453-12.102 19.453-12.102s18.252-12.1 22.158-30.625c5.406-20.389-9.96-28.394-9.96-28.394s-9.59-6.89-17.694-10.522c-20.385-9.959-39.372-7.913-39.372-7.913s-26.999-1.86-44.595 19.832c-8.095 10.517-3.069 24.297-3.069 24.297s1.004 2.21 3.252 12.66c4.532 21.021 4.104 47.293 4.104 47.293" fill="#00938a"/><path d="M321.971 179.906c-7.845-1.724-20.389 1.488-20.389 1.488s-17.497 6.422-20.202 6.33c-1.02-1.486-3.255-30.069-2.603-41.519.374-20.2-1.303-36.679-1.303-36.679s-.838-19.456-11.268-30.999c-12.287-12.38-20.851-7.075-25.784-4.097-11.826 10.614-6.332 23.55-6.332 23.55l6.145 17.412s2.981 7.447 2.607 19.642l2.608 41.055c0 5.492 4.468 42.448 4.468 42.448s.463 12.012 12.01 14.15c11.82 1.953 23.456-3.908 28.392-6.232 4.933-2.33 11.453-4.378 11.453-4.378s5.396-1.209 10.793-1.677c12.664-1.211 17.225-3.443 17.225-3.443s4.904-.737 8.193-5.402c3.289-4.664 7.274-26.531-16.013-31.649" fill="#6eb122"/><path d="M114.747 198.146c-8.316-2.485-17.872-.838-17.872-.838s-26.999 2.606-41.054-.37c-21.785-3.817-21.043-27.276-21.043-27.276s-.742-15.547 12.386-36.585c16.196-25.973 34.07-30.628 34.07-30.628s4.47-1.673 8.66.558c2.604 15.08 17.218 14.988 17.218 14.988s21.043 1.399 20.015-24.106c-2.42-20.95-22.622-23.837-31.094-25.789-25.412-4.563-41.89 9.029-41.89 9.029s-17.036 9.218-37.421 41.332C2.847 138.383 1.175 154.022 1.175 154.022S-.5 157.75.149 174.32c-.368 12.938 4.47 22.338 4.47 22.338s7.357 22.254 30.628 31.376c14.148 5.865 34.817 5.771 34.817 5.771s20.015-.278 35.374-1.118c8.378.652 12.382-3.723 12.382-3.723s9.4-6.143 8.47-16.85c0 0-1.822-11.058-11.543-13.968" fill="#b80a41"/><path d="M94.507 31.926l-2.246-11.592-5.183 11.592h7.43zm81.382 29.468h-12.275l-1.64-36.97-15.96 36.97h-8.186l-6.82-33.424-10.641 33.424H99.495l-3.14-17.869H82.17l-8.05 17.869H61.294L87.625 1.642h15.142l8.049 48.294 15.689-48.294h12.139l6.002 32.742 13.919-32.742h14.734l2.59 59.752M211.088 61.394l2.047-12.823h-21.42l1.699-10.642h18.627l2.049-12.823h-18.829l1.639-10.641h21.414l2.049-12.823h-33.968l-9.551 59.752h34.244M370.565 1.642h-14.326L344.098 21.15 336.46 1.642h-14.053l14.462 31.512-4.457 28.24h12.28l3.77-24.964 22.103-34.788" fill="#2e3192"/><path d="M297.661 50.016c6.495 2.905 14.449-2.795 17.761-12.731 3.31-9.94.733-20.355-5.76-23.26-6.497-2.908-14.444 2.794-17.76 12.735-3.312 9.941-.732 20.349 5.76 23.256zM279.08 26.38C282.894 9.857 297.013-.985 310.616 2.16c13.608 3.145 21.548 19.082 17.736 35.602-3.81 16.52-17.932 27.362-31.535 24.218-13.608-3.145-21.548-19.085-17.737-35.601M35.103 6.965c-11.7 7.239-17.327 18.276-15.828 33.284C21.016 57.656 43.56 68.625 62.66 57.575c1.67-.966 1.018-.813 1.638-1.365l3.821-24.284H45.333l-1.746 11.186h9.521l-1.093 6.005c-5.454 2.182-14.732 1.363-18.687-5.73-2.505-4.493-4.826-14.52 5.733-23.74 8.588-7.502 23.462-8.865 32.058-4.908 0 0 1.091-6.275 1.906-12.144-16.506-5.728-29.33-.953-37.922 4.37" fill="#2e3192"/><path d="M239.049 1.975l-9.475 59.301h27.616c11.373 0 28.004-16.762 12.864-30.461 15.567-16.111.132-28.701-8.125-28.84-6.633-.11-23.013 0-23.013 0h.133zm6.77 35.879h10.287c9.752 0 9.48 11.913-1.352 11.913h-10.83l1.895-11.913zm3.789-23.287h7.99c8.664 0 6.907 11.102-1.35 11.102h-8.533l1.892-11.102" fill="#2e3192"/><path d="M355.757 66.875h-2.317l1.941-8.255h-3.347l.417-1.775h9.011l-.417 1.775h-3.346l-1.941 8.255M371.111 66.875h-2.16l1.97-8.383h-.03l-4.035 8.383h-2.271l-.054-8.383h-.029l-1.97 8.383h-2.16l2.355-10.03h3.377l.151 7.907h.033l3.83-7.907h3.352l-2.359 10.03" fill="#231f20"/></svg>
