<svg xmlns="http://www.w3.org/2000/svg" width="512" height="212"><path fill="#00000f" fill-opacity=".941" d="M0 0h512v212H0z"/><path d="M33.588 181.948l38.89-153.089h36.063l18.738 66.822 19.446-66.822h33.94l31.82 112.784 77.636-.147c8.15-.079 8.65-16.932-.604-16.927l-45.212-.604c-19.415.188-39.887-20.816-38.89-48.79.207-25.66 22.581-45.866 51.204-45.859l115.32-.103 29.344 39.951 28.638-40.305 47.73.354-52.326 73.539 56.568 79.739-47.48-.147-32.923-45.754-31.32 45.754-48.436-.042 55.154-78.843-24.042-35.002-100.245.147c-10.94.1-10.539 17.311.086 16.988l42.237.647c17.851.115 42.991 18.665 42.366 47.626.273 33.668-30.052 49.05-44.651 48.23l-110.559.146-18.385-68.882-18.385 68.735h-34.898l-19.195-68.382-16.867 68.486-40.762-.25z" fill="#fff"/></svg>
