<svg width="787" height="212" viewBox="0 0 208.23 56.092" xmlns="http://www.w3.org/2000/svg"><path fill="#fff" d="M0 0h208.23v56.092H0z"/><path d="M0 28.04V-.006h138.39v56.092H0zm23.436 12.628c1.185-4.13 2.217-7.448 2.294-7.373.077.076 1.008 3.428 2.07 7.45l1.93 7.31 10.517.138.29-1.09c.252-.948 3.723-13.487 3.888-14.045.034-.115.614 1.778 1.29 4.207.675 2.428 1.634 5.878 2.133 7.666l.905 3.251L64.2 48.18c16.726-.003 16.69 0 19.596-1.423 1.732-.848 4.535-3.589 5.47-5.35 2.974-5.604 1.399-12.574-3.689-16.321-2.85-2.1-3.465-2.229-11.32-2.387-6.333-.128-6.964-.18-7.455-.625-.784-.71-.717-2.012.138-2.685.667-.525.833-.53 14.316-.465l13.642.066 2.877 3.952c1.582 2.173 2.882 4.033 2.888 4.133.006.1-2.417 3.714-5.384 8.031a7612.13 7612.13 0 00-7.136 10.4L86.4 48.053l6.43.068c3.538.038 6.565.017 6.728-.045.163-.063 1.989-2.532 4.057-5.487 2.068-2.955 3.832-5.372 3.92-5.372.088 0 1.877 2.465 3.976 5.479l3.816 5.478 13.405.006-3.69-5.417c-2.03-2.98-5.253-7.721-7.164-10.535l-3.474-5.118 6.09-8.905c3.35-4.899 6.295-9.222 6.545-9.607l.454-.701-13.184.01-3.314 4.7c-1.822 2.585-3.37 4.701-3.44 4.703-.07 0-1.594-2.116-3.387-4.706l-3.259-4.708H83.642c-18.814 0-18.721-.007-21.701 1.474-.767.381-2.1 1.382-2.96 2.223-5.789 5.662-5.014 15.26 1.587 19.644 2.894 1.921 3.244 1.99 10.949 2.144 7.368.147 7.534.178 8.024 1.467.343.902-.206 1.818-1.273 2.127-.583.169-4.555.237-10.971.19l-10.057-.077-3.756-13.64A4082.592 4082.592 0 0049.45 8.852l-.28-.956h-9.536l-2.14 7.84c-1.177 4.312-2.217 7.99-2.312 8.173-.094.182-1.152-3.317-2.35-7.777l-2.177-8.108-9.711-.139-.266.834c-.146.46-2.626 9.382-5.512 19.83S9.87 47.685 9.81 47.86c-.085.25 1.161.319 5.682.317l5.79-.002zm120.31 15.227c0-.105.116-1.417.259-2.916.474-5.01 2.257-9.602 4.86-12.524.71-.795 2.915-2.77 4.902-4.39 3.96-3.228 5.411-4.919 5.663-6.599.355-2.368-.817-4.23-2.664-4.23-1.853 0-2.825 1.4-2.825 4.071v1.538H144v-1.234c0-1.67.818-4.755 1.751-6.605.422-.836 1.342-2.149 2.043-2.917 4.53-4.959 13.497-4.979 18.512-.04 4.65 4.576 4.498 13.104-.319 17.9-.809.806-2.884 2.421-4.612 3.59-1.727 1.169-3.735 2.711-4.46 3.428l-1.319 1.304 13.635.135v9.68h-12.743c-7.009 0-12.743-.085-12.743-.19zm43.327-7.84v-7.776H172.8v-7.65h14.273V17.078h6.881V32.63h14.273v7.649h-14.273v15.553h-6.881z"/></svg>
