<?xml version="1.0" encoding="UTF-8"?>
<svg id="svg5350" width="787" height="212" version="1.1" viewBox="0 0 208.23 56.092" xmlns="http://www.w3.org/2000/svg" xmlns:cc="http://creativecommons.org/ns#" xmlns:dc="http://purl.org/dc/elements/1.1/" xmlns:rdf="http://www.w3.org/1999/02/22-rdf-syntax-ns#">
 <metadata id="metadata5347">
  <rdf:RDF>
   <cc:Work rdf:about="">
    <dc:format>image/svg+xml</dc:format>
    <dc:type rdf:resource="http://purl.org/dc/dcmitype/StillImage"/>
    <dc:title/>
   </cc:Work>
  </rdf:RDF>
 </metadata>
 <g id="layer1" transform="translate(0 -240.91)">
  <rect id="rect5908" x="3.5527e-15" y="240.91" width="208.23" height="56.092" fill="#fff"/>
  <path id="path5906" d="m0 268.95v-28.046h138.39v56.092h-138.39zm23.436 12.628c1.1847-4.1308 2.2169-7.4484 2.2938-7.3725 0.07687 0.0759 1.0082 3.4279 2.0696 7.4487l1.9298 7.3106 10.518 0.1378 0.28956-1.0887c0.25237-0.94887 3.7235-13.488 3.8883-14.046 0.03395-0.11497 0.61416 1.7781 1.2893 4.2069 0.67519 2.4287 1.6351 5.8787 2.1332 7.6667l0.90556 3.2508 15.447-3e-3c16.726-3e-3 16.69-5.1e-4 19.596-1.4232 1.7323-0.84784 4.5344-3.5886 5.469-5.3494 2.9748-5.6043 1.3997-12.575-3.688-16.322-2.8499-2.0988-3.4649-2.2284-11.32-2.3869-6.3329-0.12774-6.9641-0.18068-7.4549-0.62525-0.78415-0.71037-0.71717-2.012 0.13818-2.685 0.6665-0.52446 0.83283-0.52986 14.316-0.46469l13.642 0.0659 2.8768 3.9519c1.5822 2.1735 2.8816 4.0336 2.8875 4.1333 6e-3 0.0998-2.4167 3.7139-5.3837 8.0313-2.9669 4.3174-6.1783 8.9972-7.1363 10.399l-1.7419 2.5496 6.431 0.0682c3.5371 0.0375 6.5644 0.017 6.7273-0.0455 0.16294-0.0625 1.9884-2.5313 4.0566-5.4862 2.0682-2.9549 3.8322-5.3725 3.9202-5.3725 0.088 0 1.8772 2.4655 3.9762 5.4788l3.8163 5.4788 13.405 6e-3 -3.6901-5.4179c-2.0295-2.9799-5.2535-7.7206-7.1644-10.535l-3.4743-5.1171 6.0904-8.9058c3.3497-4.8982 6.2948-9.2213 6.5445-9.607l0.45414-0.70115-13.184 0.01-3.3133 4.7002c-1.8223 2.5851-3.3706 4.7014-3.4407 4.7028-0.0701 9.6e-4 -1.594-2.116-3.3865-4.7055l-3.2591-4.7081h-17.268c-18.814 0-18.721-7e-3 -21.701 1.4741-0.76737 0.3812-2.0991 1.3815-2.9595 2.2228-5.7895 5.6618-5.0143 15.261 1.5863 19.644 2.8939 1.9216 3.2444 1.9902 10.949 2.1443 7.3677 0.14737 7.534 0.17778 8.024 1.4672 0.34288 0.90216-0.20539 1.8181-1.2732 2.127-0.58292 0.16864-4.5551 0.23703-10.971 0.18888l-10.057-0.0759-3.7553-13.64c-2.0654-7.5023-3.8811-14.071-4.035-14.597l-0.27969-0.95611-9.5371 2.2e-4 -2.1396 7.84c-1.1768 4.312-2.217 7.9895-2.3115 8.1723-0.09457 0.18276-1.152-3.3166-2.3498-7.7763l-2.1778-8.1086-9.711-0.1384-0.26549 0.83406c-0.14602 0.45874-2.6265 9.3816-5.5121 19.829s-5.2955 19.138-5.3552 19.313c-0.08475 0.24883 1.1609 0.3183 5.6817 0.31684l5.7902-2e-3zm120.31 15.227c1.3e-4 -0.10517 0.11646-1.4174 0.25853-2.9162 0.47482-5.0089 2.2576-9.6022 4.8613-12.524 0.70825-0.79493 2.914-2.7707 4.9016-4.3906 3.9597-3.2271 5.4108-4.9178 5.6626-6.5977 0.355-2.3683-0.81739-4.2303-2.6636-4.2303-1.8537 0-2.8259 1.4007-2.8259 4.0712v1.538h-9.9398v-1.234c0-1.6704 0.81812-4.7556 1.7517-6.6057 0.42185-0.83599 1.3412-2.1484 2.0429-2.9165 4.5306-4.959 13.497-4.9788 18.512-0.0409 4.6492 4.5772 4.4972 13.105-0.31894 17.901-0.80904 0.80564-2.8845 2.421-4.6122 3.5897-1.7276 1.1687-3.7347 2.7114-4.4602 3.4283l-1.319 1.3034 13.635 0.1358v9.6802h-12.743c-7.0089 0-12.743-0.0861-12.743-0.19122zm43.327-7.8401v-7.7763h-14.273v-7.6488h14.273v-15.553h6.8814v15.553h14.273v7.6488h-14.273v15.553h-6.8814z" stroke-width=".25491"/>
 </g>
</svg>
