<svg xmlns="http://www.w3.org/2000/svg" width="1028.335" height="292.742" viewBox="0 0 272.08 77.455"><path d="M18.893 55.789h-2.606L2.673 36.21V55.79H0V32.202h3.274l12.963 18.71v-18.71h2.656zM34.595 55.789H21.432l-.05-23.587h13.163v2.666H24.029v7.465h9.828v2.646h-9.828v8.6h10.536z" fill="#290063"/><path d="M48.075 31.53A12.465 12.465 0 0035.61 43.997 12.465 12.465 0 0048.075 56.46 12.465 12.465 0 0060.54 43.996 12.465 12.465 0 0048.075 31.53zm.033 2.743a9.756 9.756 0 019.756 9.756 9.756 9.756 0 01-9.756 9.756 9.756 9.756 0 01-9.755-9.756 9.756 9.756 0 019.755-9.756zM114.893 31.53a12.465 12.465 0 00-12.465 12.466 12.465 12.465 0 0012.465 12.465 12.465 12.465 0 0012.465-12.465 12.465 12.465 0 00-12.465-12.465zm.033 2.743a9.756 9.756 0 019.756 9.756 9.756 9.756 0 01-9.756 9.756 9.756 9.756 0 01-9.756-9.756 9.756 9.756 0 019.756-9.756z" fill="#290063" paint-order="stroke fill markers"/><g fill="#290063"><path style="line-height:normal;font-variant-ligatures:normal;font-variant-position:normal;font-variant-caps:normal;font-variant-numeric:normal;font-variant-alternates:normal;font-feature-settings:normal;text-indent:0;text-align:start;text-decoration-line:none;text-decoration-style:solid;text-decoration-color:#000;text-transform:none;text-orientation:mixed;white-space:normal;shape-padding:0;isolation:auto;mix-blend-mode:normal;solid-color:#000;solid-opacity:1" d="M74.507 31.404a12.46 12.46 0 00-3.995.72c-6.014 2.135-9.482 8.485-8.051 14.719 1.431 6.233 7.324 10.42 13.662 9.695 6.338-.724 11.14-6.65 11.14-12.102h-2.956c0 4.12-3.658 8.609-8.52 9.164-4.862.556-9.342-2.622-10.443-7.42-1.101-4.797 1.544-9.63 6.158-11.27A9.555 9.555 0 0182.56 38.46h3.42a12.584 12.584 0 00-11.472-7.055z" color="#000" font-weight="400" font-family="sans-serif" overflow="visible" paint-order="stroke fill markers"/><path d="M87.264 44.436H70.757v2.67h14.457z"/></g><path d="M101.947 55.789H88.784l-.05-23.587h13.163v2.666H91.38v7.465h9.828v2.646H91.38v8.6h10.536z" fill="#290063"/><path d="M169.683 31.53a12.465 12.465 0 00-12.465 12.466 12.465 12.465 0 0012.465 12.465 12.465 12.465 0 0012.465-12.465 12.465 12.465 0 00-12.465-12.465zm.033 2.743a9.756 9.756 0 019.756 9.756 9.756 9.756 0 01-9.756 9.756 9.756 9.756 0 01-9.755-9.756 9.756 9.756 0 019.755-9.756z" fill="#290063" paint-order="stroke fill markers"/><path d="M197.184 31.404c-1.332.02-2.68.253-3.996.72-6.013 2.135-9.481 8.485-8.05 14.719 1.43 6.233 7.324 10.42 13.662 9.695 4.413-.504 8.08-3.531 9.9-7.163h-3.38c-1.525 2.19-3.98 3.897-6.856 4.225-4.862.556-9.342-2.622-10.443-7.42-1.102-4.797 1.544-9.63 6.158-11.27a9.555 9.555 0 0111.057 3.55h3.42a12.584 12.584 0 00-11.472-7.056z" style="line-height:normal;font-variant-ligatures:normal;font-variant-position:normal;font-variant-caps:normal;font-variant-numeric:normal;font-variant-alternates:normal;font-feature-settings:normal;text-indent:0;text-align:start;text-decoration-line:none;text-decoration-style:solid;text-decoration-color:#000;text-transform:none;text-orientation:mixed;white-space:normal;shape-padding:0;isolation:auto;mix-blend-mode:normal;solid-color:#000;solid-opacity:1" color="#000" font-weight="400" font-family="sans-serif" overflow="visible" fill="#290063" paint-order="stroke fill markers"/><path d="M248.678 55.789h-13.163l-.05-23.587h13.162v2.666h-10.515v7.465h9.828v2.646h-9.828v8.6h10.536z" fill="#290063"/><g fill="#290063"><path d="M211.728 32.202h2.689V55.79h-2.689z" paint-order="stroke fill markers"/><path d="M227.714 55.789h3.541l-12.228-12.695-2.205 1.67z"/><path d="M227.647 32.202h3.474l-18.107 18.776.735-4.878z"/></g><g fill="#290063" paint-order="stroke fill markers"><path d="M252.837 32.202h19.243v2.666h-19.243z"/><path d="M261.055 32.202h2.724V55.79h-2.724z"/></g><path d="M135.387 33.009l3.376-9.731 8.964.027.077 4.362-5.917-.047-1.209 4.479 6.076 4.394c2.993-1.23 5.13-3.905 5.57-6.974.439-3.069-.89-6.04-3.463-7.743-2.574-1.704-5.967-1.816-8.868-.377l-9.756 4.841 14.703 29.627-3.83 1.901-16.693-33.637 13.886-6.89c4.548-2.258 9.961-1.71 13.828 1.397 3.867 3.108 5.468 8.199 4.091 13.005-1.377 4.806-5.656 8.373-10.206 9.806zM146.588 0l-1.56 11.576 2.93.566 4.11-11.339z" fill="#e81a2e"/><path d="M158.07 3.638l-5.765 10.016 2.551 1.701 7.276-8.835z" fill="#008c84"/><path d="M165.77 10.583l-8.362 7.465 1.937 2.882 9.213-5.764z" fill="#00adf7"/><g fill="#e81a2e" paint-order="stroke fill markers"><path style="line-height:normal;font-variant-ligatures:normal;font-variant-position:normal;font-variant-caps:normal;font-variant-numeric:normal;font-variant-alternates:normal;font-feature-settings:normal;text-indent:0;text-align:start;text-decoration-line:none;text-decoration-style:solid;text-decoration-color:#000;text-transform:none;text-orientation:mixed;white-space:normal;shape-padding:0;isolation:auto;mix-blend-mode:normal;solid-color:#000;solid-opacity:1" d="M95.92 62.303a7.447 7.447 0 00-2.391.431c-3.598 1.278-5.674 5.077-4.817 8.807.856 3.73 4.382 6.235 8.175 5.802 2.64-.302 4.834-2.113 5.924-4.287h-2.023c-.913 1.312-2.381 2.332-4.102 2.529a5.738 5.738 0 01-6.25-4.44 5.77 5.77 0 013.686-6.743 5.717 5.717 0 016.616 2.123h2.046a7.53 7.53 0 00-6.865-4.221z" color="#000" font-weight="400" font-family="sans-serif" overflow="visible"/><path d="M120.017 62.538a7.458 7.458 0 00-7.459 7.458 7.458 7.458 0 007.459 7.459 7.458 7.458 0 007.458-7.459 7.458 7.458 0 00-7.458-7.458zm.02 1.64a5.837 5.837 0 015.837 5.838 5.837 5.837 0 01-5.837 5.838 5.837 5.837 0 01-5.838-5.838 5.837 5.837 0 015.838-5.837zM138.253 62.797h1.57v14.114h-1.57z"/><path d="M138.253 75.588h7.859v1.323h-7.859zM161.491 62.538a7.458 7.458 0 00-7.458 7.458 7.458 7.458 0 007.458 7.459 7.458 7.458 0 007.459-7.459 7.458 7.458 0 00-7.459-7.458zm.02 1.64a5.837 5.837 0 015.838 5.838 5.837 5.837 0 01-5.838 5.838 5.837 5.837 0 01-5.837-5.838 5.837 5.837 0 015.837-5.837zM179.238 62.797h1.57V76.91h-1.57z"/><path d="M184.744 72.163a4.747 4.747 0 00-1.098-9.366h-4.408l.878 1.579h3.509a3.151 3.151 0 110 6.302h-3.48l-.058 1.698h2.648l3.332 4.534h2.03z"/></g></svg>
