<svg xmlns="http://www.w3.org/2000/svg" width="323.389" height="309.226" viewBox="0 0 485.433 464.173"><g transform="translate(0 -588.189)"><circle cx="243.571" cy="818.076" r="216.429" stroke="#000"/><path d="M83.302 823.205l29.8-75.509 74.498 58.841-4.798-139.906-7.324 10.86-2.273-9.85-6.566 9.597-3.03-20.96-10.102 80.559-53.538-40.154-13.132 13.637zM315.132 670.42l-30.81 46.971 21.97 50.508 40.66 52.275 33.335 11.617 38.638-50.76-8.839-41.669-39.143-55.053z" fill="#fc0" fill-rule="evenodd" stroke="#fc0"/><path d="M203.257 820.68l75.762-57.074-14.395 2.02 8.586-7.323-11.616 2.525 15.404-11.364-51.77 9.344-1.768-17.425 69.953-51.266-72.226 5.304 64.903-42.68-22.476 2.526 18.94-15.152-10.606-.505 15.404-11.112-88.64 29.294z" fill="#fc0" fill-rule="evenodd" stroke="#fc0"/><path d="M185.832 899.977l62.377 83.085-6.818-15.658 9.849 7.829-4.799-15.405 11.112 2.778-37.376-71.973 67.428 2.02-35.86-60.61 55.558 18.689-9.849-10.86 16.415 4.294-13.132-16.92 7.324.757-46.467-37.88z" fill="#37abc8" fill-rule="evenodd" stroke="#37abc8"/><path d="M344.174 786.082l9.849 3.283h16.92l8.08-5.556 6.314-8.839 6.061-20.708 2.778 17.173-2.525 11.111-8.082 9.344-9.343 5.556-17.426-1.01z" fill-rule="evenodd" stroke="#000"/><path d="M281.797 959.828l20.96 20.203 39.901-10.101 61.115-57.58 2.272-70.71-71.973 1.515-52.023 67.68zM172.195 815.124c-7.465-4.986-20.428-12.59-33.587-10.354-61.352 10.427-57.24 85.854-29.295 127.279 15.493 22.967 61.14 52.787 86.873 58.841l-20.96-121.47-40.66 13.131 11.113.253-14.143 11.617h14.395l-12.88 10.354h24.244l8.334 33.335-.252-.505c-12.877-3.656-27.021-15.53-35.626-24.218-25.008-25.25-27.516-73.972 15.17-76.04 19.66 5.346 34.82 19.905 51.013 27.78z" fill="#37abc8" fill-rule="evenodd" stroke="#37abc8"/><path d="M324.476 926.746l9.596 3.535 11.617-5.05 10.101 19.192-22.728 9.597-10.102-.505-4.545-7.577-12.627 1.516-5.556-17.678 5.05-10.101 13.133-5.051zM343.75 885.398l10.893-2.143 4.643-11.786-4.465-9.464-14.107 2.5-5.535 11.786zM316.786 738.79l6.785 4.286 7.5-4.82-2.142-6.25-6.786-1.787-5 3.572zM345.357 718.79l5.714-8.57h6.965l5.714 9.285-3.929 7.679-9.107-.179zM370 891.29l5.536-2.678 7.678 1.786-.178 6.786-4.643 5.892-7.857-4.464z" fill-rule="evenodd" stroke="#000"/></g></svg>
