<?xml version="1.0" encoding="UTF-8" standalone="no"?>
<!-- Created with Inkscape (http://www.inkscape.org/) -->

<svg
   xmlns:dc="http://purl.org/dc/elements/1.1/"
   xmlns:cc="http://creativecommons.org/ns#"
   xmlns:rdf="http://www.w3.org/1999/02/22-rdf-syntax-ns#"
   xmlns:svg="http://www.w3.org/2000/svg"
   xmlns="http://www.w3.org/2000/svg"
   xmlns:sodipodi="http://sodipodi.sourceforge.net/DTD/sodipodi-0.dtd"
   xmlns:inkscape="http://www.inkscape.org/namespaces/inkscape"
   version="1.1"
   width="2300"
   height="510"
   id="svg5765"
   inkscape:version="0.91 r13725"
   sodipodi:docname="Nintendo_3ds_logo.svg">
  <sodipodi:namedview
     pagecolor="#ffffff"
     bordercolor="#666666"
     borderopacity="1"
     objecttolerance="10"
     gridtolerance="10"
     guidetolerance="10"
     inkscape:pageopacity="0"
     inkscape:pageshadow="2"
     inkscape:window-width="1920"
     inkscape:window-height="1018"
     id="namedview38"
     showgrid="false"
     inkscape:zoom="0.45470961"
     inkscape:cx="748.0989"
     inkscape:cy="454.50579"
     inkscape:window-x="-8"
     inkscape:window-y="-8"
     inkscape:window-maximized="1"
     inkscape:current-layer="layer2" />
  <defs
     id="defs5767">
    <clipPath
       id="clipPath4439">
      <path
         d="m 76.965,496.958 257.093,0 0,52.963 -257.093,0 0,-52.963 z"
         id="path4441"
         inkscape:connector-curvature="0" />
    </clipPath>
  </defs>
  <metadata
     id="metadata5770">
    <rdf:RDF>
      <cc:Work
         rdf:about="">
        <dc:format>image/svg+xml</dc:format>
        <dc:type
           rdf:resource="http://purl.org/dc/dcmitype/StillImage" />
        <dc:title></dc:title>
      </cc:Work>
    </rdf:RDF>
  </metadata>
  <g
     inkscape:groupmode="layer"
     id="layer2"
     inkscape:label="Vectores"
     style="display:inline"
     transform="translate(0,240.70863)">
    <g
       transform="translate(-301.52155,-413.08522)"
       id="layer1">
      <g
         transform="matrix(9.2625389,0,0,-9.2625389,-402.58386,5397.0757)"
         id="g4435">
        <g
           clip-path="url(#clipPath4439)"
           id="g4437">
          <g
             transform="translate(211.56441,512.57739)"
             id="g4443">
            <path
               d="m 0,0 c 0,-0.292 -0.241,-0.531 -0.534,-0.531 l -10.189,0 c -0.296,0 -0.533,0.239 -0.533,0.531 l 0,7.37 c 0,0.293 0.237,0.53 0.533,0.53 l 10.189,0 C -0.241,7.9 0,7.663 0,7.37 L 0,0 Z m -0.442,10.111 -10.375,0 c -1.502,0 -2.722,-1.229 -2.722,-2.726 l 0,-7.402 c 0,-1.495 1.22,-2.723 2.722,-2.723 l 10.375,0 c 1.502,0 2.725,1.228 2.725,2.723 l 0,7.402 c 0,1.497 -1.223,2.726 -2.725,2.726"
               id="path4445"
               style="fill:#a1a2a2;fill-opacity:1;fill-rule:nonzero;stroke:none"
               inkscape:connector-curvature="0" />
          </g>
          <g
             transform="translate(92.134293,533.7625)"
             id="g4447">
            <path
               d="m 0,0 0,-9.524 -2.381,0 0,12.855 2.033,0 9.639,-9.363 0,9.363 1.904,0 0.446,0 0,-12.855 -1.86,0 L 0,0 Z"
               id="path4449"
               style="fill:#332d2b;fill-opacity:1;fill-rule:nonzero;stroke:none"
               inkscape:connector-curvature="0" />
          </g>
          <g
             transform="translate(115.99471,533.7625)"
             id="g4451">
            <path
               d="m 0,0 0,-9.524 -2.38,0 0,12.855 2.031,0 9.639,-9.363 0,9.363 1.908,0 0.444,0 0,-12.855 -1.859,0 L 0,0 Z"
               id="path4453"
               style="fill:#332d2b;fill-opacity:1;fill-rule:nonzero;stroke:none"
               inkscape:connector-curvature="0" />
          </g>
          <g
             transform="translate(165.44679,533.7625)"
             id="g4455">
            <path
               d="m 0,0 0,-9.524 -2.379,0 0,12.855 2.031,0 9.638,-9.363 0,9.363 1.907,0 0.445,0 0,-12.855 -1.858,0 L 0,0 Z"
               id="path4457"
               style="fill:#332d2b;fill-opacity:1;fill-rule:nonzero;stroke:none"
               inkscape:connector-curvature="0" />
          </g>
          <g
             transform="translate(109.44099,537.09309)"
             id="g4459">
            <path
               d="m 0,0 0.44,0 0,-12.854 -2.379,0 L -1.939,0 0,0 Z"
               id="path4461"
               style="fill:#332d2b;fill-opacity:1;fill-rule:nonzero;stroke:none"
               inkscape:connector-curvature="0" />
          </g>
          <g
             transform="translate(143.84331,537.09309)"
             id="g4463">
            <path
               d="m 0,0 0.438,0 0,-2.211 -5.74,0 0,-10.643 -2.472,0 0,10.643 -5.736,0 0,2.211 L 0,0 Z"
               id="path4465"
               style="fill:#332d2b;fill-opacity:1;fill-rule:nonzero;stroke:none"
               inkscape:connector-curvature="0" />
          </g>
          <g
             transform="translate(159.09039,537.09309)"
             id="g4467">
            <path
               d="m 0,0 0.446,0 0,-2.211 -10.201,0 0,-2.885 7.891,0 0,-2.211 -7.891,0 0,-3.333 10.201,0 0,-2.214 -12.556,0 L -12.11,0 0,0 Z"
               id="path4469"
               style="fill:#332d2b;fill-opacity:1;fill-rule:nonzero;stroke:none"
               inkscape:connector-curvature="0" />
          </g>
          <g
             transform="translate(190.3214,526.4534)"
             id="g4471">
            <path
               d="m 0,0 -7.31,0 0,8.429 0.068,0 7.242,0 C 2.287,8.429 3.101,6.156 3.101,4.217 3.101,2.27 2.287,0 0,0 M 3.905,8.762 C 2.976,9.988 1.598,10.64 -0.068,10.64 l -9.537,0 0,-12.855 9.537,0 c 1.666,0 3.044,0.651 3.973,1.878 0.871,1.143 1.334,2.713 1.334,4.554 0,1.831 -0.463,3.408 -1.334,4.545"
               id="path4473"
               style="fill:#332d2b;fill-opacity:1;fill-rule:nonzero;stroke:none"
               inkscape:connector-curvature="0" />
          </g>
          <g
             transform="translate(211.56441,526.98129)"
             id="g4475">
            <path
               d="m 0,0 c 0,-0.29 -0.241,-0.529 -0.534,-0.529 l -10.189,0 c -0.296,0 -0.533,0.239 -0.533,0.529 l 0,7.37 c 0,0.291 0.237,0.528 0.533,0.528 l 10.189,0 C -0.241,7.898 0,7.661 0,7.37 L 0,0 Z m -0.442,10.112 -10.375,0 c -1.502,0 -2.722,-1.23 -2.722,-2.727 l 0,-7.404 c 0,-1.496 1.22,-2.724 2.722,-2.724 l 10.375,0 c 1.502,0 2.725,1.228 2.725,2.724 l 0,7.404 c 0,1.497 -1.223,2.727 -2.725,2.727"
               id="path4477"
               style="fill:#332d2b;fill-opacity:1;fill-rule:nonzero;stroke:none"
               inkscape:connector-curvature="0" />
          </g>
          <g
             transform="translate(288.4624,515.2308)"
             id="g4479">
            <path
               d="m 0,0 c 2.469,-0.974 7.679,-1.764 11.744,-1.764 4.451,0 6.298,1.528 6.298,3.445 0,1.72 -1.714,2.731 -6.63,4.533 -6.571,2.429 -11.39,4.34 -11.39,8.656 0,4.47 5.798,7.099 14.642,7.099 4.748,0 6.378,-0.3 9.395,-0.853 l 0.021,-4.241 c -2.961,0.563 -5.586,1.531 -9.664,1.531 -4.369,0 -6.23,-1.387 -6.23,-2.817 0,-2.075 2.866,-3.067 7.898,-4.86 7.002,-2.507 10.898,-4.441 10.898,-8.667 0,-4.348 -4.878,-7.487 -15.882,-7.487 -4.52,0 -7.635,0.298 -11.1,0.855 L 0,0 Z"
               id="path4481"
               style="fill:#332d2b;fill-opacity:1;fill-rule:nonzero;stroke:none"
               inkscape:connector-curvature="0" />
          </g>
          <g
             transform="translate(265.03841,533.452)"
             id="g4483">
            <path
               d="m 0,0 -5.236,0 0,-19.823 5.236,0 c 8.039,0 13.11,3.437 13.11,9.871 C 13.11,-3.52 8.039,0 0,0 m 14.06,-21.67 c -2.593,-1.173 -7.491,-1.917 -11.777,-1.917 l -16.368,0 0,27.276 16.368,0 c 4.286,0 9.184,-0.754 11.779,-1.924 6.304,-2.846 8.362,-7.401 8.362,-11.717 0,-4.319 -2.039,-8.867 -8.364,-11.718"
               id="path4485"
               style="fill:#332d2b;fill-opacity:1;fill-rule:nonzero;stroke:none"
               inkscape:connector-curvature="0" />
          </g>
          <g
             transform="translate(239.4794,524.7903)"
             id="g4487">
            <path
               d="m 0,0 c 0,0 7.636,1.223 7.636,5.977 0,4.647 -8.131,6.548 -16.782,6.548 -7.808,0 -12.941,-0.954 -12.941,-0.954 l 0,-4.222 c 3.544,0.857 6.933,1.587 11.553,1.587 4.958,0 8.742,-1.479 8.742,-3.569 0,-2.52 -3.742,-3.959 -11.795,-3.959 l -3.701,0 0,-3.799 3.438,0 c 8.483,0 13.307,-1.276 13.307,-4.39 0,-2.78 -4.31,-4.469 -9.684,-4.469 -4.686,0 -8.973,0.998 -12.45,1.963 l 0,-4.554 c 1.67,-0.287 6.101,-1.177 14.354,-1.177 9.142,0 17.097,2.94 17.097,8.122 C 8.774,-2.55 3.263,0 0,0"
               id="path4489"
               style="fill:#d12228;fill-opacity:1;fill-rule:nonzero;stroke:none"
               inkscape:connector-curvature="0" />
          </g>
          <g
             transform="translate(317.66541,513.5804)"
             id="g4491">
            <path
               d="m 0,0 -0.861,0 0,0.462 2.285,0 0,-0.462 -0.872,0 0,-2.563 L 0,-2.563 0,0 Z"
               id="path4493"
               style="fill:#332d2b;fill-opacity:1;fill-rule:nonzero;stroke:none"
               inkscape:connector-curvature="0" />
          </g>
          <g
             transform="translate(321.99741,512.2518)"
             id="g4495">
            <path
               d="m 0,0 c -0.017,0.391 -0.04,0.862 -0.035,1.27 l -0.015,0 C -0.148,0.901 -0.273,0.493 -0.408,0.112 l -0.445,-1.311 -0.422,0 -0.403,1.293 C -1.795,0.48 -1.903,0.893 -1.983,1.27 l -0.009,0 C -2.006,0.875 -2.024,0.395 -2.047,-0.019 l -0.067,-1.216 -0.517,0 0.203,3.026 0.727,0 0.396,-1.216 c 0.106,-0.355 0.202,-0.715 0.278,-1.052 l 0.014,0 c 0.08,0.329 0.183,0.702 0.3,1.056 l 0.416,1.212 0.719,0 0.176,-3.026 -0.539,0 L 0,0 Z"
               id="path4497"
               style="fill:#332d2b;fill-opacity:1;fill-rule:nonzero;stroke:none"
               inkscape:connector-curvature="0" />
          </g>
        </g>
      </g>
    </g>
    <g
       id="g4344"
       transform="translate(38.151337,10)">
      <g
         id="g4237"
         transform="matrix(1.148555,0,0,1.148555,-118.26686,-365.40929)">
        <path
           id="path3412"
           d="m 113.22538,296.59724 c -5.32482,-6.97591 -11.90751,-18.18514 -15.974392,-27.20174 -1.507252,-3.34169 -1.737205,-4.22507 -1.285366,-4.93784 0.388487,-0.61282 41.219918,-17.37499 41.905238,-17.20298 0.45486,0.11416 1.10395,1.18948 2.67856,4.43748 3.0424,6.27567 6.10051,11.45321 9.89654,16.75536 0.77229,1.07871 0.98236,1.59654 0.85444,2.1062 -0.24257,0.96649 -34.78004,27.39193 -35.99593,27.54137 -0.76766,0.0943 -0.9812,-0.0595 -2.07909,-1.49785 z"
           style="display:inline;fill:#05aae7"
           inkscape:connector-curvature="0" />
        <path
           id="path3410"
           d="m 85.224991,225.52835 c -1.462185,-1.61569 -2.025973,-22.66759 -0.896163,-33.46279 0.428037,-4.08984 0.649591,-4.86276 1.46838,-5.12263 0.506159,-0.16065 43.406832,5.41487 44.290412,5.75613 0.8863,0.34232 1.01942,1.03338 0.691,3.58707 -0.38807,3.0175 -0.4017,17.23945 -0.0195,20.39958 0.31251,2.58433 0.0629,3.42884 -1.09396,3.7018 -0.85872,0.20261 -42.721055,5.62392 -43.426853,5.62392 -0.316849,0 -0.772819,-0.21738 -1.013266,-0.48308 z"
           style="display:inline;fill:#a9c701"
           inkscape:connector-curvature="0" />
        <path
           id="path3406"
           d="m 116.785,157.06235 c -10.97053,-4.57561 -20.135106,-8.47587 -20.365712,-8.66726 -0.230606,-0.19138 -0.419284,-0.5841 -0.419284,-0.87269 0,-0.80356 4.045286,-9.30901 6.694856,-14.07633 2.76221,-4.97 5.43677,-9.26663 8.60129,-13.8178 2.6567,-3.82085 3.42558,-4.70316 4.09647,-4.70087 0.2712,8.3e-4 7.89881,5.6901 16.95024,12.6426 19.78129,15.19422 18.78982,14.39479 18.78366,15.14551 -0.003,0.32933 -0.9719,1.97694 -2.15379,3.66135 -3.03517,4.32572 -4.99258,7.66373 -8.01084,13.66103 -2.46202,4.89206 -2.67696,5.22316 -3.42857,5.2815 -0.53168,0.0413 -7.52308,-2.74104 -20.74832,-8.25704 z"
           style="display:inline;fill:#e5001d"
           inkscape:connector-curvature="0" />
      </g>
      <g
         id="g4232"
         transform="matrix(1.1230958,0,0,1.1230958,-379.73233,-360.15445)">
        <path
           id="path3414"
           d="m 987.73356,223.15154 c -20.07494,-2.67964 -20.97422,-2.82395 -21.47855,-3.44677 -0.39,-0.48164 -0.48581,-0.90359 -0.36984,-1.62883 0.29225,-1.82765 0.6929,-8.6454 0.69421,-11.81308 0,-3.08705 -0.40514,-9.99375 -0.68779,-11.68858 -0.0966,-0.57939 0.0137,-1.04399 0.34299,-1.44375 0.44848,-0.54457 2.16463,-0.8077 22.53457,-3.45518 15.35805,-1.99609 22.19855,-2.78578 22.54145,-2.60226 0.6105,0.32673 0.7358,0.71575 1.0596,3.28812 0.9658,7.67495 1.0364,21.54382 0.155,30.42252 -0.4899,4.93384 -0.6441,5.2446 -2.5791,5.19612 -0.6932,-0.0174 -10.68884,-1.2901 -22.21254,-2.82831 z"
           style="display:inline;fill:#f4a901"
           inkscape:connector-curvature="0" />
        <path
           id="path3408"
           d="m 963.15432,284.62582 c -14.83008,-11.40389 -17.56767,-13.61453 -17.64049,-14.24492 -0.0638,-0.55234 0.33523,-1.33922 1.53611,-3.02894 3.62759,-5.10427 6.99426,-10.87938 9.74246,-16.71205 1.18344,-2.51164 1.65449,-3.24698 2.16168,-3.37427 0.46968,-0.11789 6.11909,2.11248 20.49098,8.08977 10.91339,4.53889 20.19645,8.43555 20.62904,8.65926 1.2279,0.63498 1.2315,1.37385 0.02,4.12706 -3.70597,8.42165 -9.33651,18.28499 -14.93743,26.16684 -2.26104,3.18188 -2.90718,3.84231 -3.74498,3.82799 -0.49717,-0.009 -5.84213,-3.9639 -18.25726,-13.51074 z"
           style="display:inline;fill:#c7007b"
           inkscape:connector-curvature="0" />
        <path
           id="path3404"
           d="m 958.59092,165.20411 c -0.2338,-0.27255 -1.42392,-2.53211 -2.64472,-5.02125 -2.46039,-5.01658 -5.6906,-10.52462 -8.41837,-14.35467 -1.11802,-1.56983 -1.79043,-2.78608 -1.79051,-3.23867 -1.1e-4,-0.63593 2.14327,-2.3663 17.48557,-14.11628 12.75001,-9.76463 17.7173,-13.41961 18.34072,-13.49527 0.80536,-0.0977 0.97487,0.0611 2.91758,2.73341 5.72105,7.86978 12.00963,18.8761 15.83351,27.71216 0.8456,1.9538 0.8822,2.15594 0.497,2.74285 -0.313,0.47699 -5.37244,2.68273 -20.46786,8.92333 -11.02859,4.55935 -20.33906,8.36177 -20.68992,8.44982 -0.42591,0.1069 -0.77914,-0.005 -1.063,-0.33543 z"
           style="display:inline;fill:#008663"
           inkscape:connector-curvature="0" />
      </g>
      <path
         sodipodi:nodetypes="cccccccccccccccccccccccccccc"
         inkscape:connector-curvature="0"
         id="rect4252"
         d="m 524.55078,-206.83789 0,0.002 -0.55273,0 0,112.158206 c 0.0366,5.407402 -16.09161,12.208451 -19.99805,12.4375 -1.76693,0.0025 -1.53385,0.0018 -3.30078,0 -7.94991,-0.296903 -16.17458,-5.268079 -20.55078,-12.4375 l 0,-112.158206 -39.00782,0 0,112.158206 c 1.56358,24.196819 30.99819,44.067165 59.4336,47.68164 10e-4,1.62e-4 0.003,-1.62e-4 0.004,0 0.0182,0.0023 0.0365,0.0055 0.0547,0.0078 1.12661,-0.01328 2.293,-0.0026 3.4336,0 14.17712,-1.791055 28.60563,-7.628389 39.71093,-16.027344 11.09042,8.388522 25.4947,14.219677 39.6543,16.019531 0.001,1.6e-4 0.005,-1.7e-4 0.006,0 0.0182,0.002 0.0365,0.0048 0.0547,0.0078 1.12661,-0.0133 2.29299,-0.003 3.43359,0 28.45351,-3.59465 57.92755,-23.476053 59.49219,-47.689453 l 0,-112.16016 -39.00977,0 0,112.16016 c -4.3762,7.16942 -12.60087,12.1406 -20.55078,12.4375 -1.76693,0.003 -1.53385,0.002 -3.30078,0 -7.67476,-0.286634 -15.59512,-4.935509 -20.07226,-11.707032 0.15778,-37.554108 0.0742,-75.277528 0.0742,-112.890628 z"
         style="fill:#000000;fill-opacity:1;fill-rule:evenodd;stroke:none;stroke-width:1px;stroke-linecap:butt;stroke-linejoin:miter;stroke-opacity:1" />
      <path
         sodipodi:nodetypes="ccccccccccccc"
         inkscape:connector-curvature="0"
         id="rect4252-2"
         d="m 194.778,-51.945504 -1.3994,-91.252146 c -2.9695,-21.82587 -23.63273,-27.78315 -33.6178,-28.05911 -2.21926,-0.003 -1.92651,-0.002 -4.14577,0 -9.98506,0.27597 -27.73161,4.87255 -34.00564,28.05911 l -4.6e-4,91.250333 -37.99393,0 0,-104.249993 c 1.96384,-22.49071 34.28446,-48.51978 69.99925,-51.8794 4.20734,-0.24226 5.10938,0.31308 6.86039,0.2679 35.73753,3.34119 68.73216,29.10564 70.69734,51.61177 l 5e-5,104.251985 z"
         style="display:inline;fill:#000000;fill-opacity:1;fill-rule:evenodd;stroke:none;stroke-width:1px;stroke-linecap:butt;stroke-linejoin:miter;stroke-opacity:1" />
      <path
         sodipodi:nodetypes="csscccscscccccssc"
         inkscape:connector-curvature="0"
         id="rect4332"
         d="m 337.61719,-208.82617 c -45.95006,-1.2e-4 -83.19984,36.76259 -83.19922,82.11133 4.7e-4,45.347976 37.24993,82.109493 83.19922,82.109371 31.29216,8.7e-5 59.93793,-17.328194 74.13867,-44.847656 l -45.82813,0 c -8.37432,5.032817 -18.18101,7.724651 -28.21289,7.744141 -28.40916,-1.5e-5 -51.43935,-20.984016 -51.43945,-46.869136 9e-5,-25.88513 23.03028,-46.86913 51.43945,-46.86915 11.88751,0.0127 24.13275,2.3987 31.82402,10.08952 7.59109,7.59064 8.65056,14.65024 8.94314,25.87142 l -63.17145,0 0,28.04102 70.23242,0 c 17.8317,0.16985 25.94528,-5.05773 29.08813,-18.29344 3.1e-4,-22.67437 -3.12671,-40.17832 -18.18284,-55.03758 -15.05612,-14.85925 -35.85608,-24.04984 -58.83111,-24.04984 z"
         style="fill:#000000;fill-opacity:1;fill-rule:evenodd;stroke:none;stroke-width:1px;stroke-linecap:butt;stroke-linejoin:miter;stroke-opacity:1" />
    </g>
  </g>
  <g
     id="g3400"
     transform="translate(51.946726,489.52055)" />
</svg>
