<svg xmlns="http://www.w3.org/2000/svg" width="2300" height="510"><defs><clipPath id="a"><path d="M76.965 496.958h257.093v52.963H76.965v-52.963z"/></clipPath></defs><g clip-path="url(#a)" transform="matrix(9.26254 0 0 -9.26254 -704.105 5224.7)"><path d="M211.564 512.577a.535.535 0 00-.534-.53h-10.189a.532.532 0 00-.533.53v7.37c0 .293.237.53.533.53h10.19a.533.533 0 00.533-.53v-7.37zm-.442 10.111h-10.375a2.73 2.73 0 01-2.722-2.726v-7.402a2.729 2.729 0 012.722-2.723h10.375a2.732 2.732 0 012.725 2.723v7.402a2.733 2.733 0 01-2.725 2.726" fill="#a1a2a2"/><path d="M92.134 533.763v-9.524h-2.38v12.855h2.032l9.64-9.363v9.363h2.349v-12.855h-1.86l-9.78 9.524zM115.995 533.763v-9.524h-2.38v12.855h2.03l9.64-9.363v9.363h2.352v-12.855h-1.86l-9.782 9.524zM165.447 533.763v-9.524h-2.38v12.855h2.032l9.638-9.363v9.363h2.352v-12.855h-1.858l-9.784 9.524zM109.441 537.093h.44V524.24h-2.379v12.854h1.939zM143.843 537.093h.438v-2.21h-5.74v-10.644h-2.472v10.643h-5.736v2.211h13.51zM159.09 537.093h.446v-2.21h-10.2v-2.886h7.89v-2.21h-7.89v-3.334h10.2v-2.214H146.98v12.854h12.11zM190.321 526.453h-7.31v8.43h7.31c2.287 0 3.101-2.274 3.101-4.213 0-1.947-.814-4.217-3.1-4.217m3.904 8.762c-.929 1.226-2.307 1.878-3.973 1.878h-9.537v-12.855h9.537c1.666 0 3.044.651 3.973 1.878.871 1.143 1.334 2.713 1.334 4.554 0 1.831-.463 3.408-1.334 4.545M211.564 526.981a.534.534 0 00-.534-.529h-10.189a.531.531 0 00-.533.53v7.37a.53.53 0 00.533.527h10.19a.533.533 0 00.533-.528v-7.37zm-.442 10.112h-10.375a2.731 2.731 0 01-2.722-2.727v-7.404a2.73 2.73 0 012.722-2.724h10.375a2.732 2.732 0 012.725 2.724v7.404a2.734 2.734 0 01-2.725 2.727M288.462 515.23c2.47-.973 7.68-1.763 11.744-1.763 4.451 0 6.298 1.528 6.298 3.445 0 1.72-1.714 2.73-6.63 4.533-6.57 2.429-11.39 4.34-11.39 8.656 0 4.47 5.798 7.099 14.642 7.099 4.748 0 6.378-.3 9.395-.853l.021-4.241c-2.96.563-5.586 1.53-9.664 1.53-4.369 0-6.23-1.386-6.23-2.816 0-2.075 2.866-3.067 7.898-4.86 7.002-2.507 10.898-4.441 10.898-8.667 0-4.348-4.878-7.487-15.882-7.487-4.52 0-7.635.298-11.1.855v4.57zM265.038 533.452h-5.236v-19.823h5.236c8.04 0 13.11 3.437 13.11 9.871 0 6.432-5.07 9.952-13.11 9.952m14.06-21.67c-2.593-1.173-7.49-1.917-11.777-1.917h-16.368v27.276h16.368c4.286 0 9.184-.754 11.78-1.924 6.303-2.846 8.361-7.401 8.361-11.717 0-4.319-2.039-8.867-8.364-11.718" fill="#332d2b"/><path d="M239.48 524.79s7.635 1.223 7.635 5.977c0 4.647-8.13 6.548-16.782 6.548-7.808 0-12.94-.954-12.94-.954v-4.222c3.543.857 6.932 1.587 11.552 1.587 4.958 0 8.742-1.479 8.742-3.569 0-2.52-3.742-3.959-11.795-3.959h-3.7V522.4h3.437c8.483 0 13.307-1.276 13.307-4.39 0-2.78-4.31-4.469-9.684-4.469-4.686 0-8.973.998-12.45 1.963v-4.554c1.67-.287 6.101-1.177 14.354-1.177 9.142 0 17.097 2.94 17.097 8.122 0 4.346-5.51 6.896-8.774 6.896" fill="#d12228"/><path d="M317.665 513.58h-.86v.462h2.284v-.462h-.872v-2.563h-.552v2.563zM321.997 512.252c-.017.39-.04.862-.035 1.27h-.015a15.4 15.4 0 00-.358-1.158l-.445-1.311h-.422l-.403 1.293c-.117.386-.225.799-.305 1.176h-.009a67.808 67.808 0 00-.055-1.29l-.067-1.215h-.517l.203 3.026h.727l.396-1.216c.106-.355.202-.715.278-1.052h.014c.08.329.183.702.3 1.056l.416 1.212h.72l.175-3.026h-.539l-.059 1.235z" fill="#332d2b"/></g><path d="M49.93 225.958c-6.116-8.013-13.676-20.887-18.347-31.243-1.732-3.838-1.996-4.853-1.477-5.671.446-.704 47.344-19.957 48.13-19.76.523.132 1.269 1.367 3.077 5.098 3.495 7.208 7.007 13.154 11.367 19.244.887 1.239 1.128 1.834.981 2.42-.278 1.11-39.946 31.46-41.343 31.632-.882.108-1.127-.068-2.388-1.72z" fill="#05aae7"/><path d="M17.77 144.331c-1.68-1.856-2.327-26.035-1.03-38.434.492-4.697.747-5.585 1.687-5.883.582-.185 49.855 6.219 50.87 6.61 1.018.394 1.171 1.188.794 4.12-.446 3.467-.461 19.801-.022 23.43.358 2.969.072 3.939-1.257 4.253-.986.232-49.067 6.459-49.878 6.459-.364 0-.888-.25-1.164-.555z" fill="#a9c701"/><path d="M54.018 65.694c-12.6-5.255-23.126-9.735-23.39-9.955-.266-.22-.482-.67-.482-1.002 0-.923 4.646-10.692 7.69-16.168 3.172-5.708 6.244-10.643 9.878-15.87 3.052-4.388 3.935-5.402 4.705-5.4.312.002 9.072 6.536 19.469 14.522 22.72 17.45 21.58 16.533 21.574 17.395-.004.378-1.117 2.27-2.474 4.205-3.486 4.969-5.734 8.802-9.201 15.69-2.828 5.62-3.075 6-3.938 6.067-.61.047-8.64-3.148-23.83-9.484z" fill="#e5001d"/><path d="M767.738 141.175c-22.546-3.01-23.556-3.172-24.122-3.871-.438-.541-.546-1.015-.415-1.83.328-2.052.778-9.71.78-13.267 0-3.467-.456-11.224-.773-13.127-.109-.651.015-1.173.385-1.622.504-.611 2.431-.907 25.308-3.88 17.249-2.242 24.932-3.129 25.317-2.923.685.367.826.804 1.19 3.693 1.084 8.62 1.164 24.196.174 34.167-.55 5.542-.724 5.89-2.897 5.836-.778-.02-12.004-1.449-24.947-3.176z" fill="#f4a901"/><path d="M740.134 210.216c-16.656-12.807-19.73-15.29-19.812-15.998-.072-.62.376-1.504 1.725-3.402 4.074-5.733 7.855-12.219 10.942-18.77 1.329-2.82 1.858-3.646 2.427-3.789.528-.132 6.873 2.373 23.014 9.086 12.256 5.097 22.682 9.474 23.168 9.725 1.38.713 1.383 1.543.022 4.635-4.162 9.458-10.485 20.536-16.776 29.388-2.539 3.573-3.265 4.315-4.206 4.3-.558-.011-6.56-4.453-20.504-15.175z" fill="#c7007b"/><path d="M735.008 76.094c-.262-.306-1.599-2.844-2.97-5.64-2.763-5.633-6.39-11.82-9.454-16.12-1.256-1.764-2.011-3.13-2.011-3.638 0-.714 2.407-2.658 19.638-15.854 14.32-10.967 19.898-15.072 20.598-15.157.904-.11 1.095.07 3.277 3.07 6.425 8.839 13.488 21.2 17.782 31.124.95 2.194.991 2.421.558 3.08-.351.536-6.033 3.013-22.987 10.022-12.386 5.12-22.843 9.391-23.237 9.49-.478.12-.875-.006-1.194-.377z" fill="#008663"/><path d="M562.702 43.87v.003h-.553V156.03c.037 5.407-16.091 12.208-19.998 12.437-1.767.003-1.534.002-3.3 0-7.95-.296-16.175-5.268-20.551-12.437V43.873h-39.008V156.03c1.564 24.197 30.998 44.067 59.434 47.682h.004l.054.007c1.127-.013 2.293-.002 3.434 0 14.177-1.79 28.605-7.628 39.71-16.027 11.091 8.389 25.495 14.22 39.655 16.02h.006l.055.007c1.126-.013 2.293-.003 3.433 0 28.454-3.594 57.928-23.476 59.493-47.69V43.87h-39.01v112.16c-4.376 7.17-12.601 12.142-20.551 12.438-1.767.003-1.534.002-3.3 0-7.676-.286-15.596-4.935-20.073-11.707.158-37.554.074-75.277.074-112.89zM232.93 198.763l-1.4-91.252c-2.97-21.826-23.633-27.783-33.618-28.06-2.22-.002-1.926-.001-4.146 0-9.985.277-27.731 4.873-34.005 28.06v91.25h-37.995V94.511c1.964-22.49 34.285-48.52 70-51.88 4.207-.241 5.109.314 6.86.269 35.738 3.341 68.732 29.105 70.697 51.612v104.252zM375.769 41.882c-45.95 0-83.2 36.763-83.2 82.112 0 45.348 37.25 82.11 83.2 82.11 31.292 0 59.937-17.329 74.138-44.848H404.08c-8.374 5.032-18.18 7.724-28.213 7.744-28.409 0-51.44-20.984-51.44-46.87 0-25.885 23.031-46.869 51.44-46.869 11.888.013 24.133 2.4 31.824 10.09 7.591 7.59 8.65 14.65 8.943 25.871h-63.171v28.041h70.232c17.832.17 25.946-5.057 29.088-18.293 0-22.674-3.126-40.178-18.182-55.038-15.057-14.859-35.856-24.05-58.832-24.05z" fill-rule="evenodd"/></svg>
