<svg xmlns="http://www.w3.org/2000/svg" width="537.916" height="122.75"><path d="M165.387 61.68v8.762h-36.261V92.82h26.421v-6.201h-15.234V77.25h25.748v17.089c-.111 2.864-5.836 8.59-9.032 8.59h-29.504c-4.156 0-9.858-5.701-9.858-8.577V69.633c0-4.814 3.139-7.953 7.229-7.953h40.491zM193.481 92.586v9.704h-29.875l24.264-41.099h9.604l18.603 31.392V61.191h10.566l16.63 28.158 16.581-28.158h10.465v41.099h-10.465l-.05-20.878-12.133 20.878h-8.896l-12.082-20.929-.05 20.929h-17.844l-16.481-28.157-10.919 18.45zM274.211 61.191v41.099h42.159v-9.707h-30.735v-7.077h17.794v-8.997h-17.794v-6.471h30.735v-8.847zM358.496 77.352h10.514v-8.898s1.146-7.312-6.471-7.312h-33.158c-3.267 0-4.818 1.552-4.818 4.044v29.116c0 4.08 3.909 7.989 6.404 7.989h32.454s5.651.772 5.651-5.563V84.63h-10.539v8.021h-23.457V70.846h22.615v6.504l.805.002zM373.088 61.14h11.323v31.545h23.431V61.14h11.336v33.996s.72 7.28-9.693 7.28h-27.499s-8.897.809-8.897-7.28l-.001-33.996zM467.703 85.374v10.571c0 3.744-2.75 6.494-11.332 6.494h-33.153V61.142h38.84c3.574 0 5.646 2.071 5.646 5.662v11.307c0 .898-1.222 2.443-4.028 2.443.017.193 0 0 0 .784 1.884 0 4.027 2.143 4.027 4.036zm-10.515 6.511v-4.828c0-1.335-.315-1.65-.81-1.65h-21.821v7.279h21.029c1.165 0 1.602-.437 1.602-.801zm0-16.176V70.88c0-1.334-.315-1.649-.81-1.649h-21.821v7.279h21.029c1.165 0 1.602-.438 1.602-.801zM471.713 102.438h42.108v-9.804h-31.594v-7.178h17.794v-8.947h-17.794v-6.471h30.785V61.09h-41.299zM518.675 92.685v1.583h2.459v8.17h2.36v-8.101h2.426v-1.652zM526.764 102.438h2.392v-4.876l1.616 4.876h1.619l1.618-4.876v4.876h2.46v-9.753h-3.303l-1.55 5.627-1.618-5.627h-3.234zM126.4 19.083v30.684h5.662V27.222l12.132 22.545h6.42V19.083h-6.47v18.501l-9.706-18.501zM223.449 19.083v30.684h5.661V27.222l12.132 22.545h6.42V19.083h-6.47v18.501l-9.705-18.501zM183.813 19.083h6.458v30.684h-6.458zM274.346 19.083v4.853h9.705v25.831h6.538V23.936h9.639v-4.853zM330.221 30.39v.825h17.793v4.853h-17.793v6.471c0 .696 1.707 2.401 2.401 2.401h15.392v4.896h-17.793c-3.328 0-5.679-2.86-5.679-5.679V24.729c0-3.529 2.115-5.646 5.645-5.646h17.827v4.853h-14.558c-1.551 0-3.235 1.686-3.235 2.478M377.132 49.835h5.61V27.272l12.133 22.563h5.663V19.083h-5.612v18.501l-10.464-18.501h-7.33zM454.018 24.745v19.46c0 1.472-4.157 5.629-6.567 5.629h-17.745V19.083h16.127c5.014 0 8.185 3.171 8.185 5.662zm-5.727 17.81V26.411c0-.566-1.908-2.475-3.243-2.475h-9.682v21.838h9.706c.995 0 3.219-2.224 3.219-3.219zM506.558 26.363v16.128c0 4.65-3.494 8.137-8.848 8.137H489.509c-5.176 0-8.605-3.244-8.84-7.651-.008-.162-.008-.324-.008-.485V26.364v-.881c0-3.09 3.332-6.422 7.255-6.422h11.323c4.747-.001 7.319 2.563 7.319 7.302zm-6.511 15.392V27.172c0-1.189-2.07-3.26-3.235-3.26h-6.422c-1.666 0-3.283 1.618-3.283 3.13v14.712c0 2.305.881 3.187 2.45 3.187h7.304c1.569 0 3.186-1.617 3.186-3.186z"/><g><linearGradient id="b" gradientUnits="userSpaceOnUse" x1="24.944" y1="89.105" x2="101.916" y2="76.3"><stop offset=".037" stop-color="#fff"/><stop offset=".896" stop-color="#898cbf"/></linearGradient><path fill="url(#b)" d="M87.265 61.309v19.328l-34.256 19.754-33.994-19.754-1.528 1.037L53.009 102.5l35.803-20.699V60.414z"/></g><g><path fill="#7A7EAE" d="M87.265 80.553l1.547 1.115v.133l-.098.074-1.585-1.16.136-.078z"/></g><g fill="#639"><path d="M53.3 61.086L29.164 46.953l-.382.381 24.227 14.371z"/><path d="M53.222 61.086h.177l.032.199h-.314z"/></g><g><path fill="#120F22" d="M53.3 61.705v-.619l51.381-29.702.152.422z"/></g><g><linearGradient id="c" gradientUnits="userSpaceOnUse" x1="52.88" y1="90.374" x2="89.44" y2="90.374"><stop offset="0" stop-color="#140f2d"/><stop offset="1" stop-color="#3b3c75"/></linearGradient><path fill="url(#c)" d="M53.3 120.518l.345-17.727 35.662-20.553.133-22.008h-.628v21.571L53.009 102.5l-.129 18.018z"/></g><g><linearGradient id="d" gradientUnits="userSpaceOnUse" x1="62.955" y1="65.585" x2="105.734" y2="93.668"><stop offset="0" stop-color="#4c5284"/><stop offset="1" stop-color="#8789bc"/></linearGradient><path fill="url(#d)" d="M53.3 88.879V61.705l51.533-29.899v58.977L53.3 120.518v-17.877l35.795-20.612V60.25l-11.987 6.932v7.693z"/></g><g><linearGradient id="e" gradientUnits="userSpaceOnUse" x1="52.778" y1="119.889" x2="52.48" y2="100.817"><stop offset=".11" stop-color="#4c407e"/><stop offset=".89" stop-color="#669"/><stop offset="1" stop-color="#a7b3d9"/><stop offset="1" stop-color="#9ba5cd"/></linearGradient><path fill="url(#e)" d="M52.723 120.518h.286V102.5l-1.014-.594.728 18.612"/></g><g><path fill="#2D2868" d="M17.405 40.484l.219.185.088 40.852-.225.153-.136-.086.054-41.104"/></g><g><path fill="#453D76" d="M19.015 80.637l-1.528 1.037V40.532L53.3 19.853v2.037L19.051 41.714z"/></g><g><path fill="#453D76" d="M53.3 60.98v27.899l-.291.197v-28.16z"/></g><g><linearGradient id="f" gradientUnits="userSpaceOnUse" x1="6.173" y1="77.855" x2="64.814" y2="61.557"><stop offset=".233" stop-color="#669"/><stop offset=".724" stop-color="#a7b3d9"/></linearGradient><path fill="url(#f)" d="M28.782 47.334v27.738l24.227 14.004V61.705z"/><linearGradient id="g" gradientUnits="userSpaceOnUse" x1="7.186" y1="81.496" x2="65.826" y2="65.199"><stop offset=".233" stop-color="#669"/><stop offset=".991" stop-color="#a7b3d9"/></linearGradient><path fill="url(#g)" d="M52.723 120.225v-17.893L17.487 81.674V40.732L1.554 31.384v59.499l51.169 29.635z"/></g><g fill="#2D2868"><path d="M17.214 40.532h.273v41.142h-.273z"/><path d="M17.487 40.532L1.76 31.178l-.206.206 15.797 9.285z"/></g><g><linearGradient id="h" gradientUnits="userSpaceOnUse" x1="20.316" y1="84.258" x2="43.634" y2="96.735"><stop offset="0" stop-color="#6e70a9"/><stop offset=".969" stop-color="#514a8e"/></linearGradient><path fill="url(#h)" d="M52.723 102.332v.338L17.214 81.984v-.31h.273z"/></g><g><linearGradient id="i" gradientUnits="userSpaceOnUse" x1="54.954" y1="22.781" x2="69.759" y2="29.984"><stop offset=".037" stop-color="#9ea5d3"/><stop offset=".902" stop-color="#7675ae"/></linearGradient><path fill="url(#i)" d="M53.3 19.853l22.898 13.386v2.001L53.3 21.89z"/></g><g><path fill="#484592" d="M76.198 33.239v2.001l15.861-9.301v-1.891z"/></g><g><linearGradient id="j" gradientUnits="userSpaceOnUse" x1="1.76" y1="31.179" x2="1.76" y2="31.179"><stop offset=".233" stop-color="#669"/><stop offset=".991" stop-color="#a7b3d9"/></linearGradient><linearGradient id="k" gradientUnits="userSpaceOnUse" x1="48.872" y1="5.816" x2="45.38" y2="44.617"><stop offset="0" stop-color="#aaacd2"/><stop offset=".626" stop-color="#fcfafb"/></linearGradient><path fill="url(#k)" d="M53.136 1.482l38.923 22.566-15.861 9.191L53.3 19.853 17.487 40.532 1.76 31.178z"/><linearGradient id="l" gradientUnits="userSpaceOnUse" x1="70.329" y1="1.329" x2="66.837" y2="40.131"><stop offset=".674" stop-color="#aaacd2"/><stop offset="1" stop-color="#fcfafb"/></linearGradient><path fill="url(#l)" d="M29.164 46.953L52.99 33.494l22.699 12.813 27.655-15.896 1.337.973L53.3 61.086z"/></g></svg>
