<svg xmlns="http://www.w3.org/2000/svg" version="1.0" width="600" height="84"><path d="M291.266 75.394c0 .691-.584 1.235-1.266 1.235H265.82c-.698 0-1.27-.544-1.27-1.235V57.88c0-.695.572-1.263 1.27-1.263H290c.682 0 1.266.568 1.266 1.263m-1.054-6.507h-24.625c-3.569 0-6.463 2.92-6.463 6.48V75.44c0 3.512 2.894 6.46 6.463 6.46h24.625c3.555 0 6.45-2.948 6.45-6.46V57.854c0-3.56-2.895-6.48-6.45-6.48" fill="#939598"/><path d="M2.01 17.165h4.811l22.852 22.237V17.165h5.59c-.01.322-.01 30.174 0 30.547h-4.428L7.644 25.079v22.633H2.01a11580 11580 0 010-30.547M64.28 25.079v22.633h-5.664V17.165h4.831l22.889 22.237V17.165h5.604v30.547H87.51M181.732 25.079v22.633h-5.637V17.165h4.814l22.895 22.237V17.165h5.6v30.547h-4.414M48.709 17.165h1.057v30.547h-5.66V17.165M130.425 17.165h1.047v5.241h-13.638v25.306h-5.866V22.406H98.336v-5.24M166.63 17.165h1.07v5.241h-24.237l.01 6.876h18.745v5.248h-18.745l-.01 7.914H167.7v5.268h-29.832V17.165M240.837 42.445h-17.382V22.407h17.382c5.423 0 7.357 5.419 7.357 10.019 0 4.6-1.934 10.019-7.357 10.019m9.26-20.804c-2.205-2.917-5.476-4.475-9.417-4.475h-22.674v30.547h22.674c3.941 0 7.212-1.558 9.418-4.452 2.085-2.723 3.17-6.48 3.17-10.835s-1.085-8.089-3.17-10.785M291.266 41.184A1.28 1.28 0 01290 42.446H265.82c-.698 0-1.27-.57-1.27-1.262v-17.49c0-.692.572-1.286 1.27-1.286H290c.682 0 1.266.594 1.266 1.286m-1.054-6.53h-24.625c-3.569 0-6.463 2.92-6.463 6.48V41.23c0 3.565 2.894 6.483 6.463 6.483h24.625c3.555 0 6.45-2.918 6.45-6.483V23.644c0-3.56-2.895-6.48-6.45-6.48M392.93 69.012c5.855 2.323 18.238 4.18 27.9 4.18 10.57 0 14.942-3.613 14.942-8.162 0-4.083-4.063-6.484-15.74-10.761-15.61-5.762-27.055-10.318-27.055-20.555 0-10.613 13.769-16.895 34.787-16.895 11.278 0 15.14.742 22.315 2.051l.036 10.07c-7.02-1.337-13.248-3.637-22.942-3.637-10.391 0-14.813 3.287-14.803 6.705 0 4.919 6.809 7.27 18.755 11.523 16.617 5.963 25.907 10.563 25.907 20.582-.034 10.338-11.607 17.785-37.739 17.785-10.734 0-18.134-.715-26.363-2.028M337.245 25.748h-12.463v47.07h12.463c19.128 0 31.191-8.163 31.191-23.446 0-15.287-12.063-23.624-31.191-23.624m33.43 51.474c-6.167 2.77-17.797 4.526-28.004 4.526H303.73v-64.78h38.94c10.204 0 21.838 1.803 28.006 4.573 14.988 6.779 19.877 17.59 19.877 27.83 0 10.265-4.849 21.076-19.877 27.851M494.038 46.947c12.413 0 22.489-10.069 22.489-22.488C516.527 12.069 506.45 2 494.037 2c-12.415 0-22.468 10.07-22.468 22.459 0 12.42 10.053 22.488 22.469 22.488m3.368-6.382h-6.722V20.057h6.722v20.508zm-3.398-31.957c2.243 0 4.032 1.682 4.032 3.807s-1.79 3.808-4.032 3.808c-2.183 0-3.956-1.706-3.956-3.808s1.773-3.807 3.956-3.807M536.659 81.9h-8.384l28.888-44.377h8.378"/><path d="M557.83 81.9h8.286l-28.891-44.377h-8.28M570.633 37.522v32.997s-.044 11.38 11.372 11.38H598v-6.753h-15.458s-4.667-.148-4.667-5.244v-32.38M460.239 81.032h-1.263v-4.95h-1.816v-1.06h4.892v1.06h-1.813M469.085 81.032h-1.169v-5.046h-.017l-1.124 5.046h-1.233l-1.094-5.046h-.02v5.046h-1.169v-6.01h1.82l1.088 4.724h.02l1.071-4.724h1.827"/></svg>
