<?xml version="1.0" encoding="UTF-8" standalone="no"?>
<!-- Created with Inkscape (http://www.inkscape.org/) -->
<svg
   xmlns:svg="http://www.w3.org/2000/svg"
   xmlns="http://www.w3.org/2000/svg"
   version="1.0"
   width="600"
   height="84"
   id="svg2742">
  <defs
     id="defs2744">
    <clipPath
       id="clipPath2550">
      <path
         d="M 0,0 L 311.81,0 L 311.81,595.469 L 0,595.469 L 0,0 z"
         id="path2552" />
    </clipPath>
    <clipPath
       id="clipPath2586">
      <path
         d="M 0,0 L 311.81,0 L 311.81,595.469 L 0,595.469 L 0,0 z"
         id="path2588" />
    </clipPath>
    <clipPath
       id="clipPath2622">
      <path
         d="M 0,0 L 311.81,0 L 311.81,595.469 L 0,595.469 L 0,0 z"
         id="path2624" />
    </clipPath>
  </defs>
  <g
     transform="translate(-63.341648,-245.56718)"
     id="layer1">
    <g
       id="g2462">
      <path
         d="M 354.6075,320.96082 C 354.6075,321.65247 354.02329,322.1964 353.3417,322.1964 L 329.16064,322.1964 C 328.46227,322.1964 327.89149,321.65247 327.89149,320.96082 L 327.89149,303.44785 C 327.89149,302.75284 328.46227,302.18541 329.16064,302.18541 L 353.3417,302.18541 C 354.02329,302.18541 354.6075,302.75284 354.6075,303.44785 M 353.55323,296.94092 L 328.92897,296.94092 C 325.3599,296.94092 322.46569,299.86199 322.46569,303.42099 L 322.46569,321.00783 C 322.46569,324.51982 325.3599,327.46775 328.92897,327.46775 L 353.55323,327.46775 C 357.10887,327.46775 360.00308,324.51982 360.00308,321.00783 L 360.00308,303.42099 C 360.00308,299.86199 357.10887,296.94092 353.55323,296.94092"
         id="path2556"
         style="fill:#939598;fill-opacity:1;fill-rule:nonzero;stroke:none" />
      <path
         d="M 65.351722,262.73221 L 70.163088,262.73221 L 93.014559,284.96925 L 93.014559,262.73221 L 98.604876,262.73221 C 98.594804,263.05453 98.594804,292.90649 98.604876,293.27918 L 94.176271,293.27918 L 70.985687,270.64595 L 70.985687,293.27918 L 65.351722,293.27918 C 65.338292,292.90649 65.338292,263.05453 65.351722,262.73221"
         id="path2560"
         style="fill:#000000;fill-opacity:1;fill-rule:nonzero;stroke:none" />
      <path
         d="M 127.62181,270.64598 L 127.62181,293.27921 L 121.95763,293.27921 L 121.95763,262.73224 L 126.78914,262.73224 L 149.67754,284.96928 L 149.67754,262.73224 L 155.28129,262.73224 L 155.28129,293.27921 L 150.85268,293.27921"
         id="path2564"
         style="fill:#000000;fill-opacity:1;fill-rule:nonzero;stroke:none" />
      <path
         d="M 245.07354,270.64598 L 245.07354,293.27921 L 239.43622,293.27921 L 239.43622,262.73224 L 244.25094,262.73224 L 267.14606,284.96928 L 267.14606,262.73224 L 272.74645,262.73224 L 272.74645,293.27921 L 268.33127,293.27921"
         id="path2568"
         style="fill:#000000;fill-opacity:1;fill-rule:nonzero;stroke:none" />
      <path
         d="M 112.05017,262.73224 L 113.1078,262.73224 L 113.1078,293.27921 L 107.44697,293.27921 L 107.44697,262.73224"
         id="path2572"
         style="fill:#000000;fill-opacity:1;fill-rule:nonzero;stroke:none" />
      <path
         d="M 193.76617,262.73224 L 194.81372,262.73224 L 194.81372,267.97337 L 181.17537,267.97337 L 181.17537,293.27921 L 175.30973,293.27921 L 175.30973,267.97337 L 161.67808,267.97337 L 161.67808,262.73224"
         id="path2576"
         style="fill:#000000;fill-opacity:1;fill-rule:nonzero;stroke:none" />
      <path
         d="M 229.97128,262.73224 L 231.04234,262.73224 L 231.04234,267.97337 L 206.8042,267.97337 L 206.81427,274.84963 L 225.55946,274.84963 L 225.55946,280.09748 L 206.81427,280.09748 L 206.8042,288.01122 L 231.04234,288.01122 L 231.04234,293.27921 L 201.21052,293.27921 L 201.21052,262.73224"
         id="path2580"
         style="fill:#000000;fill-opacity:1;fill-rule:nonzero;stroke:none" />
      <g
         transform="matrix(3.3575479,0,0,-3.3575479,304.17914,288.01186)"
         id="g2590"
         style="fill:#000000">
        <path
           d="M 0,0 L -5.177,0 L -5.177,5.968 L 0,5.968 C 1.615,5.968 2.191,4.354 2.191,2.984 C 2.191,1.614 1.615,0 0,0 M 2.758,6.196 C 2.101,7.065 1.127,7.529 -0.047,7.529 L -6.8,7.529 L -6.8,-1.569 L -0.047,-1.569 C 1.127,-1.569 2.101,-1.105 2.758,-0.243 C 3.379,0.568 3.702,1.687 3.702,2.984 C 3.702,4.281 3.379,5.393 2.758,6.196"
           id="path2592"
           style="fill:#000000;fill-opacity:1;fill-rule:nonzero;stroke:none" />
      </g>
      <g
         transform="matrix(3.3575479,0,0,-3.3575479,354.6075,286.75077)"
         id="g2594"
         style="fill:#000000">
        <path
           d="M 0,0 C 0,-0.206 -0.174,-0.376 -0.377,-0.376 L -7.579,-0.376 C -7.787,-0.376 -7.957,-0.206 -7.957,0 L -7.957,5.209 C -7.957,5.415 -7.787,5.592 -7.579,5.592 L -0.377,5.592 C -0.174,5.592 0,5.415 0,5.209 M -0.314,7.154 L -7.648,7.154 C -8.711,7.154 -9.573,6.284 -9.573,5.224 L -9.573,-0.014 C -9.573,-1.076 -8.711,-1.945 -7.648,-1.945 L -0.314,-1.945 C 0.745,-1.945 1.607,-1.076 1.607,-0.014 L 1.607,5.224 C 1.607,6.284 0.745,7.154 -0.314,7.154"
           id="path2596"
           style="fill:#000000;fill-opacity:1;fill-rule:nonzero;stroke:none" />
      </g>
      <g
         transform="matrix(3.3575479,0,0,-3.3575479,456.27136,314.57879)"
         id="g2598"
         style="fill:#000000">
        <path
           d="M 0,0 C 1.744,-0.692 5.432,-1.245 8.31,-1.245 C 11.458,-1.245 12.76,-0.169 12.76,1.186 C 12.76,2.402 11.55,3.117 8.072,4.391 C 3.423,6.107 0.014,7.464 0.014,10.513 C 0.014,13.674 4.115,15.545 10.375,15.545 C 13.734,15.545 14.884,15.324 17.021,14.934 L 17.032,11.935 C 14.941,12.333 13.086,13.018 10.199,13.018 C 7.104,13.018 5.787,12.039 5.79,11.021 C 5.79,9.556 7.818,8.856 11.376,7.589 C 16.325,5.813 19.092,4.443 19.092,1.459 C 19.082,-1.62 15.635,-3.838 7.852,-3.838 C 4.655,-3.838 2.451,-3.625 0,-3.234"
           id="path2600"
           style="fill:#000000;fill-opacity:1;fill-rule:nonzero;stroke:none" />
      </g>
      <g
         transform="matrix(3.3575479,0,0,-3.3575479,400.58643,271.31511)"
         id="g2602"
         style="fill:#000000">
        <path
           d="M 0,0 L -3.712,0 L -3.712,-14.019 L 0,-14.019 C 5.697,-14.019 9.29,-11.588 9.29,-7.036 C 9.29,-2.483 5.697,0 0,0 M 9.957,-15.331 C 8.12,-16.156 4.656,-16.679 1.616,-16.679 L -9.982,-16.679 L -9.982,2.615 L 1.616,2.615 C 4.655,2.615 8.12,2.078 9.957,1.253 C 14.421,-0.766 15.877,-3.986 15.877,-7.036 C 15.877,-10.093 14.433,-13.313 9.957,-15.331"
           id="path2604"
           style="fill:#000000;fill-opacity:1;fill-rule:nonzero;stroke:none" />
      </g>
      <g
         transform="matrix(3.3575479,0,0,-3.3575479,557.37955,292.51467)"
         id="g2606"
         style="fill:#000000">
        <path
           d="M 0,0 C 3.697,0 6.698,2.999 6.698,6.698 C 6.698,10.388 3.697,13.387 0,13.387 C -3.698,13.387 -6.692,10.388 -6.692,6.698 C -6.692,2.999 -3.698,0 0,0 M 1.003,1.901 L -0.999,1.901 L -0.999,8.009 L 1.003,8.009 L 1.003,1.901 z M -0.009,11.419 C 0.659,11.419 1.192,10.918 1.192,10.285 C 1.192,9.652 0.659,9.151 -0.009,9.151 C -0.659,9.151 -1.187,9.659 -1.187,10.285 C -1.187,10.911 -0.659,11.419 -0.009,11.419"
           id="path2608"
           style="fill:#000000;fill-opacity:1;fill-rule:nonzero;stroke:none" />
      </g>
      <path
         d="M 600.00059,327.46644 L 591.61679,327.46644 L 620.50514,283.08973 L 628.88222,283.08973"
         id="path2612"
         style="fill:#000000;fill-opacity:1;fill-rule:nonzero;stroke:none" />
      <path
         d="M 621.17159,327.46644 L 629.45802,327.46644 L 600.56632,283.08973 L 592.28661,283.08973"
         id="path2616"
         style="fill:#000000;fill-opacity:1;fill-rule:nonzero;stroke:none" />
      <g
         transform="matrix(3.3575479,0,0,-3.3575479,633.97428,283.08869)"
         id="g2626"
         style="fill:#000000">
        <path
           d="M 0,0 L 0,-9.828 C 0,-9.828 -0.013,-13.217 3.387,-13.217 L 8.151,-13.217 L 8.151,-11.206 L 3.547,-11.206 C 3.547,-11.206 2.157,-11.162 2.157,-9.644 L 2.157,0"
           id="path2628"
           style="fill:#000000;fill-opacity:1;fill-rule:nonzero;stroke:none" />
      </g>
      <path
         d="M 523.58043,326.59916 L 522.31799,326.59916 L 522.31799,321.65013 L 520.50156,321.65013 L 520.50156,320.58915 L 525.39351,320.58915 L 525.39351,321.65013 L 523.58043,321.65013"
         id="path2632"
         style="fill:#000000;fill-opacity:1;fill-rule:nonzero;stroke:none" />
      <path
         d="M 532.42623,326.59916 L 531.2578,326.59916 L 531.2578,321.55277 L 531.24102,321.55277 L 530.11624,326.59916 L 528.88402,326.59916 L 527.78946,321.55277 L 527.76931,321.55277 L 527.76931,326.59916 L 526.60088,326.59916 L 526.60088,320.58915 L 528.42068,320.58915 L 529.50852,325.31322 L 529.52867,325.31322 L 530.59972,320.58915 L 532.42623,320.58915"
         id="path2636"
         style="fill:#000000;fill-opacity:1;fill-rule:nonzero;stroke:none" />
    </g>
  </g>
</svg>
