<?xml version="1.0" encoding="UTF-8"?>
<!-- Generator: Adobe Illustrator 19.2.1, SVG Export Plug-In . SVG Version: 6.00 Build 0)  -->
<svg id="Horizontal" width="1200" height="426" version="1.1" xml:space="preserve" xmlns="http://www.w3.org/2000/svg"><title>logo_oculus_horizontal</title>
<style type="text/css">
	.st0{fill:#1C1E20;}
</style>
<g transform="matrix(1.4152 0 0 1.4152 -761.3 -550.18)" fill="#1c1e20">
	<path class="st0" d="m956.2 507.7c-8.8 0-17.4 3.3-23.7 9.6s-9.5 15-9.5 23.7c0 8.8 3.1 17.4 9.3 23.8s14.8 9.7 23.6 9.7 17.4-3.3 23.7-9.6 9.5-15 9.5-23.7c0-8.8-3.1-17.4-9.3-23.8-6.3-6.3-14.8-9.7-23.6-9.7zm17.6 37.3c-0.2 1.2-0.6 2.4-1 3.6-0.4 1.1-1 2.2-1.6 3.2s-1.3 1.9-2.1 2.7-1.7 1.5-2.6 2.2c-1 0.6-2 1.2-3.1 1.6-1.1 0.5-2.3 0.8-3.5 1s-2.5 0.3-3.7 0.3c-1.3 0-2.5-0.1-3.7-0.4-1.2-0.2-2.4-0.6-3.5-1s-2.1-1-3.1-1.6c-0.9-0.6-1.8-1.4-2.6-2.2s-1.5-1.7-2.1-2.7-1.2-2.1-1.6-3.2c-0.5-1.2-0.8-2.4-1-3.6-0.2-1.3-0.3-2.6-0.3-3.9s0.1-2.6 0.4-3.9c0.2-1.2 0.6-2.4 1-3.6 0.4-1.1 1-2.2 1.6-3.2s1.3-1.9 2.1-2.7 1.7-1.5 2.6-2.2c1-0.6 2-1.2 3.1-1.6 1.1-0.5 2.3-0.8 3.5-1s2.5-0.3 3.7-0.3c1.3 0 2.5 0.1 3.7 0.4 1.2 0.2 2.4 0.6 3.5 1s2.1 1 3.1 1.6c0.9 0.6 1.8 1.4 2.6 2.2s1.5 1.7 2.1 2.7 1.2 2.1 1.6 3.2c0.5 1.2 0.8 2.4 1 3.6 0.2 1.3 0.3 2.6 0.3 3.9-0.1 1.4-0.2 2.6-0.4 3.9z"/>
	<path class="st0" d="m832.2 482c-8.7-7-18.8-11.9-29.7-14.5-6.2-1.5-12.5-2.2-18.9-2.4-4.7-0.2-9.5-0.1-14.2-0.1h-67.3c-4.7 0-9.5 0-14.2 0.1-6.4 0.2-12.6 0.9-18.9 2.4-10.9 2.6-20.9 7.5-29.6 14.5-17.6 14.1-27.8 35.4-27.8 58s10.2 43.9 27.8 58c8.7 7 18.8 11.9 29.7 14.5 6.2 1.5 12.5 2.2 18.9 2.4 4.7 0.2 9.5 0.1 14.2 0.1h67.3c4.7 0 9.5 0 14.2-0.1 6.4-0.2 12.6-0.9 18.9-2.4 10.9-2.6 20.9-7.5 29.6-14.5 17.6-14.1 27.8-35.4 27.8-58s-10.2-43.9-27.8-58zm-32.9 78.2c-3.3 2.3-7 3.7-10.9 4.3s-7.9 0.5-11.8 0.5h-81.5c-4 0-7.9 0.1-11.8-0.5-4-0.6-7.6-2-10.9-4.3-6.6-4.6-10.6-12.1-10.6-20.2s4-15.6 10.6-20.2c3.3-2.3 7-3.7 10.9-4.3s7.9-0.5 11.8-0.5h81.5c4 0 7.9-0.1 11.8 0.5 4 0.6 7.6 2 10.9 4.3 6.6 4.6 10.6 12.1 10.6 20.2 0.1 8.1-3.9 15.6-10.6 20.2z"/>
	<path class="st0" d="m1225.8 539.2c0 1.8 0 3.6-0.1 5.3-0.1 1.1-0.2 2.3-0.4 3.4-0.4 2.1-1.1 4.1-2.2 5.9-2.8 4.4-7.8 6.6-12.8 6.7-5.1 0.1-10-2-12.7-6.6-1.1-1.9-1.8-3.9-2.2-6-0.5-2.8-0.7-5.8-0.7-8.6 0-1.9-0.1-3.7-0.1-5.6v-9.6-15.2h-15.2v25.9c0 2.5 0 5 0.1 7.5 0.1 1.8 0.1 3.7 0.3 5.5 0.4 4.3 1.2 8.5 3.1 12.5 4 8.1 11.8 12.8 20.5 13.8 4.3 0.5 8.7 0.1 12.8-1.1 4-1.2 8.2-3.2 11.1-6.3 0.1 2 0.3 4.2 0.4 6.2h13.3v-64h-15.2v30.3z"/>
	<path class="st0" d="m1307.4 547.9c-2.2-6.2-7.6-10-13.3-12.2-3.2-1.3-6.5-2-9.8-2.8-1.5-0.3-2.9-0.6-4.4-1-1.2-0.3-2.5-0.7-3.7-1.2-1.3-0.6-2.6-1.3-3.5-2.4-0.8-0.9-1.2-2.1-1-3.3 0.2-1.4 1-2.6 2.1-3.5 0.8-0.6 1.6-1.1 2.5-1.4 1.2-0.5 2.4-0.7 3.6-0.9 2.5-0.3 5-0.1 7.4 0.4 3.7 0.8 7.1 2.2 10.3 4.2 2.5-3.5 5.1-6.9 7.6-10.4-5.1-3.7-10.8-6-17-7-3.5-0.5-7-0.6-10.4-0.1-2.7 0.4-5.3 1-7.8 2.1-3.3 1.4-6.3 3.4-8.6 6.3-1.7 2-2.9 4.4-3.6 6.9-0.9 3.1-0.9 6.4 0.1 9.6 0.9 2.9 2.6 5.3 4.8 7.3 4.7 4.1 11.4 5.6 17.1 6.8 2 0.4 4 0.8 6 1.4 1.6 0.5 3.3 1 4.7 1.9 1.1 0.7 2.2 1.6 2.9 2.7 0.6 1 0.9 2.1 0.8 3.2s-0.5 2-1.2 2.9c-0.8 1-1.8 1.7-2.9 2.3-1.5 0.7-3.1 1.1-4.7 1.3-2.2 0.3-4.6 0.2-6.8-0.1-2.5-0.3-4.8-0.9-7.2-1.7-3.6-1.3-6.7-3.2-9.7-5.5-2.7 3.6-5.4 7.2-8.1 10.8 4.8 4 10.3 6.9 16.3 8.7 3.3 0.9 6.7 1.5 10.2 1.6 2.8 0.1 5.5-0.1 8.3-0.5 3.5-0.6 7-1.7 10.1-3.6 2.3-1.4 4.2-3.1 5.9-5.2 2.1-2.7 3.4-5.9 3.9-9.3 0.3-2.8 0.1-5.6-0.9-8.3z"/>
	<path class="st0" d="m1038.3 559c-3.5 0.8-7.3 0.7-10.8-0.4s-6.5-3.3-8.7-6.3c-2.1-3-3.2-6.6-3.4-10.2s0.5-7.4 2.2-10.6c1.8-3.4 4.4-5.7 7.9-7.2 1.5-0.6 3-1.1 4.6-1.3 2.1-0.3 4-0.4 6.1-0.1 3.7 0.4 7.1 1.8 10.2 3.8 3.1-3.9 6.1-7.8 9.2-11.6-5.3-4.2-11.3-6.6-17.9-7.3-6.5-0.7-13.2 0.3-19.2 3.1-6 2.9-10.8 7.4-14 13.3-3.1 5.8-4.4 12.5-4.1 19s2.3 13 6.1 18.4c3.8 5.5 9.2 9.4 15.5 11.5 6.2 2.1 13 2.5 19.4 1.1s12.4-4.5 17-9.3c-3.5-3.6-6.9-7.2-10.4-10.8-2.9 2.4-6.2 4.1-9.7 4.9z"/>
	<rect class="st0" x="1147" y="475" width="16" height="98"/>
	<path class="st0" d="m1114.2 539.2c0 1.8 0 3.6-0.1 5.3-0.1 1.1-0.2 2.3-0.4 3.4-0.4 2.1-1.1 4.1-2.2 5.9-2.8 4.4-7.8 6.6-12.8 6.7-5.1 0.1-10-2-12.7-6.6-1.1-1.9-1.8-3.9-2.2-6-0.5-2.8-0.7-5.8-0.7-8.6 0-1.9-0.1-3.7-0.1-5.6v-9.6-15.2h-15.2v25.9c0 2.5 0 5 0.1 7.5 0.1 1.8 0.1 3.7 0.3 5.5 0.4 4.3 1.2 8.5 3.1 12.5 4 8.1 11.8 12.8 20.5 13.8 4.3 0.5 8.7 0.1 12.8-1.1 4-1.2 8.2-3.2 11.1-6.3 0.1 2 0.3 4.2 0.4 6.2h12.9v-64h-14.8v30.3z"/>
</g>
</svg>
