<?xml version="1.0" encoding="utf-8"?>
<!-- Generator: Adobe Illustrator 16.0.0, SVG Export Plug-In . SVG Version: 6.00 Build 0)  -->
<!DOCTYPE svg PUBLIC "-//W3C//DTD SVG 1.1//EN" "http://www.w3.org/Graphics/SVG/1.1/DTD/svg11.dtd">
<svg version="1.1" id="レイヤー_1" xmlns="http://www.w3.org/2000/svg" xmlns:xlink="http://www.w3.org/1999/xlink" x="0px"
	 y="0px" width="600px" height="200px" viewBox="0 0 600 200" enable-background="new 0 0 600 200" xml:space="preserve">
<g>
	<g>
		<g>
			<g>
				<path fill="#E72A0F" d="M103.176,164.692c-35.738,0-64.819-29.075-64.819-64.819c0-35.744,29.081-64.823,64.819-64.823
					c35.737,0,64.813,29.079,64.813,64.823C167.989,135.617,138.913,164.692,103.176,164.692z M103.176,46.033
					c-29.693,0-53.844,24.15-53.844,53.841c0,29.693,24.151,53.847,53.844,53.847c29.689,0,53.841-24.154,53.841-53.847
					C157.017,70.183,132.866,46.033,103.176,46.033z"/>
			</g>
		</g>
		<g>
			<g>
				<path fill="#E72A0F" d="M236.475,164.692c-31.651,0-57.408-25.751-57.408-57.397V44.251c0-3.027,2.465-5.49,5.495-5.49
					c3.023,0,5.482,2.463,5.482,5.49v63.044c0,25.597,20.829,46.426,46.43,46.426c25.6,0,46.426-20.829,46.426-46.426V44.251
					c0-3.027,2.457-5.49,5.489-5.49c3.021,0,5.487,2.463,5.487,5.49v63.044C293.876,138.941,268.128,164.692,236.475,164.692z"/>
			</g>
		</g>
		<g>
			<g>
				<path fill="#E72A0F" d="M367.219,162.064c-3.021,0-5.488-2.459-5.488-5.482v-28.371l-0.059-0.002
					c-29.073-2.818-51.85-27.884-51.85-57.075V44.251c0-3.027,2.455-5.49,5.482-5.49c3.026,0,5.488,2.463,5.488,5.49v26.883
					c0,25.603,20.822,46.429,46.426,46.429c25.599,0,46.424-20.826,46.424-46.429V44.251c0-3.027,2.466-5.49,5.488-5.49
					c3.025,0,5.484,2.463,5.484,5.49v26.883c0,29.19-22.773,54.264-51.853,57.075l-0.06,0.002v28.371
					C372.703,159.605,370.244,162.064,367.219,162.064z"/>
			</g>
		</g>
		<g>
			<g>
				<path fill="#E72A0F" d="M545.608,162.064c-3.024,0-5.485-2.459-5.485-5.482v-33.611h-92.856v33.611
					c0,3.023-2.462,5.482-5.483,5.482c-3.025,0-5.488-2.459-5.488-5.482V96.166c0-31.649,25.748-57.405,57.396-57.405
					c31.653,0,57.403,25.755,57.403,57.405v60.417C551.094,159.605,548.637,162.064,545.608,162.064z M540.123,111.996V96.166
					c0-25.6-20.831-46.427-46.433-46.427c-25.599,0-46.424,20.827-46.424,46.427v15.831H540.123z"/>
			</g>
		</g>
	</g>
	<g display="none">
		<path display="inline" fill="#E72A0F" d="M556.856,159.196h-1.294v-0.623h3.298v0.623h-1.282v3.013h-0.722V159.196z
			 M559.476,158.573h0.649l1.101,1.766l1.081-1.766h0.694l0.112,3.636h-0.67l-0.07-2.648l-1.016,1.688h-0.295l-0.979-1.603
			l-0.076,2.563h-0.626L559.476,158.573z"/>
	</g>
</g>
</svg>
