<svg xmlns="http://www.w3.org/2000/svg" version="1.0" width="441.6" height="326.4" viewBox="0 0 4.6 3.4" id="svg2484" xml:space="preserve"><defs id="defs2486"><style type="text/css" id="style2488"/></defs><g id="Layer_x0020_1"><g id="_59007160"><path d="M4.41 3.36a.118.118 0 00.119-.118v-.75a.118.118 0 00-.118-.118H.174a.118.118 0 00-.118.118v.75c0 .065.053.118.118.118h4.237z" id="_120344872" fill="#000"/><path id="_120360776" fill="#fff" d="M.228 3.243v-.73h.07v.73h-.07z"/><path d="M.497 3.243h-.06v-.525h.06v.073c.049-.051.096-.087.17-.087.063 0 .122.02.16.075.025.038.026.077.026.12v.344H.792v-.342c0-.094-.038-.142-.136-.142a.153.153 0 00-.146.102.271.271 0 00-.013.1v.282z" id="_60552680" fill="#fff"/><path d="M1.144 3.246c-.014.003-.04.012-.07.012-.06 0-.093-.027-.093-.105V2.77H.907v-.05H.98v-.147h.06v.146h.099v.051H1.04v.36c0 .052.002.074.053.074a.21.21 0 00.05-.007v.05z" id="_120205312" fill="#fff"/><path d="M1.238 2.995c-.001.114.06.208.176.208.08 0 .141-.044.16-.12h.067c-.03.099-.093.175-.227.175-.168 0-.241-.12-.241-.275 0-.153.091-.279.241-.279.144 0 .232.103.231.291h-.407zm.343-.05c0-.103-.057-.186-.167-.186-.107 0-.164.086-.176.185h.343z" id="_59501640" fill="#fff"/><path d="M1.787 3.243h-.06v-.525h.06v.099h.002c.034-.084.084-.113.172-.113v.066c-.137-.003-.174.098-.174.216v.257z" id="_58461464" fill="#fff"/><path d="M2.262 2.937a.305.305 0 00.08-.017c.02-.01.022-.036.022-.055 0-.062-.036-.106-.13-.106-.085 0-.143.027-.154.118h-.062c.01-.123.102-.173.216-.173.107 0 .19.042.19.163v.286c0 .048.013.06.065.04v.048a.168.168 0 01-.048.01.12.12 0 01-.027-.002c-.04-.007-.048-.042-.049-.079a.258.258 0 01-.196.088c-.092 0-.175-.05-.175-.151 0-.089.06-.142.183-.159l.085-.01zm.102.03a.5.5 0 01-.157.03c-.092.007-.148.04-.148.112 0 .064.056.094.113.094.097 0 .192-.047.192-.153v-.082z" id="_59080488" fill="#fff"/><path d="M2.915 2.884c-.02-.078-.075-.125-.156-.125-.124 0-.176.113-.176.223s.05.22.176.22c.09 0 .147-.053.162-.14h.064c-.02.117-.094.196-.226.196-.167 0-.24-.121-.24-.276 0-.146.083-.278.24-.278.121 0 .2.058.218.18h-.062z" id="_59736872" fill="#fff"/><path d="M3.251 3.246c-.014.003-.04.012-.07.012-.06 0-.093-.027-.093-.105V2.77h-.074v-.05h.074v-.147h.06v.146h.099v.051h-.098v.36c0 .052.002.074.052.074a.21.21 0 00.05-.007v.05z" id="_120361120" fill="#fff"/><path d="M3.317 3.243v-.525h.06v.525h-.06zm-.003-.64v-.09h.067v.09h-.067z" id="_120191968" fill="#fff"/><path id="_120605584" fill="#fff" d="M3.436 2.718h.066l.17.45.17-.45h.067l-.204.525h-.068l-.2-.525z"/><path d="M3.996 2.995c-.001.114.06.208.176.208.08 0 .141-.044.16-.12h.067c-.03.099-.093.175-.227.175-.168 0-.24-.12-.24-.275 0-.153.09-.279.24-.279.144 0 .233.103.232.291h-.408zm.343-.05c0-.103-.057-.186-.167-.186-.107 0-.164.086-.176.185h.343z" id="_120361352" fill="#fff"/><path d="M4.091.325v.027c-.004.028 0 .042-.084.042-.083 0-.08-.014-.083-.042a1.567 1.567 0 010-.17c.003-.029 0-.042.083-.042s.08.013.083.042l.001.03h.114a.825.825 0 00-.003-.06C4.195.096 4.218.04 4.007.04c-.21 0-.188.055-.194.113a1.441 1.441 0 000 .229c.006.057-.016.112.194.112.211 0 .188-.055.195-.113a.809.809 0 00.003-.056H4.09z" id="_59759256" fill="#000"/><path id="_59358120" fill="#000" d="M2.744.051l-.111.324-.111-.324h-.166v.434h.11V.161l.112.324h.11l.11-.324v.324h.112V.05l-.166.001z"/><path id="_58923920" fill="#000" d="M4.23.05h.319v.111h-.104v.324h-.111V.161H4.23v-.11z"/><path id="_59357072" fill="#000" d="M3.375.485L3.502.05h.166l.127.435h-.11l-.027-.09h-.146l.021-.07h.104L3.585.147l-.1.338h-.11z"/><path d="M2.089.14c.083 0 .08.013.083.042a1.809 1.809 0 010 .17c-.003.028 0 .042-.083.042S2.009.38 2.006.352a1.567 1.567 0 010-.17c.003-.029 0-.042.083-.042v-.1c-.21 0-.188.055-.195.113a1.441 1.441 0 000 .229c.007.057-.016.112.195.112.21 0 .188-.055.194-.113a1.437 1.437 0 000-.228C2.277.095 2.3.04 2.09.04v.1z" id="_119970072" fill="#000"/><path d="M1.714.325v.027c-.004.028 0 .042-.084.042-.083 0-.08-.014-.083-.042a1.567 1.567 0 010-.17c.003-.029 0-.042.083-.042s.08.013.083.042a.5.5 0 01.001.03h.114a.823.823 0 00-.003-.06C1.818.096 1.84.04 1.63.04c-.21 0-.188.055-.194.113a1.44 1.44 0 000 .229c.006.057-.017.112.194.112.21 0 .188-.055.195-.113a.812.812 0 00.003-.056h-.114z" id="_60339936" fill="#000"/><path d="M3.18.386h-.068v-.1h.068c.083 0 .08-.013.083-.042l.001-.026V.193C3.26.164 3.262.15 3.18.15h-.068v.335h-.11V.05h.178c.21 0 .187.056.195.113v.11c-.005.058.015.113-.195.113z" id="_59963744" fill="#000"/><path d="M1.023 2.123l-.694-.001a.182.182 0 01-.182-.182V.883c0-.1.081-.181.182-.181h.434A.094.094 0 00.858.606V.184a.04.04 0 01.04-.04h.255a.04.04 0 01.04.04l.002 1.9a.04.04 0 01-.04.039h-.132l-.003.094h.173a.094.094 0 00.095-.094V.143A.094.094 0 001.193.05H.86a.094.094 0 00-.094.095v.423a.04.04 0 01-.04.04H.33A.277.277 0 00.05.882V1.94c0 .153.124.277.278.277h.69l.004-.094z" id="_59947616" fill="#000"/><path d="M.765 1.734V1.05a.104.104 0 00-.208 0v.738a.104.104 0 10.208 0v-.054l.094.003v.051a.198.198 0 01-.396 0V1.05a.198.198 0 01.396 0v.687l-.094-.003z" id="_59263952" fill="#000"/><path d="M1.683 2.123h-.13a.04.04 0 01-.04-.04l.002-1.34a.04.04 0 01.04-.04h.254a.04.04 0 01.04.04l.002 1.34a.04.04 0 01-.04.04h-.128v.094h.166a.094.094 0 00.095-.094V.702a.094.094 0 00-.095-.095h-.334a.094.094 0 00-.095.095v1.42c0 .052.042.095.094.095h.169v-.094z" id="_59378368" fill="#000"/><path d="M2.883.966h-.28a.156.156 0 000 .312h.383c.1 0 .182.082.182.183l-.001.477c0 .1-.082.182-.182.182l-.761.001a.04.04 0 01-.04-.04v-.184a.04.04 0 01.04-.04l.518-.002a.156.156 0 100-.311l-.375-.002a.182.182 0 01-.182-.182V.883c0-.1.081-.181.182-.181l.705-.004a.04.04 0 01.04.04v.189a.04.04 0 01-.04.04h-.19l-.003.092h.232a.094.094 0 00.095-.094V.7a.094.094 0 00-.094-.094h-.745a.277.277 0 00-.277.277v.477c0 .153.124.278.277.278l.375-.001a.063.063 0 110 .125h-.559a.094.094 0 00-.094.095v.264c0 .052.042.094.094.094h.802a.277.277 0 00.277-.277l.001-.477a.277.277 0 00-.277-.278l-.383.002a.063.063 0 010-.126h.276l.004-.093z" id="_59501248" fill="#000"/><path d="M4.293 1.229h.12a.04.04 0 00.04-.04L4.451.884c0-.1-.081-.182-.182-.182H3.67c-.1 0-.182.081-.182.182V1.94c0 .1.081.182.182.182h.601c.1 0 .182-.081.182-.182v-.29a.04.04 0 00-.04-.04h-.226a.04.04 0 00-.04.04l.002.138c0 .11-.07.198-.178.198-.11 0-.179-.088-.179-.198V1.05c0-.11.07-.198.179-.198.109 0 .178.089.178.198l-.002.139c0 .022.018.04.04.04h.107l-.004.095h-.142a.094.094 0 01-.095-.095l.001-.179c0-.057-.026-.103-.083-.103-.058 0-.084.046-.084.103v.738c0 .057.026.104.084.104.057 0 .083-.047.083-.104V1.61c0-.052.042-.094.094-.094h.306c.052 0 .095.042.095.094v.331a.277.277 0 01-.278.277H3.67a.277.277 0 01-.277-.277V.883c0-.153.124-.277.277-.277h.601c.153 0 .277.124.277.277v.346a.094.094 0 01-.094.095H4.29l.004-.095z" id="_59390680" fill="#000"/></g></g></svg>
