<svg xmlns="http://www.w3.org/2000/svg" viewBox="-129.761 -49.072 1124.594 294.435" style="background-color:#222"><g fill="#FFF" fill-rule="evenodd"><path fill-rule="nonzero" d="M595.438 39.543c-22.978 0-34.2 14.12-34.2 32.369v50.777c0 11.331-7.612 21.374-19.012 21.374h-59.402a.85.85 0 00-.852.848v11.19a.85.85 0 00.852.846h70.032c22.978 0 34.236-12.12 34.236-30.333V71.912c0-11.366 8.296-19.52 19.696-19.52h59.74a.85.85 0 00.852-.847V40.39a.85.85 0 00-.853-.847zM455.987 39h-138.1a.85.85 0 00-.85.847V52.04c.018.474.41.848.886.848h129.48c6.697 0 16.779 5.44 16.779 18.49 0 13.05-11.17 18.526-16.78 18.526h-101.42c-16.53 0-28.981 14.806-28.981 33.131v33.521a.81.81 0 00.238.61.818.818 0 00.613.238h24.229a.85.85 0 00.85-.848V123c0-11.334 8.57-20 17.971-20l95.014.721c22.952 0 34.161-14.123 34.161-32.343 0-18.22-11.21-32.378-34.16-32.378M94.098 0v183.128l41.515 13.162V42.678c0-7.095 3.2-11.991 8.389-10.324 6.789 1.88 8.104 8.515 8.104 15.68v61.34c25.876 12.487 46.207 0 46.207-32.923.036-33.773-11.872-48.744-46.918-60.7A506.379 506.379 0 0094.098 0z"/><path fill-rule="nonzero" d="M144.688 169.117l66.851-23.922c7.578-2.714 8.752-6.606 2.597-8.605a45.172 45.172 0 00-24.904 1.285l-44.544 15.71v-24.993l2.561-.857a153.401 153.401 0 0130.989-6.642 132.37 132.37 0 0157.636 6.892c19.604 6.248 21.81 15.389 16.829 21.709-4.981 6.32-17.184 10.711-17.184 10.711l-90.831 32.85zM19.01 167.111c-20.005-5.679-23.327-17.5-14.137-24.358a98.525 98.525 0 0122.762-11.037l59.203-21.43v24.216l-42.414 15.43c-7.529 2.714-8.66 6.571-2.58 8.607a44.549 44.549 0 0024.741-1.286l20.43-7.5v21.894l-4.065.643a132.354 132.354 0 01-63.621-5.179"/><path d="M693.19 39.543h165.629c.787 0 1.181.305 1.181.915V51.8c0 .551-.394.8-1.181.749-92.748-.007-139.506-.007-140.274 0-.768.007-1.248.267-1.44.78v27.403c0 2.045 1.753 8.638 8.47 8.638h105.299c12.86 0 34.198 8.961 34.198 33.742 0 24.78-22.373 33.977-31.482 33.977h-140.4c-.69 0-1.018-.111-1.018-.947s-.044-10.678 0-11.204c.045-.526.219-.815 1.017-.82.799-.006 116.613 0 123.891 0 7.279 0 22.051-5.542 22.051-21.006 0-15.465-15.202-20.112-19.073-20.112h-111.23c-2.245 0-7.673-.811-11.853-5.62-4.18-4.81-4.803-7.54-4.803-14.004V40.458c0-.61.34-.915 1.017-.915z"/></g></svg>