<?xml version="1.0" encoding="UTF-8" standalone="no"?>
<!-- Created with Inkscape (http://www.inkscape.org/) -->

<svg
   xmlns:svg="http://www.w3.org/2000/svg"
   xmlns="http://www.w3.org/2000/svg"
   version="1.1"
   width="206.65195"
   height="32.526913"
   id="svg2">
  <defs
     id="defs4" />
  <g
     transform="translate(-246.24994,-515.49133)"
     id="layer1">
    <rect
       width="206.65195"
       height="32.526913"
       x="246.24994"
       y="515.49133"
       id="rect3838"
       style="fill:#000000;fill-opacity:1;stroke:none" />
    <path
       d="m 249.875,521.21875 0,23.71875 5.625,0 0,-8.375 4.375,0 c 0,0 5.65625,-0.46946 5.65625,-5.0625 l 0,-4.59375 c 0,0 -0.0356,-5.6875 -5.65625,-5.6875 -5.56487,0 -9.97577,0.0794 -10,0 z m 5.625,4.59375 c 0.008,0.002 2.10714,0 3,0 1.54018,0.45575 1.375,2.03125 1.375,2.03125 l 0,2 c 0,1.66295 -1.375,2 -1.375,2 l -3,0 0,-6.03125 z"
       id="path2870"
       style="fill:#ffffff;fill-opacity:1;stroke:none" />
    <path
       d="m 274.25,526.90625 c -1.55518,-0.003 -7.78125,0.49219 -7.78125,8.96875 0,9.68751 8.125,9.0625 8.125,9.0625 0,0 7.9375,-0.0827 7.9375,-9.0625 0,-8.97973 -7.84822,-8.96223 -7.9375,-8.96875 0,0 -0.12158,4.3e-4 -0.34375,0 z m 0.34375,4.59375 c 0,0 2.90625,-0.46873 2.90625,4.375 0,4.48661 -2.90625,4 -2.90625,4 0,0 -3.03125,0.0345 -3.03125,-4 0,-4.86048 3.03125,-4.31866 3.03125,-4.375 z"
       id="path3667"
       style="fill:#ffffff;fill-opacity:1;stroke:none" />
    <path
       d="m 284.91072,519.83093 5.08928,0 0,13.71875 3.9375,-6.64045 5.4375,0 -5.4375,7.95295 5.4375,10.08775 -5.4375,0 -3.9375,-8.39689 0,8.39689 -5.08928,0 0,-25.119 z"
       id="path3678"
       style="fill:#ffffff;fill-opacity:1;stroke:none" />
    <path
       d="m 307.59375,526.90625 c -6.0023,0 -7.375,4.58206 -7.375,8.96875 0,4.38669 2.65472,9.0625 7.78125,9.0625 5.12652,0 5.59375,-1.03125 5.59375,-1.03125 l 0,-3.03125 c -0.0361,-0.0112 -4.19654,0 -6.40625,0 -2.20971,0 -1.78125,-2.96875 -1.78125,-2.96875 l 9.53125,0 0,-3.3125 c 0,0 0.002,-7.6875 -7.34375,-7.6875 z m 0.34375,3.9375 c 2.5357,0 2.5625,1 2.5625,1 l 0,2.75 -5.09375,0 0,-2.75 c 0,0 -0.004,-1 2.53125,-1 z"
       id="path3696"
       style="fill:#ffffff;fill-opacity:1;stroke:none" />
    <path
       d="m 302.48702,522.27517 1.92245,2.71794 7.31413,-4.37523 -2.2539,-2.80633 -6.89429,4.41942 -0.0884,0.0442 z"
       id="path3711"
       style="fill:#ffffff;fill-opacity:1;stroke:none" />
    <path
       d="m 317.46875,544.94993 4.5,0 0,-10.369 c 0,0 0.1875,-2.72656 2.5,-2.72656 2.3125,0 2.3125,2.72656 2.3125,2.72656 l 0,10.369 4.25,0 0,-10.369 c 0,0 0.0937,-2.72656 2.40625,-2.72656 2.3125,0 2.3125,2.72656 2.3125,2.72656 l 0,10.369 4.40625,0 0,-13.09556 c 0,0 0.3125,-4.94514 -4.40625,-4.94514 -4.71875,0 -4.71875,2.94179 -4.71875,2.94179 0,0 0.5625,-2.94179 -4.25,-2.94179 -4.8125,0 -4.8125,2.94179 -4.8125,2.94179 0,0 0.6875,-2.94179 -1.90625,-2.94179 -2.59375,0 -2.59375,0 -2.59375,0 l 0,18.0407 z"
       id="path3727"
       style="fill:#ffffff;fill-opacity:1;stroke:none" />
    <path
       d="m 350.75,526.91575 c -1.55518,-0.003 -7.78125,0.49219 -7.78125,8.96875 0,9.68751 8.125,9.0625 8.125,9.0625 0,0 7.9375,-0.0827 7.9375,-9.0625 0,-8.97973 -7.84822,-8.96223 -7.9375,-8.96875 0,0 -0.12158,4.3e-4 -0.34375,0 z m 0.34375,4.59375 c 0,0 2.90625,-0.46873 2.90625,4.375 0,4.48661 -2.90625,4 -2.90625,4 0,0 -3.03125,0.0345 -3.03125,-4 0,-4.86048 3.03125,-4.31866 3.03125,-4.375 z"
       id="path3667-1"
       style="fill:#ffffff;fill-opacity:1;stroke:none" />
    <path
       d="m 361.5,544.94993 4.90625,0 0,-10.369 c 0,0 -0.125,-2.72656 2.59375,-2.72656 2.71875,0 2.71875,2.72656 2.71875,2.72656 l 0,10.369 4.5625,0 0,-13.09556 c 0,0 0.0312,-4.94514 -4.5625,-4.94514 -4.59375,0 -5.3125,2.94179 -5.3125,2.94179 0,0 0.4375,-2.94179 -1.375,-2.94179 -1.8125,0 -3.53125,0 -3.53125,0 l 0,18.0407 z"
       id="path3759"
       style="fill:#ffffff;fill-opacity:1;stroke:none" />
    <path
       d="m 387.95855,526.90923 21.05853,0 c 0,0 2.03293,-0.0783 2.03293,1.9217 0,2 0,15.07728 0,15.07728 0,0 0.0442,1.04172 -0.97227,1.04172 -1.01647,0 -3.0494,0 -3.0494,0 0,0 -1.01647,-0.0253 -1.01647,-1.04172 0,-1.01646 0,-9.32728 0,-9.32728 0,0 -0.0884,-1.19093 -0.97227,-1.19093 -0.88388,0 -3.0494,0 -3.0494,0 0,0 -1.01646,-0.1171 -1.01646,1.19093 0,1.30803 0,9.32728 0,9.32728 0,0 -0.13258,1.04172 -1.01647,1.04172 -0.88388,0 -2.87262,0 -2.87262,0 0,0 -1.10485,0.0631 -1.10485,-1.04172 0,-1.10485 0,-9.32728 0,-9.32728 0,0 0.30935,-1.19093 -1.06066,-1.19093 -1.37002,0 -2.87262,0 -2.87262,0 0,0 -1.01647,-0.1171 -1.01647,1.19093 0,1.30803 0,9.32728 0,9.32728 0,0 0,1.04172 -1.01647,1.04172 -1.01646,0 -3.04939,0 -3.04939,0 0,0 -0.92808,-0.0694 -0.92808,-1.04172 0,-0.97227 0,-15.07728 0,-15.07728 0,0 0.0442,-1.77647 1.92244,-1.9217 z"
       id="path3775"
       style="fill:#f1d941;fill-opacity:1;stroke:none" />
    <path
       d="m 419,535.88896 c 0,0 0.97723,-0.0737 0.97723,0.96541 0,1.03906 0,7.05384 0,7.05384 0,0 -0.10223,1.04172 -0.94598,1.04172 -0.84375,0 -2.0625,0 -2.0625,0 0,0 -1.01319,-0.0269 -1.01319,-1.04172 0,-1.01478 0,-7.05384 0,-7.05384 0,0 0.0444,-0.96541 1.04444,-0.96541 1,0 1.9375,0.0357 2,0 z"
       id="path3787"
       style="fill:#f1d941;fill-opacity:1;stroke:none" />
    <path
       d="m 417,532.85967 c 0,0 -1.04444,0.0181 -1.04444,-1.0053 0,-1.02344 0,-3.02344 0,-3.02344 0,0 -0.002,-1 1.06006,-1 1.0625,0 2,0 2,0 0,0 0.96161,-0.0201 0.96161,1 0,1.02009 0,3.02344 0,3.02344 0,0 0.10089,1.0053 -0.94598,1.0053 -1.04688,0 -2,-0.0131 -2.03125,0 z"
       id="path3789"
       style="fill:#f1d941;fill-opacity:1;stroke:none" />
    <path
       d="m 424.96875,543.90821 c 0,0 0.0312,1.04172 1.03125,1.04172 1,0 2.9375,0 2.9375,0 0,0 1.03125,-0.0582 1.03125,-1.04172 0,-0.98353 0,-9.32728 0,-9.32728 0,0 0.0312,-1.19093 1,-1.19093 0.96875,0 3,0 3,0 0,0 1.03125,-0.1171 1.03125,1.19093 0,1.30803 0,9.32728 0,9.32728 0,0 -0.0625,1.04172 1,1.04172 1.0625,0 2.03125,0 2.03125,0 0,0 0.9375,-0.0582 0.9375,-1.04172 0,-0.98353 0,-14.05719 0,-14.05719 0,0 -0.0312,-2.02009 -2,-2.02009 -1.96875,0 -9.96875,0 -9.96875,0 0,0 -2.03125,0.0167 -2.03125,2.02009 0,2.00335 0.0937,14.16741 0,14.05719 z"
       id="path3807"
       style="fill:#f1d941;fill-opacity:1;stroke:none" />
    <path
       d="m 448.03229,535.88896 c 0,0 0.97723,-0.0737 0.97723,0.96541 0,1.03906 0,7.05384 0,7.05384 0,0 -0.10223,1.04172 -0.94598,1.04172 -0.84375,0 -2.0625,0 -2.0625,0 0,0 -1.01319,-0.0269 -1.01319,-1.04172 0,-1.01478 0,-7.05384 0,-7.05384 0,0 0.0444,-0.96541 1.04444,-0.96541 1,0 1.9375,0.0357 2,0 z"
       id="path3787-7"
       style="fill:#f1d941;fill-opacity:1;stroke:none" />
    <path
       d="m 446.03229,532.85967 c 0,0 -1.04444,0.0181 -1.04444,-1.0053 0,-1.02344 0,-3.02344 0,-3.02344 0,0 -0.002,-1 1.06006,-1 1.0625,0 2,0 2,0 0,0 0.96161,-0.0201 0.96161,1 0,1.02009 0,3.02344 0,3.02344 0,0 0.10089,1.0053 -0.94598,1.0053 -1.04688,0 -2,-0.0131 -2.03125,0 z"
       id="path3789-4"
       style="fill:#f1d941;fill-opacity:1;stroke:none" />
  </g>
</svg>
