<svg xmlns="http://www.w3.org/2000/svg" width="206.652" height="32.527"><path d="M0 0h206.652v32.527H0z"/><path d="M3.625 5.727v23.72H9.25V21.07h4.375s5.656-.47 5.656-5.062v-4.594s-.035-5.688-5.656-5.688c-5.565 0-9.976.08-10 0zm5.625 4.594c.008.002 2.107 0 3 0 1.54.456 1.375 2.031 1.375 2.031v2c0 1.663-1.375 2-1.375 2h-3v-6.03zM28 11.415c-1.555-.003-7.781.492-7.781 8.969 0 9.687 8.125 9.062 8.125 9.062s7.937-.083 7.937-9.062c0-8.98-7.848-8.963-7.937-8.97H28zm.344 4.594s2.906-.47 2.906 4.375c0 4.486-2.906 4-2.906 4s-3.031.034-3.031-4c0-4.86 3.03-4.319 3.03-4.375zM38.66 4.34h5.09v13.718l3.938-6.64h5.437l-5.437 7.953 5.437 10.088h-5.437l-3.938-8.397v8.397h-5.09V4.339zM61.344 11.415c-6.002 0-7.375 4.582-7.375 8.969 0 4.386 2.655 9.062 7.781 9.062 5.127 0 5.594-1.031 5.594-1.031v-3.031c-.036-.012-4.197 0-6.406 0-2.21 0-1.782-2.97-1.782-2.97h9.532v-3.312s.002-7.687-7.344-7.687zm.344 3.937c2.535 0 2.562 1 2.562 1v2.75h-5.094v-2.75s-.004-1 2.532-1zM56.237 6.784l1.923 2.718 7.314-4.375L63.22 2.32l-6.895 4.42-.088.044zM71.219 29.459h4.5v-10.37s.187-2.726 2.5-2.726c2.312 0 2.312 2.727 2.312 2.727v10.369h4.25v-10.37s.094-2.726 2.407-2.726c2.312 0 2.312 2.727 2.312 2.727v10.369h4.406V16.363s.313-4.945-4.406-4.945c-4.719 0-4.719 2.942-4.719 2.942s.563-2.942-4.25-2.942c-4.812 0-4.812 2.942-4.812 2.942s.687-2.942-1.906-2.942h-2.594v18.04zM104.5 11.424c-1.555-.003-7.781.493-7.781 8.97 0 9.687 8.125 9.062 8.125 9.062s7.937-.083 7.937-9.063-7.848-8.962-7.937-8.969h-.344zm.344 4.594s2.906-.469 2.906 4.375c0 4.487-2.906 4-2.906 4s-3.031.035-3.031-4c0-4.86 3.03-4.318 3.03-4.375zM115.25 29.459h4.906v-10.37s-.125-2.726 2.594-2.726 2.719 2.727 2.719 2.727v10.369h4.562V16.363s.032-4.945-4.562-4.945-5.313 2.942-5.313 2.942.438-2.942-1.375-2.942h-3.53v18.04z" fill="#fff"/><path d="M141.709 11.418h21.058s2.033-.078 2.033 1.922v15.077s.044 1.042-.972 1.042h-3.05s-1.016-.026-1.016-1.042V19.09s-.088-1.191-.972-1.191h-3.05s-1.016-.117-1.016 1.19v9.328s-.133 1.042-1.017 1.042h-2.872s-1.105.063-1.105-1.042V19.09s.31-1.191-1.06-1.191h-2.873s-1.017-.117-1.017 1.19v9.328s0 1.042-1.016 1.042h-3.05s-.928-.07-.928-1.042V13.34s.044-1.777 1.923-1.922zM172.75 20.398s.977-.074.977.965v7.054s-.102 1.042-.946 1.042h-2.062s-1.013-.027-1.013-1.042v-7.054s.044-.965 1.044-.965 1.938.035 2 0zM170.75 17.368s-1.044.018-1.044-1.005V13.34s-.002-1 1.06-1h2s.961-.02.961 1v3.023s.101 1.005-.946 1.005-2-.013-2.03 0zM178.719 28.417s.031 1.042 1.031 1.042h2.938s1.03-.059 1.03-1.042V19.09s.032-1.191 1-1.191h3s1.032-.117 1.032 1.19v9.328s-.062 1.042 1 1.042h2.031s.938-.059.938-1.042V14.36s-.031-2.02-2-2.02h-9.969s-2.031.016-2.031 2.02c0 2.003.094 14.167 0 14.057zM201.782 20.398s.978-.074.978.965v7.054s-.103 1.042-.946 1.042h-2.063s-1.013-.027-1.013-1.042v-7.054s.044-.965 1.044-.965 1.938.035 2 0zM199.782 17.368s-1.044.018-1.044-1.005V13.34s-.002-1 1.06-1h2s.962-.02.962 1v3.023s.1 1.005-.946 1.005c-1.047 0-2-.013-2.032 0z" fill="#f1d941"/></svg>