<svg version="1.2" baseProfile="tiny" xmlns="http://www.w3.org/2000/svg" width="502.921" height="104.794">
    <path fill="none" d="M502.3 24.062H180.797v65.083h322.124V24.062h-.621zm-13.197 57.156h5.627v.831h-2.322v6.418h-.98v-6.418h-2.324v-.831z" />
    <path fill="#fff" d="M491.427 88.467h.981v-6.418h2.322v-.831h-5.627v.831h2.324z" />
    <path fill="#fff" d="M496.613 82.577l1.953 5.89h.971l1.953-5.89v5.89h.81v-7.249h-1.181l-2.034 6.191-2.101-6.191h-1.352v7.249h.981zM335.361 71.101V41.126c0-6.115 2.854-10.494 8.941-10.494h37.547c.23 0 .451-.228.451-.454v-5.964a.406.406 0 0 0-.035-.152h-45.909c-9.951 1.265-14.812 8.2-14.812 17.064V71.1c0 6.115-2.934 10.495-8.94 10.495h-39.652c-.225 0-.451.151-.451.453v5.965c0 .247.152.436.33.499h45.019c11.734-.308 17.511-7.799 17.511-17.411zM181.104 88.513h13.183a.522.522 0 0 0 .33-.499V68.911c0-6.115 3.454-10.344 8.486-10.344h54.301c12.242 0 18.176-7.55 18.176-17.441 0-8.864-4.857-15.799-14.813-17.064H180.86c-.023.05-.062.089-.062.152v5.964c0 .302.15.454.45.454h71.574c6.084 0 8.938 4.379 8.938 10.494 0 6.116-2.854 10.495-8.938 10.495h-56.628c-8.787 0-15.396 7.476-15.396 17.29v19.103c-.001.247.105.435.306.499z"
    />
    <g>
        <path fill="none" d="M393.714 74.649h60.465c.221 0 .451-.227.451-.453V36.974c0-.83-.752-.906-1.131-.604l-60.156 37.223c-.381.227-.531.453-.451.755.07.151.301.301.822.301z" />
        <path fill="#fff" d="M382.08 81.596h72.1c.221 0 .371.151.371.302v6.116c0 .302.23.453.451.453h12.996c.23 0 .449-.151.449-.453v-5.965c0-.227.23-.453.451-.453h12.916c.301 0 .451-.227.451-.452v-6.041c0-.227-.15-.453-.451-.453h-12.916c-.221 0-.451-.227-.451-.453V30.632c0-3.555-1.321-5.819-3.542-6.57h-3.76c-1.172.301-2.446.84-3.812 1.661l-77.656 47.945c-3.004 1.887-4.057 4-3.305 5.586.6 1.36 2.323 2.342 5.708 2.342zm11.263-8.003L453.5 36.37c.379-.302 1.131-.226 1.131.604v37.223c0 .227-.23.453-.451.453h-60.465c-.521 0-.752-.15-.822-.302-.081-.302.069-.529.45-.755z"
        />
    </g>
    <g>
        <path fill="#fff" d="M50.372 0c5.858 1.092 11.616 2.652 17.346 4.278 3.278.952 6.547 1.937 9.795 2.986 5.102 1.625 10.182 3.465 14.803 6.209 2.07 1.257 4.058 2.677 5.757 4.409a21.957 21.957 0 0 1 4.454 6.255c2.015 4.208 2.705 8.909 2.909 13.531.096 3.016.09 6.058-.473 9.035-.468 2.587-1.3 5.138-2.684 7.385-1.222 1.985-2.921 3.701-4.983 4.807-1.978 1.066-4.243 1.574-6.486 1.529-3.402.036-6.703-1.049-9.756-2.47-.055-10.153-.008-20.308-.024-30.46-.022-1.837.103-3.693-.267-5.505-.26-1.404-.833-2.819-1.935-3.772-.731-.659-1.678-1.031-2.63-1.232-.963-.183-1.99.226-2.586.999-.991 1.238-1.251 2.882-1.296 4.423-.008 27.181.01 54.363-.008 81.542-7.312-2.317-14.625-4.636-21.935-6.96-.008-32.33-.005-64.659-.001-96.989zM17.506 68.783c9.533-3.375 19.056-6.782 28.593-10.146.015 3.743 0 7.487.006 11.233-.006.508.027 1.018-.037 1.523-7.538 2.672-15.061 5.391-22.592 8.08-1.044.394-2.115.841-2.92 1.638-.375.374-.68.926-.475 1.462.258.631.902.974 1.496 1.234 1.652.672 3.458.767 5.218.848 1.962-.031 3.932-.178 5.854-.602 1.299-.255 2.549-.693 3.787-1.158 3.218-1.165 6.436-2.337 9.659-3.49.024 3.166.004 6.334.01 9.503-.01.633.029 1.27-.034 1.901-3.958.711-7.963 1.194-11.986 1.257-8.101.183-16.221-1.071-23.916-3.603-2.524-.731-5.032-1.704-7.139-3.307C1.87 84.258.832 83.129.304 81.74c-.442-1.176-.41-2.535.141-3.67.531-1.132 1.459-2.027 2.481-2.722 2.365-1.633 4.973-2.878 7.616-3.989 2.277-.972 4.639-1.728 6.964-2.576z"
        />
        <path fill="#fff" d="M94.209 64.52c2.162-.25 4.338-.309 6.511-.387 7.151.027 14.338.917 21.178 3.062 1.342.408 2.642.936 3.979 1.362 2.383.871 4.769 1.927 6.677 3.64 1.147 1.046 2.135 2.455 2.149 4.064.068 1.309-.525 2.565-1.374 3.531-1.616 1.812-3.752 3.057-5.897 4.143-2.283 1.164-4.737 1.915-7.131 2.801-14.612 5.247-29.225 10.492-43.835 15.745-.002-4.093.004-8.185-.002-12.276.022-.163-.068-.448.163-.491 11.118-3.956 22.233-7.923 33.349-11.889 1.503-.562 3.122-.969 4.398-1.989.522-.41 1.033-1.062.777-1.765-.267-.615-.905-.956-1.492-1.21-1.664-.659-3.476-.787-5.246-.836-2.771.019-5.567.361-8.202 1.249-7.919 2.775-15.824 5.584-23.745 8.35.001-4.395-.002-8.787.002-13.181 5.731-2.011 11.715-3.23 17.741-3.923zM126.692 94.796c1.729-.216 3.535.559 4.571 1.961 1.131 1.446 1.338 3.532.539 5.184-.806 1.714-2.65 2.915-4.559 2.852-1.757.039-3.459-.984-4.324-2.499-.782-1.335-.875-3.044-.27-4.464.68-1.639 2.282-2.836 4.043-3.034zm-.376.923a4.175 4.175 0 0 0-3.119 4.968 4.172 4.172 0 0 0 1.808 2.611c1.403.922 3.37.871 4.712-.142 1.385-.978 2.043-2.857 1.567-4.484-.294-1.1-1.08-2.036-2.07-2.581a4.171 4.171 0 0 0-2.898-.372z"
        />
        <path fill="#fff" d="M125.118 96.896c.901-.005 1.805-.001 2.707-.003.51.007 1.072.126 1.433.517.364.411.393 1.008.293 1.523-.056.34-.356.541-.573.779.189.167.43.324.475.596.104.52-.006 1.068.161 1.578.105.18.212.362.22.578-.374.01-.747.003-1.121.009-.252-.593-.064-1.26-.221-1.871-.062-.249-.32-.404-.566-.396-.61-.026-1.222-.008-1.83-.009-.009.758.022 1.519-.018 2.276a27.64 27.64 0 0 0-.955.001c-.016-1.862-.005-3.719-.005-5.578zm.978.884v1.541c.545.003 1.091.007 1.638.002.271-.002.586-.053.762-.283a.977.977 0 0 0 .014-.981c-.14-.235-.437-.258-.681-.273-.578-.017-1.156-.007-1.733-.006z"
        />
    </g>
</svg>