<svg xmlns="http://www.w3.org/2000/svg" width="950.985" height="131.981"><path style="marker:none" color="#000" fill="#b2ae85" overflow="visible" d="M0 0h950.985v131.98H0z"/><path d="M5.499 126.019V5.963l470.707.251 469.28-.251v119.846zm276.237-32.447h-3.806c0 3.063-2.184 4.416-3.983 4.898H190.51V71.456h54.137c.678.008 3.078 2.408 3.434 4.264h3.083V50.356h-3.46c0 2.554-2.023 4.959-3.35 4.943H190.51V31.378h80.793c2.125.422 4.341 3.106 4.341 4.997h3.067v-26.02h-3.01c-.125 1.876-1.623 4.401-3.967 4.839H156.53v2.146c3.867.066 5.626 3.119 5.626 4.445v86.87c-.251 1.734-1.905 3.957-5.843 3.73v2.897h118.017c1.467.738 3.388 1.653 3.703 4.875h3.765zm-133.84-9.253c-.713-25.827-36.844-30.276-55.852-31.212-17.75-.874-34.645-2.751-38.214-6.32-3.402-3.402-4.681-7.423 2.266-12.469 5.005-3.634 13.046-5.432 26.5-5.482 19.623-.073 40.188 5.806 46.11 13.188 1.94 2.42.022 2.94 3.047 3.907l16.088-24.017-2.697-1.445s-3.118 1.988-4.9 1.988c-4.473 0-27.651-11.186-58.288-11.195-25.983 0-56.716 8.521-57.5 32.05 0 7.008-.14 16.724 20.269 25.84 20.528 9.168 74.896.425 74.896 16.395 0 16.894-44.576 17.18-68.23 8.901-3.468-1.213-15.29-3.63-14.68-13.104l-2.551-.55-14.99 25.081c3.237 3.237 2.527.33 7.04.33 4.793.266 25.363 10.828 59.217 11.445 30.033.548 61.627-8.975 62.469-33.331zm788.489 31.075V15.536l-326.729-.37v100.6zM757.644 32.933C641.052 54.697 661.3 108.26 762.83 96.574c-160.757 33.502-206.99-37.001-5.187-63.641zm22.584 16.688l10.137 37.122c85.054-9.573 123.913-64.065-14.8-57.88 113.648-14.807 153.732 1.02 144.03 17.303-9.702 16.282-66.715 37.614-139.836 47.606zM434.016 99.178c-.041-2.073-3.982-1.235-6.027-4.777V69.913c-.044-.928 2.483-3.485 5.754-3.618l-.072-2.6h-63.524c-1.46-1.435-2.525-2.928-2.818-4.368h-3.664v23.62h3.092c1.553-1.11 1.02-3.751 3.98-4.623l34.32.067v13.616c-119.4 37.342-112.61-92.262-6.443-56.746 11.093 4.523 5.544 9.076 11.103 9.079l14.364-23.953c-1.5-2.47-4.038.51-6.868.33-5.81 0-26.577-8.715-51.17-8.814-35.357.084-76.79 12.766-76.79 53.933 2.346 39.494 45.121 51.959 79.002 49.314 16.326 0 44.61-4.702 65.761-15.972zm40.578 12.055c-1.593-.007-5.94-1.176-5.856-5.617l9.573-17.338 53.82.113c1.123 2.456 9.817 15.366 9.59 18.359 0 .643-.05 4.112-5.795 4.563v2.757h43.748v-2.66c-3.167-.185-5.289-.995-6.432-2.269l-51.348-88.136c.062-3.592 4.338-3.933 5.438-4.62v-2.813h-42.138l-.019 2.781c4.277.313 5.998 2.848 5.38 6.07l-48.685 85.935c-2.153 1.888-3.713 3.172-6.627 2.934v2.62h39.413zm11.232-36.871l19.396-35.773L524.644 74.4z"/></svg>