<svg version="1.2" baseProfile="tiny" xmlns="http://www.w3.org/2000/svg" width="1005" height="155" viewBox="-373.657 52.361 1005 155"><g fill="#A00"><path d="M341.373 193.968c-2.26-2.385-8.34-2.6-9.285-2.6-42.588 0-85.172-.002-127.764.002-4.329 0-5.108.531-4.578-4.957.868-8.979 4.167-17.322 10.688-23.766 1.249-1.271 1.666-1.699 4.52-4.287 12.092-10.957 36.181-19.742 36.181-19.742s20.16-7.443 31.48-11.896c5.084-2 10.049-4.311 14.577-7.445 16.421-12.943 7.894-25.79-13.755-28.781-15.163-2.17-28.979 1.533-41.748 9.677-1.667 1.063-3.074 2.125-4.684 3.281-2.856 2.414-5.307 5.229-5.836 8.34-.286 1.681-.013 2.838.021 3.112.108.871.375 2.25-.272 2.884-.778.76-2.394-.002-3.111-.681-6.58-6.219-13.172-12.424-19.759-18.637-.412-.389-1.173-1.221-1.173-1.221s-.72-.834-.745-1.406c-.029-.644.604-1.249 1.36-1.485 3.589-.661 5.245-.873 7.399-2.448 5.797-4.237 11.855-8.025 18.325-11.18 8.651-4.219 17.747-6.726 27.272-8.01 7.325-.988 28.84-4.338 53.973 6.837 6.629 2.907 12.313 7.024 16.598 12.831 2.535 3.437 12.098 22.281-7.383 37.333-6.963 5.588-15.271 9.038-23.674 11.971-7.188 2.512-12.465 4.396-24.227 7.795-8.932 2.658-15.342 4.736-25.563 9.586-8.129 3.855-13.465 8.543-13.465 8.543s-2.662 2.053-2.147 3.658c.446 1.395 2.668 1.254 3.975 1.258 31.445.02 62.892.014 94.337.016 3.254 0 6.408-.229 8.893-2.783.361-.373 1.318-.574 1.75-.356.414.207.703 1.061.707 1.633.049 7.365.051 14.894.008 22.258-.006.716-.238.972-.596 1.179-.538.308-1.678.142-2.299-.513zM107.1 193.042c-5.159-.314-10.332-.979-15.427-1.879-20.739-3.656-30.385-8.555-36.174-10.826-2.766-1.086-5.47-2.113-8.476-1.012-.343.127-.745.119-1.121.127-1.911.021-2.496-.723-1.666-2.428.989-2.031 2.148-3.984 3.317-5.926 3.167-5.252 6.376-10.479 9.57-15.718.147-.239.315-.471.46-.715.651-1.09 1.366-2.101 2.858-1.892 1.403.197 1.706 1.354 2 2.451.642 2.388 2.099 4.166 4.016 5.646 4.536 3.511 9.659 5.873 15.033 7.748 6.969 2.431 14.143 3.953 21.429 5.097 8.627 1.354 17.299 1.526 25.961 1.024 7.342-.428 14.576-1.752 21.498-4.457 4.213-1.646 7.409-4.553 9.968-8.104 3.395-4.711 2.004-11.188-2.622-14.871-6.284-5.002-13.592-6.979-21.333-8.31-6.96-1.192-13.912-1.065-20.879-.976-3.271.043-11.09.354-14.087 3.136-1.104.972-1.979 1.045-2.504.571-.525-.477-.548-1.229-.554-1.885-.059-6.802-.066-13.604-.021-20.401.015-2.229 1.054-2.902 2.78-1.693 2.18 1.527 4.599 2.195 7.125 2.519 4.196.539 17.892.063 20.69-.303 7.481-.978 6.828-.859 11.194-2.029 4.673-1.252 9.131-4.53 11.458-7.241.038-.043.076-.089.113-.134 3.244-3.907 2.154-8.405-.864-11.626-2.898-3.09-6.541-5.069-10.597-6.267-6.647-1.96-13.456-3.032-20.365-2.707-12.507.588-24.774 2.497-36.083 8.316-2.589 1.332-5.016 3.008-7.407 4.686-2.042 1.433-3.07 3.531-3.128 6.056-.03 1.313.18 2.815-1.379 3.39-1.573.578-2.388-.791-3.285-1.701-5.76-5.853-11.496-11.727-17.238-17.598-.33-.337-.698-.658-.942-1.053-.694-1.123-.267-2.054 1.063-2.208 1.488-.172 3.082.063 4.464-.387 2.042-.665 3.952-1.753 5.895-2.707 5.165-2.533 10.195-5.386 15.502-7.57 8.405-3.458 17.25-5.316 26.285-6.437 8.648-1.073 23.906-1.519 34.944.111 7.378 1.115 14.691 2.597 21.539 5.649 6.041 2.692 11.94 5.698 16.45 10.779 3.26 3.672 5.449 7.775 6.183 12.751.704 4.771-.081 9.127-2.12 13.406-1.404 2.946-3.504 4.854-6.393 6.588-5.668 3.397-9.024 4.248-9.741 4.687-1.14.692-1.19 1.616-.027 2.282 1.046.601 2.248.953 3.413 1.315 6.821 2.13 12.679 5.873 17.563 11.002 3.567 3.744 5.68 8.23 6.39 13.535.726 5.435-.549 10.236-2.896 14.957-1.827 3.677-4.856 6.263-8.043 8.605-6.444 4.744-13.622 7.955-21.316 10.232-5.727 1.691-11.531 2.842-17.409 3.619-20.096 2.202-30.361 1.064-35.064.776zM383.914 72.788l20.117.001c.66 0 1.328-.05 1.98.028 1.494.178 1.725.81.787 2.032-1.676 2.182-1.662 2.417.246 4.435.063.069.133.134.199.201 9.354 9.465 18.715 18.931 28.074 28.396.465.472.898.979 1.438 1.361.939.676 1.945.688 2.869-.056.514-.412.969-.897 1.434-1.369 9.24-9.317 18.48-18.638 27.719-27.96.334-.335.682-.659.977-1.026 1.232-1.531 1.203-2.073.053-3.714-1.035-1.398-1.035-2.249 1.076-2.302.461-.012.939-.026 1.412-.026 13.6 0 27.199-.003 40.799.005.844 0 1.711-.01 2.525.169.348.076.771.6.83.971.057.367-.199 1.01-.504 1.162-.918.461-1.902.855-2.906 1.075-3.807.832-6.908 2.712-9.66 5.516-11.838 12.063-23.799 24.003-35.695 36.012-2.98 3.016-5.918 6.092-8.842 9.17-1.85 1.944-1.854 2.862.021 4.78 3.295 3.36 6.68 6.634 9.959 10.009 2.43 2.5 4.688 5.17 7.137 7.647 6.508 6.582 13.096 13.082 19.613 19.652 4.387 4.422 8.736 8.881 13.047 13.377 2.482 2.594 5.373 4.4 8.861 5.293 1.271.322 2.514.807 3.715 1.338.326.146.666.764.617 1.109-.051.354-.516.813-.891.932-.613.193-1.301.195-1.955.195-13.883.01-27.766.008-41.648.002-.563 0-1.15.012-1.684-.141-.883-.252-1.217-.783-.67-1.699.459-.771 1.186-1.648 1.102-2.402-.092-.801-.914-1.588-1.559-2.242-10.768-10.99-21.557-21.961-32.342-32.934a56.76 56.76 0 00-1.203-1.201c-2.383-2.303-3.256-2.332-5.645.043-6.895 6.857-13.801 13.715-20.633 20.641-4.438 4.498-8.764 9.107-13.129 13.68-1.645 1.722-1.645 1.83-.395 4.113.713 1.306.443 1.879-1.045 2.092-.646.095-1.316.058-1.98.058-13.41.002-26.818.019-40.229-.022-1.205-.004-3.223.323-3.326-1.144-.211-1.533 1.641-1.61 2.729-1.867 4.885-1.143 8.611-3.928 12.064-7.471 11.008-11.291 22.199-22.397 33.279-33.619 3.439-3.483 6.729-7.119 10.127-10.646 1.311-1.354 2.764-2.567 4.104-3.896 2.799-2.776 2.813-3.519.117-6.235-8.166-8.261-16.348-16.498-24.508-24.763-6.633-6.715-13.291-13.408-19.84-20.205-2.521-2.617-5.482-4.244-8.967-5.059-.643-.15-1.273-.349-1.904-.544-.896-.277-2.004-.489-1.881-1.71.125-1.243 1.217-1.243 2.188-1.241.568.001 1.135-.002 1.701-.002l20.125.001z"/></g><g fill="#0584DB"><path d="M-369.356 194.63l52.284-.042c21.383 0 38.716-17.33 38.716-38.716 0-21.38-17.332-38.713-38.716-38.713l-13.576.065a1.958 1.958 0 01-1.958-1.957c0-1.089.876-1.964 1.958-1.964l52.156.007.031-16.392h-52.198c-10.117 0-18.314 8.201-18.314 18.313 0 10.115 8.197 18.313 18.314 18.313l13.642.153c12.244 0 22.168 9.922 22.168 22.163 0 12.248-9.923 22.17-22.168 22.17h-52.319l-.02 16.6"/><path d="M-369.336 174.172h52.319c10.117 0 18.313-8.195 18.313-18.313 0-10.109-8.198-18.31-18.313-18.31l-13.642-.148c-12.245 0-22.168-9.922-22.168-22.171 0-12.242 9.924-22.165 22.168-22.165l52.198-.023-.031-16.479-52.156-.016c-21.382 0-38.715 17.335-38.715 38.72 0 21.379 17.332 38.71 38.715 38.71l13.495.011c1.047 0 1.892.848 1.892 1.896a1.894 1.894 0 01-1.892 1.895l-52.203.02.02 16.373M-237.837 178.134c-9.057 0-16.487-7.256-16.487-16.482v-52.407c0-8.885 7.431-16.233 16.487-16.233l55.806.015-.004-16.459-55.802-.011c-18.148 0-32.856 14.714-32.856 32.856v52.239c0 18.143 14.709 32.853 32.856 32.853l55.574.023-.02-16.416-55.554.022"/><path d="M-250.323 109.412c0-6.92 5.563-12.529 12.486-12.529h55.806l-.004 16.433h-48.078c-3.851.001-3.897 3.873-3.897 3.873h40.089l.012 16.38h-56.444l.03-24.157M-237.837 174.15c-6.905 0-12.502-5.6-12.502-12.499l-.011-24.17h56.445l-.013 16.429h-40.095c.046 3.866 3.899 3.871 3.899 3.871h47.851l-.02 16.349-55.554.02M-142.932 178.092c-9.06 0-16.442-7.386-16.442-16.44v-52.239c0-9.053 7.34-16.399 16.397-16.399l54.028-.01.007-16.442-54.162-.003c-18.147 0-32.855 14.712-32.855 32.855v52.24c0 18.143 14.84 32.852 32.984 32.852l54.033.024-.003-77.356h-46.439v16.396h30.023v44.528l-37.571-.006"/><path d="M-155.507 161.651c0 6.916 5.609 12.614 12.529 12.614l33.744.002v-36.823h-26.11v16.45h9.691l.04 3.872-9.642-.014a3.858 3.858 0 01-3.856-3.858l-.06-36.745s-.01-3.831 3.873-3.911h46.396l-.046-16.399-54.028.042c-6.919 0-12.527 5.611-12.527 12.528v52.242M-38.173 96.609a5.357 5.357 0 015.051-3.593 5.354 5.354 0 015.057 3.605l26.207 77.729h-38.378l.04-18.279h12.84l-5.795-17.212-18.807 55.651h-19.386l33.171-97.901"/><path d="M3.443 178.097h-43.62v16.418h66.413L-8.312 91.994c-3.026-9.996-12.989-17.333-24.82-17.333-11.818 0-21.777 7.333-24.811 17.314l-34.865 102.536h17.388l33.823-99.679c1.383-3.298 4.638-5.62 8.438-5.62a9.133 9.133 0 018.428 5.59l28.174 83.295"/></g></svg>
