<?xml version="1.0" encoding="UTF-8" standalone="no"?>
<svg
   xmlns:dc="http://purl.org/dc/elements/1.1/"
   xmlns:cc="http://creativecommons.org/ns#"
   xmlns:rdf="http://www.w3.org/1999/02/22-rdf-syntax-ns#"
   xmlns:svg="http://www.w3.org/2000/svg"
   xmlns="http://www.w3.org/2000/svg"
   version="1.1"
   id="svg2"
   viewBox="0 0 798.11402 102.235"
   height="102.235"
   width="798.11401">
  <defs
     id="defs4" />
  <metadata
     id="metadata7">
    <rdf:RDF>
      <cc:Work
         rdf:about="">
        <dc:format>image/svg+xml</dc:format>
        <dc:type
           rdf:resource="http://purl.org/dc/dcmitype/StillImage" />
        <dc:title></dc:title>
      </cc:Work>
    </rdf:RDF>
  </metadata>
  <g
     transform="translate(0,-950.12716)"
     id="layer1">
    <path
       id="path4173"
       d="m 4.1758575,1002.2036 c -0.353634,-0.3537 -0.2143014,-9.53219 0.1502347,-9.89673 0.2556141,-0.25561 4.5802321,-0.33802 17.7378038,-0.33802 16.908579,0 17.430593,-0.0161 18.491351,-0.56896 0.600366,-0.31293 1.343298,-0.85167 1.650957,-1.19719 0.6054,-0.6799 1.218479,-2.51875 1.218479,-3.65467 0,-1.54188 -1.554602,-4.15665 -2.471318,-4.15665 -0.220707,0 -0.800724,-0.18647 -1.288927,-0.41439 -0.73156,-0.34153 -3.121425,-0.42821 -13.591168,-0.49296 -8.852242,-0.0548 -12.823297,-0.17431 -13.098592,-0.39438 -0.217286,-0.1737 -1.092248,-0.48249 -1.944361,-0.68618 -0.852113,-0.2037 -1.7494172,-0.53693 -1.994011,-0.74052 -0.2445935,-0.20359 -0.5974124,-0.37016 -0.784042,-0.37016 -0.1866293,0 -1.4058262,-1.07131 -2.7093259,-2.3807 -1.8459237,-1.85425 -2.4624296,-2.67959 -2.7879893,-3.73239 -0.5405626,-1.74808 -1.0201884,-3.10428 -1.489291,-4.21117 -0.54366522,-1.28283 -0.51008153,-6.12132 0.04635,-6.67775 0.2323943,-0.2324 0.4225352,-0.81716 0.4225352,-1.29947 0,-1.6677 1.5101865,-4.26431 3.8388983,-6.60059 1.2046189,-1.20853 2.4498623,-2.31093 2.7672082,-2.44977 0.3173456,-0.13885 0.7671329,-0.36583 0.9995273,-0.5044 0.2323944,-0.13858 1.1308592,-0.45578 1.9965892,-0.7049 1.389317,-0.39979 4.306876,-0.45294 24.859154,-0.45294 l 23.285101,0 0,4.73239 c 0,3.30516 -0.101943,4.83434 -0.338028,5.07042 -0.255879,0.25588 -4.72542,0.33803 -18.391143,0.33803 -16.753512,0 -18.123917,0.0361 -19.036642,0.50143 -1.93728,0.98768 -2.877724,2.52686 -2.877724,4.70984 0,1.99359 1.233408,4.3662 2.269787,4.3662 0.220706,0 0.800722,0.18711 1.288925,0.4158 0.733114,0.34342 3.094397,0.42924 13.563699,0.49296 8.926605,0.0543 12.842698,0.17318 13.239436,0.40181 0.309859,0.17856 1.133803,0.47897 1.830986,0.66757 2.142285,0.57954 3.123555,1.18528 5.237485,3.23312 2.158357,2.09089 3.210439,3.57251 3.212166,4.52363 5.63e-4,0.31898 0.187163,0.82602 0.414631,1.12676 0.227465,0.30074 0.417605,0.87987 0.422535,1.28695 0.0049,0.40709 0.199099,0.89796 0.431493,1.09083 0.59978,0.49778 0.60707,6.12722 0.009,6.91799 -0.227465,0.30074 -0.417606,0.95923 -0.422535,1.46331 -0.0049,0.50409 -0.262479,1.38953 -0.572338,1.96767 -0.30986,0.57813 -0.563381,1.20095 -0.563381,1.38405 0,0.53344 -4.283284,4.93674 -5.211267,5.35723 -0.464789,0.2106 -1.035212,0.4892 -1.267606,0.6192 -0.232394,0.1299 -1.270237,0.5083 -2.306316,0.8408 -1.86069,0.5973 -2.15445,0.6047 -23.967134,0.6047 -12.145847,0 -22.1678642,-0.085 -22.2711504,-0.1878 z"
       style="opacity:1;fill:#000000;fill-opacity:1;stroke:#fdfdfd;stroke-width:0.28169015;stroke-opacity:1" />
    <path
       id="path4175"
       d="m 80.326092,1002.1248 c -1.264717,-0.3951 -4.507042,-2.0219 -4.507042,-2.26149 0,-0.12853 -0.348592,-0.36393 -0.774648,-0.52307 -0.869202,-0.32467 -3.169014,-2.3429 -3.169014,-2.78101 0,-0.15621 -0.414147,-0.84098 -0.920326,-1.52171 -1.072219,-1.44196 -2.178266,-3.62871 -2.178266,-4.30662 0,-0.25961 -0.191027,-0.76356 -0.424505,-1.11989 -0.369594,-0.56407 -0.41514,-3.14071 -0.352112,-19.91967 l 0.07239,-19.27179 7.386237,-0.0751 7.386238,-0.0751 0.07855,17.68072 0.07855,17.68072 0.779439,1.54929 c 0.955831,1.89992 2.532541,3.32523 4.496267,4.06454 1.353298,0.50949 2.327032,0.56698 10.99008,0.64886 l 9.50523,0.0898 0.0722,-20.7819 0.0722,-20.7819 7.67753,-0.075 7.67752,-0.0749 -0.0719,25.99044 -0.0719,25.99038 -21.5493,0.047 c -11.85201,0.026 -21.866094,-0.052 -22.253418,-0.1728 z"
       style="opacity:1;fill:#000000;fill-opacity:1;stroke:#fdfdfd;stroke-width:0.28169015;stroke-opacity:1" />
    <path
       id="path4177"
       d="m 134.43949,1002.0533 c -0.25786,-0.2578 -0.33803,-6.299 -0.33803,-25.47246 l 0,-25.13448 0.74221,-0.58383 c 0.73615,-0.57905 0.91406,-0.58372 21.76057,-0.57146 17.56899,0.0103 21.20326,0.079 22.14511,0.41829 0.61971,0.22326 1.33307,0.40784 1.58522,0.41017 0.25216,0.002 0.61627,0.19439 0.80914,0.42678 0.19287,0.2324 0.62525,0.42254 0.96085,0.42254 1.10207,0 2.68853,1.04355 4.78696,3.14879 2.02782,2.03441 2.99838,3.62403 3.40915,5.5836 0.11367,0.54225 0.38154,1.32821 0.59528,1.74658 0.56214,1.10034 0.53456,10.2167 -0.0339,11.21117 -0.22141,0.38732 -0.40706,1.06066 -0.41255,1.49631 -0.0357,2.8312 -5.85752,9.20791 -8.40669,9.20791 -0.27061,0 -0.80544,0.22183 -1.1885,0.49296 -0.63842,0.45186 -1.92943,0.49946 -15.48522,0.57092 -13.40959,0.0707 -14.82157,0.12168 -15.14084,0.5468 -0.2615,0.34818 -0.35211,2.43393 -0.35211,8.10513 0,5.56376 -0.0917,7.72808 -0.33803,7.97428 -0.48117,0.4812 -14.61743,0.4812 -15.09859,0 z m 36.56773,-27.65258 c 0.89582,-0.47279 1.48665,-1.0668 2.03132,-2.04225 0.69863,-1.25118 0.76866,-1.64323 0.77465,-4.33651 0.006,-2.8712 -0.0212,-3.00332 -0.90892,-4.35806 -1.54854,-2.36319 -1.87278,-2.42021 -13.26272,-2.33253 l -9.6246,0.0741 -0.0759,6.47278 c -0.0417,3.56003 -0.014,6.63397 0.0616,6.83099 0.10757,0.28032 2.26873,0.35821 9.93938,0.35821 9.76472,0 9.80673,-0.002 11.06518,-0.66672 z"
       style="opacity:1;fill:#000000;fill-opacity:1;stroke:#fdfdfd;stroke-width:0.28169015;stroke-opacity:1" />
    <path
       id="path4179"
       d="m 213.39723,1001.919 c -0.77465,-0.2322 -1.78873,-0.4916 -2.25352,-0.5766 -0.46479,-0.085 -1.28873,-0.4901 -1.83098,-0.9003 -0.54226,-0.4102 -1.55634,-1.11391 -2.25353,-1.56383 -1.41894,-0.9157 -5.07042,-4.35157 -5.07042,-4.77104 0,-0.1491 -0.24641,-0.53338 -0.54758,-0.85396 -0.93719,-0.9976 -3.67718,-6.62938 -3.68673,-7.57771 -0.005,-0.4894 -0.19507,-1.13587 -0.42253,-1.43661 -0.22747,-0.30074 -0.41807,-1.12468 -0.42356,-1.83099 -0.005,-0.7063 -0.19114,-1.60109 -0.41256,-1.98841 -0.5756,-1.00692 -0.57687,-6.68192 -0.002,-7.7847 0.23144,-0.44377 0.42158,-1.39344 0.42253,-2.11039 0.001,-0.81325 0.16066,-1.43542 0.42427,-1.6542 0.24829,-0.20606 0.42512,-0.83017 0.4288,-1.51337 0.004,-0.71814 0.21688,-1.43195 0.55712,-1.86692 0.30297,-0.38732 0.55367,-0.91857 0.55712,-1.18056 0.003,-0.26198 0.12783,-0.55146 0.27642,-0.64329 0.14858,-0.0918 0.60955,-0.92326 1.02438,-1.84761 0.41483,-0.92436 0.87015,-1.68065 1.01182,-1.68065 0.14168,0 0.43009,-0.41283 0.64092,-0.91741 0.45257,-1.08316 3.84827,-4.4347 4.49313,-4.4347 0.2458,0 0.44691,-0.12142 0.44691,-0.26982 0,-0.1484 0.60212,-0.61947 1.33803,-1.04682 0.73592,-0.42736 1.50554,-0.93975 1.71026,-1.13864 0.20473,-0.19889 0.65586,-0.36162 1.0025,-0.36162 0.34665,0 0.87633,-0.18611 1.17706,-0.41358 0.30074,-0.22747 0.99395,-0.41761 1.54046,-0.42254 0.54652,-0.005 1.26928,-0.202 1.60614,-0.43795 0.53508,-0.37478 2.7529,-0.41928 17.55028,-0.35211 16.39455,0.0744 16.95062,0.0944 17.33752,0.62368 0.61337,0.83905 0.57645,9.79961 -0.0429,10.419 -0.39123,0.39123 -2.16971,0.44265 -15.30883,0.44265 -16.68542,0 -15.66258,-0.12269 -17.90031,2.14716 -1.23424,1.25194 -3.5313,5.38211 -3.5313,6.34934 0,0.49693 0.72007,0.51759 18.04668,0.51759 11.90135,0 18.23223,0.0993 18.59155,0.2916 0.50468,0.27009 0.54487,0.63221 0.54487,4.90945 0,3.82247 -0.0763,4.6941 -0.44266,5.06052 -0.39325,0.39325 -2.46814,0.44265 -18.59155,0.44265 -18.11406,0 -18.14889,0.001 -18.14889,0.578 0,0.31789 0.24723,1.04677 0.54941,1.61971 0.30218,0.57295 0.62406,1.23187 0.71528,1.46426 0.69241,1.76397 3.65903,4.91261 5.32149,5.64799 0.70279,0.31088 1.35392,0.68839 1.44694,0.83891 0.10583,0.17122 5.46697,0.27367 14.32153,0.27367 10.63183,0 14.23648,0.0841 14.49042,0.33802 0.35643,0.35643 0.50216,8.76563 0.16704,9.63893 -0.15354,0.4001 -1.97116,0.443 -17.8169,0.4204 -14.80864,-0.021 -17.87238,-0.093 -19.05437,-0.4472 z"
       style="opacity:1;fill:#000000;fill-opacity:1;stroke:#fdfdfd;stroke-width:0.28169015;stroke-opacity:1" />
    <path
       id="path4181"
       d="m 259.07798,1002.2036 c -0.10328,-0.1033 -0.18779,-11.62299 -0.18779,-25.59932 0,-23.29174 0.0388,-25.44377 0.46573,-25.79813 0.38401,-0.31877 4.32532,-0.40137 22.46479,-0.47082 19.72877,-0.0755 22.17348,-0.0363 23.6892,0.37999 0.92958,0.25532 2.0266,0.6418 2.43783,0.85887 0.41122,0.21706 1.00428,0.39466 1.3179,0.39466 0.31363,0 0.76036,0.19014 0.99276,0.42253 0.23239,0.2324 0.60426,0.42254 0.82637,0.42254 0.22211,0 1.41103,1.04912 2.64205,2.33137 2.23991,2.33315 2.75165,3.24704 3.50537,6.26018 0.15502,0.61971 0.40135,1.24718 0.54739,1.39436 0.34995,0.35268 0.35102,10.57747 10e-4,10.57747 -0.14544,0 -0.34864,0.60211 -0.45156,1.33803 -0.31366,2.24264 -1.33789,4.0083 -3.76172,6.48481 -1.24778,1.2749 -2.4465,2.318 -2.66382,2.318 -0.21732,0 -0.55292,0.19014 -0.74579,0.42254 -0.19287,0.23239 -0.69579,0.42253 -1.1176,0.42253 -0.74242,0 -1.6993,0.73806 -1.6993,1.3107 0,0.15424 0.51261,0.77806 1.13914,1.38627 0.62654,0.60822 1.34099,1.48613 1.58769,1.95092 0.24669,0.46479 0.87492,1.32079 1.39606,1.90222 0.52114,0.58143 0.94753,1.18355 0.94753,1.33803 0,0.15448 0.50273,0.78361 1.11718,1.39805 0.61444,0.61445 1.42457,1.59685 1.80027,2.1831 0.3757,0.58626 1.14057,1.50276 1.69972,2.03668 0.55915,0.53391 1.01663,1.1205 1.01663,1.30353 0,0.18304 0.20335,0.50155 0.45188,0.7078 0.58896,0.48879 0.98398,1.54829 0.77769,2.08589 -0.1405,0.3661 -1.36541,0.425 -8.84522,0.425 -9.27693,0 -9.26051,0 -9.70882,-1.4101 -0.0981,-0.309 -0.28798,-0.5618 -0.42203,-0.5618 -0.13405,0 -0.33205,-0.2783 -0.44,-0.61839 -0.10796,-0.34012 -0.81369,-1.41395 -1.56828,-2.38628 -0.7546,-0.97232 -1.372,-1.8577 -1.372,-1.96749 0,-0.30747 -3.19598,-4.99976 -3.56954,-5.24074 -0.18155,-0.11711 -0.41346,-0.59247 -0.51534,-1.05633 -0.10188,-0.46387 -0.29951,-0.8434 -0.43918,-0.8434 -0.13966,0 -0.32997,-0.30294 -0.4229,-0.67321 -0.0929,-0.37026 -0.50732,-0.97237 -0.92086,-1.33802 -0.74339,-0.6573 -0.83542,-0.66581 -8.1331,-0.7522 -4.97151,-0.0589 -7.56942,0.0134 -7.95774,0.22118 -0.55939,0.29937 -0.57655,0.53813 -0.57655,8.02209 0,4.24244 -0.0769,7.91399 -0.17098,8.15909 -0.1499,0.3906 -1.08193,0.4456 -7.55869,0.4456 -4.06324,0 -7.47221,-0.085 -7.5755,-0.1878 z m 38.6522,-27.74882 c 1.407,-0.84581 1.81564,-1.31177 2.37043,-2.7029 0.6259,-1.56944 0.64296,-5.40078 0.032,-7.19377 -0.51323,-1.50623 -1.64158,-2.57975 -3.1526,-2.9994 -0.63611,-0.17667 -5.27976,-0.29156 -11.82224,-0.29252 l -10.77465,-0.002 0,6.71362 c 0,3.69249 0.0845,6.79812 0.18779,6.90141 0.10329,0.10328 5.12706,0.18779 11.16394,0.18779 10.77026,0 10.99525,-0.0115 11.9953,-0.61266 z"
       style="opacity:1;fill:#000000;fill-opacity:1;stroke:#fdfdfd;stroke-width:0.28169015;stroke-opacity:1" />
    <path
       id="path4183"
       d="m 354.18493,1002.2036 c -0.10329,-0.1033 -0.18779,-7.56665 -0.18779,-16.58524 0,-14.23185 0.0558,-16.44374 0.42253,-16.7481 0.23477,-0.19484 0.42254,-0.8089 0.42254,-1.38181 0,-0.68397 0.42934,-1.83413 1.27524,-3.41621 0.70139,-1.3118 1.41097,-2.73368 1.57685,-3.15973 0.16589,-0.42606 0.41427,-0.77465 0.55197,-0.77465 0.13769,0 0.42523,-0.41197 0.63898,-0.91549 0.45932,-1.08202 3.88009,-4.43662 4.52413,-4.43662 0.2458,0 0.44691,-0.12142 0.44691,-0.26982 0,-0.1484 0.60211,-0.61947 1.33803,-1.04682 0.73592,-0.42736 1.50553,-0.93975 1.71026,-1.13864 0.20473,-0.19889 0.64839,-0.36566 0.98592,-0.37058 0.33752,-0.005 0.85974,-0.19507 1.16048,-0.42254 0.30073,-0.22746 1.0014,-0.41357 1.55704,-0.41357 0.55563,0 1.28705,-0.19389 1.62537,-0.43086 0.53894,-0.37748 2.76503,-0.4211 17.97283,-0.35211 16.80911,0.0762 17.37033,0.096 17.75741,0.62554 0.5762,0.78824 0.57625,9.38566 6e-5,10.17401 -0.38496,0.5267 -0.96731,0.55197 -15.84507,0.68764 -11.08977,0.10113 -15.65733,0.23569 -16.19687,0.47716 -1.257,0.56259 -3.34656,2.88108 -4.1746,4.63196 -0.43056,0.91043 -0.93258,1.83575 -1.11559,2.05626 -0.18301,0.22052 -0.29288,0.88514 -0.24415,1.47693 l 0.0886,1.076 18.67233,0.14085 c 16.18704,0.1221 18.70786,0.19708 18.93935,0.56338 0.14686,0.23239 0.26896,2.46835 0.27133,4.96879 0.004,3.9186 -0.0637,4.6287 -0.48864,5.14339 -0.49202,0.59599 -0.52827,0.59727 -18.94367,0.66501 l -18.4507,0.0679 -0.0743,9.27162 c -0.0503,6.26881 -0.17547,9.39345 -0.3866,9.64785 -0.24651,0.297 -1.92651,0.3763 -7.97732,0.3763 -4.21577,0 -7.74954,-0.085 -7.85283,-0.1878 z"
       style="opacity:1;fill:#000000;fill-opacity:1;stroke:#fdfdfd;stroke-width:0.28169015;stroke-opacity:1" />
    <path
       id="path4185"
       d="m 423.71545,1001.7744 c -3.11838,-1.0695 -3.94915,-1.6024 -6.37629,-4.09018 -1.86293,-1.90951 -2.45948,-2.71487 -2.60762,-3.52038 -0.10565,-0.57444 -0.37671,-1.39838 -0.60235,-1.83098 -0.22565,-0.4326 -0.41105,-1.06428 -0.41201,-1.40373 -9.5e-4,-0.33944 -0.12849,-0.69552 -0.28342,-0.79127 -0.34998,-0.2163 -0.38142,-6.90141 -0.0325,-6.90141 0.13708,0 0.33523,-0.68831 0.44034,-1.52958 0.10511,-0.84127 0.36509,-1.67397 0.57773,-1.85045 0.21264,-0.17648 0.46362,-0.67143 0.55773,-1.0999 0.23208,-1.05665 4.28984,-5.15588 5.82296,-5.88247 0.67388,-0.31938 1.79567,-0.73928 2.49285,-0.93311 0.69718,-0.19383 1.44544,-0.48868 1.66278,-0.65522 0.2676,-0.20504 5.3374,-0.32851 15.70423,-0.38246 15.14305,-0.0788 15.30905,-0.0858 15.30905,-0.64842 0,-0.31281 -0.24092,-1.03752 -0.53537,-1.61047 -0.29445,-0.57295 -0.82734,-1.61214 -1.1842,-2.30933 -0.79262,-1.5485 -2.28716,-3.12536 -3.71154,-3.91596 -1.0452,-0.58015 -1.35014,-0.59108 -16.48661,-0.59108 -13.50195,0 -15.49965,-0.0546 -16.04777,-0.43851 -0.60497,-0.42373 -0.62606,-0.59893 -0.62606,-5.20029 0,-4.53579 0.0293,-4.78905 0.61649,-5.33614 0.60662,-0.56514 0.89519,-0.57435 17.99597,-0.57435 14.8687,0 17.49604,0.0608 18.18632,0.4208 0.44377,0.23143 1.18713,0.42561 1.65192,0.43149 0.46479,0.006 1.09113,0.1968 1.39187,0.42427 0.30074,0.22747 0.78871,0.41358 1.08439,0.41358 0.60471,0 4.14346,2.19871 4.14346,2.57443 0,0.13336 0.20247,0.24247 0.44993,0.24247 0.54388,0 4.3388,3.60332 4.3388,4.11975 0,0.20094 0.23732,0.59211 0.52738,0.86927 0.55934,0.53449 2.57122,4.2774 2.57122,4.78353 0,0.16462 0.18678,0.45433 0.41508,0.6438 0.22829,0.18946 0.4998,0.8071 0.60334,1.37252 0.10355,0.56541 0.36043,1.27807 0.57084,1.58366 0.31155,0.45249 0.38257,3.5988 0.38257,16.9488 0,9.01623 -0.0769,16.59362 -0.17099,16.83872 -0.15408,0.4015 -2.47154,0.4437 -23.4507,0.4269 -22.73664,-0.018 -23.31915,-0.032 -24.96986,-0.5983 z m 32.18945,-15.08724 0.0768,-5.14085 -10.65102,0 c -11.51755,0 -11.62855,0.0133 -13.2011,1.58589 -1.16847,1.16847 -1.58145,3.80366 -0.90169,5.75362 0.3726,1.06884 1.4998,2.23299 2.1766,2.24794 0.2485,0.005 0.76872,0.192 1.15605,0.41446 0.5825,0.33457 2.48142,0.39371 10.98591,0.34213 l 10.28169,-0.0623 0.0768,-5.14084 z"
       style="opacity:1;fill:#000000;fill-opacity:1;stroke:#fdfdfd;stroke-width:0.28169015;stroke-opacity:1" />
    <path
       id="path4187"
       d="m 480.93043,1001.9503 c -0.095,-0.2475 -0.17273,-11.69716 -0.17273,-25.44361 0,-21.13964 0.0616,-25.07786 0.39978,-25.54034 0.39087,-0.5346 1.08374,-0.54861 31.05634,-0.62791 30.40621,-0.0804 30.67151,-0.0763 32.48754,0.50588 1.00704,0.32284 2.27465,0.82779 2.8169,1.12211 0.54226,0.29432 1.2616,0.66203 1.59854,0.81713 0.33695,0.1551 1.64711,1.31094 2.91149,2.56854 2.24634,2.23429 4.22237,5.36379 4.22237,6.6871 0,0.27968 0.19275,0.7837 0.42833,1.12005 0.37493,0.53528 0.41883,2.98511 0.35211,19.65049 -0.0663,16.56085 -0.13121,19.07366 -0.49875,19.30596 -0.65392,0.4133 -14.45549,0.3554 -14.87324,-0.062 -0.25549,-0.2555 -0.33907,-4.57131 -0.34231,-17.67601 -0.003,-12.93385 -0.0927,-17.63337 -0.35222,-18.50072 -0.36944,-1.23448 -2.86893,-3.89654 -4.09697,-4.36345 -0.78536,-0.29859 -10.21554,-0.32783 -10.61695,-0.0329 -0.18322,0.13462 -0.28169,7.22631 -0.28169,20.28772 0,17.54309 -0.0534,20.11446 -0.42254,20.34776 -0.23679,0.1496 -3.5341,0.2689 -7.50072,0.2714 -5.58801,0 -7.14435,-0.075 -7.39247,-0.3744 -0.22327,-0.2691 -0.33524,-6.20401 -0.38661,-20.49295 l -0.0723,-20.11426 -6.90141,0 -6.90141,0 -0.14084,20.42253 -0.14085,20.42248 -7.50333,0.075 c -6.65821,0.067 -7.52278,0.024 -7.67605,-0.3752 z"
       style="opacity:1;fill:#000000;fill-opacity:1;stroke:#fdfdfd;stroke-width:0.28169015;stroke-opacity:1" />
    <path
       id="path4189"
       d="m 567.0343,1002.2036 c -0.10329,-0.1033 -0.1878,-11.62299 -0.1878,-25.59932 0,-23.30007 0.0387,-25.44364 0.4661,-25.79813 0.367,-0.3044 1.92904,-0.3866 7.34679,-0.3866 6.48605,0 6.9036,0.0314 7.28038,0.5468 0.33805,0.46247 0.39969,4.41795 0.39969,25.64789 0,19.14748 -0.0802,25.18126 -0.33803,25.43906 -0.36639,0.3664 -14.60802,0.5094 -14.96713,0.1503 z"
       style="opacity:1;fill:#000000;fill-opacity:1;stroke:#fdfdfd;stroke-width:0.28169015;stroke-opacity:1" />
    <path
       id="path4191"
       d="m 608.20749,1002.1254 c -1.24045,-0.2416 -6.21112,-2.6503 -6.71028,-3.25176 -0.19442,-0.23425 -0.50386,-0.42592 -0.68764,-0.42592 -0.46074,0 -3.77938,-3.32953 -4.795,-4.81074 -1.38115,-2.01431 -3.87095,-7.07739 -4.14486,-8.4287 -0.14132,-0.69718 -0.40803,-2.02817 -0.59269,-2.95774 -0.43741,-2.20199 -0.41397,-9.38767 0.0377,-11.5493 0.19422,-0.92958 0.42291,-2.19718 0.50819,-2.8169 0.0853,-0.61972 0.30599,-1.3169 0.49045,-1.5493 0.18447,-0.23239 0.63989,-1.11971 1.01204,-1.97183 0.37215,-0.85211 0.82042,-1.73943 0.99615,-1.97183 0.17573,-0.23239 0.48253,-0.83451 0.68177,-1.33803 0.19924,-0.50352 0.45329,-0.91549 0.56456,-0.91549 0.11126,0 0.35164,-0.32777 0.53417,-0.72839 0.68223,-1.49732 3.66152,-4.22701 6.63713,-6.08107 1.12089,-0.69841 4.53169,-2.20462 4.99234,-2.20462 0.30714,0 1.15268,-0.19426 1.87898,-0.43169 1.13659,-0.37156 3.58967,-0.4206 17.61098,-0.35211 15.75205,0.0769 16.30366,0.0976 16.69014,0.62637 0.60842,0.83234 0.57236,8.39522 -0.043,9.01054 -0.39046,0.39047 -2.08256,0.44266 -14.3501,0.44266 -13.88771,0 -13.90896,8.9e-4 -14.97988,0.62965 -1.24939,0.73354 -5.15694,4.63475 -5.15694,5.14856 0,0.1925 -0.1838,0.50253 -0.40845,0.68897 -0.88649,0.73572 -1.79378,3.26196 -2.02679,5.64333 -0.0681,0.696 -0.24521,1.38684 -0.39359,1.53521 -0.35868,0.35869 -0.34812,4.86415 0.0119,5.08668 0.15493,0.0957 0.28169,0.63296 0.28169,1.1938 0,1.09651 0.40045,2.57755 1.02183,3.77923 0.21264,0.41123 0.38663,0.95395 0.38663,1.20603 0,0.25208 0.19627,0.53365 0.43615,0.6257 0.23989,0.092 0.58848,0.53091 0.77465,0.97524 0.46107,1.1004 4.29588,4.94392 5.14549,5.15716 0.37728,0.0947 0.68596,0.29651 0.68596,0.44848 0,0.17699 5.11033,0.27633 14.21544,0.27633 13.76609,0 14.22466,0.0172 14.50704,0.54486 0.42163,0.78782 0.3817,8.26642 -0.0464,8.69452 -0.25624,0.2563 -4.49858,0.3302 -17.53521,0.3057 -9.45845,-0.018 -17.6622,-0.123 -18.23056,-0.2336 z"
       style="opacity:1;fill:#000000;fill-opacity:1;stroke:#fdfdfd;stroke-width:0.28169015;stroke-opacity:1" />
    <path
       id="path4193"
       d="m 665.5789,1002.1982 c -1.0819,-0.2455 -3.10195,-1.0318 -3.52113,-1.3705 -0.23239,-0.1879 -0.73943,-0.4327 -1.12676,-0.5442 -0.38732,-0.1115 -1.17214,-0.57018 -1.74404,-1.01926 -0.57191,-0.44909 -1.16257,-0.81652 -1.31258,-0.81652 -0.45925,0 -3.84156,-3.43551 -4.85325,-4.92958 -1.26982,-1.87528 -3.91632,-7.18489 -3.91899,-7.86256 -0.001,-0.29625 -0.18452,-1.18357 -0.40746,-1.97183 -0.90364,-3.1952 -1.06419,-4.59391 -0.90972,-7.92564 0.0858,-1.8517 0.28475,-4.00053 0.44201,-4.77518 0.61547,-3.03175 1.02665,-4.57827 1.31794,-4.95689 0.16723,-0.21737 0.59315,-1.0924 0.9465,-1.94452 0.35334,-0.85211 0.81863,-1.74942 1.03398,-1.99401 0.21534,-0.24459 0.39153,-0.57504 0.39153,-0.73433 0,-0.81349 5.00766,-6.56093 5.72074,-6.56586 0.12528,-8.7e-4 0.6957,-0.369 1.26761,-0.81809 0.5719,-0.44908 1.35672,-0.90774 1.74404,-1.01923 0.38733,-0.1115 0.89437,-0.35408 1.12676,-0.53908 0.49581,-0.3947 2.15807,-1.06406 3.94366,-1.58805 0.95152,-0.27922 4.67441,-0.3956 14.92958,-0.4667 11.68247,-0.081 13.85331,-0.0322 14.98251,0.33645 0.72629,0.23713 1.56891,0.43116 1.87247,0.43116 0.44697,0 3.69903,1.43981 4.99884,2.21318 2.80891,1.67125 6.31002,4.88993 6.71832,6.17635 0.10902,0.3435 0.30404,0.62455 0.43337,0.62455 0.12934,0 0.37692,0.34859 0.5502,0.77465 0.17327,0.42605 0.75335,1.59859 1.28907,2.60563 0.53572,1.00704 0.97677,1.98944 0.98012,2.1831 0.003,0.19366 0.1271,0.35211 0.27501,0.35211 0.14791,0 0.34199,0.47536 0.43129,1.05634 0.0893,0.58099 0.38025,1.69014 0.64656,2.46479 0.71822,2.08911 0.71049,12.5101 -0.0103,13.91652 -0.27026,0.52732 -0.49138,1.27775 -0.49138,1.66761 0,0.79762 -3.17771,7.41821 -3.81402,7.94629 -0.22623,0.18776 -0.41133,0.49042 -0.41133,0.67258 0,0.50921 -2.79823,3.3283 -4.47013,4.50345 -2.30247,1.61838 -5.43883,3.21217 -7.24891,3.68357 -1.37189,0.3574 -4.04897,0.4216 -16.43874,0.3942 -8.13999,-0.018 -15.0535,-0.09 -15.36336,-0.1605 z m 24.50704,-9.74282 c 1.75802,-0.97493 5.16311,-4.26521 5.67796,-5.48653 0.21227,-0.50352 0.48107,-0.9155 0.59735,-0.9155 0.47327,0 1.72356,-3.41788 2.21547,-6.05633 0.77761,-4.17091 -0.52629,-11.63186 -2.2884,-13.09428 -0.23525,-0.19524 -0.42773,-0.51504 -0.42773,-0.71065 0,-0.76061 -4.21373,-4.68146 -6.07224,-5.65019 l -1.85602,-0.96742 -6.70429,0 c -7.11676,0 -7.08703,-0.005 -9.80063,1.52433 -1.04745,0.59018 -3.92365,3.46604 -4.59818,4.59764 -0.34788,0.58362 -0.81135,1.20781 -1.02992,1.38709 -0.57959,0.4754 -1.75538,3.9959 -1.77272,5.30784 -0.008,0.61972 -0.20101,1.37282 -0.42848,1.67356 -0.5368,0.70971 -0.55953,4.04443 -0.0328,4.81306 0.20942,0.3056 0.46136,1.35138 0.55987,2.32395 0.20259,2.00009 0.8994,3.70552 2.36728,5.79389 1.12775,1.60446 4.47221,4.97301 4.93744,4.97301 0.16601,0 0.50196,0.17934 0.74656,0.39853 0.91968,0.82418 2.47797,0.97622 9.4588,0.92288 l 7.04225,-0.0538 1.40845,-0.78107 z"
       style="opacity:1;fill:#000000;fill-opacity:1;stroke:#fdfdfd;stroke-width:0.28169015;stroke-opacity:1" />
    <path
       id="path4195"
       d="m 722.67749,1002.0533 c -0.25789,-0.2578 -0.33803,-6.32764 -0.33803,-25.60135 l 0,-25.26338 0.69432,-0.45493 c 0.62828,-0.41167 3.57934,-0.45493 31.03158,-0.45493 27.0313,0 30.50879,0.0494 31.91132,0.45294 0.86573,0.24912 1.76419,0.56683 1.99658,0.70602 0.2324,0.13919 0.61268,0.32372 0.84508,0.41008 2.44392,0.90812 6.78075,5.10875 8.20568,7.94798 l 0.94924,1.89143 0,20.28169 0,20.28165 -7.46478,0 -7.46479,0 -0.14085,-18.16898 c -0.15705,-20.25907 0.0303,-18.41293 -2.11145,-20.80392 -1.65378,-1.84621 -2.32972,-2.01298 -8.15902,-2.01298 l -5.22249,0 -0.004,20.21127 c -0.002,11.1162 -0.10625,20.37181 -0.23084,20.56811 -0.17552,0.2766 -1.90319,0.34 -7.67174,0.2817 l -7.44522,-0.075 -0.14084,-20.4225 -0.14085,-20.42253 -6.76056,0 -6.76056,0 -0.14085,20.22164 c -0.12234,17.56437 -0.19637,20.25669 -0.56338,20.48859 -0.65394,0.4133 -14.45552,0.3554 -14.87324,-0.062 z"
       style="opacity:1;fill:#000000;fill-opacity:1;stroke:#fdfdfd;stroke-width:0.28169015;stroke-opacity:1" />
    <path
       id="path4197"
       d="m 0.14084508,1045.9125 0,-5.2113 9.54526562,0 c 7.9193133,0 9.6827043,-0.072 10.3521123,-0.4208 0.443766,-0.2314 1.010659,-0.4215 1.259762,-0.4225 0.249103,-10e-4 1.285056,-0.4355 2.302118,-0.9656 2.31179,-1.205 7.244967,-6.0229 7.244967,-7.0757 0,-0.3696 0.259459,-1.3302 0.576578,-2.1348 0.382183,-0.9696 0.548385,-1.9466 0.492957,-2.8977 l -0.08362,-1.435 -14.647888,-0.071 c -13.3722916,-0.065 -14.6785491,-0.1124 -14.9999984,-0.5468 -0.2466181,-0.3332 -0.3521126,-1.8039 -0.3521126,-4.9089 0,-3.6544 0.077745,-4.5108 0.4426559,-4.8757 0.3934455,-0.3934 2.503419,-0.4427 18.9795931,-0.4427 15.771874,0 18.587044,0.06 18.87286,0.4048 0.247536,0.2983 0.312198,2.5067 0.245758,8.3934 -0.07943,7.0376 -0.148851,8.0781 -0.583121,8.7403 -0.271127,0.4134 -0.496921,0.9779 -0.501766,1.2545 -0.0048,0.2765 -0.320589,1.1366 -0.701651,1.9113 -0.381062,0.7746 -0.694,1.6407 -0.695417,1.9245 -0.0014,0.2839 1.0432,1.637 2.321369,3.0069 4.241817,4.5463 6.126761,6.7509 6.126761,7.1656 0,0.2256 0.158451,0.5119 0.352112,0.6362 0.193662,0.1243 0.658243,0.573 1.0324,0.9971 0.585417,0.6636 0.635364,0.8697 0.358153,1.4782 l -0.322136,0.707 -4.75896,0 -4.758961,0 -2.019991,-2.1266 c -1.110997,-1.1695 -2.156648,-2.4264 -2.323671,-2.793 -0.406388,-0.8919 -1.205574,-1.0566 -1.95849,-0.4036 -0.338929,0.2939 -0.74531,0.5344 -0.903067,0.5344 -0.157758,0 -0.491922,0.1856 -0.742589,0.4125 -0.596907,0.5402 -4.178906,2.4044 -4.619933,2.4044 -0.188378,0 -0.837551,0.2524 -1.442607,0.5609 -0.605056,0.3085 -1.520583,0.6398 -2.034504,0.7362 -0.513921,0.096 -1.003863,0.2876 -1.08876,0.425 -0.08524,0.1379 -4.813832,0.2498 -10.560269,0.2498 l -10.40590992,0 0,-5.2113 z"
       style="opacity:1;fill:#000000;fill-opacity:1;stroke:#fdfdfd;stroke-width:0.28169015;stroke-opacity:1" />
    <path
       id="path4199"
       d="m 45.986603,1037.1237 c -1.027142,-0.1615 -1.093344,-0.5319 -0.996926,-5.5774 l 0.08075,-4.2254 16.72899,-0.073 c 12.121565,-0.053 16.834664,0.015 17.112675,0.2457 0.293107,0.2433 0.383687,1.333 0.383687,4.6157 0,3.6527 -0.06983,4.3552 -0.465608,4.6838 -0.381383,0.3167 -3.324169,0.3925 -16.267607,0.4193 -8.691098,0.018 -16.150278,-0.022 -16.575956,-0.089 z"
       style="opacity:1;fill:#000000;fill-opacity:1;stroke:#fdfdfd;stroke-width:0.28169015;stroke-opacity:1" />
    <path
       id="path4201"
       d="m 78.225352,1050.7857 c -0.475532,-0.4755 -0.475532,-10.116 0,-10.5915 0.208597,-0.2086 1.26022,-0.3415 2.746479,-0.347 1.669931,-0.01 2.576118,-0.1358 2.955248,-0.4225 0.300738,-0.2275 1.075897,-0.4136 1.722574,-0.4136 0.749244,0 1.4356,-0.2044 1.892,-0.5634 0.393922,-0.3098 0.829813,-0.5634 0.968646,-0.5634 0.799985,0 3.45757,-3.7854 3.471513,-4.9447 0.0055,-0.4565 0.191139,-1.1468 0.412554,-1.5341 0.32146,-0.5624 0.404583,-2.2679 0.412553,-8.4648 0.0073,-5.6489 0.101964,-7.8526 0.34801,-8.0986 0.544126,-0.5442 6.263881,-0.4565 6.82495,0.1046 0.657591,0.6576 0.656571,21.8687 -0.0011,23.7827 -0.617499,1.7969 -2.095691,4.7887 -2.366029,4.7887 -0.125229,0 -0.30281,0.2852 -0.394624,0.6338 -0.197976,0.7517 -2.605038,3.3099 -3.114312,3.3099 -0.194966,0 -0.580263,0.2495 -0.856216,0.5544 -0.275952,0.3049 -1.659248,1.1289 -3.073989,1.831 l -2.572257,1.2766 -4.518965,0 c -3.139164,0 -4.622177,-0.1032 -4.856993,-0.3381 z"
       style="opacity:1;fill:#000000;fill-opacity:1;stroke:#fdfdfd;stroke-width:0.28169015;stroke-opacity:1" />
    <path
       id="path4203"
       d="m 115.6005,1049.7621 c -3.04161,-1.6468 -4.01538,-2.2577 -5.01375,-3.1454 -1.04507,-0.9292 -3.68534,-4.7824 -3.68534,-5.3783 0,-0.2575 -0.19014,-0.626 -0.42254,-0.8189 -0.23239,-0.1928 -0.42331,-0.6203 -0.42427,-0.9499 -9.5e-4,-0.3297 -0.19109,-0.9624 -0.42253,-1.4062 -0.35195,-0.6748 -0.4208,-2.576 -0.4208,-11.6197 0,-12.9634 -0.32449,-11.9397 3.78448,-11.9397 1.46174,0 2.97579,0.121 3.36456,0.2688 l 0.70684,0.2687 0.0861,8.2801 c 0.0575,5.5238 0.19035,8.4115 0.39917,8.6749 0.17217,0.2172 0.38887,0.8877 0.48156,1.4901 0.0927,0.6023 0.42718,1.3361 0.74331,1.6307 0.31613,0.2945 0.57478,0.7094 0.57478,0.922 0,0.4745 1.58366,1.845 2.13191,1.845 0.21919,0 0.55686,0.2536 0.75037,0.5634 0.27665,0.443 0.65691,0.5634 1.77953,0.5634 0.81924,0 1.66073,0.1762 1.9745,0.4136 0.36952,0.2795 1.26055,0.4164 2.74841,0.4225 3.45183,0.014 3.29134,-0.2537 3.29134,5.4917 0,4.0786 -0.0742,4.9737 -0.44266,5.3422 -0.36806,0.3681 -1.21062,0.4387 -5,0.419 l -4.55734,-0.024 -2.42767,-1.3144 z"
       style="opacity:1;fill:#000000;fill-opacity:1;stroke:#fdfdfd;stroke-width:0.28169015;stroke-opacity:1" />
    <path
       id="path4205"
       d="m 119.17427,1028.2091 c -1.46786,-0.4086 -4.12669,-2.8849 -4.62585,-4.3083 -1.02236,-2.9153 -0.49405,-5.5404 1.53419,-7.6229 1.61639,-1.6596 3.66864,-2.431 6.03231,-2.2674 1.00828,0.07 2.27589,0.3551 2.81691,0.6341 1.71824,0.8861 3.24102,2.6888 3.91409,4.6337 0.64158,1.8539 0.61197,2.7502 -0.13834,4.1884 -0.21684,0.4156 -0.39562,0.8824 -0.39729,1.0373 -0.004,0.3737 -1.46802,1.921 -2.60913,2.7578 -1.70846,1.2528 -4.15424,1.6077 -6.52689,0.9473 z m 3.76181,-6.1211 c 0.47671,-0.4767 0.86674,-1.034 0.86674,-1.2384 0,-0.4029 -1.8253,-2.1202 -2.25352,-2.1202 -0.14415,0 -0.71358,0.3964 -1.26541,0.8809 -1.13551,0.997 -1.11991,1.5797 0.0719,2.6842 0.94926,0.8798 1.54146,0.8324 2.58031,-0.2065 z"
       style="opacity:1;fill:#000000;fill-opacity:1;stroke:#fdfdfd;stroke-width:0.28169015;stroke-opacity:1" />
    <path
       id="path4207"
       d="m 128.92849,1037.1246 c -0.37413,-0.074 -0.77151,-0.4474 -0.9383,-0.8816 -0.33051,-0.8603 -0.22561,-8.169 0.12503,-8.7108 0.1781,-0.2752 3.88403,-0.3521 16.96192,-0.3521 16.25614,0 16.74235,0.016 17.02563,0.5449 0.4656,0.87 0.3761,8.2459 -0.1081,8.9083 -0.38698,0.5294 -0.90886,0.548 -16.40844,0.5833 -8.80482,0.02 -16.3008,-0.021 -16.65774,-0.092 z"
       style="opacity:1;fill:#000000;fill-opacity:1;stroke:#fdfdfd;stroke-width:0.28169015;stroke-opacity:1" />
    <path
       id="path4209"
       d="m 176.08648,1050.6782 c -0.33702,-0.8783 -0.18965,-10.1273 0.16704,-10.484 0.25142,-0.2514 3.16864,-0.338 11.38563,-0.338 9.00353,0 11.19514,-0.074 11.84507,-0.4016 0.43861,-0.2209 1.74818,-0.6963 2.91015,-1.0564 2.66417,-0.8256 4.39373,-1.9971 5.56824,-3.7714 l 0.92036,-1.3904 -0.0753,-4.3662 -0.0753,-4.3662 -17.68384,-0.072 -17.68383,-0.072 -0.27391,-0.7205 c -0.15066,-0.3962 -0.27392,-2.3601 -0.27392,-4.3641 0,-3.268 0.0581,-3.7017 0.56338,-4.207 0.55342,-0.5534 0.93897,-0.5633 21.81087,-0.5633 18.94031,0 21.29555,0.048 21.69014,0.4426 0.38505,0.3851 0.44266,1.6887 0.44266,10.0176 0,9.0277 -0.0346,9.6827 -0.60597,11.4588 -0.62217,1.9342 -1.34131,3.7112 -2.16525,5.3505 -0.59554,1.1849 -5.17475,5.6882 -5.78406,5.6882 -0.25234,0 -0.45881,0.1164 -0.45881,0.2587 0,0.5823 -2.90582,1.9544 -5.49296,2.5938 -0.61972,0.1531 -1.24718,0.3979 -1.39436,0.5439 -0.15945,0.1582 -5.29914,0.2656 -12.71634,0.2656 -11.09177,0 -12.46738,-0.049 -12.61972,-0.4456 z"
       style="opacity:1;fill:#000000;fill-opacity:1;stroke:#fdfdfd;stroke-width:0.28169015;stroke-opacity:1" />
    <path
       id="path4211"
       d="m 223.266,1050.7332 c -0.2197,-0.2647 -0.29887,-1.6899 -0.24576,-4.4242 l 0.0784,-4.0338 0.70423,-0.1955 c 0.38732,-0.1076 2.91133,-0.2082 5.6089,-0.2236 l 4.90468,-0.028 0.94017,-1.0563 c 0.86276,-0.9694 0.94019,-1.2085 0.94039,-2.904 3.5e-4,-2.9019 -0.34394,-2.7681 7.36562,-2.8609 6.20268,-0.075 6.70417,-0.119 7.28585,-0.6436 0.77593,-0.6998 1.19067,-1.7387 0.97075,-2.4316 -0.16029,-0.505 -0.7653,-0.5261 -15.05456,-0.5261 -8.18815,0 -15.08806,-0.077 -15.33313,-0.171 -0.66625,-0.2557 -0.66625,-7.8531 0,-8.1088 0.24507,-0.094 8.77605,-0.1709 18.95775,-0.1709 14.02277,0 18.59414,0.082 18.8502,0.338 0.47388,0.4739 0.44291,11.446 -0.0372,13.1831 -0.80436,2.9101 -2.08118,4.4804 -4.8475,5.9617 l -1.67868,0.8989 -5.28169,0.1172 -5.28169,0.1172 0,1.434 c 0,2.4326 -1.24891,4.397 -3.53708,5.5636 -0.9966,0.5081 -1.67914,0.5553 -8.03729,0.5553 -5.57945,0 -7.01205,-0.077 -7.27231,-0.3906 z"
       style="opacity:1;fill:#000000;fill-opacity:1;stroke:#fdfdfd;stroke-width:0.28169015;stroke-opacity:1" />
    <path
       id="path4213"
       d="m 301.54882,1051.5463 c -0.54478,-0.2098 -2.12657,-0.3893 -3.53521,-0.4011 -1.61338,-0.014 -2.67634,-0.1485 -2.89534,-0.3675 -0.2033,-0.2033 -1.70818,-0.4406 -3.64789,-0.5752 -1.81601,-0.1261 -4.50607,-0.3448 -5.9779,-0.4862 -1.47183,-0.1413 -4.07042,-0.3427 -5.77465,-0.4474 -1.87187,-0.1151 -3.31856,-0.3432 -3.65422,-0.5763 -0.3717,-0.258 -1.41011,-0.3857 -3.13682,-0.3857 -1.74178,0 -2.84356,-0.1369 -3.38802,-0.4208 -0.54138,-0.2824 -1.64563,-0.4214 -3.35615,-0.4226 -1.60501,0 -2.6745,-0.1269 -2.88732,-0.3397 -0.22862,-0.2287 -0.33803,-1.5365 -0.33803,-4.0409 0,-4.8433 -0.0927,-4.7454 4.27489,-4.5204 7.04944,0.3631 9.51094,0.5983 9.85306,0.9415 0.23086,0.2317 1.25353,0.3522 2.98916,0.3522 1.48072,0 2.90819,0.1449 3.25352,0.3304 0.34191,0.1836 3.22348,0.4827 6.48562,0.6731 3.46644,0.2024 5.99841,0.4708 6.1831,0.6555 0.18286,0.1829 1.37159,0.3135 2.86206,0.3145 1.71052,0 2.81477,0.1402 3.35614,0.4226 0.53458,0.2788 1.63034,0.4208 3.24718,0.4208 3.66806,0 3.69347,0.031 3.68814,4.4526 -0.002,1.9665 -0.0974,3.715 -0.21127,3.8855 -0.46377,0.6945 -1.56111,0.9566 -3.92083,0.9362 -1.36582,-0.012 -2.92697,-0.1923 -3.46922,-0.4011 z"
       style="opacity:1;fill:#000000;fill-opacity:1;stroke:#fdfdfd;stroke-width:0.28169015;stroke-opacity:1" />
    <path
       id="path4215"
       d="m 301.54882,1039.5745 c -0.38732,-0.1241 -1.92462,-0.2382 -3.41621,-0.2536 -2.041,-0.021 -2.79875,-0.1327 -3.06266,-0.4507 -0.26641,-0.321 -0.98989,-0.4225 -3.01076,-0.4225 -1.52109,0 -2.92354,-0.1433 -3.27537,-0.3347 -0.35114,-0.191 -3.13182,-0.4764 -6.4773,-0.6648 -3.58021,-0.2016 -5.987,-0.4551 -6.1831,-0.6512 -0.19184,-0.1919 -1.32248,-0.3211 -2.809,-0.3211 -1.57424,0 -2.85931,-0.1552 -3.49919,-0.4226 -0.61839,-0.2583 -1.90377,-0.4225 -3.30856,-0.4225 -3.50486,0 -3.55039,-0.057 -3.54509,-4.4526 0.002,-1.9666 0.0975,-3.715 0.21127,-3.8855 0.45548,-0.6821 1.54703,-0.9575 3.77999,-0.9534 1.31951,0 2.83451,0.1815 3.46922,0.4101 0.65373,0.2356 2.19699,0.4112 3.67606,0.4183 1.64943,0.01 2.67316,0.1367 2.90022,0.3645 0.20641,0.2071 1.59268,0.4373 3.3662,0.5588 1.65839,0.1137 4.34625,0.3334 5.97301,0.4881 1.62676,0.1548 4.37953,0.3606 6.11725,0.4572 2.17907,0.1213 3.26057,0.2976 3.4852,0.5683 0.23817,0.2869 1.09233,0.3948 3.17852,0.4014 2.06101,0.01 3.0046,0.1237 3.39963,0.4225 0.38914,0.2943 1.29705,0.4136 3.1489,0.4136 3.52235,0 3.4874,-0.044 3.4874,4.3863 0,4.6208 -0.0155,4.6386 -4.01408,4.5997 -1.58803,-0.015 -3.20423,-0.1296 -3.59155,-0.2536 z"
       style="opacity:1;fill:#000000;fill-opacity:1;stroke:#fdfdfd;stroke-width:0.28169015;stroke-opacity:1" />
    <path
       id="path4217"
       d="m 301.40797,1027.5925 c -0.50967,-0.2334 -1.85686,-0.392 -3.39436,-0.3997 -1.64889,-0.01 -2.67332,-0.1371 -2.90044,-0.3648 -0.21079,-0.2114 -1.61257,-0.4328 -3.50704,-0.5539 -1.73575,-0.111 -4.55027,-0.3389 -6.25449,-0.5064 -1.70423,-0.1674 -4.363,-0.3746 -5.90839,-0.4603 -1.71679,-0.095 -3.0287,-0.3092 -3.37254,-0.55 -0.38367,-0.2688 -1.41675,-0.3974 -3.24654,-0.4042 -1.79388,-0.01 -2.91731,-0.1434 -3.38803,-0.4125 -0.46328,-0.2649 -1.57642,-0.406 -3.25352,-0.4126 -1.59459,-0.01 -2.67588,-0.1366 -2.88732,-0.348 -0.22897,-0.229 -0.33803,-1.5447 -0.33803,-4.078 0,-5.2374 -1.01482,-4.8459 10.6209,-4.097 1.89308,0.1219 3.29655,0.3441 3.50705,0.5553 0.23086,0.2316 1.25353,0.3521 2.98916,0.3521 1.59377,0 2.88183,0.1393 3.25352,0.3519 0.57675,0.3299 2.13626,0.4873 9.06599,0.9152 1.5493,0.096 3.07042,0.2881 3.38028,0.4276 0.30986,0.1395 1.86747,0.2906 3.46135,0.3358 1.79557,0.051 2.97428,0.2054 3.09859,0.4061 0.12258,0.1978 1.30728,0.3622 3.04543,0.4225 1.86935,0.065 3.00427,0.2312 3.30986,0.4852 0.38758,0.3223 0.46505,0.9828 0.46505,3.965 0,3.3763 -0.0368,3.613 -0.65195,4.1909 -0.5832,0.5479 -0.94716,0.6101 -3.45071,0.5896 -1.7286,-0.014 -3.12187,-0.1708 -3.64382,-0.4098 z"
       style="opacity:1;fill:#000000;fill-opacity:1;stroke:#fdfdfd;stroke-width:0.28169015;stroke-opacity:1" />
    <path
       id="path4219"
       d="m 313.45023,1052.064 c -0.26318,-0.1062 -0.35211,-1.4082 -0.35211,-5.1546 0,-4.318 0.0645,-5.066 0.46564,-5.399 0.38008,-0.3156 3.80921,-0.4125 18.66197,-0.5275 l 18.19633,-0.1408 0.0754,-7.0146 c 0.067,-6.229 0.0227,-7.0728 -0.39578,-7.5352 -0.44881,-0.4959 -1.3134,-0.5206 -18.19254,-0.5206 -11.67708,0 -17.90718,-0.1 -18.2662,-0.2916 -0.50255,-0.269 -0.54486,-0.6292 -0.54486,-4.638 0,-4.0089 0.0423,-4.369 0.54486,-4.638 0.75505,-0.4041 44.07072,-0.4041 44.82577,0 0.52981,0.2835 0.54486,0.7805 0.54486,17.9953 l 0,17.7037 -0.6338,0.1699 c -0.76009,0.2037 -44.42414,0.1949 -44.92958,-0.01 l 0,0 z"
       style="opacity:1;fill:#000000;fill-opacity:1;stroke:#fdfdfd;stroke-width:0.28169015;stroke-opacity:1" />
    <path
       id="path4221"
       d="m 364.245,1025.329 c -0.36235,-0.3623 -0.44266,-1.1954 -0.44266,-4.5916 0,-2.8513 0.10572,-4.2546 0.33803,-4.4869 0.25328,-0.2533 3.64474,-0.338 13.5281,-0.338 l 13.19007,0 0.27472,0.7226 c 0.15109,0.3974 0.27471,2.4165 0.27471,4.4869 0,3.0465 -0.0844,3.8487 -0.44265,4.207 -0.38954,0.3895 -1.99256,0.4427 -13.36016,0.4427 -11.3676,0 -12.97062,-0.053 -13.36016,-0.4427 z"
       style="opacity:1;fill:#000000;fill-opacity:1;stroke:#fdfdfd;stroke-width:0.28169015;stroke-opacity:1" />
    <path
       id="path4223"
       d="m 364.15445,1052.0721 c -0.42931,-0.1831 -0.49912,-9.0118 -0.0765,-9.6807 0.23007,-0.3642 2.13976,-0.4337 13.82431,-0.5034 10.7485,-0.064 13.68334,-0.1592 14.16537,-0.4593 0.33439,-0.2081 1.18406,-0.4509 1.88814,-0.5396 1.78006,-0.2242 2.37926,-0.5993 4.69693,-2.9402 1.55011,-1.5657 2.07113,-2.2955 2.21188,-3.0986 0.10128,-0.5778 0.36005,-1.3312 0.57505,-1.6744 0.30956,-0.494 0.39092,-2.2851 0.39092,-8.6056 0,-5.8324 0.091,-8.0728 0.33803,-8.3198 0.39301,-0.393 6.33863,-0.4719 6.9378,-0.092 0.304,0.1927 0.35698,2.4117 0.28169,11.7974 -0.0845,10.5358 -0.13641,11.6083 -0.58569,12.1044 -0.27113,0.2995 -0.49296,0.7524 -0.49296,1.0066 0,1.0512 -1.36207,3.0174 -3.68548,5.32 -2.01469,1.9967 -2.8994,2.6476 -4.81395,3.5416 -5.00312,2.3363 -3.39994,2.1595 -20.23296,2.2304 -8.28873,0.035 -15.22887,0 -15.42254,-0.087 z"
       style="opacity:1;fill:#000000;fill-opacity:1;stroke:#fdfdfd;stroke-width:0.28169015;stroke-opacity:1" />
  </g>
</svg>
