<?xml version="1.0" encoding="UTF-8" standalone="no"?>
<!-- Created with Inkscape (http://www.inkscape.org/) -->

<svg
   xmlns:dc="http://purl.org/dc/elements/1.1/"
   xmlns:cc="http://creativecommons.org/ns#"
   xmlns:rdf="http://www.w3.org/1999/02/22-rdf-syntax-ns#"
   xmlns:svg="http://www.w3.org/2000/svg"
   xmlns="http://www.w3.org/2000/svg"
   xmlns:sodipodi="http://sodipodi.sourceforge.net/DTD/sodipodi-0.dtd"
   xmlns:inkscape="http://www.inkscape.org/namespaces/inkscape"
   width="200"
   height="35"
   id="svg4139"
   version="1.1"
   inkscape:version="0.48.0 r9654"
   sodipodi:docname="SG-1000_Logo.svg">
  <defs
     id="defs3" />
  <sodipodi:namedview
     inkscape:document-units="mm"
     id="base"
     pagecolor="#ffffff"
     bordercolor="#666666"
     borderopacity="1.0"
     inkscape:pageopacity="0.0"
     inkscape:pageshadow="2"
     inkscape:zoom="1.0787109"
     inkscape:cx="350"
     inkscape:cy="114.59132"
     inkscape:current-layer="layer1"
     showgrid="false"
     inkscape:window-width="1680"
     inkscape:window-height="988"
     inkscape:window-x="-8"
     inkscape:window-y="-8"
     inkscape:window-maximized="1" />
  <metadata
     id="metadata4">
    <rdf:RDF>
      <cc:Work
         rdf:about="">
        <dc:format>image/svg+xml</dc:format>
        <dc:type
           rdf:resource="http://purl.org/dc/dcmitype/StillImage" />
        <dc:title></dc:title>
      </cc:Work>
    </rdf:RDF>
  </metadata>
  <g
     inkscape:label="Layer 1"
     inkscape:groupmode="layer"
     id="layer1"
     transform="translate(0,-1017.3622)">
    <g
       style="font-size:40px;font-style:normal;font-variant:normal;font-weight:normal;font-stretch:normal;text-align:start;line-height:125%;letter-spacing:0px;word-spacing:0px;writing-mode:lr-tb;text-anchor:start;fill:black;fill-opacity:1;stroke:none;font-family:Times New Roman;-inkscape-font-specification:Times New Roman"
       id="text4145">
      <path
         d="m 30.243652,1043.8102 c -2.8e-5,1.626 -0.493395,2.939 -1.480102,3.9392 -0.986761,1.0002 -2.319971,1.5002 -3.999634,1.5002 l -19.4396973,0 0,-5.4394 19.4396973,0 0,-5.4407 -14.47998,0 c -1.5999417,0 -2.8999892,-0.5066 -3.9001469,-1.5198 -1.0001659,-1.0131 -1.5002467,-2.3197 -1.5002442,-3.9196 l 0,-5.481 c -2.5e-6,-0.7731 0.1466851,-1.4929 0.4400635,-2.1594 0.2933724,-0.6665 0.6866418,-1.2398 1.1798096,-1.72 0.4931594,-0.4801 1.0664824,-0.8602 1.7199707,-1.1401 0.6534765,-0.28 1.3403248,-0.4199 2.0605473,-0.42 l 18.120117,0 0,5.4395 -18.120117,0 0,5.481 14.47998,0 c 0.773089,0 1.493099,0.1399 2.160034,0.4199 0.666886,0.2799 1.246923,0.6598 1.740112,1.1395 0.493138,0.4798 0.879693,1.0531 1.159668,1.72 0.279921,0.6669 0.419894,1.3869 0.419922,2.16 z"
         style="text-align:center;text-anchor:middle;fill:red;font-family:Zeroes One;-inkscape-font-specification:Zeroes One"
         id="path6759" />
      <path
         d="m 61.845215,1049.2496 -21.799317,0 c -3.62712,0 -5.440676,-1.8131 -5.440673,-5.4394 l 0,-16.3611 c -3e-6,-0.7731 0.146685,-1.4929 0.440063,-2.1594 0.293373,-0.6665 0.686846,-1.2398 1.18042,-1.72 0.493566,-0.4801 1.066889,-0.8602 1.719971,-1.1401 0.65307,-0.28 1.353142,-0.4199 2.100219,-0.42 l 20.880127,0 0,5.4395 -20.880127,0 0,16.3611 16.319581,0 0,-5.4407 -10.839844,0 0,-5.4394 16.31958,0 z"
         style="text-align:center;text-anchor:middle;fill:red;font-family:Zeroes One;-inkscape-font-specification:Zeroes One"
         id="path6761" />
      <path
         d="m 82.311523,1038.3695 -16.3208,0 0,-5.4394 16.3208,0 z"
         style="text-align:center;text-anchor:middle;fill:red;font-family:Zeroes One;-inkscape-font-specification:Zeroes One"
         id="path6763" />
      <path
         d="m 101.25806,1049.2496 -16.320804,0 0,-5.4394 5.479736,0 0,-16.3611 -5.479736,0 0,-5.4395 10.92041,0 0,21.8006 5.400394,0 z"
         style="text-align:center;text-anchor:middle;fill:red;font-family:Zeroes One;-inkscape-font-specification:Zeroes One"
         id="path6765" />
      <path
         d="m 132.0686,1043.8102 c -3e-5,3.6263 -1.81317,5.4394 -5.43945,5.4394 l -16.3208,0 c -3.59945,0 -5.39917,-1.8131 -5.39917,-5.4394 l 0,-16.3611 c 0,-0.7731 0.14669,-1.4929 0.44006,-2.1594 0.29338,-0.6665 0.68665,-1.2398 1.17981,-1.72 0.49316,-0.4801 1.06649,-0.8602 1.71997,-1.1401 0.65348,-0.28 1.33992,-0.4199 2.05933,-0.42 l 16.3208,0 c 0.74623,10e-5 1.45282,0.14 2.11975,0.42 0.66689,0.2799 1.24692,0.6667 1.74011,1.1602 0.49314,0.4936 0.8797,1.0737 1.15967,1.7402 0.27992,0.6665 0.41989,1.3729 0.41992,2.1191 z m -5.43945,0 0,-16.3611 -16.3208,0 0,16.3611 z"
         style="text-align:center;text-anchor:middle;fill:red;font-family:Zeroes One;-inkscape-font-specification:Zeroes One"
         id="path6767" />
      <path
         d="m 163.3186,1043.8102 c -3e-5,3.6263 -1.81317,5.4394 -5.43945,5.4394 l -16.3208,0 c -3.59945,0 -5.39917,-1.8131 -5.39917,-5.4394 l 0,-16.3611 c 0,-0.7731 0.14669,-1.4929 0.44006,-2.1594 0.29338,-0.6665 0.68665,-1.2398 1.17981,-1.72 0.49316,-0.4801 1.06649,-0.8602 1.71997,-1.1401 0.65348,-0.28 1.33992,-0.4199 2.05933,-0.42 l 16.3208,0 c 0.74623,10e-5 1.45282,0.14 2.11975,0.42 0.66689,0.2799 1.24692,0.6667 1.74011,1.1602 0.49314,0.4936 0.8797,1.0737 1.15967,1.7402 0.27992,0.6665 0.41989,1.3729 0.41992,2.1191 z m -5.43945,0 0,-16.3611 -16.3208,0 0,16.3611 z"
         style="text-align:center;text-anchor:middle;fill:red;font-family:Zeroes One;-inkscape-font-specification:Zeroes One"
         id="path6769" />
      <path
         d="m 194.5686,1043.8102 c -3e-5,3.6263 -1.81317,5.4394 -5.43945,5.4394 l -16.3208,0 c -3.59945,0 -5.39917,-1.8131 -5.39917,-5.4394 l 0,-16.3611 c 0,-0.7731 0.14669,-1.4929 0.44006,-2.1594 0.29338,-0.6665 0.68665,-1.2398 1.17981,-1.72 0.49316,-0.4801 1.06649,-0.8602 1.71997,-1.1401 0.65348,-0.28 1.33992,-0.4199 2.05933,-0.42 l 16.3208,0 c 0.74623,10e-5 1.45282,0.14 2.11975,0.42 0.66689,0.2799 1.24692,0.6667 1.74011,1.1602 0.49314,0.4936 0.8797,1.0737 1.15967,1.7402 0.27992,0.6665 0.41989,1.3729 0.41992,2.1191 z m -5.43945,0 0,-16.3611 -16.3208,0 0,16.3611 z"
         style="text-align:center;text-anchor:middle;fill:red;font-family:Zeroes One;-inkscape-font-specification:Zeroes One"
         id="path6771" />
    </g>
  </g>
</svg>
