<svg xmlns="http://www.w3.org/2000/svg" width="200" height="35"><g style="text-align:start;line-height:125%;-inkscape-font-specification:Times New Roman" font-size="40" font-weight="400" letter-spacing="0" word-spacing="0" font-family="Zeroes One" text-anchor="middle" fill="red"><path d="M30.244 26.448c0 1.626-.494 2.939-1.48 3.94-.987 1-2.32 1.5-4 1.5H5.324v-5.44h19.44v-5.44h-14.48c-1.6 0-2.9-.507-3.9-1.52-1-1.014-1.5-2.32-1.5-3.92v-5.481a5.3 5.3 0 01.44-2.16 5.418 5.418 0 012.9-2.86 5.18 5.18 0 012.06-.42h18.12v5.44h-18.12v5.48h14.48a5.546 5.546 0 013.9 1.56 5.15 5.15 0 011.16 1.72c.28.667.42 1.387.42 2.16zM61.845 31.887h-21.8c-3.626 0-5.44-1.813-5.44-5.439V10.087a5.3 5.3 0 01.44-2.16 5.413 5.413 0 011.18-1.72 5.614 5.614 0 011.72-1.14 5.275 5.275 0 012.1-.42h20.881v5.44h-20.88v16.361h16.32v-5.44h-10.84v-5.44h16.32zM82.312 21.007H65.99v-5.44h16.32zM101.258 31.887h-16.32v-5.439h5.479V10.087h-5.48v-5.44h10.92v21.801h5.401zM132.069 26.448c0 3.626-1.814 5.44-5.44 5.44h-16.32c-3.6 0-5.4-1.814-5.4-5.44V10.087a5.3 5.3 0 01.44-2.16 5.418 5.418 0 012.9-2.86c.654-.28 1.34-.42 2.06-.42h16.32c.746 0 1.453.14 2.12.42a5.37 5.37 0 011.74 1.16c.493.494.88 1.074 1.16 1.74.28.667.42 1.374.42 2.12zm-5.44 0V10.087h-16.32v16.361zM163.319 26.448c0 3.626-1.814 5.44-5.44 5.44h-16.32c-3.6 0-5.4-1.814-5.4-5.44V10.087a5.3 5.3 0 01.44-2.16 5.418 5.418 0 012.9-2.86c.654-.28 1.34-.42 2.06-.42h16.32c.746 0 1.453.14 2.12.42a5.37 5.37 0 011.74 1.16c.493.494.88 1.074 1.16 1.74.28.667.42 1.374.42 2.12zm-5.44 0V10.087h-16.32v16.361zM194.569 26.448c0 3.626-1.814 5.44-5.44 5.44h-16.32c-3.6 0-5.4-1.814-5.4-5.44V10.087a5.3 5.3 0 01.44-2.16 5.418 5.418 0 012.9-2.86c.654-.28 1.34-.42 2.06-.42h16.32c.746 0 1.453.14 2.12.42a5.37 5.37 0 011.74 1.16c.493.494.88 1.074 1.16 1.74.28.667.42 1.374.42 2.12zm-5.44 0V10.087h-16.32v16.361z" style="text-align:center;-inkscape-font-specification:Zeroes One"/></g></svg>
