<svg xmlns="http://www.w3.org/2000/svg" viewBox="0 0 86.586 42.122" height="159.201" width="327.254"><g fill="#0090aa"><path d="M3.688 0L0 4.33v9.024l3.77 4.158h4v-5.637H6.165V5.602h4.213v4.09h5.698v-5.77L12.17 0zm5.101 11.875v5.637h1.606v6.274H5.698v-3.304H0v5.698l4.258 4.258h7.47l4.418-4.417v-9.206l-4.63-4.94z"/><path d="M18.15 0l.064 26.188 4.162 4.25h3.415v-5.713h-1.637V0zm10.575.03v24.725h-1.637v5.713h3.415l4.162-4.25L34.729.03z" stroke-width="1.002"/><path d="M36.944.03v30.408h5.968V.03zm7.082 0v5.628h2.681v8.687h-2.68v5.842h4.566l4.164-4.163V4.194L48.593.03zM54.86.03v30.408h13.106v-5.67h-7.139V5.7h7.139V.03zm7.363 11.5v5.7h4.543v-5.7z" stroke-width="1.002" stroke-linecap="round" stroke-linejoin="round"/><path d="M70.046.03v30.408h5.967V.03zm7.325 0v5.628h2.938v6.759h-2.938v5.842h3.024l-.077 12.179h6.268V18.602l-3.448-3.172 3.221-3.264v-7.93L82.281.03z"/><g><path d="M12.353 41.61a1.77 1.77 0 01-.518-1.252v-4.935a1.77 1.77 0 011.77-1.77h9.438v1.513H13.99v5.433h7.184v-2.005h-3.465V37.22h5.337v4.902h-9.403c-.47 0-.958-.18-1.29-.512z" stroke-width=".271" stroke-linecap="round" stroke-linejoin="round"/><path d="M35.77 35.792c0-1.206-1.148-2.183-2.565-2.183h-8.234v8.513h1.853v-6.949h5.87a1.002 1.002 0 110 2.004h-5.87v1.512h3.765l2.733 3.433h2.252l-2.746-3.433c1.874 0 2.973-.76 2.942-1.993z" stroke-width=".274" stroke-linecap="round" stroke-linejoin="round"/><path d="M44.8 33.609l4.397 8.513h-2.326l-3.914-8.038-3.914 8.038h-2.326l4.397-8.513zM50.145 42.122v-8.5h10.22v1.605l-8-.05.025 1.937h6.734v1.58H52.39v3.428zM67.245 36.548l-3.015-2.926h-2.601l3.817 3.938-4.571 4.562h2.942l3.428-3.249 3.428 3.249h2.941l-4.57-4.562 3.817-3.938h-2.602z" stroke-width=".265"/></g></g></svg>
