<?xml version="1.0" encoding="UTF-8" standalone="no"?>
<svg
   xmlns:dc="http://purl.org/dc/elements/1.1/"
   xmlns:cc="http://creativecommons.org/ns#"
   xmlns:rdf="http://www.w3.org/1999/02/22-rdf-syntax-ns#"
   xmlns:svg="http://www.w3.org/2000/svg"
   xmlns="http://www.w3.org/2000/svg"
   xmlns:sodipodi="http://sodipodi.sourceforge.net/DTD/sodipodi-0.dtd"
   xmlns:inkscape="http://www.inkscape.org/namespaces/inkscape"
   sodipodi:docname="SuperGrafx.svg"
   inkscape:version="1.0 (4035a4fb49, 2020-05-01)"
   id="svg8"
   version="1.1"
   viewBox="0 0 86.585983 42.121914"
   height="42.121914mm"
   width="86.585983mm">
  <defs
     id="defs2" />
  <sodipodi:namedview
     inkscape:window-maximized="1"
     inkscape:window-y="-8"
     inkscape:window-x="-8"
     inkscape:window-height="1017"
     inkscape:window-width="1920"
     fit-margin-bottom="0"
     fit-margin-right="0"
     fit-margin-left="0"
     fit-margin-top="0"
     showgrid="false"
     inkscape:document-rotation="0"
     inkscape:current-layer="layer1"
     inkscape:document-units="mm"
     inkscape:cy="83.394863"
     inkscape:cx="138.43577"
     inkscape:zoom="0.93932708"
     inkscape:pageshadow="2"
     inkscape:pageopacity="0.0"
     borderopacity="1.0"
     bordercolor="#666666"
     pagecolor="#ffffff"
     id="base" />
  <metadata
     id="metadata5">
    <rdf:RDF>
      <cc:Work
         rdf:about="">
        <dc:format>image/svg+xml</dc:format>
        <dc:type
           rdf:resource="http://purl.org/dc/dcmitype/StillImage" />
        <dc:title></dc:title>
      </cc:Work>
    </rdf:RDF>
  </metadata>
  <g
     transform="translate(-56.118848,-201.95809)"
     id="layer1"
     inkscape:groupmode="layer"
     inkscape:label="Layer 1">
    <g
       id="g1208">
      <g
         id="g1194"
         transform="matrix(0.64144872,0,0,0.64144872,69.181063,116.3672)">
        <path
           transform="scale(0.26458333)"
           d="m -55.236328,504.31641 -21.728516,25.51367 V 583 L -54.75,607.5 h 23.572266 v -33.21484 h -9.464844 v -36.96289 h 24.820312 v 24.10546 H 17.75 v -34 l -23,-23.11132 z m 30.058594,69.96875 V 607.5 h 9.46289 v 36.96484 H -43.392578 V 625 h -33.572266 v 33.57227 L -51.875,683.66016 H -7.8574219 L 18.169922,657.63477 V 603.39258 L -9.1074219,574.28516 Z"
           style="fill:#0090aa;fill-opacity:1;stroke:none;stroke-width:0.999999px;stroke-linecap:butt;stroke-linejoin:miter;stroke-opacity:1"
           id="path847" />
        <path
           transform="scale(0.26458333)"
           d="m 29.978516,504.31641 0.378906,154.30273 24.523437,25.04102 H 75 V 650 H 65.357422 V 504.31641 Z m 62.30664,0.17773 v 145.68359 h -9.642578 v 33.66211 h 20.121092 l 24.52149,-25.04101 0.3789,-154.30469 z"
           style="fill:#0090aa;fill-opacity:1;stroke:none;stroke-width:1.00157;stroke-linecap:butt;stroke-linejoin:miter;stroke-miterlimit:4;stroke-dasharray:none;stroke-opacity:1"
           id="path864" />
        <path
           transform="scale(0.26458333)"
           d="m 140.71484,504.49414 v 179.16602 h 35.16407 V 504.49414 Z m 41.73047,0 v 33.16016 h 15.79688 v 51.1875 h -15.79688 v 34.42187 h 26.90821 l 24.53515,-24.5332 V 529.0293 l -24.53515,-24.53516 z"
           style="fill:#0090aa;fill-opacity:1;stroke:none;stroke-width:1.00157;stroke-linecap:round;stroke-linejoin:round;stroke-miterlimit:4;stroke-dasharray:none"
           id="rect881" />
        <path
           transform="scale(0.26458333)"
           d="m 246.27539,504.49414 v 179.16602 h 77.22656 V 650.25 h -42.0625 V 537.90625 h 42.0625 v -33.41211 z m 43.38672,67.75781 v 33.58789 h 26.76758 v -33.58789 z"
           style="fill:#0090aa;fill-opacity:1;stroke:none;stroke-width:1.00157;stroke-linecap:round;stroke-linejoin:round;stroke-miterlimit:4;stroke-dasharray:none"
           id="rect918" />
        <path
           transform="scale(0.26458333)"
           d="m 335.75586,504.49414 v 179.16602 h 35.16406 V 504.49414 Z m 43.16406,0 v 33.16016 h 17.3125 v 39.82422 h -17.3125 v 34.42187 h 17.81641 l -0.45313,71.75977 h 36.93164 v -69.74024 l -20.31445,-18.6875 18.97852,-19.23047 v -46.7207 l -24.03125,-24.78711 z"
           style="fill:#0090aa;fill-opacity:1;stroke:none;stroke-width:0.999999px;stroke-linecap:butt;stroke-linejoin:miter;stroke-opacity:1"
           id="path968" />
      </g>
      <g
         id="g1187"
         transform="matrix(0.48825472,0,0,0.48825472,6.9585251,163.1066)">
        <path
           sodipodi:nodetypes="sscsccccccccccccs"
           id="path1061-9"
           style="fill:#0090aa;fill-opacity:1;stroke:none;stroke-width:0.27147;stroke-linecap:round;stroke-linejoin:round;stroke-miterlimit:4;stroke-dasharray:none"
           d="m 125.98705,164.79395 c -0.6798,-0.67981 -1.06171,-1.60182 -1.06171,-2.56321 v -10.10803 c 0,-0.96139 0.38191,-1.8834 1.06171,-2.56321 0.67981,-0.6798 1.60182,-1.06171 2.56321,-1.06171 h 19.33023 v 3.09782 h -18.54247 v 11.1288 h 14.71391 v -4.10795 h -7.09554 v -2.81332 h 10.92962 v 10.03939 h -19.25843 c -0.96139,0 -1.96072,-0.36878 -2.64053,-1.04858 z" />
        <path
           sodipodi:nodetypes="ccccccccsscccccccc"
           id="path1084-9"
           style="fill:#0090aa;fill-opacity:1;stroke:none;stroke-width:0.274415;stroke-linecap:round;stroke-linejoin:round;stroke-miterlimit:4;stroke-dasharray:none"
           d="m 173.94648,152.87817 c 0,-2.46957 -2.35175,-4.47156 -5.25278,-4.47156 l -16.86426,-1e-5 v 17.43593 h 3.79504 v -14.23189 h 12.02393 c 0.73329,0 1.41088,0.3912 1.77752,1.02625 0.36664,0.63505 0.36664,1.41745 0,2.0525 -0.36664,0.63505 -1.04423,1.02625 -1.77752,1.02625 h -12.02533 v 3.09527 h 7.71221 l 5.59825,7.03162 h 4.61239 l -5.62419,-7.03162 c 3.838,0 6.08754,-1.5559 6.02474,-4.08185 z" />
        <path
           style="fill:#0090aa;fill-opacity:1;stroke:none;stroke-width:0.265;stroke-linecap:butt;stroke-linejoin:miter;stroke-miterlimit:4;stroke-dasharray:none;stroke-opacity:1"
           d="m 192.44123,148.4066 9.00596,17.43593 h -4.76377 l -8.01672,-16.46272 -8.01672,16.46272 h -4.76377 l 9.00596,-17.43593 z"
           id="path1103-9"
           sodipodi:nodetypes="ccccccc" />
        <path
           id="path1134"
           d="m 203.38911,165.84252 -10e-6,-17.40879 h 20.92956 v 3.28636 l -16.38197,-0.0996 0.0498,3.96462 h 13.79274 v 3.23656 h -13.79274 v 7.02085 z"
           style="fill:#0090aa;fill-opacity:1;stroke:none;stroke-width:0.264583px;stroke-linecap:butt;stroke-linejoin:miter;stroke-opacity:1" />
        <path
           sodipodi:nodetypes="ccccccccccccc"
           id="path1136"
           d="m 238.41018,154.42658 -6.17437,-5.99285 h -5.3279 l 7.81757,8.06652 -9.36114,9.34227 h 6.02498 l 7.02086,-6.65344 7.02086,6.65344 h 6.02498 l -9.36114,-9.34227 7.81757,-8.06652 h -5.3279 z"
           style="fill:#0090aa;fill-opacity:1;stroke:none;stroke-width:0.264583px;stroke-linecap:butt;stroke-linejoin:miter;stroke-opacity:1" />
      </g>
    </g>
  </g>
</svg>
