<?xml version="1.0" encoding="UTF-8" standalone="no"?>
<!-- Created with Inkscape (http://www.inkscape.org/) -->

<svg
   xmlns:dc="http://purl.org/dc/elements/1.1/"
   xmlns:cc="http://creativecommons.org/ns#"
   xmlns:rdf="http://www.w3.org/1999/02/22-rdf-syntax-ns#"
   xmlns:svg="http://www.w3.org/2000/svg"
   xmlns="http://www.w3.org/2000/svg"
   xmlns:sodipodi="http://sodipodi.sourceforge.net/DTD/sodipodi-0.dtd"
   xmlns:inkscape="http://www.inkscape.org/namespaces/inkscape"
   width="313.39825mm"
   height="31.114058mm"
   viewBox="0 0 313.39825 31.114058"
   version="1.1"
   id="svg5331"
   inkscape:version="0.92.0 r15299"
   sodipodi:docname="Vic20_new_udb.svg">
  <defs
     id="defs5325" />
  <sodipodi:namedview
     id="base"
     pagecolor="#ffffff"
     bordercolor="#666666"
     borderopacity="1.0"
     inkscape:pageopacity="0.0"
     inkscape:pageshadow="2"
     inkscape:zoom="0.35"
     inkscape:cx="1590.9327"
     inkscape:cy="-586.91605"
     inkscape:document-units="mm"
     inkscape:current-layer="layer1"
     showgrid="false"
     fit-margin-top="0"
     fit-margin-left="0"
     fit-margin-right="0"
     fit-margin-bottom="0"
     inkscape:window-width="1920"
     inkscape:window-height="1137"
     inkscape:window-x="-8"
     inkscape:window-y="-8"
     inkscape:window-maximized="1" />
  <metadata
     id="metadata5328">
    <rdf:RDF>
      <cc:Work
         rdf:about="">
        <dc:format>image/svg+xml</dc:format>
        <dc:type
           rdf:resource="http://purl.org/dc/dcmitype/StillImage" />
        <dc:title></dc:title>
      </cc:Work>
    </rdf:RDF>
  </metadata>
  <g
     inkscape:label="Layer 1"
     inkscape:groupmode="layer"
     id="layer1"
     transform="translate(690.40151,188.75941)">
    <g
       id="g5927">
      <g
         id="g5913">
        <g
           id="g5029"
           transform="translate(-334.65718,-142.11028)">
          <path
             inkscape:connector-curvature="0"
             d="m -340.18694,-46.649126 h 282.283477 c 8.557242,0 15.557392,7.000167 15.557392,15.556653 v 0 c 0,8.557236 -7.00015,15.557404 -15.557392,15.557404 H -340.18694 c -8.55724,0 -15.55739,-7.000168 -15.55739,-15.557404 v 0 c 0,-8.555748 7.00015,-15.556653 15.55739,-15.556653 z"
             id="path4583"
             style="fill:#5b5652;fill-opacity:1;fill-rule:evenodd;stroke-width:0.26458332" />
          <g
             transform="translate(-0.26726953,70.056126)"
             id="g5014">
            <polygon
               transform="matrix(0.35788685,0,0,0.74146392,-297.86273,-415.02017)"
               style="fill:#e2001a;fill-rule:evenodd;stroke-width:0.51362318"
               id="polygon4585"
               points="434.238,411.131 319.269,411.131 319.269,408.062 434.238,408.062 " />
            <polygon
               transform="matrix(0.35788685,0,0,0.74146392,-297.86273,-414.4858)"
               style="fill:#e95e38;fill-rule:evenodd;stroke-width:0.51362318"
               id="polygon4587"
               points="319.269,414.2 434.238,414.2 434.238,417.269 319.269,417.269 " />
            <polygon
               transform="matrix(0.35788685,0,0,0.74146392,-297.86273,-413.9507)"
               style="fill:#ffcc00;fill-rule:evenodd;stroke-width:0.51362318"
               id="polygon4589"
               points="434.238,420.337 434.238,423.406 319.269,423.406 319.269,420.337 " />
            <polygon
               transform="matrix(0.35788685,0,0,0.74146392,-297.86273,-413.41638)"
               style="fill:#57ab27;fill-rule:evenodd;stroke-width:0.51362318"
               id="polygon4591"
               points="434.238,426.475 434.238,429.544 319.269,429.544 319.269,426.475 " />
            <polygon
               transform="matrix(0.35788685,0,0,0.74146392,-297.86273,-412.88201)"
               style="fill:#009ee0;fill-rule:evenodd;stroke-width:0.51362318"
               id="polygon4593"
               points="319.269,435.682 319.269,432.613 434.238,432.613 434.238,435.682 " />
          </g>
          <path
             sodipodi:nodetypes="ccccssccscccsccsscccscsccccsssccssscssscssssssssscssssssssscssssssccsssccccccsssssccccsssccsssccsscscccccccsssccsssccsscsccc"
             inkscape:connector-curvature="0"
             d="m -209.04684,-35.683983 h -2.93693 v 8.425997 h 3.06447 v -4.404288 c 0,-1.14853 0.7029,-1.723909 1.98044,-1.723909 1.27606,0 1.59638,0.38334 1.6594,1.467357 h 2.87391 c 0,-2.872427 -0.38334,-3.957934 -3.44781,-3.957934 -1.85217,0 -2.49057,0.38334 -3.19273,1.787673 v -1.594896 z m 14.10932,6.76735 c -2.93545,0 -3.38256,-0.255814 -3.38256,-1.724648 h 8.04563 c -0.12754,-4.083984 -0.12754,-5.042702 -5.55506,-5.042702 -4.59855,0 -5.62028,0.829704 -5.62028,4.468812 0,3.384031 1.34205,4.213737 5.04491,4.278249 4.15072,0 6.13043,-0.192051 6.13043,-2.936941 h -3.00219 c -0.12754,0.63839 -0.38185,0.95723 -1.66088,0.95723 z m -3.44707,-3.510832 c 0.12753,-0.894205 0.3826,-1.213783 2.42607,-1.213783 2.23626,0 2.55434,0.128276 2.68188,1.213783 z m -114.16468,0.318827 h 3.06447 c -0.25506,-2.873917 -1.0855,-3.575345 -5.36227,-3.575345 -4.85288,0 -5.93838,0.764454 -5.93838,4.341274 0,3.575345 1.02174,4.405037 5.55505,4.405037 4.78837,0 5.74634,-0.638403 5.74634,-3.639846 h -3.06447 c 0,0.830443 -0.31883,1.21452 -2.68187,1.21452 -2.04348,0 -2.48984,-0.510865 -2.48984,-2.171012 0,-1.596372 0.44636,-1.596372 2.87392,-1.596372 1.78618,0 2.10501,0.192038 2.29705,1.021744 z m 71.19314,0.509389 c 0,-3.447069 -1.021,-4.148498 -5.93838,-4.148498 -5.29925,0 -5.9369,0.893468 -5.9369,4.468063 0,3.576083 0.89272,4.342012 5.9369,4.342012 5.36449,7.5e-4 5.93838,-0.892717 5.93838,-4.661577 z m -8.74705,0.193515 c 0,-1.724648 0.38334,-1.915198 2.61811,-1.915198 2.48984,0 2.9362,0.06296 2.9362,1.915198 0,1.723909 -0.31957,2.043474 -2.68188,2.043474 -2.5536,0 -2.87243,-0.256539 -2.87243,-2.043474 z m 36.26574,-0.193515 c 0,-3.447069 -0.95797,-4.148498 -5.87239,-4.148498 -5.23622,0 -5.87462,0.828218 -5.87462,4.405038 0,3.639108 0.89346,4.405037 5.87462,4.405037 5.36153,7.5e-4 5.87239,-0.892717 5.87239,-4.661577 z m -8.68253,0.193515 c 0,-1.724648 0.38259,-1.915198 2.61736,-1.915198 2.49057,0 2.93694,0.06296 2.93694,1.915198 0,1.723909 -0.31883,2.043474 -2.68114,2.043474 -2.55286,0 -2.87316,-0.256539 -2.87316,-2.043474 z m -73.36416,-0.193515 c 0,-3.447069 -0.95797,-4.148498 -5.87387,-4.148498 -5.29925,0 -5.93839,0.828218 -5.93839,4.405038 0,3.639108 0.89495,4.405037 5.93839,4.405037 5.36375,7.5e-4 5.87387,-0.892717 5.87387,-4.661577 z m -8.621,0.193515 c 0,-1.724648 0.38334,-1.915198 2.55509,-1.915198 2.48983,0 2.93694,0.06296 2.93694,1.915198 0,1.723909 -0.32032,2.043474 -2.68188,2.043474 -2.49132,0 -2.81015,-0.256539 -2.81015,-2.043474 z m 73.812,-7.85507 v 4.916652 c -0.70217,-0.957967 -1.34058,-1.467357 -3.89417,-1.467357 -4.08622,0 -4.85288,1.085506 -4.85288,4.405037 0,3.384782 1.08624,4.340524 5.04418,4.340524 2.49057,0 3.2565,-0.637653 3.83113,-1.72316 v 1.530384 h 3.06522 v -12.002818 h -3.19348 z m -2.23478,5.875359 c 1.72317,0 2.29929,0.255063 2.29929,1.594895 0,2.044212 -0.12903,2.237001 -2.55361,2.237001 -2.42681,0 -3.06521,-0.06525 -3.06521,-1.78841 0,-1.979711 0.76593,-2.043486 3.31953,-2.043486 z m -58.10408,-2.298579 h -2.87243 v 8.425997 h 3.06447 v -4.341262 c 0,-1.276069 0.6384,-1.722421 2.36305,-1.722421 1.59637,0 2.04347,0.573891 2.04347,2.170262 v 3.893421 h 3.12824 v -4.468062 c 0,-1.213031 0.95723,-1.595621 2.42533,-1.595621 1.40507,0 2.04347,0.383327 2.04347,1.595621 v 4.468062 h 3.06447 v -4.979665 c 0,-2.488351 -1.5326,-3.639107 -4.34127,-3.639107 -2.42681,0 -3.32102,0.894204 -3.64059,1.851435 -0.6384,-1.085507 -1.53186,-1.851435 -3.95867,-1.851435 -2.29854,0 -2.93694,0.765928 -3.32028,2.171011 v -1.978236 z m 20.62382,0 h -2.87317 v 8.425997 h 3.06447 v -4.341262 c 0,-1.276069 0.76593,-1.722421 2.2978,-1.722421 1.59711,0 2.04347,0.510866 2.04347,2.170262 v 3.893421 h 3.12972 v -4.468062 c 0,-1.213031 0.89421,-1.595621 2.36305,-1.595621 1.40433,0 2.10575,0.446352 2.10575,1.595621 v 4.468062 h 3.06522 v -4.979665 c 0,-2.488351 -1.53187,-3.639107 -4.34128,-3.639107 -2.42607,0 -3.25725,0.829704 -3.6391,1.851435 -0.63914,-1.085507 -1.53335,-1.851435 -3.95942,-1.851435 -2.23403,0 -2.80866,0.765928 -3.25577,2.171011 v -1.978236 z"
             id="path4595"
             style="fill:#ffffff;stroke-width:0.26458332" />
          <path
             sodipodi:nodetypes="ccccscccscccccccccccccccsccccscsccccsccscccccccccccsscccccccccccccccsccsscccccscsccccsc"
             style="fill:#ffffff;stroke-width:1"
             d="m -111.13177,-25.26858 c -0.12226,-0.469064 -0.15902,-1.835497 -0.15666,-5.822563 0.003,-5.67263 0.027,-5.90807 0.71368,-7.07757 0.80924,-1.37841 3.06185,-1.64144 8.48234,-1.64279 5.0922,-10e-4 6.482606,0.22841 7.21779,2.18068 0.286271,0.76019 0.441876,1.02716 0.445986,2.47018 v 1.68696 h -1.986634 c -2.028747,0.0459 -2.19761,-0.03697 -2.19761,-0.76035 0,-1.16304 -0.679233,-1.37671 -4.363672,-1.37269 -2.75118,0.004 -3.29341,0.0937 -3.72775,0.62389 -0.45304,0.55295 -0.56275,1.3693 -0.56421,4.19816 -0.003,4.29513 -0.0287,4.267772 4.20023,4.34037 4.114149,0.07062 4.563714,-0.09332 4.688921,-1.709937 l 0.06128,-0.791726 h 2.004931 1.884514 v 1.915316 c -0.0017,1.545057 0.07552,2.025135 -0.09873,2.483375 -0.413604,1.08768 -1.109874,1.830501 -2.251312,2.193701 h -9.897904 c -1.3852,0.01395 -3.9777,-1.207827 -4.45519,-2.915005 z m 45.109254,2.915006 c -1.832275,-0.266778 -2.864071,-1.030348 -3.362788,-2.661162 -0.248761,-0.813441 -0.26774,-1.137482 -0.308647,-5.268947 -0.05822,-5.8799 0.08388,-6.98243 1.0559,-8.19274 0.961484,-1.1972 2.154794,-1.33689 7.435726,-1.33508 4.018731,0.001 5.504691,0.05893 6.334939,0.53535 0.654,0.37526 1.239109,1.0791 1.581836,1.90277 0.248487,0.59719 0.255032,0.76019 0.255032,6.35886 0,6.368565 0.02035,6.183896 -0.809283,7.329574 -0.955919,1.320022 -1.485452,1.279125 -6.856639,1.331375 -2.464887,0.02398 -4.861621,0.06757 -5.326076,0 z m 8.032596,-4.548876 c 0.31727,-0.139539 0.542831,-0.375779 0.707625,-0.741123 0.220329,-0.48844 0.241908,-0.789188 0.241908,-3.37095 0,-4.39667 0.05424,-4.34027 -4.186774,-4.35639 -2.421836,-0.0103 -2.842525,0.025 -3.334239,0.27152 -0.901507,0.45189 -0.970464,0.73672 -0.970464,4.00825 0,3.084271 0.09021,3.608675 0.69019,4.011767 0.199164,0.13381 0.62953,0.299253 0.956368,0.367653 0.926009,0.193802 5.34626,0.05078 5.895386,-0.190727 z m -73.26616,4.548876 c -0.14258,-0.22563 -4.93614,-12.791579 -5.93034,-15.517799 l -0.68452,-1.94013 h 4.45997 c 1.79001,4.79165 3.17877,8.553267 4.90062,13.01067 h 0.40607 0.40607 c 1.77871,-4.782918 3.16364,-8.570442 4.81855,-13.01067 h 2.16751 c 1.52949,0 2.1675,-0.12194 2.1675,0 0,0.18792 -6.21314,17.144498 -6.40078,17.457929 z m 13.93455,0 c -0.0237,-6.072045 0,-10.950801 0,-17.457929 1.39624,-0.02793 2.77733,0.02793 4.17357,0 -0.0203,5.799385 0.0203,11.658544 0,17.457929 z m 29.987468,0 c -0.154992,-0.32584 -0.285646,-2.22236 -0.182925,-4.266159 0.101643,-2.022199 0.24061,-2.365558 0.539158,-3.141122 0.392589,-1.019868 0.994817,-1.573678 2.104243,-1.935068 0.389192,-0.12677 2.37611,-0.40715 4.415374,-0.62307 4.032612,-0.42696 4.582652,-0.53424 4.809942,-0.93808 0.287175,-0.51024 0.227147,-1.99739 -0.09813,-2.43096 -0.219796,-0.29298 -0.385163,-0.30644 -3.761366,-0.30644 -3.517524,0 -3.532516,10e-4 -3.799981,0.34892 -0.203102,0.26391 -0.282899,0.58124 -0.327495,1.30242 l -0.05897,0.86945 h -3.822775 c -0.144658,0 -0.06815,-1.082913 0,-1.99542 0.144475,-1.934623 0.372131,-2.72381 1.110214,-3.38776 0.959865,-0.86347 1.436821,-0.88378 6.627432,-0.95464 2.975232,-0.0405 5.035702,-0.1008 5.533372,0 1.150524,0.23269 1.784381,0.8269 2.227539,1.97841 0.34595,0.89893 0.353807,0.97043 0.353807,3.21774 0,2.5946 -0.130406,3.42501 -0.671874,4.27847 -0.772013,1.216812 -1.734827,1.494973 -6.686903,1.931874 -2.233279,0.197035 -3.730352,0.395295 -3.970889,0.525869 -0.43461,0.235928 -0.67376,0.70004 -0.618881,1.201095 l 0.03688,0.413456 h 12.147538 v 3.911015 c 0,0 -21.2071,0 -15.905325,0 5e-6,0 1.5e-5,0 1.5e-5,0 z"
             id="path4986"
             inkscape:connector-curvature="0" />
          <path
             style="fill:#ffffff;stroke-width:0.26458332"
             id="path5017"
             d="m -329.54881,-30.889268 h -4.93147 v 4.044682 h 8.86419 z m 3.93198,-4.874386 h -8.86421 v 4.043944 h 4.87588 z m -9.14076,-0.27731 v -5.207306 c -1.05215,-0.277297 -1.77358,-0.388529 -2.82499,-0.388529 -5.48534,0 -10.30486,4.599302 -10.30486,10.304868 0,5.873145 4.87438,10.249996 10.35973,10.249996 0.99727,0 1.55114,-0.111169 2.77012,-0.444878 v -5.317773 c -1.21971,0.608741 -1.82772,0.774832 -2.82499,0.774832 -3.04741,0 -5.37561,-2.547674 -5.37561,-5.373397 0,-2.935453 2.27185,-5.429731 5.31926,-5.429731 1.05362,0 1.93967,0.278048 2.88134,0.831918 z"
             inkscape:connector-curvature="0"
             sodipodi:nodetypes="ccccccccccccsssccsssc" />
        </g>
      </g>
    </g>
  </g>
</svg>
