<svg xmlns="http://www.w3.org/2000/svg" width="1184.497" height="117.596" viewBox="0 0 313.398 31.114"><path d="M15.557 0h282.284c8.557 0 15.557 7 15.557 15.557s-7 15.557-15.557 15.557H15.557C7 31.114 0 24.114 0 15.557 0 7 7 0 15.557 0z" fill="#5b5652" fill-rule="evenodd" stroke-width=".265"/><g fill-rule="evenodd" stroke-width=".514"><path fill="#e2001a" d="M213.022 6.524h-41.145V4.248h41.145z"/><path fill="#e95e38" d="M171.877 9.334h41.145v2.275h-41.145z"/><path fill="#fc0" d="M213.022 14.42v2.275h-41.145v-2.276z"/><path fill="#57ab27" d="M213.022 19.505v2.275h-41.145v-2.275z"/><path fill="#009ee0" d="M171.877 26.866V24.59h41.145v2.276z"/></g><path d="M146.697 10.965h-2.936v8.426h3.064v-4.404c0-1.149.703-1.724 1.98-1.724 1.277 0 1.597.383 1.66 1.467h2.874c0-2.872-.384-3.958-3.448-3.958-1.852 0-2.49.384-3.193 1.788v-1.595zm14.11 6.767c-2.936 0-3.383-.255-3.383-1.724h8.046c-.128-4.084-.128-5.043-5.555-5.043-4.599 0-5.62.83-5.62 4.469 0 3.384 1.342 4.214 5.044 4.278 4.151 0 6.13-.192 6.13-2.937h-3.001c-.128.639-.382.957-1.661.957zm-3.447-3.51c.127-.895.382-1.214 2.426-1.214 2.236 0 2.554.128 2.682 1.214zm-114.165.318h3.065c-.256-2.873-1.086-3.575-5.363-3.575-4.853 0-5.938.765-5.938 4.341s1.022 4.405 5.555 4.405c4.788 0 5.746-.638 5.746-3.64h-3.064c0 .831-.319 1.215-2.682 1.215-2.044 0-2.49-.51-2.49-2.17 0-1.597.446-1.597 2.874-1.597 1.786 0 2.105.192 2.297 1.021zm71.193.51c0-3.447-1.02-4.149-5.938-4.149-5.3 0-5.937.894-5.937 4.468 0 3.577.893 4.342 5.937 4.342 5.364.001 5.938-.892 5.938-4.661zm-8.747.193c0-1.724.383-1.915 2.618-1.915 2.49 0 2.936.063 2.936 1.915 0 1.724-.32 2.044-2.681 2.044-2.554 0-2.873-.257-2.873-2.044zm36.266-.193c0-3.447-.958-4.149-5.872-4.149-5.237 0-5.875.829-5.875 4.405 0 3.64.893 4.405 5.875 4.405 5.361.001 5.872-.892 5.872-4.661zm-8.683.193c0-1.724.383-1.915 2.618-1.915 2.49 0 2.937.063 2.937 1.915 0 1.724-.32 2.044-2.681 2.044-2.553 0-2.874-.257-2.874-2.044zM59.86 15.05c0-3.447-.958-4.149-5.874-4.149-5.299 0-5.938.829-5.938 4.405 0 3.64.895 4.405 5.938 4.405 5.364.001 5.874-.892 5.874-4.661zm-8.62.193c0-1.724.383-1.915 2.554-1.915 2.49 0 2.937.063 2.937 1.915 0 1.724-.32 2.044-2.682 2.044-2.491 0-2.81-.257-2.81-2.044zm73.811-7.855v4.917c-.702-.958-1.34-1.467-3.894-1.467-4.086 0-4.853 1.085-4.853 4.405 0 3.384 1.086 4.34 5.044 4.34 2.49 0 3.257-.637 3.831-1.723v1.53h3.066V7.388h-3.194zm-2.235 5.876c1.724 0 2.3.255 2.3 1.595 0 2.044-.13 2.237-2.554 2.237-2.427 0-3.065-.066-3.065-1.789 0-1.98.766-2.043 3.32-2.043zm-58.104-2.299H61.84v8.426h3.064V15.05c0-1.276.639-1.723 2.363-1.723 1.597 0 2.044.574 2.044 2.17v3.894h3.128v-4.468c0-1.213.957-1.596 2.425-1.596 1.406 0 2.044.384 2.044 1.596v4.468h3.064v-4.98c0-2.488-1.532-3.639-4.34-3.639-2.428 0-3.322.895-3.641 1.852-.639-1.086-1.532-1.852-3.96-1.852-2.298 0-2.936.766-3.32 2.171v-1.978zm20.624 0h-2.873v8.426h3.064V15.05c0-1.276.766-1.723 2.298-1.723 1.597 0 2.044.511 2.044 2.17v3.894h3.13v-4.468c0-1.213.894-1.596 2.363-1.596 1.404 0 2.105.447 2.105 1.596v4.468h3.065v-4.98c0-2.488-1.531-3.639-4.34-3.639-2.427 0-3.258.83-3.64 1.852-.639-1.086-1.533-1.852-3.96-1.852-2.233 0-2.808.766-3.255 2.171v-1.978z" fill="#fff" stroke-width=".265"/><path d="M244.613 21.38c-.123-.469-.16-1.835-.157-5.822.003-5.673.027-5.908.714-7.078.809-1.378 3.061-1.641 8.482-1.642 5.092-.001 6.483.228 7.218 2.18.286.76.442 1.027.446 2.47v1.687h-1.987c-2.029.046-2.198-.037-2.198-.76 0-1.163-.679-1.377-4.363-1.373-2.751.004-3.294.094-3.728.624-.453.553-.563 1.37-.564 4.198-.003 4.296-.029 4.268 4.2 4.34 4.114.071 4.564-.092 4.689-1.71l.061-.79H261.316v1.914c-.002 1.546.075 2.026-.099 2.484-.414 1.088-1.11 1.83-2.251 2.194h-9.898c-1.385.014-3.978-1.208-4.455-2.915zm45.109 2.916c-1.832-.267-2.864-1.03-3.363-2.662-.249-.813-.268-1.137-.309-5.269-.058-5.88.084-6.982 1.056-8.192.962-1.197 2.155-1.337 7.436-1.335 4.019 0 5.505.059 6.335.535.654.375 1.24 1.08 1.582 1.903.248.597.255.76.255 6.359 0 6.368.02 6.184-.81 7.33-.955 1.32-1.485 1.278-6.856 1.33-2.465.025-4.862.068-5.326 0zm8.032-4.55c.318-.139.543-.375.708-.74.22-.489.242-.79.242-3.371 0-4.397.054-4.34-4.187-4.357-2.422-.01-2.842.025-3.334.272-.902.452-.97.736-.97 4.008 0 3.084.09 3.609.69 4.012.199.134.63.299.956.367.926.194 5.346.051 5.895-.19zm-73.266 4.55c-.142-.226-4.936-12.792-5.93-15.518l-.685-1.94h4.46c1.79 4.791 3.18 8.553 4.901 13.01h.812c1.779-4.783 3.164-8.57 4.819-13.01h2.167c1.53 0 2.168-.122 2.168 0 0 .188-6.213 17.144-6.401 17.458zm13.935 0c-.024-6.072 0-10.951 0-17.458 1.396-.028 2.777.028 4.173 0-.02 5.799.02 11.658 0 17.458zm29.987 0c-.155-.326-.285-2.223-.183-4.267.102-2.022.241-2.365.54-3.14.392-1.02.994-1.574 2.104-1.936.389-.127 2.376-.407 4.415-.623 4.033-.427 4.583-.534 4.81-.938.287-.51.227-1.997-.098-2.43-.22-.294-.385-.307-3.761-.307-3.518 0-3.533 0-3.8.349-.204.263-.283.58-.328 1.302l-.059.87h-3.823c-.144 0-.068-1.083 0-1.996.145-1.935.372-2.724 1.11-3.388.96-.863 1.437-.884 6.628-.954 2.975-.04 5.036-.101 5.533 0 1.15.232 1.785.827 2.228 1.978.346.899.354.97.354 3.218 0 2.594-.13 3.425-.672 4.278-.772 1.217-1.735 1.495-6.687 1.932-2.233.197-3.73.395-3.971.526-.435.236-.674.7-.619 1.201l.037.414h12.148v3.91H268.41z" fill="#fff"/><path d="M26.196 15.76h-4.932v4.045h8.864zm3.932-4.875h-8.865v4.044h4.876zm-9.141-.277V5.401c-1.052-.277-1.774-.389-2.825-.389-5.486 0-10.305 4.6-10.305 10.305 0 5.873 4.874 10.25 10.36 10.25.997 0 1.55-.111 2.77-.445v-5.317c-1.22.608-1.828.774-2.825.774-3.048 0-5.376-2.547-5.376-5.373 0-2.935 2.272-5.43 5.32-5.43 1.053 0 1.94.278 2.88.832z" fill="#fff" stroke-width=".265"/></svg>
