<?xml version="1.0" encoding="UTF-8"?>
<svg width="400" height="258" version="1.1" xmlns="http://www.w3.org/2000/svg">
 <path d="m261.85 58.54c30.919 2.0083 63.248 28.088 72.232 58.266-17.968-60.357-82.638-112.54-144.46-116.54-61.815-4.0142-109.46 38.84-79.413 102.05 11.099 23.333 28.052 44.348 51.6 53.488-5.3404 1.7339-11.41 2.5332-18.136 2.0896-30.907-1.9845-63.248-28.088-72.232-58.266 17.969 60.369 82.65 112.54 144.47 116.56 61.827 4.0023 106.68-43.201 79.401-102.05-10.812-23.369-28.04-44.36-51.588-53.488 5.3404-1.7339 11.41-2.5433 18.136-2.1031zm4.0262 52.974c6.5948 18.088 4.2532 34.288-4.7549 45.005 4.1098-5.9259 4.9819-14.313 1.6008-23.631-6.547-17.969-26.391-32.52-44.372-32.52-17.945 0-27.216 14.552-20.669 32.52 6.5232 17.956 26.391 32.508 44.348 32.508 5.2209 0 9.6772-1.2294 13.249-3.393-6.8219 5.0653-15.83 7.9805-26.594 7.9805-32.293 0-68.015-26.176-79.759-58.469-11.756-32.305 4.8983-58.493 37.191-58.493 32.305 0 68.003 26.188 79.759 58.493" fill="#ce001d"/>
 <path d="m161.83 237.83 7.6582-9.0321h-11.302l-2.8193 4.54-3.9546 3.7273h-12.019l-9.9878 6.1528-2.7479 10.263c-0.60931 2.2588 1.3858 4.0859 4.4443 4.0859h19.462l8.2914 0.2034 4.3846-16.595c0.37096-1.3614-0.21325-2.5806-1.4098-3.3324zm-13.214 16.57-4.1935 0.1013h-5.5315c-0.75267 0-1.2544-0.4776-1.1112-1.016l2.7002-10.263 4.9939-3.0717h5.5913c0.74102 0 1.2544 0.4301 1.0989 1.016l-3.5483 13.237m205.84 3.1393-6.8458-0.036 4.6594-17.383h-4.1695c-3.7992 0-7.5865 2.3063-8.3271 5.113l-1.1112 4.0859c-0.70428 2.8448 1.7922 5.1494 5.5913 5.1494h3.2617l-4.074 3.0716h-6.9174c-6.1289 0-10.191-3.6917-8.9843-8.2199l1.1471-4.0859c1.2662-4.516 7.2041-8.1838 13.321-8.1838h11.087l11.23-0.4166-5.5435 20.74-4.3248 0.1694m-78.827-26.756h-15.352c-1.5172 0-3.178 1.375-3.6439 3.119l-0.44174 1.6121c-0.44175 1.7441 0.39425 3.119 1.9354 3.119h12.533c3.8111 0 6.0214 3.5245 4.8147 7.909l-0.87185 3.1056c-1.1948 4.3728-5.3404 7.8972-9.1515 7.8972h-42.329l5.4718-4.7192h31.23c1.5294 0 3.142-1.4461 3.62-3.1766l0.4301-1.5647c0.47758-1.744-0.39426-3.1664-1.9236-3.1664h-12.544c-3.8112 0-5.9019-3.5245-4.767-7.8373l0.87185-3.1766c1.183-4.3128 5.2807-7.8373 9.1516-7.8373h15.209l11.756-0.71773-5.9974 5.4362m-69.365 26.748h-6.9532l3.835-14.325 9.9878-6.1647h16.666c4.5877 0 7.5386 2.7601 6.6307 6.1647l-0.0269 0.072-4.9342 3.0716h-6.9652l0.84855-3.1529c0.50178-1.7306-1.0752-3.0954-3.3453-3.0954h-2.7956l-4.994 3.0954-3.7394 14.158-4.2174 0.1693m-88.755 0.01h-6.965l3.835-14.325c0.46594-1.7306-1.0634-3.0953-3.3331-3.0953h-6.9652l-3.2976 12.508-5.4838 4.9105h-6.9652l5.6152-20.956 10.908 0.4677h13.966c4.5877 0 7.5505 2.7601 6.6307 6.1647l-3.7275 14.158-4.2174 0.1694m274.38 0h-6.9772l3.847-14.325c0.46594-1.7305-1.0634-3.0954-3.3332-3.0954h-6.9771l-3.2854 12.508-5.4957 4.9106h-6.9532l5.6033-20.956 10.92 0.4677h13.966c4.5996 0 7.5506 2.7601 6.6426 6.1645l-3.7394 14.158-4.2174 0.1693m-216.82-4.088 0.97973-3.7276h13.871l9.9878-6.1528 0.59766-2.4383c0.6093-2.2589-1.3858-4.0859-4.4444-4.0859h-19.414l-9.9878 6.1646-0.94388 3.5244c-0.0358 0.1013-0.0448 0.2034-0.0717 0.3047l-1.7085 6.4037c-0.60931 2.2453 1.3857 4.0859 4.4443 4.0859h18.877l4.9939-3.0716h-16.081c-0.74102 0-1.2544-0.4677-1.0993-1.016zm2.6761-10.239 4.9939-3.0953h7.3714c0.72848 0 1.2544 0.4301 1.099 1.0159l-0.66934 2.4384-4.982 3.0716h-8.7334l0.91978-3.4289m-101.6 14.323h-19.474c-3.0584 0-5.0417-1.8389-4.4444-4.0859l2.7479-10.239 9.9878-6.1647h19.414c3.0584 0 5.0417 1.8289 4.4444 4.086l-2.7002 10.25zm-1.147-6.1531 2.736-10.25c0.16577-0.586-0.34676-1.016-1.0993-1.016h-5.5913l-4.9819 3.0954-2.7002 10.239c-0.14247 0.5484 0.35842 1.0159 1.0994 1.0159h5.5315l5.0059-3.0817m239.03 6.151h-37.538l4.6833-17.527 4.8266-2.9734 6.8338-0.4534-4.8028 17.98h2.6402l4.8267-2.9633 3.1062-11.589 4.8147-2.9735 6.8457-0.4533-4.0262 15.017-1.9236 2.9633h3.7753l4.8625-2.9633 3.0584-11.588 4.8267-2.9735 6.8457-0.4543-4.0382 15.018-9.6174 5.938m-275.14 0h-38.876l6.3081-28.279 5.0059-3.7036 7.0608-0.47758-6.4276 28.769h2.7479l4.994-3.7036 4.6713-20.884 4.994-3.7036 7.0727-0.47758-5.6033 25.065-1.9832 3.7035h3.9068l5.0416-3.7035 4.6116-20.884 4.9939-3.7036 7.0728-0.47759-5.6033 25.065-9.9878 7.3954"/>
</svg>
