<?xml version="1.0" encoding="utf-8"?>
<!-- Generator: Adobe Illustrator 15.1.0, SVG Export Plug-In  -->
<!DOCTYPE svg PUBLIC "-//W3C//DTD SVG 1.1//EN" "http://www.w3.org/Graphics/SVG/1.1/DTD/svg11.dtd" [
	<!ENTITY ns_flows "http://ns.adobe.com/Flows/1.0/">
]>
<svg version="1.1"
	 xmlns="http://www.w3.org/2000/svg" xmlns:xlink="http://www.w3.org/1999/xlink" xmlns:a="http://ns.adobe.com/AdobeSVGViewerExtensions/3.0/"
	 x="0px" y="0px" width="657px" height="225px" viewBox="-9.595 -11.5 657 225" enable-background="new -9.595 -11.5 657 225"
	 xml:space="preserve">
<defs>
</defs>
<path d="M153.81,202.5H0l97.271-95.447L153.81,202.5z M31.81,189.5H131l-36.461-61.553L31.81,189.5z"/>
<path d="M447.126,0L402.2,47h54.589l-80.185,142.5h-51.439L216.165,0H60.116l117.546,202.5h143.743h11.237h36.646h12.116h142.26
	L640.142,0H447.126z M185.147,189.5L82.693,13h125.952l101.522,176.5H185.147z M516.145,189.5H391.521l87.5-155.5H432.61l20.073-21
	h164.984L516.145,189.5z"/>
<path d="M292.463,91.218L241.307,0h141.141L292.463,91.218z M263.502,13l31.844,56.783L351.362,13H263.502z"/>
</svg>
