<svg xmlns="http://www.w3.org/2000/svg" version="1.0" width="171.818" height="43.527"><g font-weight="400" font-family="Bitstream Vera Sans"><path d="M110.573 22.551v-2.668h3.049c2.214 0 3.802-.453 4.764-1.36.961-.908 1.442-2.015 1.442-3.322 0-1.428-.535-2.562-1.606-3.403-1.07-.84-2.41-1.261-4.02-1.261-2.988 0-5.057 1.446-6.206 4.337h-3.031c1.73-4.658 4.912-6.987 9.546-6.987 2.601 0 4.703.693 6.307 2.078 1.603 1.385 2.404 3.052 2.404 5 0 1.512-.484 2.831-1.452 3.956-.968 1.126-2.202 1.833-3.702 2.124 1.694.242 3.149.95 4.365 2.123 1.216 1.174 1.824 2.692 1.824 4.556 0 2.214-.905 4.08-2.714 5.598-1.808 1.519-4.292 2.278-7.45 2.278-2.492 0-4.627-.593-6.406-1.779-1.779-1.185-3.418-4.59-3.702-7.779h3.121c.54 4.163 3.255 6.854 6.933 6.854 2.396 0 4.117-.511 5.163-1.534 1.047-1.022 1.57-2.241 1.57-3.657 0-1.536-.626-2.78-1.878-3.73-1.253-.949-3.01-1.424-5.272-1.424h-3.05zm33.791-7.858h-3.049c-1.028-2.698-2.903-4.047-5.626-4.047-4.997 0-7.55 3.372-7.658 11.466.762-1.646 1.878-2.916 3.348-3.811 1.47-.896 3.022-1.343 4.655-1.343 2.468 0 4.537.862 6.207 2.586 1.67 1.724 2.504 4.465 2.504 6.873 0 2.492-.886 4.646-2.658 6.46-1.773 1.816-4.044 2.723-6.815 2.723-3.158 0-5.669-1.186-7.532-3.557-1.863-2.372-2.795-5.602-2.795-9.691 0-3.993.88-7.402 2.64-10.227 1.761-2.825 4.493-4.238 8.195-4.238 4.247 0 7.108 2.269 8.584 6.806zm-9.165 18.24c1.888 0 3.433-.624 4.637-1.87 1.204-1.246 1.806-2.74 1.806-4.483 0-1.718-.587-3.866-1.76-5.094-1.174-1.228-2.632-1.842-4.374-1.842-1.803 0-3.373.644-4.71 1.932-1.337 1.289-2.005 3.474-2.005 5.204 0 1.597.599 3.022 1.797 4.274 1.197 1.252 2.734 1.878 4.61 1.878zm21.553 2.667c-3.194 0-5.708-1.33-7.54-3.993-1.834-2.661-2.75-5.965-2.75-9.909 0-3.872.871-7.141 2.613-9.81 1.743-2.667 4.271-4 7.586-4 3.46 0 6.053 1.39 7.777 4.173 1.724 2.783 2.586 6.05 2.586 9.8 0 3.667-.886 6.873-2.659 9.62-1.772 2.746-4.31 4.119-7.613 4.119zm.018-2.613c2.384 0 4.117-1.02 5.2-3.058 1.083-2.04 1.624-4.595 1.624-7.668 0-3.376-.553-6.183-1.66-8.421-1.108-2.238-2.877-3.358-5.309-3.358-2.36 0-4.08 1.023-5.163 3.067-1.083 2.045-1.625 4.731-1.625 8.058 0 3.46.572 6.222 1.716 8.285 1.143 2.063 2.882 3.095 5.217 3.095z" style="text-align:start;line-height:125%" font-size="566.097" fill="#989898"/><path d="M27.435 8.05L18.15 21.408l9.267 13.666H23.28l-7.334-11.125-7.515 11.125H4.53l9.375-13.503-9.159-13.52h4.119l7.244 10.98 7.406-10.98h3.92zm23.438 18.712c0 1.343-.253 2.528-.759 3.557-.506 1.028-1.186 1.875-2.04 2.54a9.443 9.443 0 0 1-3.334 1.707c-1.21.338-3.424.508-5.29.508h-9.538V21.952h-5.42l1.807-3.03h3.613V8.05h7.966c1.963 0 4.108.073 5.083.218.975.145 2.246.448 3.138.908.987.52 1.704 1.188 2.15 2.005.445.817.668 1.794.668 2.931 0 1.283-.326 2.375-.976 3.276-.65.901-1.517 1.624-2.601 2.169v.145c1.818.375 2.914 1.176 3.961 2.405 1.048 1.228 1.572 2.78 1.572 4.655zm-5.678-12.178c0-.653-.108-1.204-.325-1.652-.217-.447-.566-.81-1.047-1.089-.566-.326-2.266-.529-3.073-.607-.807-.08-1.806-.118-2.998-.118h-4.263v7.803h4.624c1.12 0 2.011-.057 2.673-.172.663-.115 1.952-.354 2.518-.717.566-.363 1.304-.832 1.54-1.406.234-.575.351-1.256.351-2.042zm1.957 12.323c0-1.09-.163-1.954-.488-2.595-.325-.642-.915-1.186-1.77-1.634-.578-.302-1.28-.499-2.105-.59-.825-.09-2.502-.136-3.683-.136H33.49v10.055h4.732c1.566 0 3.524-.082 4.523-.245 1-.164 1.819-.463 2.457-.899.674-.472 1.168-1.01 1.481-1.615.313-.605.47-1.385.47-2.341zm6.908-5.608c0 2.94.958 5.493 2.873 7.659 1.878 2.202 4.269 3.303 7.17 3.303 2.108 0 4.156-.732 6.143-2.196 2.661-1.972 3.992-4.725 3.992-8.258 0-2.807-.88-5.196-2.638-7.169-1.926-2.165-4.45-3.248-7.568-3.248-2.698 0-5.028.968-6.991 2.904-1.987 1.972-2.98 4.307-2.98 7.005zm-3.793 0c0-3.666 1.427-6.824 4.281-9.474C57.27 9.31 60.323 8.05 63.706 8.05c3.48 0 6.576 1.047 9.285 3.14 3.312 2.517 4.968 6.007 4.968 10.472 0 3.424-1.259 6.545-3.776 9.365-2.721 2.988-5.997 4.482-9.826 4.482-3.77 0-7.003-1.228-9.7-3.684-2.927-2.722-4.39-6.23-4.39-10.526zM97.484 8.05L88.2 21.408l9.267 13.666H93.33l-7.334-11.125-7.515 11.125H74.58l9.375-13.503-9.158-13.52h4.119l7.243 10.98 7.406-10.98h3.92z" style="text-align:start;line-height:125%" font-size="564.772" fill="#99cb33"/></g></svg>