<?xml version="1.0" encoding="UTF-8" standalone="no"?>
<svg
   xmlns:dc="http://purl.org/dc/elements/1.1/"
   xmlns:cc="http://creativecommons.org/ns#"
   xmlns:rdf="http://www.w3.org/1999/02/22-rdf-syntax-ns#"
   xmlns:svg="http://www.w3.org/2000/svg"
   xmlns="http://www.w3.org/2000/svg"
   xmlns:sodipodi="http://sodipodi.sourceforge.net/DTD/sodipodi-0.dtd"
   xmlns:inkscape="http://www.inkscape.org/namespaces/inkscape"
   width="100"
   height="101"
   viewBox="0 0 80 80.8"
   version="1.1"
   id="svg2"
   sodipodi:version="0.32"
   inkscape:version="0.92.4 (5da689c313, 2019-01-14)"
   sodipodi:docname="Sony Channel logo.svg">
  <title
     id="title4296">Xbox Series X logo</title>
  <metadata
     id="metadata59">
    <rdf:RDF>
      <cc:Work
         rdf:about="">
        <dc:format>image/svg+xml</dc:format>
        <dc:type
           rdf:resource="http://purl.org/dc/dcmitype/StillImage" />
        <dc:title>Xbox Series X logo</dc:title>
        <cc:license
           rdf:resource="http://scripts.sil.org/OFL" />
        <dc:date>1 mrz 2020</dc:date>
        <dc:creator>
          <cc:Agent>
            <dc:title>EEIM</dc:title>
          </cc:Agent>
        </dc:creator>
      </cc:Work>
      <cc:License
         rdf:about="http://scripts.sil.org/OFL">
        <cc:permits
           rdf:resource="http://scripts.sil.org/pub/OFL/Reproduction" />
        <cc:permits
           rdf:resource="http://scripts.sil.org/pub/OFL/Distribution" />
        <cc:permits
           rdf:resource="http://scripts.sil.org/pub/OFL/Embedding" />
        <cc:permits
           rdf:resource="http://scripts.sil.org/pub/OFL/DerivativeWorks" />
        <cc:requires
           rdf:resource="http://scripts.sil.org/pub/OFL/Notice" />
        <cc:requires
           rdf:resource="http://scripts.sil.org/pub/OFL/Attribution" />
        <cc:requires
           rdf:resource="http://scripts.sil.org/pub/OFL/ShareAlike" />
        <cc:requires
           rdf:resource="http://scripts.sil.org/pub/OFL/DerivativeRenaming" />
        <cc:requires
           rdf:resource="http://scripts.sil.org/pub/OFL/BundlingWhenSelling" />
      </cc:License>
    </rdf:RDF>
  </metadata>
  <defs
     id="defs57" />
  <sodipodi:namedview
     inkscape:window-height="705"
     inkscape:window-width="1366"
     inkscape:pageshadow="2"
     inkscape:pageopacity="0"
     guidetolerance="1"
     gridtolerance="1"
     objecttolerance="1"
     borderopacity="1.0"
     bordercolor="#666666"
     pagecolor="#ffffff"
     id="base"
     inkscape:zoom="1"
     inkscape:cx="69.793098"
     inkscape:cy="58.956819"
     inkscape:window-x="-8"
     inkscape:window-y="-8"
     inkscape:current-layer="svg2"
     showgrid="false"
     showguides="false"
     inkscape:showpageshadow="false"
     units="px"
     inkscape:window-maximized="1" />
  <g
     id="#ffffffff"
     transform="translate(0,-1060.2)" />
  <g
     id="#2acbffff-4"
     transform="matrix(0.74035173,0,0,0.75447038,-840.95699,-746.35387)"
     style="fill:#00ff00" />
  <g
     id="g26"
     transform="matrix(0.44444299,0,0,0.44444299,-0.25427334,-0.06421408)">
    <g
       id="g6">
      <path
         d="M 90.740234,1.0996094 C 82.640234,1.0996094 75.941797,3.3 69.841797,7 c -0.1,0 -0.101563,0.099219 -0.101563,0.1992188 0,0.1 0.101172,0.1015624 0.201172,0.1015624 7.8,-1.7 19.599219,4.9992188 20.699219,5.6992188 h 0.09961 0.101563 c 1.1,-0.7 12.899222,-7.3992187 20.699222,-5.6992188 0.1,0 0.19921,-0.00156 0.19921,-0.1015624 C 111.74023,7.0992187 111.74063,7 111.64062,7 105.54063,3.3 98.840234,1.0996094 90.740234,1.0996094 Z M 117.56055,12.371094 c -1.98282,0.117187 -6.59532,1.653515 -15.82032,10.728515 l -0.0996,0.09961 c 0,0 -3.9e-4,0.101562 0.0996,0.101562 8.1,9.6 23.70118,32.5 20.70118,42 V 65.5 c 0.1,0 0.19922,3.91e-4 0.19921,-0.09961 5.1,-6.7 8.20118,-15.200782 8.20118,-24.300782 0,-11.1 -4.50039,-21.2 -11.90039,-28.5 -0.1,-0.1 -0.10118,-0.09961 -0.20118,-0.09961 -0.15,-0.05 -0.51875,-0.167969 -1.17968,-0.128906 z m -53.681644,0.04297 c -0.675,-0.02656 -1.063281,0.110547 -1.238281,0.185547 -0.1,0 -0.09922,0.09961 -0.199219,0.09961 -7.3,7.3 -11.800781,17.4 -11.800781,28.5 0,9.1 3.101172,17.600781 8.201172,24.300781 0,0.1 0.09922,0.09961 0.199219,0.09961 0.1,0 0.1,-0.09922 0,-0.199218 -3.1,-9.5 12.599218,-32.4 20.699218,-42 l 0.101563,-0.09961 c 0,-0.1 -0.0016,-0.101562 -0.101563,-0.101562 -9.224992,-9.15 -13.836328,-10.705469 -15.861328,-10.785158 z m 26.861328,20.886719 c 0,0 -0.09961,-3.8e-4 -0.09961,0.09961 -12,9.1 -32.598828,31.699609 -26.298828,38.099609 7,6.2 16.298437,9.900391 26.398437,9.900391 10.099997,0 19.300397,-3.700391 26.400387,-9.900391 6.2,-6.39999 -14.29882,-28.999609 -26.298824,-38.099609 0,-0.1 -0.101563,-0.09961 -0.101562,-0.09961 z m 24.201176,59.5 c -3.5,0 -6.79961,0.599219 -9.59961,1.699219 -2.9,1.2 -5.400003,2.899219 -7.500003,5.199219 -2.2,2.299999 -3.800391,5.101559 -4.900391,8.101559 -1.1,3 -1.599609,6.49922 -1.599609,10.19922 0,3.7 0.499609,7.19923 1.599609,10.19922 1.1,3 2.700391,5.69999 4.900391,8 2.200003,2.30001 4.700003,4.00117 7.500003,5.20117 2.8,1.09999 6.09961,1.69922 9.59961,1.69922 3.6,0 6.79961,-0.49922 9.59961,-1.69922 2.8,-1.09999 5.3,-2.90117 7.5,-5.20117 2.1,-2.3 3.70077,-5 4.80078,-8 1.10001,-3 1.59961,-6.49922 1.59961,-10.19922 0,-3.8 -0.5996,-7.19923 -1.59961,-10.19922 -1,-3 -2.70077,-5.80156 -4.80078,-8.101559 -2.10001,-2.3 -4.7,-4.099219 -7.5,-5.199219 -2.9,-1.1 -6.09961,-1.699219 -9.59961,-1.699219 z M 3.0410156,93.900391 19.740234,117 1.5410156,142.09961 h 8.1992188 l 14.2011716,-19.5 14.09961,19.5 h 8.199218 L 28.041016,117 44.841797,93.900391 H 36.640625 L 23.941406,111.40039 11.240234,93.900391 Z m 47.0996094,0 v 20.499999 h -6.298828 l -4.5,6.19922 h 10.798828 v 21.5 h 22.5 c 5.2,0 9.2,-1.29923 12,-3.69922 2.8,-2.39999 4.201172,-5.8 4.201172,-10 0,-2.59999 -0.701172,-5.00039 -2.201172,-6.90039 -1.4,-1.9 -3.399609,-3.5 -6.099609,-4.5 4.2,-2.3 6.300781,-5.9 6.300781,-10.5 0,-3.7 -1.300391,-6.799609 -3.900391,-9.099609 -2.6,-2.3 -6.301172,-3.5 -11.201172,-3.5 z m 86.499995,0 L 153.44141,117 135.24023,142.09961 h 8.20118 l 14.09961,-19.5 14.19921,19.5 h 8.20118 L 161.64062,117 178.44141,93.900391 h -8.20118 L 157.54102,111.40039 144.8418,93.900391 Z m -21.69921,5.5 c 4.8,0 8.69961,1.699999 11.59961,4.999999 2.90001,3.3 4.30078,7.89962 4.30078,13.59961 0,5.69999 -1.40078,10.2 -4.30078,13.5 -2.9,3.3 -6.79961,5 -11.59961,5 -4.9,0 -8.69961,-1.7 -11.59961,-5 -2.9,-3.29998 -4.400394,-7.8 -4.400394,-13.5 0,-5.7 1.500394,-10.1996 4.400394,-13.59961 2.9,-3.3 6.79961,-4.999999 11.59961,-4.999999 z m -57.500004,0.798829 h 13.798828 c 2.7,0 4.801172,0.60078 6.201172,1.80078 1.5,1.2 2.199219,2.9 2.199219,5 0,2.5 -0.699609,4.39961 -2.099609,5.59961 -1.4,1.3 -3.500782,1.90039 -6.300782,1.90039 H 57.441406 Z m 0,20.40039 h 14.900391 c 3,0 5.298828,0.60039 6.798828,1.90039 1.5,1.2 2.300781,3.19922 2.300781,5.69922 0,2.39999 -0.80039,4.30153 -2.40039,5.60156 -1.6,1.19999 -3.900782,1.89844 -6.800782,1.89844 H 57.441406 Z m -35.40039,40.30078 c -2.1,0 -3.8,0.5004 -5,1.40039 -1.2,0.89999 -1.800782,2.19883 -1.800782,3.79883 0,1.6 0.5,2.80117 1.5,3.70117 1,0.9 2.5,1.60001 4.5,2 l 1.601563,0.39844 c 1.6,0.39999 2.798437,0.80117 3.398437,1.20117 0.6,0.5 0.900391,1.10041 0.900391,1.90039 0,1 -0.399609,1.79845 -1.099609,2.39844 -0.8,0.5 -1.900782,0.80078 -3.300782,0.80078 -1.7,0 -2.998437,-0.39959 -3.898437,-1.09961 -0.9,-0.7 -1.300781,-1.80117 -1.300781,-3.20117 h -2.800782 c 0,2.2 0.701172,3.90154 2.201172,5.10156 1.4,1.2 3.400391,1.69922 5.900391,1.69922 2.3,0 4.2,-0.5 5.5,-1.5 1.3,-1 2,-2.49922 2,-4.19922 0,-1.49996 -0.5,-2.70157 -1.5,-3.60156 -1,-0.89999 -2.600781,-1.60001 -4.800781,-2 l -1.699219,-0.39844 c -1.6,-0.3 -2.700781,-0.80117 -3.300781,-1.20117 -0.6,-0.39999 -0.900391,-1.10001 -0.900391,-2 0,-0.89999 0.3,-1.5 1,-2 0.7,-0.5 1.600391,-0.69922 2.900391,-0.69922 1.6,0 2.8,0.3004 3.5,0.90039 0.7,0.60001 1.099218,1.49922 1.199218,2.69922 h 3 c 0,-1.89999 -0.7,-3.39999 -2,-4.5 -1.3,-1.10001 -3.199218,-1.59961 -5.699218,-1.59961 z m 103.599604,0 c -2.09999,0 -3.8,0.5004 -5,1.40039 -1.2,0.89999 -1.79882,2.19883 -1.79882,3.79883 0,1.6 0.5,2.80117 1.5,3.70117 1,0.9 2.5,1.60001 4.5,2 l 1.59961,0.39844 c 1.6,0.39999 2.80039,0.80117 3.40039,1.20117 0.60001,0.5 0.89843,1.10041 0.89843,1.90039 0,1 -0.39959,1.79845 -1.09961,2.39844 -0.8,0.5 -1.89882,0.80078 -3.29882,0.80078 -1.7,0 -3.00039,-0.39959 -3.90039,-1.09961 -0.9,-0.7 -1.30079,-1.80117 -1.30079,-3.20117 h -2.90039 c 0,2.2 0.70118,3.90154 2.20118,5.10156 1.4,1.2 3.40039,1.69922 5.90039,1.69922 2.30001,0 4.19999,-0.5 5.5,-1.5 1.30001,-1 2,-2.49922 2,-4.19922 0.20002,-1.49996 -0.30078,-2.70157 -1.30078,-3.60156 -1,-0.89999 -2.6008,-1.60001 -4.80079,-2 l -1.69921,-0.39844 c -1.6,-0.3 -2.70079,-0.80117 -3.30079,-1.20117 -0.6,-0.39999 -0.89843,-1.10001 -0.89843,-2 0,-0.89999 0.3,-1.5 1,-2 0.7,-0.5 1.59843,-0.69922 2.89843,-0.69922 1.6,0 2.8,0.3004 3.5,0.90039 0.7,0.60001 1.10119,1.49922 1.20118,2.69922 h 2.90039 c 0,-1.89999 -0.7,-3.39999 -2,-4.5 -1.3,-1.10001 -3.20118,-1.59961 -5.70118,-1.59961 z m -87.400386,0.5 v 19.29883 H 51.941406 V 178 H 41.140625 v -5.90039 h 9.599609 v -2.5 H 41.140625 V 164 h 10.800781 v -2.59961 z m 22.101563,0 v 19.29883 h 2.898437 v -7.89844 h 5.601563 c 1.1,0 1.898437,0.29883 2.398437,0.79883 0.5,0.5 0.800782,1.39959 0.800782,2.59961 l 0.09961,2.10156 c 0,1.10001 0.199609,1.89999 0.599609,2.5 h 3 c -0.29999,-0.70003 -0.499609,-1.5 -0.599609,-2.5 l -0.199219,-3 c 0,-1.10001 -0.301172,-1.90154 -0.701172,-2.60156 -0.4,-0.60001 -1.1,-1.09884 -2,-1.29883 1,-0.3 1.800782,-0.90116 2.300782,-1.70117 0.6,-0.8 0.90039,-1.8 0.90039,-3 0,-1.7 -0.600781,-2.99845 -1.800781,-3.89844 -1.2,-0.89999 -2.800391,-1.40039 -4.900391,-1.40039 z m 23.798828,0 v 19.29883 h 2.900391 v -19.29883 z m 12.599609,0 v 19.29883 H 110.54102 V 178 H 99.640625 v -5.90039 h 9.599605 v -2.5 H 99.640625 V 164 h 10.900395 v -2.59961 z m 52.499996,0 6.70118,9.19922 -7.30079,10.09961 h 3.30079 l 5.59961,-7.79883 5.69921,7.79883 h 3.30079 l -7.30079,-10.09961 6.70118,-9.19922 h -3.30079 l -5.0996,7 -5,-7 z m -85.798824,2.5 h 5.199219 c 1.2,0 2.200781,0.29883 2.800781,0.79883 0.6,0.5 1,1.30078 1,2.30078 0,1 -0.30039,1.90039 -0.90039,2.40039 -0.6,0.60001 -1.49961,0.90039 -2.59961,0.90039 h -5.5 z"
         id="path2"
         inkscape:connector-curvature="0" />
    </g>
    <g
       id="g20" />
    <g
       id="g24" />
  </g>
</svg>
