<?xml version="1.0" encoding="utf-8"?>
<!-- Generator: Adobe Illustrator 17.0.0, SVG Export Plug-In . SVG Version: 6.00 Build 0)  -->
<!DOCTYPE svg PUBLIC "-//W3C//DTD SVG 1.1//EN" "http://www.w3.org/Graphics/SVG/1.1/DTD/svg11.dtd">
<svg version="1.1" id="Layer_1" xmlns="http://www.w3.org/2000/svg" xmlns:xlink="http://www.w3.org/1999/xlink" x="0px" y="0px"
	 width="952.876px" height="204.393px" viewBox="0 0 952.876 204.393" enable-background="new 0 0 952.876 204.393"
	 xml:space="preserve">
<g>
	<rect x="132.267" y="51.143" width="22.609" height="19.5"/>
	<polygon points="126.861,101.393 31.329,101.393 31.329,93.643 126.751,93.643 126.751,74.143 8.876,74.143 8.845,119.893 
		104.251,119.893 104.251,127.393 8.845,127.393 8.845,147.393 126.861,147.393 	"/>
	<rect x="403.517" y="53.559" width="22.609" height="94"/>
	<rect x="552.017" y="74.377" width="22.609" height="73.016"/>
	<rect x="132.267" y="74.377" width="22.609" height="73.016"/>
	<polygon points="277.001,74.377 159.892,74.377 159.892,147.476 182.501,147.476 182.501,93.877 254.392,93.877 254.392,147.393 
		277.001,147.393 	"/>
	<polygon points="398.71,147.393 398.71,127.393 304.501,127.393 304.501,93.877 398.71,93.877 398.741,74.377 281.892,74.377 
		281.892,147.393 	"/>
	<path d="M547.251,147.393V74.377l-116.208,0v19.5h93.599v7.571h-93.599v45.945H547.251z M524.642,127.393h-70.99v-7.5h70.99
		V127.393z"/>
	<rect x="552.017" y="51.143" width="22.609" height="19.417"/>
	<polygon points="580.267,74.377 580.267,147.393 602.876,147.393 602.876,93.893 694.543,93.893 694.543,74.377 	"/>
</g>
<g>
	<polygon fill="#FF0000" points="802.156,7.393 754.823,7.393 691.876,147.393 739.21,147.393 	"/>
	<polygon fill="#FFFF00" points="849.49,7.393 802.156,7.393 739.21,147.393 786.543,147.393 	"/>
	<polygon fill="#00FF12" points="896.823,7.393 849.49,7.393 786.543,147.393 833.876,147.393 	"/>
	<polygon fill="#00FFFF" points="944.156,7.393 896.823,7.393 833.876,147.393 881.21,147.393 	"/>
</g>
<g>
	<path d="M35.708,185.727H9.766v-4.178l16.509-22.124H10.956v-5.907h24.707v4.065l-16.149,22.259h16.194V185.727z"/>
	<path d="M65.185,185.727h-8.603l-5.548-10.489c-0.21-0.39-0.427-1.108-0.651-2.156h-0.09c-0.105,0.494-0.352,1.243-0.741,2.246
		l-5.57,10.399h-8.647L45.6,169.623l-9.389-16.104h8.827l4.604,9.658c0.359,0.764,0.681,1.67,0.966,2.718h0.09
		c0.18-0.629,0.517-1.564,1.011-2.808l5.121-9.568h8.086l-9.658,15.97L65.185,185.727z"/>
	<path d="M77.106,184.491v-7.188c1.303,1.093,2.718,1.913,4.245,2.46c1.527,0.546,3.069,0.819,4.627,0.819
		c0.913,0,1.71-0.082,2.392-0.247c0.681-0.165,1.25-0.393,1.707-0.686c0.457-0.291,0.797-0.636,1.022-1.033
		c0.225-0.396,0.337-0.827,0.337-1.291c0-0.629-0.18-1.19-0.539-1.685s-0.85-0.951-1.471-1.37c-0.622-0.419-1.359-0.823-2.212-1.213
		s-1.774-0.786-2.763-1.19c-2.516-1.048-4.391-2.328-5.626-3.841s-1.853-3.339-1.853-5.48c0-1.677,0.337-3.118,1.011-4.324
		c0.674-1.205,1.591-2.197,2.751-2.976c1.16-0.778,2.504-1.352,4.032-1.718c1.527-0.367,3.145-0.551,4.852-0.551
		c1.677,0,3.163,0.102,4.458,0.303c1.295,0.203,2.489,0.514,3.583,0.933v6.716c-0.539-0.374-1.127-0.704-1.763-0.988
		c-0.637-0.284-1.292-0.521-1.965-0.707c-0.674-0.188-1.344-0.326-2.01-0.416c-0.667-0.09-1.299-0.135-1.898-0.135
		c-0.824,0-1.572,0.078-2.246,0.236c-0.674,0.156-1.243,0.378-1.707,0.662s-0.824,0.625-1.078,1.021
		c-0.255,0.397-0.382,0.843-0.382,1.337c0,0.539,0.142,1.022,0.427,1.448c0.284,0.428,0.688,0.832,1.213,1.213
		c0.524,0.383,1.16,0.757,1.909,1.123c0.749,0.367,1.595,0.745,2.538,1.135c1.288,0.539,2.444,1.111,3.47,1.719
		c1.025,0.605,1.905,1.291,2.639,2.055c0.733,0.764,1.295,1.636,1.685,2.617c0.389,0.98,0.584,2.122,0.584,3.425
		c0,1.797-0.341,3.306-1.022,4.526c-0.682,1.22-1.606,2.208-2.774,2.965c-1.168,0.756-2.527,1.299-4.077,1.628
		s-3.186,0.494-4.908,0.494c-1.767,0-3.448-0.149-5.042-0.449S78.274,185.09,77.106,184.491z"/>
	<path d="M109.301,183.054h-0.09v13.252h-7.098v-33.579h7.098v3.459h0.09c1.752-2.681,4.215-4.021,7.39-4.021
		c2.979,0,5.282,1.022,6.907,3.065c1.625,2.045,2.437,4.826,2.437,8.345c0,3.833-0.947,6.91-2.841,9.231
		c-1.895,2.321-4.414,3.481-7.558,3.481C112.864,186.288,110.753,185.21,109.301,183.054z M109.099,173.62v1.842
		c0,1.587,0.419,2.883,1.258,3.886c0.838,1.003,1.939,1.505,3.302,1.505c1.617,0,2.871-0.625,3.762-1.876
		c0.891-1.25,1.336-3.021,1.336-5.312c0-4.043-1.572-6.064-4.717-6.064c-1.453,0-2.639,0.55-3.56,1.651
		C109.559,170.352,109.099,171.809,109.099,173.62z"/>
	<path d="M149.739,176.248h-15.004c0.239,3.339,2.343,5.009,6.312,5.009c2.53,0,4.754-0.599,6.671-1.797v5.121
		c-2.126,1.138-4.889,1.707-8.288,1.707c-3.714,0-6.596-1.029-8.647-3.089c-2.052-2.059-3.077-4.93-3.077-8.613
		c0-3.818,1.108-6.843,3.324-9.074s4.941-3.347,8.176-3.347c3.354,0,5.948,0.996,7.783,2.987c1.834,1.991,2.751,4.694,2.751,8.108
		v2.988H149.739z M143.158,171.891c0-3.294-1.333-4.941-3.998-4.941c-1.138,0-2.123,0.472-2.954,1.415s-1.336,2.119-1.516,3.526
		H143.158z"/>
	<path d="M169.827,184.896c-1.603,0.929-3.916,1.393-6.94,1.393c-3.534,0-6.394-1.07-8.58-3.212
		c-2.187-2.142-3.279-4.904-3.279-8.288c0-3.908,1.171-6.989,3.515-9.243c2.343-2.253,5.477-3.38,9.4-3.38
		c2.71,0,4.672,0.359,5.885,1.078v6.02c-1.482-1.108-3.137-1.662-4.964-1.662c-2.037,0-3.65,0.595-4.84,1.786
		c-1.19,1.189-1.786,2.833-1.786,4.93c0,2.036,0.569,3.635,1.707,4.795c1.138,1.161,2.703,1.741,4.694,1.741
		c1.767,0,3.496-0.554,5.188-1.662L169.827,184.896L169.827,184.896z"/>
	<path d="M186.816,185.457c-1.048,0.554-2.628,0.831-4.739,0.831c-5.001,0-7.502-2.598-7.502-7.794V167.96h-3.729v-5.233h3.729
		v-4.964l7.075-2.021v6.985h5.166v5.233h-5.166v9.299c0,2.396,0.951,3.594,2.853,3.594c0.749,0,1.52-0.217,2.313-0.651V185.457z"/>
	<path d="M204.254,169.128c-0.854-0.464-1.85-0.696-2.987-0.696c-1.542,0-2.748,0.565-3.616,1.695
		c-0.869,1.131-1.303,2.67-1.303,4.616v10.983h-7.098v-23h7.098v4.268h0.09c1.123-3.114,3.145-4.672,6.064-4.672
		c0.749,0,1.333,0.09,1.752,0.27V169.128z"/>
	<path d="M227.846,185.727h-7.075v-3.504h-0.112c-1.752,2.71-4.096,4.065-7.03,4.065c-5.331,0-7.996-3.227-7.996-9.681v-13.881
		h7.075v13.252c0,3.249,1.288,4.874,3.863,4.874c1.272,0,2.291-0.445,3.055-1.337c0.764-0.891,1.146-2.1,1.146-3.627v-13.162h7.075
		L227.846,185.727L227.846,185.727z"/>
	<path d="M268.778,185.727h-7.075V172.61c0-3.339-1.228-5.009-3.684-5.009c-1.168,0-2.119,0.502-2.853,1.505
		s-1.101,2.254-1.101,3.751v12.87h-7.098v-13.252c0-3.249-1.206-4.874-3.616-4.874c-1.213,0-2.183,0.479-2.909,1.438
		c-0.727,0.958-1.089,2.261-1.089,3.908v12.78h-7.098v-23h7.098v3.594h0.09c0.733-1.228,1.763-2.228,3.088-2.998
		c1.325-0.771,2.774-1.157,4.346-1.157c3.249,0,5.473,1.43,6.671,4.29c1.752-2.86,4.327-4.29,7.727-4.29
		c5.001,0,7.502,3.085,7.502,9.254v14.307H268.778z"/>
</g>
</svg>
