<svg xmlns="http://www.w3.org/2000/svg" width="952.876" height="204.393"><path d="M132.267 51.143h22.609v19.5h-22.609zM126.861 101.393H31.329v-7.75h95.422v-19.5H8.876l-.031 45.75h95.406v7.5H8.845v20h118.016zM403.517 53.559h22.609v94h-22.609zM552.017 74.377h22.609v73.016h-22.609zM132.267 74.377h22.609v73.016h-22.609zM277.001 74.377H159.892v73.099h22.609V93.877h71.891v53.516h22.609zM398.71 147.393v-20h-94.209V93.877h94.209l.031-19.5H281.892v73.016zM547.251 147.393V74.377H431.043v19.5h93.599v7.571h-93.599v45.945h116.208zm-22.609-20h-70.99v-7.5h70.99v7.5zM552.017 51.143h22.609V70.56h-22.609zM580.267 74.377v73.016h22.609v-53.5h91.667V74.377z"/><g><path fill="red" d="M802.156 7.393h-47.333l-62.947 140h47.334z"/><path fill="#FF0" d="M849.49 7.393h-47.334l-62.946 140h47.333z"/><path fill="#00FF12" d="M896.823 7.393H849.49l-62.947 140h47.333z"/><path fill="#0FF" d="M944.156 7.393h-47.333l-62.947 140h47.334z"/></g><g><path d="M35.708 185.727H9.766v-4.178l16.509-22.124H10.956v-5.907h24.707v4.065l-16.149 22.259h16.194v5.885z"/><path d="M65.185 185.727h-8.603l-5.548-10.489c-.21-.39-.427-1.108-.651-2.156h-.09c-.105.494-.352 1.243-.741 2.246l-5.57 10.399h-8.647L45.6 169.623l-9.389-16.104h8.827l4.604 9.658c.359.764.681 1.67.966 2.718h.09c.18-.629.517-1.564 1.011-2.808l5.121-9.568h8.086l-9.658 15.97 9.927 16.238zM77.106 184.491v-7.188a13.83 13.83 0 004.245 2.46c1.527.546 3.069.819 4.627.819.913 0 1.71-.082 2.392-.247.681-.165 1.25-.393 1.707-.686.457-.291.797-.636 1.022-1.033a2.57 2.57 0 00.337-1.291c0-.629-.18-1.19-.539-1.685s-.85-.951-1.471-1.37c-.622-.419-1.359-.823-2.212-1.213s-1.774-.786-2.763-1.19c-2.516-1.048-4.391-2.328-5.626-3.841s-1.853-3.339-1.853-5.48c0-1.677.337-3.118 1.011-4.324a8.595 8.595 0 012.751-2.976c1.16-.778 2.504-1.352 4.032-1.718a20.71 20.71 0 014.852-.551c1.677 0 3.163.102 4.458.303 1.295.203 2.489.514 3.583.933v6.716a10.832 10.832 0 00-1.763-.988 13.944 13.944 0 00-1.965-.707 14.902 14.902 0 00-3.908-.551c-.824 0-1.572.078-2.246.236-.674.156-1.243.378-1.707.662s-.824.625-1.078 1.021a2.422 2.422 0 00-.382 1.337c0 .539.142 1.022.427 1.448.284.428.688.832 1.213 1.213.524.383 1.16.757 1.909 1.123.749.367 1.595.745 2.538 1.135a28.05 28.05 0 013.47 1.719c1.025.605 1.905 1.291 2.639 2.055a8.033 8.033 0 011.685 2.617c.389.98.584 2.122.584 3.425 0 1.797-.341 3.306-1.022 4.526a8.313 8.313 0 01-2.774 2.965c-1.168.756-2.527 1.299-4.077 1.628s-3.186.494-4.908.494c-1.767 0-3.448-.149-5.042-.449s-2.978-.748-4.146-1.347zM109.301 183.054h-.09v13.252h-7.098v-33.579h7.098v3.459h.09c1.752-2.681 4.215-4.021 7.39-4.021 2.979 0 5.282 1.022 6.907 3.065 1.625 2.045 2.437 4.826 2.437 8.345 0 3.833-.947 6.91-2.841 9.231-1.895 2.321-4.414 3.481-7.558 3.481-2.772.001-4.883-1.077-6.335-3.233zm-.202-9.434v1.842c0 1.587.419 2.883 1.258 3.886.838 1.003 1.939 1.505 3.302 1.505 1.617 0 2.871-.625 3.762-1.876.891-1.25 1.336-3.021 1.336-5.312 0-4.043-1.572-6.064-4.717-6.064-1.453 0-2.639.55-3.56 1.651-.921 1.1-1.381 2.557-1.381 4.368zM149.739 176.248h-15.004c.239 3.339 2.343 5.009 6.312 5.009 2.53 0 4.754-.599 6.671-1.797v5.121c-2.126 1.138-4.889 1.707-8.288 1.707-3.714 0-6.596-1.029-8.647-3.089-2.052-2.059-3.077-4.93-3.077-8.613 0-3.818 1.108-6.843 3.324-9.074s4.941-3.347 8.176-3.347c3.354 0 5.948.996 7.783 2.987 1.834 1.991 2.751 4.694 2.751 8.108v2.988h-.001zm-6.581-4.357c0-3.294-1.333-4.941-3.998-4.941-1.138 0-2.123.472-2.954 1.415s-1.336 2.119-1.516 3.526h8.468zM169.827 184.896c-1.603.929-3.916 1.393-6.94 1.393-3.534 0-6.394-1.07-8.58-3.212-2.187-2.142-3.279-4.904-3.279-8.288 0-3.908 1.171-6.989 3.515-9.243 2.343-2.253 5.477-3.38 9.4-3.38 2.71 0 4.672.359 5.885 1.078v6.02c-1.482-1.108-3.137-1.662-4.964-1.662-2.037 0-3.65.595-4.84 1.786-1.19 1.189-1.786 2.833-1.786 4.93 0 2.036.569 3.635 1.707 4.795 1.138 1.161 2.703 1.741 4.694 1.741 1.767 0 3.496-.554 5.188-1.662v5.704zM186.816 185.457c-1.048.554-2.628.831-4.739.831-5.001 0-7.502-2.598-7.502-7.794V167.96h-3.729v-5.233h3.729v-4.964l7.075-2.021v6.985h5.166v5.233h-5.166v9.299c0 2.396.951 3.594 2.853 3.594.749 0 1.52-.217 2.313-.651v5.255zM204.254 169.128c-.854-.464-1.85-.696-2.987-.696-1.542 0-2.748.565-3.616 1.695-.869 1.131-1.303 2.67-1.303 4.616v10.983h-7.098v-23h7.098v4.268h.09c1.123-3.114 3.145-4.672 6.064-4.672.749 0 1.333.09 1.752.27v6.536zM227.846 185.727h-7.075v-3.504h-.112c-1.752 2.71-4.096 4.065-7.03 4.065-5.331 0-7.996-3.227-7.996-9.681v-13.881h7.075v13.252c0 3.249 1.288 4.874 3.863 4.874 1.272 0 2.291-.445 3.055-1.337.764-.891 1.146-2.1 1.146-3.627v-13.162h7.075l-.001 23.001zM268.778 185.727h-7.075V172.61c0-3.339-1.228-5.009-3.684-5.009-1.168 0-2.119.502-2.853 1.505s-1.101 2.254-1.101 3.751v12.87h-7.098v-13.252c0-3.249-1.206-4.874-3.616-4.874-1.213 0-2.183.479-2.909 1.438-.727.958-1.089 2.261-1.089 3.908v12.78h-7.098v-23h7.098v3.594h.09c.733-1.228 1.763-2.228 3.088-2.998a8.49 8.49 0 014.346-1.157c3.249 0 5.473 1.43 6.671 4.29 1.752-2.86 4.327-4.29 7.727-4.29 5.001 0 7.502 3.085 7.502 9.254v14.307h.001z"/></g></svg>
