<svg xmlns="http://www.w3.org/2000/svg" width="200" height="200" xml:space="preserve"><path fill="none" stroke="#FFF" stroke-width="18.07807584" d="M190.963 175.963c0 8.46-6.923 14.998-15.384 14.998H24.039c-8.074 0-14.997-6.538-14.997-14.998V24.423c0-8.075 6.923-14.997 14.998-14.997h151.539c8.46 0 15.384 6.922 15.384 14.998v151.539z"/><path fill="#FFF" d="M191.155 175.963c0 8.46-6.923 14.998-14.998 14.998H24.618c-8.46 0-14.998-6.538-14.998-14.998V24.423c0-8.075 6.538-14.997 14.998-14.997h151.54c8.074 0 14.997 6.922 14.997 14.998v151.539z"/><path fill="none" stroke="#000" stroke-width="1.152404" d="M191.155 175.963c0 8.46-6.923 14.998-14.998 14.998H24.618c-8.46 0-14.998-6.538-14.998-14.998V24.423c0-8.075 6.538-14.997 14.998-14.997h151.54c8.074 0 14.997 6.922 14.997 14.998v151.539z"/><path fill="none" stroke="#000" stroke-width="2.30899856" d="M9.616 150.576h181.54"/><path d="M18.6 165.197h1.396v9.949h-1.395v-9.949zm.608 4.417h3.39c.264 0 .5-.063.704-.193.206-.13.365-.31.474-.545.113-.234.168-.502.168-.808s-.055-.574-.168-.81a1.281 1.281 0 0 0-.474-.544 1.282 1.282 0 0 0-.708-.193h-3.39v-1.324h3.336c.574 0 1.08.118 1.513.356.435.24.77.574 1.01 1.01.238.436.36.939.36 1.509s-.122 1.073-.36 1.509a2.53 2.53 0 0 1-1.015 1.01c-.435.238-.938.356-1.508.356h-3.336v-1.333zm2.707 1.018 1.387-.314 2.544 4.828h-1.655l-2.276-4.514zM27.585 165.206h1.396v9.94h-1.396v-9.94zm.679 0h5.708v1.324h-5.708v-1.324zm0 4.341h4.957v1.324h-4.957v-1.324zm0 4.27h5.708v1.324h-5.708v-1.324zM35.811 165.206h1.396v9.94H35.81v-9.94zm.687 0h5.57v1.324h-5.57v-1.324zm0 4.429h4.82v1.324h-4.82v-1.324zM44.968 174.81a2.863 2.863 0 0 1-1.195-1.265c-.272-.553-.41-1.22-.41-2v-6.344h1.395v6.391c0 .725.18 1.286.545 1.68s.88.595 1.546.595c.67 0 1.19-.197 1.555-.595.364-.398.549-.955.549-1.68v-6.39h1.395v6.344c0 .78-.138 1.446-.41 1.999a2.84 2.84 0 0 1-1.195 1.265c-.524.29-1.156.436-1.894.436-.733 0-1.362-.142-1.881-.436zM54.53 175.246l-.64-.138a5.055 5.055 0 0 1-2.243-1.094l.868-1.064c.377.327.796.574 1.253.737.457.164.951.247 1.483.247.721 0 1.278-.134 1.676-.398.399-.268.596-.645.596-1.131v-.008c0-.348-.088-.62-.269-.826a1.648 1.648 0 0 0-.695-.453 7.736 7.736 0 0 0-1.149-.276c-.016 0-.029 0-.046-.009l-.1-.02c-.666-.114-1.207-.244-1.622-.386a2.25 2.25 0 0 1-1.069-.788c-.297-.381-.444-.922-.444-1.622v-.008c0-.616.139-1.14.415-1.576.277-.435.679-.766 1.207-.993s1.165-.343 1.907-.343c.356 0 .704.037 1.047.117.344.075.683.193 1.019.348.335.15.662.343.989.578l-.792 1.106a4.614 4.614 0 0 0-1.132-.624 3.27 3.27 0 0 0-1.131-.21c-.68 0-1.207.135-1.584.407-.377.272-.566.654-.566 1.152v.009c0 .343.096.612.29.808.192.197.435.34.724.432a11.32 11.32 0 0 0 1.257.298c.017.004.034.004.05.012l.076.013.075.012a8.267 8.267 0 0 1 1.509.436c.402.168.742.44 1.01.817.272.373.406.889.406 1.542v.013c0 .608-.142 1.123-.431 1.555-.29.431-.704.758-1.249.985-.545.226-1.203.339-1.974.339-.482.004-.72.004-.72.004zM60.603 165.206h1.395v9.94h-1.395v-9.94zm.678 0h5.708v1.324h-5.708v-1.324zm0 4.341h4.958v1.324H61.28v-1.324zm0 4.27h5.708v1.324h-5.708v-1.324zM68.833 165.206h1.395v9.94h-1.395v-9.94zm.943 8.611h2.25c.733 0 1.303-.188 1.706-.57.402-.381.603-.917.603-1.609v-2.925c0-.691-.201-1.228-.603-1.61-.403-.38-.973-.569-1.706-.569h-2.25v-1.324h2.208c.796 0 1.48.138 2.045.419a2.88 2.88 0 0 1 1.29 1.215c.298.532.445 1.178.445 1.928v2.816c0 .75-.147 1.395-.444 1.927-.298.533-.73.94-1.295 1.216s-1.249.419-2.05.419h-2.2v-1.333zM83.718 175.246s-.26-.15-.784-.457c-.524-.306-.926-.737-1.215-1.299s-.432-1.21-.432-1.948v-2.728c0-.738.143-1.387.432-1.949.289-.562.691-.993 1.215-1.303.524-.31 1.127-.461 1.815-.461.57 0 1.093.121 1.571.364s.88.591 1.199 1.035c.322.445.54.964.653 1.551h-1.429a2.193 2.193 0 0 0-.436-.83c-.2-.243-.44-.431-.712-.561s-.557-.197-.846-.197c-.407 0-.763.096-1.065.293a1.98 1.98 0 0 0-.712.821c-.168.352-.252.763-.252 1.237v2.728c0 .465.084.876.252 1.232.167.356.406.628.712.821.306.193.662.29 1.065.29a2.024 2.024 0 0 0 1.563-.73c.2-.243.347-.528.435-.863h1.43a3.792 3.792 0 0 1-.658 1.55 3.357 3.357 0 0 1-1.203 1.035 3.41 3.41 0 0 1-1.567.365c-.683.004-1.031.004-1.031.004zM89.882 165.206h1.395v9.94h-1.395v-9.94zm.7 8.611h5.686v1.324h-5.686v-1.324zM100.61 165.206h1.19l3.663 9.94h-1.505l-2.753-8.017-2.757 8.017h-1.505l3.667-9.94zm-1.974 6.432h5.23v1.324h-5.23v-1.324zM108.551 175.246l-.641-.138a5.055 5.055 0 0 1-2.242-1.094l.867-1.064c.377.327.797.574 1.25.737.456.164.95.247 1.483.247.72 0 1.278-.134 1.672-.398.398-.268.595-.645.595-1.131v-.008c0-.348-.088-.62-.269-.826a1.675 1.675 0 0 0-.695-.453 7.67 7.67 0 0 0-1.148-.276c-.017 0-.03 0-.046-.009l-.105-.02c-.662-.114-1.207-.244-1.622-.386a2.27 2.27 0 0 1-1.069-.788c-.293-.381-.444-.922-.444-1.622v-.008c0-.616.138-1.14.415-1.576.277-.435.679-.766 1.207-.993.528-.226 1.165-.343 1.907-.343.356 0 .704.037 1.047.117a5.54 5.54 0 0 1 2.003.926l-.792 1.106a4.614 4.614 0 0 0-1.131-.624 3.235 3.235 0 0 0-1.132-.21c-.678 0-1.206.135-1.584.407-.377.272-.565.654-.565 1.152v.009c0 .343.096.612.289.808.193.197.431.34.725.432.289.092.691.189 1.207.29.02.003.033.008.054.008.017.004.034.004.05.012l.076.013.075.012a8.267 8.267 0 0 1 1.509.436c.402.168.742.44 1.01.817.268.373.406.889.406 1.542v.013c0 .608-.142 1.123-.431 1.555-.29.431-.704.758-1.245.985-.545.226-1.203.339-1.974.339-.473.004-.712.004-.712.004zM116.756 175.246l-.641-.138a5.055 5.055 0 0 1-2.242-1.094l.867-1.064c.378.327.797.574 1.25.737s.95.247 1.483.247c.72 0 1.278-.134 1.672-.398.398-.268.595-.645.595-1.131v-.008c0-.348-.088-.62-.273-.826a1.648 1.648 0 0 0-.695-.453 7.736 7.736 0 0 0-1.148-.276c-.017 0-.03 0-.042-.009l-.105-.02c-.666-.114-1.207-.244-1.622-.386a2.25 2.25 0 0 1-1.068-.788c-.298-.381-.445-.922-.445-1.622v-.008c0-.616.139-1.14.411-1.576.277-.435.679-.766 1.207-.993.528-.226 1.165-.343 1.907-.343.356 0 .704.037 1.047.117.344.075.683.193 1.019.348.335.15.662.343.989.578l-.793 1.106a4.614 4.614 0 0 0-1.131-.624 3.27 3.27 0 0 0-1.131-.21c-.68 0-1.207.135-1.584.407-.373.272-.562.654-.562 1.152v.009c0 .343.096.612.29.808.196.197.435.34.724.432a11.32 11.32 0 0 0 1.257.298c.017.004.034.004.055.012.02.004.046.009.075.013l.076.012a8.116 8.116 0 0 1 1.504.436c.402.168.742.44 1.01.817.272.373.406.889.406 1.542v.013c0 .608-.142 1.123-.431 1.555-.29.431-.704.758-1.249.985-.545.226-1.203.339-1.97.339-.469.004-.712.004-.712.004zM124.228 175.146h-1.396v-9.94h1.396v9.94zM126.545 165.206h1.396v9.94h-1.396v-9.94zm.687 0h5.574v1.324h-5.574v-1.324zm0 4.429h4.82v1.324h-4.82v-1.324zM135.764 175.146h-1.395v-9.94h1.395v9.94zM140.307 175.246s-.26-.15-.784-.457-.926-.737-1.21-1.299c-.29-.561-.432-1.21-.432-1.948v-2.728c0-.738.142-1.387.431-1.949.29-.562.692-.993 1.211-1.303.52-.31 1.128-.461 1.815-.461.57 0 1.094.121 1.571.364.478.243.88.591 1.203 1.035.319.445.54.964.654 1.551h-1.43a2.245 2.245 0 0 0-.43-.83 2.063 2.063 0 0 0-1.564-.758c-.402 0-.758.096-1.064.293a1.98 1.98 0 0 0-.713.821c-.167.352-.251.763-.251 1.237v2.728c0 .465.084.876.251 1.232.172.356.407.628.713.821.306.193.662.29 1.064.29a2.026 2.026 0 0 0 1.563-.73c.206-.239.348-.528.432-.863h1.429a3.792 3.792 0 0 1-.658 1.55 3.357 3.357 0 0 1-1.203 1.035 3.41 3.41 0 0 1-1.567.365c-.687.004-1.031.004-1.031.004zM148.906 165.206h1.19l3.663 9.94h-1.505l-2.753-8.017-2.757 8.017h-1.505l3.667-9.94zm-1.978 6.432h5.23v1.324h-5.23v-1.324zM153.482 165.206h7.015v1.324h-7.015v-1.324zm2.808.813h1.395v9.127h-1.395v-9.127zM163.116 175.146h-1.395v-9.94h1.395v9.94zM166.896 174.794a3.108 3.108 0 0 1-1.228-1.287c-.289-.553-.436-1.194-.436-1.923v-2.816c0-.73.143-1.37.436-1.924.29-.553.696-.98 1.228-1.286.528-.302 1.14-.453 1.831-.453s1.304.15 1.832.453c.528.301.938.733 1.228 1.286.289.553.431 1.194.431 1.924v2.816c0 .729-.142 1.37-.431 1.923-.29.553-.696.98-1.228 1.287-.528.301-1.14.452-1.832.452s-1.303-.15-1.83-.452zm2.913-1.199a1.9 1.9 0 0 0 .725-.784c.171-.339.255-.733.255-1.177v-2.913c0-.444-.088-.838-.255-1.177a1.85 1.85 0 0 0-.725-.784 2.101 2.101 0 0 0-1.086-.276c-.41 0-.77.092-1.085.276a1.874 1.874 0 0 0-.725.784c-.172.34-.256.733-.256 1.177v2.913c0 .444.088.838.256 1.177.172.34.41.604.725.784.314.184.675.277 1.085.277a2.08 2.08 0 0 0 1.086-.277zM174.2 165.206h1.266l4.86 7.685-.163.176v-7.861h1.383v9.931h-1.278l-4.844-7.568.163-.176v7.744h-1.383v-9.931z"/><path fill="#EC1F25" d="M99.998 28.174c-29.372 0-53.266 23.895-53.266 53.266 0 29.372 23.894 53.27 53.266 53.27s53.266-23.894 53.266-53.27c0-29.367-23.894-53.266-53.266-53.266zm0 9.073c9.65 0 18.581 3.118 25.86 8.39L64.19 107.304c-5.272-7.275-8.39-16.21-8.39-25.86.004-24.373 19.83-44.198 44.198-44.198zm0 88.395c-11.478 0-21.95-4.404-29.816-11.603l62.41-62.41c7.2 7.865 11.604 18.334 11.604 29.811 0 24.373-19.826 44.202-44.198 44.202z"/><g><path d="M91.88 82.488a11.469 11.469 0 0 0 4.627-4.597c1.086-1.953 1.635-4.22 1.635-6.743 0-2.522-.545-4.79-1.618-6.738a11.407 11.407 0 0 0-4.618-4.601c-1.949-1.06-4.224-1.601-6.763-1.601H67.83v43h8.18v-17.12h6.433l8.637 17.12h9.58l-9.64-18.292c.294-.135.58-.273.86-.428zm-2.84-14.101c.373.783.561 1.714.561 2.761s-.188 1.978-.561 2.762c-.352.742-.834 1.295-1.467 1.689-.637.398-1.362.59-2.208.59H76.01V66.108h9.354c.863 0 1.588.193 2.216.587.629.394 1.103.947 1.459 1.693zM126.298 88.036c-.306 1.165-.813 2.184-1.517 3.018a6.966 6.966 0 0 1-2.456 1.894 7.105 7.105 0 0 1-2.946.64c-1.424 0-2.623-.322-3.675-.988-1.047-.666-1.844-1.592-2.434-2.833-.604-1.27-.91-2.778-.91-4.475V74.187c0-1.714.306-3.227.91-4.488.59-1.237 1.387-2.163 2.443-2.842 1.047-.67 2.246-.997 3.666-.997.994 0 1.97.23 2.909.683a7.552 7.552 0 0 1 2.493 1.97 7.806 7.806 0 0 1 1.525 2.92l.256.914h8.28l-.289-1.488c-.494-2.56-1.462-4.852-2.87-6.81a14.835 14.835 0 0 0-5.33-4.6c-2.117-1.078-4.463-1.627-6.97-1.627-3.017 0-5.715.692-8.024 2.054-2.322 1.37-4.145 3.323-5.419 5.808-1.257 2.451-1.894 5.31-1.894 8.503v11.105c0 3.193.637 6.05 1.894 8.502 1.274 2.49 3.097 4.438 5.423 5.796 0 0 2.032 1.131 3.407 1.52 1.093.311 2.141.516 4.614.516 2.489 0 4.823-.549 6.94-1.626 2.115-1.077 3.913-2.623 5.342-4.597 1.417-1.957 2.389-4.249 2.887-6.813l.29-1.488h-8.298l-.247.934z"/></g></svg>
