<?xml version="1.0" encoding="UTF-8" standalone="no"?>
<!-- Created with Inkscape (http://www.inkscape.org/) -->
<svg xmlns="http://www.w3.org/2000/svg" width="341.75058" height="402.83035">
  <defs>
  </defs>
  <path d="M 325.60211,302.13159 C 325.60211,314.98925 315.17729,325.41406 302.32551,325.41406 L 38.53186,325.41406 C 25.67419,325.41406 15.24938,314.98925 15.24938,302.13159 L 15.24938,38.33206 C 15.24938,25.48615 25.67419,15.06133 38.53186,15.06133 L 302.32551,15.06133 C 315.17729,15.06133 325.60211,25.48615 325.60211,38.33206 L 325.60211,302.13159 z" style="fill: rgb(20, 104, 179);"/>
  <path d="M 128.79994,321.80593 L 128.79994,183.12768 C 128.79994,159.77469 128.22992,145.73586 127.10752,141.0112 C 125.97924,136.29829 122.87648,132.72541 117.79923,130.29843 C 112.72786,127.88322 101.42158,126.66679 83.89214,126.66679 L 76.37617,126.66679 L 76.37617,91.39049 C 112.89828,83.5278 140.62922,67.34407 159.57488,42.85692 L 326.75977,42.85692 L 326.5012,303.98267 L 319.97835,314.85409 L 305.6692,321.37695 L 128.79994,321.80593 z" style="fill: rgb(167, 169, 172);"/>
  <path d="M 326.74214,226.66039 C 313.92561,246.0938 296.64298,270.92178 274.88838,301.15022 L 326.74801,301.15022 L 324.84992,308.00803 L 318.39758,315.48875 L 309.94138,320.62476 L 191.48986,320.70703 L 191.52512,309.13631 C 240.64633,233.84729 269.84051,187.27058 279.10179,169.3768 C 288.37482,151.48302 293.00546,137.52646 293.00546,127.50125 C 293.00546,119.80898 291.60687,114.07357 288.81556,110.28326 C 286.01837,106.49295 281.7697,104.60074 276.05192,104.60074 C 270.34001,104.60074 266.08546,106.69863 263.28828,110.89441 C 260.49696,115.09019 259.10425,123.42299 259.10425,135.88693 L 259.10425,162.79518 L 191.44873,162.79518 L 191.44873,152.49965 C 191.44873,136.68025 192.31256,124.20456 194.05787,115.07256 C 195.7973,105.94644 200.08123,96.96136 206.92728,88.11731 C 213.76159,79.27913 222.6409,72.58586 233.58872,68.04924 C 244.53066,63.51263 257.64689,61.24432 272.9374,61.24432 C 294.62148,61.24432 312.48588,64.88772 326.51883,72.18039 L 326.74214,226.66039 z" style="fill: rgb(255, 255, 255);"/>
  <path d="M 308.03153,319.33194 L 33.90122,319.33194 C 27.06103,319.33194 21.51954,313.79633 21.51954,306.95615 L 21.48429,33.78957 C 21.48429,26.95526 27.02577,21.40789 33.86008,21.40789 L 307.99628,21.40789 C 314.83058,21.40789 320.37207,26.95526 320.37207,33.78957 L 320.40733,306.95615 C 320.40733,313.79633 314.86584,319.33194 308.03153,319.33194 M 311.53977,0 L 30.21668,0 C 13.52758,0 0,13.5217 0,30.20493 L 0,372.61955 C 0,389.30278 13.52758,402.83036 30.21668,402.83036 L 311.53977,402.83036 C 328.223,402.83036 341.48614,389.30278 341.75058,372.61955 L 341.75058,30.20493 C 341.48614,13.5217 328.223,0 311.53977,0 L 311.53977,0 z" style="fill: rgb(0, 0, 0);"/>
  <g style="fill: rgb(255, 255, 255);">
  <path d="M 45.03708,339.20608 L 45.03708,377.70855 L 37.1979,377.70855 L 37.1979,356.02447 L 37.1979,354.87269 C 37.1979,353.33893 37.15677,352.31056 37.08037,351.7758 C 36.9746,350.92371 36.71603,350.28318 36.31056,349.87183 C 35.86395,349.46048 35.14702,349.16666 34.1539,348.99036 C 33.2313,348.83758 31.84446,348.76706 30.00513,348.76706 L 28.89448,348.76706 L 28.89448,345.35872 C 31.70343,344.8886 34.08339,344.11879 36.03437,343.06103 C 37.87369,342.11492 39.54848,340.83386 41.0646,339.20608 L 45.03708,339.20608 z"/>
  <path d="M 85.22609,372.77234 L 85.22609,377.74969 L 58.75858,377.74969 L 58.75858,372.2082 C 60.64492,369.72246 62.76632,367.26611 65.12865,364.84501 C 66.49786,363.42879 68.43709,361.56596 70.95221,359.26239 C 73.76115,356.68851 75.60635,354.83743 76.49369,353.71503 C 77.97456,351.91683 78.70911,350.24792 78.70911,348.70829 C 78.70911,346.75731 78.22725,345.37047 77.26351,344.53602 C 76.29977,343.67806 74.63674,343.25495 72.26853,343.25495 C 70.11775,343.25495 68.56637,343.71332 67.60263,344.63004 C 66.75642,345.48213 66.33332,346.8102 66.33332,348.60839 L 66.33332,352.28117 L 58.75858,352.28117 L 58.75858,350.7768 C 58.75858,346.79845 59.68706,343.80146 61.53226,341.79172 C 63.67129,339.52341 67.10901,338.38926 71.83367,338.38926 C 76.4173,338.38926 79.99606,339.33536 82.57582,341.2217 C 85.04392,343.03165 86.27798,345.45274 86.27798,348.49087 C 86.27798,350.9766 85.48466,353.28017 83.89802,355.40744 C 82.86376,356.82367 80.64834,359.05084 77.25176,362.09484 C 75.14799,364.01644 73.48495,365.55019 72.26853,366.70785 C 70.2059,368.71759 68.24316,370.73909 66.40384,372.77234 L 85.22609,372.77234 z"/>
  <path d="M 139.79477,380.10027 L 131.73816,380.10027 L 131.73816,337.52542 L 139.79477,337.52542 L 139.79477,380.10027 z M 127.68341,337.52542 L 127.68341,380.10027 L 119.62681,380.10027 L 119.62681,358.41031 L 113.76211,358.41031 L 113.76211,353.41533 L 119.62681,353.41533 L 119.62681,337.52542 L 127.68341,337.52542 z M 108.16774,337.88388 L 108.16774,352.13426 C 108.16774,357.11161 109.17849,361.71875 111.21174,365.93803 C 113.01581,369.68133 115.19597,372.32573 117.73459,373.85948 L 112.64559,377.00338 C 110.72987,375.64592 109.01395,373.88886 107.5037,371.73809 C 105.88768,369.40514 104.71239,366.91352 103.97196,364.25149 C 103.27853,366.91352 102.09737,369.40514 100.44609,371.73809 C 98.89471,373.88886 97.1259,375.64592 95.13378,377.00338 L 90.43262,373.85948 C 92.78908,372.2082 94.87522,369.56968 96.68516,365.93803 C 98.89471,361.60122 100.00535,356.99996 100.00535,352.13426 L 100.00535,337.88388 L 108.16774,337.88388 z"/>
  <path d="M 195.63276,380.10027 L 187.4645,380.10027 L 187.4645,337.52542 L 195.63276,337.52542 L 195.63276,380.10027 z M 160.61502,346.33421 C 159.5455,349.01975 159.01075,352.48685 159.01075,356.72964 C 159.01075,361.33678 159.5455,365.04481 160.61502,367.842 C 161.79618,370.85074 163.4886,372.35511 165.70402,372.35511 C 167.88418,372.35511 169.55897,370.85074 170.74013,367.842 C 171.8449,365.04481 172.39729,361.33678 172.39729,356.72964 C 172.39729,352.48685 171.8449,349.01975 170.74013,346.33421 C 169.52371,343.40774 167.84304,341.95038 165.70402,341.95038 C 163.52973,341.95038 161.83144,343.40774 160.61502,346.33421 M 176.93391,343.1433 C 179.44315,346.71618 180.70071,351.25867 180.70071,356.77665 C 180.70071,362.61784 179.44315,367.36601 176.93391,371.03291 C 174.27775,375.01127 170.55796,377.00338 165.76278,377.00338 C 160.92647,377.00338 157.16554,375.01127 154.47413,371.03291 C 152.00015,367.36601 150.76609,362.61784 150.76609,356.77665 C 150.76609,351.25867 152.00015,346.71618 154.47413,343.1433 C 157.20668,339.25309 160.9676,337.30211 165.76278,337.30211 C 170.51683,337.30211 174.24249,339.25309 176.93391,343.1433 L 176.93391,343.1433 z"/>
  <path d="M 237.24974,357.25852 L 237.24974,354.51422 C 236.29188,354.63175 235.24,354.73753 234.09409,354.82567 C 233.05984,354.87856 231.8963,354.91382 230.60348,354.91382 C 229.27541,354.91382 228.08837,354.87856 227.05999,354.82567 C 225.87295,354.73753 224.80343,354.63175 223.8397,354.51422 L 223.8397,357.25852 L 237.24974,357.25852 z M 221.13653,370.53929 C 219.06802,371.19158 218.03964,371.9849 218.03964,372.931 C 218.03964,373.87711 219.06802,374.67043 221.13653,375.32272 C 223.45773,376.05727 226.61338,376.42749 230.59761,376.42749 C 234.47019,376.42749 237.54944,376.05727 239.83538,375.32272 C 241.93327,374.67043 242.99103,373.87711 242.99103,372.931 C 242.99103,371.9849 241.93327,371.19158 239.83538,370.53929 C 237.54944,369.83412 234.47019,369.48153 230.59761,369.48153 C 226.61338,369.48153 223.45773,369.83412 221.13653,370.53929 M 220.86034,343.37248 C 218.72131,344.07766 217.6518,344.9885 217.6518,346.11091 C 217.6518,347.20392 218.72131,348.10302 220.86034,348.80819 C 223.18741,349.57801 226.39007,349.95998 230.48596,349.95998 C 234.57596,349.95998 237.80213,349.57801 240.16446,348.80819 C 242.30936,348.10302 243.373,347.20392 243.373,346.11091 C 243.373,344.9885 242.30936,344.07766 240.16446,343.37248 C 237.80213,342.63205 234.57596,342.26183 230.48596,342.26183 C 226.39007,342.26183 223.18741,342.63205 220.86034,343.37248 M 246.02915,367.18384 C 249.49626,368.7411 251.22981,370.67445 251.22981,372.97214 C 251.22981,375.21694 249.49626,377.12091 246.02915,378.68404 C 242.19771,380.42347 237.03232,381.29906 230.53884,381.29906 C 224.01011,381.29906 218.82709,380.42347 214.99564,378.68404 C 211.5638,377.12091 209.84788,375.21694 209.84788,372.97214 C 209.84788,370.67445 211.5638,368.7411 214.99564,367.18384 C 218.82709,365.43854 224.01011,364.56882 230.53884,364.56882 C 237.03232,364.56882 242.19771,365.43854 246.02915,367.18384 M 210.81162,349.68966 C 209.7421,348.56726 209.20735,347.37434 209.20735,346.10503 C 209.20735,343.65455 210.97616,341.60367 214.51965,339.95239 C 218.42749,338.18358 223.78681,337.29624 230.60348,337.29624 C 237.3849,337.29624 242.74422,338.18358 246.68732,339.95239 C 250.26607,341.60367 252.05251,343.65455 252.05251,346.10503 C 252.05251,347.37434 251.50013,348.56726 250.39535,349.68966 C 249.21419,350.84144 247.55115,351.84044 245.418,352.6984 L 245.418,357.25852 L 254.54412,357.25852 L 254.54412,362.07133 L 206.66284,362.07133 L 206.66284,357.25852 L 215.67731,357.25852 L 215.67731,352.6984 C 213.53829,351.84044 211.91639,350.84144 210.81162,349.68966 L 210.81162,349.68966 z"/>
  <path d="M 308.11968,337.50779 L 308.11968,354.77279 L 313.70818,354.77279 L 313.70818,359.63848 L 308.11968,359.63848 L 308.11968,380.08264 L 299.9573,380.08264 L 299.9573,337.50779 L 308.11968,337.50779 z M 289.79105,338.38926 L 289.79105,351.55837 C 289.79105,357.88143 287.73429,363.1761 283.6149,367.45416 C 279.77758,371.37375 274.08331,374.54703 266.5262,376.96812 L 263.25889,373.33648 C 268.79451,371.45014 273.09019,369.04667 276.15182,366.12608 C 279.83635,362.61197 281.68155,358.38092 281.68155,353.4212 L 281.68155,343.20206 L 264.58697,343.20206 L 264.58697,338.38926 L 289.79105,338.38926 z"/>
  </g>
</svg>