<?xml version="1.0" encoding="UTF-8" standalone="no"?>
<!-- Created with Inkscape (http://www.inkscape.org/) -->
<svg xmlns="http://www.w3.org/2000/svg" width="341.75058" height="402.83035">
  <defs>
  </defs>
  <path
     d="M 325.60211,302.13159 C 325.60211,314.98925 315.17729,325.41406 302.32551,325.41406 L 38.52598,325.41406 C 25.67419,325.41406 15.25525,314.98925 15.25525,302.13159 L 15.25525,38.33206 C 15.25525,25.48615 25.67419,15.06133 38.52598,15.06133 L 302.32551,15.06133 C 315.17729,15.06133 325.60211,25.48615 325.60211,38.33206 L 325.60211,302.13159 z"
     style="fill:#b0063a" />
  <path
     d="M 128.75293,319.83732 L 128.75293,183.09242 C 128.75293,159.73943 128.18879,145.7006 127.06639,140.97594 C 125.93811,136.26303 122.83535,132.69015 117.76397,130.26318 C 112.68672,127.84796 101.38044,126.63153 83.851,126.63153 L 76.34091,126.63153 L 76.34091,91.35523 C 112.85714,83.49254 140.58809,67.30881 159.53375,42.82166 L 326.72451,42.82166 L 326.46594,303.94153 L 319.93721,314.81883 L 307.40275,320.7893 L 128.75293,319.83732 z"
     style="fill:#a7a9ac" />
  <path
     d="M 290.43746,131.4796 C 290.43746,121.89512 289.52073,115.54856 287.71078,112.44579 C 285.89496,109.35478 282.42786,107.79752 277.29185,107.79752 C 272.28511,107.79752 268.91203,109.46643 267.15498,112.79838 C 265.40967,116.13032 264.53408,122.35936 264.53408,131.4796 L 264.53408,153.05791 C 264.53408,161.59638 265.5272,167.50809 267.52519,170.77539 C 269.52906,174.05445 272.91389,175.6881 277.66794,175.6881 C 282.67467,175.6881 286.05363,174.08383 287.80481,170.86354 C 289.56187,167.64912 290.43746,161.01462 290.43746,150.94827 L 290.43746,131.4796 z M 291.95946,249.09666 C 291.95946,238.2605 290.76654,231.06773 288.39245,227.51835 C 286.01249,223.9631 282.24569,222.18842 277.10968,222.18842 C 272.09707,222.18842 268.48893,223.90434 266.29702,227.34206 C 264.09923,230.7739 263.01208,238.03131 263.01208,249.09666 L 263.01208,285.78331 C 263.01208,298.00632 264.22263,305.87488 266.66723,309.36549 C 269.11183,312.86198 272.96091,314.61316 278.23208,314.61316 C 283.62078,314.61316 287.26417,312.83847 289.14464,309.2891 C 291.00747,305.73385 291.95946,297.72425 291.95946,285.26031 L 291.95946,249.09666 z M 195.63276,320.50135 C 190.36746,309.44776 187.73481,291.64213 187.73481,267.06096 C 187.73481,249.96638 189.12753,235.13423 191.90709,222.56451 C 194.6984,210.00655 203.45431,199.94607 218.18655,192.37721 C 208.84888,188.18143 201.83828,181.51166 197.17238,172.35616 C 192.50649,163.21828 190.16766,151.59467 190.16766,137.49708 C 190.16766,113.14509 197.39569,94.8811 211.85762,82.7051 C 226.3078,70.52323 247.94488,64.43523 276.73358,64.43523 C 297.15423,64.43523 313.71406,66.87396 326.38367,71.75141 L 326.64811,300.68598 L 323.01647,310.54078 L 315.44761,317.81582 L 305.89251,320.64827 L 195.63276,320.50135 z"
     style="fill:#ffffff" />
  <path
     d="M 308.03153,319.33194 L 33.89534,319.33194 C 27.06103,319.33194 21.51954,313.79633 21.51954,306.95615 L 21.47841,33.78957 C 21.47841,26.95526 27.02577,21.40789 33.86008,21.40789 L 307.9904,21.40789 C 314.83058,21.40789 320.37207,26.95526 320.37207,33.78957 L 320.40733,306.95615 C 320.40733,313.79633 314.87172,319.33194 308.03153,319.33194 M 311.53977,0 L 30.21668,0 C 13.52758,0 0,13.5217 0,30.20493 L 0,372.61955 C 0,389.30278 13.52758,402.83036 30.21668,402.83036 L 311.53977,402.83036 C 328.223,402.83036 341.48026,389.30278 341.75058,372.61955 L 341.75058,30.20493 C 341.48026,13.5217 328.223,0 311.53977,0 L 311.53977,0 z"
     style="fill:#000000" />
  <g style="fill:#ffffff">
  <path
     d="M 55.56767,362.24763 L 49.15647,362.24763 L 49.15647,354.07349 L 41.84029,354.07349 L 41.84029,349.531 L 49.15647,349.531 L 49.15647,338.48916 L 55.56767,338.48916 L 55.56767,362.24763 z M 31.63878,369.48153 C 29.964,370.2631 29.12367,371.22683 29.12367,372.37862 C 29.12367,373.51277 29.964,374.46476 31.63878,375.24045 C 33.51337,376.13367 36.0755,376.58028 39.3428,376.58028 C 42.65712,376.58028 45.27214,376.13367 47.16435,375.24045 C 48.8744,374.46476 49.72648,373.51277 49.72648,372.37862 C 49.72648,371.22683 48.8744,370.2631 47.16435,369.48153 C 45.27214,368.62357 42.65712,368.18871 39.3428,368.18871 C 36.0755,368.18871 33.51337,368.62357 31.63878,369.48153 M 52.0183,366.27887 C 54.7861,367.95365 56.17295,369.99866 56.17295,372.43151 C 56.14356,374.81734 54.74497,376.83884 51.97716,378.48425 C 48.88615,380.32945 44.67862,381.25205 39.3428,381.25205 C 34.0305,381.25205 29.82884,380.32945 26.74958,378.48425 C 24.00528,376.83884 22.63019,374.81734 22.63019,372.43151 C 22.63019,369.99866 24.00528,367.95365 26.74958,366.27887 C 29.85822,364.43366 34.05988,363.51106 39.3428,363.51106 C 44.70212,363.51106 48.92729,364.43366 52.0183,366.27887 M 29.12367,341.60955 L 29.12367,338.2776 L 35.52899,338.2776 L 35.52899,341.60955 L 44.185,341.60955 L 44.185,346.15204 L 35.52899,346.15204 C 35.52899,348.83758 36.50448,351.29981 38.43196,353.55636 C 40.22427,355.65425 42.6865,357.3878 45.83628,358.73939 L 42.97445,362.24763 C 40.665,361.38379 38.50247,360.18499 36.48685,358.65712 C 34.46535,357.09986 33.03738,355.55435 32.20292,354.02648 C 31.30383,355.55435 29.82884,357.09986 27.78384,358.65712 C 25.70945,360.24376 23.49991,361.45431 21.16108,362.29464 L 18.78112,358.82753 C 21.7546,357.44069 24.16982,355.70126 26.00915,353.59162 C 28.08941,351.25867 29.12367,348.77294 29.12367,346.15204 L 20.46766,346.15204 L 20.46766,341.60955 L 29.12367,341.60955 z" />
  <path
     d="M 79.6846,372.56079 L 79.6846,361.01357 L 86.03704,361.01357 L 86.03704,372.56079 L 101.65664,372.56079 L 101.65664,377.10916 L 64.18842,377.10916 L 64.18842,372.56079 L 79.6846,372.56079 z M 90.74995,352.39283 C 93.31208,355.16063 97.07888,357.35255 102.0386,358.96857 L 99.18265,362.64722 C 95.13966,361.29564 91.83122,359.76189 89.22795,358.05772 C 86.51891,356.27128 84.37401,354.16751 82.78737,351.74054 C 81.31238,354.16751 79.22037,356.27128 76.50545,358.05772 C 73.90806,359.76189 70.56436,361.29564 66.46848,362.64722 L 63.9181,358.96857 C 68.64864,357.35255 72.29204,355.14888 74.86592,352.35169 C 78.06858,348.85521 79.67285,344.35972 79.67285,338.84762 L 86.03117,338.84762 C 86.03117,344.44199 87.60605,348.96098 90.74995,352.39283 L 90.74995,352.39283 z" />
  <path
     d="M 118.4809,375.02302 L 144.48417,375.02302 L 144.48417,379.69479 L 117.74634,379.69479 C 115.70134,379.69479 114.22635,379.34221 113.32726,378.6194 C 112.48692,377.89072 112.0697,376.72719 112.0697,375.11117 L 112.0697,366.27887 L 118.4809,366.27887 L 118.4809,375.02302 z M 137.78502,354.097 L 126.0145,354.097 L 126.0145,349.39584 L 137.78502,349.39584 L 137.78502,346.15204 L 126.23193,346.15204 L 126.23193,341.47439 L 137.78502,341.47439 L 137.78502,338.48916 L 144.19035,338.48916 L 144.19035,368.60594 L 137.78502,368.60594 L 137.78502,362.28876 L 115.88351,362.28876 L 114.49079,362.28876 C 112.93353,362.28876 111.78175,361.84215 111.02957,360.95481 C 110.34202,360.14386 109.99531,358.99207 109.99531,357.49946 L 109.99531,338.84762 L 116.40064,338.84762 L 116.40064,357.664 L 137.78502,357.664 L 137.78502,354.097 z" />
  <path
     d="M 188.49875,380.12377 L 182.09343,380.12377 L 182.09343,338.50091 L 188.49875,338.50091 L 188.49875,380.12377 z M 161.10864,347.1099 C 160.27418,349.73667 159.85695,353.12738 159.85695,357.28203 C 159.85695,361.77751 160.27418,365.40328 161.10864,368.1417 C 162.03124,371.0858 163.35932,372.55491 165.08699,372.55491 C 166.79704,372.55491 168.10748,371.0858 169.03009,368.1417 C 169.88805,365.40328 170.32878,361.77751 170.32878,357.28203 C 170.32878,353.12738 169.88805,349.73667 169.03009,347.1099 C 168.07223,344.25395 166.76178,342.82597 165.08699,342.82597 C 163.3887,342.82597 162.05474,344.25395 161.10864,347.1099 M 173.87815,343.99539 C 175.84089,347.48599 176.81638,351.93446 176.81638,357.32316 C 176.81638,363.03507 175.84089,367.67746 173.87815,371.25622 C 171.79202,375.1523 168.8773,377.10328 165.134,377.10328 C 161.35545,377.10328 158.41135,375.1523 156.3017,371.25622 C 154.37423,367.67746 153.40462,363.03507 153.40462,357.32316 C 153.40462,351.93446 154.37423,347.48599 156.3017,343.99539 C 158.44073,340.18745 161.38483,338.28348 165.134,338.28348 C 168.85379,338.28348 171.76851,340.18745 173.87815,343.99539 L 173.87815,343.99539 z" />
  <path
     d="M 221.04838,357.80503 L 221.04838,355.12537 C 220.30208,355.23703 219.4735,355.33693 218.5744,355.42507 C 217.76933,355.47796 216.85848,355.50734 215.85361,355.50734 C 214.8076,355.50734 213.87912,355.47796 213.07405,355.42507 C 212.15145,355.33693 211.31111,355.23703 210.5648,355.12537 L 210.5648,357.80503 L 221.04838,357.80503 z M 208.44928,370.78022 C 206.83326,371.41488 206.02819,372.19645 206.02819,373.11317 C 206.02819,374.04753 206.83326,374.81734 208.44928,375.45788 C 210.26511,376.1748 212.73909,376.53327 215.85361,376.53327 C 218.87998,376.53327 221.28932,376.1748 223.06988,375.45788 C 224.72116,374.81734 225.54387,374.04753 225.54387,373.11317 C 225.54387,372.19645 224.72116,371.41488 223.06988,370.78022 C 221.28932,370.0868 218.87998,369.74597 215.85361,369.74597 C 212.73909,369.74597 210.26511,370.0868 208.44928,370.78022 M 208.23186,344.21281 C 206.55707,344.90623 205.72261,345.80533 205.72261,346.89247 C 205.72261,347.96199 206.55707,348.84345 208.23186,349.53687 C 210.05355,350.28318 212.5628,350.65927 215.76546,350.65927 C 218.96812,350.65927 221.48912,350.28318 223.33432,349.53687 C 225.00323,348.84345 225.84944,347.96199 225.84944,346.89247 C 225.84944,345.80533 225.00323,344.90623 223.33432,344.21281 C 221.48912,343.49589 218.96812,343.13155 215.76546,343.13155 C 212.5628,343.13155 210.05355,343.49589 208.23186,344.21281 M 227.91795,367.48942 C 230.63287,369.02317 231.99033,370.91538 231.99033,373.16019 C 231.99033,375.3521 230.63287,377.21493 227.91795,378.74281 C 224.91509,380.4411 220.87797,381.29906 215.80659,381.29906 C 210.69409,381.29906 206.64522,380.4411 203.64235,378.74281 C 200.96269,377.21493 199.62286,375.3521 199.62286,373.16019 C 199.62286,370.91538 200.96269,369.02317 203.64235,367.48942 C 206.64522,365.79112 210.69409,364.93904 215.80659,364.93904 C 220.87797,364.93904 224.91509,365.79112 227.91795,367.48942 M 200.34567,350.40659 C 199.50533,349.30769 199.09398,348.1324 199.09398,346.89835 C 199.09398,344.50664 200.47495,342.49689 203.24863,340.88087 C 206.31026,339.15319 210.51192,338.28348 215.85361,338.28348 C 221.16004,338.28348 225.3617,339.15319 228.45858,340.88087 C 231.24989,342.49689 232.64849,344.50664 232.64849,346.89835 C 232.64849,348.1324 232.21951,349.30769 231.35567,350.40659 C 230.42719,351.52899 229.1285,352.51035 227.45959,353.34481 L 227.45959,357.80503 L 234.59947,357.80503 L 234.59947,362.50619 L 197.10187,362.50619 L 197.10187,357.80503 L 204.15948,357.80503 L 204.15948,353.34481 C 202.47882,352.51035 201.2095,351.52899 200.34567,350.40659 L 200.34567,350.40659 z" />
  <path
     d="M 249.94874,348.28519 L 270.35176,348.28519 L 270.35176,345.45274 L 249.94874,345.45274 L 249.94874,348.28519 z M 249.94874,338.83587 L 249.94874,340.82798 L 270.36352,340.82798 L 270.36352,338.83587 L 276.76884,338.83587 L 276.76884,352.96284 L 249.38461,352.96284 C 247.3396,352.96284 245.83523,352.575 244.88912,351.79343 C 243.9959,351.01774 243.54342,349.81307 243.54342,348.19704 L 243.54342,338.83587 L 249.94874,338.83587 z M 278.90787,359.09785 L 263.41756,359.09785 L 263.41756,362.04195 L 276.76884,362.04195 L 276.76884,373.07792 L 249.94874,373.07792 L 249.94874,374.96425 L 277.12731,374.96425 L 277.12731,379.67129 L 249.39048,379.67129 C 247.48651,379.67129 246.02915,379.25406 245.01841,378.4196 C 244.03704,377.61453 243.54342,376.46862 243.54342,374.96425 L 243.54342,368.40026 L 270.36352,368.40026 L 270.36352,366.72548 L 243.54342,366.72548 L 243.54342,362.04195 L 257.01223,362.04195 L 257.01223,359.09785 L 241.4279,359.09785 L 241.4279,354.47309 L 278.90787,354.47309 L 278.90787,359.09785 z" />
  <path
     d="M 320.83631,338.48916 L 320.83631,355.37218 L 325.21426,355.37218 L 325.21426,360.12623 L 320.83631,360.12623 L 320.83631,380.1179 L 314.43098,380.1179 L 314.43098,338.48916 L 320.83631,338.48916 z M 306.45665,339.36475 L 306.45665,352.24591 C 306.45665,358.42206 304.84062,363.59921 301.62033,367.78324 C 298.61747,371.62056 294.16312,374.72332 288.24554,377.08565 L 285.69516,373.53628 C 290.0261,371.69107 293.38155,369.3405 295.77914,366.48454 C 298.66448,363.0527 300.10421,358.9098 300.10421,354.06761 L 300.10421,344.07178 L 286.73529,344.07178 L 286.73529,339.36475 L 306.45665,339.36475 z" />
  </g>
</svg>
