<?xml version="1.0" encoding="UTF-8"?>
<!-- Generator: Adobe Illustrator 15.0.0, SVG Export Plug-In . SVG Version: 6.00 Build 0)  -->
<!DOCTYPE svg PUBLIC "-//W3C//DTD SVG 1.1//EN" "http://www.w3.org/Graphics/SVG/1.1/DTD/svg11.dtd">
<svg version="1.1" id="Ebene_1" xmlns="http://www.w3.org/2000/svg" xmlns:xlink="http://www.w3.org/1999/xlink" x="0px" y="0px" width="740px" height="155px" viewBox="0 0 740 155" enable-background="new 0 0 740 155" xml:space="preserve">
<g>
	<g>
		<g>
			<g>
				<path fill="#4C4C4E" d="M386.892,96.116c0.079,1.385,0.396,2.512,0.949,3.377c1.062,1.624,2.926,2.431,5.6,2.431      c1.201,0,2.289-0.176,3.272-0.533c1.902-0.688,2.857-1.92,2.857-3.694c0-1.329-0.404-2.284-1.211-2.848      c-0.814-0.559-2.097-1.041-3.842-1.451l-3.206-0.748c-2.098-0.489-3.584-1.028-4.453-1.613c-1.51-1.025-2.26-2.546-2.26-4.583      c0-2.194,0.739-4.004,2.221-5.41c1.479-1.41,3.573-2.116,6.286-2.116c2.496,0,4.614,0.619,6.359,1.854      c1.746,1.242,2.617,3.221,2.617,5.939h-3.114c-0.157-1.312-0.497-2.313-1.02-3.014c-0.969-1.278-2.611-1.915-4.932-1.915      c-1.876,0-3.222,0.407-4.042,1.234c-0.82,0.819-1.228,1.774-1.228,2.862c0,1.2,0.485,2.078,1.451,2.63      c0.636,0.357,2.07,0.798,4.31,1.335l3.322,0.78c1.604,0.381,2.841,0.896,3.707,1.553c1.506,1.145,2.26,2.8,2.26,4.978      c0,2.707-0.96,4.644-2.88,5.812c-1.921,1.166-4.153,1.744-6.699,1.744c-2.964,0-5.287-0.773-6.968-2.327      c-1.68-1.545-2.501-3.636-2.468-6.275H386.892"/>
				<path fill="#4C4C4E" d="M419.338,93.664c-0.117-1.3-0.398-2.336-0.843-3.114c-0.809-1.44-2.171-2.16-4.078-2.16      c-1.361,0-2.509,0.49-3.437,1.487c-0.921,0.991-1.412,2.253-1.465,3.787H419.338 M418.267,86.661      c1.178,0.596,2.08,1.365,2.696,2.31c0.598,0.897,0.994,1.948,1.191,3.148c0.176,0.823,0.267,2.13,0.267,3.927h-12.975      c0.059,1.814,0.479,3.275,1.272,4.369c0.795,1.094,2.023,1.641,3.685,1.641c1.552,0,2.798-0.516,3.724-1.556      c0.514-0.6,0.879-1.298,1.094-2.089h2.953c-0.083,0.655-0.34,1.384-0.775,2.188c-0.44,0.809-0.927,1.462-1.468,1.976      c-0.902,0.887-2.021,1.487-3.355,1.801c-0.715,0.172-1.523,0.262-2.429,0.262c-2.204,0-4.08-0.807-5.612-2.42      c-1.533-1.618-2.299-3.88-2.299-6.788c0-2.864,0.771-5.189,2.314-6.979c1.547-1.787,3.568-2.681,6.058-2.681      C415.866,85.771,417.089,86.067,418.267,86.661z"/>
				<rect x="426.473" y="79.546" fill="#4C4C4E" width="2.998" height="24.458"/>
				<path fill="#4C4C4E" d="M445.349,99.993c0.807-1.29,1.208-2.983,1.208-5.097c0-1.874-0.401-3.432-1.208-4.662      c-0.808-1.23-1.996-1.845-3.568-1.845c-1.367,0-2.567,0.502-3.601,1.513c-1.029,1.01-1.543,2.674-1.543,4.994      c0,1.678,0.21,3.034,0.633,4.078c0.79,1.968,2.267,2.949,4.428,2.949C443.325,101.924,444.541,101.28,445.349,99.993       M433.887,79.462h2.914v8.874c0.659-0.854,1.446-1.504,2.359-1.956c0.912-0.449,1.903-0.676,2.976-0.676      c2.229,0,4.036,0.765,5.426,2.292c1.384,1.527,2.077,3.776,2.077,6.752c0,2.818-0.687,5.164-2.055,7.028      c-1.371,1.865-3.271,2.797-5.7,2.797c-1.358,0-2.507-0.329-3.444-0.985c-0.559-0.385-1.155-1.008-1.786-1.861v2.277h-2.767      V79.462z"/>
				<path fill="#4C4C4E" d="M455.056,98.411c0.093,0.999,0.347,1.764,0.765,2.297c0.771,0.966,2.11,1.451,4.015,1.451      c1.131,0,2.128-0.242,2.99-0.726c0.858-0.483,1.292-1.229,1.292-2.242c0-0.761-0.343-1.346-1.03-1.747      c-0.446-0.246-1.31-0.527-2.61-0.849l-2.417-0.603c-1.546-0.374-2.688-0.799-3.422-1.262c-1.309-0.812-1.963-1.932-1.963-3.366      c0-1.686,0.617-3.051,1.848-4.095c1.231-1.041,2.887-1.566,4.973-1.566c2.722,0,4.687,0.788,5.89,2.364      c0.753,1,1.119,2.079,1.096,3.232h-2.832c-0.056-0.673-0.303-1.287-0.731-1.84c-0.704-0.78-1.927-1.177-3.662-1.177      c-1.161,0-2.039,0.217-2.635,0.649c-0.596,0.434-0.896,1.002-0.896,1.712c0,0.772,0.392,1.392,1.176,1.855      c0.455,0.276,1.118,0.521,2.004,0.731l2.018,0.483c2.194,0.519,3.662,1.027,4.413,1.515c1.164,0.763,1.745,1.968,1.745,3.614      c0,1.586-0.611,2.957-1.829,4.112c-1.22,1.153-3.076,1.733-5.571,1.733c-2.686,0-4.589-0.603-5.708-1.809      c-1.116-1.205-1.714-2.696-1.795-4.471H455.056"/>
				<path fill="#4C4C4E" d="M471.098,81.193h3.031v4.98h2.848v2.444h-2.848v11.64c0,0.626,0.21,1.039,0.631,1.251      c0.234,0.125,0.623,0.181,1.168,0.181l0.466-0.011l0.583-0.053v2.378c-0.343,0.106-0.703,0.176-1.072,0.218      c-0.376,0.048-0.776,0.07-1.211,0.07c-1.396,0-2.345-0.36-2.844-1.075c-0.503-0.717-0.752-1.646-0.752-2.791V88.618h-2.414      v-2.444h2.414V81.193"/>
				<polyline fill="#4C4C4E" points="480.077,79.544 482.958,79.544 482.958,93.749 490.646,86.174 494.475,86.174 487.617,92.8       494.86,104.004 491.031,104.004 485.418,94.932 482.958,97.316 482.958,104.004 480.077,104.004 480.077,79.544     "/>
				<path fill="#4C4C4E" d="M508.433,99.807c0.728-1.502,1.092-3.174,1.092-5.014c0-1.669-0.264-3.021-0.791-4.063      c-0.838-1.638-2.274-2.459-4.315-2.459c-1.81,0-3.127,0.699-3.952,2.095c-0.821,1.397-1.233,3.084-1.233,5.058      c0,1.897,0.412,3.475,1.233,4.74c0.825,1.264,2.132,1.892,3.922,1.892C506.35,102.056,507.698,101.305,508.433,99.807       M510.288,87.951c1.577,1.533,2.367,3.782,2.367,6.758c0,2.87-0.695,5.242-2.085,7.117c-1.388,1.876-3.542,2.812-6.467,2.812      c-2.436,0-4.37-0.829-5.801-2.484c-1.432-1.66-2.149-3.888-2.149-6.68c0-2.995,0.753-5.382,2.263-7.157      c1.511-1.774,3.538-2.662,6.088-2.662C506.785,85.654,508.714,86.421,510.288,87.951z"/>
				<path fill="#4C4C4E" d="M516.504,86.174h2.849v2.528c0.843-1.044,1.738-1.792,2.685-2.249c0.943-0.453,1.993-0.683,3.146-0.683      c2.534,0,4.24,0.886,5.127,2.649c0.486,0.967,0.737,2.348,0.737,4.146v11.438h-3.054V92.767c0-1.089-0.155-1.963-0.48-2.63      c-0.535-1.111-1.501-1.666-2.896-1.666c-0.712,0-1.292,0.071-1.747,0.215c-0.823,0.246-1.545,0.731-2.164,1.469      c-0.503,0.585-0.828,1.193-0.979,1.819c-0.147,0.628-0.221,1.523-0.221,2.691v9.339h-3.001V86.174"/>
				<path fill="#4C4C4E" d="M536.242,81.193h3.031v4.98h2.85v2.444h-2.85v11.64c0,0.626,0.21,1.039,0.633,1.251      c0.232,0.125,0.623,0.181,1.168,0.181l0.466-0.011l0.583-0.053v2.378c-0.346,0.106-0.703,0.176-1.077,0.218      c-0.371,0.048-0.77,0.07-1.209,0.07c-1.396,0-2.345-0.36-2.845-1.075c-0.501-0.717-0.75-1.646-0.75-2.791V88.618h-2.412v-2.444      h2.412V81.193"/>
				<path fill="#4C4C4E" d="M545.372,86.174h2.85v3.081c0.232-0.601,0.802-1.335,1.712-2.188c0.912-0.862,1.963-1.296,3.15-1.296      l0.283,0.018c0.133,0.011,0.36,0.036,0.684,0.067v3.165l-0.494-0.067l-0.492-0.017c-1.506,0-2.667,0.483-3.479,1.458      c-0.811,0.971-1.214,2.091-1.214,3.354v10.255h-2.999V86.174"/>
				<path fill="#4C4C4E" d="M567.879,99.807c0.731-1.502,1.094-3.174,1.094-5.014c0-1.669-0.263-3.021-0.789-4.063      c-0.835-1.638-2.272-2.459-4.313-2.459c-1.812,0-3.129,0.699-3.952,2.095c-0.826,1.397-1.233,3.084-1.233,5.058      c0,1.897,0.407,3.475,1.233,4.74c0.823,1.264,2.13,1.892,3.919,1.892C565.803,102.056,567.15,101.305,567.879,99.807       M569.737,87.951c1.58,1.533,2.368,3.782,2.368,6.758c0,2.87-0.698,5.242-2.082,7.117c-1.391,1.876-3.545,2.812-6.468,2.812      c-2.436,0-4.368-0.829-5.805-2.484c-1.431-1.66-2.151-3.888-2.151-6.68c0-2.995,0.756-5.382,2.271-7.157      c1.504-1.774,3.536-2.662,6.082-2.662C566.234,85.654,568.164,86.421,569.737,87.951z"/>
				<rect x="576.038" y="79.546" fill="#4C4C4E" width="2.998" height="24.458"/>
				<rect x="583.786" y="79.546" fill="#4C4C4E" width="3.001" height="24.458"/>
				<path fill="#4C4C4E" d="M603.54,93.664c-0.119-1.3-0.401-2.336-0.843-3.114c-0.814-1.44-2.171-2.16-4.075-2.16      c-1.367,0-2.512,0.49-3.436,1.487c-0.927,0.991-1.416,2.253-1.471,3.787H603.54 M602.466,86.661      c1.181,0.596,2.082,1.365,2.699,2.31c0.598,0.897,0.994,1.948,1.195,3.148c0.172,0.823,0.263,2.13,0.263,3.927h-12.972      c0.052,1.814,0.477,3.275,1.272,4.369c0.787,1.094,2.021,1.641,3.683,1.641c1.554,0,2.791-0.516,3.718-1.556      c0.516-0.6,0.885-1.298,1.103-2.089h2.944c-0.077,0.655-0.335,1.384-0.772,2.188c-0.438,0.809-0.928,1.462-1.469,1.976      c-0.901,0.887-2.021,1.487-3.353,1.801c-0.72,0.172-1.529,0.262-2.431,0.262c-2.206,0-4.078-0.807-5.611-2.42      c-1.53-1.618-2.302-3.88-2.302-6.788c0-2.864,0.778-5.189,2.321-6.979c1.544-1.787,3.562-2.681,6.052-2.681      C600.068,85.771,601.285,86.067,602.466,86.661z"/>
			</g>
			<g>
				<path fill="#4C4C4E" d="M388.299,47.048v15.121c0,1.775,0.338,3.252,1.006,4.43c0.999,1.775,2.676,2.665,5.04,2.665      c2.83,0,4.751-0.961,5.77-2.881c0.551-1.044,0.823-2.448,0.823-4.214V47.048h3.348v13.738c0,3.009-0.405,5.324-1.22,6.945      c-1.49,2.956-4.315,4.427-8.455,4.427c-4.146,0-6.959-1.471-8.438-4.427c-0.814-1.621-1.22-3.936-1.22-6.945V47.048H388.299"/>
				<path fill="#4C4C4E" d="M409.119,53.676h2.85v2.531c0.843-1.044,1.737-1.792,2.68-2.247c0.944-0.455,1.994-0.684,3.148-0.684      c2.533,0,4.24,0.884,5.131,2.647c0.485,0.966,0.732,2.349,0.732,4.148V71.51h-3.049V60.271c0-1.089-0.159-1.966-0.482-2.632      c-0.533-1.11-1.5-1.664-2.897-1.664c-0.709,0-1.293,0.071-1.748,0.213c-0.826,0.246-1.546,0.736-2.169,1.467      c-0.496,0.589-0.823,1.197-0.971,1.824c-0.151,0.625-0.226,1.522-0.226,2.689v9.341h-2.999V53.676"/>
				<path fill="#4C4C4E" d="M428.856,48.697h3.028v4.979h2.854v2.447h-2.854v11.64c0,0.622,0.215,1.04,0.635,1.249      c0.234,0.125,0.625,0.186,1.166,0.186l0.466-0.011l0.587-0.054v2.378c-0.347,0.102-0.704,0.175-1.077,0.216      c-0.372,0.046-0.773,0.069-1.209,0.069c-1.396,0-2.348-0.361-2.845-1.075c-0.5-0.715-0.751-1.646-0.751-2.789V56.123h-2.414      v-2.447h2.414V48.697"/>
				<path fill="#4C4C4E" d="M449.992,61.171c-0.119-1.301-0.398-2.337-0.839-3.115c-0.816-1.44-2.175-2.165-4.079-2.165      c-1.367,0-2.512,0.499-3.433,1.492c-0.927,0.992-1.419,2.255-1.474,3.787H449.992 M448.922,54.168      c1.177,0.594,2.076,1.363,2.695,2.307c0.598,0.897,0.994,1.95,1.191,3.147c0.176,0.823,0.267,2.133,0.267,3.93h-12.972      c0.052,1.814,0.48,3.27,1.27,4.367c0.793,1.098,2.026,1.644,3.688,1.644c1.552,0,2.791-0.518,3.718-1.555      c0.517-0.603,0.885-1.298,1.097-2.092h2.951c-0.08,0.657-0.338,1.386-0.775,2.188c-0.438,0.807-0.928,1.465-1.469,1.977      c-0.904,0.889-2.021,1.486-3.353,1.797c-0.717,0.177-1.529,0.265-2.431,0.265c-2.206,0-4.076-0.806-5.611-2.423      c-1.532-1.616-2.3-3.877-2.3-6.783c0-2.863,0.773-5.191,2.319-6.981c1.546-1.787,3.562-2.681,6.051-2.681      C446.521,53.276,447.74,53.573,448.922,54.168z"/>
				<path fill="#4C4C4E" d="M457.125,53.676h2.85v3.079c0.231-0.597,0.804-1.329,1.714-2.189c0.91-0.86,1.96-1.29,3.148-1.29      l0.285,0.016c0.128,0.014,0.357,0.033,0.681,0.068v3.164l-0.491-0.065l-0.491-0.021c-1.51,0-2.671,0.49-3.481,1.461      c-0.812,0.968-1.213,2.089-1.213,3.353V71.51h-3.001V53.676"/>
				<path fill="#4C4C4E" d="M468.571,46.965h2.995v9.125c0.71-0.898,1.35-1.533,1.915-1.896c0.969-0.635,2.173-0.952,3.616-0.952      c2.587,0,4.342,0.906,5.261,2.712c0.5,0.992,0.751,2.361,0.751,4.117V71.51h-3.082V60.271c0-1.309-0.165-2.272-0.499-2.882      c-0.542-0.977-1.566-1.466-3.065-1.466c-1.242,0-2.37,0.426-3.38,1.283c-1.011,0.855-1.517,2.47-1.517,4.846v9.458h-2.995      V46.965"/>
				<path fill="#4C4C4E" d="M490.956,68.814c0.633,0.499,1.382,0.747,2.247,0.747c1.057,0,2.075-0.243,3.062-0.728      c1.666-0.813,2.5-2.136,2.5-3.977v-2.41c-0.368,0.235-0.836,0.43-1.408,0.586c-0.578,0.155-1.145,0.267-1.701,0.333      l-1.808,0.234c-1.087,0.143-1.904,0.371-2.451,0.68c-0.926,0.521-1.39,1.353-1.39,2.493      C490.007,67.634,490.325,68.317,490.956,68.814 M497.268,60.716c0.688-0.088,1.148-0.377,1.384-0.863      c0.133-0.27,0.195-0.652,0.195-1.156c0-1.026-0.359-1.768-1.086-2.231c-0.726-0.463-1.765-0.692-3.117-0.692      c-1.561,0-2.672,0.423-3.322,1.271c-0.365,0.472-0.604,1.168-0.715,2.092h-2.799c0.055-2.204,0.77-3.736,2.141-4.602      c1.367-0.861,2.955-1.292,4.762-1.292c2.096,0,3.799,0.398,5.107,1.2c1.296,0.797,1.946,2.041,1.946,3.731v10.272      c0,0.311,0.064,0.563,0.19,0.749c0.128,0.191,0.398,0.287,0.809,0.287l0.45-0.027l0.533-0.074v2.214      c-0.47,0.131-0.827,0.215-1.07,0.249c-0.239,0.035-0.574,0.049-0.996,0.049c-1.032,0-1.78-0.363-2.25-1.098      c-0.242-0.389-0.413-0.938-0.514-1.649c-0.61,0.8-1.49,1.492-2.632,2.081c-1.145,0.589-2.403,0.884-3.779,0.884      c-1.655,0-3.007-0.504-4.054-1.508c-1.049-1.002-1.573-2.258-1.573-3.764c0-1.655,0.516-2.935,1.549-3.843      c1.029-0.91,2.384-1.47,4.062-1.682L497.268,60.716z"/>
				<rect x="506.931" y="47.05" fill="#4C4C4E" width="2.997" height="24.463"/>
				<path fill="#4C4C4E" d="M515.192,48.697h3.029v4.979h2.852v2.447h-2.852v11.64c0,0.622,0.215,1.04,0.633,1.249      c0.238,0.125,0.623,0.186,1.17,0.186l0.464-0.011l0.585-0.054v2.378c-0.345,0.102-0.702,0.175-1.074,0.216      c-0.374,0.046-0.778,0.069-1.205,0.069c-1.402,0-2.351-0.361-2.85-1.075c-0.498-0.715-0.752-1.646-0.752-2.789V56.123h-2.414      v-2.447h2.414V48.697"/>
				<path fill="#4C4C4E" d="M527.239,53.676v11.84c0,0.911,0.141,1.655,0.419,2.232c0.518,1.066,1.488,1.598,2.903,1.598      c2.034,0,3.419-0.931,4.151-2.798c0.404-0.997,0.6-2.37,0.6-4.113v-8.758h3.001V71.51h-2.834l0.034-2.631      c-0.381,0.678-0.854,1.249-1.421,1.715c-1.122,0.935-2.485,1.398-4.084,1.398c-2.496,0-4.192-0.848-5.101-2.547      c-0.49-0.908-0.732-2.124-0.732-3.646V53.676H527.239"/>
				<path fill="#4C4C4E" d="M543.379,53.676h2.845v2.531c0.846-1.044,1.742-1.792,2.683-2.247c0.943-0.455,1.996-0.684,3.151-0.684      c2.529,0,4.235,0.884,5.128,2.647c0.485,0.966,0.734,2.349,0.734,4.148V71.51h-3.051V60.271c0-1.089-0.162-1.966-0.48-2.632      c-0.536-1.11-1.502-1.664-2.9-1.664c-0.712,0-1.293,0.071-1.745,0.213c-0.823,0.246-1.546,0.736-2.169,1.467      c-0.496,0.589-0.826,1.197-0.974,1.824c-0.148,0.625-0.227,1.522-0.227,2.689v9.341h-2.995V53.676"/>
				<path fill="#4C4C4E" d="M572.797,57.604c-0.901-1.063-2.057-1.598-3.461-1.598c-2.097,0-3.533,0.99-4.307,2.965      c-0.41,1.054-0.611,2.438-0.611,4.147c0,2.008,0.405,3.538,1.217,4.587c0.812,1.048,1.903,1.572,3.271,1.572      c2.143,0,3.651-0.969,4.522-2.913c0.486-1.1,0.731-2.381,0.731-3.847C574.159,60.312,573.707,58.673,572.797,57.604       M572.435,54.391c0.563,0.389,1.138,0.955,1.725,1.699v-2.248h2.763v16.221c0,2.264-0.334,4.05-0.996,5.359      c-1.239,2.422-3.58,3.629-7.021,3.629c-1.911,0-3.525-0.428-4.828-1.288c-1.306-0.86-2.038-2.206-2.194-4.039h3.049      c0.143,0.799,0.429,1.416,0.862,1.849c0.676,0.666,1.735,0.998,3.179,0.998c2.286,0,3.783-0.81,4.491-2.43      c0.416-0.955,0.611-2.659,0.578-5.113c-0.598,0.909-1.317,1.587-2.157,2.032c-0.841,0.444-1.952,0.666-3.333,0.666      c-1.926,0-3.607-0.685-5.053-2.058c-1.442-1.369-2.162-3.638-2.162-6.8c0-2.987,0.726-5.319,2.18-6.994      c1.454-1.677,3.209-2.515,5.267-2.515C570.179,53.36,571.391,53.703,572.435,54.391z"/>
				<path fill="#4C4C4E" d="M583.438,65.917c0.089,1,0.344,1.762,0.765,2.297c0.768,0.967,2.108,1.45,4.011,1.45      c1.131,0,2.128-0.243,2.996-0.724c0.856-0.483,1.287-1.228,1.287-2.24c0-0.766-0.344-1.35-1.031-1.746      c-0.44-0.247-1.309-0.529-2.609-0.853l-2.417-0.597c-1.543-0.377-2.688-0.799-3.419-1.266c-1.31-0.812-1.966-1.936-1.966-3.365      c0-1.688,0.62-3.055,1.851-4.098c1.23-1.041,2.887-1.564,4.973-1.564c2.724,0,4.683,0.79,5.887,2.364      c0.75,1,1.121,2.078,1.097,3.232h-2.832c-0.055-0.677-0.297-1.286-0.732-1.841c-0.706-0.783-1.927-1.174-3.663-1.174      c-1.158,0-2.035,0.213-2.632,0.646c-0.598,0.431-0.898,1.002-0.898,1.71c0,0.771,0.39,1.393,1.177,1.855      c0.453,0.278,1.117,0.521,2.002,0.735l2.019,0.483c2.193,0.52,3.665,1.026,4.412,1.514c1.165,0.766,1.748,1.969,1.748,3.613      c0,1.587-0.611,2.958-1.828,4.113c-1.22,1.155-3.077,1.731-5.575,1.731c-2.685,0-4.585-0.603-5.707-1.806      c-1.114-1.206-1.714-2.698-1.796-4.473H583.438"/>
				<path fill="#4C4C4E" d="M600.658,65.917c0.094,1,0.349,1.762,0.767,2.297c0.771,0.967,2.107,1.45,4.011,1.45      c1.134,0,2.13-0.243,2.99-0.724c0.86-0.483,1.292-1.228,1.292-2.24c0-0.766-0.343-1.35-1.032-1.746      c-0.439-0.247-1.311-0.529-2.604-0.853l-2.424-0.597c-1.543-0.377-2.679-0.799-3.419-1.266      c-1.303-0.812-1.959-1.936-1.959-3.365c0-1.688,0.617-3.055,1.848-4.098c1.231-1.041,2.889-1.564,4.969-1.564      c2.722,0,4.687,0.79,5.892,2.364c0.754,1,1.117,2.078,1.096,3.232h-2.831c-0.057-0.677-0.299-1.286-0.731-1.841      c-0.703-0.783-1.926-1.174-3.665-1.174c-1.158,0-2.037,0.213-2.635,0.646c-0.598,0.431-0.894,1.002-0.894,1.71      c0,0.771,0.391,1.393,1.173,1.855c0.455,0.278,1.122,0.521,2.004,0.735l2.018,0.483c2.197,0.52,3.666,1.026,4.411,1.514      c1.166,0.766,1.749,1.969,1.749,3.613c0,1.587-0.611,2.958-1.824,4.113c-1.227,1.155-3.079,1.731-5.575,1.731      c-2.688,0-4.592-0.603-5.708-1.806c-1.122-1.206-1.714-2.698-1.795-4.473H600.658"/>
				<path fill="#4C4C4E" d="M627.166,67.308c0.729-1.5,1.092-3.172,1.092-5.014c0-1.663-0.262-3.016-0.79-4.058      c-0.831-1.642-2.271-2.462-4.313-2.462c-1.812,0-3.129,0.698-3.955,2.096c-0.82,1.397-1.234,3.083-1.234,5.057      c0,1.896,0.414,3.475,1.234,4.738c0.826,1.266,2.133,1.898,3.925,1.898C625.084,69.563,626.433,68.811,627.166,67.308       M629.022,55.455c1.577,1.533,2.368,3.785,2.368,6.758c0,2.873-0.695,5.248-2.084,7.12c-1.389,1.875-3.545,2.812-6.466,2.812      c-2.438,0-4.37-0.83-5.805-2.486c-1.435-1.658-2.151-3.885-2.151-6.681c0-2.995,0.756-5.381,2.264-7.154      c1.513-1.778,3.539-2.663,6.091-2.663C625.52,53.16,627.448,53.925,629.022,55.455z"/>
				<path fill="#4C4C4E" d="M636.638,48.232c0.7-1.021,2.049-1.53,4.048-1.53l0.581,0.014l0.686,0.049v2.732      c-0.315-0.022-0.545-0.038-0.684-0.043l-0.394-0.008c-0.924,0-1.474,0.237-1.653,0.709c-0.178,0.472-0.267,1.672-0.267,3.608      h2.997v2.363h-2.997v15.387h-2.965V56.126h-2.482v-2.363h2.482v-2.798C636.032,49.721,636.253,48.809,636.638,48.232"/>
				<path fill="#4C4C4E" d="M645.483,48.697h3.033v4.979h2.848v2.447h-2.848v11.64c0,0.622,0.21,1.04,0.632,1.249      c0.232,0.125,0.622,0.186,1.166,0.186l0.467-0.011l0.583-0.054v2.378c-0.343,0.102-0.703,0.175-1.073,0.216      c-0.373,0.046-0.773,0.069-1.207,0.069c-1.401,0-2.351-0.361-2.85-1.075c-0.497-0.715-0.751-1.646-0.751-2.789V56.123h-2.414      v-2.447h2.414V48.697"/>
				<polyline fill="#4C4C4E" points="655.923,53.676 659.354,67.731 662.834,53.676 666.194,53.676 669.692,67.648 673.343,53.676       676.339,53.676 671.158,71.51 668.045,71.51 664.416,57.705 660.903,71.51 657.787,71.51 652.643,53.676 655.923,53.676     "/>
				<path fill="#4C4C4E" d="M682.579,68.814c0.635,0.499,1.383,0.747,2.247,0.747c1.056,0,2.078-0.243,3.065-0.728      c1.664-0.813,2.499-2.136,2.499-3.977v-2.41c-0.366,0.235-0.839,0.43-1.413,0.586c-0.574,0.155-1.142,0.267-1.696,0.333      l-1.812,0.234c-1.084,0.143-1.902,0.371-2.446,0.68c-0.93,0.521-1.393,1.353-1.393,2.493      C681.631,67.634,681.946,68.317,682.579,68.814 M688.894,60.716c0.687-0.088,1.147-0.377,1.38-0.863      c0.134-0.27,0.201-0.652,0.201-1.156c0-1.026-0.366-1.768-1.087-2.231c-0.729-0.463-1.769-0.692-3.118-0.692      c-1.561,0-2.674,0.423-3.324,1.271c-0.366,0.472-0.603,1.168-0.715,2.092h-2.797c0.054-2.204,0.765-3.736,2.136-4.602      c1.371-0.861,2.96-1.292,4.765-1.292c2.097,0,3.799,0.398,5.105,1.2c1.298,0.797,1.949,2.041,1.949,3.731v10.272      c0,0.311,0.061,0.563,0.191,0.749c0.126,0.191,0.396,0.287,0.808,0.287l0.448-0.027l0.533-0.074v2.214      c-0.466,0.131-0.823,0.215-1.065,0.249c-0.245,0.035-0.578,0.049-1.002,0.049c-1.03,0-1.778-0.363-2.244-1.098      c-0.243-0.389-0.416-0.938-0.514-1.649c-0.611,0.8-1.491,1.492-2.635,2.081c-1.146,0.589-2.407,0.884-3.783,0.884      c-1.649,0-3.003-0.504-4.054-1.508c-1.046-1.002-1.57-2.258-1.57-3.764c0-1.655,0.516-2.935,1.547-3.843      c1.033-0.91,2.386-1.47,4.064-1.682L688.894,60.716z"/>
				<path fill="#4C4C4E" d="M698.557,53.676h2.845v3.079c0.238-0.597,0.808-1.329,1.714-2.189c0.913-0.86,1.963-1.29,3.152-1.29      l0.281,0.016c0.131,0.014,0.357,0.033,0.684,0.068v3.164l-0.49-0.065l-0.492-0.021c-1.512,0-2.674,0.49-3.483,1.461      c-0.809,0.968-1.214,2.089-1.214,3.353V71.51h-2.996V53.676"/>
				<path fill="#4C4C4E" d="M722.089,61.171c-0.121-1.301-0.402-2.337-0.841-3.115c-0.814-1.44-2.177-2.165-4.081-2.165      c-1.361,0-2.512,0.499-3.436,1.492c-0.925,0.992-1.412,2.255-1.469,3.787H722.089 M721.017,54.168      c1.175,0.594,2.076,1.363,2.693,2.307c0.598,0.897,0.997,1.95,1.191,3.147c0.182,0.823,0.267,2.133,0.267,3.93h-12.97      c0.054,1.814,0.479,3.27,1.27,4.367c0.793,1.098,2.021,1.644,3.683,1.644c1.555,0,2.798-0.518,3.721-1.555      c0.52-0.603,0.885-1.298,1.1-2.092h2.948c-0.078,0.657-0.336,1.386-0.773,2.188c-0.44,0.807-0.927,1.465-1.469,1.977      c-0.901,0.889-2.021,1.486-3.357,1.797c-0.715,0.177-1.521,0.265-2.426,0.265c-2.208,0-4.078-0.806-5.614-2.423      c-1.531-1.616-2.297-3.877-2.297-6.783c0-2.863,0.771-5.191,2.316-6.981c1.547-1.787,3.566-2.681,6.059-2.681      C718.613,53.276,719.836,53.573,721.017,54.168z"/>
			</g>
		</g>
		<path fill="#4C4C4E" d="M162.115,83.583c0,6.384,0.765,22.009,28.753,22.009s28.757-15.625,28.757-22.009V47.057H204.75v32.702    c0,5.583-0.229,14.989-13.881,14.989c-13.651,0-13.88-9.406-13.88-14.989V47.057h-14.874V83.583 M286.717,63.566    c-0.998-16.108-17.712-18.105-28.983-18.105c-17.179,0-27.149,5.185-27.149,17.865c0,11.648,9.204,14.594,18.715,16.11    l13.571,2.152c5.902,0.962,9.277,2.156,9.277,6.539c0,4.945-4.752,7.101-11.734,7.101c-6.439,0-13.954-1.356-14.108-9.179h-16.714    c0.153,17.787,17.48,19.542,30.823,19.542c21.549,0,28.45-8.532,28.45-19.139c0-10.363-7.588-14.277-17.559-15.946l-18.634-3.11    c-3.835-0.638-6.288-2.312-6.288-5.345c0-3.831,3.984-6.7,10.122-6.7c5.981,0,12.805,0.801,13.725,8.215H286.717z M314.316,73.319    V47.057h-14.874v56.942h14.874V76.09l27.066,27.909h19.157l-28.93-29.262l27.01-27.68h-18.956L314.316,73.319z"/>
	</g>
	<g>
		<path fill="#E42528" d="M80.161,64.144c-3.178,3.175-8.329,3.175-11.507,0L51.392,46.879c-3.178-3.178-3.178-8.329,0-11.507    l17.261-17.261c3.178-3.178,8.33-3.178,11.507,0l17.262,17.261c3.182,3.179,3.182,8.33,0,11.507L80.161,64.144"/>
		<path fill="#FFD404" d="M114.687,98.665c-3.178,3.174-8.33,3.174-11.507,0L85.917,81.402c-3.178-3.179-3.178-8.326,0-11.504    l17.262-17.262c3.178-3.179,8.329-3.179,11.507,0l17.261,17.262c3.178,3.178,3.178,8.325,0,11.504L114.687,98.665"/>
		<path fill="#2984C1" d="M45.639,98.665c-3.179,3.174-8.329,3.174-11.509,0L16.869,81.402c-3.178-3.179-3.178-8.326,0-11.504    L34.13,52.637c3.18-3.179,8.33-3.179,11.509,0l17.261,17.262c3.179,3.178,3.179,8.325,0,11.504L45.639,98.665"/>
		<path fill="#32A64C" d="M80.161,133.185c-3.178,3.177-8.329,3.177-11.507,0l-17.261-17.267c-3.178-3.177-3.178-8.324,0-11.503    l17.261-17.262c3.178-3.175,8.33-3.175,11.507,0l17.262,17.262c3.182,3.179,3.182,8.326,0,11.503L80.161,133.185"/>
	</g>
</g>
</svg>