<svg xmlns="http://www.w3.org/2000/svg" width="250" height="250"><path fill="#08D7D7" d="M112.974 182.422c0 2.09-.512 5.058-2.913 7.323l-8.985 7.665-81.71-76.2V91.314l89.849 83.796c1.407 1.318 3.769 4.032 3.769 7.323l-.01-.01zM237.424 93.5v27.73L135.766 218.56c-1.693 1.582-3.376 2.294-5.491 2.294-2.165 0-4.085-.78-5.708-2.314l-9.3-8.338L237.424 93.49v.01zm-77.449 49.407L131.8 169.504 42.541 85.24c-4.497-4.238-6.957-9.891-6.957-15.945 0-6.034 2.46-11.687 6.928-15.915l28.195-26.627 89.258 84.284c9.32 8.787 9.32 23.072 0 31.86l.01.01zM143.344 69.5l29.375-27.73c4.507-4.237 10.5-6.57 16.878-6.57 6.396 0 12.38 2.343 16.877 6.59l30.31 28.609-46.233 43.645-16.877-15.915-30.31-28.629h-.02zm112.877-4.413l-66.388-63.76L188.455 0l-1.378 1.308-57.983 55.265L77.27 7.39l-.068-.068-.049-.03-6.495-5.174-1.338-1.074-1.26 1.172L.59 64.97 0 65.517v63.271l.571.537 126.507 119.366 1.378 1.309 1.378-1.299 126.388-119.366.56-.537V65.615l-.55-.528h-.011z" fill-rule="evenodd"/></svg>