<svg xmlns="http://www.w3.org/2000/svg" width="182" height="148" viewBox="0 0 183 151" xmlns:v="https://vecta.io/nano"><defs><clipPath id="A"><path d="M0 10h1367v1111H0z"/></clipPath></defs><g clip-path="url(#A)" transform="matrix(.133 0 0 -.133 0 151)"><path d="M1367 989c-50.3-22.3-104-37.4-161-44.2a281.3 281.3 0 0 1 123 155 556.7 556.7 0 0 0-178-68c-227 225-547-8.4-478-256-233 11.7-440 123-578 293-79.4-135-27.7-301 86.8-374-46 1.44-89.2 14.1-127 35.1-.04-1.18-.04-2.35-.04-3.52 0-136 96.7-249 225-275-43.7-10.8-85.5-12.5-127-4.8 35.7-111 139-192 262-195-124-94.2-268-133-415-116 633-372 1230 115 1228 672a849.9 849.9 0 0 1-.79 36.2c54.8 39.6 102 89 140 145" fill="#5ae"/></g></svg>