<svg xmlns="http://www.w3.org/2000/svg" viewBox="0 0 135.08 105.24"><defs><style>.cls-1{fill:#fff;}</style></defs><title>Ресурс 2</title><g id="Слой_2" data-name="Слой 2"><g id="stacked"><path class="cls-1" d="M76.82,0C39.87,0,5.77,23.56.65,52.62s20.67,52.62,57.61,52.62c20.91,0,40.9-7.55,55.25-19.37l-4-2.22a60.26,60.26,0,0,1-15.64,7.82A83.16,83.16,0,0,1,74.18,96.3C41,100.27,11.75,84.38,8.93,60.81s21.83-45.9,55-49.87,62.43,11.92,65.25,35.49C130.44,56.63,126.5,66.61,119,75A44.71,44.71,0,0,1,114.14,80l3.6,2.1c8.73-8.41,14.76-18.56,16.69-29.49C139.55,23.56,113.76,0,76.82,0Z"/><polygon class="cls-1" points="35.45 57.12 42.71 57.12 42.71 50.39 35.45 50.39 35.45 47.91 43.39 47.91 43.39 40.83 25.97 40.83 25.97 66.75 43.67 66.75 43.67 59.67 35.45 59.67 35.45 57.12"/><path class="cls-1" d="M60.55,50.49,58.41,50c-.72-.18-1.89-.31-1.89-1.27s1.21-1.38,2-1.38a9.81,9.81,0,0,1,5.47,2l2.54-6.63a15.39,15.39,0,0,0-8.21-2.27c-5.64,0-11.25,3.43-11.25,9.59,0,4.05,3.1,6.22,6.78,6.87l1.89.35c.86.17,2.09.27,2.09,1.44s-1.47,1.55-2.4,1.55a9.86,9.86,0,0,1-5.88-2.38l-.48-.37-2.89,7.32a23.3,23.3,0,0,0,10,2.37c5.6,0,11.24-3.06,11.24-9.25C67.42,53.51,64.53,51.38,60.55,50.49Z"/><path class="cls-1" d="M89.08,58.33l5.63,8.42H83.85l-4.12-8.32h-.18v8.32H70.34V40.83H81.72c5.84,0,10.79,2.47,10.79,9,0,3.92-1.51,5.57-5,6.74v.21A6.53,6.53,0,0,1,89.08,58.33ZM83.3,50.14c0-2-1.41-2.23-3-2.23h-.73v4.4h.66C81.75,52.31,83.3,52.07,83.3,50.14Z"/><path class="cls-1" d="M118.6,59.6c0,5.32-4.95,7.15-9.49,7.15H96.29V40.83h11c5,0,10.14,1.2,10.14,7.18a5.25,5.25,0,0,1-3.4,5.23v.2C116.81,54.44,118.6,56.5,118.6,59.6ZM105,50.8h.86c1.38,0,2.92-.14,2.92-1.93s-1.75-1.79-3.12-1.79H105Zm4.85,7.59c0-2.16-2.41-2.13-3.92-2.13H105v4.3h1.07C107.64,60.56,109.87,60.53,109.87,58.39Z"/><path class="cls-1" d="M117.6,85.82a3.47,3.47,0,0,1,1.4.28,3.88,3.88,0,0,1,1.14.77,3.64,3.64,0,0,1,.77,1.14,3.69,3.69,0,0,1,0,2.82,3.64,3.64,0,0,1-.77,1.14,3.73,3.73,0,0,1-1.14.78,3.59,3.59,0,0,1-4-.78,3.57,3.57,0,0,1,0-5.1,3.8,3.8,0,0,1,1.15-.77A3.47,3.47,0,0,1,117.6,85.82Zm0,.54a3,3,0,0,0-1.2.23,3,3,0,0,0-1,.66,3.06,3.06,0,0,0-.9,2.17,3.17,3.17,0,0,0,.24,1.2,3,3,0,0,0,1.64,1.63,3.12,3.12,0,0,0,2.4,0,3.24,3.24,0,0,0,1-.65,3.29,3.29,0,0,0,.65-1,3.1,3.1,0,0,0,0-2.39,3.29,3.29,0,0,0-.65-1,3.09,3.09,0,0,0-1-.66A3,3,0,0,0,117.6,86.36Zm-.68,5.14h-.67V87.35h1.65a1.21,1.21,0,0,1,.52.1,1.11,1.11,0,0,1,.36.23A.84.84,0,0,1,119,88a1,1,0,0,1,.07.38.84.84,0,0,1-.25.62,1.14,1.14,0,0,1-.65.34v0a1,1,0,0,1,.32.07.52.52,0,0,1,.22.17.76.76,0,0,1,.13.3,2.3,2.3,0,0,1,0,.51s0,.12,0,.21l0,.3c0,.11,0,.21,0,.32a1,1,0,0,0,.07.25h-.66a1.1,1.1,0,0,1-.13-.59c0-.24,0-.5-.05-.79a.5.5,0,0,0-.09-.26.52.52,0,0,0-.16-.14.76.76,0,0,0-.2-.06h-.84Zm0-2.38h.87a.54.54,0,0,0,.45-.2.75.75,0,0,0,.15-.47.85.85,0,0,0,0-.23.54.54,0,0,0-.1-.2.58.58,0,0,0-.47-.21h-.87Z"/></g></g></svg>