<?xml version="1.0" encoding="UTF-8" standalone="no"?>
<svg
   xmlns:svg="http://www.w3.org/2000/svg"
   xmlns="http://www.w3.org/2000/svg"
   version="1.1"
   width="548.43103"
   height="427.45734"
   id="svg3338">
  <defs
     id="defs3340" />
  <g
     transform="translate(-84.784479,-282.06208)"
     id="layer1">
    <path
       d="m 396.7733,282.06208 c -149.99743,0 -288.57357,95.86706 -309.35463,213.86167 -20.822594,117.95308 84.08002,213.59568 234.07745,213.59568 84.82813,0 166.00713,-30.77251 224.23556,-78.73515 l -15.95983,-9.0439 c -18.4951,13.09208 -39.96604,24.0229 -63.57331,31.91965 -24.64631,9.39306 -51.55356,16.05125 -80.06513,19.41779 C 251.26454,689.24542 132.62984,624.84919 121.2003,529.17339 109.77077,433.45597 209.81062,342.60966 344.63787,326.4836 c 134.86887,-16.12606 253.46195,48.45301 264.93311,144.17043 4.94584,41.43733 -11.13034,82.06015 -41.76154,115.97474 -5.90182,7.19026 -12.26915,14.08124 -19.41779,20.48177 l 14.36384,8.51191 c 35.4109,-34.20553 59.97405,-75.352 67.82926,-119.6987 C 651.36581,377.92914 546.77072,282.06208 396.7733,282.06208 z m 159.86426,348.45621 c -5.40311,0 -9.8419,4.49701 -9.8419,10.10789 0,5.40302 4.43879,9.84189 9.8419,9.84189 5.61088,0 10.10789,-4.43887 10.10789,-9.84189 0,-5.61088 -4.49701,-10.10789 -10.10789,-10.10789 z m 0,1.86198 c 4.57183,0 8.24591,3.67408 8.24591,8.24591 0,4.57183 -3.67408,8.24591 -8.24591,8.24591 -4.36406,0 -7.97992,-3.67408 -7.97992,-8.24591 0,-4.57183 3.61586,-8.24591 7.97992,-8.24591 z m -2.92597,2.92596 0,10.63989 1.86198,0 0,-2.12798 c 0,-1.24691 -0.0596,-1.35492 -0.26557,-2.39397 l 0.26557,0 c 0.62307,1.03905 1.03071,1.14706 1.86198,2.39397 l 1.32998,2.12798 2.39398,0 -2.12798,-2.92597 c -0.83161,-0.83161 -0.76437,-1.03071 -1.59598,-1.86198 l 0.26557,0 c 1.45468,0 2.39397,-1.26351 2.39397,-2.92597 0,-1.87032 -1.11386,-2.92597 -3.19196,-2.92597 l -3.19197,0 z m 1.86198,1.32999 0.53199,0 0.532,0 c 1.24682,0 1.59598,0.34899 1.59598,1.59598 0,1.03905 -0.55668,1.86198 -1.59598,1.86198 l -0.532,0 -0.53199,0 0,-0.79756 0,-1.86198 0,-0.79757 z"
       id="path331"
       style="fill:#211e1e;fill-opacity:1;fill-rule:nonzero;stroke:none" />
    <path
       d="m 321.76212,446.1823 c -22.94223,0 -45.75151,14.12278 -45.75151,39.10157 0,16.45854 12.74293,25.26972 27.6637,27.9297 l 7.71392,1.32998 c 3.49124,0.70649 8.51191,1.11387 8.51191,5.85194 0,4.73806 -6.10134,6.38393 -9.8419,6.38393 -8.76956,0 -17.12357,-4.52195 -23.93974,-9.8419 l -1.86198,-1.32998 -11.70387,29.52568 c 11.92833,6.06805 27.17324,9.84189 40.43156,9.84189 22.73445,0 45.48551,-12.6681 45.48551,-37.77159 0,-17.87168 -11.72047,-26.40019 -27.9297,-30.05767 l -8.51191,-1.86198 c -2.99244,-0.70649 -7.71391,-1.41315 -7.71391,-5.31994 0,-4.36406 4.9209,-5.58594 8.24591,-5.58594 8.27085,0 15.55253,3.53278 22.07776,7.97991 l 10.37388,-26.86571 c -10.30741,-6.31745 -21.27976,-9.30989 -33.24963,-9.30989 z m -131.40257,1.86198 0,105.06885 71.81922,0 0,-28.72769 -33.24964,0 0,-10.37388 29.25968,0 0,-27.13171 -29.25968,0 0,-10.10789 32.18565,0 0,-28.72768 -70.75523,0 z m 180.08004,0 0,105.06885 37.50559,0 0,-33.78163 0.53199,0 16.75782,33.78163 44.15552,0 -22.87575,-34.04763 c -2.0781,-3.03407 -4.43054,-4.80454 -6.38393,-6.38393 l 0,-0.79756 c 14.2142,-4.73807 20.21578,-11.47942 20.21578,-27.39771 0,-26.51655 -19.89157,-36.4416 -43.62353,-36.4416 l -46.28349,0 z m 105.33485,0 0,105.06885 52.13543,0 c 18.41202,0 38.30358,-7.33982 38.30358,-28.99368 0,-12.51021 -7.14864,-20.97224 -18.61979,-25.00373 l 0,-0.79757 c 9.22673,-2.9509 13.83184,-12.05294 13.83184,-21.27977 0,-24.27221 -20.86413,-28.99368 -41.22955,-28.99368 l -44.42151,0 z m 35.37761,25.26972 2.65997,0 c 5.61088,0 12.76786,-0.63158 12.76786,7.18192 0,7.2318 -6.35899,7.97991 -11.96987,7.97991 l -3.45796,0 0,-15.16183 z m -103.20687,3.45796 2.92597,0 c 6.60838,0 12.23586,0.98091 12.23586,9.0439 0,7.81368 -6.18441,8.77791 -12.50186,8.77791 l -2.65997,0 0,-17.82181 z m 103.20687,33.78163 3.98996,0 c 6.10959,0 15.69383,-0.0766 15.69383,8.77791 0,8.60332 -8.92755,8.7779 -15.16184,8.7779 l -4.52195,0 0,-17.55581 z"
       id="path333"
       style="fill:#85878a;fill-opacity:1;fill-rule:nonzero;stroke:none" />
  </g>
</svg>
