<svg xmlns="http://www.w3.org/2000/svg" viewBox="0 0 272.967 66.345" height="70.768" width="291.165"><path d="M261.408 824.147c-.205 0-.367.064-.487.198-.122.132-.192.315-.215.548h1.324c0-.24-.054-.427-.161-.555-.11-.128-.264-.19-.461-.19zm.102 2.298c-.374 0-.669-.113-.884-.34-.217-.229-.325-.544-.325-.949 0-.408.1-.731.3-.971.203-.24.472-.36.81-.36.317 0 .568.106.75.313.187.208.28.483.28.825v.24h-1.742c.007.298.081.523.225.678.141.152.341.231.6.231.271 0 .54-.057.809-.172v.344a2.051 2.051 0 0 1-.387.123 2.08 2.08 0 0 1-.436.038zm-2.754-2.298a.614.614 0 0 0-.483.198c-.123.132-.193.315-.215.548h1.32c0-.24-.053-.427-.16-.555-.108-.128-.262-.19-.462-.19zm.105 2.298c-.373 0-.67-.113-.883-.34-.218-.229-.325-.544-.325-.949 0-.408.1-.731.3-.971.2-.24.468-.36.807-.36.318 0 .568.106.753.313.185.208.278.483.278.825v.24h-1.743c.007.298.083.523.225.678.143.152.343.231.602.231.271 0 .54-.057.806-.172v.344a2.12 2.12 0 0 1-.383.123 2.096 2.096 0 0 1-.437.038zm-1.92-.317c.069 0 .133-.002.197-.013.062-.01.112-.021.148-.032v.294a.798.798 0 0 1-.183.05c-.08.013-.154.018-.218.018-.487 0-.731-.258-.731-.773v-1.504h-.363v-.183l.363-.16.16-.539h.22v.586h.735v.296h-.735v1.49a.51.51 0 0 0 .11.35.38.38 0 0 0 .297.12zm-1.667 0c.069 0 .132-.002.196-.013.063-.01.113-.021.149-.032v.294a.763.763 0 0 1-.184.05 1.29 1.29 0 0 1-.216.018c-.489 0-.733-.258-.733-.773v-1.504h-.36v-.183l.36-.16.16-.539h.223v.586h.732v.296h-.732v1.49c0 .152.035.267.107.35a.383.383 0 0 0 .298.12zm-2.043-2.94c0-.088.022-.153.063-.195a.23.23 0 0 1 .161-.06c.061 0 .115.02.161.062.044.042.067.106.067.192 0 .084-.023.15-.067.192a.237.237 0 0 1-.322 0c-.041-.042-.063-.108-.063-.192zm.415 3.21h-.383v-2.526h.383v2.526zm-1.555 0v-1.643c0-.202-.042-.352-.13-.453-.085-.101-.22-.152-.4-.152-.24 0-.415.07-.53.206-.112.137-.17.348-.17.631v1.411h-.382v-1.643c0-.202-.044-.352-.129-.453-.087-.101-.222-.152-.405-.152-.24 0-.415.072-.527.215-.11.146-.167.381-.167.708v1.325h-.383v-2.526h.312l.061.345h.02a.737.737 0 0 1 .305-.287.924.924 0 0 1 .443-.105c.395 0 .651.144.774.428h.018a.825.825 0 0 1 .328-.313c.144-.076.305-.115.489-.115.285 0 .5.073.64.22.146.149.216.382.216.705v1.648h-.383zm-4.395 0v-1.643c0-.202-.04-.352-.13-.453-.085-.101-.218-.152-.4-.152-.238 0-.415.07-.527.206-.115.137-.17.348-.17.631v1.411h-.384v-1.643c0-.202-.044-.352-.13-.453-.085-.101-.219-.152-.402-.152-.24 0-.415.072-.528.215-.112.146-.169.381-.169.708v1.325h-.38v-2.526h.31l.062.345h.018a.737.737 0 0 1 .305-.287.928.928 0 0 1 .443-.105c.395 0 .654.144.774.428h.02a.83.83 0 0 1 .326-.313c.145-.076.306-.115.491-.115.285 0 .498.073.643.22.14.149.212.382.212.705v1.648h-.384zm-5.817-1.264c0 .322.062.568.195.737.126.169.317.255.569.255.248 0 .44-.086.568-.254.133-.167.195-.415.195-.738 0-.322-.062-.567-.195-.732-.128-.167-.32-.252-.573-.252-.252 0-.44.083-.57.247-.127.165-.19.412-.19.737zm1.926 0c0 .412-.105.733-.312.964-.208.233-.494.347-.86.347a1.14 1.14 0 0 1-.603-.159 1.046 1.046 0 0 1-.405-.456 1.583 1.583 0 0 1-.145-.696c0-.413.105-.734.31-.964.205-.23.494-.345.858-.345.353 0 .635.117.842.355.21.233.315.55.315.954zm-3.66-1.804c-.371 0-.664.124-.879.37-.215.246-.322.585-.322 1.014 0 .44.105.783.31 1.022.207.24.502.361.884.361.237 0 .505-.042.806-.126v.344c-.233.087-.523.13-.865.13-.495 0-.879-.15-1.15-.451-.269-.3-.405-.73-.405-1.284 0-.35.066-.654.195-.915.132-.262.317-.463.564-.604a1.71 1.71 0 0 1 .867-.212c.351 0 .661.066.925.193l-.166.338c-.254-.12-.51-.18-.764-.18zm-3.899 3.068v-1.633c0-.207-.048-.36-.142-.461-.095-.103-.239-.154-.439-.154-.266 0-.459.072-.584.215-.122.144-.182.379-.182.708v1.325h-.384v-2.526h.31l.064.345h.018a.769.769 0 0 1 .33-.289 1.06 1.06 0 0 1 .472-.103c.305 0 .535.073.688.22.154.149.232.382.232.705v1.648h-.383zm-4.328-1.264c0 .322.066.568.195.737.127.169.317.255.568.255.252 0 .443-.086.572-.254.13-.167.195-.415.195-.738 0-.322-.065-.567-.195-.732-.13-.167-.323-.252-.577-.252-.25 0-.438.083-.566.247-.129.165-.192.412-.192.737zm1.926 0c0 .412-.105.733-.313.964-.205.233-.493.347-.86.347-.223 0-.426-.053-.602-.159a1.062 1.062 0 0 1-.405-.456 1.6 1.6 0 0 1-.143-.696c0-.413.104-.734.312-.964.205-.23.49-.345.853-.345.357 0 .635.117.845.355.208.233.313.55.313.954zm-3.409-1.947c0-.087.02-.152.064-.194a.23.23 0 0 1 .161-.06.22.22 0 0 1 .159.062c.046.042.069.106.069.192 0 .084-.023.15-.07.192a.222.222 0 0 1-.158.063.228.228 0 0 1-.161-.063c-.044-.042-.064-.108-.064-.192zm.415 3.211h-.382v-2.526h.382v2.526zm-1.235-.27a1.32 1.32 0 0 0 .346-.045v.294a.803.803 0 0 1-.182.05 1.31 1.31 0 0 1-.22.018c-.488 0-.733-.258-.733-.773v-1.503h-.36v-.184l.36-.16.162-.539h.222v.586h.733v.297h-.733v1.488c0 .153.036.268.11.35a.37.37 0 0 0 .295.122zm-2.754 0c.24 0 .428-.063.562-.195.137-.13.205-.313.205-.548v-.229l-.383.015c-.306.012-.525.06-.66.144-.134.083-.202.215-.202.391 0 .138.04.244.127.316a.526.526 0 0 0 .351.106zm.864.27-.075-.358h-.017a1.062 1.062 0 0 1-.38.322c-.123.055-.28.083-.468.083-.249 0-.446-.063-.587-.194-.143-.129-.215-.313-.215-.55 0-.511.407-.778 1.225-.803l.43-.015v-.156c0-.199-.044-.345-.13-.439-.085-.093-.22-.14-.41-.14-.21 0-.447.062-.715.193l-.115-.295c.122-.066.258-.12.408-.158.15-.038.298-.058.447-.058.3 0 .525.066.67.2.145.133.218.348.218.645v1.723h-.286zm-2.234-2.573c.113 0 .213.01.303.027l-.054.356a1.249 1.249 0 0 0-.275-.034.67.67 0 0 0-.525.248.908.908 0 0 0-.22.621v1.355h-.381v-2.526h.315l.044.469h.02c.092-.165.205-.293.34-.382a.755.755 0 0 1 .433-.134zm-2.003 2.303c.067 0 .133-.002.197-.013.061-.01.113-.021.149-.032v.294a.803.803 0 0 1-.183.05 1.31 1.31 0 0 1-.22.018c-.488 0-.732-.258-.732-.773v-1.503h-.361v-.184l.36-.16.162-.539h.223v.586h.73v.297h-.73v1.488c0 .153.036.268.106.35a.384.384 0 0 0 .299.122zm-1.44-.418a.63.63 0 0 1-.263.544c-.175.128-.421.19-.736.19-.338 0-.596-.052-.784-.158v-.355c.121.061.251.11.39.145.139.036.274.052.4.052.204 0 .355-.03.463-.095a.312.312 0 0 0 .16-.29.313.313 0 0 0-.127-.253c-.085-.07-.25-.153-.498-.248a2.588 2.588 0 0 1-.5-.23.66.66 0 0 1-.223-.222.55.55 0 0 1-.072-.298c0-.206.082-.369.25-.487.17-.12.398-.18.69-.18.272 0 .536.057.797.167l-.136.312a1.846 1.846 0 0 0-.689-.157c-.182 0-.317.028-.41.084-.092.057-.139.135-.139.235 0 .069.017.126.054.174a.473.473 0 0 0 .166.135c.075.044.224.105.442.188.3.11.502.22.607.33.105.11.159.25.159.417zm-2.858-2.523c0-.087.023-.152.066-.194a.226.226 0 0 1 .162-.06c.06 0 .115.02.158.062.046.042.069.106.069.192 0 .084-.023.15-.069.192a.227.227 0 0 1-.158.063.224.224 0 0 1-.162-.063c-.043-.042-.066-.108-.066-.192zm.415 3.211h-.38v-2.526h.38v2.526zm-1.552 0v-1.633c0-.207-.047-.36-.14-.461-.094-.103-.242-.154-.44-.154-.265 0-.458.072-.583.215-.121.144-.182.379-.182.708v1.325h-.384v-2.526h.31l.064.345h.02a.758.758 0 0 1 .328-.289c.143-.068.3-.103.472-.103.305 0 .535.073.688.22.154.149.23.382.23.705v1.648h-.383zm-2.957-3.21c0-.088.022-.153.067-.195a.22.22 0 0 1 .16-.06c.06 0 .112.02.158.062.045.042.066.106.066.192 0 .084-.02.15-.066.192a.231.231 0 0 1-.318 0c-.045-.042-.067-.108-.067-.192zm.415 3.21h-.383v-2.526h.383v2.526zm-1.555 0v-1.643c0-.202-.041-.352-.13-.453-.085-.101-.22-.152-.4-.152-.237 0-.415.07-.527.206-.115.137-.171.348-.171.631v1.411h-.383v-1.643c0-.202-.044-.352-.13-.453-.085-.101-.22-.152-.402-.152-.242 0-.418.072-.528.215-.112.146-.169.381-.169.708v1.325h-.38v-2.526h.31l.063.345h.017a.769.769 0 0 1 .305-.287.928.928 0 0 1 .443-.105c.395 0 .654.144.776.428h.019a.818.818 0 0 1 .325-.313c.144-.076.307-.115.491-.115.285 0 .498.073.641.22.143.149.213.382.213.705v1.648h-.383zm-5.16-.272c.26 0 .448-.073.568-.215.117-.141.176-.371.176-.688v-.082c0-.358-.059-.612-.179-.765-.12-.154-.31-.229-.57-.229a.585.585 0 0 0-.516.26c-.12.175-.179.421-.179.739 0 .324.06.568.177.731.12.166.292.249.522.249zm.765-.065h-.021c-.176.256-.442.384-.794.384-.33 0-.588-.113-.771-.338-.184-.226-.276-.549-.276-.966 0-.415.092-.738.276-.969.185-.232.441-.347.771-.347.344 0 .605.125.789.375h.029l-.015-.183-.01-.178v-1.03h.383v3.59h-.312l-.049-.338zm-3.076-1.087-.39-1.044a5.525 5.525 0 0 1-.159-.488 3.88 3.88 0 0 1-.145.488l-.397 1.044h1.091zm.543 1.424-.42-1.07h-1.35l-.415 1.07h-.4l1.335-3.385h.328l1.33 3.385h-.408zm33.766-5.56c.261 0 .45-.073.567-.215.12-.14.178-.372.178-.687v-.083c0-.356-.061-.61-.178-.766-.122-.152-.31-.229-.57-.229a.583.583 0 0 0-.517.262c-.119.175-.18.421-.18.74 0 .322.059.566.177.73.12.166.294.247.523.247zm.765-.066h-.02c-.178.257-.441.385-.794.385-.331 0-.587-.112-.771-.339-.183-.225-.276-.547-.276-.964 0-.416.093-.74.276-.97.186-.23.442-.347.771-.347.343 0 .606.125.789.374h.03l-.015-.181-.01-.178v-1.03h.381v3.59h-.31l-.051-.34zm-2.891.34v-1.635c0-.207-.047-.361-.14-.462-.094-.101-.24-.151-.44-.151-.265 0-.458.07-.582.213-.122.144-.183.38-.183.708v1.327h-.384v-2.529h.311l.063.348h.02a.752.752 0 0 1 .33-.291c.138-.068.297-.103.47-.103.306 0 .535.074.688.22.154.148.23.383.23.704v1.651h-.383zm-3.667-.27c.24 0 .425-.066.562-.196.136-.131.205-.314.205-.55v-.226l-.384.015c-.305.011-.525.057-.659.142-.134.083-.2.215-.2.39 0 .138.041.244.124.318a.533.533 0 0 0 .352.107zm.864.27-.074-.36h-.018c-.128.159-.252.267-.38.323-.123.053-.28.082-.468.082-.249 0-.446-.063-.591-.192-.141-.13-.211-.314-.211-.553 0-.51.407-.777 1.225-.801l.43-.015v-.156c0-.198-.044-.345-.13-.44-.085-.094-.222-.142-.41-.142-.21 0-.447.065-.713.194l-.117-.294a1.831 1.831 0 0 1 .855-.216c.3 0 .525.066.67.2.145.135.218.35.218.645v1.725h-.286zm-5.107-1.719c0 .177.048.31.148.402.1.09.24.136.418.136.374 0 .561-.181.561-.544 0-.381-.19-.57-.566-.57-.18 0-.319.048-.418.145-.095.096-.143.24-.143.431zm-.208 2.143c0 .138.056.241.174.313.115.068.28.105.495.105.322 0 .56-.048.714-.146.156-.095.23-.223.23-.39 0-.136-.04-.232-.125-.284-.084-.054-.245-.08-.48-.08h-.455c-.177 0-.312.04-.407.126-.097.082-.146.202-.146.356zm2.014-2.953v.243l-.466.055a.814.814 0 0 1 .115.212.775.775 0 0 1 .05.294.751.751 0 0 1-.253.593c-.169.147-.402.22-.697.22-.074 0-.148-.006-.21-.018-.164.086-.248.194-.248.324 0 .07.03.121.086.154.057.034.157.05.293.05h.449c.273 0 .483.057.63.173.146.115.222.284.222.504a.72.72 0 0 1-.339.639c-.222.146-.552.22-.982.22-.331 0-.585-.063-.764-.184a.596.596 0 0 1-.271-.521c0-.154.051-.286.149-.4a.754.754 0 0 1 .415-.228.399.399 0 0 1-.16-.136.357.357 0 0 1-.067-.215c0-.091.022-.172.073-.242a.795.795 0 0 1 .232-.2.687.687 0 0 1-.32-.274.825.825 0 0 1-.122-.443c0-.277.084-.49.25-.64.165-.15.4-.226.705-.226.132 0 .251.016.356.046h.874zm-3.236 2.53v-1.636c0-.207-.05-.361-.143-.462-.092-.101-.239-.151-.439-.151-.263 0-.458.07-.58.213-.126.144-.187.38-.187.708v1.327h-.383v-2.529h.313l.061.348h.019a.78.78 0 0 1 .33-.291c.141-.068.3-.103.474-.103.302 0 .532.074.686.22.154.148.231.383.231.704v1.651h-.382zm-2.958-3.215c0-.087.02-.15.064-.193a.236.236 0 0 1 .161-.06c.061 0 .115.021.159.062.046.041.069.105.069.191 0 .087-.023.152-.07.194a.226.226 0 0 1-.158.063.227.227 0 0 1-.161-.063c-.044-.042-.064-.107-.064-.194zm.415 3.214h-.382v-2.529h.382v2.53zm-1.235-.27a1.528 1.528 0 0 0 .346-.046v.292a1.3 1.3 0 0 1-.403.069c-.487 0-.732-.257-.732-.771v-1.505h-.36v-.184l.36-.16.162-.539h.222v.585h.735v.298h-.735v1.489c0 .15.036.267.108.35a.382.382 0 0 0 .297.122zm-2.754 0c.24 0 .425-.066.562-.196.137-.131.205-.314.205-.55v-.226l-.383.015c-.305.011-.525.057-.657.142-.137.083-.203.215-.203.39 0 .138.041.244.125.318.083.07.2.107.351.107zm.864.27-.075-.36h-.017a1.072 1.072 0 0 1-.38.323c-.123.053-.28.082-.468.082-.251 0-.446-.063-.587-.192-.144-.13-.215-.314-.215-.553 0-.51.407-.777 1.225-.801l.43-.015v-.156c0-.198-.044-.345-.13-.44-.085-.094-.222-.142-.408-.142-.212 0-.449.065-.715.194l-.12-.294c.125-.067.261-.12.411-.158.15-.038.298-.058.447-.058.3 0 .525.066.668.2.147.135.22.35.22.645v1.725h-.286zm-4.022-1.74h.536c.279 0 .481-.055.611-.165.126-.11.193-.274.193-.494 0-.223-.067-.383-.198-.482-.13-.098-.342-.149-.632-.149h-.51v1.29zm0 .338v1.402h-.392v-3.372h.923c.415 0 .721.078.919.239.197.157.295.393.295.712 0 .447-.225.749-.68.905l.917 1.516h-.462l-.818-1.402h-.702zm-3.365-.852a.616.616 0 0 0-.483.2c-.122.132-.194.313-.212.548h1.32c0-.243-.054-.426-.162-.555-.11-.128-.26-.193-.463-.193zm.105 2.3c-.374 0-.67-.113-.884-.342-.218-.226-.325-.542-.325-.946 0-.41.101-.733.301-.973.203-.24.471-.36.81-.36.315 0 .566.105.75.313.185.208.278.484.278.825v.242h-1.74c.008.296.082.523.223.676.143.154.343.23.602.23.27 0 .54-.056.805-.17v.342c-.134.057-.26.099-.383.125-.12.025-.266.037-.437.037zm-2.24-.046v-1.646c0-.201-.043-.353-.128-.452-.086-.1-.22-.15-.401-.15-.239 0-.415.067-.529.204-.112.137-.171.348-.171.633v1.411h-.381v-1.646c0-.201-.044-.353-.13-.452-.088-.1-.222-.15-.405-.15-.24 0-.415.07-.527.213-.11.145-.166.381-.166.708v1.327h-.384v-2.529h.31l.064.348h.02a.729.729 0 0 1 .305-.29.934.934 0 0 1 .441-.104c.394 0 .655.143.774.429h.02a.809.809 0 0 1 .328-.313 1 1 0 0 1 .487-.116c.286 0 .501.074.643.22.14.148.215.383.215.704v1.651h-.384zm-5.158-.27c.238 0 .423-.066.561-.196.135-.131.204-.314.204-.55v-.226l-.384.015c-.305.011-.522.057-.656.142-.135.083-.204.215-.204.39 0 .138.043.244.128.318.082.07.2.107.351.107zm.865.27-.076-.36h-.019a1.088 1.088 0 0 1-.376.323 1.213 1.213 0 0 1-.471.082c-.25 0-.448-.063-.59-.192-.14-.13-.212-.314-.212-.553 0-.51.408-.777 1.224-.801l.429-.015v-.156c0-.198-.044-.345-.129-.44-.084-.094-.222-.142-.407-.142-.21 0-.45.065-.717.194l-.116-.294a1.821 1.821 0 0 1 .854-.216c.302 0 .525.066.671.2.145.135.218.35.218.645v1.725h-.283zm-3.452-1.766h1.145v1.639a3.83 3.83 0 0 1-.545.13 4.183 4.183 0 0 1-.64.042c-.512 0-.908-.151-1.193-.453-.286-.306-.427-.73-.427-1.28 0-.35.07-.656.21-.92a1.45 1.45 0 0 1 .607-.606c.266-.137.576-.208.93-.208.361 0 .696.066 1.006.2l-.15.346a2.26 2.26 0 0 0-.88-.194c-.41 0-.732.121-.962.367-.229.244-.344.583-.344 1.016 0 .455.11.802.331 1.036.223.236.55.354.98.354.232 0 .462-.028.684-.08v-1.04h-.752M256.121 812.143c1.795 0 3.043-.902 3.74-2.7l2.59.975c-.558 1.37-1.376 2.394-2.452 3.058-1.08.668-2.371 1.005-3.878 1.005-2.285 0-4.047-.649-5.292-1.939-1.245-1.294-1.873-3.102-1.873-5.427 0-2.333.605-4.123 1.807-5.373 1.198-1.247 2.945-1.871 5.23-1.871 1.665 0 3.025.334 4.07 1 1.046.666 1.78 1.653 2.206 2.948l-2.618.714a3.067 3.067 0 0 0-1.307-1.697c-.645-.417-1.414-.63-2.291-.63-1.345 0-2.365.418-3.062 1.252-.692.83-1.042 2.05-1.042 3.657 0 1.632.359 2.877 1.075 3.739.715.858 1.75 1.29 3.097 1.29zm-10.912 2.135-1.26-3.627h-3.988l.728-2.236h2.599l-1.403-4.084-.431-1.369-.215-.694-.061.22c-.07.242-.142.523-.242.827l-3.655 10.963h-2.976l5.181-14.197h3.508l5.159 14.197h-2.944zm-14.893 0-3.296-5.39h-2.09v-2.307h2.493c.837 0 1.467-.19 1.897-.564.428-.377.644-.905.644-1.583 0-1.366-.874-2.046-2.619-2.046h-3.809v11.89h-2.973v-14.197h7.095c1.69 0 3 .364 3.92 1.094.918.727 1.38 1.775 1.38 3.139 0 .994-.282 1.85-.848 2.573-.561.723-1.325 1.198-2.285 1.428l3.838 5.963h-3.347zm-19.065-2.126c.774 0 1.523-.114 2.25-.337.727-.225 1.285-.512 1.68-.863v-1.962h-3.466v-2.199h6.186v5.221c-.752.77-1.728 1.375-2.935 1.813-1.207.436-2.47.656-3.793.656-2.312 0-4.09-.641-5.332-1.922-1.243-1.28-1.866-3.092-1.866-5.444 0-2.34.628-4.132 1.875-5.378 1.248-1.244 3.05-1.866 5.391-1.866 3.333 0 5.452 1.231 6.36 3.698l-2.742.824c-.295-.718-.761-1.262-1.389-1.633-.632-.37-1.376-.554-2.229-.554-1.396 0-2.456.422-3.183 1.268-.725.847-1.09 2.06-1.09 3.64 0 1.607.375 2.848 1.123 3.726.753.872 1.805 1.312 3.16 1.312" style="fill:#5f667f;fill-opacity:1;fill-rule:nonzero;stroke:none" transform="translate(-382.276 -1996.99) scale(2.49664)"/><path d="M153.116 799.87h40.467v26.575h-6.068v-20.893h-34.399" style="fill:#4dc3bb;fill-opacity:1;fill-rule:evenodd;stroke:none" transform="translate(-382.276 -1996.99) scale(2.49664)"/><path d="M181.449 826.445h-6.068v-9.532h-22.265v-5.68h28.333" style="fill:#8677c3;fill-opacity:1;fill-rule:evenodd;stroke:none" transform="translate(-382.276 -1996.99) scale(2.49664)"/></svg>