<?xml version="1.0" encoding="UTF-8" standalone="no"?>
<svg
   xmlns:dc="http://purl.org/dc/elements/1.1/"
   xmlns:cc="http://creativecommons.org/ns#"
   xmlns:rdf="http://www.w3.org/1999/02/22-rdf-syntax-ns#"
   xmlns:svg="http://www.w3.org/2000/svg"
   xmlns="http://www.w3.org/2000/svg"
   version="1.1"
   id="svg2"
   viewBox="0 0 272.9671 66.345434"
   height="18.724155mm"
   width="77.037384mm">
  <defs
     id="defs4" />
  <metadata
     id="metadata7">
    <rdf:RDF>
      <cc:Work
         rdf:about="">
        <dc:format>image/svg+xml</dc:format>
        <dc:type
           rdf:resource="http://purl.org/dc/dcmitype/StillImage" />
        <dc:title></dc:title>
      </cc:Work>
    </rdf:RDF>
  </metadata>
  <g
     transform="translate(-153.11633,-760.09937)"
     id="layer1">
    <g
       transform="matrix(2.4966408,0,0,2.4966408,-229.16013,-1236.8909)"
       id="g4643">
      <path
         d="m 261.40757,824.14726 c -0.205,0 -0.36625,0.0636 -0.48625,0.19737 -0.1225,0.1325 -0.1925,0.315 -0.215,0.54887 l 1.32375,0 c 0,-0.24124 -0.0538,-0.4275 -0.16125,-0.55512 -0.11,-0.12862 -0.26375,-0.19112 -0.46125,-0.19112 z m 0.1025,2.29737 c -0.37375,0 -0.66875,-0.11237 -0.88375,-0.34 -0.2175,-0.22862 -0.325,-0.54375 -0.325,-0.94862 0,-0.40763 0.1,-0.73126 0.3,-0.97138 0.2025,-0.24 0.47125,-0.35987 0.80875,-0.35987 0.3175,0 0.56875,0.10612 0.75125,0.31362 0.18625,0.20763 0.27875,0.4825 0.27875,0.825 l 0,0.24 -1.74125,0 c 0.007,0.29763 0.0813,0.52262 0.225,0.6775 0.14125,0.1525 0.34125,0.23125 0.6,0.23125 0.27125,0 0.54,-0.0574 0.80875,-0.1725 l 0,0.34388 c -0.13625,0.0575 -0.26375,0.0986 -0.38625,0.12362 -0.11875,0.0263 -0.26625,0.0375 -0.43625,0.0375 z m -2.75375,-2.29737 c -0.20375,0 -0.36375,0.0636 -0.48375,0.19737 -0.1225,0.1325 -0.1925,0.315 -0.215,0.54887 l 1.32125,0 c 0,-0.24124 -0.0538,-0.4275 -0.16125,-0.55512 -0.1075,-0.12862 -0.26125,-0.19112 -0.46125,-0.19112 z m 0.105,2.29737 c -0.37375,0 -0.67,-0.11237 -0.88375,-0.34 -0.2175,-0.22862 -0.325,-0.54375 -0.325,-0.94862 0,-0.40763 0.1,-0.73126 0.3,-0.97138 0.2,-0.24 0.46875,-0.35987 0.8075,-0.35987 0.3175,0 0.5675,0.10612 0.7525,0.31362 0.185,0.20763 0.27875,0.4825 0.27875,0.825 l 0,0.24 -1.74375,0 c 0.007,0.29763 0.0838,0.52262 0.225,0.6775 0.14375,0.1525 0.34375,0.23125 0.6025,0.23125 0.27125,0 0.54,-0.0574 0.80625,-0.1725 l 0,0.34388 c -0.1375,0.0575 -0.26375,0.0986 -0.38375,0.12362 -0.12125,0.0263 -0.26625,0.0375 -0.43625,0.0375 z m -1.92,-0.31625 c 0.0687,0 0.1325,-0.002 0.19625,-0.0137 0.0625,-0.01 0.1125,-0.0211 0.14875,-0.0312 l 0,0.29387 c -0.0412,0.0186 -0.1025,0.0349 -0.18375,0.0488 -0.08,0.0137 -0.15375,0.0186 -0.2175,0.0186 -0.4875,0 -0.73125,-0.2575 -0.73125,-0.7725 l 0,-1.50375 -0.3625,0 0,-0.18362 0.3625,-0.16001 0.16,-0.53887 0.22,0 0,0.58625 0.735,0 0,0.29625 -0.735,0 0,1.48888 c 0,0.15237 0.0375,0.26749 0.11,0.34987 0.0738,0.0813 0.17125,0.12125 0.2975,0.12125 z m -1.6675,0 c 0.0687,0 0.1325,-0.002 0.19625,-0.0137 0.0625,-0.01 0.1125,-0.0211 0.14875,-0.0312 l 0,0.29387 c -0.0412,0.0186 -0.1,0.0349 -0.18375,0.0488 -0.08,0.0137 -0.15375,0.0186 -0.21625,0.0186 -0.48875,0 -0.7325,-0.2575 -0.7325,-0.7725 l 0,-1.50375 -0.36125,0 0,-0.18362 0.36125,-0.16001 0.16,-0.53887 0.2225,0 0,0.58625 0.7325,0 0,0.29625 -0.7325,0 0,1.48888 c 0,0.15237 0.035,0.26749 0.1075,0.34987 0.0738,0.0813 0.17375,0.12125 0.2975,0.12125 z m -2.0425,-2.94112 c 0,-0.0875 0.0212,-0.1525 0.0625,-0.19388 0.0425,-0.04 0.0987,-0.0599 0.16125,-0.0599 0.0613,0 0.115,0.0199 0.16125,0.0613 0.0437,0.0425 0.0662,0.10612 0.0662,0.1925 0,0.0836 -0.0225,0.15 -0.0662,0.19125 -0.0463,0.0411 -0.1,0.0636 -0.16125,0.0636 -0.0625,0 -0.11875,-0.0225 -0.16125,-0.0636 -0.0413,-0.0412 -0.0625,-0.10763 -0.0625,-0.19125 z m 0.415,3.21112 -0.38375,0 0,-2.52625 0.38375,0 0,2.52625 z m -1.555,0 0,-1.64375 c 0,-0.20125 -0.0425,-0.35125 -0.13,-0.4525 -0.085,-0.10125 -0.22,-0.1525 -0.4,-0.1525 -0.24,0 -0.415,0.07 -0.53,0.20638 -0.1125,0.13737 -0.17125,0.3475 -0.17125,0.63124 l 0,1.41113 -0.38125,0 0,-1.64375 c 0,-0.20125 -0.0438,-0.35125 -0.12875,-0.4525 -0.0875,-0.10125 -0.2225,-0.1525 -0.405,-0.1525 -0.24,0 -0.415,0.0726 -0.5275,0.215 -0.11,0.14625 -0.16625,0.38138 -0.16625,0.70875 l 0,1.325 -0.38375,0 0,-2.52625 0.3125,0 0.0613,0.345 0.02,0 c 0.0712,-0.12237 0.17375,-0.21988 0.305,-0.28738 0.13125,-0.0701 0.27875,-0.10499 0.4425,-0.10499 0.395,0 0.65125,0.14375 0.77375,0.42862 l 0.0188,0 c 0.0762,-0.13125 0.18375,-0.235 0.3275,-0.31363 0.14375,-0.0762 0.305,-0.11499 0.48875,-0.11499 0.285,0 0.5,0.0736 0.64125,0.21987 0.145,0.14888 0.215,0.38263 0.215,0.70513 l 0,1.64862 -0.3825,0 z m -4.395,0 0,-1.64375 c 0,-0.20125 -0.0412,-0.35125 -0.13,-0.4525 -0.085,-0.10125 -0.21875,-0.1525 -0.4,-0.1525 -0.23875,0 -0.415,0.07 -0.5275,0.20638 -0.115,0.13737 -0.17,0.3475 -0.17,0.63124 l 0,1.41113 -0.38375,0 0,-1.64375 c 0,-0.20125 -0.0437,-0.35125 -0.13,-0.4525 -0.085,-0.10125 -0.21875,-0.1525 -0.4025,-0.1525 -0.23875,0 -0.415,0.0726 -0.5275,0.215 -0.1125,0.14625 -0.16875,0.38138 -0.16875,0.70875 l 0,1.325 -0.38,0 0,-2.52625 0.31,0 0.0613,0.345 0.0188,0 c 0.0712,-0.12237 0.17375,-0.21988 0.305,-0.28738 0.1325,-0.0701 0.27875,-0.10499 0.4425,-0.10499 0.395,0 0.65375,0.14375 0.77375,0.42862 l 0.02,0 c 0.075,-0.13125 0.185,-0.235 0.32625,-0.31363 0.145,-0.0762 0.30625,-0.11499 0.49125,-0.11499 0.285,0 0.4975,0.0736 0.6425,0.21987 0.14125,0.14888 0.2125,0.38263 0.2125,0.70513 l 0,1.64862 -0.38375,0 z m -5.8175,-1.26487 c 0,0.32249 0.0625,0.56862 0.195,0.73737 0.12625,0.16875 0.3175,0.25513 0.56875,0.25513 0.24875,0 0.44,-0.0864 0.56875,-0.25376 0.1325,-0.16762 0.195,-0.41512 0.195,-0.73874 0,-0.32138 -0.0625,-0.56625 -0.195,-0.73138 -0.12875,-0.16737 -0.32,-0.2525 -0.57375,-0.2525 -0.25125,0 -0.44,0.0838 -0.56875,0.2475 -0.1275,0.165 -0.19,0.41138 -0.19,0.73638 z m 1.92625,0 c 0,0.41237 -0.105,0.73362 -0.3125,0.96487 -0.2075,0.23262 -0.49375,0.34625 -0.86,0.34625 -0.22625,0 -0.4275,-0.0525 -0.6025,-0.15862 -0.17625,-0.10638 -0.31,-0.25888 -0.405,-0.45625 -0.0962,-0.19888 -0.145,-0.43138 -0.145,-0.69625 0,-0.41251 0.105,-0.73388 0.31,-0.96376 0.205,-0.23 0.49375,-0.345 0.8575,-0.345 0.35375,0 0.635,0.11751 0.8425,0.355 0.21,0.23363 0.315,0.55113 0.315,0.95376 z m -3.66,-1.80375 c -0.37125,0 -0.66375,0.12375 -0.87875,0.36987 -0.215,0.24638 -0.3225,0.58513 -0.3225,1.01388 0,0.44112 0.105,0.78362 0.31,1.0225 0.2075,0.23987 0.5025,0.36125 0.88375,0.36125 0.2375,0 0.505,-0.0425 0.80625,-0.12625 l 0,0.34375 c -0.2325,0.0874 -0.5225,0.12987 -0.865,0.12987 -0.495,0 -0.87875,-0.15 -1.15,-0.45112 -0.26875,-0.3 -0.405,-0.73001 -0.405,-1.28388 0,-0.34875 0.0662,-0.65362 0.195,-0.915 0.1325,-0.26125 0.3175,-0.4625 0.56375,-0.60362 0.245,-0.14126 0.535,-0.2125 0.8675,-0.2125 0.35125,0 0.66125,0.0661 0.925,0.19362 l -0.16625,0.33763 c -0.25375,-0.12013 -0.51,-0.18 -0.76375,-0.18 z m -3.89875,3.06862 0,-1.63375 c 0,-0.20625 -0.0487,-0.35987 -0.1425,-0.46112 -0.095,-0.10263 -0.23875,-0.15388 -0.43875,-0.15388 -0.26625,0 -0.45875,0.0726 -0.58375,0.215 -0.1225,0.14388 -0.1825,0.37888 -0.1825,0.70875 l 0,1.325 -0.38375,0 0,-2.52625 0.31,0 0.0637,0.345 0.0187,0 c 0.0763,-0.12375 0.18875,-0.22125 0.33,-0.28875 0.14125,-0.0687 0.2975,-0.10363 0.47125,-0.10363 0.305,0 0.535,0.0736 0.68875,0.21988 0.15375,0.14888 0.23125,0.38263 0.23125,0.70513 l 0,1.64862 -0.3825,0 z m -4.32875,-1.26487 c 0,0.32249 0.0662,0.56862 0.195,0.73737 0.1275,0.16875 0.3175,0.25513 0.56875,0.25513 0.25125,0 0.4425,-0.0864 0.57125,-0.25376 0.13,-0.16762 0.195,-0.41512 0.195,-0.73874 0,-0.32138 -0.065,-0.56625 -0.195,-0.73138 -0.12875,-0.16737 -0.3225,-0.2525 -0.57625,-0.2525 -0.25125,0 -0.43875,0.0838 -0.56625,0.2475 -0.12875,0.165 -0.1925,0.41138 -0.1925,0.73638 z m 1.92625,0 c 0,0.41237 -0.105,0.73362 -0.3125,0.96487 -0.205,0.23262 -0.49375,0.34625 -0.86,0.34625 -0.22375,0 -0.42625,-0.0525 -0.6025,-0.15862 -0.17375,-0.10638 -0.31,-0.25888 -0.405,-0.45625 -0.095,-0.19888 -0.1425,-0.43138 -0.1425,-0.69625 0,-0.4125 0.10375,-0.73388 0.31125,-0.96376 0.205,-0.22999 0.49,-0.34499 0.85375,-0.34499 0.35625,0 0.635,0.1175 0.845,0.35499 0.2075,0.23363 0.3125,0.55113 0.3125,0.95376 z m -3.40875,-1.94625 c 0,-0.0875 0.02,-0.1525 0.0637,-0.19388 0.0438,-0.04 0.0975,-0.0599 0.16125,-0.0599 0.0637,0 0.115,0.0199 0.15875,0.0613 0.0463,0.0425 0.0688,0.10612 0.0688,0.1925 0,0.0836 -0.0225,0.15 -0.0688,0.19125 -0.0437,0.0411 -0.095,0.0636 -0.15875,0.0636 -0.0637,0 -0.1175,-0.0225 -0.16125,-0.0636 -0.0437,-0.0412 -0.0637,-0.10763 -0.0637,-0.19125 z m 0.415,3.21112 -0.3825,0 0,-2.52625 0.3825,0 0,2.52625 z m -1.235,-0.27 c 0.0687,0 0.135,-0.002 0.1975,-0.0137 0.0637,-0.01 0.1125,-0.0211 0.14875,-0.0312 l 0,0.29388 c -0.0412,0.0186 -0.1025,0.0349 -0.1825,0.0488 -0.0812,0.0137 -0.15375,0.0186 -0.22,0.0186 -0.4875,0 -0.7325,-0.2575 -0.7325,-0.7725 l 0,-1.50375 -0.36125,0 0,-0.18362 0.36125,-0.16001 0.16125,-0.53887 0.2225,0 0,0.58625 0.7325,0 0,0.29625 -0.7325,0 0,1.48888 c 0,0.15237 0.0362,0.26749 0.11,0.34987 0.07,0.0813 0.17,0.12125 0.295,0.12125 z m -2.75375,0 c 0.23875,0 0.4275,-0.0636 0.56125,-0.195 0.1375,-0.13 0.205,-0.31375 0.205,-0.54862 l 0,-0.22875 -0.3825,0.0149 c -0.30625,0.0125 -0.525,0.0601 -0.66,0.14375 -0.13375,0.0838 -0.2025,0.215 -0.2025,0.39137 0,0.13751 0.0413,0.24363 0.1275,0.31626 0.0825,0.0713 0.2025,0.10612 0.35125,0.10612 z m 0.86375,0.27 -0.075,-0.35875 -0.0175,0 c -0.12625,0.15888 -0.25125,0.265 -0.37875,0.3225 -0.12375,0.055 -0.28,0.0825 -0.46875,0.0825 -0.24875,0 -0.44625,-0.0625 -0.5875,-0.19375 -0.1425,-0.12875 -0.215,-0.3125 -0.215,-0.55 0,-0.51112 0.4075,-0.7775 1.225,-0.8025 l 0.43,-0.0149 0,-0.15625 c 0,-0.19876 -0.0438,-0.345 -0.12875,-0.43888 -0.0862,-0.0937 -0.22,-0.14112 -0.41125,-0.14112 -0.21,0 -0.44625,0.0625 -0.715,0.19362 l -0.115,-0.29487 c 0.1225,-0.0664 0.25875,-0.12 0.40875,-0.15763 0.14875,-0.0387 0.2975,-0.0588 0.44625,-0.0588 0.3,0 0.525,0.0663 0.67125,0.20125 0.14375,0.13262 0.2175,0.34763 0.2175,0.64387 l 0,1.72363 -0.28625,0 z m -2.23375,-2.57362 c 0.1125,0 0.2125,0.0111 0.3025,0.0274 l -0.0538,0.35625 c -0.105,-0.0238 -0.195,-0.0349 -0.275,-0.0349 -0.205,0 -0.38125,0.0824 -0.525,0.24863 -0.14625,0.16625 -0.22,0.37375 -0.22,0.62125 l 0,1.355 -0.38125,0 0,-2.52625 0.315,0 0.0438,0.46875 0.02,0 c 0.0925,-0.16487 0.205,-0.2925 0.34,-0.38237 0.13125,-0.0889 0.275,-0.13375 0.43375,-0.13375 z m -2.00375,2.30362 c 0.0675,0 0.13375,-0.002 0.1975,-0.0137 0.0613,-0.01 0.1125,-0.0211 0.14875,-0.0312 l 0,0.29388 c -0.0412,0.0186 -0.1025,0.0349 -0.1825,0.0488 -0.0813,0.0137 -0.15375,0.0186 -0.22,0.0186 -0.48875,0 -0.7325,-0.2575 -0.7325,-0.7725 l 0,-1.50375 -0.36125,0 0,-0.18362 0.36125,-0.16001 0.16125,-0.53887 0.2225,0 0,0.58625 0.73125,0 0,0.29625 -0.73125,0 0,1.48888 c 0,0.15237 0.0362,0.26749 0.10625,0.34987 0.0738,0.0813 0.17375,0.12125 0.29875,0.12125 z m -1.43875,-0.41862 c 0,0.235 -0.0875,0.4175 -0.26375,0.54375 -0.175,0.12862 -0.42125,0.19112 -0.73625,0.19112 -0.3375,0 -0.59625,-0.0525 -0.78375,-0.15862 l 0,-0.355 c 0.12125,0.0611 0.25125,0.10987 0.39,0.14487 0.13875,0.0362 0.27375,0.0525 0.4,0.0525 0.20375,0 0.355,-0.03 0.4625,-0.095 0.10875,-0.0624 0.16,-0.16112 0.16,-0.29112 0,-0.0989 -0.0412,-0.18388 -0.12625,-0.25263 -0.085,-0.0699 -0.25125,-0.1525 -0.49875,-0.2475 -0.23625,-0.0886 -0.4025,-0.16362 -0.5,-0.23 -0.1,-0.0662 -0.17625,-0.13862 -0.2225,-0.2225 -0.0513,-0.0824 -0.0725,-0.18125 -0.0725,-0.29737 0,-0.20638 0.0825,-0.36888 0.25125,-0.4875 0.16875,-0.11888 0.3975,-0.18 0.68875,-0.18 0.2725,0 0.53625,0.0574 0.7975,0.16737 l -0.13625,0.31138 c -0.25375,-0.10375 -0.48375,-0.15625 -0.68875,-0.15625 -0.1825,0 -0.3175,0.0274 -0.41,0.0836 -0.0925,0.0575 -0.13875,0.13513 -0.13875,0.23512 0,0.0688 0.0163,0.12613 0.0538,0.17363 0.0337,0.0476 0.0875,0.0925 0.16625,0.135 0.075,0.0439 0.22375,0.10513 0.44125,0.18875 0.3,0.10888 0.5025,0.21888 0.6075,0.32875 0.105,0.11 0.15875,0.25 0.15875,0.41763 z m -2.85875,-2.5225 c 0,-0.0875 0.0225,-0.1525 0.0662,-0.19388 0.0413,-0.04 0.0975,-0.0599 0.16125,-0.0599 0.0613,0 0.115,0.0199 0.15875,0.0613 0.0462,0.0425 0.0687,0.10612 0.0687,0.1925 0,0.0836 -0.0225,0.15 -0.0687,0.19125 -0.0438,0.0411 -0.0975,0.0636 -0.15875,0.0636 -0.0637,0 -0.12,-0.0225 -0.16125,-0.0636 -0.0437,-0.0412 -0.0662,-0.10763 -0.0662,-0.19125 z m 0.415,3.21112 -0.38,0 0,-2.52625 0.38,0 0,2.52625 z m -1.5525,0 0,-1.63375 c 0,-0.20625 -0.0463,-0.35987 -0.13875,-0.46112 -0.095,-0.10263 -0.2425,-0.15388 -0.44,-0.15388 -0.26625,0 -0.45875,0.0726 -0.58375,0.215 -0.12125,0.14388 -0.1825,0.37888 -0.1825,0.70875 l 0,1.325 -0.38375,0 0,-2.52625 0.31,0 0.0638,0.345 0.02,0 c 0.075,-0.12375 0.1875,-0.22125 0.32875,-0.28875 0.1425,-0.0687 0.29875,-0.10363 0.47125,-0.10363 0.305,0 0.535,0.0736 0.68875,0.21988 0.15375,0.14888 0.23,0.38263 0.23,0.70513 l 0,1.64862 -0.38375,0 z m -2.95625,-3.21112 c 0,-0.0875 0.0213,-0.1525 0.0662,-0.19388 0.0413,-0.04 0.095,-0.0599 0.16,-0.0599 0.0612,0 0.1125,0.0199 0.15875,0.0613 0.045,0.0425 0.0662,0.10612 0.0662,0.1925 0,0.0836 -0.0213,0.15 -0.0662,0.19125 -0.0463,0.0411 -0.0975,0.0636 -0.15875,0.0636 -0.065,0 -0.11875,-0.0225 -0.16,-0.0636 -0.045,-0.0412 -0.0662,-0.10763 -0.0662,-0.19125 z m 0.415,3.21112 -0.38375,0 0,-2.52625 0.38375,0 0,2.52625 z m -1.555,0 0,-1.64375 c 0,-0.20125 -0.0413,-0.35125 -0.13,-0.4525 -0.085,-0.10125 -0.22,-0.1525 -0.4,-0.1525 -0.2375,0 -0.415,0.07 -0.5275,0.20638 -0.115,0.13737 -0.17125,0.3475 -0.17125,0.63124 l 0,1.41113 -0.3825,0 0,-1.64375 c 0,-0.20125 -0.0437,-0.35125 -0.13,-0.4525 -0.085,-0.10125 -0.22,-0.1525 -0.4025,-0.1525 -0.24125,0 -0.4175,0.0726 -0.5275,0.215 -0.1125,0.14625 -0.16875,0.38138 -0.16875,0.70875 l 0,1.325 -0.38,0 0,-2.52625 0.31,0 0.0625,0.345 0.0175,0 c 0.0738,-0.12237 0.17625,-0.21987 0.305,-0.28737 0.1325,-0.0701 0.27875,-0.105 0.4425,-0.105 0.395,0 0.65375,0.14375 0.77625,0.42862 l 0.0188,0 c 0.0737,-0.13125 0.18375,-0.235 0.325,-0.31362 0.14375,-0.0762 0.3075,-0.115 0.49125,-0.115 0.285,0 0.4975,0.0736 0.64125,0.21987 0.1425,0.14888 0.2125,0.38263 0.2125,0.70513 l 0,1.64862 -0.3825,0 z m -5.16125,-0.27237 c 0.26125,0 0.44875,-0.0726 0.56875,-0.215 0.1175,-0.14138 0.17625,-0.37138 0.17625,-0.68763 l 0,-0.0825 c 0,-0.3575 -0.0587,-0.61238 -0.17875,-0.765 -0.12,-0.15362 -0.31,-0.22862 -0.57125,-0.22862 -0.225,0 -0.395,0.0861 -0.515,0.26 -0.12,0.17487 -0.17875,0.42112 -0.17875,0.73862 0,0.32375 0.0588,0.56763 0.17625,0.73125 0.12,0.16625 0.2925,0.24888 0.5225,0.24888 z m 0.76625,-0.065 -0.0213,0 c -0.17625,0.25612 -0.4425,0.38362 -0.79375,0.38362 -0.33,0 -0.58875,-0.11237 -0.77125,-0.33738 -0.18375,-0.22637 -0.27625,-0.54887 -0.27625,-0.96637 0,-0.415 0.0925,-0.7375 0.27625,-0.96875 0.185,-0.23237 0.44125,-0.34737 0.77125,-0.34737 0.34375,0 0.605,0.12487 0.78875,0.375 l 0.0288,0 -0.015,-0.18251 -0.009,-0.17874 0,-1.02876 0.3825,0 0,3.58863 -0.3125,0 -0.0488,-0.33737 z m -3.07625,-1.0875 -0.39,-1.04376 c -0.0512,-0.13374 -0.105,-0.29512 -0.15875,-0.48762 -0.0325,0.14887 -0.0812,0.31138 -0.145,0.48762 l -0.3975,1.04376 1.09125,0 z m 0.5425,1.42487 -0.42,-1.07125 -1.35,0 -0.415,1.07125 -0.39875,0 1.33375,-3.385 0.32875,0 1.32875,3.385 -0.4075,0 z m 33.76625,-5.56112 c 0.26125,0 0.45,-0.0725 0.5675,-0.21388 0.11875,-0.14113 0.1775,-0.37237 0.1775,-0.6875 l 0,-0.0824 c 0,-0.35638 -0.0613,-0.61126 -0.1775,-0.76638 -0.1225,-0.1525 -0.31,-0.22875 -0.57125,-0.22875 -0.225,0 -0.39875,0.0862 -0.51625,0.26125 -0.11875,0.175 -0.18,0.42138 -0.18,0.74013 0,0.3225 0.0588,0.56625 0.1775,0.73112 0.12,0.16513 0.29375,0.24638 0.5225,0.24638 z m 0.765,-0.065 -0.02,0 c -0.1775,0.25624 -0.44125,0.38487 -0.79375,0.38487 -0.33125,0 -0.5875,-0.11238 -0.77125,-0.33875 -0.1825,-0.225 -0.27625,-0.54737 -0.27625,-0.96487 0,-0.41513 0.0937,-0.74013 0.27625,-0.96888 0.18625,-0.23125 0.4425,-0.3475 0.77125,-0.3475 0.3425,0 0.60625,0.12513 0.78875,0.37375 l 0.03,0 -0.015,-0.18125 -0.01,-0.17737 0,-1.03013 0.38125,0 0,3.59 -0.31,0 -0.0513,-0.33988 z m -2.89125,0.33987 0,-1.635 c 0,-0.2075 -0.0463,-0.36125 -0.13875,-0.4625 -0.095,-0.10112 -0.24125,-0.15112 -0.44,-0.15112 -0.26625,0 -0.45875,0.0711 -0.5825,0.21362 -0.1225,0.14375 -0.18375,0.38013 -0.18375,0.70763 l 0,1.32737 -0.38375,0 0,-2.52875 0.31125,0 0.0625,0.3475 0.02,0 c 0.075,-0.12625 0.1875,-0.22237 0.33,-0.29112 0.13875,-0.0676 0.2975,-0.10263 0.47125,-0.10263 0.305,0 0.53375,0.0737 0.6875,0.22013 0.15375,0.14737 0.23,0.38237 0.23,0.70362 l 0,1.65125 -0.38375,0 z m -3.66625,-0.27 c 0.23875,0 0.425,-0.0662 0.56125,-0.19625 0.13625,-0.13112 0.205,-0.31362 0.205,-0.55 l 0,-0.22612 -0.38375,0.0149 c -0.305,0.0114 -0.525,0.0576 -0.65875,0.1425 -0.13375,0.0825 -0.2,0.215 -0.2,0.39013 0,0.13737 0.0412,0.24375 0.12375,0.31737 0.0838,0.0712 0.20375,0.1075 0.3525,0.1075 z m 0.86375,0.27 -0.0737,-0.35987 -0.0188,0 c -0.1275,0.15875 -0.25125,0.26624 -0.37875,0.3225 -0.12375,0.0536 -0.28,0.0824 -0.46875,0.0824 -0.24875,0 -0.44625,-0.0636 -0.59125,-0.1925 -0.14125,-0.13 -0.21125,-0.31362 -0.21125,-0.5525 0,-0.50987 0.4075,-0.7775 1.225,-0.80125 l 0.43,-0.0149 0,-0.15625 c 0,-0.19751 -0.0437,-0.345 -0.13,-0.44013 -0.085,-0.0936 -0.22125,-0.14125 -0.41,-0.14125 -0.21,0 -0.44625,0.065 -0.7125,0.19375 l -0.1175,-0.29375 c 0.1225,-0.0674 0.25875,-0.12125 0.4075,-0.15875 0.14875,-0.0375 0.29875,-0.0574 0.4475,-0.0574 0.3,0 0.525,0.0661 0.67125,0.19987 0.14375,0.13513 0.2175,0.35013 0.2175,0.645 l 0,1.725 -0.28625,0 z m -5.1075,-1.71875 c 0,0.17625 0.0488,0.31013 0.14875,0.40137 0.1,0.0899 0.24,0.13613 0.4175,0.13613 0.37375,0 0.56125,-0.18112 0.56125,-0.54375 0,-0.38125 -0.19,-0.57 -0.56625,-0.57 -0.18,0 -0.31875,0.0476 -0.4175,0.14513 -0.095,0.0961 -0.14375,0.24 -0.14375,0.43112 z m -0.2075,2.14263 c 0,0.1375 0.0563,0.24125 0.17375,0.3125 0.115,0.0688 0.28,0.105 0.495,0.105 0.3225,0 0.56,-0.0476 0.71375,-0.14513 0.15625,-0.095 0.23125,-0.22375 0.23125,-0.39 0,-0.13612 -0.0412,-0.2325 -0.12625,-0.28487 -0.0837,-0.0539 -0.245,-0.0788 -0.47875,-0.0788 l -0.45625,0 c -0.17625,0 -0.31125,0.0399 -0.40625,0.12488 -0.0975,0.0825 -0.14625,0.2025 -0.14625,0.35638 z m 2.01375,-2.95263 0,0.2425 -0.46625,0.0551 c 0.0425,0.0536 0.0813,0.12487 0.115,0.21237 0.035,0.0864 0.0513,0.18388 0.0513,0.29375 0,0.24625 -0.085,0.44387 -0.25375,0.5925 -0.16875,0.14763 -0.4025,0.22125 -0.6975,0.22125 -0.0737,0 -0.1475,-0.007 -0.21,-0.0186 -0.16375,0.0861 -0.2475,0.19362 -0.2475,0.32362 0,0.0701 0.03,0.12125 0.0862,0.15375 0.0563,0.0339 0.15625,0.0512 0.2925,0.0512 l 0.44875,0 c 0.27375,0 0.48375,0.0562 0.63,0.1725 0.14625,0.115 0.2225,0.28375 0.2225,0.50388 0,0.27862 -0.115,0.49237 -0.33875,0.63862 -0.2225,0.14625 -0.5525,0.22013 -0.9825,0.22013 -0.33125,0 -0.585,-0.0626 -0.76375,-0.18388 -0.18,-0.12238 -0.27125,-0.29737 -0.27125,-0.52125 0,-0.15363 0.0513,-0.28625 0.14875,-0.4 0.0987,-0.11238 0.2375,-0.18737 0.415,-0.2275 -0.0625,-0.03 -0.11875,-0.075 -0.16,-0.13625 -0.045,-0.0625 -0.0662,-0.13375 -0.0662,-0.215 0,-0.0913 0.0212,-0.1725 0.0725,-0.24238 0.0488,-0.0687 0.1275,-0.13512 0.2325,-0.20012 -0.13,-0.0536 -0.2375,-0.14487 -0.32,-0.27375 -0.08,-0.12862 -0.1225,-0.2775 -0.1225,-0.4425 0,-0.2775 0.0838,-0.49125 0.25,-0.64125 0.165,-0.14862 0.4,-0.225 0.705,-0.225 0.1325,0 0.25125,0.0162 0.35625,0.0462 l 0.87375,0 z m -3.23625,2.52875 0,-1.635 c 0,-0.2075 -0.0488,-0.36125 -0.1425,-0.4625 -0.0925,-0.10112 -0.23875,-0.15112 -0.43875,-0.15112 -0.26375,0 -0.45875,0.0711 -0.58125,0.21362 -0.125,0.14375 -0.18625,0.38013 -0.18625,0.70763 l 0,1.32737 -0.3825,0 0,-2.52875 0.3125,0 0.0613,0.3475 0.0188,0 c 0.0787,-0.12625 0.18875,-0.22237 0.33,-0.29112 0.14125,-0.0676 0.3,-0.10263 0.47375,-0.10263 0.3025,0 0.5325,0.0737 0.68625,0.22013 0.15375,0.14737 0.23125,0.38237 0.23125,0.70362 l 0,1.65125 -0.3825,0 z m -2.9575,-3.21375 c 0,-0.0875 0.02,-0.15112 0.0637,-0.19362 0.0437,-0.0387 0.0975,-0.0601 0.16125,-0.0601 0.0613,0 0.115,0.0214 0.15875,0.0625 0.0463,0.0412 0.0688,0.10513 0.0688,0.19125 0,0.0864 -0.0225,0.15137 -0.0688,0.19388 -0.0437,0.0411 -0.0975,0.0625 -0.15875,0.0625 -0.0637,0 -0.1175,-0.0214 -0.16125,-0.0625 -0.0437,-0.0425 -0.0637,-0.1075 -0.0637,-0.19388 z m 0.415,3.21375 -0.3825,0 0,-2.52875 0.3825,0 0,2.52875 z m -1.235,-0.27 c 0.0687,0 0.135,-0.005 0.1975,-0.0163 0.0613,-0.01 0.1125,-0.02 0.14875,-0.03 l 0,0.2925 c -0.0412,0.02 -0.1025,0.0376 -0.1825,0.0487 -0.08,0.0138 -0.15375,0.02 -0.22,0.02 -0.4875,0 -0.7325,-0.2575 -0.7325,-0.77125 l 0,-1.50487 -0.36125,0 0,-0.18388 0.36125,-0.16 0.16125,-0.53862 0.2225,0 0,0.58487 0.735,0 0,0.29763 -0.735,0 0,1.48862 c 0,0.15138 0.0362,0.2675 0.1075,0.35013 0.0725,0.0813 0.17375,0.12237 0.2975,0.12237 z m -2.75375,0 c 0.23875,0 0.425,-0.0662 0.56125,-0.19625 0.1375,-0.13112 0.205,-0.31362 0.205,-0.55 l 0,-0.22612 -0.3825,0.0149 c -0.305,0.0114 -0.525,0.0576 -0.6575,0.1425 -0.13625,0.0825 -0.2025,0.215 -0.2025,0.39013 0,0.13737 0.0413,0.24375 0.125,0.31737 0.0825,0.0712 0.2,0.1075 0.35125,0.1075 z m 0.86375,0.27 -0.075,-0.35987 -0.0175,0 c -0.12625,0.15875 -0.25375,0.26624 -0.37875,0.3225 -0.12375,0.0536 -0.28,0.0824 -0.46875,0.0824 -0.25125,0 -0.44625,-0.0636 -0.5875,-0.1925 -0.14375,-0.13 -0.215,-0.31362 -0.215,-0.5525 0,-0.50987 0.4075,-0.7775 1.225,-0.80125 l 0.43,-0.0149 0,-0.15625 c 0,-0.1975 -0.0438,-0.345 -0.12875,-0.44013 -0.0862,-0.0936 -0.2225,-0.14125 -0.40875,-0.14125 -0.2125,0 -0.44875,0.065 -0.715,0.19375 l -0.12,-0.29375 c 0.125,-0.0674 0.26125,-0.12125 0.41125,-0.15875 0.14875,-0.0375 0.2975,-0.0574 0.44625,-0.0574 0.3,0 0.525,0.0661 0.66875,0.19987 0.14625,0.13513 0.22,0.35013 0.22,0.645 l 0,1.725 -0.28625,0 z m -4.0225,-1.73988 0.53625,0 c 0.27875,0 0.48125,-0.055 0.61125,-0.16512 0.12625,-0.11 0.1925,-0.27375 0.1925,-0.49375 0,-0.22362 -0.0662,-0.38362 -0.1975,-0.4825 -0.13,-0.0975 -0.3425,-0.14862 -0.6325,-0.14862 l -0.51,0 0,1.28999 z m 0,0.33738 0,1.4025 -0.39125,0 0,-3.3725 0.9225,0 c 0.415,0 0.72125,0.0788 0.91875,0.23888 0.1975,0.15737 0.295,0.39374 0.295,0.7125 0,0.44737 -0.225,0.74875 -0.67875,0.905 l 0.91625,1.51612 -0.4625,0 -0.8175,-1.4025 -0.7025,0 z m -3.365,-0.85125 c -0.2025,0 -0.36375,0.0662 -0.4825,0.19875 -0.1225,0.13263 -0.19375,0.31375 -0.2125,0.54888 l 1.32,0 c 0,-0.24263 -0.0538,-0.42625 -0.16125,-0.55513 -0.11,-0.1275 -0.26125,-0.1925 -0.46375,-0.1925 z m 0.105,2.29875 c -0.37375,0 -0.66875,-0.11238 -0.88375,-0.34125 -0.2175,-0.22612 -0.325,-0.54238 -0.325,-0.94612 0,-0.40888 0.10125,-0.7325 0.30125,-0.9725 0.2025,-0.24013 0.47125,-0.36013 0.81,-0.36013 0.315,0 0.56625,0.10513 0.75,0.3125 0.185,0.20875 0.2775,0.48388 0.2775,0.82512 l 0,0.24238 -1.74,0 c 0.008,0.29625 0.0825,0.52263 0.22375,0.67625 0.1425,0.15375 0.3425,0.23013 0.60125,0.23013 0.27125,0 0.54,-0.0564 0.805,-0.17013 l 0,0.34125 c -0.13375,0.0576 -0.26,0.0989 -0.3825,0.12513 -0.12,0.0249 -0.26625,0.0374 -0.4375,0.0374 z m -2.23875,-0.045 0,-1.64612 c 0,-0.20125 -0.0438,-0.35263 -0.12875,-0.45251 -0.0863,-0.1 -0.22,-0.14999 -0.40125,-0.14999 -0.23875,0 -0.415,0.0674 -0.52875,0.20487 -0.1125,0.13625 -0.17125,0.3475 -0.17125,0.63262 l 0,1.41113 -0.38125,0 0,-1.64612 c 0,-0.20125 -0.0437,-0.35263 -0.12875,-0.45251 -0.0888,-0.1 -0.2225,-0.14999 -0.40625,-0.14999 -0.23875,0 -0.415,0.0711 -0.52625,0.21362 -0.11,0.14513 -0.16625,0.38125 -0.16625,0.70763 l 0,1.32737 -0.38375,0 0,-2.52875 0.31,0 0.0637,0.3475 0.02,0 c 0.07,-0.12487 0.1725,-0.21987 0.305,-0.29 0.13125,-0.0688 0.2775,-0.10375 0.44125,-0.10375 0.39375,0 0.655,0.1425 0.77375,0.42875 l 0.02,0 c 0.0763,-0.13112 0.1825,-0.23487 0.3275,-0.3125 0.14125,-0.0775 0.305,-0.11625 0.4875,-0.11625 0.28625,0 0.50125,0.0737 0.6425,0.22013 0.14125,0.14737 0.215,0.38237 0.215,0.70362 l 0,1.65125 -0.38375,0 z m -5.15875,-0.27 c 0.2375,0 0.4225,-0.0662 0.56125,-0.19625 0.135,-0.13112 0.20375,-0.31362 0.20375,-0.55 l 0,-0.22612 -0.38375,0.0149 c -0.305,0.0114 -0.5225,0.0576 -0.65625,0.1425 -0.135,0.0825 -0.20375,0.215 -0.20375,0.39013 0,0.13737 0.0425,0.24375 0.1275,0.31737 0.0825,0.0712 0.2,0.1075 0.35125,0.1075 z m 0.865,0.27 -0.0762,-0.35987 -0.0188,0 c -0.1275,0.15875 -0.2525,0.26624 -0.37625,0.3225 -0.1275,0.0536 -0.28375,0.0824 -0.47125,0.0824 -0.24875,0 -0.4475,-0.0636 -0.58875,-0.1925 -0.14125,-0.13 -0.2125,-0.31362 -0.2125,-0.5525 0,-0.50987 0.4075,-0.7775 1.22375,-0.80125 l 0.42875,-0.0149 0,-0.15625 c 0,-0.1975 -0.0437,-0.345 -0.12875,-0.44013 -0.0837,-0.0936 -0.2225,-0.14125 -0.4075,-0.14125 -0.21,0 -0.45,0.065 -0.71625,0.19375 l -0.11625,-0.29375 c 0.12375,-0.0674 0.26125,-0.12125 0.4075,-0.15875 0.14875,-0.0375 0.2975,-0.0574 0.44625,-0.0574 0.3025,0 0.525,0.0661 0.67125,0.19987 0.145,0.13513 0.2175,0.35013 0.2175,0.645 l 0,1.725 -0.2825,0 z m -3.4525,-1.76612 1.145,0 0,1.63862 c -0.17875,0.0562 -0.35875,0.10013 -0.545,0.13 -0.185,0.0289 -0.3975,0.0425 -0.63875,0.0425 -0.5125,0 -0.90875,-0.15112 -1.19375,-0.45362 -0.28625,-0.30513 -0.4275,-0.73 -0.4275,-1.27876 0,-0.35012 0.07,-0.65637 0.21,-0.92012 0.14125,-0.26375 0.34375,-0.465 0.6075,-0.60625 0.26625,-0.13737 0.57625,-0.20863 0.93,-0.20863 0.36125,0 0.69625,0.0661 1.00625,0.19988 l -0.15125,0.34637 c -0.305,-0.12887 -0.59875,-0.19387 -0.87875,-0.19387 -0.41,0 -0.7325,0.12125 -0.9625,0.36638 -0.22875,0.24487 -0.34375,0.58362 -0.34375,1.01624 0,0.45501 0.11,0.80238 0.33125,1.03613 0.2225,0.23638 0.55,0.35387 0.98,0.35387 0.23125,0 0.46125,-0.0276 0.68375,-0.0801 l 0,-1.03988 -0.7525,0"
         style="fill:#5f667f;fill-opacity:1;fill-rule:nonzero;stroke:none"
         id="path4396" />
      <path
         d="m 256.12132,812.14338 c 1.795,0 3.0425,-0.90237 3.74,-2.70125 l 2.58875,0.97625 c -0.5575,1.37 -1.375,2.39388 -2.45125,3.0575 -1.08,0.66762 -2.37125,1.005 -3.8775,1.005 -2.285,0 -4.0475,-0.64862 -5.2925,-1.93862 -1.245,-1.29388 -1.8725,-3.10251 -1.8725,-5.42763 0,-2.33237 0.605,-4.12238 1.80625,-5.37238 1.19875,-1.24749 2.945,-1.87137 5.23,-1.87137 1.665,0 3.025,0.33387 4.07125,1 1.045,0.66638 1.78,1.65262 2.205,2.94763 l -2.6175,0.71487 c -0.22375,-0.71112 -0.65875,-1.27862 -1.3075,-1.69738 -0.645,-0.4175 -1.41375,-0.63012 -2.29125,-0.63012 -1.345,0 -2.365,0.41763 -3.06125,1.2525 -0.6925,0.83 -1.0425,2.04875 -1.0425,3.65625 0,1.63262 0.35875,2.8775 1.075,3.73888 0.715,0.85875 1.75,1.28987 3.0975,1.28987 z m -10.9125,2.135 -1.26,-3.62737 -3.9875,0 0.7275,-2.23625 2.59875,0 -1.4025,-4.08388 -0.43125,-1.36862 -0.215,-0.69376 -0.0613,0.21875 c -0.0687,0.24238 -0.14125,0.52376 -0.24125,0.8275 l -3.655,10.96363 -2.97625,0 5.18125,-14.19738 3.5075,0 5.15875,14.19738 -2.94375,0 z m -14.8925,0 -3.29625,-5.39 -2.09,0 0,-2.3075 2.4925,0 c 0.8375,0 1.4675,-0.19 1.8975,-0.56375 0.4275,-0.3775 0.64375,-0.905 0.64375,-1.58362 0,-1.36513 -0.87375,-2.04513 -2.61875,-2.04513 l -3.80875,0 c 0,3.96262 0,7.92625 0,11.89 l -2.97375,0 0,-14.19738 7.095,0 c 1.69125,0 3,0.36363 3.92,1.09375 0.91875,0.72738 1.38,1.77501 1.38,3.13876 0,0.99487 -0.28125,1.85112 -0.8475,2.57362 -0.56125,0.7225 -1.325,1.1975 -2.285,1.42763 l 3.8375,5.96362 -3.34625,0 z m -19.065,-2.12612 c 0.77375,0 1.5225,-0.11376 2.24875,-0.33763 0.7275,-0.225 1.28625,-0.51125 1.68125,-0.8625 l 0,-1.9625 -3.46625,0 0,-2.19862 6.18625,0 0,5.22125 c -0.7525,0.76987 -1.72875,1.37487 -2.935,1.8125 -1.2075,0.43625 -2.47,0.65612 -3.79375,0.65612 -2.31125,0 -4.08875,-0.64125 -5.33125,-1.92237 -1.24375,-1.27875 -1.86625,-3.09138 -1.86625,-5.44388 0,-2.34 0.6275,-4.13125 1.875,-5.3775 1.2475,-1.24375 3.05,-1.86625 5.39125,-1.86625 3.3325,0 5.45125,1.23125 6.36,3.69763 l -2.7425,0.82487 c -0.295,-0.71863 -0.76125,-1.2625 -1.38875,-1.63375 -0.6325,-0.36875 -1.37625,-0.55375 -2.22875,-0.55375 -1.39625,0 -2.45625,0.4225 -3.18375,1.26763 -0.725,0.84737 -1.08875,2.06125 -1.08875,3.64112 0,1.60638 0.37375,2.8475 1.1225,3.72513 0.7525,0.8725 1.805,1.3125 3.16,1.3125"
         style="fill:#5f667f;fill-opacity:1;fill-rule:nonzero;stroke:none"
         id="path4398" />
      <path
         d="m 153.11632,799.87088 40.46625,0 0,26.57375 -6.0675,0 0,-20.8925 -34.39875,0"
         style="fill:#4dc3bb;fill-opacity:1;fill-rule:evenodd;stroke:none"
         id="path4400" />
      <path
         d="m 181.44882,826.44463 -6.0675,0 0,-9.53125 -22.265,0 0,-5.68125 28.3325,0"
         style="fill:#8677c3;fill-opacity:1;fill-rule:evenodd;stroke:none"
         id="path4402" />
    </g>
  </g>
</svg>
