<?xml version="1.0" encoding="utf-8"?>
<!-- Generator: Adobe Illustrator 25.1.0, SVG Export Plug-In . SVG Version: 6.00 Build 0)  -->
<svg version="1.1" xmlns="http://www.w3.org/2000/svg" xmlns:xlink="http://www.w3.org/1999/xlink" x="0px" y="0px"
	 viewBox="0 0 749.1 496.7" style="enable-background:new 0 0 749.1 496.7;" xml:space="preserve">
<style type="text/css">
	.st0{fill:#44208d;}
	.st1{fill:#00866b;}
	.st2{fill:#60575D;}
</style>
<g id="ref">
</g>
<g id="illo">
	<g>
		<path class="st0" d="M395.2,235.2c-11.8,0.3-23.5-0.3-35.3,0c-5.3,0.2-7.5-1.1-7.3-6.8c0.1-5.4,0.7-8.7,7.4-8.3
			c9.2,0.6,18.5,0.3,27.7,0.3c15.4,0,9.1-11.9,10.3-19.4c1.3-7.9-2.6-11.6-10.6-11.5c-9.1,0.1-18.2-0.6-27.3-0.2
			c-5.2,0.2-7.5-0.8-7.6-6.6c-0.1-6.1,1.8-8,7.9-7.7c10,0.4,20.2-0.9,30.2,0.1c11,1.2,13.4-4.2,12.6-13.2
			c-0.7-8.2,4.3-19.8-11.7-19.3c-19.6,0.6-39.3,0.6-58.9,0.3c-9.3-0.1-12.6,4-12.6,12.8c0.1,32.8,0.2,65.5-0.1,98.3
			c-0.1,9.9,4.3,13.6,13.7,13.3c10.1-0.3,20.2-0.1,30.2-0.1c0,0,0-0.1,0-0.1c10.5,0,21,0,31.5,0c15.2,0,9.3-11.8,10.6-19.3
			C407.2,239.8,404.5,235,395.2,235.2z"/>
		<path class="st0" d="M502.5,232.3c-3.5-5.7-3.3-8.5,2.6-12.9c13.1-9.8,19.4-33.2,12.6-49.2c-6.6-15.5-18.1-26.8-36.5-28.2
			c-2.5-0.2-6.1,1.7-7.4-2.5c-1.7,0-3.4,0-5.1,0c-5.9,4-11.8,3.9-17.7,0c-8.4,0-16.8,0-25.3,0c-2,3.8-7.7,4-7.8,10
			c-0.3,35.7-1.2,71.3-1.6,107c0,4.9,1.1,9.9,7.7,11.3c19.6,4.2,26.8-1.5,26.6-21.5c0-3.4-0.3-6.7,0-10.1c0.2-2.9-1.8-7.5,3.5-7.7
			c3.6-0.2,7.7-2.1,10,4.2c2.9,7.7,8,14.7,12,22c8.3,14.9,23.2,20,38.6,13c4.6-2.1,4.5-5.1,2.2-9.1
			C512.2,249.8,507.8,240.8,502.5,232.3z M464.8,196.5c-6.6,0.4-13.8,2.3-13.6-9.8c0.2-10.8,3.3-14.6,14-11.8
			c7.4,0.4,18.2-3,18.7,9.8C484.3,198,473.1,196.1,464.8,196.5z"/>
		<path class="st0" d="M57.7,142.1c-5.5-0.6-11.7,1.9-16.6-2.6c-1.7,0-3.4,0-5.1,0c-4.2,4.1-8.4,2.8-12.6,0c-5.1,0-10.1,0-15.2,0
			c-4.7,3.4-8.1,7-8.1,13.7c0.2,33.9,0.1,67.7-0.2,101.6c-0.1,6.6,1.7,10.5,6.5,12.3c0-0.2,0.1-0.4,0.1-0.6c0.2,0.1,0.5,0.1,0.7,0.2
			c-0.1,0.2-0.1,0.4-0.2,0.6c0.5,0.2,1.1,0.3,1.7,0.4c0.6-0.5,1.4-0.5,2.4,0.3c0,0,0,0,0,0c0.4,0,0.7,0.1,1.1,0.1
			c17.9,0.7,19.3-0.3,19.2-18.1c0-2.9,0.4-6,0-8.8c-1.7-10.7,3.8-12.8,13-12c5.8,0.5,11.7,0.5,17.4-0.4c-0.1-0.7-0.2-1.4-0.3-2.4
			c0.8,0.9,1.7,1.5,1,2.3c4.4-0.7,8.6-1.9,12.7-3.7c17.6-8,25.4-26.7,21.2-49C93,157,78.2,144.4,57.7,142.1z M16.6,252.4
			c-0.1-1.4-0.1-1.4,3.8-1.1C18.6,251.8,17.6,252.1,16.6,252.4z M27.9,260.2c-0.2-0.1-0.4-0.2-0.5-0.3c0.3-0.5,0.5-1,0.8-1.5
			c0.2,0.2,0.5,0.3,0.7,0.5C28.5,259.3,28.2,259.7,27.9,260.2z M27.5,223.2c-0.1,0-0.3-0.5-0.3-0.5c0.6-0.3,1.1-0.7,1.7-1
			c0.1,0.4,0.3,0.7,0.4,1.1C28.7,222.9,28.1,223.1,27.5,223.2z M44.8,197.7c-7.1,0.6-13.3,0.5-13.4-11.9c-0.1-14.6,9-11,16.6-11.3
			c8-0.3,16.1,0.7,16,11.2C63.8,197.3,55.2,198.2,44.8,197.7z M65.8,210.1c0.2-1.1,0.5-2.4,0.8-3.6c1.4,0,2.8,0,4.3,0
			c0.3,1.3,0.6,2.6,1,4.7C69.7,209.5,67.7,212.6,65.8,210.1z M71.7,225.8c-0.1,0-0.7-0.4-0.6-0.5c0-0.4,0.3-0.7,0.6-1.2
			c0.4,0.4,0.8,0.7,0.8,0.8C72.3,225.3,72,225.6,71.7,225.8z M72.1,224.2c-0.7-1.1-1.4-1.8-1.3-2.1c0.4-0.7,1.1-1.3,1.8-1.9
			c0.4,0.5,1.2,1.1,1.1,1.5C73.6,222.4,72.9,223.1,72.1,224.2z M84.1,212.1c0,0-0.2-0.5-0.3-0.8c0.6-0.1,1.1-0.2,1.7-0.3
			c0.1,0.2,0.1,0.4,0.2,0.6C85.1,211.7,84.6,211.9,84.1,212.1z M87.2,207.8c-0.3,0.8-0.5,1.5-1,2.9
			C85.2,208.2,85.2,208.2,87.2,207.8z M86.8,212.5c0-0.2-0.1-0.5-0.1-0.7c0.6-0.1,1.2-0.2,1.8-0.4c0,0.2,0.1,0.5,0.1,0.7
			C87.9,212.2,87.3,212.3,86.8,212.5z M89.3,211.6c0.1-1.7,0.1-2.7,0.2-4c0.9,0.4,1.5,0.6,2.5,1C91.1,209.5,90.4,210.3,89.3,211.6z"
			/>
		<path class="st0" d="M270.7,142.1c-5.5-0.6-11.7,1.9-16.6-2.6c-1.7,0-3.4,0-5.1,0c-4.2,4.1-8.4,2.8-12.6,0c-5.1,0-10.1,0-15.2,0
			c-4.7,3.4-8.1,7-8.1,13.7c0.2,33.9,0.1,67.7-0.2,101.6c-0.1,8.7,3,12.9,12.2,13.2c17.9,0.7,19.3-0.3,19.2-18.1c0-2.9,0.4-6,0-8.8
			c-1.6-10.7,3.8-12.8,13-12c10.5,0.9,21.2,0.2,30.9-4.2c17.6-8,25.4-26.7,21.2-49C306.1,157,291.2,144.4,270.7,142.1z M274,169.7
			c-0.1,0.7-0.1,1.4-0.2,2.1c-0.3,0-0.7,0-1,0c0-0.7-0.1-1.4-0.1-2.1C273.1,169.7,273.6,169.7,274,169.7z M267.4,157.7
			c-1.2,1.2-1.7,1.8-2.3,2.4c-0.6-0.7-0.8-0.9-0.8-1.1C264.1,157.4,265,157.2,267.4,157.7z M258.4,162.1c-0.3,0.7-0.4,1.7-0.9,2.1
			c-0.8,0.5-1.9,0.6-2.8,0.8c-0.1,1-0.2,1.9-0.3,3c-2.4-2.4-2.4-2.4-0.6-5.7c1-0.2,1.9-0.5,2.8-0.5
			C257.2,161.7,257.8,162,258.4,162.1z M250.4,158.3c-0.2-0.3,0.3-1,0.4-1.5c0.9,0.3,1.7,0.7,3,1.2
			C252.1,159.6,251.1,159.4,250.4,158.3z M254.7,151.9c-0.3,2.4-0.3,2.4-7.8,3C248.6,151.1,252.2,153.2,254.7,151.9z M244.5,149.8
			c0.1-0.3,1.3-0.4,2.7-0.7c-0.7,1.5-1.1,2.4-1.4,3.2c-0.3,0-0.7,0-1,0C244.7,151.5,244.3,150.6,244.5,149.8z M232.4,151.3
			c-1.2,2.5-2.3,4.7-3.4,7c-1.8-1.4-3.1-2.5-4.9-3.9C227.4,154.5,228.2,149.5,232.4,151.3z M224.6,142.8c0.6,0.8,1,1.3,1.3,1.9
			c0.1,0.1-0.6,0.7-0.6,0.7c-0.6-0.4-1.1-0.7-1.5-1.2C223.7,144.1,224.2,143.5,224.6,142.8z M240.1,178.9c0,0-0.2-0.6-0.3-0.9
			c0.6-0.2,1.2-0.4,1.9-0.6c0.1,0.3,0.2,0.7,0.2,1C241.3,178.5,240.7,178.7,240.1,178.9z M248.6,207.1c-0.2-0.2-0.4-0.4-0.7-0.6
			c0.5-1.3,1.2-2.3,3.2-2C250.3,205.3,249.4,206.2,248.6,207.1z M257.9,197.7c-7.1,0.5-13.4,0.5-13.5-11.9c0-0.9,0-1.8,0.1-2.5
			c-0.1,0.1-0.2,0.2-0.3,0.4c-1.5-1.6-1.6-2.9,0.5-4.8c0.1,0.5,0.2,1,0.3,1.4c0.7-2.7,2-4.2,3.7-5c-1-0.5-2-1-3-1.4
			c-0.5-0.2-1.3-0.2-1.8,0.1c-1.2,0.6-2.3,1.5-3.5,2.3c-0.4-0.3-1-0.7-2-1.5c0.1,1.3,0.2,2.1,0.2,3c-1,0.4-2,0.8-3.3,1.3
			c0.3,0.8,0.5,1.5,0.6,1.9c-1,2-2,3.8-2.9,5.6c-1.7-1.2-3.5-2.4-5.6-3.9c0.1-0.3,0.4-1.1,0.6-1.9c-0.9-1.9-3.6-2.9-2.5-6
			c0.7-1.8-1.8-1.5-3-2.1c2-2.2,3.2-2.2,6.3,0c0.4-0.8,0.7-1.5,1.2-2.4c2.3,0.2,4.6,0.5,7,1.5c2.9,1.2,6.3,1.6,9.6-0.4
			c-0.5-0.7-0.9-1.3-1.5-2.1c1.1-1.1,2.2-2.3,3.4-3.6c1.3,0.8,2.4,1.6,4.6,3c-1.3,0.6-2.2,1.1-3.1,1.6c0.2,1.3,0.4,2.3,0.5,3.2
			c0.6-0.2,1.2-0.5,1.9-0.8c0.3,1-0.1,1.6-0.6,2c2.8-0.3,6.1,0.2,9.1,0.1c8-0.3,16.1,0.7,16,11.2
			C276.9,197.3,268.2,198.3,257.9,197.7z M276.2,176.3c-0.2-1.5-0.4-2.7-0.6-4.1c1.3-0.6,2.1-0.3,2.4,1.2
			C278.2,174.7,279,176.2,276.2,176.3z M300.2,166.9c-0.2-0.6-0.4-1.1-0.6-1.7c0.2-0.1,0.5-0.1,0.7-0.2c0.2,0.5,0.4,1,0.5,1.5
			C300.9,166.6,300.4,166.8,300.2,166.9z"/>
		<path class="st1" d="M181.3,174.8c-0.3-2.8-3.3-5.8-4.5-8.9c-0.1-0.2-0.2-0.4-0.3-0.5c-0.6-1.2-1.2-2.4-1.8-3.6
			c-0.1-0.2-0.2-0.4-0.3-0.5c-1-0.9-2.1-2-3.2-3.1c-0.3,0.3-0.5,0.7-0.6,1.3c-0.2-0.1-0.5-0.2-0.7-0.2c-0.3-0.8-0.7-1.6-1-2.4
			c0.3-0.1,0.6-0.2,0.8-0.2c-2-2.4-3.4-5.2-2.8-8.6c-2,0-5,0-7.5-0.4c-0.2,0-0.4,0-0.6,0c-10.9,0-28.1,0-28.1,0s-1.7,3.3-4.2,8.4
			c0.3,0.3,0.5,0.8,0.6,1.5c2,0,3.8,0,6.2,0c-0.5,0.9-0.6,1.5-0.9,1.6c-2.8,0.4-5.7,0.9-8.4,1.8c-2.1,4.1-4.4,8.8-6.9,13.7
			c0.1,0.3,0.1,0.7,0.2,1c-0.2,0-0.4-0.1-0.7-0.1c-4.4,8.8-9.1,18-12.6,25c-0.3,0.7-0.7,1.4-1,2C100,209,99,216,98.4,222.8
			c0,0.8,0,1.6,0,2.4c0,8.9,0,20.7,0,29.3c0,0.2,0,0.4,0,0.5c-1.4,11,6.6,10,15.3,11c0.2,0,0.5,0,0.7,0c9.2,0,18.9,0,18.9,0l16.1-23
			l15.6,23c0,0,11.3,0,21.1,0c0.2,0,0.5,0,0.7,0c4.2,0.9,8.2-3.1,12.6-0.5c0,0,0-0.1,0-0.2c0.6-3.3,0.6-7.3,0.6-10.5
			c0-0.2,0-0.4,0-0.6c0-15.9,0-42.1,0-42.1s-9.7-19.2-18.4-36.7C181.5,175.2,181.4,175,181.3,174.8z M170.6,172c1.3,0.5,1,1.5,0,3.4
			c-0.8-1.4-1.2-2.1-1.6-2.8C169.5,172.3,170.2,171.8,170.6,172z M167.4,167.5c0.4,0,0.8,0,1.1,0c-0.1,0.9-0.1,1.8-0.2,3.1
			C166.6,169.5,166.6,168.5,167.4,167.5z M160.9,154.7c0.1,0.3,0.2,0.6,0.3,1c-0.7,0.1-1.3,0.3-2,0.4c0,0-0.2-0.6-0.2-0.6
			C159.6,155.2,160.2,154.9,160.9,154.7z M140.7,152c0.3,0.2,0.5,0.5,0.8,0.7c-0.6,0.6-1.2,1.2-1.8,1.8c-0.2-0.2-0.4-0.3-0.6-0.5
			C139.7,153.4,140.2,152.7,140.7,152z M129.6,178.9c0.7,1.6,1.3,2.8,1.9,4.1c-0.2,0.2-0.4,0.4-0.7,0.6c-1-0.7-2-1.4-3.2-2.2
			C128.3,180.5,128.8,179.9,129.6,178.9z M119.3,171.9c-0.2-0.3,0.5-1.1,0.7-1.7c0.2,0.1,0.5,0.1,0.7,0.2c0.2,0.9,0.5,1.7,1,3.4
			C120.5,172.8,119.7,172.5,119.3,171.9z M158.1,209.1c-1.8-0.4-1.5-2.4-1.7-4c1.6,0.3,2.8,0.5,4.3,0.8
			C160,207.4,160.1,209.5,158.1,209.1z M121.4,243.2h-0.2v-25.7c0,0,11.4-22.7,18.4-36.5c0.1-0.2,0.2-0.4,0.3-0.5
			C142,172,146,168,154,170c0,0,0,1,0.3,2.1c0.1,0.3,0.3,0.5,0.4,0.8c2.2,4.4,6.6,13.2,6.6,13.2L121.4,243.2z M177.2,243.2
			L177.2,243.2c-0.1,0-2.7-3.9-5.7-8.3c-0.1-0.2-0.3-0.4-0.4-0.6c-0.8-1.2-2.1-2.5-3.4-3.9c-0.1-0.1-0.2-0.2-0.4-0.4
			c-4.3-3.1-5.3-7.1-1-11.1c0.1-0.1,0.2-0.3,0.3-0.4c2.8-4,6.5-9.2,6.5-9.2l4.1,8.2V243.2z M183.4,204.3c0.3,0.7,0.8,1.3,0.6,1.5
			c-0.3,0.5-0.8,0.9-1.3,1.1c-0.2,0.1-1-0.8-0.9-0.8C182.2,205.5,182.7,205.1,183.4,204.3z"/>
	</g>
	<path class="st0" d="M312.3,98.2c-10.6,3.3-22.2,3-27.6-7.8c-7.2-14.4-6.2-30.5,1-44.9c6.1-12.3,18.2-9.5,29-7.6
		c5.7,1,8.4-0.6,9.3-6c-0.3,0.1-0.7,0.3-1,0.4c-0.1,0-0.4-0.8-0.6-1.2c0.6-0.3,1.2-0.5,1.8-0.8c0-0.1,0-0.1,0-0.2
		c1.6-20,0.8-22-15.5-28.7c-6.7,0-13.5,0-20.2,0c-0.4,2.9-2.8,2.5-4.7,3.1c-20.5,6-32.3,19.6-36.5,40.5c-1.1,5.2-1.4,10.4-1.5,15.7
		c0,0.3,0,0.6,0,0.9c0.1,5.4,0.1,10.4-0.2,15.7c0,0.3,0,0.6,0,0.9c-0.1,26.1,17.7,53.3,49.2,53.8c-0.2-0.3-0.4-0.6-0.6-0.9
		c1.1-1.1,2.2-2.3,3.4-3.6c1.3,0.8,2.4,1.6,4.6,3c-1.1,0.5-1.9,0.9-2.7,1.4c1.7-0.1,3.4-0.3,5.1-0.5c20.7-3.1,20.6-1.9,21.4-23.2
		C326.2,96.7,322.2,95.1,312.3,98.2z M252,73.9c-0.1-0.3-0.2-0.5-0.4-0.8c0.6-0.2,1.2-0.5,1.8-0.7c0.1,0.3,0.3,0.6,0.4,0.9
		C253.2,73.5,252.6,73.7,252,73.9z M253.3,33.4c-0.1,0-0.8-0.8-0.7-1c0.3-0.5,0.7-0.9,1.2-1.1c0.2-0.1,0.7,0.4,1.4,0.9
		C254.4,32.7,253.9,33.1,253.3,33.4z M258.9,105c-0.5,0.1-1.1-0.1-1.6-0.2c0.3-0.6,0.6-1.3,1.1-1.6c0.4-0.3,1.1,0,1.7,0.1
		c0.1,0.3,0.1,0.5,0.2,0.8C259.8,104.4,259.4,104.8,258.9,105z M272.6,106.2c-0.1-0.1,0.4-0.7,0.8-1.4c0.6,0.8,1,1.3,1.3,1.9
		c0.1,0.1-0.6,0.7-0.6,0.7C273.6,107,273,106.7,272.6,106.2z M277.9,120.4c-1.8-1.4-3.1-2.5-4.9-3.9c3.3,0.1,4.1-5,8.3-3.1
		C280.1,115.8,279,118,277.9,120.4z M293.6,114.4c-0.1-0.9-0.4-1.8-0.2-2.5c0.1-0.3,1.3-0.4,2.7-0.7c-0.7,1.5-1.1,2.4-1.4,3.2
		C294.3,114.3,294,114.3,293.6,114.4z M295.7,116.9c1.8-3.8,5.3-1.7,7.8-3C303.2,116.2,303.2,116.2,295.7,116.9z M299.3,120.3
		c-0.2-0.3,0.3-1,0.4-1.5c0.9,0.3,1.7,0.7,3,1.2C300.9,121.6,300,121.4,299.3,120.3z M306.3,126.2c-0.8,0.5-1.9,0.6-2.8,0.8
		c-0.1,1-0.2,1.9-0.3,3c-2.4-2.4-2.4-2.4-0.6-5.7c1-0.2,1.9-0.5,2.8-0.5c0.6,0,1.2,0.2,1.9,0.3C307,124.8,306.9,125.8,306.3,126.2z
		 M314,122.1c-0.6-0.7-0.8-0.9-0.8-1.1c-0.2-1.7,0.7-1.9,3.1-1.3C315.1,120.9,314.6,121.5,314,122.1z"/>
	<path class="st0" d="M435,116.8c-9.4-17.7-18.5-35.6-28.7-52.9c-3.7-6.3-2.8-10.3,1.3-15.4c8.4-10.5,16.7-21,24.4-32
		C437.9,8,435.7,5,425.6,4c-17.7-1.8-32.2,1.6-40.2,19.9c-2.4,5.6-7.3,10.1-13.3,18.1c0-8.8,0-13.7,0-18.7c0-17.8-3-20.3-20.5-18.5
		c-9.2,0.9-13.9,4.6-12.7,14.4c0.6,4.6,0.2,9.2,0.2,13.9c0.1,28.9-0.2,57.8,2.5,86.6c0.5,5,0.6,8.8,6.7,10.2
		c19.4,4.5,25.5-0.4,24.6-20.1c-0.4-9.1-1.7-18.5,8.2-24.4c4.6,8.4,9.3,16.8,13.6,25.4c9.9,19.8,10.8,20.4,32.9,19.2
		C438.7,129.3,440.3,126.6,435,116.8z M349.1,128.9c-0.2-0.6-0.4-1.1-0.6-1.7c0.2-0.1,0.5-0.1,0.7-0.2c0.2,0.5,0.4,1,0.5,1.5
		C349.7,128.6,349.3,128.8,349.1,128.9z"/>
	<path class="st0" d="M88.6,79.9c4-3,7.3-7.2,9.9-12.1c0.2-0.3,0.3-0.6,0.4-0.9c0-1.9,1-2.9,1.6-3.6c0.1-0.3,0.2-0.6,0.4-0.9
		c3.8-10.3,4.4-22.3,0.4-31.7C94.6,15.2,83.1,3.9,64.7,2.5c-2.5-0.2-6.1,1.7-7.4-2.5c-1.7,0-3.4,0-5.1,0c-1.4,0.9-2.7,1.6-4.1,2.1
		c0.3,0.2,0.5,0.6,0.6,1.3c0.3,1.3,1,2.8-1.7,2.9c-0.2-1.3-0.4-2.5-0.6-3.7c-4,0.9-7.9,0-11.9-2.6c-4.5,0-9,0-13.6,0
		c0,0-0.1,0-0.1,0.1c0.2,1.3,0.4,2.3,0.5,3.2C22,3,22.6,2.8,23.4,2.5c0.6,2.3-1.8,2.1-2.5,3.4c-1.4-0.7-2.8-1.4-4.3-2
		c-0.5-0.2-1.3-0.2-1.8,0.1c-1.2,0.6-2.3,1.5-3.5,2.3c-0.4-0.3-1-0.7-2-1.5c0.1,1.3,0.2,2.1,0.2,3c-1,0.4-2,0.8-3.3,1.3
		c0.3,0.8,0.5,1.5,0.6,1.9c-1,2-2,3.8-2.9,5.6c-0.8-0.6-1.7-1.2-2.6-1.8C1.1,48.8,0.3,82.9,0,117c-0.1,4.9,1.1,9.9,7.7,11.3
		c19.6,4.2,26.8-1.5,26.6-21.5c0-3.4-0.3-6.7,0-10.1c0.2-2.9-1.8-7.5,3.5-7.7c3.6-0.2,7.7-2.1,10,4.2c2.9,7.7,8,14.7,12,22
		c8.3,14.9,23.2,20,38.6,13c4.6-2.1,4.5-5.1,2.2-9.1c-5-8.7-9.5-17.7-14.8-26.2C82.4,87.2,82.6,84.4,88.6,79.9z M11,8.9
		c0,0-0.2-0.6-0.3-0.9c0.6-0.2,1.2-0.4,1.9-0.6c0.1,0.3,0.2,0.7,0.2,1C12.2,8.5,11.6,8.7,11,8.9z M15,13.7c-1.5-1.6-1.6-2.9,0.5-4.8
		C16,10.9,16.5,12.3,15,13.7z M19.5,37.1c-0.2-0.2-0.4-0.4-0.7-0.6c0.5-1.3,1.2-2.3,3.2-2C21.1,35.3,20.3,36.2,19.5,37.1z
		 M21.3,11.7c-0.9-2-1.2-3,0.2-3.4c0.4-0.1,1,0.4,1.5,0.6C22.6,9.7,22.1,10.5,21.3,11.7z M26.5,27.4c-0.4-0.7-0.9-1.1-0.9-1.4
		c0.1-0.4,0.5-0.9,0.9-1c0.2-0.1,1,0.5,1,0.6C27.4,26.1,27,26.5,26.5,27.4z M29.4,11.9c-0.6-2.9-2.8-2.7-4.9-3
		c1.5-1.3,2.8-2.4,4-3.5C28.3,7.3,32.6,8.5,29.4,11.9z M32.6,9.6c1.9-1,2.8,0.4,3.9,1c0.2,0.1,0,1.6-0.4,1.8
		c-0.8,0.4-1.4,0.2-0.9-1.1C35.3,11.2,33.7,10.3,32.6,9.6z M48.2,57c-6.6,0.4-13.7,2.1-13.6-9.9c0.1-11.1,3.9-13.9,13.9-12
		c7.6,0.6,18.5-2.8,18.8,10.1C67.7,58.5,56.5,56.6,48.2,57z"/>
	<path class="st2" d="M17.6,1.3C17.3,0.9,17,0.4,16.7,0c-2.4,0-4.9,0-7.3,0C9,0.7,8.5,1.2,8,1.7c0,0,0,0,0,0
		C10.9,3,14.3,3.3,17.6,1.3z"/>
	<path class="st1" d="M110.1,60.6c-4.9,7.4-2.9,13.4,0.8,19.1c0.1,0.2,0.2,0.3,0.3,0.5c2.5,4.6,5.7,10.2,8.9,15.9
		c0.1,0.2,0.2,0.4,0.3,0.6c1.1,1.3,2.2,2.6,3.1,3.9c1.6-0.7,2.9-1.3,4.3-1.9c0,0,0-0.1,0.1-0.1c-0.7-0.4-1.3-0.8-1.9-1.2
		c1.7-0.5,3.4-1.3,5.8,0.6c-1.8,0.3-2.9,0.4-3.9,0.6l0.1,0.1c-0.1,0-0.1,0-0.2,0.1c-0.6,1.7-1.3,3.3-2.1,5.3c2,3.4,3.5,7,4.9,10.9
		c0.1,0.2,0.2,0.3,0.3,0.5c4.3,7.8,7.5,13.4,7.5,13.4s21.6,0,40.3,0c-0.1-0.4-0.2-0.7-0.3-1.1c0.8,0,1.8,0,2.8,0c0,0.4,0,0.7,0,1.1
		c3.6,0,7,0,10.1,0c0.2,0,0.4,0,0.6,0c10.4,3.2,16.4-2.8,19.9-11.8c0.1-0.2,0.2-0.4,0.3-0.5c6.1-10.9,14.8-26.5,20.5-36.8
		c0.2-0.3,0.3-0.6,0.5-0.9c5.2-6.9,5.2-11.9-0.2-19.3c-0.2-0.3-0.3-0.6-0.5-0.9c-3.5-6.4-8.2-14.8-12.7-22.9
		c-0.5-0.8-0.9-1.7-1.4-2.5c-3-5.2-6-10.2-8.6-15.6c-0.3-0.6-0.7-1.2-1-1.7c-2.1-3.8-3.4-6.2-3.4-6.2s-4.4,0-11,0
		c-0.2,0-0.4,0-0.6,0c-10.4,3.3-17.4,2.3-27.8,0c-0.2,0-0.5,0-0.7,0c-0.2,0-0.3,0-0.5,0c-0.2,0-0.3,0-0.5,0c-3.6,1.5-6.9,1.9-10,1.8
		c-0.3,0-0.6,0-0.9-0.1c-5-0.4-10-3.4-15.3-2.3c0,0,0,0.1-0.1,0.2c-1.6,0.7-1.6,3.7-3.3,6c-0.1,0.3-0.2,0.5-0.3,0.8
		c-0.5,1.1-0.9,2.2-1.3,3.4c-0.4,0.7-0.7,1.3-1.1,2c-2.7,4.9-6,10.8-9.3,16.8c-0.2,0.3-0.3,0.6-0.5,0.9c-2.7,4.8-3.7,10.8-7.6,14.6
		c-0.2,0.3-0.3,0.5-0.5,0.8c-0.8,1.3-1.6,2.5-2.5,3.7c-0.1,0.2-0.3,0.5-0.4,0.7c-0.1,0.2-0.3,0.5-0.4,0.7
		C110.4,60,110.2,60.3,110.1,60.6z M166.3,106.9c-1.6-1-2.8-1.7-4.2-2.5c1.6-0.8,3.2-1,4.5,0.3C166.8,105.1,166.4,106.1,166.3,106.9
		z M183.4,115.4c1.3,0.2,2.3,0.6,2.5,1.3c0.6,1.6,1,3.3,1.2,5c0.1,0.4-1,0.9-2.1,1.9C184.3,120.3,183.8,117.8,183.4,115.4z
		 M172.6,105.4c-1.4,0.7-2.4,0.7-3.3,0c-1.6,0-2.6,0-2.6,0l1.2-1.9c0-0.1-0.1-0.1-0.1-0.2c0.1,0,0.2,0,0.2-0.1l22-33.8l-23.5-36.3
		h24.8c0,0,1.6,2.9,3.9,7.1c0.1,0.2,0.2,0.3,0.3,0.5c1.1,1.9,2.2,3.9,3.2,6.1c0.1,0.3,0.3,0.5,0.4,0.8c1.8,7.1,5.6,12,9.8,17.7
		c0.2,0.2,0.4,0.5,0.6,0.8c0.5,0.9,1.5,1.9,1.5,3.8c0,0-0.1,0.1-0.2,0.3c-2.8,4.9-4.8,8.9-7.5,13.6c-0.1,0.2-0.2,0.4-0.3,0.6
		c-1.8,3.2-3.6,6.5-5.3,9.6c-0.1,0.3-0.3,0.5-0.4,0.8c-2.8,5.5-6.2,10.8-12,11c0.1,0.9-0.8,1.4-3,2.8c0.3-1.1,0.6-2.1,0.8-2.9
		c-0.2,0-0.4,0-0.5-0.1c-0.2,0-0.4,0-0.6,0C178.9,105.4,175.4,105.4,172.6,105.4z M170,107.4c-0.2,1.5-0.6,2.9-3.1,2.3
		C168.2,108.7,169.1,108,170,107.4z M161.8,119.5c2.4,0,4.2,0,6.2,0c0.5-3.1,3-1.5,4.6-1.8c0.8,2,1.4,3.8,2.1,5.7
		c-0.9,0.3-1.2,0.5-1.3,0.5c-3.4-1.6-7.1-2.2-10.7-2.8C162.4,121,162.3,120.3,161.8,119.5z M156.2,105.1c-0.6-2.1,0.7-3.1,1.9-4.2
		c0.7,1.5,1.2,2.7,1.9,4.2C158.6,105.1,157.5,105.1,156.2,105.1z M153.7,114.7c0.3-0.2,0.5-0.5,0.8-0.7c0.5,0.7,1,1.3,1.5,2
		c-0.2,0.2-0.4,0.3-0.6,0.5C154.9,115.9,154.3,115.3,153.7,114.7z M152.9,107c1.4,0.7,2.9,0.1,3.3,2.1
		C154.8,109.1,153.1,110.2,152.9,107z M151.1,104c0.5-1.7,0.9-3,1.5-5.1C153.9,101.9,153.8,102.2,151.1,104z M138.5,100
		c0.5-1.2,1.5-2.3,2.3-3.3c0.2-0.2,0.8,0,1.1,0c-0.4,2.1-0.7,4-1.1,6.2C138.4,101.9,137.9,101.4,138.5,100z M134.1,117.7
		c0.1-0.3,0.2-0.6,0.3-1c0.6,0.2,1.3,0.5,1.9,0.7c0,0-0.2,0.6-0.2,0.6C135.4,118,134.8,117.8,134.1,117.7z M134.2,107
		c0.7,0.4,1.3,0.7,2.6,1.3C134.4,108.7,134.4,108.7,134.2,107z M132,69.4l14-25.2c0,0,5.5,8.4,10.1,15.6c0.1,0.2,0.2,0.4,0.4,0.6
		c1.8,2.7,3.8,5.7,6.3,9.1c0,0-0.1,0.1-0.2,0.3c-2.3,4.3-4.3,7.3-7.3,10.5c-0.1,0.2-0.3,0.4-0.4,0.6c-3.7,3.2-4.7,10.2-9.7,13.2
		c0-1,0-2-0.7-2.1c-0.1-0.3-0.3-0.6-0.5-0.9C140.2,84.1,132,69.4,132,69.4z"/>
	<g>
		<path class="st0" d="M722.4,282.6c-10.3,1.4-5.7,11.1-6.2,17.5c-1.2,14,1.3,28.2-1.5,42.2c-1-0.4-2.6-0.6-2.7-1.2
			c-4.6-16.1-12.5-30.9-19-46.3c-5.7-13.5-17-16.6-30.5-10.1c-5.3,2.5-10.5,2.2-10.5,10.5c-0.2,33.1-0.8,66.1-1.8,99.2
			c-0.3,12.3,7.4,11.9,15.8,11.8c8.1-0.1,16.4,1.3,16-11.4c-0.3-8.3-0.3-16.7-0.3-25c-0.2,0.2-0.4,0.5-0.7,0.7
			c-0.7,0.7-1.3,1.4-2,2.1c-0.1-0.1-0.2-0.2-0.4-0.3c0.9-2.1,1.9-4.1,2.9-6.4c0,0,0.1,0.1,0.1,0.1c0-6.4,0.1-12.9,0.1-19.3
			c3.5,0.5,3.8,2.6,4.4,4.7c4.5,15.6,9.2,31.2,15.9,46.1c1.5,3.3,2.4,7,6.7,8.4c23.5,7.7,36.3-1,37.2-25.6
			c0.2-5.9-0.1-11.8,0.6-17.6c0.4-3.3-2.4-7.7,2.5-9.9c0-20.2,0-40.4,0-60.6C743.9,278.7,732.1,281.3,722.4,282.6z M667.8,372.9
			c-0.8,0-2.1-0.1-3.3-0.2c-0.1-3,0-3,2.2-2.5c1.1,0.3,2.3,0.5,3.6,0.7c0.2,1.8,0.3,3.5,0.5,5.3
			C668.8,375.9,669.2,373.9,667.8,372.9z M675.2,380c-1.2-2-1.2-2,1.2-3.2C677.3,378.4,676.7,379.3,675.2,380z M677.3,385.8
			c-1-1.6-0.4-3,0.7-4.5C679.9,384.3,679.9,384.3,677.3,385.8z M680,367c-0.2,0.5-0.6,0.9-1.2,1.9c-1.5-2.2-2.8-4-4.3-6
			c0.2-0.7,0.6-1.8,0.9-2.9c2.4,1.1,2.7,1.9,2.4,5.5c0.9,0,1.5,0,2.3,0C680.1,366.1,680.2,366.6,680,367z M703.7,391
			c-0.1-0.2-0.2-0.4-0.3-0.7c0.5-0.2,1.1-0.5,1.6-0.7c0.1,0.2,0.2,0.5,0.3,0.7C704.8,390.5,704.3,390.8,703.7,391z M712.3,400.4
			c-0.5,0.3-1.4,0.2-1.9-0.2c-0.9-0.6-1.7-1.4-2.7-2.3c1.4-0.9,2.6-1.6,4.1-2.6c0.3,1.4,0.7,2.3,0.8,3.3
			C712.7,399.2,712.6,400.2,712.3,400.4z M714.5,345.5c0.1-0.7,0.2-1.3,0.3-2c0.1,0.7,0.2,1.4,0.3,2.1
			C714.8,345.5,714.5,345.5,714.5,345.5z M717.9,401.4c-0.2,0-0.4-0.1-0.6-0.1c0.1-0.6,0.3-1.2,0.4-1.9c0.2,0.1,0.5,0.1,0.7,0.2
			C718.2,400.2,718.1,400.8,717.9,401.4z M720.3,407.4c-0.3-1.9-0.3-1.9,1.8-1.7C721.4,406.4,720.9,406.9,720.3,407.4z M721.1,403.5
			c-0.6-0.2-1.2-0.3-1.6-0.6c-0.3-0.3-0.5-1.1-0.3-1.4c0.7-1.1,1.7-1.6,3.1-0.5C722,401.7,721.6,402.5,721.1,403.5z M727.7,385.4
			c-0.1-1.4-0.1-1.4,3.8-1.1C729.7,384.8,728.7,385.1,727.7,385.4z M739,393.2c-0.2-0.1-0.4-0.2-0.5-0.3c0.3-0.5,0.5-1,0.8-1.5
			c0.2,0.2,0.5,0.3,0.7,0.5C739.7,392.3,739.3,392.7,739,393.2z M738.6,356.2c-0.1,0-0.3-0.5-0.3-0.5c0.6-0.3,1.1-0.7,1.7-1
			c0.1,0.4,0.3,0.7,0.4,1.1C739.9,355.9,739.3,356.1,738.6,356.2z"/>
		<path class="st0" d="M625.4,279.5c-6.7,0-13.5,0-20.2,0c-4.4,5-4.8,11.1-4.7,17.4c0.3,20.6,0.6,41.1,0.4,61.7
			c-0.1,12.4-5.5,17.5-16.4,17.1c-11.3-0.4-15-7.3-15-17.6c-0.1-20.1-0.1-40.3-0.7-60.4c-0.3-9.8-3.5-14.9-11.6-18.3
			c-4.2,0-8.4,0-12.6,0c-8.2,3-10.1,9.1-9.7,17.4c1,23.1,1.3,46.2,2.1,69.3c0.8,23.9,12.4,37.6,35.6,41.5c10.4,1.7,21,1.6,31.4-0.2
			c17.1-3,28-15.4,29.4-32.9c2.1-26,1.9-52,2.1-78C635.4,288.5,633.5,282.4,625.4,279.5z"/>
		<path class="st0" d="M68.9,334.4c-1-0.5-2-1-2.9-1.4c-0.4,0.1-0.9,0.2-1.3,0.3c-0.1,0-0.3-0.5-0.3-0.5c0.1-0.1,0.3-0.2,0.4-0.2
			c-6.4-2.7-13.1-4-19.6-6c-2.1-0.6-5.4-1.2-5.3-4.5c0.1-3.8,3.2-4.4,6.2-4.7c8.9-1.1,17.5,0.1,26,2.7c1.7,1.6,3.5,4.4,5.1-0.1
			c1.4-0.3,2.7-0.6,2.6-2.5c0.6-0.3,1.8-0.4,1.8-0.8c0.2-1.5-0.9-1.6-2-1.3c0,0-0.4-0.2-0.4-0.2c-0.1-3.5,1.5-7-0.4-10.4
			c3.8-16.1-8.2-20.3-19.2-25.2c-8.4,0-16.8,0-25.3,0c-0.5,0.6-0.9,1.6-1.5,1.8c-19.9,5.8-30.2,18.3-30.8,37.5
			c-0.3,10,1.4,18,5.5,24.4c0-0.1,0.1-0.1,0.1-0.2c0.7,0.8,1.3,1.4,1.8,2.1c-0.1,0.1-0.2,0.2-0.4,0.4c4.8,6.3,12.2,10.9,22.6,14.2
			c4.8,1.5,9.7,2.5,14.5,3.8c3.3,0.9,7.4,2.2,7.2,5.9c-0.2,3.4-4,5.2-7.6,5.6c-2.4,0.2-4.8,0.4-7.2,0.5c0,0.1,0,0.2,0.1,0.3
			c0.1,0.6,0,1.6-0.4,1.7c-0.5,0.3-1.4,0.2-1.9-0.2c-0.8-0.5-1.5-1.2-2.3-1.9c-3.4-0.1-6.8-0.6-10.1-1.4c-0.1,0.2-0.3,0.4-0.4,0.6
			c-0.2-0.2-0.4-0.4-0.7-0.6c0.1-0.1,0.1-0.1,0.2-0.2c-4.2-1.1-8.3-2.9-12.2-5.7c-5.9-4.1-9.4-3.3-9.9,4.2c-0.4,5.5-0.6,11-0.7,16.4
			c0.5,0.3,0.8,0.9,1.1,1.8c-0.5,0-0.8,0-1.2,0c-0.1,1.9-0.1,3.8-0.1,5.7c-0.2,7.3,3.1,11.6,10.7,12.8c15.3,2.4,30.6,3.1,45.8,0.5
			c0.2-0.1,0.4-0.2,0.6-0.3c0,0.1,0,0.1,0,0.2c0.8-0.1,1.6-0.3,2.4-0.5c1.1-0.2,2.2-0.5,3.2-0.7c-0.4-1-0.5-2.1-0.3-3.2
			c0.5,0.8,0.9,1.5,1.3,2.1c1.4-0.1,2.1-0.2,2.7,0c0.9-0.3,1.7-0.6,2.5-1c-0.7-0.1-1.3-0.1-2-0.2c0-0.8,0-1.5,0-2.7
			c-0.8,1-1.4,1.7-1.9,2.4c-2.1-0.4-2.5-1.8-2.3-3.7c-3.1,0.9-2.6,4-3.9,6c-0.8,0-1.6,0-2.8,0c1-2.1-1.8-3.9,0.2-6.2
			c-1-0.5-1.7-1.1-2.4-1.1c-3.6,0-3.6,0.1-6.1-1.1c0-0.3-0.1-0.7-0.1-1c0-0.3,0.1-0.7,0.2-1.4c1,0.5,1.8,0.9,2.7,1.3
			c1-0.5-0.2-3,2.2-2.3c0.1,0.6,0.1,1.3,0.2,1.9c1.7,0.5,3.4,1,5,1.5c0.5-0.8,0.9-1.4,1.3-2c0.2,0,0.4,0.1,0.6,0.1c0,1,0,2,0,3.1
			c1.5-1.4,1.5-1.4,0.5-4c1.3-0.4,2.4-0.8,3.9-1.3c0.5,0.2,1.4,0.6,2.5,1.1c-0.1,1.4-0.2,2.9-0.2,4.5c1.4,1.3,3,2.7,4.5,4.1
			c0.8-0.4,1.6-0.8,2.3-1.2c-0.4-0.5-0.5-1.3-0.5-1.9c0-0.3,0.9-0.9,1.3-0.8c0.9,0.1,1.8,0.3,2.7,0.5c0.4-0.3,0.8-0.6,1.2-0.9
			c-0.4-0.1-0.7-0.2-1.1-0.3c0.4-0.9,0.6-1.6,1-2.4c0.5,0.6,0.9,1.1,1.4,1.6c3.9-3.5,6.7-7.9,8.5-13.1c-0.7,0.2-1.4,0.4-2.1,0.3
			c-0.4,0-0.7-1-1.1-1.5c0.4-0.2,1-0.8,1.3-0.7c1.1,0.5,0.8-0.4,1-0.8c0.4-0.7,1-1.3,1.7-2.1c0.1,0.2,0.2,0.4,0.4,0.7
			c0.3-1.3,0.6-2.6,0.7-4C92.5,357.5,85.5,343.3,68.9,334.4z M38,397.9c-0.5-0.4-1-0.9-1.6-1.3c0.2-0.2,0.4-0.5,0.6-0.7
			c0.6,0.1,1.3,0.1,2.3,0.2C38.7,396.9,38.3,397.4,38,397.9z M42.7,394c-0.6,0.8-0.6,0.7-2.5,1c0.9-0.8,1.5-1.3,2.3-1.9
			C42.6,393.6,42.8,393.9,42.7,394z M43.9,378.4c-0.2,0-0.4-0.1-0.6-0.1c0.1-0.6,0.3-1.2,0.4-1.9c0.2,0.1,0.5,0.1,0.7,0.2
			C44.2,377.2,44.1,377.8,43.9,378.4z M46.3,384.4c-0.3-1.9-0.3-1.9,1.8-1.7C47.4,383.4,46.9,383.9,46.3,384.4z M47.1,380.5
			c-0.6-0.2-1.2-0.3-1.6-0.6c-0.3-0.3-0.5-1.1-0.3-1.4c0.7-1.1,1.7-1.6,3.1-0.5C48,378.7,47.6,379.5,47.1,380.5z M53.7,362.4
			c-0.1-1.4-0.1-1.4,3.8-1.1C55.7,361.8,54.7,362.1,53.7,362.4z M61.3,387.2c-0.3-1.5-0.5-2.8-0.7-4.1c0.3,0,0.6-0.1,1-0.1
			C61.5,384.3,63.6,385.5,61.3,387.2z M65,370.2c-0.2-0.1-0.4-0.2-0.5-0.3c0.3-0.5,0.5-1,0.8-1.5c0.2,0.2,0.5,0.3,0.7,0.5
			C65.7,369.3,65.3,369.7,65,370.2z M67.4,400c1.1-0.3,2-0.6,2.8-0.9C69.9,400.8,69.2,402.1,67.4,400z M76.3,385
			c0.5,0.8,1,1.6,1.4,2.5c-0.1,0.2-0.3,0.4-0.4,0.6c-0.6-0.2-1.3-0.3-1.7-0.7C75,386.5,75,385.7,76.3,385z M76.2,393.8
			c-0.1-1.1-0.1-1.9-0.3-3.4c1,0.9,1.6,1.5,2.6,2.4C77.6,393.3,77,393.5,76.2,393.8z M77.7,344.2c-0.3-0.2-0.4-0.6-0.6-1
			c0.3-0.1,0.6-0.4,0.9-0.3c0.2,0.1,0.4,0.5,0.7,0.8C78.2,344,77.8,344.3,77.7,344.2z M85.4,390.5c-1.9,0.2-2.6-0.6-2.7-1.9
			c0-0.4,0.6-0.8,1-1.2c0.2,0.4,0.3,0.7,0.5,1C84.6,389.1,84.9,389.6,85.4,390.5z M86,358c0.4,0,0.7,0.4,1.2,0.6
			c-0.4,0.4-0.8,0.8-0.9,0.8c-0.3-0.1-0.6-0.5-0.9-0.8C85.6,358.4,85.8,358,86,358z M88.2,366c-0.8,0.8-1.5,1.4-2.3,2.2
			C85.3,365.5,85.3,365.5,88.2,366z M81.8,356.6c0.2,0,0.7,0.5,0.6,0.7c-0.2,1.1-0.8,1.6-2,1C80.2,357.2,80.7,356.6,81.8,356.6z
			 M83.6,373.2c4.3,1,5.2,4.4,1.8,8.3c-1.8-0.9-3.7-1.9-5.4-2.8C81.2,376.9,82.4,375.1,83.6,373.2z"/>
		<path class="st0" d="M408,280.3c-0.9-0.1-1.6-1.5-2.4-2.3c-0.8,0-1.7,0-2.5,0c-0.4,2-1.8,2.5-3.6,2.5c-14.7,0.1-29.4,0.2-44.2,0.2
			c-8.5,0-16.1-0.1-16,12c0.1,7.9,0.2,12.9,1.3,16c0.7-0.2,1.2-0.4,1.8-0.6c-0.2,1-0.6,1.9-1.3,1.9c1,1.9,2.5,2.8,4.9,3.3
			c-0.2-0.1-0.3-0.2-0.5-0.3c-0.5-0.4-0.6-1.4-0.6-2.1c0-0.3,0.9-0.9,1.3-0.8c1.6,0.2,3.1,0.6,4.4,0.9c0.2,1,0.5,1.9,0.5,2.7
			c1,0,2.2,0,3.4-0.1c9.1-0.4,12.7,2.2,12.5,11.8c-0.3,22.7,0.8,45.4,0.4,68.1c-0.2,13.3,7.4,13.3,17.2,13.4
			c10.1,0.1,16.2-2.1,16-13.8c-0.5-21.4,0.7-43-1.1-64.3c-1.1-12.8,1.3-17.9,14.5-15.4c5.4,1,9.7-0.3,11.3-6.8
			C428.8,292.1,422.6,282.3,408,280.3z M348.3,294c0.5,0.8,1,1.6,1.4,2.5c-0.1,0.2-0.3,0.4-0.4,0.6c-0.6-0.2-1.3-0.3-1.7-0.7
			C347,295.5,347,294.7,348.3,294z M348,299.4c1,0.9,1.6,1.5,2.6,2.4c-1,0.4-1.5,0.7-2.3,1C348.2,301.8,348.1,300.9,348,299.4z
			 M348.9,309.4c0.4-0.9,0.6-1.6,1-2.4c0.9,1,1.6,1.9,2.9,3.5C351.1,310,350.1,309.7,348.9,309.4z M351.9,287.7
			c1.2-1.9,2.4-3.6,3.7-5.5c4.3,1,5.2,4.4,1.8,8.3C355.6,289.6,353.7,288.6,351.9,287.7z M354.8,297.6c0-0.4,0.6-0.8,1-1.2
			c0.2,0.4,0.3,0.7,0.5,1c0.3,0.6,0.7,1.1,1.2,2C355.6,299.7,354.9,298.9,354.8,297.6z M363.3,308.2c-0.2-2.2-0.3-3.5-0.5-4.9
			C364.6,304.7,364.7,305.4,363.3,308.2z M363.7,296.5c-0.4,0.7-1.4,0.9-2.2,1.4c0,0,0,0.1,0,0.1l-0.1-0.1l0.1,0.1c0,0-0.1,0-0.1,0
			c-0.1,2.4-0.2,2.4-2.3,2.2c0-1.6,0.9-2.1,2.3-2.2c0,0,0-0.1,0-0.1c0,0,0,0,0,0c-0.4-0.8-0.7-1.6-1.1-2.5c-0.8,0.2-1.8,0.5-2.7,0.4
			c-0.4,0-0.7-1-1.1-1.5c0.4-0.2,1-0.8,1.3-0.7c1.1,0.5,0.8-0.4,1-0.8c0.4-0.7,1-1.3,1.7-2.1c0.8,1.4,1.3,2.4,2.3,4.2
			c0.1-1.3,0.2-2,0.2-2.6c0-0.5-0.1-1.3,0.2-1.4c0.5-0.2,1.1-0.1,1.7-0.1c0.7,0,1.4,0,2.2,0C368,293.7,364.9,294.6,363.7,296.5z"/>
		<path class="st0" d="M201.2,293.9c0-6.9-3-10-9.6-10.4c-4.6-0.3-9.2-0.7-13.8-0.9c-6.6-0.2-10.2,2.4-9.8,9.7
			c0.5,9.5-2.4,19.1-0.2,28.7c0.6,2.6,1.1,5.3-3.5,6.3c-20.6,4.6-27.3-0.5-27.2-21.7c0.2-24.1,0-23.9-23.3-23.7
			c-8.3,0-11.3,2.9-11.2,10.9c0.2,17.2,0.1,34.4,0.1,51.6c0.3,0,0.7,0,1,0c0,0.8,0,1.7,0,2.5c0.2-0.4,0.5-0.7,0.7-1
			c0.2,0.2,0.5,0.4,0.7,0.5c-0.3,0.6-0.2,1.6-1.4,1.8c0,15.1,0.3,30.1-0.2,45.2c-0.2,6.2,0.4,11.9,7.1,12.1
			c8.8,0.2,18.2,5.8,26.3-1.5c1.4-1.3,1.1-4.7,1.1-7.2c0-9.7-0.3-19.3-0.2-29c0-2.7-1.4-7.3,2.1-7.6c8.7-0.7,18.1-1.8,26.3,0.5
			c5.5,1.5,1.7,9.6,2.2,14.7c0.6,5.4,0.4,10.9,0.1,16.4c-0.4,8.5,0.6,14.7,11.7,14.6c18.6-0.1,20.9-0.8,21-14.3
			C201.4,359.4,201.1,326.7,201.2,293.9z M103,320.1c0.2-1.1,0.5-2.4,0.8-3.6c1.4,0,2.8,0,4.3,0c0.3,1.3,0.6,2.6,1,4.7
			C106.8,319.5,104.8,322.6,103,320.1z M108.8,335.8c-0.1,0-0.7-0.4-0.6-0.5c0-0.4,0.3-0.7,0.6-1.2c0.4,0.4,0.8,0.7,0.8,0.8
			C109.4,335.3,109.1,335.6,108.8,335.8z M109.3,334.2c-0.7-1.1-1.4-1.8-1.3-2.1c0.4-0.7,1.1-1.3,1.8-1.9c0.4,0.5,1.2,1.1,1.1,1.5
			C110.7,332.4,110,333.1,109.3,334.2z M114.5,344.1c-0.2-0.2-0.5-0.4-0.7-0.6c0.4-0.5,0.8-0.9,1.2-1.4c0.2,0.1,0.4,0.3,0.6,0.4
			C115.2,343.1,114.9,343.6,114.5,344.1z M122.6,321c0.1,0.2,0.1,0.4,0.2,0.6c-0.5,0.2-1,0.4-1.5,0.5c0,0-0.2-0.5-0.3-0.8
			C121.5,321.2,122,321.1,122.6,321z M122.6,347.7c-0.7-0.1-1.5-0.3-2.2-0.4c0.1-0.4,0.2-0.7,0.3-1.1c0.7,0.2,1.4,0.4,2.1,0.7
			C122.7,347.1,122.7,347.4,122.6,347.7z M121.5,344.1c0,0,0,0.1,0,0.1c0,0-0.1,0-0.1,0c-0.5,1.2-1.4,1.3-2.4,0.6
			c-0.9-0.7-0.9-1.2,0-2.7c1.3,0.1,0.7,2.6,2.4,2.2C121.4,344.2,121.4,344.2,121.5,344.1C121.5,344.1,121.5,344.1,121.5,344.1
			c-0.1-1.1-0.1-2.2,1.7-2.9C122.8,342.6,122.8,343.7,121.5,344.1z M124.3,317.8c-0.3,0.8-0.5,1.5-1,2.9
			C122.4,318.2,122.4,318.2,124.3,317.8z M123.9,322.5c0-0.2-0.1-0.5-0.1-0.7c0.6-0.1,1.2-0.2,1.8-0.4c0,0.2,0.1,0.5,0.1,0.7
			C125.1,322.2,124.5,322.3,123.9,322.5z M126.5,321.6c0.1-1.7,0.1-2.7,0.2-4c0.9,0.4,1.5,0.6,2.5,1
			C128.2,319.5,127.6,320.3,126.5,321.6z"/>
		<path class="st0" d="M523,365.7c0.1,0,0.2,0,0.3,0c-0.9-11.7,1.9-25.6-3.6-34.4c-6.7-10.8-21.7-2.8-33-3.5
			c-17.7-1-18.2,1-17.1,18.4c0.7,10.7,5.9,12.6,14.7,11.3c5.9-0.9,7.1,2.3,6.7,7.4c-0.1,1.6-0.1,3.1-0.4,4.4c1.2,0.7,2,1.2,2.9,1.9
			c-0.8,0.5-1.2,0.7-1.8,1.1c-0.4-0.8-0.7-1.5-1.2-2.6c-0.5,1.9-1.8,3.3-5.6,3.6c-15.6,1.4-25.2-5.7-26.1-21.4
			c-0.4-7.1,0.2-14.3,1-21.3c1.4-12.7,9.1-18.1,21.5-17.8c9.7,0.2,19.3,0.1,29,0.5c10.4,0.4,11.3-6.2,10.9-14.1
			c-0.4-7.9,1.5-17.1-11.2-16.6c-13.3,0.4-26.7,0.3-40,1.2c-22,1.5-34.3,11.7-41.4,32.4c-3.4,9.9-2.8,19.9-2.4,29.9
			c1.2,33.2,10.2,63.8,58.5,60.4c2.5-0.2,5,0.1,7.6,0c29.3-1.3,33.9,6.8,30.7-30.7C522.8,372.3,523,369,523,365.7z M458.8,399.4
			c-0.5-0.1-1-1-1.1-1.6c-0.1-0.3,0.9-1,1.2-1c0.6,0.1,1.1,0.7,2,1.4C459.9,398.9,459.3,399.6,458.8,399.4z M509.3,405.9
			c-0.1-0.3-0.2-0.5-0.4-0.8c0.6-0.2,1.2-0.5,1.8-0.7c0.1,0.3,0.3,0.6,0.4,0.9C510.5,405.5,509.9,405.7,509.3,405.9z M510.6,365.4
			c-0.1,0-0.8-0.8-0.7-1c0.3-0.5,0.7-0.9,1.2-1.1c0.2-0.1,0.7,0.4,1.4,0.9C511.7,364.7,511.2,365.1,510.6,365.4z"/>
		<path class="st1" d="M339.2,366.2c0-12.7,0-41.5,0-41.5s-0.6-0.7-1.7-1.9c-1.5,1.3-3.3,1.5-5.3,1.7c-0.3-0.6-0.6-1.1-0.9-1.6
			c0.8-0.1,1.6,0,2.2-0.2c0.8-0.2,1.7-0.3,2.4-0.7c0.2-0.1,0.3-0.2,0.5-0.4c-0.3-0.3-0.6-0.7-1-1.1c-0.2-0.2-0.4-0.5-0.7-0.7
			c-1.2-1.3-2.3-2.6-3.4-3.9c-0.1,0.3-0.3,0.6-0.5,0.9c-0.8,0-1.6,0-2.8,0c0.4-0.9,0.2-1.7-0.1-2.6c-2.6-1.2-4.5-2.9-6-4.9
			c-0.6-0.1-1.2-0.4-2.2-0.9c0-0.3-0.1-0.7-0.1-1c0-0.3,0.1-0.7,0.2-1.4c0.1,0.1,0.2,0.1,0.3,0.2c-0.7-1.5-1.3-3.2-1.8-4.9
			c-0.2-0.2-0.3-0.4-0.5-0.5c-7.3-8.2-13.7-15.4-13.7-15.4s-13.2,0-26.8,0c-0.2,0-0.5,0-0.7,0c-10.4-2.4-24.4-3.4-31,2.3
			c-0.2,0.2-0.3,0.4-0.5,0.6c-5.4,6.1-18.2,20.4-26,29.2c-0.1,0.1-0.2,0.3-0.3,0.4c-6.6,5.2-5.6,12.2-6.2,20c0,0.2,0,0.5,0,0.7
			c0,0.7,0,1.4,0,2.2c0,0.2,0,0.5,0,0.7c-1.4,6.6-1.4,13.6,0,20.4c0,0.2,0,0.4,0,0.6c0,5.7,0,9.6,0,9.6s5.6,6.2,12.2,13.8
			c0.2,0.2,0.3,0.4,0.5,0.5c3.9,4.6,9.9,8.6,13.3,14.9c0.1,0.2,0.3,0.3,0.4,0.5c5,5.6,8.7,9.7,8.7,9.7s28.9,0,45.4,0
			c0.2,0,0.4,0,0.6,0c6.6,0.5,12.6-3.5,17.9-8.3c0.1-0.2,0.3-0.3,0.4-0.5c5.5-6.2,13-14.6,18.7-21c0.1-0.1,0.3-0.3,0.4-0.4
			c3.2-4.3,9.2-8.3,8.2-14.1C339.2,366.9,339.2,366.5,339.2,366.2z M309,304.9c0.6,0.1,1.3,0.1,2.3,0.2c-0.6,0.8-0.9,1.3-1.3,1.8
			c-0.5-0.4-1-0.9-1.6-1.3C308.6,305.4,308.8,305.1,309,304.9z M273.3,299.5c-1.9,0.1-2.5-0.5-2.6-2
			C272.2,297.1,272.8,297.9,273.3,299.5z M314.3,336c0,0-2.3,0-5.4,0c-0.2,0-0.4,0-0.6,0c-5,0-11-2-13,1c-3,2-1,8-1,13.5
			c0,0.3,0,0.6,0,1c0,1.3,0,2.6,0,3.8c0,0.4,0,0.8,0,1.2c0,2.6,0,4.4,0,4.4h20.2v1.7l-21.3,24h-4.6c0,0,0-1.9,0-4.4
			c0-0.2,0-0.4,0-0.6c-0.2-3.6-0.2-8.6-0.2-12.6c-5,3-10,0-15.1-0.1c-0.2,0-0.5,0-0.7,0c-4.8,0-8.9,0-8.9,0v17.7h-4.6l-21.3-24v-1.7
			c0,0,1.3,0,3.2,0c0.2,0,0.3,0,0.5,0c6,0.1,11-1.9,17-0.9c0-3,0-7-0.5-10.2c0-0.2,0-0.5,0-0.7c0-6.5,0-13.2,0-13.2h-20.2v-1.7
			c0,0,6.3-7.1,12.1-13.6c0.2-0.2,0.3-0.3,0.5-0.5c1-1,1.8-2.2,2.6-3.6c-0.7-1.5-1.3-2.8-1.9-4.2c1.3-0.9,2.2-1.7,3.4-2.3
			c1-0.6,2.3-0.2,2.8,0.6c0.8-0.6,1.6-1.1,2.6-1.1c0.1-0.2,0.2-0.5,0.3-0.8c0.1,0.3,0.2,0.5,0.3,0.8c0.9,0.1,1.9,0.5,3.1,1.3
			c1,1,0,5,0.3,8.1c0,0.2,0,0.4,0,0.7c0,4.2,0,8.2,0,8.2s3.7,0,8.2,0c0.5,0,0.9,0,1.4,0c5.1,0.1,11.1,2.1,14.1-0.9c2-1,1-7,0.8-10.5
			c0-0.3,0-0.6,0-0.9c0-2.1,0.2-4.1,1.2-5.6c0-1,4,0,5.5,2.2c0.2,0.2,0.4,0.4,0.6,0.7c5.5,6.2,19,21.3,19,21.3V336z M314.7,303
			c-0.6,0.8-0.6,0.7-2.5,1c0.9-0.8,1.5-1.3,2.3-1.9C314.6,302.6,314.8,302.9,314.7,303z M329.7,321.1c0-0.1,0-0.1,0-0.2
			c-0.5,0.2-1,0.4-1.6,0.7c0-1.2,0-2.1,0-3c0.3-0.2,0.7-0.4,1-0.6c0.2,0.9,0.4,1.9,0.6,2.8c0.3-0.2,0.7-0.3,1-0.4
			C330.4,320.7,330.1,320.9,329.7,321.1z"/>
	</g>
	<g>
		<path class="st1" d="M1,483.5c-0.3-0.3-0.4-0.6-0.4-1v-37.8c0-0.4,0.1-0.8,0.4-1c0.3-0.3,0.6-0.4,1-0.4h16.3c5,0,8.9,1.1,11.7,3.4
			c2.8,2.3,4.3,5.6,4.3,10c0,4.3-1.4,7.6-4.2,9.8c-2.8,2.2-6.7,3.3-11.7,3.3h-6.9v12.7c0,0.4-0.1,0.8-0.4,1
			c-0.3,0.3-0.6,0.4-1.1,0.4H2.1C1.7,483.9,1.3,483.8,1,483.5z M18.1,461.7c1.7,0,3-0.4,4-1.3c1-0.9,1.5-2.2,1.5-3.9
			c0-1.6-0.5-2.9-1.4-3.8c-0.9-0.9-2.3-1.4-4.1-1.4h-6.8v10.4H18.1z"/>
		<path class="st1" d="M43.6,480.4c-3.1-2.7-4.8-6.6-5-11.7c0-1-0.1-2.8-0.1-5.1c0-2.4,0-4.1,0.1-5.2c0.2-5,1.9-8.9,5.1-11.7
			c3.2-2.7,7.5-4.1,12.9-4.1c3.4,0,6.5,0.6,9.2,1.7c2.7,1.1,4.9,2.8,6.4,4.9c1.6,2.1,2.4,4.6,2.4,7.4v0.1c0,0.3-0.1,0.6-0.4,0.8
			c-0.3,0.2-0.5,0.3-0.8,0.3h-7.9c-0.5,0-0.9-0.1-1.2-0.3c-0.3-0.2-0.5-0.6-0.7-1.2c-0.5-2-1.4-3.4-2.6-4.2
			c-1.2-0.8-2.7-1.2-4.6-1.2c-4.6,0-6.9,2.6-7.1,7.7c0,1-0.1,2.7-0.1,4.8c0,2.2,0,3.8,0.1,4.9c0.2,5.1,2.5,7.7,7.1,7.7
			c1.9,0,3.5-0.4,4.7-1.2c1.2-0.8,2-2.2,2.5-4.1c0.2-0.6,0.4-1,0.6-1.2c0.3-0.2,0.7-0.3,1.2-0.3h7.9c0.3,0,0.6,0.1,0.9,0.3
			c0.3,0.2,0.4,0.5,0.3,0.9c0,2.8-0.8,5.3-2.4,7.4c-1.6,2.1-3.7,3.7-6.4,4.9c-2.7,1.1-5.8,1.7-9.2,1.7
			C51.1,484.5,46.7,483.1,43.6,480.4z"/>
		<path class="st1" d="M98.4,494.9c-2.3-1.2-3.9-2.6-4.9-4.1c-1-1.6-1.5-2.8-1.5-3.9c0-0.3,0.2-0.7,0.5-0.9c0.3-0.3,0.7-0.4,1-0.4
			h7.4c0.4,0,0.7,0.1,0.9,0.3c0.2,0.2,0.4,0.5,0.6,0.9c0.4,0.9,0.9,1.6,1.6,2.1c0.7,0.5,1.7,0.8,3.1,0.8c1.8,0,3.1-0.4,4-1.3
			c0.9-0.9,1.3-2.3,1.3-4.4V480c-2,2.2-4.8,3.3-8.5,3.3c-3.9,0-6.9-1.2-9-3.5c-2.1-2.3-3.2-5.6-3.4-10l-0.1-1.6
			c0-4.7,1-8.4,3.1-11.1c2.1-2.7,5.2-4,9.3-4c2,0,3.7,0.4,5.2,1.1c1.5,0.8,2.8,1.8,3.8,3.1v-2.2c0-0.4,0.1-0.8,0.4-1
			c0.3-0.3,0.6-0.4,1-0.4h6.7c0.4,0,0.8,0.1,1.1,0.4c0.3,0.3,0.4,0.6,0.4,1v28c0,4.4-1.3,7.8-4,10.1c-2.6,2.3-6.4,3.5-11.2,3.5
			C103.6,496.7,100.6,496.1,98.4,494.9z M110.8,474.1c0.9-1.1,1.3-2.4,1.5-4c0-0.3,0.1-0.9,0.1-1.8c0-0.9,0-1.5-0.1-1.7
			c-0.1-1.6-0.6-3-1.4-4c-0.9-1.1-2.2-1.6-3.9-1.6c-1.8,0-3.1,0.5-4,1.6c-0.8,1.1-1.3,2.6-1.3,4.5l-0.1,1.3c0,2.3,0.4,4.1,1.2,5.4
			c0.8,1.3,2.2,2,4.2,2C108.7,475.7,109.9,475.2,110.8,474.1z"/>
		<path class="st1" d="M132.8,483.3c-1.7-0.8-3-1.9-4-3.3c-1-1.4-1.4-2.9-1.4-4.6c0-2.7,1.1-4.8,3.3-6.5c2.2-1.6,5.2-2.8,9-3.4
			l7.3-1.1v-0.8c0-1.5-0.3-2.6-0.9-3.3c-0.6-0.7-1.7-1-3.1-1c-0.9,0-1.6,0.2-2.2,0.5c-0.6,0.3-1.2,0.7-1.8,1.3
			c-0.5,0.5-1,0.8-1.2,0.9c-0.1,0.3-0.3,0.5-0.6,0.5h-6.3c-0.4,0-0.7-0.1-1-0.4c-0.3-0.3-0.4-0.6-0.3-0.9c0-1,0.6-2.2,1.5-3.5
			c1-1.3,2.5-2.4,4.5-3.3c2-0.9,4.5-1.4,7.5-1.4c4.8,0,8.3,1.1,10.6,3.2c2.3,2.1,3.4,5,3.4,8.5v17.7c0,0.4-0.1,0.7-0.4,1
			c-0.3,0.3-0.6,0.4-1,0.4h-6.7c-0.4,0-0.7-0.1-1-0.4c-0.3-0.3-0.4-0.6-0.4-1v-2c-0.9,1.2-2,2.2-3.6,2.9c-1.5,0.8-3.3,1.1-5.4,1.1
			C136.4,484.5,134.5,484.1,132.8,483.3z M145.5,476.1c1.1-1.2,1.7-2.9,1.7-5.1v-0.8l-4.9,0.9c-3.5,0.6-5.2,1.8-5.2,3.7
			c0,1,0.4,1.7,1.2,2.3c0.8,0.6,1.8,0.8,3,0.8C142.9,477.9,144.4,477.3,145.5,476.1z"/>
		<path class="st1" d="M164.1,483.5c-0.3-0.3-0.4-0.6-0.4-1v-27.3c0-0.4,0.1-0.8,0.4-1c0.3-0.3,0.6-0.4,1-0.4h6.3
			c0.4,0,0.8,0.1,1,0.4c0.3,0.3,0.4,0.6,0.4,1v2c0.9-1.2,2.1-2.1,3.6-2.9c1.5-0.8,3.2-1.1,5-1.1c4.3,0,7.2,1.7,8.8,5
			c0.9-1.5,2.2-2.7,3.9-3.6c1.7-0.9,3.5-1.4,5.4-1.4c3.2,0,5.8,1.1,7.8,3.2c2,2.2,3,5.4,3,9.6v16.5c0,0.4-0.1,0.7-0.4,1
			c-0.3,0.3-0.6,0.4-1,0.4h-6.7c-0.4,0-0.8-0.1-1.1-0.4c-0.3-0.3-0.4-0.6-0.4-1v-16.1c0-1.9-0.4-3.3-1.2-4.2
			c-0.8-0.9-1.9-1.3-3.2-1.3c-1.2,0-2.3,0.4-3.1,1.3c-0.8,0.9-1.2,2.3-1.2,4.2v16.1c0,0.4-0.1,0.7-0.4,1c-0.3,0.3-0.6,0.4-1,0.4
			h-6.7c-0.4,0-0.8-0.1-1-0.4c-0.3-0.3-0.4-0.6-0.4-1v-16.1c0-1.9-0.4-3.3-1.3-4.2c-0.8-0.9-1.9-1.3-3.2-1.3c-1.2,0-2.3,0.4-3.1,1.3
			c-0.8,0.9-1.3,2.2-1.3,4.1v16.2c0,0.4-0.1,0.7-0.4,1c-0.3,0.3-0.6,0.4-1,0.4h-6.9C164.7,483.9,164.3,483.8,164.1,483.5z"/>
		<path class="st1" d="M217.3,448.9c-0.3-0.3-0.4-0.6-0.4-1v-5.2c0-0.4,0.1-0.8,0.4-1c0.3-0.3,0.6-0.4,1-0.4h7c0.4,0,0.8,0.1,1,0.4
			c0.3,0.3,0.4,0.6,0.4,1v5.2c0,0.4-0.1,0.8-0.4,1c-0.3,0.3-0.6,0.4-1,0.4h-7C217.9,449.3,217.5,449.2,217.3,448.9z M217.3,483.5
			c-0.3-0.3-0.4-0.6-0.4-1v-27.3c0-0.4,0.1-0.8,0.4-1c0.3-0.3,0.6-0.4,1-0.4h6.9c0.4,0,0.8,0.1,1,0.4c0.3,0.3,0.4,0.6,0.4,1v27.3
			c0,0.4-0.1,0.7-0.4,1c-0.3,0.3-0.6,0.4-1,0.4h-6.9C218,483.9,217.6,483.8,217.3,483.5z"/>
		<path class="st1" d="M234,483.5c-0.3-0.3-0.4-0.6-0.4-1v-27.3c0-0.4,0.1-0.8,0.4-1c0.3-0.3,0.6-0.4,1-0.4h6.7
			c0.4,0,0.8,0.1,1.1,0.4c0.3,0.3,0.4,0.6,0.4,1v2.2c1-1.3,2.4-2.3,4-3.1c1.6-0.8,3.5-1.2,5.6-1.2c3.4,0,6.2,1.2,8.3,3.5
			c2.1,2.3,3.2,5.5,3.2,9.7v16.2c0,0.4-0.1,0.7-0.4,1c-0.3,0.3-0.6,0.4-1,0.4h-7.3c-0.4,0-0.7-0.1-1-0.4c-0.3-0.3-0.4-0.6-0.4-1
			v-15.9c0-1.8-0.4-3.2-1.3-4.2c-0.9-1-2.2-1.5-3.8-1.5c-1.6,0-2.9,0.5-3.8,1.5c-0.9,1-1.4,2.4-1.4,4.2v15.9c0,0.4-0.1,0.7-0.4,1
			c-0.3,0.3-0.6,0.4-1,0.4H235C234.6,483.9,234.2,483.8,234,483.5z"/>
		<path class="st1" d="M276.8,494.9c-2.3-1.2-3.9-2.6-4.9-4.1c-1-1.6-1.5-2.8-1.5-3.9c0-0.3,0.2-0.7,0.5-0.9c0.3-0.3,0.7-0.4,1-0.4
			h7.4c0.4,0,0.7,0.1,0.9,0.3c0.2,0.2,0.4,0.5,0.6,0.9c0.4,0.9,0.9,1.6,1.6,2.1c0.7,0.5,1.7,0.8,3.1,0.8c1.8,0,3.1-0.4,4-1.3
			c0.9-0.9,1.3-2.3,1.3-4.4V480c-2,2.2-4.8,3.3-8.5,3.3c-3.9,0-6.9-1.2-9-3.5c-2.1-2.3-3.2-5.6-3.4-10l-0.1-1.6
			c0-4.7,1-8.4,3.1-11.1c2.1-2.7,5.2-4,9.3-4c2,0,3.7,0.4,5.2,1.1c1.5,0.8,2.8,1.8,3.8,3.1v-2.2c0-0.4,0.1-0.8,0.4-1
			c0.3-0.3,0.6-0.4,1-0.4h6.7c0.4,0,0.8,0.1,1.1,0.4c0.3,0.3,0.4,0.6,0.4,1v28c0,4.4-1.3,7.8-4,10.1c-2.6,2.3-6.4,3.5-11.2,3.5
			C282.1,496.7,279.1,496.1,276.8,494.9z M289.3,474.1c0.9-1.1,1.3-2.4,1.5-4c0-0.3,0.1-0.9,0.1-1.8c0-0.9,0-1.5-0.1-1.7
			c-0.1-1.6-0.6-3-1.4-4c-0.9-1.1-2.2-1.6-3.9-1.6c-1.8,0-3.1,0.5-4,1.6c-0.8,1.1-1.3,2.6-1.3,4.5l-0.1,1.3c0,2.3,0.4,4.1,1.2,5.4
			c0.8,1.3,2.2,2,4.2,2C287.1,475.7,288.4,475.2,289.3,474.1z"/>
		<path class="st1" d="M324.8,483.1c-2.1-0.9-3.7-2-4.7-3.2c-1-1.2-1.5-2.3-1.5-3.3c0-0.4,0.1-0.7,0.4-1c0.3-0.3,0.6-0.4,1-0.4h6.6
			c0.2,0,0.4,0.1,0.6,0.3c0.5,0.3,0.8,0.6,1,0.8c0.9,0.6,1.6,1.1,2.2,1.4c0.6,0.3,1.4,0.4,2.4,0.4c1.1,0,2-0.2,2.8-0.7
			c0.7-0.4,1.1-1.1,1.1-1.9c0-0.7-0.2-1.2-0.6-1.6c-0.4-0.4-1.1-0.8-2.1-1.1c-1-0.4-2.6-0.8-4.8-1.2c-3.2-0.7-5.7-1.7-7.4-3.2
			c-1.7-1.5-2.6-3.5-2.6-6c0-1.6,0.5-3.1,1.5-4.5c1-1.4,2.5-2.6,4.5-3.5c2-0.9,4.4-1.3,7.1-1.3c2.8,0,5.2,0.4,7.2,1.3
			c2.1,0.9,3.6,1.9,4.7,3.1c1.1,1.2,1.6,2.3,1.6,3.3c0,0.3-0.1,0.7-0.4,0.9c-0.3,0.3-0.6,0.4-0.9,0.4h-6c-0.3,0-0.6-0.1-0.9-0.3
			c-0.5-0.3-1-0.6-1.3-0.9c-0.7-0.5-1.3-0.9-1.9-1.2c-0.6-0.3-1.3-0.4-2.2-0.4c-1,0-1.8,0.2-2.4,0.7c-0.6,0.5-0.9,1.1-0.9,1.8
			c0,0.6,0.2,1.1,0.5,1.5c0.3,0.4,1,0.8,2.1,1.1c1.1,0.4,2.6,0.7,4.7,1.1c3.8,0.7,6.5,1.8,8.2,3.5c1.7,1.7,2.6,3.6,2.6,5.9
			c0,2.9-1.3,5.2-3.8,6.9c-2.6,1.7-6.1,2.6-10.7,2.6C329.5,484.5,326.9,484,324.8,483.1z"/>
		<path class="st1" d="M352.7,448.9c-0.3-0.3-0.4-0.6-0.4-1v-5.2c0-0.4,0.1-0.8,0.4-1c0.3-0.3,0.6-0.4,1-0.4h7c0.4,0,0.8,0.1,1,0.4
			c0.3,0.3,0.4,0.6,0.4,1v5.2c0,0.4-0.1,0.8-0.4,1c-0.3,0.3-0.6,0.4-1,0.4h-7C353.3,449.3,353,449.2,352.7,448.9z M352.8,483.5
			c-0.3-0.3-0.4-0.6-0.4-1v-27.3c0-0.4,0.1-0.8,0.4-1c0.3-0.3,0.6-0.4,1-0.4h6.9c0.4,0,0.8,0.1,1,0.4c0.3,0.3,0.4,0.6,0.4,1v27.3
			c0,0.4-0.1,0.7-0.4,1c-0.3,0.3-0.6,0.4-1,0.4h-6.9C353.4,483.9,353,483.8,352.8,483.5z"/>
		<path class="st1" d="M369.4,483.5c-0.3-0.3-0.4-0.6-0.4-1v-27.3c0-0.4,0.1-0.8,0.4-1c0.3-0.3,0.6-0.4,1-0.4h6.7
			c0.4,0,0.8,0.1,1.1,0.4c0.3,0.3,0.4,0.6,0.4,1v2.2c1-1.3,2.4-2.3,4-3.1c1.6-0.8,3.5-1.2,5.6-1.2c3.4,0,6.2,1.2,8.3,3.5
			c2.1,2.3,3.2,5.5,3.2,9.7v16.2c0,0.4-0.1,0.7-0.4,1c-0.3,0.3-0.6,0.4-1,0.4H391c-0.4,0-0.7-0.1-1-0.4c-0.3-0.3-0.4-0.6-0.4-1
			v-15.9c0-1.8-0.4-3.2-1.3-4.2c-0.9-1-2.2-1.5-3.8-1.5c-1.6,0-2.9,0.5-3.8,1.5c-0.9,1-1.4,2.4-1.4,4.2v15.9c0,0.4-0.1,0.7-0.4,1
			c-0.3,0.3-0.6,0.4-1,0.4h-7.3C370,483.9,369.7,483.8,369.4,483.5z"/>
		<path class="st1" d="M409.6,481c-2.7-2.3-4.2-5.6-4.4-9.8l-0.1-2.3l0.1-2.4c0.2-4.2,1.6-7.5,4.3-9.8c2.7-2.4,6.3-3.5,10.7-3.5
			c3.3,0,6.1,0.6,8.3,1.8c2.3,1.2,4,2.6,5.1,4.2c1.1,1.6,1.7,3.2,1.8,4.5c0,0.4-0.1,0.7-0.4,1c-0.3,0.3-0.6,0.4-1.1,0.4h-7.4
			c-0.4,0-0.8-0.1-1-0.3c-0.2-0.2-0.4-0.5-0.6-0.9c-0.5-1.2-1.1-2.1-1.8-2.6c-0.7-0.5-1.6-0.8-2.8-0.8c-3.2,0-4.8,2.1-4.9,6.2
			l-0.1,2.2l0.1,1.9c0.1,2.1,0.5,3.6,1.4,4.6c0.8,1,2,1.5,3.6,1.5c1.2,0,2.2-0.3,2.8-0.8c0.7-0.5,1.3-1.4,1.7-2.6
			c0.2-0.4,0.4-0.7,0.6-0.9c0.2-0.2,0.6-0.3,1-0.3h7.4c0.4,0,0.7,0.1,1,0.4c0.3,0.3,0.4,0.6,0.4,1c0,1.2-0.5,2.7-1.6,4.4
			c-1.1,1.7-2.7,3.1-5,4.4c-2.3,1.3-5.1,1.9-8.5,1.9C415.9,484.5,412.4,483.3,409.6,481z"/>
		<path class="st1" d="M443.7,480.7c-2.7-2.5-4.1-6.2-4.2-11v-2c0.2-4.6,1.6-8.2,4.3-10.7c2.7-2.6,6.3-3.9,10.8-3.9
			c3.3,0,6.1,0.7,8.3,2c2.3,1.3,4,3.2,5.1,5.5c1.1,2.3,1.7,5,1.7,8v1.4c0,0.4-0.1,0.7-0.4,1c-0.3,0.3-0.6,0.4-1,0.4h-18.6v0.4
			c0.1,1.8,0.5,3.3,1.3,4.4c0.8,1.1,2,1.7,3.5,1.7c1,0,1.8-0.2,2.4-0.6c0.6-0.4,1.2-0.9,1.7-1.5c0.3-0.4,0.6-0.7,0.8-0.8
			c0.2-0.1,0.6-0.1,1-0.1h7.2c0.3,0,0.6,0.1,0.9,0.3c0.3,0.2,0.4,0.5,0.4,0.8c0,1-0.6,2.2-1.7,3.5c-1.1,1.3-2.8,2.5-5,3.4
			c-2.2,1-4.7,1.5-7.7,1.5C450,484.5,446.3,483.2,443.7,480.7z M459.5,465.7v-0.1c0-1.9-0.4-3.4-1.3-4.5c-0.9-1.1-2.1-1.7-3.6-1.7
			c-1.5,0-2.7,0.6-3.6,1.7c-0.9,1.1-1.3,2.6-1.3,4.5v0.1H459.5z"/>
		<path class="st1" d="M499.3,483.5c-0.3-0.3-0.4-0.6-0.4-1v-27.7l-8,6.1c-0.3,0.2-0.6,0.3-0.9,0.3c-0.4,0-0.8-0.2-1.2-0.7l-3.4-4.5
			c-0.2-0.3-0.3-0.6-0.3-0.9c0-0.5,0.2-0.9,0.7-1.2l13.4-10.4c0.4-0.3,0.9-0.4,1.4-0.4h7.3c0.4,0,0.8,0.1,1,0.4
			c0.3,0.3,0.4,0.6,0.4,1v37.8c0,0.4-0.1,0.7-0.4,1c-0.3,0.3-0.6,0.4-1,0.4h-7.6C499.9,483.9,499.6,483.8,499.3,483.5z"/>
		<path class="st1" d="M523.3,482.8c-2.6-1.1-4.5-2.7-5.7-4.6c-1.3-1.9-1.9-4.1-1.9-6.5c0-2.1,0.5-3.9,1.5-5.6
			c1-1.6,2.4-2.9,4.1-3.9c-1.4-0.9-2.4-2-3.1-3.4c-0.7-1.4-1.1-2.9-1.1-4.7c0-2.2,0.6-4.2,1.7-6c1.1-1.8,2.9-3.1,5.2-4.2
			c2.3-1,5.2-1.5,8.7-1.5c5.1,0,8.9,1.1,11.5,3.2c2.6,2.1,3.9,4.9,3.9,8.4c0,3.5-1.4,6.2-4.1,8.1c1.7,0.9,3.1,2.1,4.2,3.8
			c1,1.7,1.5,3.6,1.5,5.7c0,2.4-0.6,4.6-1.9,6.5c-1.3,1.9-3.2,3.4-5.8,4.6c-2.6,1.1-5.7,1.7-9.4,1.7
			C529,484.5,525.9,483.9,523.3,482.8z M537.5,475.6c1.2-1,1.9-2.3,1.9-3.9s-0.6-2.9-1.9-3.9c-1.2-0.9-2.8-1.4-4.7-1.4
			c-1.9,0-3.5,0.5-4.7,1.4c-1.3,1-1.9,2.2-1.9,3.9s0.6,2.9,1.9,3.9c1.3,1,2.8,1.5,4.7,1.5C534.6,477,536.2,476.6,537.5,475.6z
			 M536.9,458c1.1-0.9,1.6-2,1.6-3.3c0-1.4-0.5-2.5-1.6-3.4c-1.1-0.9-2.5-1.3-4.2-1.3c-1.7,0-3.1,0.4-4.2,1.3
			c-1.1,0.9-1.6,2-1.6,3.4c0,1.4,0.5,2.5,1.6,3.4c1.1,0.9,2.5,1.3,4.2,1.3C534.4,459.3,535.8,458.9,536.9,458z"/>
		<path class="st1" d="M559.8,483.5c-0.2-0.3-0.3-0.6-0.3-0.9c0-0.2,0-0.4,0.1-0.5L573,452h-17.4c-0.4,0-0.8-0.1-1.1-0.4
			c-0.3-0.3-0.4-0.6-0.4-1.1v-5.8c0-0.4,0.1-0.8,0.4-1c0.3-0.3,0.6-0.4,1.1-0.4h27.2c0.5,0,0.8,0.1,1.1,0.4c0.3,0.3,0.4,0.6,0.4,1
			v5.2c0,0.8-0.2,1.7-0.6,2.6l-13.4,30.1c-0.4,0.9-1.1,1.4-2,1.4h-7.5C560.3,483.9,560,483.8,559.8,483.5z"/>
		<path class="st1" d="M595.2,482.7c-2.5-1.2-4.4-2.6-5.6-4.3c-1.2-1.7-1.9-3.5-1.9-5.2c0-0.3,0.1-0.6,0.4-0.9
			c0.3-0.2,0.6-0.3,0.9-0.3h7.6c0.4,0,0.8,0.1,1,0.2c0.3,0.2,0.5,0.4,0.8,0.9c0.8,2,2.9,3,6.3,3c2,0,3.5-0.5,4.6-1.4
			c1.1-0.9,1.7-2.2,1.7-3.8c0-3.1-2-4.7-6-4.7h-6.5c-0.4,0-0.7-0.1-1-0.4c-0.3-0.3-0.4-0.6-0.4-1v-3.3c0-0.9,0.3-1.5,0.9-2l9.5-8.1
			h-16.2c-0.4,0-0.7-0.1-1-0.4c-0.3-0.3-0.4-0.6-0.4-1v-5.5c0-0.4,0.1-0.8,0.4-1c0.3-0.3,0.6-0.4,1-0.4h26.8c0.4,0,0.8,0.1,1.1,0.4
			c0.3,0.3,0.4,0.6,0.4,1v4.9c0,0.7-0.3,1.4-0.9,1.9l-8.8,8.2l0.4,0.1c3.6,0.5,6.4,1.7,8.5,3.6c2.1,1.9,3.1,4.7,3.1,8.2
			c0,2.6-0.7,4.9-2.2,6.8c-1.5,1.9-3.5,3.4-6.1,4.5c-2.6,1-5.5,1.6-8.8,1.6C600.9,484.5,597.8,483.9,595.2,482.7z"/>
	</g>
</g>
</svg>
