<svg xmlns="http://www.w3.org/2000/svg" xmlns:xlink="http://www.w3.org/1999/xlink" version="1" width="800" height="280"><defs><linearGradient id="a"><stop offset="0" stop-color="#646464"/><stop offset="1" stop-opacity="0"/></linearGradient><linearGradient id="b"><stop offset="0" stop-color="#646464"/><stop offset=".293" stop-color="#c8c8c8"/><stop offset=".973" stop-color="#646464"/><stop offset="1" stop-color="#c8c8c8"/></linearGradient><radialGradient cx="317.616" cy="303.729" r="379.174" fx="317.616" fy="303.729" id="d" xlink:href="#a" gradientUnits="userSpaceOnUse" gradientTransform="matrix(.71718 .1266 -.02398 .13583 97.111 222.264)" spreadMethod="reflect"/><radialGradient cx="317.616" cy="303.729" r="379.174" fx="317.616" fy="303.729" id="c" xlink:href="#a" gradientUnits="userSpaceOnUse" gradientTransform="matrix(.71718 .1266 -.02398 .13583 97.111 222.264)" spreadMethod="reflect"/><radialGradient cx="280.594" cy="-542.664" r="372.109" fx="280.594" fy="-542.664" id="e" xlink:href="#b" gradientUnits="userSpaceOnUse" gradientTransform="matrix(1 0 0 .27414 0 272.337)" spreadMethod="reflect"/></defs><path d="M-4.42 250.15h74.33v107.158H29.784V281.41H7.617c-7.262 0-13.281 2.056-18.057 6.167-4.777 4.111-7.165 9.409-7.165 15.892 0 6.368 2.453 11.722 7.357 16.065 4.904 4.343 10.986 6.514 18.244 6.514H20.61v31.26H-4.04c-15.159 0-28.534-5.558-40.128-16.672-11.593-11.114-17.39-23.62-17.39-37.516 0-14.01 5.51-26.34 16.53-36.992 11.02-10.652 24.556-15.977 40.609-15.977zm86.805 138.417V250.151h75.677c15.411 0 28.626 5.297 39.646 15.892 11.02 10.595 16.53 23.475 16.53 38.64 0 14.706-5.541 27.153-16.623 37.342-11.082 10.188-24.523 15.283-40.323 15.283h-25.6v-31.26h11.464c7.644 0 14.077-1.968 19.3-5.905 5.223-3.936 7.835-9.03 7.835-15.285 0-6.02-2.484-11.347-7.453-15.98-5.35-4.978-11.91-7.467-19.682-7.468h-20.638v107.157H82.385zm139.96 0V250.151h75.676c15.411 0 28.627 5.297 39.647 15.892 11.02 10.595 16.53 23.475 16.53 38.64 0 14.706-5.542 27.153-16.623 37.342-11.083 10.188-24.524 15.283-40.323 15.283H271.65v-31.26h11.465c7.643 0 14.076-1.968 19.3-5.905 5.223-3.936 7.834-9.03 7.834-15.285 0-6.02-2.484-11.347-7.452-15.98-5.35-4.978-11.91-7.467-19.682-7.468h-20.638v107.157h-40.134zm139.959-169.676h40.133v138.417h-40.133V218.89zm182.804 107.157v31.26h-67.84c-18.09 0-33.44-4.748-46.052-14.242-13.502-10.19-20.253-23.447-20.253-39.772 0-13.893 6.625-26.223 19.874-36.991 13.25-10.768 28.79-16.152 46.624-16.152h67.647v31.26l-26.75 35.605h-45.48l28.277-35.606h-20.632c-7.648 0-13.827 2.027-18.54 6.08-4.711 4.053-7.067 9.206-7.067 15.46 0 6.597 2.484 12.096 7.453 16.496 4.968 4.401 11.02 6.602 18.154 6.602h64.585zm49.98-81.302h-22.837V218.89h58.626v138.471h-58.626v-25.855h22.837v-86.761zm78.864 0h22.838V218.89h-58.627v138.472h58.627v-25.856h-22.838v-86.761z" style="text-align:start;line-height:100%;-inkscape-font-specification:Motter Tektura Cyrilic" font-size="144" font-weight="400" fill="url(#d)" font-family="Motter Tektura Cyrilic" transform="matrix(.79709 0 0 .81936 227.454 -113.602)"/><path d="M519.034 68.613v106.542h25.308V68.613h-25.308zm167.339 0v14.314h14.87c1.844 0 3.338 1.536 3.338 3.43v71.08c0 1.895-1.494 3.43-3.337 3.43h-14.871v14.34h40.054V68.613h-40.054zm52.533 0v106.594h40.054v-14.34h-14.871c-1.843 0-3.337-1.535-3.338-3.43v-71.08c0-1.894 1.495-3.43 3.338-3.43h14.87V68.613h-40.053zM223.389 94.218c-12.058 0-21.866 3.965-30.065 12.111-8.258 8.205-12.156 17.28-12.156 27.859 0 10.43 4.112 19.627 12.853 28.242 8.718 8.59 18.402 12.725 29.667 12.725h16.315v-18.742h-6.725c-6.457 0-12.245-2.11-16.764-6.222-4.517-4.112-6.975-9.628-6.974-15.722 0-6.152 2.406-11.69 6.874-15.644 4.444-3.932 10.15-5.864 16.565-5.864h17.66c1.844 0 3.338 1.536 3.338 3.431v58.763h25.308V94.218h-55.896zm72.51 0V200.76h25.333v-84.368c0-1.895 1.494-3.43 3.337-3.43h16.44c6.908 0 13.105 2.396 17.96 7.04 4.488 4.302 7 9.723 7 15.594 0 6.071-2.697 11.528-7.548 15.286-4.79 3.71-10.746 5.53-17.412 5.53h-5.803v18.743h17.062c11.877 0 21.641-3.828 29.891-11.624 8.244-7.791 12.18-16.876 12.18-28.063 0-11.595-3.946-21.077-12.155-29.19-8.222-8.125-17.772-12.06-29.293-12.06h-56.992zm111.568 0V200.76h25.307v-84.368c0-1.895 1.495-3.43 3.338-3.43h16.465c6.907 0 13.104 2.396 17.96 7.04 4.488 4.302 6.999 9.723 6.999 15.594 0 6.083-2.726 11.532-7.573 15.286-4.785 3.707-10.72 5.53-17.386 5.53h-5.804v18.743h17.063c11.876 0 21.613-3.825 29.866-11.624 8.244-7.791 12.18-16.876 12.18-28.063 0-11.595-3.947-21.077-12.155-29.19-8.224-8.127-17.747-12.06-29.269-12.06h-56.991zm200.019 0c-13.542 0-25.055 4.122-35.047 12.47-10.018 8.369-14.622 17.335-14.622 27.628 0 12.43 4.744 22.037 14.821 29.855 9.44 7.305 20.864 10.984 34.699 10.984h50.714v-18.742h-48.124c-6.38 0-12.14-2.156-16.689-6.3-4.578-4.167-7.074-9.807-7.074-16.079 0-5.984 2.404-11.374 6.8-15.26 4.434-3.92 10.274-5.813 16.963-5.813h16.44c1.278.003 2.442.755 2.999 1.937a3.51 3.51 0 0 1-.384 3.62l-18.258 23.633h27.699l19.628-26.885V94.218h-50.565z" style="text-align:start;line-height:100%;-inkscape-font-specification:Motter Tektura Cyrilic" font-size="144" font-weight="400" fill="#fff" font-family="Motter Tektura Cyrilic"/><path d="M366.125 222.719V353.5h32.5V222.719h-32.5zm209.938 0v18.219h19.03a3.801 3.801 0 0 1 3.813 3.812v86.75a3.801 3.801 0 0 1-3.812 3.813h-19.032v18.25h51V222.719h-51zm65.906 0v130.844h51v-18.25h-19.032a3.801 3.801 0 0 1-3.812-3.813v-86.75a3.801 3.801 0 0 1 3.813-3.813h19.03V222.72h-51zm-646.375 31.25c-15.214 0-27.614 4.866-37.969 14.875-10.42 10.072-15.375 21.268-15.375 34.281 0 12.837 5.194 24.18 16.219 34.75 10.997 10.543 23.273 15.625 37.5 15.625h20.843v-23.625H8c-8.023 0-15.183-2.543-20.781-7.5-5.597-4.955-8.625-11.568-8.625-18.906 0-7.414 2.97-14.022 8.5-18.781 5.501-4.736 12.555-7.094 20.531-7.094h22.156a3.801 3.801 0 0 1 3.813 3.812V353.5h32.5v-99.531h-70.5zm90.594 0V384.75h32.53V281.406a3.801 3.801 0 0 1 3.813-3.812h20.625c8.584 0 16.26 2.895 22.281 8.5 5.57 5.193 8.657 11.69 8.657 18.75 0 7.303-3.337 13.817-9.344 18.344-5.937 4.473-13.297 6.687-21.594 6.687H135.5V353.5h21.781c14.983 0 27.364-4.704 37.781-14.281 10.412-9.572 15.375-20.78 15.375-34.531 0-14.245-4.978-25.94-15.343-35.907-10.38-9.979-22.489-14.812-37.031-14.812H86.188zm139.968 0V384.75h32.5V281.406a3.801 3.801 0 0 1 3.813-3.812h20.656c8.583 0 16.259 2.895 22.281 8.5 5.57 5.193 8.656 11.69 8.656 18.75 0 7.316-3.374 13.821-9.375 18.344-5.93 4.469-13.266 6.687-21.562 6.687h-7.656V353.5h21.781c14.983 0 27.33-4.701 37.75-14.281 10.411-9.572 15.375-20.78 15.375-34.531 0-14.245-4.978-25.94-15.344-35.907-10.382-9.981-22.457-14.812-37-14.812h-71.875zm251.313 0c-17.068 0-31.617 5.04-44.219 15.281-12.63 10.265-18.469 21.346-18.469 34.031 0 15.277 5.997 27.149 18.719 36.75 11.914 8.97 26.358 13.469 43.781 13.469h64v-23.625h-60.75c-7.924 0-15.047-2.598-20.687-7.594-5.672-5.024-8.75-11.786-8.75-19.344 0-7.206 2.965-13.633 8.406-18.312 5.484-4.717 12.708-7.031 21.031-7.031h20.625a3.801 3.801 0 0 1 2.969 6.187L480.75 313.22h35.719l24.812-33.063V253.97H477.47z" transform="matrix(.79709 0 0 .81936 226.901 -114.017)" style="text-align:start;line-height:100%;-inkscape-font-specification:Motter Tektura Cyrilic" font-size="144" font-weight="400" fill="url(#e)" font-family="Motter Tektura Cyrilic"/><g fill-rule="evenodd"><path d="M108.668 232.787c3.654-.223 8.441-.906 19.35 5.261 39.47 16.518 58.066-26.457 71.7-55.904-23.953-11.857-54.525-52.662-7.665-91.761-10.983-13.547-26.11-20.7-43.16-20.969-8.17-.09-16.529 1.212-23.229 4.742-7.502 3.953-13.188 4.964-13.705 5.038-.517.074-6.24.046-6.757-.027-.516-.074-8.165-.931-14.229-4.165-6.682-3.563-14.534-5.706-22.705-5.615-62.847.7-85.27 93.572-17.27 165.052 9.862 10.367 29.553 8.44 38.146 3.582 10.908-6.168 15.67-5 19.524-5.234z" fill="green" stroke="green" stroke-width=".48914"/><path d="M20.498 97.011c-19.94 33.08-14.654 89.974 30.494 137.432 9.863 10.368 29.56 8.436 38.153 3.577 10.908-6.167 15.666-4.993 19.52-5.228 3.653-.222 8.443-.909 19.351 5.259 39.471 16.517 58.07-26.467 71.704-55.915-22.603-11.188-51.086-48.141-14.857-85.125H20.498z" fill="#ff0" stroke="#ff0" stroke-width=".48914"/><path d="M10.47 126.008c-4.715 32.143 6.746 72.93 40.522 108.435 9.863 10.368 29.56 8.436 38.153 3.577 10.908-6.167 15.666-4.993 19.52-5.228 3.653-.222 8.443-.909 19.351 5.259 39.471 16.517 58.07-26.467 71.704-55.915-16.596-8.215-36.355-30.316-31.35-56.128H10.47z" fill="#f60" stroke="#f60" stroke-width=".48914"/><path d="M10.44 154.653c3.458 25.864 16.206 54.198 40.552 79.79 9.863 10.368 29.56 8.436 38.153 3.577 10.908-6.167 15.666-4.993 19.52-5.228 3.653-.222 8.443-.909 19.351 5.259 39.471 16.517 58.07-26.467 71.704-55.915-9.93-4.915-20.99-14.803-27.208-27.483H10.44z" fill="red" stroke="red" stroke-width=".48914"/><path d="M18.45 184.704c6.725 16.804 17.383 33.804 32.542 49.74 9.863 10.367 29.56 8.435 38.153 3.576 10.908-6.167 15.666-4.993 19.52-5.228 3.653-.222 8.443-.909 19.351 5.259 38.355 16.05 56.993-24.045 70.527-53.347H18.45z" fill="purple" stroke="purple" stroke-width=".48914"/><path d="M34.346 214.068c4.795 6.916 10.332 13.737 16.646 20.375 9.863 10.368 29.56 8.436 38.153 3.577 10.908-6.167 15.666-4.993 19.52-5.228 3.653-.222 8.443-.909 19.351 5.259 26.022 10.889 42.974-4.081 55.41-23.983H34.346z" fill="#00f" stroke="#00f" stroke-width=".48914"/><path d="M148.313 16.584c-1.256 36.227-19.208 50.67-45.087 54.722.547-30.419 15.552-48.68 45.087-54.722z" fill="green" stroke="green" stroke-width=".48914"/></g></svg>