<svg xmlns="http://www.w3.org/2000/svg" width="1182.774" height="117.425" viewBox="0 0 312.942 31.069"><g stroke-width=".857"><path d="M15.535 0h281.873c8.544 0 15.534 6.99 15.534 15.534 0 8.545-6.99 15.535-15.534 15.535H15.535C6.99 31.069 0 24.079 0 15.534 0 6.991 6.99 0 15.535 0z" fill="#5b5652" fill-rule="evenodd"/><path fill="#e2001a" fill-rule="evenodd" d="M257.83 7.582H172.71V5.31h85.121z"/><path fill="#e95e38" fill-rule="evenodd" d="M257.83 12.127H172.71V9.855h85.121z"/><path fill="#fc0" fill-rule="evenodd" d="M257.83 16.67H172.71v-2.272h85.121z"/><path fill="#57ab27" fill-rule="evenodd" d="M257.83 21.215H172.71v-2.272h85.121z"/><path fill="#009ee0" fill-rule="evenodd" d="M257.83 25.76H172.71v-2.273h85.121z"/><path d="M282.817 18.84c0 2.88-2.53 4.32-7.595 4.32h-2.591c-2.854 0-4.831-.494-5.937-1.476-1.106-.985-1.657-2.69-1.657-5.113V13.31c0-2.41.551-4.106 1.657-5.09 1.105-.985 3.083-1.477 5.937-1.477h2.591c2.351 0 4.12.316 5.304.948 1.186.632 1.779 1.557 1.779 2.777v1.168h-6.089v-.418c0-.382-.11-.633-.33-.75-.222-.117-.664-.177-1.327-.177h-1.447c-.823 0-1.35.066-1.58.199-.233.132-.348.447-.348.947v2.246c.883-.484 1.978-.726 3.286-.726h2.139c2.15 0 3.722.364 4.717 1.09.993.727 1.49 1.848 1.49 3.36zm-136.6-7.89h-2.932v8.413h3.06v-4.398c0-1.146.701-1.721 1.977-1.721 1.274 0 1.594.383 1.657 1.465h2.87c0-2.868-.383-3.952-3.443-3.952-1.85 0-2.487.383-3.188 1.785V10.95zM25.891 16.004h-4.925v4.039h8.852zm3.926-4.867h-8.852v4.038h4.87zm130.489 6.57c-2.931 0-3.378-.255-3.378-1.722h8.034c-.127-4.078-.127-5.035-5.547-5.035-4.592 0-5.612.828-5.612 4.462 0 3.379 1.34 4.207 5.038 4.272 4.144 0 6.121-.192 6.121-2.933h-2.998c-.127.638-.38.956-1.658.956zm-3.442-3.506c.127-.893.382-1.212 2.423-1.212 2.233 0 2.55.128 2.677 1.212zm-113.999.319h3.06c-.254-2.87-1.084-3.57-5.354-3.57-4.846 0-5.93.763-5.93 4.335 0 3.57 1.02 4.398 5.547 4.398 4.782 0 5.738-.637 5.738-3.634h-3.06c0 .829-.318 1.212-2.678 1.212-2.04 0-2.486-.51-2.486-2.168 0-1.594.446-1.594 2.87-1.594 1.783 0 2.102.192 2.293 1.02zm71.09.508c0-3.442-1.02-4.142-5.93-4.142-5.291 0-5.928.892-5.928 4.461 0 3.571.891 4.336 5.928 4.336 5.357 0 5.93-.891 5.93-4.655zm-8.734.194c0-1.723.382-1.913 2.614-1.913 2.486 0 2.932.063 2.932 1.913 0 1.721-.32 2.04-2.678 2.04-2.55 0-2.868-.256-2.868-2.04zm36.213-.194c0-3.442-.957-4.142-5.864-4.142-5.229 0-5.866.827-5.866 4.399 0 3.633.892 4.398 5.866 4.398 5.353 0 5.864-.891 5.864-4.655zm-8.67.194c0-1.723.382-1.913 2.613-1.913 2.487 0 2.933.063 2.933 1.913 0 1.721-.318 2.04-2.677 2.04-2.55 0-2.87-.256-2.87-2.04zm-73.258-.194c0-3.442-.956-4.142-5.865-4.142-5.292 0-5.93.827-5.93 4.399 0 3.633.894 4.398 5.93 4.398 5.356 0 5.865-.891 5.865-4.655zm-8.608.194c0-1.723.383-1.913 2.551-1.913 2.486 0 2.933.063 2.933 1.913 0 1.721-.32 2.04-2.678 2.04-2.488 0-2.806-.256-2.806-2.04zm73.704-7.844v4.91c-.7-.957-1.338-1.466-3.888-1.466-4.08 0-4.846 1.084-4.846 4.399 0 3.38 1.085 4.334 5.037 4.334 2.487 0 3.252-.637 3.826-1.72v1.528h3.06V7.377h-3.189zm-2.231 5.867c1.72 0 2.296.254 2.296 1.592 0 2.042-.129 2.234-2.55 2.234-2.423 0-3.06-.065-3.06-1.786 0-1.977.764-2.04 3.314-2.04zM20.689 10.86v-5.2c-1.05-.277-1.77-.388-2.82-.388-5.478 0-10.29 4.593-10.29 10.29 0 5.865 4.867 10.235 10.344 10.235.996 0 1.55-.11 2.766-.444v-5.31c-1.218.608-1.825.774-2.82.774-3.044 0-5.368-2.544-5.368-5.366 0-2.931 2.268-5.422 5.311-5.422 1.052 0 1.937.278 2.877.831zm43.662.09h-2.868v8.413h3.06v-4.335c0-1.274.638-1.72 2.36-1.72 1.594 0 2.04.573 2.04 2.167v3.888h3.124v-4.461c0-1.212.956-1.594 2.422-1.594 1.403 0 2.04.383 2.04 1.594v4.461h3.06v-4.972c0-2.485-1.53-3.634-4.335-3.634-2.423 0-3.316.893-3.635 1.849-.638-1.084-1.53-1.849-3.953-1.849-2.295 0-2.933.765-3.315 2.168V10.95zm20.594 0h-2.869v8.413h3.06v-4.335c0-1.274.765-1.72 2.295-1.72 1.594 0 2.04.51 2.04 2.167v3.888h3.125v-4.461c0-1.212.893-1.594 2.36-1.594 1.402 0 2.103.446 2.103 1.594v4.461h3.06v-4.972c0-2.485-1.53-3.634-4.335-3.634-2.422 0-3.252.829-3.633 1.849-.639-1.084-1.532-1.849-3.954-1.849-2.23 0-2.805.765-3.251 2.168V10.95zm219.917 9.014h-2.592v2.997h-6.086v-2.997h-11l.03-4.363 8.71-8.66h8.346v9.476h2.592zm-8.677-3.547v-5.31l-5.274 5.31zm-19.455 2.18v-1.166c0-.413-.136-.673-.408-.783-.27-.11-.859-.166-1.763-.166h-1.174c-.905 0-1.498.051-1.778.155-.282.102-.422.367-.422.793v1.167c0 .442.14.717.422.826.28.11.873.166 1.778.166h1.174c.924 0 1.517-.055 1.779-.166.26-.108.392-.383.392-.825z" fill="#fff"/></g></svg>
