<svg width="740pt" height="140pt" viewBox="0 0 740 140" xmlns="http://www.w3.org/2000/svg"><path d="M89.79 9.5c3.78 0 7.56-.01 11.34 0 12.22 35.51 24.67 70.94 36.91 106.44 12.25-35.5 24.7-70.93 36.92-106.44 3.61 0 7.23 0 10.84-.02-13.8 40.39-27.86 80.71-41.47 121.16-4.06.21-8.12.08-12.18.09C118.06 90.31 103.93 49.9 89.79 9.5zM280.03 9.48c13.6.06 27.2-.04 40.8.05 9.01.57 18.8 2.58 25.26 9.39 5.22 5.22 6.81 12.94 6.67 20.08-.13 7.57.87 15.69-3.01 22.58-4.28 7.96-13.35 11.66-21.82 13.18 10.49 18.56 20.82 37.21 30.96 55.96-3.94.05-7.89.02-11.83.04C337.2 112.72 327.1 94.8 316.82 77c-8.78.03-17.56-.05-26.34.04.06 17.9-.01 35.79.03 53.69-3.5.03-7 .02-10.5.02 0-40.42-.04-80.84.02-121.27m10.48 8.27c-.02 17 .01 33.99-.02 50.99 8.53 0 17.07.15 25.6-.3 6.85-.49 14.23-1.16 19.99-5.28 4.79-3.39 6.21-9.63 5.94-15.18-.32-7.3 1.27-15.42-3.16-21.82-4.36-6.38-12.71-7.89-19.9-8.32-9.48-.21-18.97-.03-28.45-.09zM378.3 24.34c8.55-9.32 21.04-14.78 33.67-14.85 28.42.03 56.84-.02 85.26.02-1 2.73-2.06 5.44-2.78 8.26-23.83-.05-47.67-.01-71.5-.02-13.42.21-27.24 4.74-36.69 14.58-11.65 11.83-16.27 29.39-14.31 45.64 1.51 13.57 7.49 27.12 18.29 35.82 7.19 5.9 16.53 8.77 25.78 8.72 14.16-.07 28.33.09 42.49-.09-1.4 2.51-2.12 5.31-3.01 8.02 2.24-.05 4.5-.11 6.75.01-16.09.64-32.21.13-48.3.31-13.34.35-26.83-5.06-35.82-15.01-11.77-12.76-16.65-30.67-16.14-47.76.38-15.76 5.49-31.9 16.31-43.65zM506.05 9.25c3.86 0 7.72-.01 11.58.02 14.26 40.49 28.54 80.98 42.84 121.46-32.09.04-64.19.02-96.28.01 13.96-40.49 27.98-80.97 41.86-121.49m5.79 15.71c-10.89 32.15-22.09 64.19-33.12 96.29 22.38-.01 44.76.02 67.15-.01-11.39-32.08-22.63-64.21-34.03-96.28zM662.02 9.49c22.98.01 45.97.02 68.95-.01.03 2.76.03 5.52.02 8.27-19.5-.01-38.99 0-58.48 0-.01 15.83-.01 31.67 0 47.5h49.23c.03 2.69.03 5.38-.08 8.07-16.39-.16-32.77-.02-49.15-.07-.02 16.41-.01 32.83-.01 49.25 19.5-.01 38.99.01 58.49-.01.01 2.75.01 5.51 0 8.26-22.99 0-45.99-.01-68.98 0-.01-40.42-.03-80.84.01-121.26zM9.25 130.75c.04-40.44-.08-80.87.07-121.3 23.06.12 46.12.01 69.18.05 0 2.75 0 5.5-.01 8.26C59 17.74 39.5 17.75 20 17.75v47.5c16.33 0 32.66.01 48.99 0 .01 2.66.01 5.33.01 8-16.33 0-32.66.01-48.99 0-.02 16.41-.01 32.83-.01 49.25 19.5 0 39-.01 58.5 0 0 2.75 0 5.5-.01 8.26-23.08-.02-46.16 0-69.24-.01zM197.75 9.5c23-.01 45.99.01 68.99-.01.01 2.75.01 5.51.01 8.26H208.5c0 15.83 0 31.67.01 47.5 16.33.01 32.67-.02 49 .02-.01 2.66-.01 5.32-.01 7.98-16.34.01-32.67-.02-49.01.01.02 16.41.01 32.82.01 49.23 19.41.01 38.82.02 58.23 0 .02 2.75.02 5.5.02 8.26-23.01-.03-46.02.05-69.02-.04.05-40.4 0-80.81.02-121.21zM572.24 9.51c13.93-.02 27.85-.02 41.77 0 9.77.46 20.15 3.15 27.11 10.43 5.48 5.5 7.79 13.47 7.64 21.09-.03 17.33 0 34.65-.01 51.97-.07 5.02.38 10.13-.95 15.03-1.64 7.39-6.68 13.82-13.28 17.45-6.55 3.57-14.06 5.04-21.46 5.27-13.6.01-27.21 0-40.81 0-.01-40.42.01-80.83-.01-121.24M583 17.75V122.5c9.31-.03 18.63.05 27.94-.03 7.11-.3 14.83-1.34 20.41-6.17 4.45-3.72 6.56-9.59 6.65-15.27.01-20.34-.02-40.68.01-61.02.01-6.44-2.57-13.25-8.01-17.01-5.46-3.97-12.41-5.04-18.99-5.25-9.34-.01-18.67 0-28.01 0z"/></svg>
