<svg xmlns="http://www.w3.org/2000/svg" width="600" height="200"><path fill="#E72A0F" d="M103.176 164.692c-35.738 0-64.819-29.075-64.819-64.819S67.438 35.05 103.176 35.05c35.737 0 64.813 29.079 64.813 64.823 0 35.744-29.076 64.819-64.813 64.819zm0-118.659c-29.693 0-53.844 24.15-53.844 53.841 0 29.693 24.151 53.847 53.844 53.847 29.689 0 53.841-24.154 53.841-53.847 0-29.691-24.151-53.841-53.841-53.841zM236.475 164.692c-31.651 0-57.408-25.751-57.408-57.397V44.251a5.499 5.499 0 015.495-5.49c3.023 0 5.482 2.463 5.482 5.49v63.044c0 25.597 20.829 46.426 46.43 46.426 25.6 0 46.426-20.829 46.426-46.426V44.251a5.492 5.492 0 015.489-5.49 5.498 5.498 0 015.487 5.49v63.044c0 31.646-25.748 57.397-57.401 57.397zM367.219 162.064c-3.021 0-5.488-2.459-5.488-5.482v-28.371l-.059-.002c-29.073-2.818-51.85-27.884-51.85-57.075V44.251a5.49 5.49 0 015.482-5.49 5.495 5.495 0 015.488 5.49v26.883c0 25.603 20.822 46.429 46.426 46.429 25.599 0 46.424-20.826 46.424-46.429V44.251a5.498 5.498 0 015.488-5.49 5.493 5.493 0 015.484 5.49v26.883c0 29.19-22.773 54.264-51.853 57.075l-.06.002v28.371a5.485 5.485 0 01-5.482 5.482zM545.608 162.064a5.49 5.49 0 01-5.485-5.482v-33.611h-92.856v33.611a5.49 5.49 0 01-5.483 5.482 5.492 5.492 0 01-5.488-5.482V96.166c0-31.649 25.748-57.405 57.396-57.405 31.653 0 57.403 25.755 57.403 57.405v60.417a5.489 5.489 0 01-5.487 5.481zm-5.485-50.068v-15.83c0-25.6-20.831-46.427-46.433-46.427-25.599 0-46.424 20.827-46.424 46.427v15.831h92.857z"/></svg>
