<svg xmlns="http://www.w3.org/2000/svg" width="567.927" height="113.032" viewBox="0.25 0 567.927 113.032"><path fill="#777" d="M165.884 28.918v57.54h10.078V35.095h6.186c4.461 0 6.475.12 7.233.438 1.496.625 3.036 2.529 3.667 4.521.331 1.047.604 3.313.701 5.831.2 5.154-.398 8.356-1.971 10.433-1.641 2.168-2.645 2.51-7.284 2.51h-3.982v6.246l6.257-.121 6.258-.121 2.214-1.047c4.045-1.908 6.982-5.811 8.167-10.84.662-2.808.652-9.086-.021-12.099-.646-2.896-1.991-5.813-3.504-7.579-.633-.738-1.857-1.797-2.712-2.347-2.933-1.882-4.062-2.001-18.356-2.001h-12.931zm44.535 0v57.54h10.077v-57.54h-10.077zm126.372 0c-4.514.001-9.158.16-10.32.346-2.623.418-5.682 1.805-7.416 3.372-1.748 1.579-3.234 3.949-4.043 6.44-.502 1.548-.66 2.959-.68 5.933-.029 4.103.316 5.851 1.727 8.614.916 1.798 3.361 4.393 5.039 5.363 1.949 1.13 4.441 1.728 8.729 2.072 3.26.265 4.02.426 5.08 1.129.834.551 1.563 1.453 2.184 2.711.869 1.771.918 2.142.914 5.953-.004 3.801-.057 4.176-.896 5.771-.566 1.084-1.385 2.032-2.242 2.603l-1.354.896-8.563.103-8.555.092v6.145h9.73c5.92 0 10.412-.146 11.459-.367 3.984-.838 7.299-3.42 8.908-6.938 1.355-2.963 1.834-6.008 1.656-10.575-.188-4.816-.9-7.44-2.824-10.32-2.391-3.575-5.064-4.801-11.855-5.423-2.512-.23-5.086-.635-5.719-.904-1.398-.592-2.705-2.082-3.281-3.738-.566-1.633-.561-6.361.021-8.359.57-1.973 2.305-3.79 4.135-4.338.883-.266 3.852-.396 8.848-.396H345v-6.18h-8.209v-.005zm115.806 0v8.453h10.078v-8.453h-10.078zm-96.902 6.502l.104 20.723c.09 20.398.105 20.754.803 22.604.393 1.033 1.229 2.58 1.857 3.443 1.293 1.76 2.973 2.994 5.1 3.738 1.023.359 2.764.498 6.064.51l4.633.02v-6.176h-3.027c-2.881 0-3.068-.039-3.891-.895-.508-.529-1.006-1.563-1.207-2.52-.221-1.033-.313-6.406-.256-14.791l.092-13.166 5.445-.092 5.445-.092V42.57h-11.052v-7.15h-10.11zm69.596 0v20.469c0 19.797.023 20.54.672 22.512.771 2.348 2.338 4.672 4.043 5.973.65.498 1.939 1.166 2.863 1.482 1.289.445 2.73.582 6.156.59l4.469.01V80.28h-2.885c-2.41 0-3.02-.104-3.727-.662-.467-.365-.996-1.205-1.18-1.867-.205-.74-.336-6.584-.336-15.105V48.748h11.072l-.094-3.007-.092-3.008-5.445-.09-5.439-.093v-7.13h-10.077zm-8.889 7.069l-10.758.174c-11.568.178-12.766.32-16.162 2.042-3.799 1.925-6.447 5.663-7.648 10.788-.502 2.138-.59 3.979-.59 12.109 0 9.23.027 9.661.742 11.428 1.441 3.561 3.586 5.76 6.674 6.826 1.361.471 2.781.58 7.457.588l5.771.012v-6.178h-4.043c-3.828 0-4.088-.047-4.998-.813-.602-.506-1.092-1.35-1.32-2.256-.453-1.793-.475-15.938-.031-19.361.631-4.865 1.727-7.146 4.014-8.371.787-.42 2.146-.57 5.977-.67l4.957-.132V86.456H416.844V74.315c0-6.674-.104-16.566-.225-21.982l-.217-9.844zM263.73 42.5l-10.808.162c-11.746.181-13.433.396-16.64 2.113-3.725 1.994-6.385 5.936-7.508 11.123-.713 3.295-1.047 16.791-.498 20.054.48 2.846 1.811 5.713 3.404 7.334 1.172 1.192 3.117 2.368 4.743 2.864.447.138 3.481.259 6.745.272l5.932.031V80.28h-4.154c-4.687 0-5.303-.221-6.187-2.234-.395-.896-.549-2.662-.65-7.416-.146-6.756.324-14.085 1.056-16.52.657-2.185 1.881-3.863 3.321-4.57 1.052-.516 2.019-.613 6.125-.62l4.875-.011.082 18.773.082 18.771h10.078v-21.98l.002-21.973zm10.85.071c-2.928 0-5.319.037-5.313.082.004.045 3.346 9.857 7.426 21.811l7.416 21.738-4.176 10.771c-2.295 5.927-4.175 10.817-4.175 10.868s1.993.051 4.429 0l4.43-.092 12.951-32.508c7.127-17.879 12.963-32.542 12.963-32.588.002-.045-2.102-.082-4.684-.082-3.404 0-4.766.113-4.947.408-.137.223-2.627 6.543-5.525 14.049-2.896 7.504-5.396 13.688-5.564 13.744-.17.057-2.473-6.266-5.107-14.049l-4.796-14.152h-5.328zm178.017 0v43.884h10.078V42.571h-10.078zm60.951.162l-.094 21.861h.012l-.092 21.861H523.786V48.676l4.957.133c5.262.137 6.141.356 7.619 1.939 1.156 1.24 1.984 3.499 2.354 6.439.191 1.539.348 8.603.348 16.011v13.258h10.074l-.01-12.922c-.002-13.705-.242-16.957-1.563-20.673-1.797-5.053-5.104-8.049-10.482-9.508-1.779-.483-3.68-.567-12.811-.59l-10.724-.03zm-25.478.092c-2.842 0-5.674.357-7.709 1.057-2.709.932-4.41 2.023-6.117 3.921-1.852 2.06-3.193 4.849-3.98 8.259-.479 2.09-.596 3.845-.564 8.938.023 5.358.133 6.729.711 8.849.979 3.596 2.26 6.017 4.205 7.985 1.916 1.938 4.748 3.422 7.936 4.146 1.434.324 3.422.427 6.461.345 5.238-.14 7.73-.814 10.787-2.904 2.563-1.752 4.5-4.517 5.598-7.996 1.57-4.967 1.846-13.155.641-19.198-.586-2.936-2.01-6.119-3.598-8.056-1.492-1.821-3.936-3.418-6.551-4.287-2.117-.702-4.978-1.059-7.82-1.059zm.123 6.054c1.475 0 2.953.285 4.113.873 1.514.768 2.465 2.104 3.291 4.632.541 1.653.676 3.158.803 8.625.166 7.142-.162 10.507-1.27 13.043-.781 1.793-2.045 3.187-3.434 3.779-.596.254-2.156.446-3.605.446-2.055 0-2.844-.146-3.992-.75-.902-.478-1.773-1.295-2.336-2.204-1.469-2.371-1.953-5.48-1.973-12.484-.016-6.668.328-9.347 1.557-12.06.416-.92 1.256-2.043 1.879-2.52 1.184-.903 3.07-1.38 4.967-1.38zM559.435 83.913h.77v-2.836h1.756c.48 0 .795.078.939.232.139.148.229.492.268 1.031l.068.836c.012.16.027.293.055.4.021.113.063.228.117.334h.807v-.209a.52.52 0 0 1-.135-.205 1.15 1.15 0 0 1-.072-.352l-.07-.973c-.047-.473-.107-.797-.188-.973a.79.79 0 0 0-.611-.477c.311-.07.555-.244.742-.525.189-.285.283-.633.283-1.039 0-.334-.068-.625-.207-.871a1.566 1.566 0 0 0-.617-.635 2.156 2.156 0 0 0-.777-.234 9.378 9.378 0 0 0-.914-.035h-2.209v6.527h-.004v.004zm.772-3.538v-2.289h1.557c.307 0 .523.008.662.021.205.033.369.094.488.176a.916.916 0 0 1 .328.367c.08.158.121.334.121.525 0 .434-.121.738-.367.922-.246.186-.648.273-1.207.273l-1.582.005z"/><path fill="#777" d="M555.466 80.648a6.356 6.356 0 0 1 6.287-6.354.821.821 0 0 1 .07-.004 6.358 6.358 0 0 1 6.354 6.358h-.002a6.352 6.352 0 0 1-6.354 6.354 6.353 6.353 0 0 1-6.355-6.354zm2 0a4.36 4.36 0 0 0 4.357 4.356 4.365 4.365 0 0 0 4.354-4.356 4.364 4.364 0 0 0-4.227-4.354h-.129a4.359 4.359 0 0 0-4.355 4.354zm3.953-4.442a1.05 1.05 0 0 1 .039.017.852.852 0 0 1-.17-.087l-.039-.024c.061.041.12.073.17.094zm-.47-.431l-.004-.008.004.008zm-.012-.021l-.006-.01.006.01zm-.113-.466c0-.113.021-.227.059-.332a.825.825 0 0 0-.059.332z"/><path fill="#DE0029" d="M80.521 23.506l-.099 89.525-23.986-7.801V0l30.618 8.096c19.6 5.267 31.592 15.507 31.398 33.45-.195 20.873-9.849 29.257-28.667 23.796V24.188c-.002-4.976-9.264-5.267-9.264-.682z"/><path fill="#F3C202" d="M45.416 87.87l-11.31 3.805c-7.315 2.537-13.555-3.412-6.827-5.854l5.46-1.947-20.575-6.537C5.826 79.485-.124 84.067.268 90.505c.39 6.533 15.31 8.097 26.815 9.947 10.726 1.754 20.477.779 29.351-2.342v-6.73l-11.018-3.51zm35.2 25.162l20.965-7.313-21.16-6.729v13.557l.195.485z"/><path fill="#326DB3" d="M136.394 93.431l.39-.099c9.166-3.219 13.066-7.707 12.091-11.898-1.56-7.021-12.773-10.826-30.033-12.094-12.384-.877-24.572 1.854-36.468 5.947l-1.95.686 21.355 6.633 12.48-4.197c13.067-2.436 18.333 1.854 5.755 5.854l-6.242 2.146 22.622 7.022zM56.436 62.418l-9.459 3.217 9.46 2.926v-6.143z"/><path fill="#00AA9E" d="M101.582 105.717l34.812-12.287-22.624-7.021-33.348 11.41v1.17l21.16 6.728zM56.436 84.165L45.417 87.87l11.02 3.512v-7.217zm23.985 5.755V75.975l21.355 6.631-21.355 7.314zM32.74 83.874l23.696-8.484v-6.826l-9.459-2.928-34.324 11.605c-.097 0-.292.096-.487.096l20.574 6.537z"/></svg>