<svg xmlns="http://www.w3.org/2000/svg" width="100" height="101" viewBox="0 0 80 80.8"><path d="M40.075.424c-3.6 0-6.577.978-9.289 2.623-.044 0-.045.044-.045.088 0 .045.045.046.09.046 3.466-.756 8.71 2.221 9.2 2.533h.089c.489-.312 5.733-3.289 9.2-2.533.044 0 .088-.001.088-.046 0-.044 0-.088-.044-.088-2.711-1.645-5.69-2.623-9.29-2.623zm11.92 5.01c-.882.052-2.932.735-7.032 4.768l-.044.045s0 .045.044.045c3.6 4.266 10.534 14.444 9.201 18.666v.089c.044 0 .088 0 .088-.044a17.864 17.864 0 003.645-10.8c0-4.934-2-9.423-5.289-12.667-.044-.045-.045-.045-.089-.045a1.32 1.32 0 00-.524-.057zm-23.859.02c-.3-.013-.472.048-.55.082-.045 0-.044.044-.089.044a17.872 17.872 0 00-1.6 23.467c0 .044.045.044.09.044.044 0 .044-.044 0-.088-1.379-4.223 5.599-14.4 9.199-18.667l.045-.044c0-.045 0-.045-.045-.045-4.1-4.067-6.15-4.758-7.05-4.794zm11.939 9.282s-.045 0-.045.044c-5.333 4.045-14.488 14.089-11.688 16.933 3.111 2.756 7.244 4.4 11.733 4.4a17.74 17.74 0 0011.733-4.4c2.756-2.844-6.355-12.888-11.688-16.933 0-.044-.045-.044-.045-.044zM50.83 41.18c-1.556 0-3.022.267-4.267.756-1.289.533-2.4 1.288-3.333 2.31-.978 1.023-1.69 2.268-2.178 3.601-.489 1.333-.711 2.889-.711 4.533 0 1.644.222 3.2.71 4.533.49 1.333 1.201 2.533 2.179 3.556a10.008 10.008 0 003.333 2.311c1.245.49 2.711.755 4.267.755 1.6 0 3.022-.221 4.266-.755 1.245-.489 2.356-1.29 3.333-2.311a10.692 10.692 0 002.134-3.556c.489-1.333.711-2.889.711-4.533 0-1.689-.266-3.2-.71-4.533a10.19 10.19 0 00-2.135-3.6 9.023 9.023 0 00-3.333-2.311c-1.289-.49-2.71-.756-4.266-.756zm-49.734.49L8.52 51.935.431 63.09h3.644l6.311-8.667 6.267 8.667h3.644l-8.089-11.155 7.467-10.267H16.03l-5.644 7.778-5.645-7.778zm20.933 0v9.11h-2.8l-2 2.755h4.8v9.556h10c2.311 0 4.09-.577 5.334-1.644 1.244-1.067 1.867-2.578 1.867-4.445 0-1.155-.312-2.222-.978-3.066-.623-.845-1.511-1.556-2.711-2 1.866-1.023 2.8-2.623 2.8-4.667 0-1.644-.578-3.022-1.734-4.044-1.155-1.023-2.8-1.556-4.978-1.556zm38.445 0l7.467 10.266-8.09 11.155h3.645l6.267-8.667 6.31 8.667h3.645l-8.133-11.155 7.467-10.267h-3.645l-5.644 7.778-5.644-7.778zm-9.644 2.444c2.133 0 3.866.755 5.155 2.222 1.289 1.466 1.911 3.51 1.911 6.044 0 2.533-.622 4.533-1.911 6-1.289 1.467-3.022 2.222-5.155 2.222-2.178 0-3.867-.755-5.156-2.222-1.289-1.467-1.955-3.467-1.955-6s.666-4.533 1.955-6.044c1.29-1.467 3.022-2.222 5.156-2.222zm-25.556.355h6.133c1.2 0 2.134.267 2.756.8.667.533.977 1.289.977 2.222 0 1.111-.31 1.956-.933 2.489-.622.578-1.556.845-2.8.845h-6.133zm0 9.066h6.623c1.333 0 2.355.267 3.021.845.667.533 1.023 1.422 1.023 2.533 0 1.067-.356 1.912-1.067 2.49-.711.533-1.734.843-3.023.843h-6.577zM9.542 71.447c-.934 0-1.69.222-2.223.622-.533.4-.8.977-.8 1.689 0 .71.222 1.245.667 1.645.444.4 1.11.71 2 .888l.712.178c.71.177 1.243.356 1.51.533.267.223.4.49.4.845 0 .444-.177.8-.489 1.066-.355.222-.844.356-1.467.356-.755 0-1.332-.178-1.732-.489-.4-.311-.578-.8-.578-1.423H6.297c0 .978.312 1.734.978 2.268.622.533 1.511.755 2.623.755 1.022 0 1.866-.222 2.444-.667.578-.444.889-1.11.889-1.866 0-.667-.222-1.2-.667-1.6-.444-.4-1.156-.712-2.133-.89l-.756-.177c-.71-.133-1.2-.356-1.467-.534-.266-.177-.4-.488-.4-.888s.134-.667.445-.89c.31-.222.71-.31 1.289-.31.71 0 1.244.133 1.555.4.311.267.489.666.533 1.2h1.334c0-.845-.312-1.511-.89-2-.577-.49-1.421-.711-2.532-.711zm46.044 0c-.934 0-1.69.222-2.222.622-.534.4-.8.977-.8 1.689 0 .71.222 1.245.667 1.645.444.4 1.11.71 2 .888l.71.178c.712.177 1.245.356 1.512.533.267.223.4.49.4.845 0 .444-.178.8-.49 1.066-.355.222-.843.356-1.466.356-.755 0-1.333-.178-1.733-.489-.4-.311-.578-.8-.578-1.423h-1.29c0 .978.312 1.734.98 2.268.621.533 1.51.755 2.621.755 1.023 0 1.867-.222 2.445-.667.578-.444.889-1.11.889-1.866.089-.667-.134-1.2-.578-1.6-.445-.4-1.156-.712-2.134-.89l-.755-.177c-.711-.133-1.2-.356-1.467-.534-.267-.177-.4-.488-.4-.888s.134-.667.445-.89c.311-.222.71-.31 1.288-.31.711 0 1.245.133 1.556.4.31.267.49.666.533 1.2h1.29c0-.845-.312-1.511-.89-2-.577-.49-1.422-.711-2.533-.711zm-38.845.222v8.577h6.09v-1.2h-4.8v-2.622h4.266v-1.11H18.03v-2.49h4.8V71.67zm9.823 0v8.577h1.288v-3.51h2.49c.489 0 .844.133 1.066.355.222.222.356.622.356 1.155l.044.934c0 .49.089.845.267 1.111h1.333a3.706 3.706 0 01-.267-1.11l-.088-1.334c0-.489-.134-.845-.312-1.156a1.432 1.432 0 00-.889-.578c.445-.133.8-.4 1.023-.756.267-.355.4-.8.4-1.333 0-.755-.267-1.333-.8-1.733-.534-.4-1.245-.622-2.178-.622zm10.577 0v8.577h1.29V71.67zm5.6 0v8.577h6.134v-1.2H44.03v-2.622h4.267v-1.11H44.03v-2.49h4.845V71.67zm23.334 0l2.978 4.089-3.245 4.488h1.467l2.489-3.466 2.533 3.466h1.467l-3.245-4.488 2.978-4.089H72.03l-2.266 3.111-2.222-3.11zM27.942 72.78h2.31c.534 0 .979.133 1.245.355.267.222.445.578.445 1.023 0 .444-.134.844-.4 1.067-.267.266-.667.4-1.156.4h-2.444z"/></svg>
