<svg xmlns="http://www.w3.org/2000/svg" width="657" height="225" viewBox="-9.595 -11.5 657 225"><path d="M153.81 202.5H0l97.271-95.447L153.81 202.5zm-122-13H131l-36.461-61.553L31.81 189.5zM447.126 0L402.2 47h54.589l-80.185 142.5h-51.439L216.165 0H60.116l117.546 202.5H523.664L640.142 0H447.126zM185.147 189.5L82.693 13h125.952l101.522 176.5h-125.02zm330.998 0H391.521l87.5-155.5H432.61l20.073-21h164.984L516.145 189.5z"/><path d="M292.463 91.218L241.307 0h141.141l-89.985 91.218zM263.502 13l31.844 56.783L351.362 13h-87.86z"/></svg>