<svg xmlns="http://www.w3.org/2000/svg" height="300" width="245.865"><defs><clipPath id="a" clipPathUnits="userSpaceOnUse"><path d="M0 226.772h340.157V0H0z"/></clipPath></defs><g clip-path="url(#a)" transform="matrix(4.34856 0 0 -4.34856 -987 629.898)"><path d="M232.795 76.084a5.055 5.055 0 00-1.53-.22c-.657 0-1.249.1-1.776.305a3.918 3.918 0 00-1.353.854 3.732 3.732 0 00-.863 1.318 4.604 4.604 0 00-.302 1.692c0 .623.098 1.19.293 1.703.196.513.474.952.835 1.319s.8.65 1.315.85a4.723 4.723 0 001.732.303c.323 0 .623-.024.9-.071.277-.047.534-.115.77-.205a3.698 3.698 0 001.218-.754l-.314-.502a.324.324 0 00-.19-.145c-.078-.021-.165-.003-.26.054a8.446 8.446 0 00-.313.194 2.805 2.805 0 01-.43.219 3.532 3.532 0 01-1.415.253c-.46 0-.875-.074-1.248-.224a2.654 2.654 0 01-.95-.644 2.855 2.855 0 01-.605-1.014 3.993 3.993 0 01-.21-1.336c0-.512.073-.97.22-1.375.145-.404.354-.75.626-1.031a2.68 2.68 0 01.988-.647 3.629 3.629 0 011.304-.222c.19 0 .368.012.533.034.165.023.323.055.475.095.152.04.298.089.44.147.14.06.282.127.426.203v1.8h-1.27a.244.244 0 00-.174.062.208.208 0 00-.066.155v.626h2.507v-3.133a4.574 4.574 0 00-1.313-.663M242.657 80.033c0 .5-.068.95-.205 1.35-.137.399-.33.736-.58 1.01a2.525 2.525 0 01-.912.636 3.078 3.078 0 01-1.196.222c-.437 0-.834-.073-1.19-.222a2.562 2.562 0 01-.915-.635 2.84 2.84 0 01-.584-1.011 4.17 4.17 0 01-.205-1.35c0-.501.07-.95.205-1.347.137-.397.332-.733.584-1.008a2.53 2.53 0 01.914-.632 3.12 3.12 0 011.191-.22c.44 0 .84.074 1.196.22.357.146.66.357.911.632s.444.61.581 1.008c.137.397.205.846.205 1.347m1.133 0c0-.611-.096-1.172-.29-1.683a3.847 3.847 0 00-.82-1.318 3.66 3.66 0 00-1.273-.858 4.3 4.3 0 00-1.643-.304c-.6 0-1.147.1-1.64.304a3.666 3.666 0 00-1.27.858 3.863 3.863 0 00-.82 1.318 4.728 4.728 0 00-.29 1.683c0 .612.096 1.172.29 1.684.193.51.466.95.82 1.32.352.37.776.659 1.27.864a4.242 4.242 0 001.64.307c.6 0 1.147-.102 1.643-.307a3.686 3.686 0 001.273-.863 3.89 3.89 0 00.82-1.321c.194-.512.29-1.072.29-1.684M251.135 76.084a5.055 5.055 0 00-1.53-.22c-.657 0-1.25.1-1.776.305a3.918 3.918 0 00-1.353.854 3.732 3.732 0 00-.863 1.318 4.604 4.604 0 00-.302 1.692c0 .623.098 1.19.293 1.703.196.513.474.952.835 1.319.36.367.799.65 1.315.85a4.723 4.723 0 001.732.303c.323 0 .623-.024.9-.071.277-.047.534-.115.769-.205a3.698 3.698 0 001.219-.754l-.314-.502a.324.324 0 00-.191-.145c-.077-.021-.164-.003-.26.054a8.446 8.446 0 00-.312.194 2.805 2.805 0 01-.43.219 3.532 3.532 0 01-1.415.253c-.46 0-.875-.074-1.248-.224a2.654 2.654 0 01-.951-.644 2.855 2.855 0 01-.604-1.014 3.993 3.993 0 01-.21-1.336c0-.512.073-.97.219-1.375.146-.404.355-.75.627-1.031a2.68 2.68 0 01.988-.647 3.629 3.629 0 011.304-.222c.19 0 .368.012.533.034.165.023.323.055.475.095.152.04.298.089.439.147.14.06.283.127.427.203v1.8h-1.27a.244.244 0 00-.174.062.208.208 0 00-.065.155v.626h2.506v-3.133a4.574 4.574 0 00-1.313-.663M254.37 76.582a.721.721 0 00.428.66.69.69 0 00.279.057.734.734 0 00.661-.439.705.705 0 000-.56.738.738 0 00-.154-.225.722.722 0 00-.507-.205.722.722 0 00-.28.054.66.66 0 00-.224.15.704.704 0 00-.202.508M263.387 77.64a.206.206 0 00.159-.073l.439-.473a3.507 3.507 0 00-1.216-.906c-.477-.216-1.053-.324-1.73-.324-.584 0-1.115.1-1.594.305a3.5 3.5 0 00-1.224.854c-.338.367-.6.806-.786 1.318a4.935 4.935 0 00-.28 1.692c0 .616.098 1.179.29 1.692.195.512.467.953.819 1.32.35.37.77.655 1.26.859.49.203 1.032.304 1.625.304.58 0 1.093-.093 1.537-.28a3.875 3.875 0 001.174-.756l-.365-.507a.304.304 0 00-.088-.094.255.255 0 00-.146-.037c-.068 0-.151.037-.25.11a3.795 3.795 0 01-.388.248 2.936 2.936 0 01-.597.248 2.991 2.991 0 01-.883.11c-.422 0-.807-.071-1.156-.218a2.515 2.515 0 01-.903-.635 2.927 2.927 0 01-.59-1.014 4.06 4.06 0 01-.211-1.35c0-.508.074-.962.22-1.361.146-.4.346-.736.598-1.011.252-.275.55-.485.894-.63a2.854 2.854 0 011.113-.216c.244 0 .463.014.659.043.195.029.375.073.54.134.166.06.32.138.462.23.142.093.283.205.424.334a.294.294 0 00.194.085M271.893 80.033c0 .5-.068.95-.205 1.35-.137.399-.33.736-.581 1.01a2.525 2.525 0 01-.911.636 3.078 3.078 0 01-1.196.222c-.437 0-.834-.073-1.191-.222a2.562 2.562 0 01-.914-.635 2.84 2.84 0 01-.584-1.011 4.17 4.17 0 01-.205-1.35c0-.501.069-.95.205-1.347.137-.397.332-.733.584-1.008a2.53 2.53 0 01.914-.632 3.12 3.12 0 011.19-.22c.44 0 .84.074 1.197.22.357.146.66.357.91.632.252.275.445.61.582 1.008.137.397.205.846.205 1.347m1.133 0c0-.611-.096-1.172-.29-1.683a3.863 3.863 0 00-.82-1.318 3.66 3.66 0 00-1.273-.858A4.3 4.3 0 00269 75.87c-.6 0-1.147.1-1.641.304a3.666 3.666 0 00-1.27.858 3.863 3.863 0 00-.82 1.318 4.728 4.728 0 00-.29 1.683c0 .612.097 1.172.29 1.684.194.51.467.95.82 1.32.353.37.777.659 1.27.864a4.242 4.242 0 001.64.307c.6 0 1.148-.102 1.644-.307a3.686 3.686 0 001.273-.863c.353-.371.626-.811.82-1.321.194-.512.29-1.072.29-1.684M279.165 78.617l.125-.298c.038.102.078.204.12.304.04.1.087.197.136.287l2.769 5.02c.045.086.095.14.15.158a.739.739 0 00.23.028h.816v-8.16h-.97v5.996a5.917 5.917 0 00.024.536l-2.797-5.104c-.087-.17-.22-.256-.398-.256h-.16c-.178 0-.311.086-.398.256l-2.86 5.121a6.323 6.323 0 00.035-.553v-5.997h-.97v8.161h.816a.713.713 0 00.228-.028c.053-.019.104-.072.153-.159l2.82-5.024c.045-.09.089-.187.13-.288" fill="#333"/><path d="M243.818 110.312h-6.577a.931.931 0 01-.93-.935s.002 0 .002-.006h-.002v-4.693h.002l-.002-.004c0-.514.414-.937.93-.937h6.577v-3.131h-8.207v.008a2.426 2.426 0 00-2.429 2.425v7.98a2.425 2.425 0 002.429 2.418h8.207zM246.192 119.026a2.46 2.46 0 00-2.462-2.463h-10.555v3.173h8.9c.524 0 .944.428.944.95v10.487c0 .523-.42.947-.945.947H237.292a.944.944 0 01-.944-.947V126.4c0-.524.42-.949.944-.949h3.82v-3.173h-5.476a2.458 2.458 0 00-2.461 2.461v8.094a2.46 2.46 0 002.46 2.462h8.096a2.462 2.462 0 002.462-2.462zM277.298 100.614h-3.128v9.698h-2.198a.931.931 0 01-.931-.935v-8.763h-3.128v9.698h-2.199a.932.932 0 01-.932-.935v-8.771h-3.127v10.413a2.422 2.422 0 002.426 2.418h13.217zM277.307 119.026a2.46 2.46 0 00-2.461-2.463h-10.557v3.173h8.9c.526 0 .948.428.948.95v10.487a.946.946 0 01-.948.947h-4.783a.945.945 0 01-.94-.947V126.4c0-.524.423-.949.94-.949h3.82v-3.173h-5.474a2.46 2.46 0 00-2.463 2.461v8.094a2.461 2.461 0 002.463 2.462h8.094a2.463 2.463 0 002.46-2.462zM258.569 131.166V126.401a.938.938 0 00-.936-.95h-4.781a.946.946 0 00-.945.95V131.174c0 .523.42.946.945.946H257.632a.936.936 0 00.937-.946zm.72 4.129h-8.097a2.46 2.46 0 01-2.46-2.462v-8.094a2.458 2.458 0 012.46-2.461h8.098a2.462 2.462 0 012.46 2.461v8.094a2.463 2.463 0 01-2.46 2.462M256.022 109.371v-4.693a.933.933 0 00-.928-.937c-.005 0-.006.005-.011.005v-.005h-4.692v.005s-.005-.005-.01-.005a.933.933 0 00-.93.937v4.699c0 .516.414.935.93.935h4.713a.93.93 0 00.928-.935zm.703 4.066h-7.976a2.423 2.423 0 01-2.427-2.418v-7.98a2.425 2.425 0 012.427-2.425h7.976a2.425 2.425 0 012.424 2.425v7.98a2.424 2.424 0 01-2.424 2.418" fill="#333" fill-rule="evenodd"/><path d="M282.308 95.163c0-.806-.325-1.53-.853-2.06a2.898 2.898 0 00-2.057-.85h-48.315a2.907 2.907 0 00-2.91 2.91v45.578c.002.805.325 1.528.853 2.057a2.901 2.901 0 002.057.852h48.315a2.903 2.903 0 002.057-.852 2.896 2.896 0 00.853-2.057zm-.004 48.485a4.094 4.094 0 01-2.906 1.204h-48.315a4.094 4.094 0 01-2.906-1.204 4.1 4.1 0 01-1.206-2.907V95.163a4.1 4.1 0 011.206-2.908 4.1 4.1 0 012.906-1.205h48.315a4.1 4.1 0 012.906 1.205 4.1 4.1 0 011.206 2.908v45.578a4.1 4.1 0 01-1.206 2.907" fill="#333"/></g></svg>