<svg xmlns="http://www.w3.org/2000/svg" height="817.333" width="1057.333">
    <path d="M.667 816.667h1056v-816H.667z" fill="#231f20" />
    <path d="M1056.667 816.667H.667v-816h1056z" fill="none" />
    <path d="M230.4 291.24c1.36.333 2-1.067 3-1.667 1.6-.96 16.627-5.666 16.787-5.84 1.52-1.506-.76-5.186.546-6 1.4-.88 4.347-.466 5.507-1.16 5.8-3.48 14.52-3.64 20.173-7.173 1.734-1.093 3.374-3.947 5.16-4.667 3.68-1.466 8.2-1.413 12.174-3 2.053-.826 2.613-4.08 3.84-5.506 2.32-2.707 4.92-3.307 7.666-5.494 3.947-3.173-15.146.627-8.173-6.346 6.693-6.694 33.733-4.054 36.347-6.667l.493-.827c1.827-1.826 6.333.36 6.333-4.666v-1.667c-.213-.147-17.386 1.68-18.666 2-11.214 2.8-25.667 1.507-36.174 4.667-4.546 1.36-27.973 5.053-29.693 6.773l-4.147 2.893c-19.493 3.894-39.186 6.08-58.693 9.334-9.667 1.613-23.787 2.053-32.227 4.866-7.706 2.574-20.12 3.174-27.786 5.307-6.027 1.68-23-1.947-28.334.333-1.226.52-2.48 6.52-1.666 7.334.72.733 2.933.546 3.826 1.173.787.547 2.174 1.24 1.667 2.493-.68 1.694-7.547-.32-9.333 2.667-2.173 3.627 5.52 8.64 6.84 10.84 2.026 3.373-5.947 4.893-4.174 9.333h3.334c1.666 0 3.08.534 4.173 2.174l1.454 1.16c3.186 4.506 77.4-8 77.4-8s-21.68 184.973-109.36 194.72c-20.014 2.226-41.254-23.48-42.68-24.014-1.32-.493-3.894-.613-4.747.027-.853.653-1.8 4.667.84 7.667 9.973 11.346 39.653 35.706 69.253 34.986C193.387 507.081 230.4 291.24 230.4 291.24"
    fill="#eb222c" />
    <path d="M272.067 372.333l-.16-.066c0-5.014 11.333-21.027 13.173-28.347v-.173c1.227-.614 1.6-4.694 2-5 3.28-2.454 8.56-14.054 13.507-19l5.333-5.174c.36-.36 1.133-.693 1.493-.333.867.867-.2 16.307-.493 17.813-.96 4.76.6 19.694-.333 21.867-1 2.347-5.12 3.52-9.387 5.84-5.787 3.16-12.36 7.213-16.293 8-2.2.44-1.867 5-8.667 5zm-48.174 17.934v.493c0 9.347 6.507 2.84 8.667 5 .413.413-.187 4.573-.493 5.173-7.694 15.374-14.294 31.36-24.174 46.187-.586.867-.533 2.053-1 3-3.453 6.907-8.84 14.507-11.666 20.16-1.08 2.16-1.28 4.547-2.507 7.013-.133.267-.667 4.654-1 4 0 5.894-6.16 16.36-4 20.667.64 1.292.293-1.027 1-1.492 1.56-1.053 3.92-1.893 5-3.508.92-1.385 2.867-10.587 3.507-11 2.32-1.545 3.666-4.708 3.666-.507 0 1.934.094 3.2-.506 5-.254.76.253 1.76 0 2.507l-.667 1.493V496.96l.667-1 .506-1c.28-.56.094-1.187.494-2 .746-1.492.2-1.147.173-1.173 0-.014.16-.16.827-.827 1.226-1.227.266-3.773 1.506-5 .56-.573 3.32-5.307 4-6.667l3-5.506c.48-.974.8-2.695 1.494-2 3.586 3.586 2.72 13.04 1 18.173-.16.48-1.24 3.253-1 3.493.333.334.586-.786 1-1 4.706-2.346 1.253-7.413 2.506-8.666 4.8-4.8 5.547-13.546 10.507-18.507 8.333-8.333 23.907-62.08 31.84-70.013 6.293-6.294 40.227-13.56 46.68-20 4.187-4.2 4 7.546 4 9 0 4.08-.24 35.974 0 36.666 1.08 3.24 2.973 5.094 4 8.174 1.587 4.773-1.44 23.56 3.667 28.68.733.733.453-.96.506-1 .627-.64 2.494-5.094 2.494-6.174 0-1.053.253-3.746 1-3 .573.56 5.013 16.187 5.506 16.667 1.067 1.067-.173 3.16.494 4.507.36.706 1.373 1.305 1.506 1.493.2.32.334 1.347.494 1.013 1.08-2.16.68-5.36 2-8.013 1.093-2.173 1.04-7.199 2.506-8.667 2.28-2.28 5.614 5.787 6 6.174.387.386 2.107 1.893 2.507 1.493v-10.16c0-15.92 0-103.533.493-104.533.72-1.44 4.174-54.734 4.174-60.854 0-7.586-1.267-5.76-5.174-9.666-.813-.8-.346-8.347-.506-8.507l-4-3.493c-1.534-1.547-12.534 5-17 5-9.734 0-7.334 3.16-12.174 8-.253.266-.733-.24-1-.494-1.04-1.053-1-1.093-1-3v-1.506c-.746-.374-4.56 1.213-5 1.506-2.666 1.774-5.013 8.187-6.493 11.16-2.827 5.654-7.187 10.027-10.173 16.014-1.2 2.4-2.467 11.12-4 12.666-7.387 7.374-20.734 29.294-25.174 38.174-.506 1.013-2.506 8-2.506 8-2.12 2.12-12.107 19.48-13 22.173-.427 1.267-7.974 4.347-9.507 5-1.493.653-3.507.347-4.667 1.507-.72.72-.306.733-.306.76 0 .026-.134.053-.694.24M441.187 269.773l-.067-.04h.333c.987.334 2.147.267 3 .827.84.56.2-.6 1 0 1.227.933 3.627 3.48 5.334 4.347.906.44 2.48.16 3.506.16h1.334c.48 1.933 5.906 11.08 8 12.333 1.2.72 3.893.693 5.506 1.507.387.186 1.267-.027 1.667.16h.667c0 2.626-6.534 4.48-4.667 6.333 2.773 2.787 3.373 6.12-2.84 7.68-4.64 1.16-9.88-.627-14.333 1.16-5.24 2.093-10.52 6.293-16.014 7.667h-.16c-26.146 8.72-53.52 45.773-53.52 73.693v1c0 18.427 10.907 39.467 27.68 46.173 2.307.934 4.134 3.52 7 4 2.267.387 5.32 1.84 8.174 1.84 2 0 13.24 1.747 14.826.827 3.814-2.173 8.054-3.467 11.84-6 2.014-1.333.454-7.947-.333-8.333-4.28-2.147-.507-28.494 1.173-33.507 1.387-4.16 4.334-10.667 2-13l-.666-.667c-.16-.16-2.867-.706-3.174-.506-3.533 2.36-13.386.84-14.84 1.666-5.093 2.907-10.24 5.174-15.333 8-1.36.76-9.853 5.974-10.84 4-.213-.44 1.08-1.24 1.333-1.493 1.067-1.067 3.28-3.333 4.667-4.173 2.947-1.76 5.12-9.88 8.173-12.334 8.72-6.973 24.44-14.28 36.014-17.173.266-.067.706.093.826-.16l.334-.667 6.346-2.84c2.16-1.08 3.414-4.12 5.667-4.493 1.88-.32 2.667 2.16 4 2.827 4.92 2.466 10.333-2.894 10.333 2.84v4.493c-2.706 2.707-.733 9.64-2.333 12.84-.773 1.547-6.84 25.187-6.84 25.84 0 .827-2.227 10.867-2.333 11-.814 1.027-1.16 28.2-1.16 31.84 0 5.44 1.4 10.04 3 14.84.32.972 1 2.773 1 3.667 0 .586.533.628.333.84-1.08 1.08-2.467-1.56-2.84-1.667-8.773-2.507-17.227-17.067-17.507-17.173-4.426-1.774-4.173 5.76-7.666 7.506-3.267 1.628-8.134 6.067-10.454 9.16-2.666 3.56-30.413 3.306-32.893.84-3.613-3.613-10.48-3.12-14.333-6-2.2-1.653-24.467-21.545-24.84-22.84-1.08-3.786-3.667-9.346-5.507-13.013 0 0-3.853-18.413-4.707-29.84-2.8-37.333 17.92-74.187 43.387-96.027 3.64-3.12 7.653-8.92 12-10.666 5.187-2.067 9.68-3 15.173-4.827 3.894-1.307 8.694-1.933 12.174-3.68.573-.28 1.533-1.027 2.333-.827l.067.04M679.187 350.92c.228 0 1.653-5.08 2.493-6.507 3.52-5.84 7.187-13.173 11.173-18.493 3.44-4.587 20.494-26.293 16.507-6.347-.827 4.12-2.667 6.107-2.667 10.68 0 8.534-2.013 7.587-8.333 9.16-6.347 1.587-13.64 11.507-19.173 11.507zM541.48 261.227h-.667c.892.893-.666.666-.666.666-.6.6-2.854 2.587-3.334 4-.786 2.36-9.453 12.32-8 16.68-.146-.146-1.76 1.08-2 1.334-1.64 1.64-3.133 6.36-4.666 8.666-1.374 2.054-9.4 23.534-10.68 27.334-.267.84.346 3.32 0 4.013-2.6 5.213-6.014 10.707-8.667 16-3.84 7.693-6.64 21.293-11.333 30.667-3.08 6.16-6.667 22.013-8.667 34.68-1 6.318 0 16.318 0 22.013 0 2.013-.027 7.947.667 9.333.28.56 1.546 3.107 2 2.667-.707 2.12 3.213 3.213 4 4 .16.16 1.56 3.56 2 4 .04.04 1.946.72 1.333 1.333 6.36-2.12 15.507 3 24.013-2.666 1.774-1.188 15.067-9.427 15.334-9.334l2-2.666c1.92-2.894 5.64-4.627 7.333-8 1.653-3.307 8.707-14.68 12-14.68-5.441.786-1.333 32.2-1.333 36.013h1.333c0 1.453.88 6.893 2.667 6-.494 1.493 3.413 3.827 4.666 4.667 7.772 5.186 19.054-7.627 22.014-4.667.48.479-2.894 6.253-3.334 8-.401 1.573-10.373 23.707-12 25.347-1.666 1.666-6.68 7.958-6.68 10.666 0 1.827-.28 2.374.667 3.334 0 0-.213 1.56.68.666v1.334c.787-.787 2.613 3.281 2.667 3.333 1.254 1.267 8.866-2.067 8-4.667.8.799 1.186-2.4 2-2.666 3.066-1.027 3.786 2.44 4.666 2 3.134-1.56 9.334-11.375 9.334-4h1.333v-1.334c.4.2 2.387-1.146 2.667-1.333 1.773-1.173 11.4-15.545 12.666-19.333.454-1.334 3.922-5.719 4.667-5.347v-1.333c.613.613 1.293-1.28 1.347-1.334.52-.521 2.198-1.24 3.333-2 .453-.306.6-1.028 1.333-.666-.546-1.6.8-3.467 2-4.667 8.187-8.199 26.16-46.333 32.667-59.347.427-.84 9.532-13.426 10.68-14l7.333-.666c.467 0 2.587-.747 2-1.334 1.12.374 17.066-12.68 22.667-12.68-.4-.386 2.185-1.866 2.667-2 2.466-.613 4.866-2 7.333-2v-1.333c.813 0 5.561-2.44 6.68-1.333 2.612 2.626-2.68 23.786-2.68 24.013 0 1.987 2.013 9.307 2 9.333h1.347c0 9.294 1.333 18.44 1.333 28.014v2.666c.253.254 3.733-.266 4 0 3.68 3.68.612 19.947 6 25.334.187.186 0 .413 0 .666 0 1.494.719 2 2 2 0 2.454-.161 2.827-1.333 4-.162.16.666 2.107.666 3.334 1.68-.84 1.254 1.933 1.334 2 2.146 2.16-.08 6.826-1.334 9.346-.026.04-.452 4.44.667 3.334-.785 2.346 1.333.893 1.333 3.333h1.334c-.282.281 1.68 1.693 2 2.667.6 1.813 1.333 3.465 1.333 5.333h.667v2h1.333l.667 1.333v1.334c1.426 1.426 1.558-4.202.666-6-1.36-2.719.667-9.427.667-12.667 0-4.28 1.987-23.96 2.667-26.013 2.892-8.667 1.786-55.667 2.666-59.347 3.334-14 5.334-39.68 5.334-57.347 0-11.813 1.866-26.12 4.666-37.346.882-3.534 1.2-9.054 2.667-12 .427-.854 1.587-1.16 2-2 .052-.094.427-3.76-.667-2.667v-3.333H752.2c0-.227.373-3.04-.667-2v-1.347c-2.494 0-5.8-1.333-8.666-1.333-.32 0-5.948-.72-5.334-1.334H736.2c.707-.693-1.775-1.773-2.667-1.333v-1.333l-.666-.667h-2c.558-.547-1.854-1.853-2-2-1.055-1.053-.587-3.52-2-4-1.282-.427-3.055 1.627-4 .667 1.186 3.586-3.667 2.666-4.667 4.666-1.933 3.867.587 9.48-1.333 13.347l-6.667 6a.467.467 0 0 0 0 .667c-2.24 0-6.293 4.253-6.68 4 .36.346-.307.986-.667 1.333-1.24 1.24-4.36 2.72-5.333 4.667-2.013 4.026-7.893 7.8-10 12-3.467 6.933-11.573 19.133-18.667 22.68-1.253.626-3.64 7.52-5.333 6.666.387 1.16-5.053 6.107-6.013 8-2.24 4.48-9.387 18.094-12 22-1.374 2.067-5.894 3.667-5.334 5.347-.026-.027-7.173 4.453-6.666 6-1.04-.52-11.04 7.693-12 8.667-1.974 1.973-9.802 1.586-10.68 3.333-.614 1.24 3.64 7.4 2.013 10.667-1.067 2.12-4.68 2.973-4.68 5.333h3.347c3.346 0 5.266-2 8-2 .44 0 1.106-.227.666.667-1.573 3.146-20 30.893-21.346 31.346-.88.295-7.987-.653-8-.666-.788-.787-1.214-3.454-2-2.667 0-1.507-.187-12.973 0-13.347 3.4-6.786 3.226-15.786 6.666-22.666 4.574-9.134 13.907-35.187 18.014-41.347 1.066-1.6 2.574-2.347 2-4.667h.666c2.934-10.893 9.8-21.4 13.334-32.013.88-2.627 4.453-13.12 6-14.667l2.666-2c-.346-1.04 2.68-5.986 1.334-7.333-.214-.213-2.494-2.173-2-2.667h-1.334l-.666-.666v-1.334c-2.2 2.187 1.88-12.546-.667-10 0-5.386-10.96-4.666-15.333-4.666l-.667-.667v-1.333c-.507.493-1.307-.68-2-.68-1.453 0-7.12.08-8.013.68-4.36 2.906-13.867 27.213-18 31.333l-2 5.333c-.575 1.147-2.8 2.147-2 3.334h-.667c1.947 5.853-3.507 10.266-6 14.013-.467.693-4 22.133-4 25.333h-1.333c0 .6-.694 3.32-1.334 2.667.72 2.893-3.813 8.787-4.666 11.333-9.094 27.28-6.134 17.467-25.347 36.68-3.52 3.534-6.28 9.08-10.667 12-2.213 1.482-4.08 2.08-6 4a.467.467 0 0 0 0 .667h-1.333c.973.975-4.867 2.481-4 3.347-.307-.107-8.48 8.426-14.68 5.333-8.32-4.16 7.613-34.52 6.68-37.347.04.054 1.853-1.706 2.667-3.333 1.8-3.627 1.12-10.027 3.333-13.333 5.133-7.707 10.667-10.88 10.667-22.014l.666-1.333h1.334c-.04-.08 1.333-2.733 1.333-4 .187.187.48.187.667 0l3.333-3.333c3.547-3.547 3.787-10.24 6-14.667 1.133-2.267 4.96-3.92 6-6 .935-1.88-.813-7.72.667-10.68.225-.44 1.426-3.24 2-2.667-.454-1.36 12.04-17.92 11.346-19.333h1.334c-.774-1.547 6-13.493 6-14h-1.334v-1.333c-.986.973-3.506-3.507-4-4.014a.492.492 0 0 0-.666 0v-1.333h-1.334c.879-.88-.666-.667-.666-.667-.054-.04-.48-4.186-1.347-3.333 0-1.507-2.108-6.347-2-6.667h-1.333c2.533-5.053-7.88-3.586-10.667-2.666-1.507.506-4.987 4.68-6 4M749.16 507.893c-.2 0-.121-.4-.121-.6v-3.333c0-2.467 2.814-6.853 2.161-7.492-6.281-6.281 7.08-24.72 10.347-32.348.346-.827-.267-7.413 0-7.667.201-.212 2.534-1.013 2.158-1.666-.666-1.16-1.957-4.48-1.158-6.334.626-1.466 2.773-2.093 3.333-3.346 1.545-3.467 1.187-5.692 3.159-8.667.348-.521.361-3.107 1.174-4.333.52-.787.507-1.855 1-2.667 1.56-2.613 4.039-2.707 4.826-5.333 1.401-4.667-1.132-10.64 0-13.507 2.121-5.307 9.868-31.093 11.348-33l1.666-2.173c3.014-3.934.092-8.827 1.667-12.507 1.613-3.773 3.667-7.72 5.827-11.333 1.186-1.974 1.466-9.707 4.333-14.507.333-.533 2.32-10.187 1.667-10.827-.799-.813-3.36 2.68-4.334 3.334-1.693 1.133-3.6.933-5.333 2.666-.533.534-16.88 4.067-15.667-1.173-.28.28-2.013-1.427-2.174-1.493-1.466-.64-.879.346-2.667-.667-.212-.133-5.29-.307-5.492-.507-3.613-3.6-3.6-4.986-8.013-7.506-1.108-.627-.187-1.267-2.162-.667.495-.36-1.638-.96-1.666-1-.866-.853.521-7.68 1-8.16 3.333-3.333 15.201-10.52 13.508-16.173 1.226-.534.173-.014 1.158-1 .322-.32 2.948-1.827 3.842-2.174 2.68-1 9.08-2.64 11.333-4.333 1.427-1.067 2.387-1.333 4.333-2.16 7.932-3.4 15.72-6.133 24.174-8.667 1.813-.546 2.361-2.546 4.333-3.346 1.56-.614 4.652-.547 6-1.494l1.667-1.173c8.652-6.04 31.318-3.333 35.68-5.827 2.733-1.56 5.493-5 7.506-6 3.28-1.64 39.16 3.894 41.679 5.334 4.215 2.4 6.575 2.4 9.667 5.493.188.187 3.388 4.88 4.333 4.347-.039 2.866 7.095 4 7.507 4.826 1.414 2.84 3.534 5.52 6.493 7 .375.187 1.415 3.747 1.667 4.334.961 2.226 3 4 4.333 5.333 1.948 1.947-.225 5.72 1 8.173.628 1.254-.692 5.72-.493 7-1.306 3.054.588 9.08-.466 12.534-2.72 8.84-6.481 14.693-12.041 22.64-3.44 4.92-9.199 5.92-11.837 9.68-.468.666-1.522 4.48-2.667 4.826-2.656.8-11.881 5.547-14 7.667-1.908 1.92-4.015 3.773-6.508 4.84l-2.159.507h-1.174c0 .346 11.64 10.96 12.508 11.826 6.478 6.48 9.772 16.787 15.17 22.174 3.775 3.786 9.548 8.573 12.84 13.506.135.214.415-.093.667 0 14.975 5.986 30.375 27.907 44.175 34.014-.348.6 2.906 3 3.333 3.333 2.187 1.68 7.28 6.573 8.667 8.667 2.253 3.373 28.973 28.36 35.12 34.506.6.6 1.68 7 1.053 7.667 1.319-4.375-21.813-14.693-23.333-18.507-1.72-4.293-22.682-20.28-28.015-22.173-.199-.067-14.145-13.587-15.667-14.493-3.905-2.347-10.613-4.667-14.666-7.507-5.906-4.133-8.199-10.427-11.84-14.667-2.412-2.813-6.399-2.08-10.171-8.666-.348-.614-3.667-2.24-4.333-3.174l-1.163-1.666c-1.639-2.334-4-3.334-6-5.334-.252-.253-.625-2.358-1.504-2.84-.721-.386-4.055-2.573-3.333-3.666h-1.496c.348-.6-1.946-1.894-2.171-2.667-.295-.973-3.255-4.413-4.333-5.493-.228-.227-3.802.266-4.334 0l-2.666-1.68c-.348-.187-2.163-1-1.667-1.494-2.255 0-6.975-4.8-8.667-6.506-1.174-1.16-7.441-.774-9.174-4.827-.92-2.147-3.587-3-5.507-4.333-1.133-.8-2.627-1.4-3.16-2.667l-1-2.173c-.307-.707-.24-.814-.227-.814.026.014-.026.2-.946-.346-.614-.374-.494-.44-.494-1v-1.174V372.76l1 1 .667 1.667c.373 1.226.493 1.08.493 2.666 0 1.587.56 3.347 1.667 4.334 2.707 2.44 5.667 4.933 8 7.666 2.412 2.814 7.96 6.8 10.84 9.68 5.667 5.654 14.707 10.867 21.679 17.827 2.893 2.907 3.786 5.293 5.829 8.013.159.2-.228.534 0 .667l6 1.493c5.212 6.094 14.225 9.68 17.837 17.84.575-.372.762.494 1 .667 2.496 1.747 7.815 6.145 8.174 8.507 1.561-.627 2.041 1.68 3.16 2.16 12.601 5.4 27.134 18.961 36.854 28.68.88.88 5.266 8.093 7 8.666 2.694.907 9.547 4.175 11.334 6.508.72.919 1.318 3.784 1.666 4.826.014.053 18.812 19.281 20.507 20.013.173.067-.053.307 0 .495.68 2.29 4.333 2.158 4.333 4.333 0 .892.812 2.319 0 2.667-.306.132-1.468-.602-1.666-1-.147-.282-12.654-12.362-13-12.495-9.054-3.627-34.695-28.853-47.014-35.013-9.561-4.787-22.88-19.879-30.681-27.68-3.865-3.866-6.107-7.094-8.667-9.667-1.052-1.053-5.318-1.787-6.504-3.173l-1.162-1.667c-10.039-4.44-15.359-12.667-23.679-15.16l-1.667-1c-.173-.093-.413.173-.492 0-.574-1.32-27.521-31.933-28.681-32.52-2.173-1.08-24.533-15.373-25.333-16.16-1.28-1.28.28-3.68 1-5.333 4.412-10.294 8.226 1.933 15.666-5.507 1.107-1.107-5.588-7.027-7-7.507-.866-.28-2.4-1.613-1.666-2.16l-1.507-.506c0-3.027.267-4.56 2.173-6 .814-.614.774-1.947 1.494-2.667 1.133-1.12 4.266 1.4 4.333 1.507 4.199 5.573 8 7.666 17.347 7.666 1.453 0 3.453.654 4.333-.506 5.973-7.974 15-24.334 21-31.334.307-.36.852-4 .508-4.346-1.055-1.04-3.055-4.574-3.667-6l-7.666-2.667c-1.215-.36-.667-.867-1-1.667-.082-.173-.323.08-.508 0-2.159-.92-7.148-3.786-7.667-4.826h-1.507c-.6 0-4.786-.174-5 0-.814.693-.44.906-.466.973-.015.027-.122.027-.534.027-18.12 0-20.88 1.986-27.506 16.333-.654 1.413-2.04 2.573-2.16 4.333-1.294.734-.975-4.693-5.507-3.333-.933.28-4.24 15.933-5.333 17.333l-7.667 9.68c-7.267 10.907-10.573 50.067-16.173 55.68-.387.387 0 1.107 0 1.667 0 7.135-1.254 11.533-3.667 17.173-.84 1.962-2.2 21.08-3.84 26-1.573 4.72-3.213 5.894-4.827 9.667-3.305 7.693 2.347 13.613-5.506 19.507-.16.121 0 .305 0 .506 0 2.427.201 7.44-1.494 8.16-.613.267-5.04-.96-5.506-1.16-.814-.346-.508-1.946 0-2.666.893-1.28 4.492-4.826 5.506-5.84.96-.96 0-6.494.494-7.667.346-.813 4.186-4.68 4.84-5.333.985-.987.893-2.68 1.666-3.84.347-.522-1.533-3.695-1.666-3.827-.174-.16.16-5.173 0-5.333-1.147-1.147-3.827 3.305-4.334 4.333-1.253 2.48-8.12 20.455-8.173 20.507-3.347 3.346-7.253 15.733-9.175 16.841-2.505 1.425-3.465-11.935-8.666-2.841-.227.413-.266 5.813-.492 6.508-.934 2.758-2.574 4-3.68 7.666v3.159c-.934.707-1.615-3.133-3.828-1.667-6.159 4.107-2.399 2.44-4.839 0-.173-.186-.413-.066-.667 0l.16.132"
    fill="#eb222c" />
    <path d="M826.453 379.48l-.066-.053c1.773 1.013 3.213-.014 4.506.506 4.654 1.854 8.88 1.267 13.334 3.494 6.188 3.093 13.386 12.52 21.346 15.173.427.147.08.947.334 1.333.852 1.374 2.746 4.08 4 5.334 3.093 3.106 13.413 16.053 16 17.346.96.479 3.666 2.16 4 3 .413 1.014 1.986 4.987 2.333 5.334 3.465 3.468 5.453 3.294 9.667 5.826.96.574 3.213 4.454 3.666 5.84.28.802 1.454.88 2.175 1.334 2.785 1.746 15.985 13.76 17.333 14.666 1.746 1.16 2.359 4.347 4.838 5.334 1.496.6 1.241 3.294 2.666 4 6.468 3.24 25.348 12.84 31.174 18.68 1.201 1.2 1.294 3.333 2.666 4.333 3.202 2.32 10.255 5 12.508 8 4.334 5.788 17.319 22.465 23.507 25.841 1.319.719 2.12.291 2.16 2.172.148-.146.373-.146.507 0 .693.694 1.946 2.427 3.173 3.162 2.707 1.624 6.173 6.705 8.333 8.505.306.268.6.227 1 .333 1.532.387 15.759 8.734 12.84 11.667-.52.507-1.773.601-2.173 0-1.64-2.453-3.733-4.773-6.333-6.333-.667-.399-2.587-.307-3-1.334-3.227-8.054-29.68-20.906-33.347-27.013-.228-.385-2.573-.44-2.667-.492-1.121-.667-5.773-2.615-5.841-2.667-2.025-2.028-4.625-5.948-6.667-7.174-4.946-2.96-16.918-16.36-18.173-16.84-7.479-2.8-13.305-9.574-21.837-13.827-1.148-.587-2.667-.68-3.496-1.667-5.346-6.413-39.679-31.8-40.012-35.68h-1.334c.175-.12-1.293-1.066-1.825-1.333-.255-.133-.641.2-.841 0l-4.507-2.667c-.293-.12-6.627-10.133-8.827-12.333l-1-1.013c-6.173-6.16-11.72-12.44-19.506-16.334-.174-.08-3.667-6.493-4.84-7.666-.135-.134-.308.053-.494 0-6.386-1.6-11.906-.934-16.506-4-1.627-1.08-2.667-6.92-2.667-10.174v-.493c0-.333-.2-.573 0-.84.267-.347 2.267-.533 1.827-.827l.066-.453"
    fill="#eb222c" />
    <path d="M1013.107 558.973c.52-.52 1.76-.106 2.173.507 1.267 1.907 3.227 2.787 4 4.827.827 2.213 5.12 1.146 6.333 3.173.614 1.027 1.08 1.2 1.667 2.173.587.974 1 1.04 1 2.334v2.16l-.507 1.333s.454.105-.493-.827c-.773-.786.44-.228-.333-1l-.507-.333c-.093-.173.145-.373 0-.507-.64-.64-.735-1.12-1.333-1.826-.48-.587-2.267-1.107-3.16-2.174-.947-1.133-3.08-1.746-4-2.666-.532-.52-6.347-4.906-7.507-5.334-4.88-1.826-8.855-4.52-12.84-8.506-3.293-3.294-17.027-10.907-18.333-14.172-.107-.255-.64.198-.842 0-1.558-1.56-2.532-2.255-4.825-3.162-1.185-.48-27.067-20.626-27.175-20.838-.158-.308-.158-.402-.145-.402.04-.026.187.267-.361-.106-6.652-4.427-12.959-11.48-20-15-.746-.375-5.667-7.814-5.667-9v-.334c-9.079-6.052-14.827-4.026-26.345-17.84-.187-.226-.04-.733-.334-.826-5.333-1.787-32.8-31.334-34.333-35.187-.92-2.267-4.92-1.893-6.173-4-1.734-2.893-1.04-4.813-3.174-8-.666-1-10.44-3.267-10.666-3.507-2.734-2.733-3.975-7.306-5.667-9-2.04-2.04-7.587-3.04-9.333-5.666-.135-.2 0-2.2 0-2.667.358.227 1.478-.933 1.666-1h6.334c2.093 1.253 9.426 7.613 11 8 6.04 1.52 11.733 2.693 16.506 6.667 6.947 5.786 4.067 9.626 7.507 16.506 2.773 5.56 30.253 30.267 36 36.014 2.2 2.186 3.64 6.88 6.345 8.506 1.042.626 7.935 1.76 8.334 2.16 2.481 2.48 6.574 4.747 8.496 6.667.705.707 1.145 4.92 1.837 5.333.975.587 11.108 9.054 11.507 9.84.322.654 1.761-.266 2.16.334 1.081 1.625 5.094 3.053 6.666 4 1.215.733 3.868 5.693 5.334 6.666.934.626 6.641 5.747 6.681 5.842.613 1.652 2.427.932 3.667 2.172 3.08 3.08 10.333 4.161 13.333 7.161 13.652 13.652 28.545 22.879 38.173 32.505"
    fill="#eb222c" />
    <path d="M270.747 562.64c0-14.732 11.933-26.667 26.666-26.667 14.734 0 26.68 11.935 26.68 26.667 0 14.733-11.946 26.68-26.68 26.68-14.733 0-26.666-11.947-26.666-26.68M358.76 562.64c0-14.732 11.947-26.667 26.68-26.667s26.667 11.935 26.667 26.667c0 14.733-11.934 26.68-26.667 26.68-14.733 0-26.68-11.947-26.68-26.68M449.453 562.64c0-14.732 11.947-26.667 26.68-26.667 14.734 0 26.667 11.935 26.667 26.667 0 14.733-11.933 26.68-26.667 26.68-14.733 0-26.68-11.947-26.68-26.68M540.147 562.64c0-14.732 11.945-26.667 26.68-26.667 14.72 0 26.666 11.935 26.666 26.667 0 14.733-11.946 26.68-26.666 26.68-14.735 0-26.68-11.947-26.68-26.68M628.173 562.64c0-14.732 11.947-26.667 26.667-26.667 14.733 0 26.68 11.935 26.68 26.667 0 14.733-11.947 26.68-26.68 26.68-14.72 0-26.667-11.947-26.667-26.68M718.867 562.64c0-14.732 11.933-26.667 26.666-26.667 14.734 0 26.68 11.935 26.68 26.667 0 14.733-11.946 26.68-26.68 26.68-14.733 0-26.666-11.947-26.666-26.68"
    fill="#f2be15" />
    <path d="M734.867 549.307v5.333h8v21.347h5.333V554.64h8v-5.333h-21.333M652.173 575.987h5.334v-26.68h-5.334zM470.8 563.973h10.667v-2.666H470.8zM386.773 571.453v5.867h5.334v-5.867h5.333v-5.878h-5.333v-17.602h-8l-10.667 17.602v5.878zm0-19.08v13.202h-8l8-13.202M578.44 568.415c0 1.438-.28 2.705-.827 3.798a7.879 7.879 0 0 1-2.198 2.72 10.685 10.685 0 0 1-3.615 1.84c-1.307.362-2.973.547-5 .547h-11.653v-29.093h10.293c2.145 0 3.76.08 4.867.241a9.463 9.463 0 0 1 3.093 1.025c1.053.56 1.827 1.308 2.348 2.255.504.932.772 2.01.772 3.239 0 1.413-.36 2.68-1.067 3.786-.705 1.107-1.694 1.92-2.946 2.454v.146c1.8.386 3.226 1.147 4.306 2.32 1.08 1.16 1.627 2.732 1.627 4.722zm-9.359-11.975c0-.467-.121-.947-.361-1.44a2.301 2.301 0 0 0-1.135-1.081c-.478-.212-1.052-.319-1.705-.344a134.38 134.38 0 0 0-2.933-.028h-.507v6.16h.907c1.253 0 2.133-.014 2.626-.04a4.354 4.354 0 0 0 1.56-.4c.587-.28.987-.654 1.215-1.147a4.12 4.12 0 0 0 .333-1.68zm1.838 11.84c0-.893-.186-1.6-.547-2.107-.372-.506-.919-.893-1.639-1.146-.453-.174-1.053-.268-1.84-.279a90.66 90.66 0 0 0-3.106-.041h-1.347V572h.387c1.906 0 3.212-.013 3.946-.04.734-.027 1.467-.212 2.227-.535.667-.278 1.147-.705 1.453-1.252.306-.56.466-1.186.466-1.893M306.907 566.067c0 3.053-.974 5.573-2.907 7.546-1.947 1.987-4.613 2.972-8 2.972-1.693 0-3.2-.252-4.533-.732-1.334-.493-2.454-1.213-3.387-2.16-1.107-1.118-1.947-2.573-2.533-4.346-.587-1.762-.88-3.879-.88-6.347 0-2.547.266-4.813.813-6.8.547-1.973 1.44-3.732 2.68-5.253 1.187-1.454 2.733-2.574 4.653-3.387 1.907-.812 4.174-1.227 6.787-1.227.96 0 1.907.067 2.867.187s1.613.228 1.96.307v5.706h-.52c-.347-.16-.907-.346-1.68-.56-.787-.214-1.68-.32-2.68-.32-2.28 0-4.04.599-5.28 1.8-1.227 1.187-2 2.907-2.28 5.132a15.32 15.32 0 0 1 2.906-1.465c.987-.361 2.094-.545 3.334-.545 1.04 0 2.026.145 2.946.425.92.28 1.734.68 2.454 1.213 1 .774 1.8 1.787 2.4 3.039.586 1.255.88 2.855.88 4.815zm-8.494 4.386c.387-.48.667-.985.867-1.534.213-.559.307-1.399.307-2.519 0-.932-.12-1.707-.347-2.319-.24-.613-.573-1.108-1-1.468a3.553 3.553 0 0 0-1.467-.746 6.64 6.64 0 0 0-1.733-.214c-.52 0-1.04.067-1.573.2a9.672 9.672 0 0 0-1.52.494l-.027.64c0 .293-.013.68-.013 1.133 0 1.667.146 3.015.44 4.027.293 1.013.666 1.786 1.106 2.306.334.414.72.707 1.16.894.44.186.894.28 1.374.28.4 0 .826-.107 1.28-.294.453-.198.84-.493 1.146-.88"
    fill="#231f20" />
</svg>