<svg xmlns="http://www.w3.org/2000/svg" width="782" height="256"><defs><linearGradient x1="17" y1="128" x2="767" y2="128" id="a" gradientUnits="userSpaceOnUse"><stop offset="0" stop-color="#f090a7"/><stop offset=".149" stop-color="#ef7b75"/><stop offset=".256" stop-color="#ee6e5e"/><stop offset=".589" stop-color="#fce72c"/><stop offset=".813" stop-color="#acdee4"/><stop offset="1" stop-color="#a3ddf2"/></linearGradient></defs><path d="M142.188 132.219c3.718 2.595 7.786 4.914 12.5 6.281l-23.094 33.969L114.063 140H130c3.259 0 6.864-.775 9.5-3.406 1.293-1.29 2.15-2.787 2.688-4.375zM45 1C29.489 1 18.012 7.41 10.969 15.75 3.925 24.09 1 33.941 1 42v55.031c.027 9.9 3.732 20.022 10.25 28.031 5.842 7.18 14.277 12.652 24.25 13.72l68.375 113.312 1.75 2.906h50.688l1.78-2.813L203 180.813v58.219c.027 3.659.79 7.528 3.375 10.781C208.96 253.066 213.389 255 218 255h147c5.337.014 10.489-1.656 15.125-3.875 1.348-.645 2.491-1.432 3.719-2.156C385.975 252.128 390.097 255 395 255h38c4.859.029 9.28-1.997 12.031-5.125.408-.464.722-.974 1.063-1.469 6.372 3.74 14.15 6.594 21.906 6.594h84.375l.344-.031c13.777-1.694 19.207-4.328 22.875-6.594 2.788 3.94 6.655 6.625 11.406 6.625h38c3.426 0 6.2-1.023 9.406-3.219C637.613 249.586 641 245.44 641 240v-62h25c1.552.003 3.597.681 4.938 1.781 1.34 1.1 2.062 2.265 2.062 4.219v56.031c.029 3.735 1.41 6.475 3.75 9.344 2.34 2.869 6.255 5.625 11.25 5.625h39c4.367 0 7.586-2.074 10.188-4.625C739.788 247.825 742 244.48 742 240v-77.375l-.063-.375c-.711-5.643-1.18-13-6.812-22.25h4.563c.106.006.206-.005.312 0 11.455.494 21.52-5.759 28.75-13.531C776.047 118.624 781 109.188 781 100V41.969c-.024-9.2-3.89-19.109-11.156-27.094C762.577 6.89 751.59 1 738 1h-85c-9.224 0-17.215 3.447-23.688 7.813-.416-.86-.762-1.727-1.375-2.563C625.972 3.564 622.37 1 618 1h-86c-7.848 0-14.175 2.286-19 4.969V1H364v77H344.938c-1.173.015-3.577-.516-4.97-1.438C338.577 75.641 338 75.028 338 73V15c0-8.471-7.429-14-15-14h-38c-4.492 0-8.222 2.257-10.688 4.969-.374.411-.575.909-.906 1.343C267.96 4.042 261.68 1 254 1h-90c-8.951 0-16.183 3.734-21.844 7.813-.592-1.35-1.476-2.543-2.594-3.72C137.428 2.847 134 1 130 1H45z" style="marker:none" fill="#fff"/><path d="M137 21c5.039-4.897 14.812-14 27-14h90c8.26 0 15.152 4.71 22 9 .307-4.013 4.025-9 9-9h38c4.541 0 9 3.44 9 8v58c0 8.079 8.125 11.06 13 11h25V7h137v11c3.038-2.938 10.912-11 25-11h86c4.455 0 6.801 4.773 7 8v5c5.999-6.283 16.4-13 28-13h85c23.799 0 36.961 20.124 37 35v58c0 13.368-16.737 34.985-35 34h-17c12.27 13.29 11.97 20.842 13 29v77c0 4.267-5.007 9-9 9h-39c-5.632 0-8.978-6.136-9-9v-56c0-7.588-6.98-11.989-13-12h-31v68c0 6.183-7.26 9-10 9h-38c-3.524 0-7.276-3.173-9-9-6.531 3.104-6.07 6.55-26 9h-84c-8.4 0-19.376-5.233-25-10 0 4.995-3.258 10.065-10 10h-38c-6.538 0-8-6.476-8-10-3.765 4.527-14.132 10.02-22 10H218c-6.504 0-8.959-4.418-9-10v-79l-56 89h-44L39 133c-18.956 0-31.955-19.3-32-36V42C7 29 17.136 7 45 7h85c4.579 0 7 3.916 7 6zm28 113c-11.936 0-21.453-6.95-28-14v7c-.123 4.94-2.199 7-7 7h-26l27 50z"/><path d="M386 131v31h-88c-10.058 0-9.496 10 0 10h58c45.187 0 45.175 67 0 67h-91v-30h87c10.412 0 9.705-10 0-10h-54c-46.435 0-46.27-68 0-68h88zm202 0h103c18.487 0 34.957 14.353 35 34v74h-37v-64c0-10.681-6.353-12.847-14-13h-50v77h-37zm-97 30.12c-9.83.059-14 6.23-14 13.88v20c0 8.308 7.144 14 14 14h41c4.861 0 13-3.291 13-14v-20c0-6.727-4.098-14.173-13-14.12zM477 131h69c21.901 0 36 14.916 36 33v40c0 28.364-24.506 35-36 35h-69c-25.918 0-37-20.853-37-35v-40c0-23.03 20.61-33 37-33zm-81 0h37v108h-37zm-178 0h37v108h-37zm-168 0h41l40 70 47-70h34l-64 108h-33.617zM380 17h117v27h-81v10h81v27h-81c0 9.927 7.292 14 15 14h66v29h-85c-19.044 0-32.14-15.809-32.095-33zm-94 0h36v64c0 9.194 6.93 14.095 15 14h39v29h-56c-15.9 0-34-7.147-34-33zm332-.002h-81c-23.305 0-32.947 21.438-33 33v40c0 25.941 21.34 35.152 33 35h81v-30h-62c-4.412 0-15-3.267-15-13v-21c0-10.003 7.53-14 15-14h62zm58 30.123c-9.83.058-14 6.23-14 13.879v20c0 8.308 7.144 14 14 14h41c4.861 0 13-3.291 13-14V61c0-6.727-4.098-14.173-13-14.12zM662 17h69c21.901 0 36 14.916 36 33v40c0 28.364-24.506 35-36 35h-69c-25.918 0-37-20.853-37-35V50c0-23.03 20.61-33 37-33zM188 47.12c-9.83.059-14 6.231-14 13.88v20c0 8.308 7.144 14 14 14h41c4.861 0 13-3.291 13-14V61c0-6.727-4.098-14.173-13-14.12zM174 17h69c21.901 0 36 14.916 36 33v40c0 28.364-24.506 35-36 35h-69c-25.918 0-36-20.853-36-35V50c0-23.03 19.61-33 36-33zm-43 0H50c-23.305 0-32.947 21.437-33 33v40c0 25.941 21.34 35.152 33 35h81V95H68c-4.412 0-15-3.267-15-13V61c0-10.004 7.53-14 15-14h63z" fill="url(#a)"/></svg>