<svg version="1.2" baseProfile="tiny" xmlns="http://www.w3.org/2000/svg" width="352.675" height="41.963"><path fill="#6F685F" d="M20.982 0h310.711c11.541 0 20.982 9.441 20.982 20.981 0 11.542-9.441 20.982-20.982 20.982H20.982C9.441 41.963 0 32.523 0 20.981 0 9.442 9.441 0 20.982 0z"/><path fill="#E2001A" d="M233.269 7.172h44.969v3.069h-44.969z"/><path fill="#E95E38" d="M233.269 13.31h44.969v3.069h-44.969z"/><path fill="#FC0" d="M233.269 19.447h44.969v3.07h-44.969z"/><path fill="#57AB27" d="M233.269 25.585h44.969v3.068h-44.969z"/><path fill="#009EE0" d="M233.269 31.724h44.969v3.068h-44.969z"/><path fill="#FFF" d="M311.986 25.447c0 3.889-3.418 5.833-10.258 5.833h-3.5c-3.854 0-6.525-.666-8.018-1.993-1.494-1.33-2.238-3.632-2.238-6.906v-4.404c0-3.254.744-5.545 2.238-6.875 1.492-1.33 4.164-1.994 8.018-1.994h3.5c3.176 0 5.564.426 7.164 1.28 1.602.854 2.402 2.103 2.402 3.75v1.578h-8.223v-.565c0-.516-.148-.854-.447-1.013-.299-.158-.896-.239-1.791-.239h-1.955c-1.111 0-1.824.09-2.135.269-.314.178-.469.604-.469 1.279v3.034c1.191-.654 2.672-.98 4.438-.98h2.889c2.904 0 5.027.491 6.371 1.472 1.342.982 2.014 2.496 2.014 4.539v1.935zM197.488 14.789h-3.961v11.364h4.133v-5.94c0-1.549.948-2.325 2.671-2.325 1.721 0 2.153.517 2.238 1.979h3.876c0-3.874-.517-5.338-4.65-5.338-2.498 0-3.359.517-4.306 2.411l-.001-2.151zM34.969 21.616h-6.651v5.455h11.955l-5.304-5.455zm5.303-6.574H28.317v5.454h6.576l5.379-5.454zm176.245 8.874c-3.959 0-4.563-.345-4.563-2.326h10.852c-.172-5.508-.172-6.801-7.492-6.801-6.202 0-7.58 1.119-7.58 6.027 0 4.564 1.81 5.683 6.805 5.77 5.598 0 8.268-.259 8.268-3.961h-4.049c-.173.86-.516 1.291-2.241 1.291zm-4.648-4.735c.172-1.206.516-1.637 3.271-1.637 3.016 0 3.445.173 3.617 1.637h-6.888zm-153.973.43h4.133c-.344-3.876-1.464-4.822-7.232-4.822-6.545 0-8.009 1.031-8.009 5.855 0 4.822 1.378 5.941 7.492 5.941 6.458 0 7.75-.861 7.75-4.909h-4.133c0 1.12-.43 1.638-3.617 1.638-2.756 0-3.358-.688-3.358-2.928 0-2.153.602-2.153 3.876-2.153 2.409 0 2.839.259 3.098 1.378zm96.017.687c0-4.649-1.377-5.595-8.009-5.595-7.147 0-8.007 1.205-8.007 6.026 0 4.823 1.204 5.856 8.007 5.856 7.235.001 8.009-1.204 8.009-6.287zm-11.797.261c0-2.326.517-2.583 3.531-2.583 3.358 0 3.96.085 3.96 2.583 0 2.325-.431 2.756-3.617 2.756-3.444 0-3.874-.346-3.874-2.756zm48.911-.261c0-4.649-1.292-5.595-7.92-5.595-7.062 0-7.923 1.117-7.923 5.941 0 4.908 1.205 5.941 7.923 5.941 7.231.001 7.92-1.204 7.92-6.287zm-11.71.261c0-2.326.516-2.583 3.53-2.583 3.359 0 3.961.085 3.961 2.583 0 2.325-.43 2.756-3.616 2.756-3.443 0-3.875-.346-3.875-2.756zm-98.945-.261c0-4.649-1.292-5.595-7.922-5.595-7.147 0-8.009 1.117-8.009 5.941 0 4.908 1.207 5.941 8.009 5.941 7.234.001 7.922-1.204 7.922-6.287zm-11.627.261c0-2.326.517-2.583 3.446-2.583 3.358 0 3.961.085 3.961 2.583 0 2.325-.432 2.756-3.617 2.756-3.36 0-3.79-.346-3.79-2.756zm99.549-10.594v6.631c-.947-1.292-1.808-1.979-5.252-1.979-5.511 0-6.545 1.464-6.545 5.941 0 4.565 1.465 5.854 6.803 5.854 3.359 0 4.392-.86 5.167-2.324v2.063h4.134V9.963l-4.307.002zm-3.014 7.924c2.324 0 3.101.344 3.101 2.151 0 2.757-.174 3.018-3.444 3.018-3.273 0-4.134-.089-4.134-2.413 0-2.67 1.033-2.756 4.477-2.756zM27.944 14.668V7.645c-1.419-.374-2.392-.524-3.81-.524-7.398 0-13.898 6.203-13.898 13.898 0 7.921 6.574 13.824 13.972 13.824 1.345 0 2.092-.15 3.736-.6v-7.172c-1.645.82-2.465 1.045-3.81 1.045-4.11 0-7.25-3.436-7.25-7.247 0-3.959 3.064-7.323 7.174-7.323 1.421 0 2.616.375 3.886 1.122zm58.972.121h-3.874v11.364h4.133v-5.855c0-1.721.861-2.323 3.187-2.323 2.153 0 2.756.774 2.756 2.927v5.251h4.219v-6.026c0-1.636 1.291-2.152 3.271-2.152 1.895 0 2.756.517 2.756 2.152v6.026h4.133v-6.716c0-3.356-2.067-4.908-5.855-4.908-3.273 0-4.479 1.206-4.91 2.497-.861-1.464-2.066-2.497-5.339-2.497-3.1 0-3.961 1.033-4.478 2.928l.001-2.668zm27.815 0h-3.875v11.364h4.133v-5.855c0-1.721 1.033-2.323 3.099-2.323 2.154 0 2.756.689 2.756 2.927v5.251h4.221v-6.026c0-1.636 1.206-2.152 3.187-2.152 1.894 0 2.84.602 2.84 2.152v6.026h4.134v-6.716c0-3.356-2.066-4.908-5.855-4.908-3.272 0-4.393 1.119-4.908 2.497-.862-1.464-2.068-2.497-5.34-2.497-3.013 0-3.788 1.033-4.391 2.928l-.001-2.668zm227.03 12.175h-3.5v4.048h-8.221v-4.048h-14.857l.041-5.892 11.764-11.696h11.273v12.797h3.5v4.791zm-11.72-4.791v-7.171l-7.123 7.171h7.123zm-26.276 2.946v-1.576c0-.558-.184-.909-.551-1.058-.365-.147-1.16-.224-2.381-.224h-1.586c-1.223 0-2.023.069-2.402.21-.381.137-.57.494-.57 1.07v1.576c0 .597.189.969.57 1.115.379.148 1.18.225 2.402.225h1.586c1.248 0 2.049-.075 2.402-.225.352-.144.53-.516.53-1.113z"/></svg>