<?xml version="1.0" encoding="utf-8"?>
<!-- Generator: Adobe Illustrator 13.0.0, SVG Export Plug-In . SVG Version: 6.00 Build 14948)  -->
<!DOCTYPE svg PUBLIC "-//W3C//DTD SVG 1.1//EN" "http://www.w3.org/Graphics/SVG/1.1/DTD/svg11.dtd">
<svg version="1.1" id="Layer_1" xmlns="http://www.w3.org/2000/svg" xmlns:xlink="http://www.w3.org/1999/xlink" x="0px" y="0px"
	 width="220px" height="162px" viewBox="0 0 220 162" enable-background="new 0 0 220 162" xml:space="preserve">
<polygon fill="#231F20" points="211.623,155.648 210.531,155.648 210.531,155.271 213.133,155.271 213.133,155.648 212.05,155.648 
	212.05,158.587 211.623,158.587 211.623,155.648 "/>
<polygon fill="#231F20" points="214.898,158.587 213.993,155.894 213.993,158.587 213.557,158.587 213.557,155.271 214.161,155.271 
	215.116,158.091 216.071,155.271 216.676,155.271 216.676,158.587 216.24,158.587 216.24,155.894 215.335,158.587 214.898,158.587 
	"/>
<path fill="#231F20" d="M4.406,127.169c0-1.152-0.219-2.644-0.728-3.271c3.333,0,10.534,0.022,13.621,0.022
	c7.102,0,17.816,3.942,17.816,17.23c0,9.863-7.563,17.211-17.816,17.211c-2.249,0-10.836-0.026-13.882-0.026
	c0.625-1.153,0.989-2.717,0.989-3.952V127.169L4.406,127.169z M9.513,154.987c3.278,0.424,6.304,0.555,9.042,0.163
	c2.649-0.378,11.55-2.294,11.495-14.113c-0.053-11.2-6.969-13.759-12.299-14.073c-2.781-0.164-5.466-0.06-8.238,0.421V154.987
	L9.513,154.987z"/>
<path fill="#231F20" d="M38.041,134.481l5.103-0.797c0,1.044,0,4.108,0,4.493c1.309-3.234,5.381-5.833,11.169-3.581l-1.357,3.552
	c-5.297-2.513-9.812-0.308-9.812,5.574v12.138c0,0.577,0.125,1.744,0.471,2.492h-5.301c0.536-0.66,0.783-1.915,0.783-2.492v-17.509
	C39.097,137.081,38.839,135.115,38.041,134.481L38.041,134.481z"/>
<path fill="#231F20" d="M199.368,136.916c0,0.331,0,14.448,0,15.504c0,4.865,3.354,6.167,5.84,6.167
	c1.052,0.052,2.539-0.194,3.579-0.425l0.641-3.004c-1.213,0.462-2.622,0.572-3.466,0.572c-1.558,0-2.685-1.034-2.685-2.651
	c0-1.452-0.037-15.682,0-16.138h-0.017c0.208,0,3.439-0.011,3.765,0c1.061,0.038,1.875,0.103,2.575,0.384l0.004-2.829
	c0,0-6.208-0.008-6.328-0.008l0.025-7.256l-4.704,1.3c0.65,0.606,0.86,2.382,0.86,3.552c0,0-0.003,2.168-0.003,2.43
	c-0.212,0-2.598,0.011-2.994,0.011v2.391C196.878,136.915,199.368,136.916,199.368,136.916L199.368,136.916z"/>
<path fill="#231F20" d="M179.042,153.31c2.022,1.444,5.194,2.726,7.521,2.726c3.228,0,5.538-1.57,5.538-4.525
	c0-5.456-12.439-4.553-12.439-11.475c0-4.68,4.185-6.44,8.174-6.44c1.281,0,4.207,0.278,6.069,0.998l-0.016,3.196
	c-1.652-1.412-4.175-1.754-5.837-1.754c-2.64,0-4.62,1.309-4.62,3.877c0,3.771,12.428,3.553,12.428,11.291
	c0,5.004-4.337,7.338-9.108,7.338c-2.326,0-4.749-0.413-6.768-0.99L179.042,153.31L179.042,153.31z"/>
<path fill="#231F20" d="M103.961,136.965c0-0.283,0.011-2.818,0.011-3.143l-5.166,0.799c0.622,0.652,1.1,2.688,1.1,4.142v16.929
	c0,0.577-0.247,1.978-0.783,2.638h5.633c-0.536-0.66-0.783-2.061-0.783-2.638v-12.738c0-4.66,2.883-6.291,5.752-6.291
	c2.597,0,4.944,1.124,4.944,6.291v12.738c0,0.577-0.248,1.978-0.783,2.638h5.463c-0.536-0.66-0.783-2.061-0.783-2.638v-12.738
	c0-5.167,3.193-6.291,5.793-6.291c2.596,0,5.313,1.63,5.313,6.291v12.738c0,0.577-0.247,1.978-0.783,2.638h5.259
	c-0.536-0.66-0.783-2.061-0.783-2.638v-15.156c0-2.583-2.634-6.721-8.79-6.721c-3.58,0-5.647,1.592-7.217,2.963
	c-1.335-1.558-3.509-3.02-7.001-3.02C106.952,133.758,104.943,135.752,103.961,136.965L103.961,136.965z"/>
<path fill="#231F20" d="M91.779,144.906c-0.737,0.693-2.281,1.232-3.875,1.441c-4.187,0.549-7.814,1.245-7.814,5.324
	c0,2.419,2.636,4.324,4.726,4.324c5.534,0,6.964-3.992,6.964-7.138V144.906L91.779,144.906z M78.707,134.924
	c2.112-0.847,5.521-1.235,7.657-1.235c5.458,0,9.084,2.727,9.084,9.058v10.501c0,1.946,0.029,3.787,0.723,5.081h-4.388l-0.157-2.762
	c-1.662,2.144-3.646,3.104-7.016,3.104c-6.647,0-8.099-4.542-8.099-6.726c0-7.789,7.414-7.881,10.633-8.339
	c1.781-0.253,4.074-0.756,4.418-2.426c0.569-2.763-1.407-4.834-5.442-4.834c-2.961,0-5.387,0.9-7.413,2.113V134.924L78.707,134.924z
	 M173.01,144.906c-0.737,0.693-2.282,1.232-3.876,1.441c-4.186,0.549-7.814,1.245-7.814,5.324c0,2.419,2.636,4.324,4.726,4.324
	c5.534,0,6.964-3.992,6.964-7.138V144.906L173.01,144.906z M159.938,134.924c2.112-0.847,5.521-1.235,7.657-1.235
	c5.458,0,9.084,2.727,9.084,9.058v10.501c0,1.946-0.424,3.748,0.722,5.081h-4.388l-0.157-2.762
	c-1.662,2.144-3.646,3.104-7.015,3.104c-6.646,0-8.099-4.542-8.099-6.726c0-7.789,7.414-7.881,10.633-8.339
	c1.782-0.253,4.075-0.756,4.418-2.426c0.568-2.763-1.407-4.834-5.442-4.834c-2.961,0-5.387,0.9-7.413,2.113V134.924L159.938,134.924
	z"/>
<path fill="#231F20" d="M155.268,138.145c-1.647-0.961-4.245-1.724-6.057-1.724c-6.361,0-9.277,3.913-9.277,9.548
	c0,5.583,2.849,9.857,9.072,9.857c2.133,0,5.037-0.957,7.29-2.342l-0.917,4.107c-2.293,0.682-4.226,1.007-6.785,1.007
	c-8.745,0-12.843-6.201-12.843-12.654c0-7.134,5.498-12.149,12.938-12.149c3.252,0,5.627,0.798,6.586,1.07L155.268,138.145
	L155.268,138.145z"/>
<path fill="#231F20" d="M57.38,146.268c0.003-0.59,0.081-1.152,0.148-1.696h16.919c0-5.817-2.908-10.807-9.8-10.807
	c-7.153,0-11.399,5.594-11.399,12.729c0,6.453,4.728,12.217,12.825,12.217c2.56,0,4.701-0.631,7.011-1.439l0.813-4.125
	c-1.976,1.627-5.171,2.59-8.053,2.59C60.661,155.736,57.356,151.985,57.38,146.268L57.38,146.268z M58.063,141.992
	c0.549-2.831,3.167-5.713,6.301-5.713c4.789,0,6.175,3.737,6.175,5.714C70.538,141.992,58.063,142,58.063,141.992L58.063,141.992z"
	/>
<path fill="#CF3311" d="M125.279,4.448c4.702,0.706,9.504,2.348,12.008,3.114c5.045,1.542,13.235,6.335,16.127,8.634
	c1.368,1.087,4.245,3.934,5.359,5.367c1.085,1.396,3.158,4.42,4.481,6.283c2.105,3.075,4.584,7.655,6.687,11.87
	c2.349,4.709,2.51,6.073,3.22,10.01l1.553,6.94c0.146,1.2,0.267,5.602-2.317,6.219c-2.583,0.617-4.971-0.575-6.097-2.317
	c-1.558-2.411-1.343-5.833-3.105-9.75c-1.374-3.166-1.975-7.767-4.169-11.076l-1.721-2.91c-3.045-4.688-6.219-8.409-8.112-10.836
	c-1.667-2.039-4.78-4.811-7.731-6.783c-2.729-1.655-7.141-3.542-10.323-4.514c-1.014-0.33-5.354-1.606-8.051-1.965
	c-3.66-0.411-6.068-0.99-9.546-1.235c-4.294-0.303-6.354-0.685-11.924-0.034c-2.11,0.572-5.453,0.799-8.462,1.95
	c-2.43,0.991-5.81,2.592-9.121,4.537c-3.563,1.954-8.972,5.95-12.559,9.362c-3.615,3.863-5.423,5.936-7.916,10.833
	c-1.104,2.423-3.239,6.171-4.1,8.817c-0.588,2.686-1.71,7.696-1.521,10.129c0.085,4.359-0.296,5.257,0.031,8.82
	c0.012,3.208,1.065,5.432,1.503,8.056c0.375,1.813,2.114,8.086,3.19,9.542c4.891,10.538,11.456,15.102,18.772,18.394
	c2.062,1.05,8.515,2.777,10.382,3.272c3.183,0.574,7.372,0.957,11.404,1.035c4.242,0.083,10.089-0.492,13.637-1.798
	c3.84-1.412,8.28-3.419,8.229-3.363c1.782-0.982,4.501-2.585,5.348-3.29c1.637-1.049,2.623-1.455,3.593-2.465
	c1.399-1.224,2.246-1.929,3.306-3.446c0.59-0.855,1.527-2.164,2.44-3.321c0.982-1.609,1.546-3.305,2.505-5.403
	c1.147-3.103,0.969-2.954,1.187-6.25c0.206-0.955-0.022-4.165-0.195-4.71c-0.517-2.962-0.334-5.575-1.012-8.451
	c-0.916-3.891-1.677-6.803-2.846-10.536c-1.099-4.203-4.327-8.097-6.75-10.878c-1.501-1.724-6.158-5.796-12.619-8.339
	c-1.819-0.612-4.797-1.306-6.688-1.651c-4.037-0.422-4.694-0.151-8.559,0.132c-1.33,0.232-4.418,0.863-5.553,1.262
	c-3.32,1.166-4.541,1.907-7.935,3.986c-1.58,0.917-2.771,1.619-4.386,3.133c-1.289,1.193-2.21,3.221-3.254,4.41
	c-1.43,1.946-3.022,4.542-4.09,7.342c-1.158,2.785-1.531,6.706-1.355,9.229c0,1.923,0.523,5.443,0.731,6.213
	c0.207,0.771,0.727,3.161,0.84,3.641c0.113,0.479,1.356,3.008,1.527,3.374c0.701,1.492,2.043,3.636,4.304,5.825
	c1.668,1.822,4.893,3.61,7.307,4.303c2.165,1.188,5.816,1.39,7.836,1.394c0.994-0.06,3.533-0.216,4.858-0.534
	c2.687-0.645,3.183-0.662,5.952-1.865c2.485-1.152,4.171-1.567,5.902-2.846c0,0,2.376-1.862,3.456-3.224
	c0.57-0.719,1.547-4.145,1.373-6.267c-0.081-2.905,0.342-4.553-0.251-6.943c-0.593-2.39-1.605-5.16-2.702-6.867
	c-1.111-1.729-3.5-3.414-6.219-4.755c-1.522-0.752-5.129-1.449-6.659-1.63c-2.907-0.345-5.338,0.974-6.814,2.483
	c-1.28,1.463-3.81,4.502-2.802,7.644c0.912,2.843,2.013,5.872,6.277,5.647c2.926,0.609,6.311-0.275,7.438,0.244
	c1.673,0.95,2.316,3.048,1.708,4.511c-0.424,2.821-3.126,3.159-6.01,3.374c-2.58,0.432-9.133-0.831-10.573-1.91
	c-0.966-0.574-2.445-1.953-3.487-2.884c-0.749-0.67-1.597-2.164-2.176-3.237c-0.711-1.318-1.07-2.288-1.253-3.147
	c-0.217-1.02-0.664-2.967-0.495-4.914c0.114-1.313,0.466-1.872,0.816-3.792c0.697-2.177,1.563-3.834,2.956-5.722
	c1.815-1.842,4.12-4.035,6.37-5.054c1.984-1.048,5.46-1.434,8.605-1.25c2.551,0.244,5.569,0.555,7.564,1.224
	c3.415,1.22,4.391,1.463,7.194,3.231c2.369,1.466,4.752,4.163,6.082,6.397c2.829,5.789,4.452,12.229,3.272,20.898
	c-0.097,1.465-0.553,2.896-1.466,4.835c-0.843,1.79-2.322,3.967-4.541,5.606c-0.894,0.827-2.303,1.845-3.45,2.441
	c-1.628,0.988-2.723,1.502-4.423,2.356c-1.492,0.701-3.231,1.503-5.499,2.133c-2.458,0.972-4.344,1.012-7.435,1.473
	c-3.043,0.763-11.368,0.218-16.327-1.969c-3.385-1.423-7.183-3.932-10.07-6.99c-1.604-1.681-3.173-4.731-3.634-5.355
	c-2.296-4.414-2.746-8.566-3.114-9.438c-0.5-1.185-0.749-3.842-1.084-5.66c-0.378-2.038-0.144-10.585,1.914-16.071
	c1.16-2.184,1.839-4.131,2.624-5.154c1.411-2.007,2.093-3.261,3.293-4.684c1.809-2.194,3.126-3.984,4.888-5.246
	c4.49-3.651,8.241-5.577,13.314-7.987c6.304-2.567,8.197-2.036,14.163-1.941c2.684,0.023,6.59,0.867,8.51,1.217
	c3.566,0.475,5.609,1.334,8.021,2.007c2.579,0.72,4.07,1.869,6.186,3.148c1.742,1.125,3.792,2.666,5.146,3.917
	c3.464,2.54,5.135,5.21,7.258,8.489c0.385,0.55,2.906,5.923,3.308,7.419c0.186,0.749,0.757,2.9,1.123,4.157
	c0.471,1.994,0.699,3.76,1.224,6.01c0.47,2.318,1.27,6.695,1.617,10.786c0.583,3.509-0.351,10.672-0.902,12.871
	c-1.227,4.1-3.373,9.104-7.611,13.923c-1.8,2.134-3.714,3.788-5.925,5.583c-1.691,1.411-3.142,2.232-5.754,3.792
	c-3.548,2.117-6.248,3.469-11.221,5.413c-2.025,0.65-4.576,1.505-7.326,2.074c-5.327,0.492-10.801,0.964-16.776,0.254
	c-5.976-0.711-11.962-2.395-15.498-3.481c-1.951-0.732-5.731-2.317-7.316-3.17c-1.031-0.524-4.488-2.888-5.075-3.457
	c-2.369-1.466-7.671-6.452-11.094-11.1c-0.75-1.436-3.447-5.745-4.032-7.633c-1.555-3.193-2.639-7.055-3.276-8.705
	c-0.672-3.851-1.807-6.331-2.25-10.197c0.051-0.91-0.183-3.051-0.389-4.236c0.301-2.646-0.101-5.14,0.424-8.02
	c0.461-2.431,1.072-3.446,1.217-5.643c0.142-0.94,1.352-3.767,1.674-5.025c0.976-2.072,1.219-3.779,2.493-6.094
	c1.836-3.608,3.755-7.759,6.704-11.385c0.842-1.124,3.23-3.821,4.044-4.756c1.924-1.923,3.053-2.227,5.235-4.157
	c0.227-0.143,1.668-1.786,3.177-2.351c2.501-1.932,4.662-2.641,7.042-4.398c4.77-2.376,6.509-3.178,11.244-5.148
	c2.736-0.976,6.552-1.516,7.926-2.049c2.614-0.162,5.267-0.996,8.017-0.83c3.087-0.029,6.198,0.191,9.3,0.473
	C118.848,3.543,121.577,3.645,125.279,4.448L125.279,4.448z"/>
</svg>
