<svg xmlns="http://www.w3.org/2000/svg" width="500" height="463.264">
    <path d="M278.096 205.831l10.965-12.46v-84.226l-52.33 20.185-43.36 77.249 43.36-16.696z" fill="#0222a9" />
    <path d="M371.044 323.2V181.16l53.078-20.433v223.524l-53.078 22.427-77.996-101.92v134.813l-56.317 23.673V232.993l56.317-21.43z" fill="#011da9" />
    <path d="M152.255 384.5l-49.838-96.685v118.864z" fill="#0222a9" />
    <path d="M155.495 160.728l24.919 50.835 12.958-4.984 43.359-77.25-52.33-20.433zM278.096 205.831l39.87-45.103 53.078 20.433V323.2l-77.996-111.637z" fill="#069330" />
    <path d="M236.73 463.245V232.993l-56.316-21.43v116.87L102.168 181.16l-53.077-20.433v223.524l53.077 22.427V287.815l78.246 151.757z" fill="#069330" />
    <path d="M102.417 181.161l53.078-20.433 24.919 50.835v116.87zM293.048 360.33l15.948 22.426 62.048 23.923-77.996-101.92z" fill="#fe2015" />
    <path d="M180.663 211.563l56.317-21.43 56.317 21.43-56.317 21.43zM371.044 140.294l53.078 20.434-53.078 20.433-53.077-20.433zM102.417 140.294l53.078 20.434-53.078 20.433-53.077-20.433zM236.73 88.712l-52.33 20.184 52.33 20.434 52.33-20.185z" fill="#ffc001"
    />
    <path d="M311.986 16.447h24.172c20.683 0 27.162 11.712 27.162 27.66 0 16.446-10.217 26.663-25.916 26.663h-25.418V16.447zm19.936 42.113h1.993c3.24 0 5.482-.997 6.728-3.24 1.246-2.242 1.495-6.479 1.495-11.712s-.249-9.469-1.495-11.712c-1.246-2.242-3.488-3.24-6.728-3.24h-1.993v29.655zM395.216 14.951c17.692 0 26.663 11.712 26.663 28.657s-8.721 28.657-26.663 28.657c-17.693 0-26.663-11.712-26.663-28.657s8.721-28.657 26.663-28.657zm0 43.36c3.24 0 5.482-1.496 5.482-14.952 0-12.958-2.243-14.951-5.482-14.951-3.24 0-5.482 1.744-5.482 14.951s2.242 14.952 5.482 14.952zM431.349 59.307c-3.49 0-6.48 2.99-6.48 6.48 0 3.488 2.99 6.478 6.48 6.478 3.488 0 6.479-2.99 6.479-6.479 0-3.488-2.99-6.479-6.48-6.479zm0 11.712c-2.99 0-5.233-2.492-5.233-5.233 0-2.99 2.491-5.233 5.233-5.233 2.99 0 5.233 2.492 5.233 5.233 0 2.99-2.492 5.233-5.233 5.233z"
    fill="#0124a6" />
    <path d="M430.352 69.275h-1.495v-6.977h2.99c1.246 0 2.492.498 2.492 1.744 0 .997-.499 1.495-1.495 1.744 1.246.25 1.246.748 1.246 1.745 0 .498.249 1.246.498 1.744h-1.744c-.25-.748-.25-1.246-.25-1.994 0-.498-.249-.996-.747-.996h-1.495v2.74zm0-3.987h1.246c.747 0 .997-.25.997-.997s-.499-.997-.997-.997h-1.246v1.994zM35.634 16.447v31.148h-.249L24.421 16.447H0V70.77h16.447V39.372h.249L27.66 70.77h24.42V16.447zM127.835 16.447v31.148h-.25l-10.964-31.148h-24.42V70.77h16.446V39.372h.25L119.86 70.77h24.42V16.447zM286.569 16.447v31.148h-.25l-10.964-31.148h-24.42V70.77h16.446V39.372h.25l10.964 31.398h24.42V16.447zM82.482 16.447V70.77H62.048V16.447zM163.22 70.77V31.15h-12.958V16.447h46.35v14.702h-12.959V70.77zM222.776 30.9v5.731h18.69v13.955h-18.69v5.98h20.932V70.77h-40.867V16.447h40.369V30.9z"
    fill="#0124a6" />
    <path d="M458.51 9.22h-3.738c-8.721.498-11.96 3.987-13.207 8.223h.25c2.242-1.993 4.734-2.74 8.223-2.74 6.728 0 12.958 4.983 12.958 14.203 0 8.97-6.728 15.948-15.948 15.948-12.21 0-17.444-9.22-17.444-19.187 0-7.974 2.741-14.952 7.476-19.188C441.565 2.243 447.297.249 454.274 0h3.987v9.22zm-11.462 26.913c2.74 0 4.485-2.741 4.485-6.48 0-2.99-1.495-6.478-5.233-6.478-2.243 0-3.987 1.495-4.735 3.24-.249.498-.249 1.245-.249 2.491.25 3.489 1.994 7.227 5.732 7.227zM484.426 44.107v-9.719h-18.19v-7.725L480.687.748h14.453v24.919h4.486v8.97h-4.486v9.719h-10.964zm0-18.69v-7.475c0-2.741.25-5.732.25-8.722h-.25a135.295 135.295 0 0 1-3.987 8.722l-3.489 7.226v.25h7.476v-.001z"
    fill="#ff2d1e" />
</svg>