<svg xmlns="http://www.w3.org/2000/svg" width="2500" height="2500" viewBox="0 0 246.471 246.5"><path d="M0 0h246.471v246.5H0z"/><linearGradient id="a" gradientUnits="userSpaceOnUse" x1="129.196" y1="87.553" x2="-14.629" y2="112.913" gradientTransform="translate(63.685 70.995) scale(.4843)"><stop offset=".006" stop-color="#8b8eaa"/><stop offset=".254" stop-color="#8286a4"/><stop offset="1" stop-color="#4b557b"/></linearGradient><path fill="url(#a)" d="M60.093 65.304l-.724 71.398 62.956 37.147.723-72.122z"/><linearGradient id="b" gradientUnits="userSpaceOnUse" x1="251.873" y1="139.479" x2="120.735" y2="63.767" gradientTransform="translate(63.685 70.995) scale(.4843)"><stop offset="0" stop-color="#d8d7e1"/><stop offset=".07" stop-color="#bdbdce"/><stop offset=".253" stop-color="#868aa7"/><stop offset=".431" stop-color="#62698c"/><stop offset=".599" stop-color="#49547a"/><stop offset=".754" stop-color="#38476f"/><stop offset=".893" stop-color="#2e4068"/><stop offset="1" stop-color="#2b3d66"/></linearGradient><path fill="url(#b)" d="M184.557 66.028l-.241 72.363-61.991 35.458.723-72.122z"/><linearGradient id="c" gradientUnits="userSpaceOnUse" x1="88.139" y1="46.054" x2="154.216" y2="-68.395" gradientTransform="translate(63.685 70.995) scale(.4843)"><stop offset=".023" stop-color="#fff"/><stop offset=".52" stop-color="#a7a8be"/><stop offset="1" stop-color="#7a7e9d"/><stop offset="1" stop-color="#2b3d66"/></linearGradient><path fill="url(#c)" d="M60.093 65.304l62.955 36.423 61.509-35.699-62.129-36.319z"/><path d="M186.931 64.622l-35.457 20.607-28.405-17.049-29.205 16.688-.379 33.187 29.227 16.89 28.234-15.753.379-11.378 14.222-8.534.012 27.186-42.995 24.965-43.681-24.653V76.524l43.427-24.843 29.394 17.637 20.058-11.954z"/><g><path d="M131.973 195.527v-1.457h-4.162c-.535 0-1.041.119-1.487.327-.446.209-.803.506-1.07.862s-.387.744-.417 1.189v4.489c.03.417.149.803.387 1.16.268.356.624.624 1.041.861a3.4 3.4 0 0 0 1.487.328h4.222v-1.457h-4.044c-.327 0-.624-.09-.891-.269-.24-.178-.387-.386-.387-.683v-1.665h5.322v-1.487h-5.322v-1.219c0-.298.147-.535.387-.714.267-.179.563-.268.891-.268h4.043v.003zM142.737 203.288v-7.195l3.745 7.195h1.814v-9.218h-1.843v5.888l-3.093-5.888h-2.438v9.218h1.815zM157.247 194.07v9.247h4.459c.565-.029 1.07-.119 1.517-.327.476-.237.833-.505 1.1-.862.268-.356.387-.772.416-1.219v-4.46c-.029-.445-.148-.833-.416-1.189a2.703 2.703 0 0 0-1.1-.862 3.55 3.55 0 0 0-1.517-.327h-4.459v-.001zm5.262 1.725c.267.179.386.416.416.714v4.371c-.03.297-.149.535-.416.713-.238.208-.536.298-.863.298h-2.586v-6.393h2.586c.327 0 .625.089.863.297zM179.218 194.309c-.446-.208-.951-.298-1.516-.327h-1.636c-.565.029-1.07.119-1.517.327-.476.238-.833.505-1.101.862a2.01 2.01 0 0 0-.416 1.219v4.608c0 .446.148.833.416 1.189.268.357.625.654 1.101.862a3.55 3.55 0 0 0 1.517.327h1.636c.564 0 1.069-.119 1.516-.327a2.697 2.697 0 0 0 1.101-.862c.268-.356.416-.772.416-1.189v-4.608c-.029-.445-.148-.862-.416-1.219-.268-.358-.625-.624-1.101-.862zm-.714 1.397c.268.208.417.445.417.714v4.519c0 .268-.149.506-.417.714a1.432 1.432 0 0 1-.861.298h-1.517c-.327 0-.625-.119-.893-.298-.237-.208-.386-.446-.386-.714v-4.519c0-.269.148-.506.386-.714.268-.179.565-.268.893-.298h1.517c.326.03.624.119.861.298z" fill="#b3bad0"/><path fill="#fff" d="M182.935 209.145v-2.527h-12.756v12.012h12.875v-2.706h-9.514v-2.26h5.469v-2.526h-5.469v-1.993h9.395zM168.783 209.115c.029-.832-.208-1.486-.714-1.873-.477-.416-1.219-.624-2.23-.624h-10.495v12.041h9.753c2.556-.029 3.805-.861 3.805-2.557v-1.457c0-1.011-.445-1.754-1.368-2.17.833-.387 1.25-1.041 1.25-1.963v-1.397h-.001zm-3.241.06c.119.119.179.238.148.417v1.1a.387.387 0 0 1-.148.387l-.833.148h-6.006v-2.171h6.006c.447 0 .744.059.833.119zm-6.839 6.839v-2.35h6.035c.447 0 .715.06.863.149.119.119.178.298.178.595v.862c0 .268-.059.476-.178.564-.148.119-.416.179-.863.179h-6.035v.001zM153.886 206.618h-3.359v9.306h-7.285v-9.306h-3.359v9.038c-.03.743.089 1.339.297 1.784.179.416.535.743 1.012.923.476.207 1.1.296 1.932.267h7.493c.833.029 1.486-.06 1.962-.267.476-.18.804-.507 1.012-.923.208-.445.297-1.041.297-1.784v-9.038h-.002zM138.248 207.837c-.21-.445-.565-.743-1.012-.951-.476-.179-1.13-.268-1.933-.268h-7.344c-.833 0-1.458.089-1.933.268-.475.208-.832.506-1.01.951-.208.446-.328 1.04-.298 1.784v6.035c-.03.743.089 1.339.298 1.784.178.416.535.743 1.01.923.476.207 1.1.296 1.933.267h7.344c.803.029 1.457-.06 1.933-.267.446-.18.802-.507 1.012-.923.178-.445.297-1.041.297-1.784v-2.2l-3.36.03v2.438h-7.136v-6.659h7.136v2.14h3.36v-1.783c-.001-.773-.12-1.368-.297-1.785zM122.191 209.145v-2.527h-12.755v12.012h12.875v-2.706h-9.516v-2.26h5.472v-2.526h-5.472v-1.993h9.396z"/><path fill="#b3bad0" d="M71.081 194.07h-1.814v5.888l-3.092-5.888h-2.468v9.218h1.814v-7.195l3.776 7.195h1.784v-9.218zM83.39 203.288v-9.218h-2.081v9.218h2.081zM95.432 203.288v-7.195l3.746 7.195h1.814v-9.218h-1.844v5.888l-3.092-5.888h-2.467v9.218h1.843zM109.198 194.07v1.457h3.062v7.761h1.963v-7.761h3.092v-1.457h-8.117z"/><path fill="#fff" d="M104.857 206.618l-5.114 8.503-5.084-8.503h-3.062v9.901l-5.977-9.901h-3.003l-7.165 12.012h8.979v-2.706h-4.014l3.717-5.976 5.025 8.682h5.529v-6.422l3.836 6.422h2.468l3.865-6.422v6.422h3.093v-12.012h-3.093zM75.72 209.234v-2.616H64.391c-.803 0-1.457.089-1.933.268-.476.208-.802.506-1.011.951-.208.446-.297 1.04-.297 1.784v6.035c0 .743.089 1.339.297 1.784.209.416.535.743 1.011.923.476.207 1.13.296 1.933.267h8.236c1.188.029 2.021-.179 2.526-.624.476-.476.714-1.249.685-2.35v-4.252h-7.79v2.528h4.52v1.991H64.51v-6.689h11.21z"/></g><g fill="#fff"><path d="M190.212 215.936h-.51l-.613 1.938a.83.83 0 0 0-.152.409 2.206 2.206 0 0 1-.154-.356l-.664-1.99h-.51v2.755h.308v-2.348l.816 2.348h.304l.817-2.297v2.297h.358v-2.756zM186.333 216.292h.869v-.356h-2.144v.356h.919v2.398h.356v-2.398z"/></g></svg>