<svg xmlns="http://www.w3.org/2000/svg" width="10476.772" height="2331.418" viewBox="-4969.428 -1104.334 10476.772 2331.418"><path d="M-1760.614 74.701v171.597h-710.208v438.31h517.477V563.153h-298.37V379.65h504.299v334.7c-2.171 56.099-114.302 168.259-176.905 168.259h-577.859c-81.394 0-193.076-111.663-193.076-168.01V230.46c0-94.296 61.483-155.76 141.585-155.76l793.057.001zM-1210.374 680.018v190.063h-585.127l475.235-804.962h188.103l364.356 614.841V65.119h206.943l325.711 551.513L89.602 65.119h204.972v804.962H89.602l-.976-408.911-237.642 408.911h-174.235l-236.637-409.906-.976 409.906h-349.495l-322.794-551.483-213.858 361.362zM370.795 65.119v804.962h825.725V679.96H594.541V541.348h348.51V365.133h-348.51V238.398h601.979V65.119zM2021.594 381.64h205.92V207.375s22.455-143.213-126.734-143.213h-649.433c-63.979 0-94.353 30.383-94.353 79.195v570.266c0 79.913 76.546 156.478 125.414 156.478h635.642s110.688 15.11 110.688-108.947V524.193H2022.32v157.089h-459.427V254.216h442.94v127.385l15.761.039zM2307.388 64.125h221.775v617.844h458.91V64.125h222.023v665.833s14.117 142.591-189.833 142.591H2481.67s-174.264 15.837-174.264-142.591c-.018-110.362-.018-665.833-.018-665.833zM4160.511 538.767v207.048c0 73.332-53.862 127.193-221.948 127.193h-649.337V64.162h760.713c70.004 0 110.59 40.559 110.59 110.907v221.45c0 17.578-23.927 47.855-78.897 47.855.345 3.769 0 0 0 15.34 36.894.001 78.879 41.966 78.879 79.053zm-205.958 127.517v-94.562c0-26.127-6.159-32.305-15.856-32.305h-427.389v142.552h411.877c22.818 0 31.368-8.55 31.368-15.685zm0-316.815v-94.583c0-26.128-6.159-32.305-15.856-32.305h-427.389v142.571h411.877c22.818 0 31.368-8.569 31.368-15.683zM4239.045 872.97h824.729V680.955h-618.809V540.373h348.528v-175.24h-348.528V238.398h602.952V63.139h-808.872zM5158.835 681.969v30.986h48.161V872.97h46.23V714.312h47.512v-32.343zM5317.262 872.97h46.862v-95.482l31.635 95.482h31.714l31.691-95.482v95.482h48.181V681.969h-64.686l-30.355 110.209-31.694-110.209h-63.348zM-2524.215-759.602v600.975h110.898v-441.561l237.613 441.561h125.74v-600.975h-126.716v362.358l-190.101-362.358zM-623.417-759.602v600.975h110.868v-441.561l237.623 441.561h125.739v-600.975h-126.725v362.358l-190.083-362.358zM-1399.729-759.602h126.486v600.975h-126.486zM373.453-759.602v95.051h190.064v505.924h128.054v-505.924h188.783v-95.051zM1467.796-538.142v16.153h348.49v95.051h-348.49v126.743c0 13.628 33.434 47.023 47.032 47.023h301.458v95.893h-348.49c-65.186 0-111.224-56.013-111.224-111.223v-380.519c0-69.115 41.43-110.582 110.573-110.582h349.141v95.051h-285.123c-30.373 0-63.367 33.022-63.367 48.535M2386.591-157.298h109.885v-441.915l237.63 441.915h110.917v-602.304h-109.921v362.358l-204.945-362.358h-143.566zM3892.467-648.705v381.141c0 28.823-81.404 110.247-128.608 110.247h-347.555v-602.285h315.86c98.197 0 160.303 62.105 160.303 110.897zm-112.159 348.827v-316.196c0-11.093-37.375-48.477-63.521-48.477h-189.623v427.715h190.102c19.489 0 63.042-43.561 63.042-63.042zM4921.509-617.021v315.889c0 91.073-68.416 159.365-173.288 159.365h-160.627c-101.372 0-168.526-63.54-173.135-149.848-.154-3.176-.154-6.351-.154-9.497v-315.879-17.263c0-60.518 65.261-125.778 142.094-125.778h221.775c92.974-.019 143.335 50.198 143.335 143.011zm-127.518 301.468v-285.621c0-23.288-40.549-63.846-63.348-63.846h-125.799c-32.63 0-64.285 31.693-64.285 61.302v288.146c0 45.148 17.253 62.42 47.971 62.42h143.068c30.718 0 62.393-31.664 62.393-62.401z"/><linearGradient id="b" gradientUnits="userSpaceOnUse" x1="-4511.322" y1="-488.065" x2="-3003.743" y2="-237.276" gradientTransform="matrix(1 0 0 -1 0 123.75)"><stop offset=".037" stop-color="#fff"/><stop offset=".896" stop-color="#898cbf"/></linearGradient><path fill="url(#b)" d="M-3290.704 67.434v378.548l-670.941 386.898-665.795-386.898-29.934 20.312 695.729 407.899 701.238-405.412V49.903z"/><g><path fill="#7A7EAE" d="M-3290.704 444.337l30.297 21.843v2.601l-1.922 1.453-31.043-22.722 2.668-1.53z"/></g><g fill="#639"><path d="M-3955.944 63.062l-472.72-276.802-7.479 7.458 474.498 281.471z"/><path d="M-3957.465 63.062h3.462l.631 3.903h-6.149z"/></g><g><path fill="#120F22" d="M-3955.944 75.189V63.062l1006.349-581.742 2.974 8.272z"/></g><g><linearGradient id="c" gradientUnits="userSpaceOnUse" x1="-3964.169" y1="-512.941" x2="-3248.107" y2="-512.941" gradientTransform="matrix(1 0 0 -1 0 123.75)"><stop offset="0" stop-color="#140f2d"/><stop offset="1" stop-color="#3b3c75"/></linearGradient><path fill="url(#c)" d="M-3955.944 1227.084l6.761-347.19 698.474-402.543 2.602-431.053h-12.3v422.483l-701.238 405.412-2.524 352.891z"/></g><g><linearGradient id="d" gradientUnits="userSpaceOnUse" x1="-3766.835" y1="-27.44" x2="-2928.987" y2="-577.455" gradientTransform="matrix(1 0 0 -1 0 123.75)"><stop offset="0" stop-color="#4c5284"/><stop offset="1" stop-color="#8789bc"/></linearGradient><path fill="url(#d)" d="M-3955.944 607.412V75.189l1009.323-585.597V644.709l-1009.323 582.375V876.947l701.084-403.689V46.689l-234.781 135.763v150.682z"/></g><g><linearGradient id="e" gradientUnits="userSpaceOnUse" x1="-3966.159" y1="-1091.009" x2="-3971.995" y2="-717.481" gradientTransform="matrix(1 0 0 -1 0 123.75)"><stop offset=".11" stop-color="#4c407e"/><stop offset=".89" stop-color="#669"/><stop offset="1" stop-color="#a7b3d9"/><stop offset="1" stop-color="#9ba5cd"/></linearGradient><path fill="url(#e)" d="M-3967.238 1227.084h5.593V874.193l-19.853-11.629 14.26 364.52"/></g><g><path fill="#2D2868" d="M-4658.98-340.446l4.294 3.624 1.721 800.133-4.409 2.983-2.658-1.683 1.052-805.057"/></g><g><path fill="#453D76" d="M-4627.44 445.982l-29.934 20.312V-339.5l701.43-405.02v39.899l-670.798 388.265z"/></g><g><path fill="#453D76" d="M-3955.944 60.987v546.425l-5.701 3.864V59.735z"/></g><g><linearGradient id="f" gradientUnits="userSpaceOnUse" x1="-4878.96" y1="-267.748" x2="-3730.416" y2="51.45" gradientTransform="matrix(1 0 0 -1 0 123.75)"><stop offset=".233" stop-color="#669"/><stop offset=".724" stop-color="#a7b3d9"/></linearGradient><path fill="url(#f)" d="M-4436.143-206.282v543.279l474.498 274.279V75.189z"/><linearGradient id="g" gradientUnits="userSpaceOnUse" x1="-4859.127" y1="-339.06" x2="-3710.621" y2="-19.872" gradientTransform="matrix(1 0 0 -1 0 123.75)"><stop offset=".233" stop-color="#669"/><stop offset=".991" stop-color="#a7b3d9"/></linearGradient><path fill="url(#g)" d="M-3967.238 1221.346V870.903l-690.136-404.609v-801.883l-312.054-183.091V646.66l1002.19 580.424z"/></g><g fill="#2D2868"><path d="M-4662.72-339.5h5.346v805.793h-5.346z"/><path d="M-4657.374-339.5l-308.027-183.216-4.027 4.036 309.396 181.858z"/></g><g><linearGradient id="h" gradientUnits="userSpaceOnUse" x1="-4601.945" y1="-393.171" x2="-4145.26" y2="-637.543" gradientTransform="matrix(1 0 0 -1 0 123.75)"><stop offset="0" stop-color="#6e70a9"/><stop offset=".969" stop-color="#514a8e"/></linearGradient><path fill="url(#h)" d="M-3967.238 870.903v6.618l-695.482-405.144v-6.083h5.346z"/></g><g><linearGradient id="i" gradientUnits="userSpaceOnUse" x1="-3923.55" y1="810.917" x2="-3633.583" y2="669.851" gradientTransform="matrix(1 0 0 -1 0 123.75)"><stop offset=".037" stop-color="#9ea5d3"/><stop offset=".902" stop-color="#7675ae"/></linearGradient><path fill="url(#i)" d="M-3955.944-744.52l448.486 262.181v39.191l-448.486-261.473z"/></g><g><path fill="#484592" d="M-3507.458-482.339v39.191l310.648-182.173v-37.04z"/></g><g><linearGradient id="j" gradientUnits="userSpaceOnUse" x1="-4965.401" y1="646.467" x2="-4965.401" y2="646.467" gradientTransform="matrix(1 0 0 -1 0 123.75)"><stop offset=".233" stop-color="#669"/><stop offset=".991" stop-color="#a7b3d9"/></linearGradient><linearGradient id="k" gradientUnits="userSpaceOnUse" x1="-4042.683" y1="1143.212" x2="-4111.078" y2="383.264" gradientTransform="matrix(1 0 0 -1 0 123.75)"><stop offset="0" stop-color="#aaacd2"/><stop offset=".626" stop-color="#fcfafb"/></linearGradient><path fill="url(#k)" d="M-3959.148-1104.334l762.338 441.973-310.648 180.022-448.486-262.181-701.43 405.02-308.027-183.216z"/><linearGradient id="l" gradientUnits="userSpaceOnUse" x1="-3622.428" y1="1231.086" x2="-3690.826" y2="471.109" gradientTransform="matrix(1 0 0 -1 0 123.75)"><stop offset=".674" stop-color="#aaacd2"/><stop offset="1" stop-color="#fcfafb"/></linearGradient><path fill="url(#l)" d="M-4428.664-213.74l466.656-263.607 444.575 250.954 541.653-311.337 26.185 19.05-1006.349 581.742z"/></g></svg>