<?xml version="1.0" encoding="utf-8"?>
<svg version="1.1" id="Nintendo Switch" xmlns="http://www.w3.org/2000/svg" xmlns:xlink="http://www.w3.org/1999/xlink" x="0px"
	 y="0px" viewBox="0 0 267.7 88.8" enable-background="new 0 0 267.7 88.8" xml:space="preserve">
<rect fill="#ce181e" width="267.7" height="88.8"/>
<path fill="#FFFFFF" d="M28,34.9c0,2.5,2,4.5,4.5,4.5s4.5-2,4.5-4.5s-2-4.5-4.5-4.5l0,0C30,30.4,28,32.4,28,34.9L28,34.9z
	 M39.7,64.4h-6.9c-2.2,0-4.4-0.9-5.9-2.4c-1.6-1.6-2.5-3.7-2.5-5.9V32.8c0-2.2,0.9-4.3,2.4-5.9c1.6-1.6,3.7-2.5,5.9-2.5h6.9
	L39.7,64.4L39.7,64.4z M43.2,20.6H32.8c-6.7,0-12.2,5.5-12.2,12.2V56c0,6.7,5.5,12.2,12.2,12.2h10.4c0.2,0,0.3-0.2,0.3-0.3l0,0v-47
	C43.6,20.8,43.4,20.6,43.2,20.6L43.2,20.6z M57.7,42c2.7,0.1,4.8,2.3,4.7,4.9c-0.1,2.6-2.1,4.7-4.7,4.7c-2.7-0.1-4.8-2.3-4.7-4.9
	C53.1,44.1,55.1,42,57.7,42z M48.7,68.2H56c6.7,0,12.2-5.5,12.2-12.2V32.8c0-6.7-5.5-12.2-12.2-12.2h-7.4c-0.2,0-0.3,0.1-0.3,0.3
	l0,0v46.9C48.3,68,48.5,68.2,48.7,68.2L48.7,68.2z M208.2,32.1h-2.9v-7.7h2.9c2.1,0,3.8,1.7,3.8,3.9
	C212.1,30.4,210.3,32.1,208.2,32.1z M208.1,21.6h-5.5v13.3h5.5c3.8,0,6.8-3,6.8-6.6C214.9,24.6,211.9,21.6,208.1,21.6L208.1,21.6z
	 M197.9,46.4c2.8,0,5.5,1.5,6.9,3.9l4.1-3.5c-2.5-3.7-6.6-5.9-11.1-5.9c-7.4,0-13.4,6-13.4,13.4s6,13.4,13.4,13.4
	c4.5,0,8.6-2.2,11.1-5.9l-4.1-3.5c-1.4,2.4-4,3.9-6.9,3.9c-4.4,0-7.9-3.5-7.9-7.8C190,49.9,193.5,46.4,197.9,46.4L197.9,46.4z
	 M159.3,47h8v19.7h5.4V47h7.8v-5.3h-21.2V47L159.3,47z M231.5,51.6h-11.7v-9.9h-5.2v25h5.2v-10h11.7v10h5.2v-25h-5.2
	C231.5,41.7,231.5,51.6,231.5,51.6z M245.9,63l-0.9,2.7l-0.9-2.7h-1v3.7h0.7v-2.9l1,2.8l0,0h0.6l0,0l1-2.8v2.9h0.7V63H245.9
	L245.9,63z M230.6,32.4c-2.3,0-4.1-1.9-4.1-4.1c0-2.3,1.9-4.1,4.1-4.1c2.3,0,4.1,1.9,4.1,4.1S232.8,32.4,230.6,32.4z M230.6,21.2
	c-3.9,0-7.1,3.2-7.1,7.1s3.2,7.1,7.1,7.1c3.9,0,7.1-3.2,7.1-7.1C237.6,24.4,234.5,21.2,230.6,21.2L230.6,21.2z M239.1,63.7h1.1v3
	h0.7v-3h1.1V63h-3L239.1,63.7L239.1,63.7z M168.5,32.4h-7.6v-3.1h7.1v-2.4h-7.1v-2.8h7.6v-2.5h-10.3v13.3h10.3V32.4L168.5,32.4z
	 M191.4,34.9V21.6h-2.7v8.7l-6.6-8.7h-2.7v13.3h2.7V26l6.6,8.9H191.4L191.4,34.9z M102.9,34.9h3V21.6h-3V34.9L102.9,34.9z
	 M91.3,51.5c-3.6-0.6-5.9-1.3-5.9-3c0-1.9,2.6-2.7,6.1-2.7c3.2,0,6.5,1.2,7.7,1.7l1.8-4.3c-1.3-0.5-5.3-1.9-9.7-1.9
	c-5.4,0-11.2,2.6-11.2,7.5c0,4,2.8,6,10,7.2c5.1,0.9,7.8,1.3,7.8,3.5c0,1.2-1,3.2-6.7,3.2c-4.6,0-7.8-1.7-8.9-2.3l-2.4,4.3
	c1.3,0.7,5.5,2.7,11,2.7c8,0,12.2-2.8,12.2-8C103,56.4,101.9,53.3,91.3,51.5L91.3,51.5z M131.1,59.9l-5.3-18.2h-4.4l-5.3,18.1
	l-4.8-18.1h-5.4l7.1,25h6l4.7-16.5l4.6,16.5h6l7.1-25H136L131.1,59.9L131.1,59.9z M118.5,26l6.6,8.9h2.6V21.6H125v8.7l-6.5-8.7h-2.7
	v13.3h2.7V26z M147.6,66.7h5.6v-25h-5.6V66.7z M148.4,21.6h-11.2v2.8h4.2v10.5h2.9V24.4h4.1V21.6L148.4,21.6z M83.6,26l6.6,8.9h2.6
	V21.6h-2.7v8.7l-6.5-8.7h-2.7v13.3h2.7V26L83.6,26z"/>
</svg>