<svg xmlns="http://www.w3.org/2000/svg" viewBox="0 0 122 37"><defs><linearGradient id="a" x2="50%" x1="50%" y2="100%"><stop stop-color="#F6F6F6" offset="0"/><stop stop-color="#989693" offset="1"/></linearGradient><linearGradient id="b" x2="50%" x1="50%" y2="100%"><stop stop-color="#EFEFEE" offset="0"/><stop stop-color="#84827E" offset="1"/></linearGradient></defs><path d="M5 0h117v37H0V0h5z" fill="#171A21"/><path d="M73.372 16.281c-.578.45-1.316.674-2.223.674-.654 0-1.226-.083-1.715-.252a3.457 3.457 0 0 1-1.328-.846l1.055-1.052c.248.249.542.429.883.538.34.111.716.166 1.13.166.982 0 1.475-.347 1.475-1.035 0-.291-.075-.517-.223-.678-.148-.16-.406-.266-.774-.322l-.469-.072-.539-.068c-.712-.103-1.253-.332-1.62-.691-.399-.397-.598-.944-.598-1.637 0-.756.262-1.368.784-1.83.524-.465 1.23-.696 2.123-.696.582 0 1.09.074 1.519.228.431.153.821.401 1.17.744l-1.029 1.018a1.819 1.819 0 0 0-.778-.455 3.521 3.521 0 0 0-.931-.118c-.414 0-.732.098-.954.298a.964.964 0 0 0-.334.753c0 .218.086.416.257.588.173.175.426.287.762.334l.502.069.482.071c.374.055.687.134.941.235.254.099.471.238.65.41.43.405.644.995.644 1.77 0 .789-.289 1.406-.862 1.856zm6.988-6.292v6.89h-1.63v-6.89h-2.178V8.542h5.986v1.447H80.36zm5.607 6.889V8.541h5.496v1.447h-3.862v1.967h3.289v1.447h-3.289v2.029h3.862v1.447h-5.496zm13.931 0l-.49-1.477h-2.963l-.504 1.477h-1.697l3.033-8.337h1.275l3.048 8.337h-1.702zM97.956 11l-1.054 3.028h2.072L97.956 11zm12.454 5.878v-4.857l-1.58 3.162h-1.1l-1.6-3.162v4.857h-1.63V8.541h1.61l2.17 4.507 2.16-4.507h1.61v8.337h-1.64zm5.17-8.594c.6 0 1.08.486 1.08 1.094a1.079 1.079 0 1 1-2.16 0c0-.608.48-1.094 1.08-1.094zm0 .172c-.48 0-.87.411-.87.922 0 .52.39.928.87.928.49.005.88-.408.88-.923 0-.516-.39-.927-.88-.927zm-.2 1.559h-.2v-1.22c.1-.014.2-.029.35-.029.18 0 .3.04.38.092.07.054.11.136.11.253 0 .161-.11.256-.24.296v.01c.11.018.18.116.2.295.03.19.06.264.08.303h-.2c-.03-.039-.06-.15-.09-.31-.03-.157-.1-.214-.26-.214h-.13v.524zm0-.677h.14c.16 0 .29-.057.29-.208 0-.107-.08-.213-.29-.213-.07 0-.11.004-.14.01v.411z" fill="url(#a)"/><path d="M56.542 5c-4.371 0-7.926 3.555-7.926 7.925 0 .035 0 .07.002.103l-5.106 7.404a5.748 5.748 0 0 0-2.444.432 5.678 5.678 0 0 0-.977.515L17.08 11.867a5.787 5.787 0 0 0-3.428-4.13 5.795 5.795 0 0 0-7.567 3.118 5.792 5.792 0 0 0 3.117 7.565 5.756 5.756 0 0 0 5.363-.481l23.062 9.534a5.774 5.774 0 0 0 3.418 4.081 5.792 5.792 0 0 0 8.011-5.493l7.306-5.212.18.003c4.371 0 7.925-3.557 7.925-7.927S60.913 5 56.542 5M9.711 17.199a4.47 4.47 0 0 1-2.747-4.126 4.467 4.467 0 0 1 6.179-4.115 4.436 4.436 0 0 1 2.325 2.241l-2.641-1.092a3.288 3.288 0 0 0-2.527 6.069l2.649 1.094a4.412 4.412 0 0 1-3.238-.071M47.392 27.93a4.472 4.472 0 0 1-5.839 2.405 4.44 4.44 0 0 1-2.298-2.189l2.58 1.068a3.287 3.287 0 0 0 2.528-6.067l-2.667-1.103a4.443 4.443 0 0 1 3.292.05 4.426 4.426 0 0 1 2.41 2.421 4.433 4.433 0 0 1-.006 3.415m9.15-9.723a5.288 5.288 0 0 1-5.28-5.282c0-2.91 2.369-5.28 5.28-5.28s5.281 2.37 5.281 5.28a5.288 5.288 0 0 1-5.281 5.282m.008-1.324a3.967 3.967 0 1 1 3.968-3.966 3.967 3.967 0 0 1-3.968 3.966" fill="url(#b)"/></svg>