<svg xmlns="http://www.w3.org/2000/svg" width="580" height="130" viewBox="-7.371 -3.275 580 130"><g opacity=".5"><path d="M-3 2.5h28.081v8.265h-8.219v112.16H6.929V10.765H-3zM50.519 114.716H61.48V36.134h9.587v78.582c0 5.085-4.622 8.688-9.36 8.688H50.519c-5.007 0-9.474-4.075-9.474-8.791V36.134h9.474v78.582zM256.674 55.327h14.642v68.154h-20.632c-4.412 0-9.846-3.377-9.846-8.5V11.957c0-4.328 4.535-8.937 9.629-8.937h11.259c4.994 0 9.525 4.566 9.525 8.836v24.406h-9.868V12.196H250.17v102.861h11.472v-51.39h-4.968v-8.34zM398.255 81.654v41.31h-9.244V43.845c0-3.574 3.552-7.468 8.047-7.468h15.24v7.626h-14.043v29.232h11.56v8.457l-11.56-.038zM431.045 36.399h9.703v31.512l5.479 5.509 5.363-5.356V36.399h9.586V66.38c0 3.661-9.47 13.306-9.47 13.306s9.586 9.64 9.586 13.547v29.904h-9.017V92.004l-5.822-5.887-5.821 5.81v31.213h-9.587V93.306c0-3.669 10.155-13.695 10.155-13.695s-10.155-9.537-10.155-13.381V36.399zM112.616 81.849c3.253 0 7.578-3.888 7.578-9.092V44.319c0-4.092-4.667-7.901-9.975-7.901H90.528v86.894h9.076V82.488h3.425l10.101 40.67h8.904l-9.418-41.309zm-1.796-8.496H99.946V44.837h10.874v28.516zM313.457 81.622c3.254 0 7.581-3.895 7.581-9.096V44.09c0-4.091-4.67-7.905-9.976-7.905h-19.689v86.9h9.068v-40.83h3.429l10.104 40.669h8.901l-9.418-41.302zm-1.928-8.594h-10.867V44.515h10.867v28.513zM168.712 83.897c-.042-3.894-4.107-6.357-4.107-6.357s4.107-2.658 4.107-6.354V44.66c0-5.007-4.408-8.265-8.901-8.265h-20.719v86.744h20.719c4.195 0 8.901-2.621 8.901-8.262 0 .001.046-27.09 0-30.98zm-9.331 30.743H148.51V82.308h10.871v32.332zm0-41.308H148.51V44.817h10.871v28.515zM208.392 35.755H197.605c-5.437 0-9.396 4.648-9.396 8.184v70.446c0 4.554 5.072 8.683 9.354 8.683h11.728c4.58 0 9.16-4.729 9.16-8.5V43.699c0-3.177-4.325-7.944-10.059-7.944zm.342 78.359h-10.502V44.336h10.502v69.778zM360.691 36.376h-11.979c-5.396 0-8.563 4.447-8.563 7.943v78.645h9.074v-41.31h11.47v41.31h9.075V44.795c-.001-5.189-3.591-8.419-9.077-8.419zm-.259 36.7h-10.867v-27.96h10.867v27.96zM515.902 82.442h28.094v10.479h-28.094z"/><path d="M519.37 35.173c-24.607 0-44.551 19.946-44.551 44.553 0 24.607 19.942 44.558 44.551 44.558 24.606 0 44.557-19.949 44.557-44.558-.001-24.606-19.95-44.553-44.557-44.553zm-15.163 62.86h-14.128v-4.949h4.554V66.938h-4.47v-5.113h9.58V93h4.464v5.033zm44.66-26.709h-4.541v-4.548h-28.67v10.88h30.617l2.594 2.601v14.374l-3.247 3.247h-31.341l-3.248-3.247v-29.64l3.008-3.006h32.072l2.756 2.76v6.579z"/></g><path fill="#F79226" d="M0 0h28.081v8.264h-8.219v112.161H9.929V8.264H0zM53.519 112.216H64.48V33.634h9.587v78.582c0 5.085-4.622 8.688-9.36 8.688H53.519c-5.007 0-9.474-4.075-9.474-8.791V33.634h9.474v78.582z"/><path fill="#E3E800" d="M259.674 52.827h14.642v68.154h-20.632c-4.412 0-9.846-3.377-9.846-8.5V9.457c0-4.328 4.535-8.937 9.629-8.937h11.259c4.994 0 9.525 4.567 9.525 8.836v24.407h-9.868V9.696H253.17v102.861h11.472v-51.39h-4.968v-8.34zM401.255 79.154v41.31h-9.244V41.345c0-3.574 3.552-7.468 8.047-7.468h15.24v7.626h-14.043v29.232h11.56v8.457l-11.56-.038zM434.045 33.899h9.703v31.512l5.479 5.509 5.363-5.356V33.899h9.586v29.982c0 3.661-9.47 13.306-9.47 13.306s9.586 9.64 9.586 13.547v29.904h-9.017V89.504l-5.822-5.887-5.821 5.81v31.213h-9.587V90.806c0-3.669 10.155-13.695 10.155-13.695s-10.155-9.537-10.155-13.381V33.899z"/><path fill="#F79226" d="M115.616 79.349c3.253 0 7.578-3.888 7.578-9.092V41.82c0-4.092-4.667-7.902-9.975-7.902H93.528v86.894h9.076V79.988h3.425l10.101 40.67h8.904l-9.418-41.309zm-1.796-8.496h-10.874V42.337h10.874v28.516z"/><path fill="#E3E800" d="M316.457 79.122c3.254 0 7.581-3.895 7.581-9.096V41.59c0-4.091-4.67-7.905-9.976-7.905h-19.689v86.9h9.068v-40.83h3.429l10.104 40.669h8.901l-9.418-41.302zm-1.928-8.594h-10.867V42.014h10.867v28.514z"/><path fill="#F79226" d="M171.712 81.397c-.042-3.894-4.107-6.357-4.107-6.357s4.107-2.658 4.107-6.354V42.16c0-5.007-4.408-8.264-8.901-8.264h-20.719v86.744h20.719c4.195 0 8.901-2.621 8.901-8.262 0 0 .046-27.091 0-30.981zm-9.331 30.743H151.51V79.808h10.871v32.332zm0-41.308H151.51V42.318h10.871v28.514zM211.392 33.255H200.605c-5.437 0-9.396 4.648-9.396 8.183v70.447c0 4.554 5.072 8.683 9.354 8.683h11.728c4.58 0 9.16-4.729 9.16-8.5V41.199c0-3.176-4.325-7.944-10.059-7.944zm.342 78.359h-10.502V41.836h10.502v69.778z"/><path fill="#E3E800" d="M363.691 33.876h-11.979c-5.396 0-8.563 4.447-8.563 7.944v78.644h9.074v-41.31h11.47v41.31h9.075V42.295c-.001-5.188-3.591-8.419-9.077-8.419zm-.259 36.7h-10.867v-27.96h10.867v27.96z"/><g fill="#F79226"><path d="M518.902 79.942h28.094v10.479h-28.094z"/><path d="M522.37 32.673c-24.607 0-44.551 19.946-44.551 44.553 0 24.607 19.942 44.558 44.551 44.558 24.606 0 44.557-19.949 44.557-44.558-.001-24.606-19.95-44.553-44.557-44.553zm-15.163 62.86h-14.128v-4.949h4.554V64.438h-4.47v-5.113h9.58V90.5h4.464v5.033zm44.66-26.709h-4.541v-4.548h-28.67v10.88h30.617l2.594 2.601v14.374l-3.247 3.247h-31.341l-3.248-3.247v-29.64l3.008-3.005h32.072l2.756 2.759v6.579z"/></g></svg>