<svg width="646" height="66" xmlns="http://www.w3.org/2000/svg" xmlns:xlink="http://www.w3.org/1999/xlink"><path d="M373.85.973H613.2c17.728 0 32 14.272 32 32s-14.272 32-32 32H373.85z" fill="#b1bcbf" stroke="#b1bcbf" stroke-linecap="round" stroke-linejoin="round" stroke-width="1.5"/><g stroke="#000"><path d="M495.72 18.378h24.525l-3.079 4.256h-24.525z" fill="#fff" stroke-linejoin="round" stroke-width=".5"/><path d="M506.41 36.181l10.737 10.769 3.079-4.256-10.737-10.769z" stroke-linejoin="round" stroke-width=".5"/><path d="M373.48 64.973H32.75c-17.728 0-32-14.272-32-32s14.272-32 32-32h340.51z" stroke-linecap="square" stroke-width="1.5"/></g><g fill="#fff" stroke="#fff"><path d="M66.864 22.658h20.61l-9.023 9.05H66.865zm-.02 20.435h20.61l-9.023-9.05H66.845zm-.043 11.963c-1.96.49-3.964.735-6.013.735-12.678-.328-23.958-10.12-24.088-23.01.379-13.603 12.038-22.832 24.088-22.914 2.01 0 4.02.238 6.03.7l-.013 10.76c-1.832-.91-3.837-1.373-6.017-1.359-7.07.045-13.223 5.476-13.296 12.812.246 7.334 7.323 12.6 13.296 12.723 2.166.045 4.178-.438 6.027-1.308z" stroke-width=".472"/><g stroke-width=".371" transform="translate(0 3)"><path d="M114.37 32.026c.012 8.25-7.89 7.952-11.817 7.964-7.984.009-11.116-3.146-11.146-9.932-.189-9.753 5.76-9.665 11.464-9.682 6.793-.31 11.51 1.35 11.524 8.066h-6.379c-.213-2.12-1.451-2.834-5.145-2.834-4.367 0-5.18.747-5.18 4.644.029 4.099 1.83 4.443 5.25 4.456 3.691 0 4.757-.55 5.04-2.682zm154.23 7.486h-5.721v-2.443h-.315c-1.164 2.246-2.788 2.92-7.2 2.92-8.255.02-9.627-3.936-9.65-9.932-.015-8.88 4.011-9.665 9.722-9.682 4.267 0 5.673.627 6.837 2.992h.242V13.243h6.085zm-16.8-9.533c0 4.095.679 4.728 5.26 4.728 2.231 0 3.88-.314 4.583-.866.678-.516.92-1.502.92-3.67 0-3.85-.8-4.564-5.139-4.564-4.8 0-5.624.633-5.624 4.373m51.21-9.094v2.793h.319c1.127-2.365 2.868-3.27 6.324-3.27 4.952 0 6.619 1.893 6.619 7.484v1.26h-5.785c0-2.76-.711-3.506-3.236-3.506-1.398 0-2.55.474-3.138 1.34-.588.906-.76 1.93-.76 4.806v7.72H297.2V20.887zm37.65 12.68c-.477 5.16-2.786 6.423-11.798 6.423-7.836.03-10.818-3.224-10.845-9.737-.172-9.995 5.56-9.86 11.497-9.877 9.698.07 11.406 2.766 11.246 11.334h-16.468c.063 3.814 1.714 3.727 5.07 3.828 4.017 0 4.77-.317 5.021-1.971zm-6.2-5.674c.037-2.94-1.508-3.142-4.845-3.19s-5.448.108-5.322 3.19z"/><path id="a" d="M148.13 20.886v2.793h.292c.9-2.24 2.966-3.27 6.588-3.27 3.939 0 6.103 1.143 7.416 3.903 1.045-2.799 3.039-3.903 7.05-3.903 3.38 0 5.373.713 6.784 2.404 1.41 1.651 1.726 3.19 1.726 7.989v8.71h-6.103v-8.71c-.064-2.403-.147-3.688-.68-4.131-1.8-1.493-5.479-1.77-7.075.158-.712.86-.9 2.32-.9 5v7.683h-6.102v-7.585c-.087-1.713.168-4.27-.657-5.256-1.227-1.381-5.67-1.415-7.1.117-1.067 1.223-.899 2.323-.899 5.04v7.685h-6.102V20.887z"/></g></g><g transform="translate(0 3)" fill="#fff" stroke="#fff" stroke-width=".388"><use transform="translate(39.079)" width="100%" height="100%" xlink:href="#a"/><path id="b" d="M139.4 29.86c.097 9.263-3.848 10.007-11.604 10.129s-11.569-1.593-11.653-10.407c-.085-8.814 4.641-9.089 11.629-9.174 6.988-.086 11.532.188 11.629 9.452zm-17.113.475c.184 4.368 1.804 4.405 5.508 4.41 3.705.006 5.508-.546 5.46-4.613-.049-4.067-1.174-4.48-5.46-4.486s-5.508.708-5.508 4.689" stroke-width=".371"/><use transform="translate(103.91)" width="100%" height="100%" xlink:href="#b"/><use transform="translate(155.31)" width="100%" height="100%" xlink:href="#b"/></g><g stroke="#000" stroke-width=".5"><g stroke-linejoin="round"><path d="M509.49 31.925h-13.787l-3.078 4.256h13.787z" fill="#837d7f"/><path d="M492.59 8.246l-.01 12.802 3.072-4.255.016-12.803zm-.004 40.014l-.016 12.83 3.078-4.16.016-12.926z"/><path d="M495.67 3.99a31.893 31.893 0 0 0-7.176-.833c-10.026.068-19.817 5.462-24.959 14.232 5.475-6.227 13.597-9.92 21.881-9.977 2.392 0 4.784.283 7.176.834zm-.004 40.015c-2.2 1.035-4.594 1.61-7.172 1.556-7.108-.147-15.527-6.412-15.82-15.139a14.942 14.942 0 0 1 1.508-6.414c-2.773 2.699-4.546 6.411-4.588 10.67.293 8.727 8.715 14.992 15.822 15.139 2.578.053 4.971-.52 7.172-1.557z" fill="#fff"/></g><g stroke-linejoin="round"><path d="M535.84 27.084l4.2-4c.002-3.244.004-5.386-.027-6.92 0 0-1.48-.06-1.84-.019-1.83 0-2.25 1.134-2.323 5.88z"/><path d="M551.72 27.081c-.216-16.465 1.23-18.394-12.826-18.394-5.626 0-8.745.354-10.491 2.056 0 0 1.907-2.251 4.676-4.366 1.812-1.385 4.87-1.687 10.063-1.687 14.056 0 12.61 2.53 12.826 18.995-.037 9.641 1.29 10.224-7.974 15.674 4.546-3.152 3.697-4.54 3.726-12.278zm4.5 30.78l.001-8.213-4.247 3.197-.001 8.213zm-15.929-8.213l-.244-4.413c0-.673.206-1.09 1.226-1.81-4.787 2.805-5.473 3.178-5.473 4.407l.244 5.013z"/></g><path d="M564.02 10.203c1.79-2.054 5.059-2.55 10.975-2.55 14.835 0 12.979 3.131 12.979 26.242 0 .374-.003.782 0 1.2 0 16.532.95 22.84-3.939 25.093 1.707-.708 4.214-3.23 6.052-5.179 2.825-3.055 2.134-9.718 2.134-23.81-.003-.419 0-.826 0-1.201 0-23.11 1.257-25.542-13.579-25.542-5.054 0-8.349.362-10.497 1.748z" stroke-linejoin="round"/><path d="M574.94 54.104c-4.35-.027-4.357-1.843-4.191-19.375-.031-17.374.016-19.386 4.263-19.375.229 0 .265-.013.47 0-.568 2.644-.502 7.338-.486 16.179-.16 16.965-.208 19.099 3.733 19.25-.534 2.85-1.571 3.31-3.789 3.322z"/><path d="M590.06 7.04c-1.85-2.163-5.237-2.585-11.417-2.585-5.054 0-8.171-.023-10.319 1.363l-4.304 4.385c1.791-2.054 5.06-2.55 10.975-2.55 6.402 0 9.695.582 11.371 3.102zm-54.01 45.805l4.247-3.197h15.93l-4.247 3.197z" fill="#fff" stroke-linejoin="round"/><path d="M549.95 10.925c-1.633-1.858-4.818-2.238-11.051-2.238-5.626 0-8.745.355-10.491 2.057 0 0 1.907-2.252 4.676-4.367 1.812-1.385 4.87-1.687 10.063-1.687 5.875 0 9.042.442 10.754 2.159z" fill="#fff" stroke-linecap="round" stroke-linejoin="round"/></g><path d="M492.57 61.185a29.35 29.35 0 0 1-7.155.875c-14.163-.366-26.86-10.66-28.49-24.61a26.175 26.175 0 0 1-.174-2.773c.45-16.186 14.325-27.168 28.664-27.266 2.392 0 4.783.283 7.175.834l-.015 12.803c-2.18-1.082-4.566-1.633-7.16-1.616-8.413.053-15.735 6.516-15.822 15.245.293 8.726 8.714 14.993 15.822 15.139 2.578.053 4.971-.522 7.172-1.558z" fill="#294912"/><path d="M492.65 22.633h24.525l-10.737 10.769h-13.787z" fill="#372f8f" stroke="#000" stroke-linecap="round" stroke-linejoin="round" stroke-width=".5"/><path d="M492.62 46.95h24.525l-10.737-10.769h-13.787z" fill="#e53c32" stroke="#000" stroke-linejoin="round" stroke-width=".5"/><path d="M480.84 61.594c-12.231-2.19-22.466-11.715-23.917-24.142a26.175 26.175 0 0 1-.175-2.774c.45-16.186 14.325-27.168 28.664-27.266 2.392 0 4.784.283 7.176.834l-.015 12.803c-2.18-1.082-4.567-1.633-7.16-1.616-8.413.054-15.736 6.516-15.823 15.245.293 8.726 8.714 14.993 15.822 15.139 2.578.053 4.972-.522 7.172-1.557l-.002 1.567z" fill="#61a53c"/><g stroke="#000" stroke-linecap="round" stroke-linejoin="round" stroke-width=".5"><path d="M415.13 3.954l5.79 42.559-4.592 3.482-5.789-42.56zm18.42 3.482l-7.697 54.47 4.59-3.481 7.698-54.471z"/><path d="M410.54 7.436h-11.432l4.59-3.482h11.433zm27.6-3.482h-11.432l-4.59 3.482h11.431z" fill="#fff"/></g><path d="M399.11 7.436l7.697 54.47h19.045l7.698-54.47h-11.432l-5.788 42.558-5.789-42.559z" fill="#f05522"/><path d="M429.11 38.848l4.439-31.412h-11.432l-5.787 42.559-5.79-42.559h-11.43l7.61 53.851z" fill="#d71549"/><path d="M433.32 9.097l.235-1.661h-11.432l-2.05 15.069zm-19.809 20.129l-2.964-21.79h-11.432l4.466 31.605z" fill="#382e8f"/><path d="M399.11 7.475l7.697 54.432h19.045l7.698-54.471h-11.432l-5.788 42.559-5.789-42.56h-11.34c-.043 0-.043.083-.072.102z" fill="none" stroke="#000" stroke-linecap="round" stroke-linejoin="round" stroke-width=".5"/><g stroke="#000" stroke-width=".5"><path d="M526.07 27.09h9.725c.006-8.96.007-11.045 2.38-11.045.36-.042 1.695.05 1.695.05 2.33-.05 2.02 2.311 2.075 12.814.156 4.02-2.293 4.885-6.478 6.928-5.645 3.342-9.56 4.915-9.363 9.964l-.096 15.257h25.965l.002-8.213h-15.93l-.244-5.013c0-1.408.9-1.692 7.885-5.818 9.327-5.509 8-5.291 8.036-14.933-.216-16.465 1.23-18.394-12.826-18.394-13.088 0-12.613 1.919-12.824 18.26l-.002.143z" fill="#fff" stroke-linecap="square" stroke-linejoin="round"/><path d="M575 7.652c-14.868 0-13.012 3.135-13.012 26.242.003.42 0 .827 0 1.202 0 23.108-1.856 26.242 13.012 26.242 14.835 0 12.979-3.132 12.979-26.242-.003-.42 0-.827 0-1.202 0-23.11 1.856-26.242-12.979-26.242zm.01 7.702c4.248.01 4.248 1.936 4.309 19.375-.061 17.472-.061 19.351-4.381 19.374-4.35-.026-4.357-1.842-4.192-19.375-.03-17.374.016-19.386 4.264-19.375z" fill="#fff"/><path d="M451.23 7.436l-.17 54.47 4.11-3.481.17-54.471z" stroke-linecap="round" stroke-linejoin="round"/><path d="M455.34 3.954h-11.432l-4.11 3.482h11.432z" fill="#fff" stroke-linecap="round" stroke-linejoin="round"/></g><path d="M439.8 61.906h11.262l.17-54.47H439.8z" fill="#fcb61e"/><path d="M451.13 39.939l.101-32.503H439.8v43.778z" fill="#f05522"/><path d="M451.2 16.743l.029-9.308h-11.432V28.11z" fill="#d71549"/><path d="M464.51 53.029c-4.088-4.163-6.877-9.526-7.584-15.577a26.175 26.175 0 0 1-.175-2.774c.451-16.186 14.325-27.168 28.664-27.266 2.392 0 4.784.283 7.176.834l-.015 12.803c-2.18-1.082-4.567-1.633-7.16-1.616-8.413.054-15.736 6.516-15.823 15.245.12 3.585 1.613 6.755 3.823 9.256z" fill="#fcb61e"/><path d="M456.75 34.678c.432-15.505 13.182-26.235 26.858-27.196z" fill="#f05522"/><path d="M492.57 61.185a29.35 29.35 0 0 1-7.155.875c-14.163-.366-26.86-10.66-28.49-24.61a26.175 26.175 0 0 1-.174-2.773c.45-16.186 14.325-27.168 28.664-27.266 2.392 0 4.783.283 7.175.834l-.015 12.803c-2.18-1.082-4.566-1.633-7.16-1.616-8.413.053-15.735 6.516-15.822 15.245.293 8.726 8.714 14.993 15.822 15.139 2.578.053 4.971-.522 7.172-1.558z" fill="none" stroke="#000" stroke-width=".5"/><path d="M439.89 61.906h11.163l.17-54.47H439.79v54.361c0 .109 0 .109.098.109z" fill="none" stroke="#000" stroke-linecap="round" stroke-linejoin="round" stroke-width=".5"/></svg>