<svg xmlns="http://www.w3.org/2000/svg" version="1" viewBox="0 0 131.2 22.4"><path d="M10.11.479c-.82.101-1.878.345-2.544.603-.741.278-1.65.725-1.65.814 0 .054.162.101.424.128.943.109 2.693.848 4.276 1.79.383.23.76.42.828.42.074 0 .444-.19.821-.42.902-.55 2.39-1.274 3.077-1.505.31-.102.795-.217 1.084-.264.35-.048.532-.109.532-.163 0-.197-1.569-.868-2.66-1.139a11.081 11.081 0 0 0-4.187-.264zM3.6 3.638C1.802 5.482.826 7.482.496 10.044c-.155 1.193-.115 2.21.141 3.512.25 1.254.822 2.664 1.495 3.66.444.665.518.659.572-.053.21-2.671 2.27-6.339 5.696-10.108.297-.333.546-.644.546-.685 0-.095-1.024-1.098-1.778-1.75-1.01-.867-2.323-1.674-2.706-1.674-.148 0-.337.156-.862.692zm14.321-.495c-.855.413-2.006 1.281-3.117 2.36-.445.426-.808.826-.808.88 0 .055.33.468.734.922 2.908 3.261 4.753 6.373 5.325 8.976.074.333.135.787.135 1.017 0 .38.013.427.128.427.155 0 .768-.949 1.151-1.796.781-1.688 1.057-3.092.99-5.03-.067-2.244-.673-4.082-1.919-5.844-.572-.814-1.831-2.109-2.047-2.109-.087 0-.343.088-.572.197zM10.696 9.13c-1.595 1.396-3.703 3.592-4.901 5.118-1.273 1.613-2.64 3.796-2.64 4.203 0 .129.707.854 1.347 1.39 2.249 1.87 5.514 2.738 8.585 2.284 2.37-.352 4.524-1.437 6.315-3.173.276-.264.317-.339.317-.583-.007-1.247-2.438-4.338-6.457-8.21-1.091-1.05-1.697-1.586-1.791-1.586-.081 0-.411.237-.775.556z" fill="#ffffff"/><path fill="#ffffff" d="M105.51 6.844l9.826 13.324 1.848.002V3.595h-1.846v13.614L105.309 3.584l-1.643-.003v16.576h1.843zM94.078 3.21c-4.66 0-7.919 3.565-7.919 8.668 0 5.111 3.258 8.675 7.92 8.675 4.655 0 7.902-3.564 7.902-8.675 0-5.103-3.247-8.668-7.903-8.668m0 15.587c-3.55 0-6.039-2.845-6.039-6.92 0-4.07 2.49-6.915 6.04-6.915 3.545 0 6.018 2.845 6.018 6.916 0 4.074-2.473 6.919-6.019 6.919m36.785-13.592V3.584h-11.605V20.17h11.719v-1.623h-9.86v-6.133h9.125v-1.623h-9.125V5.205z"/><path fill="#ffffff" d="M70.922 3.594l4.744 6.443 4.739-6.443h2.18l-5.816 7.9 6.375 8.691h-2.18l-5.298-7.194-5.296 7.194h-2.183l6.372-8.692-5.818-7.899zm-19.129 8.527a4.766 4.766 0 0 0-1.087-.692c1.204-.653 1.994-1.888 1.994-3.321 0-1.062-.392-4.513-5.393-4.513H40.57v7.152h-2.245c-.292.38-.952 1.29-1.204 1.665h3.449v7.772h6.737c3.649 0 5.917-1.854 5.917-4.843 0-1.306-.494-2.416-1.431-3.22m-9.36-6.796h4.874c1.32 0 3.529.329 3.529 2.637 0 1.745-1.288 2.785-3.53 2.785h-4.873V5.325zm4.874 13.129h-4.874v-6.04h4.874c1.848 0 4.06.51 4.06 2.891 0 2.738-2.543 3.149-4.06 3.149"/><path d="M61.986 3.21c-4.659 0-7.916 3.566-7.916 8.669 0 5.11 3.257 8.673 7.916 8.673 4.657 0 7.904-3.562 7.904-8.673 0-5.103-3.247-8.668-7.904-8.668m0 15.587c-3.55 0-6.036-2.846-6.036-6.92 0-4.07 2.486-6.914 6.036-6.914 3.545 0 6.02 2.845 6.02 6.915 0 4.073-2.475 6.919-6.02 6.919M25.268 3.595l5.815 7.898-6.376 8.69h2.184l5.294-7.192 5.297 7.193h2.182l-6.378-8.691 5.82-7.898h-2.18l-4.744 6.444-4.74-6.444z" fill="#ffffff"/></svg>