<svg stroke-width=".501" stroke-linejoin="bevel" fill-rule="evenodd" xmlns="http://www.w3.org/2000/svg" overflow="visible" width="240" height="48" viewBox="0 0 180 36"><defs><linearGradient id="a" gradientUnits="userSpaceOnUse" x1="0" y1="0" x2="0" y2="20.02" gradientTransform="translate(200.49 -121.059)"><stop offset="0" stop-color="#faed16"/><stop offset="1" stop-color="#fbab09"/></linearGradient><linearGradient id="b" gradientUnits="userSpaceOnUse" x1="0" y1="0" x2="0" y2="0" gradientTransform="translate(183.483 -130.817)"><stop offset="0" stop-color="#faed16"/><stop offset="1" stop-color="#fbab09"/></linearGradient></defs><g stroke="none" fill="none" font-family="Times New Roman" font-size="16"><path d="M200.394-117.382c.017 0 .031.003.048.003l.144.004-.192-.007z" fill-rule="nonzero" fill="url(#a)" transform="matrix(1 0 0 -1 0 36)"/><path d="M183.483-130.817z" fill-rule="nonzero" fill="url(#b)" transform="matrix(1 0 0 -1 0 36)"/><path d="M456.603-62.766h192.756V129.99H456.603V-62.766" fill="#fff"/><path d="M179.787 5.454h-.68l-.815 2.583c-.136.204-.204.408-.204.544a3.432 3.432 0 0 1-.204-.476l-.883-2.651h-.68v3.67h.408V5.998l1.087 3.126h.408l1.088-3.058v3.058h.475v-3.67M174.622 5.93h1.156v-.476h-2.855v.476h1.224v3.194h.475V5.93M161.982 5.318L148.458 16.26 135.002 5.318h-7.612l17.33 14-17.33 14h7.612l13.456-11.009 13.524 11.009h7.543l-17.262-14 17.262-14h-7.543M125.147 19.318c0-6.252-1.631-10.873-4.757-14H92.731c-3.262 3.127-4.893 7.748-4.893 14 0 6.253 1.631 10.874 4.893 14h27.659c3.126-3.126 4.757-7.816 4.757-14m-4.621 0c0 2.107-.476 4.282-1.359 6.525l-1.291 2.922H95.177l-1.291-2.922c-.951-2.243-1.359-4.418-1.359-6.525 0-3.33.883-6.456 2.65-9.378h22.699c1.767 2.922 2.65 6.048 2.65 9.378M80.77 20.474v-2.311l2.039-1.087c-.476-5.233-2.039-9.175-4.689-11.758H50.46c-2.65 2.515-4.282 6.457-4.689 11.69h-4.486v4.621h4.486c.407 5.233 2.039 9.107 4.689 11.689h27.66c2.65-2.65 4.213-6.524 4.689-11.689l-2.039-1.155M75.605 9.94c1.223 2.107 2.107 4.417 2.515 7.068H50.46c.408-2.651 1.223-4.961 2.514-7.068h22.631m2.515 11.689a20.265 20.265 0 0 1-2.515 7.136H52.974c-1.291-2.107-2.106-4.485-2.514-7.136h27.66" fill="#73bd1f"/><path d="M26.062 19.318l17.262-14h-7.612L22.257 16.26 8.732 5.318H1.257l17.194 14-17.194 14h7.475l13.525-11.009 13.455 11.009h7.612l-17.262-14" fill="#73bd1f"/></g></svg>