<svg xmlns="http://www.w3.org/2000/svg" viewBox="0 0 421.649 408.247"><path d="M92.97 149.083c3.986 0 7.027 1.468 9.229 4.404 2.202 2.831 3.25 6.921 3.25 12.164 0 5.453-1.258 9.857-3.67 12.794-2.516 3.04-6.082 4.614-10.591 4.614h-.105v-7.655h.105c2.831 0 4.929-.944 6.187-2.517 1.258-1.678 1.888-4.195 1.888-7.445 0-2.622-.525-4.72-1.469-6.083s-2.411-2.097-4.299-2.097c-1.573 0-2.726.63-3.565 1.783-.84 1.153-1.573 3.356-2.202 6.501l-.735 3.461c-.838 4.3-2.307 7.655-4.299 9.857-2.097 2.202-4.719 3.251-8.075 3.251-3.46 0-6.291-1.363-8.389-3.985-2.097-2.621-3.146-6.397-3.146-11.115 0-5.348 1.154-9.438 3.461-12.165s5.558-4.194 9.647-4.404h.105v7.55h-.105c-2.307.105-3.984.944-5.033 2.307-1.049 1.364-1.678 3.566-1.678 6.607 0 2.307.42 4.09 1.259 5.348.838 1.258 2.097 1.887 3.67 1.887s2.831-.524 3.67-1.677c.839-1.154 1.573-3.251 2.202-6.187l.734-3.566c.944-4.719 2.412-8.18 4.3-10.277 1.677-2.202 4.3-3.355 7.655-3.355zM85.107 370.87c-1.888 2.098-3.356 5.558-4.3 10.277l-.734 3.565c-.629 2.937-1.363 5.034-2.202 6.187-.839 1.154-2.097 1.678-3.67 1.678s-2.831-.629-3.67-1.887c-.84-1.259-1.259-3.041-1.259-5.348 0-3.041.525-5.244 1.678-6.607 1.049-1.363 2.832-2.097 5.034-2.307h.105v-7.55h-.105c-4.09.105-7.34 1.678-9.648 4.404-2.307 2.727-3.46 6.816-3.46 12.164 0 4.72 1.048 8.39 3.146 11.116 2.097 2.622 4.928 3.985 8.389 3.985 3.25 0 5.977-1.154 8.074-3.251 2.098-2.202 3.46-5.453 4.3-9.857l.734-3.46c.629-3.147 1.363-5.349 2.202-6.502.839-1.154 1.992-1.783 3.565-1.783 1.888 0 3.356.734 4.3 2.097s1.468 3.46 1.468 6.082c0 3.251-.63 5.768-1.888 7.446-1.258 1.677-3.355 2.516-6.187 2.516h-.105v7.656h.105c4.614 0 8.18-1.573 10.592-4.615 2.516-3.04 3.67-7.34 3.67-12.793 0-5.138-1.154-9.228-3.251-12.164-2.202-2.936-5.348-4.405-9.228-4.405-3.146.21-5.768 1.259-7.655 3.356zm19.4-99.096v8.074c-1.154.734-2.832 1.049-4.824 1.049l-4.404.21c-2.412.104-4.195.629-5.139 1.677-.943.944-1.468 2.622-1.468 4.824v9.962h15.835v7.76H63.818v-18.456c0-.944 0-1.783.105-2.621v.838c.21-3.145.944-5.767 2.307-7.76-.105.105-.21.315-.314.42.314-.524.629-.944.944-1.363 2.097-2.517 4.928-3.775 8.389-3.775 4.823 0 8.074 2.202 9.647 6.606.63-1.992 1.678-3.46 3.041-4.3 1.363-.943 3.251-1.363 5.663-1.467l6.082-.315c1.992-.105 3.565-.524 4.824-1.363zm-28.314 8.808c-1.887 0-3.355.63-4.404 1.783-1.048 1.258-1.573 2.936-1.573 5.243v9.962h12.27v-10.172c0-2.097-.525-3.775-1.574-5.033-1.048-1.258-2.621-1.783-4.719-1.783zm-12.374-25.167h40.688v-7.76H63.818v7.76zm7.026-56.732h-7.026v29.992h40.688v-29.992H97.48v22.232H87.098V200.78h-6.711v20.134h-9.543v-22.232zm0 123.32h-7.026V352.1h40.688v-29.992H97.48v22.232H87.098v-20.134h-6.711v20.134h-9.543v-22.336zm51.384 79.592h54.005l41.002-56.416-26.95-37.122-68.057 93.538zM358.8 150.341h-54.005l-33.556 46.14 26.95 37.122 60.611-83.262zm-175.123 0h-54.005l182.569 251.254h54.005L183.678 150.341zM108.385 117.946h-19L56.713 72.763 23.81 117.946h-19l42.17-58.159L8.288 6.263h19l29.427 40.549L86.14 6.262h19L66.214 59.788l42.17 58.16zm98.707-31.744c0 9.732-3.244 17.61-9.731 23.171s-15.757 8.573-27.805 8.573H117.42V68.13H92.397l10.427-14.366h14.597v-47.5h50.05c11.353 0 19.926 2.78 25.95 8.11 6.025 5.329 9.037 12.512 9.037 21.085 0 10.659-4.866 19-14.598 24.33 6.257 2.317 10.89 6.024 14.135 10.426 3.475 4.403 5.097 9.964 5.097 15.988zm-72.756-32.207h31.976c6.487 0 11.353-1.39 14.597-4.403 3.244-2.78 4.866-7.183 4.866-12.975 0-4.866-1.622-8.805-5.097-11.586-3.244-2.78-8.11-4.17-14.366-4.17h-31.976v33.134zm55.61 31.744c0-5.793-1.854-10.427-5.33-13.208-3.475-3.012-8.804-4.402-15.756-4.402h-34.524v34.988h34.293c6.72 0 12.049-1.622 15.756-4.403 3.707-3.012 5.56-7.414 5.56-12.975zM322.02 62.105c0 8.573-1.159 16.683-3.708 23.634-2.549 6.951-6.256 13.207-11.122 18.536-5.097 5.33-10.89 9.5-17.378 12.05-6.488 2.78-13.902 3.938-22.244 3.938-8.11 0-15.756-1.39-22.244-3.939-6.488-2.78-12.28-6.72-17.378-12.049-5.098-5.329-8.805-11.585-11.354-18.536-2.549-6.951-3.707-15.061-3.707-23.634s1.158-16.683 3.707-23.635 6.256-13.439 11.354-18.768c4.866-5.33 10.659-9.268 17.378-12.049 6.488-2.549 14.134-3.939 22.244-3.939s15.525 1.39 22.244 3.94c6.488 2.548 12.512 6.719 17.378 12.048s8.805 11.817 11.122 18.768c2.317 6.952 3.708 14.83 3.708 23.635zm-91.525 0c0 13.207 3.475 23.634 10.195 31.28 6.72 7.647 15.524 11.586 26.878 11.586 11.122 0 20.159-3.94 26.878-11.586s9.964-18.073 9.964-31.28-3.244-23.866-9.964-31.513c-6.72-7.646-15.756-11.585-26.878-11.585s-20.159 3.939-26.878 11.585c-6.72 7.878-10.195 18.305-10.195 31.513zm145.28-2.318l38.928-53.524h-19l-29.427 40.54 9-29.427-40.55h-19l38.927 53.525-42.171 58.16h19l32.67-45.184 32.903 45.183h19l-42.402-58.159z"/></svg>