<svg xmlns="http://www.w3.org/2000/svg" viewBox="0 0 618 155"><path fill="#FA005A" d="M478.6 71.94L407.42.78c-.367-.367-.835-.618-1.344-.72-.51-.101-1.038-.05-1.518.148s-.891.533-1.181.964c-.29.431-.445.939-.447 1.458v59.84l-21.56-21.54c-.368-.368-.837-.618-1.347-.72-.51-.102-1.039-.05-1.52.15-.48.199-.891.536-1.18.968-.289.433-.443.942-.443 1.462v61.79c-.004 1.935.374 3.852 1.114 5.641.739 1.788 1.826 3.412 3.196 4.779l28.05 28c2.763 2.75 6.502 4.295 10.4 4.3h20.53c3.896-.002 7.632-1.548 10.39-4.3l28.05-28c1.365-1.364 2.448-2.983 3.186-4.766s1.116-3.694 1.114-5.624V82.34c.002-1.932-.378-3.845-1.118-5.63-.739-1.785-1.824-3.406-3.192-4.77z"/><path fill="#FFC500" d="M456.89 98c-.003 1.166-.467 2.284-1.29 3.11L433 123.79c-.409.413-.896.74-1.432.964-.537.223-1.112.339-1.693.339s-1.157-.116-1.693-.339c-.536-.224-1.023-.551-1.432-.964l-22.55-22.71c-.82-.817-1.287-1.923-1.3-3.08v-8.66c.001-.58.116-1.154.339-1.69.223-.535.55-1.021.961-1.43l8.12-8.12c.828-.826 1.95-1.29 3.12-1.29 1.17 0 2.291.464 3.12 1.29l11.35 11.36 11.33-11.36c.828-.826 1.95-1.29 3.12-1.29 1.17 0 2.291.464 3.12 1.29l8.11 8.12c.411.409.738.895.961 1.43.223.536.338 1.11.339 1.69V98z"/><path fill="#520044" d="M586.17 56.29c-5.81.002-11.449 1.968-16 5.58l-3.63 3c-.551.427-1.228.66-1.925.66-.697 0-1.374-.233-1.925-.66l-3.64-3c-4.551-3.612-10.19-5.578-16-5.58h-.67c-8.75 0-16.43 4.78-20.7 13-.085.168-.224.303-.394.383-.171.08-.363.1-.546.057-.184-.043-.347-.146-.465-.293-.118-.147-.183-.329-.185-.517v-9.21c0-.735-.292-1.44-.811-1.959-.52-.52-1.224-.811-1.959-.811h-19.23c-.738.003-1.445.298-1.966.82-.521.524-.814 1.232-.814 1.97v75.9c0 .745.296 1.46.823 1.987.527.527 1.242.823 1.987.823h19.16c.745 0 1.46-.296 1.987-.823.527-.527.823-1.242.823-1.987V90.35c-.001-1.245.243-2.479.719-3.63.476-1.15 1.174-2.196 2.055-3.076.88-.88 1.926-1.58 3.077-2.055 1.15-.476 2.384-.72 3.629-.719h4.85c1.246-.001 2.48.243 3.631.719 1.151.476 2.198 1.174 3.079 2.054.881.88 1.58 1.926 2.058 3.077.477 1.15.722 2.384.722 3.63l.06 45.29c0 .369.073.733.214 1.074.141.34.349.649.61.909.261.261.571.467.912.607.34.14.706.211 1.074.21h19.16c.745 0 1.46-.296 1.987-.823.527-.527.823-1.242.823-1.987V90.35c0-2.514.999-4.925 2.777-6.703 1.778-1.778 4.189-2.777 6.703-2.777h4.86c1.245-.001 2.479.243 3.629.719 1.151.476 2.197 1.174 3.077 2.055.881.88 1.579 1.926 2.055 3.077.476 1.15.72 2.384.719 3.629l.07 45.29c0 .743.295 1.455.82 1.98.525.525 1.237.82 1.98.82h19.17c.369 0 .734-.073 1.074-.214.34-.141.649-.349.91-.61.26-.261.466-.571.606-.911.14-.341.211-.706.21-1.075V88c.053-4.14-.715-8.248-2.261-12.088-1.545-3.84-3.837-7.337-6.742-10.286s-6.367-5.292-10.184-6.895c-3.816-1.602-7.913-2.432-12.053-2.441zM360 27.48l-17.8-17.8c-.381-.385-.869-.648-1.4-.755-.531-.108-1.082-.054-1.583.153-.501.207-.928.558-1.229 1.009-.3.45-.46.981-.458 1.523v48.48c-.001.29-.08.576-.231.824-.15.25-.365.452-.622.588-.257.136-.546.199-.836.183-.29-.017-.571-.111-.811-.275-4.419-3-9.66-4.554-15-4.45h-11.19c-4.151-.001-8.261.815-12.096 2.402-3.835 1.588-7.32 3.915-10.255 6.85-2.935 2.934-5.264 6.418-6.853 10.253-1.588 3.834-2.406 7.944-2.406 12.095v18.38c0 4.151.818 8.262 2.406 12.097 1.589 3.835 3.917 7.319 6.852 10.255 2.936 2.935 6.42 5.263 10.255 6.852 3.835 1.588 7.946 2.406 12.097 2.406h6.22c8.75 0 16.43-4.78 20.7-13 .085-.168.224-.303.394-.383.171-.079.363-.1.546-.057.184.043.347.146.465.293.118.147.183.329.185.517v9.84c0 .364.072.724.211 1.06.139.336.343.641.6.899.258.257.563.461.899.6.336.139.696.211 1.06.211h19.23c.736-.003 1.442-.296 1.963-.817.521-.521.814-1.227.817-1.963V32.61c-.003-1.924-.769-3.77-2.13-5.13zm-58.09 78V90c.003-2.513 1.002-4.923 2.78-6.7 1.777-1.778 4.187-2.777 6.7-2.78h15.93c2.514 0 4.926.999 6.703 2.777 1.778 1.778 2.777 4.189 2.777 6.703v15.48c.001 1.246-.243 2.48-.719 3.631-.476 1.151-1.174 2.197-2.054 3.079-.881.881-1.926 1.58-3.077 2.057-1.151.477-2.384.723-3.63.723h-15.93c-2.513-.003-4.923-1.002-6.7-2.78-1.778-1.777-2.777-4.187-2.78-6.7v-.01zM162.42 57H143.2c-.735 0-1.439.292-1.959.811-.519.52-.811 1.224-.811 1.959v9.83c-.002.188-.067.37-.185.517-.117.147-.281.25-.465.293-.183.043-.375.022-.546-.057-.17-.08-.309-.215-.394-.383-4.27-8.2-12-13-20.7-13h-6.23c-8.381 0-16.418 3.33-22.344 9.255-5.927 5.927-9.256 13.964-9.256 22.345v18.38c-.001 4.151.815 8.261 2.403 12.096 1.587 3.835 3.915 7.32 6.849 10.255 2.934 2.935 6.418 5.264 10.253 6.853 3.834 1.588 7.944 2.406 12.095 2.406h6.23c8.74 0 16.43-4.78 20.7-13 .085-.168.224-.303.394-.383.171-.079.363-.1.546-.057.184.043.348.146.465.293.118.147.183.329.185.517v9.84c0 .735.292 1.439.811 1.959.52.519 1.224.811 1.959.811h19.22c.737 0 1.444-.293 1.966-.814.521-.522.814-1.229.814-1.966v-76c-.001-.364-.074-.724-.215-1.06-.14-.335-.345-.64-.603-.896s-.565-.459-.901-.597c-.337-.138-.697-.208-1.061-.207zm-22.54 48.53c0 1.246-.245 2.48-.722 3.632-.477 1.151-1.176 2.197-2.057 3.078-.882.882-1.928 1.581-3.079 2.058-1.152.477-2.386.722-3.632.722h-15.92c-2.517 0-4.931-1-6.71-2.78-1.78-1.779-2.78-4.193-2.78-6.71V90c.003-2.515 1.004-4.926 2.783-6.704 1.78-1.778 4.192-2.776 6.707-2.776h15.92c2.515 0 4.928.999 6.707 2.776 1.779 1.778 2.78 4.189 2.783 6.704v15.53zM231.78 57H230c-8.74 0-16.43 4.77-20.7 13-.085.168-.224.303-.394.383-.171.08-.363.1-.546.057-.184-.043-.348-.146-.465-.293-.118-.147-.183-.329-.185-.517v-9.9c-.011-.728-.307-1.422-.825-1.933-.519-.51-1.217-.797-1.945-.797h-19.22c-.365-.001-.728.07-1.065.209-.338.14-.645.344-.904.602-.258.259-.463.566-.602.904-.139.337-.21.7-.209 1.065v75.91c0 .743.295 1.455.82 1.98.525.525 1.237.82 1.98.82h19.17c.368 0 .732-.072 1.071-.213.34-.141.649-.347.909-.607s.466-.569.607-.908c.141-.34.213-.704.213-1.072l.07-44.69c0-2.514.999-4.925 2.777-6.703 1.777-1.778 4.189-2.777 6.703-2.777h11.8c2.513.003 4.923 1.002 6.7 2.78 1.778 1.777 2.777 4.187 2.78 6.7l.06 44.64c.003.744.3 1.456.827 1.981.526.524 1.239.819 1.983.819h19.16c.369.001.734-.07 1.075-.21.34-.14.65-.346.911-.607.261-.26.469-.569.61-.909.141-.341.214-.705.214-1.074V88.56c-.011-8.374-3.345-16.401-9.27-22.319C248.185 60.324 240.154 57 231.78 57zM16.23 40.34c-4.305.003-8.434 1.715-11.477 4.76C1.71 48.145 0 52.275 0 56.58v73.15c0 2.591 1.029 5.077 2.86 6.91l16.91 16.9c.41.409.931.688 1.5.8.567.113 1.156.055 1.69-.166.536-.222.993-.597 1.315-1.078.322-.481.494-1.047.495-1.626V114c0-.724.288-1.418.8-1.93s1.206-.8 1.93-.8H56c.773 0 1.526-.246 2.15-.703.624-.456 1.086-1.1 1.32-1.837l5.37-17c.146-.46.182-.947.104-1.423-.077-.476-.266-.928-.55-1.317-.285-.39-.657-.707-1.087-.926-.43-.219-.905-.333-1.387-.334H27.5c-.359.001-.715-.068-1.046-.205-.332-.137-.634-.338-.887-.592-.254-.253-.455-.555-.592-.887-.137-.332-.206-.687-.205-1.046V66.45c0-.358.07-.713.208-1.043.137-.33.339-.631.592-.884.254-.253.555-.453.886-.589.331-.136.686-.205 1.044-.204h43.74c.77 0 1.521-.245 2.143-.7.622-.455 1.084-1.096 1.317-1.83l5.41-16.86c.146-.46.182-.947.104-1.423-.077-.476-.266-.928-.55-1.317-.285-.39-.657-.707-1.087-.926-.43-.219-.905-.333-1.387-.334H16.23z"/></svg>