<svg xmlns="http://www.w3.org/2000/svg" width="500" height="455"><path d="M278.096 205.831l10.965-12.46v-84.226l-52.33 20.185-43.36 77.249 43.36-16.696z" fill="#0222a9"/><path d="M371.044 323.2V181.16l53.078-20.433v223.524l-53.078 22.427-77.996-101.92v134.813l-56.317 23.673V232.993l56.317-21.43z" fill="#011da9"/><path d="M152.255 384.5l-49.838-96.685v118.864z" fill="#0222a9"/><path d="M155.495 160.728l24.919 50.835 12.958-4.984 43.359-77.25-52.33-20.433zm122.601 45.103l39.87-45.103 53.078 20.433V323.2l-77.996-111.637z" fill="#069330"/><path d="M236.73 463.245V232.993l-56.316-21.43v116.87L102.168 181.16l-53.077-20.433v223.524l53.077 22.427V287.815l78.246 151.757z" fill="#069330"/><path d="M102.417 181.161l53.078-20.433 24.919 50.835v116.87zM293.048 360.33l15.948 22.426 62.048 23.923-77.996-101.92z" fill="#fe2015"/><path d="M180.663 211.563l56.317-21.43 56.317 21.43-56.317 21.43zm190.381-71.269l53.078 20.434-53.078 20.433-53.077-20.433zm-268.627 0l53.078 20.434-53.078 20.433-53.077-20.433zM236.73 88.712l-52.33 20.184 52.33 20.434 52.33-20.185z" fill="#ffc001"/></svg>