<svg xmlns="http://www.w3.org/2000/svg" xmlns:xlink="http://www.w3.org/1999/xlink" width="144" height="56">
    <rect width="113.416" height="25.41" rx="12.705" ry="12.705" x="15.292" y="3.913" fill="#fff" stroke="red" stroke-width="3.409" />
    <path d="M39.3 23.3V10h-4v9.3L29.4 10h-4.3v13.3h4v-9.6l6.2 9.6h4zM45.8 23.3v-9h-4v9h4zM45.8 12.4V10h-4v2.4h4z" fill="red" />
    <path d="M59.8 23.3v-6.2c0-1.3-2.5-3.1-3.8-3.1h-1.2c-.9 0-1.9.8-2.8 1.2v-.9h-4v9h4v-6.2c0-.6 1.4-1.3 2-1.3.6 0 1.7.7 1.7 1.3v6.2h4.1z" id="a" fill="red" />
    <use transform="translate(33.467 .31)" fill="red" width="467" height="187" xlink:href="#a" href="#a" />
    <path d="M66.3 23.3v-9h2.1v-1.2h-2.1v-1.9h-4.1v1.9h-2.1v1.2h2.1v9h4.1zM74 14c-3.2 0-5.9 2.2-5.9 4.9 0 2.8 2.7 5 5.9 5 2.8 0 5.1-1.6 5.7-3.7h-4.1v1.2c0 1-.7 1.3-1.6 1.3-.9 0-1.5-.3-1.5-1.3v-2.5h7.4c0-2.7-2.6-4.9-5.9-4.9zm0 .9c.9 0 1.6.6 1.6 1.6v.9h-3.1v-.9c0-1 .6-1.6 1.5-1.6zM113.4 14c-3.3 0-5.9 2.2-5.9 4.9 0 2.8 2.6 5 5.9 5 3.2 0 5.9-2.2 5.9-5 0-2.7-2.7-4.9-5.9-4.9zm0 .9c.9 0 1.5.6 1.5 1.6v4.9c0 1-.6 1.3-1.5 1.3-1 0-1.6-.3-1.6-1.3v-4.9c0-1 .6-1.6 1.6-1.6zM101.9 10v4.9s-1.2-.9-2.8-.9c-2.5 0-4.6 2.2-4.6 4.6 0 2.5 2.1 5 4.6 5 1.6 0 2.8-.6 2.8-.6v.3h4V10h-4zm-1.5 5.5c.9 0 1.5.7 1.5 1.6v3.7c0 .9-.6 1.2-1.5 1.2-1 0-1.6-.3-1.6-1.2v-3.7c0-.9.6-1.6 1.6-1.6z"
    fill="red" />
    <path d="M121.7 12.1c0 1-.9 1.9-1.9 1.9-1.1 0-1.9-.9-1.9-1.9 0-1.1.8-2 1.9-2 1 0 1.9.9 1.9 2zm-1.4.8l-.4-.7h-.7.7c.6 0 .6-1 0-1h-.7v1.7" fill="none" stroke="red" stroke-width=".319" />
    <path d="M23.6 42.8V37c0-1.1-1.1-2.2-2.2-2.2H13v8h2.6v-5.4c0-.4.3-.8.7-.8h4c.4 0 .8.4.8.8v5.4h2.5z" id="b" />
    <use transform="translate(69.393)" id="c" width="467" height="187" xlink:href="#b" href="#b" />
    <use transform="translate(37.983)" width="467" height="187" xlink:href="#c" href="#c" />
    <path d="M108.3 42.8V37c0-1.1-1.1-2.2-2.2-2.2H94.8v8h2.6v-5.4c0-.4.3-.8.7-.8h1.5c.3 0 .7.4.7.8v5.4h2.6v-5.4c0-.4.3-.8.7-.8h1.5c.3 0 .7.4.7.8v5.4h2.5z" id="f" />
    <path d="M11.2 42.8H4.6c-1.1 0-2.2-.7-2.2-1.8v-6.3h8.8v1.9H5.3c-.3 0-.7.3-.7.7 0 .4.4.7.7.7h5.5v1.6H5.3c-.3 0-.7.4-.7.7 0 .4.4.8.7.8h5.9v1.7z" id="d" />
    <use transform="translate(32.505)" width="467" height="187" xlink:href="#d" href="#d" />
    <use transform="translate(107.741)" width="467" height="187" xlink:href="#d" href="#d" />
    <path d="M24.7 34.8v1.8h2.6c.7 0 .7 0 .7.8v5.4h2.5v-5.4c0-.8 0-.8.8-.8h2.5v-1.8h-9.1z" id="e" />
    <use transform="translate(31.774)" width="467" height="187" xlink:href="#e" href="#e" />
    <use transform="translate(107.741)" width="467" height="187" xlink:href="#e" href="#e" />
    <path d="M45.5 34.8v8h2.6v-1.4c0-.4.3-.8.7-.8h3.3c.4 0 .7.4.7.8v1.4H55v-2.2c0-.3-.3-.7-.3-1.1 0-.3.7-1 .7-1.8V37c0-.7-1.1-2.2-1.8-2.2h-8.1zm3.3 1.8h3.3c.4 0 .7.4.7.8v.7c0 .4-.3.7-.7.7h-3.3c-.4 0-.7-.3-.7-.7v-.7c0-.4.3-.8.7-.8zM68.5 34.8c-.7 0-1.8 1.5-1.8 2.2v5.8h2.6v-2.2H74v2.2h2.6V37c0-.7-1.1-2.2-1.9-2.2h-6.2zm1.5 1.8h3.3c.3 0 .7.4.7.8v1.4h-4.7v-1.4c0-.4.3-.8.7-.8zM80.9 42.8v-8h-2.5v8h2.5z"
    />
    <use transform="translate(-3.287 10.957)" width="467" height="187" xlink:href="#f" href="#f" />
    <use transform="translate(78.523 10.957)" width="467" height="187" xlink:href="#d" href="#d" />
    <use transform="translate(46.018 10.957)" width="467" height="187" xlink:href="#e" href="#e" />
    <path d="M41.1 45.8c-.7 0-2.2 1.1-2.2 1.8v1.1c0 .7 1.5 1.8 2.2 1.8h4.4c.4 0 .8.4.8.7 0 .4-.4.8-.8.8h-6.6v1.8h7.4c.7 0 2.1-1.1 2.1-1.8v-1.1c0-.8-1.4-1.9-2.1-1.9h-4.4c-.4 0-.8-.3-.8-.7 0-.4.4-.7.8-.7h6.5v-1.8h-7.3z" id="g" />
    <use transform="translate(21.183)" width="467" height="187" xlink:href="#g" href="#g" />
    <path d="M49.2 45.8v3.6c0 .7 1.1 1.8 1.8 1.8h1.8v2.6h2.6v-2.6h1.8c.7 0 1.8-1.1 1.8-1.8v-3.6h-2.5v2.9c0 .3-.4.7-.8.7h-3.2c-.4 0-.8-.4-.8-.7v-2.9h-2.5z" />
</svg>