<svg version="1.2" baseProfile="tiny" xmlns="http://www.w3.org/2000/svg" width="566.929" height="78.275"><path fill="#999" d="M347.884 70.38c0 .83-.682 1.578-1.521 1.578h-29.102c-.848 0-1.527-.748-1.527-1.578V49.358c0-.832.682-1.496 1.527-1.496h29.102c.84 0 1.521.664 1.521 1.496V70.38zm-1.263-28.834H317c-4.287 0-7.787 3.49-7.787 7.813v21.104c0 4.236 3.5 7.813 7.787 7.813h29.621c4.297 0 7.787-3.574 7.787-7.813V49.358c0-4.322-3.491-7.812-7.787-7.812"/><path fill="#C91818" d="M6.797 9.969v27.174H0V.414h5.808L33.337 27.17V.414h6.706v36.729h-5.311L6.797 9.969M74.943 9.969v27.174h-6.797V.414h5.8l27.529 26.756V.414H108.189v36.729h-5.31L74.943 9.969M216.179 9.969v27.174h-6.797V.414h5.8l27.529 26.756V.414h6.714v36.729h-5.301L216.179 9.969M56.23.414h1.255v36.729h-6.797V.414h5.542M154.482.414h1.246v6.315h-16.386v30.413h-7.063V6.729h-16.386V.414h38.589M198.023.414h1.271v6.315H170.16v8.226h22.536v6.316H170.16v9.555h29.134v6.315h-35.863V.412c.39.002 34.592.002 34.592.002M287.216 30.827h-20.874V6.731h20.874c6.531 0 8.852 6.479 8.852 12.049-.002 5.482-2.318 12.047-8.852 12.047zm11.153-25.01c-2.658-3.573-6.59-5.401-11.344-5.401h-27.238v36.729h27.238c4.754 0 8.686-1.911 11.344-5.401 2.492-3.24 3.813-7.728 3.813-12.962-.001-5.239-1.321-9.725-3.813-12.965M347.884 29.331c0 .748-.682 1.496-1.521 1.496h-29.102c-.848 0-1.527-.748-1.527-1.496V8.226c0-.831.682-1.496 1.527-1.496h29.102c.84 0 1.521.665 1.521 1.496v21.105zM346.621.414H317c-4.287 0-7.787 3.49-7.787 7.813v21.104c0 4.321 3.5 7.813 7.787 7.813h29.621c4.297 0 7.787-3.49 7.787-7.813V8.226c0-4.32-3.491-7.812-7.787-7.812M470.017 62.737c7.045 2.824 21.928 5.066 33.545 5.066 12.713 0 17.973-4.32 17.973-9.806 0-4.985-4.887-7.811-18.92-12.963-18.771-6.896-32.541-12.38-32.541-24.762 0-12.713 16.57-20.274 41.822-20.274 13.561 0 18.215.831 26.822 2.41l.066 12.131c-8.459-1.578-15.955-4.321-27.598-4.321-12.479 0-17.799 3.988-17.799 8.063 0 5.9 8.191 8.725 22.563 13.876 20 7.146 31.127 12.629 31.127 24.68 0 12.463-13.938 21.438-45.361 21.438-12.904 0-21.805-.832-31.699-2.492V62.737M403.125 10.719H388.17V67.39h14.955c22.961 0 37.443-9.89 37.443-28.252 0-18.365-14.483-28.419-37.443-28.419zm40.144 61.905c-7.396 3.324-21.391 5.484-33.621 5.484H362.9V.165h46.748c12.23 0 26.225 2.16 33.637 5.484 18.008 8.143 23.873 21.188 23.873 33.485 0 12.302-5.817 25.347-23.889 33.49M551.773 66.475h-3v-1.08h7.305v1.08h-3.016V75.2h-1.289v-8.725M565.443 70.878c-.076-1.328-.158-2.989-.158-4.235h-.033a59.201 59.201 0 0 1-1.246 3.737l-1.736 4.82h-.965l-1.609-4.736c-.467-1.414-.85-2.659-1.121-3.821h-.033a124.98 124.98 0 0 1-.186 4.319l-.268 4.238h-1.213l.689-9.807h1.621l1.68 4.735c.406 1.246.73 2.326.996 3.324h.025c.266-.998.613-2.078 1.055-3.324l1.754-4.735h1.619l.615 9.807h-1.254l-.232-4.322"/></svg>