<svg xmlns="http://www.w3.org/2000/svg" version="1" width="800" height="238.151">
    <g fill-rule="evenodd">
        <path fill="#13007c" d="M0 0v9.149h225.361v50.725H0v69.847h9.143v-60.7h224.536V0H0zM517.252 0v9.149H742.62v50.725H517.252v69.847h234.512v-9.137H527.237V69.021h224.527V0H517.252zM353.431 0v120.584H233.679v9.137h129.728V9.149h118.918V0H353.431z" />
        <path d="M775.884 116.417h-4.163v-1.652h11.647v1.652h-4.991v13.304h-2.493v-13.304zM788.358 114.765l4.154 12.464 4.164-12.464H800v14.956h-1.667v-12.465l-4.154 12.465h-2.497l-4.159-12.465v12.465h-2.498v-14.956h3.333z" />
    </g>
    <path d="M189.722 175.407v45.71h7.135v-41.33h6.606s4.798 0 6.442 2.146c1.396 1.823 1.65 5.13 1.65 7.363 0 2.389-.15 6.083-.952 7.435-1.217 2.066-3.215 2.48-5.042 2.48h-4.36v4.057h6.27s5.656.236 8.09-2.237c2.983-3.032 3.74-7.108 3.74-12.565 0-4.958-1.798-9.96-5.476-11.659-3.043-1.4-8.531-1.4-8.531-1.4h-15.572M224.91 221.118h7.135v-45.71h-7.135v45.71zM270.006 186.069l13.055 34.215-7.494 18.356h5.923l21.583-52.571h-6.614l-9.4 25.623-8.748-25.623h-8.305M308.446 220.846v-4.32s7.546.296 9.118.296c3.482 0 5.22-.742 6.53-2.146.773-.842 1.471-4.571 1.471-5.9 0-1.324-.255-4.187-.774-5.36-.534-1.149-1.75-2.222-3.574-2.377-1.3-.112-3.31-.375-5.66-.483-3.294-.156-5.472-1.875-6.521-3.111-1.041-1.237-2.433-3.1-2.433-8.8 0-5.707 1.476-8.906 2.955-10.39 1.48-1.492 3.646-2.146 5.31-2.441 1.914-.327 5.041-.347 5.041-.347l9.988.291v4.32s-7.284-.291-8.851-.291c-3.482 0-4.527.746-5.832 2.146-.77.833-1.372 3.139-1.372 4.459 0 1.328.156 4.009.678 5.17.519 1.148 1.74 2.225 3.566 2.389 1.297.1 3.31.363 5.656.47 3.31.156 5.485 1.871 6.522 3.112 1.049 1.24 2.445 3.853 2.445 9.548 0 5.708-1.488 9.785-2.96 11.273-1.484 1.483-3.645 2.145-5.309 2.433-1.918.33-5.045.355-5.045.355l-10.95-.296M347.38 179.787h-7.133v33.557s.172 3.063.348 4.14c.175 1.077 1.743 3.634 5.831 3.634l7.391-.144v-4.304s-2.002.144-3.21.144c-1.225 0-2.71-.08-2.96-2.15-.268-2.066-.268-4.535-.268-4.535v-19.76h8.057v-4.3h-8.057v-6.282M416.24 221.118h7.133V186.07h-7.133v35.047zM416.24 181.77h7.133v-6.364h-7.133v6.363zM445.916 185.77c4.855 0 8.62 1.085 10.642 2.72 2.042 1.64 4.551 5.098 4.551 15.105 0 10.008-2.509 13.462-4.55 15.106-2.023 1.635-5.788 2.728-10.643 2.728-4.866 0-8.615-1.093-10.654-2.728-2.038-1.644-4.535-5.098-4.535-15.106 0-10.007 2.497-13.466 4.535-15.105 2.039-1.635 5.788-2.72 10.654-2.72zm-4.89 6.72c-.981 1.21-2.178 3.75-2.178 11.105 0 7.352 1.197 9.896 2.178 11.1.977 1.198 2.78 2.007 5.114 2.007 2.337 0 4.132-.81 5.121-2.006.977-1.205 2.174-3.75 2.174-11.1 0-7.356-1.197-9.897-2.174-11.105-.989-1.2-2.784-2.003-5.121-2.003-2.334 0-4.137.802-5.114 2.003M475.887 190.991l6.997-.295c1.83 0 3.984.494 5.03 1.819.973 1.248 1.587 2.736 1.587 5.133v23.43h7.144v-24.02c0-4.543-1.4-7.184-3.498-8.843-2.992-2.373-8.353-2.146-8.353-2.146l-15.983.287v34.722h7.076V190.99M402.033 179.787h-7.136v33.557s.167 3.063.339 4.14c.18 1.077 1.735 3.634 5.84 3.634l7.39-.144v-4.304s-2.006.144-3.219.144c-1.212 0-2.7-.08-2.96-2.15-.254-2.066-.254-4.535-.254-4.535v-19.76h8.037v-4.3h-8.037v-6.282M259.121 197.648c0-2.397-.61-3.885-1.591-5.133-1.045-1.325-3.191-1.82-5.026-1.82l-9.41.296v-4.635l11.325-.287s5.36-.228 8.356 2.146c2.09 1.66 3.478 4.3 3.478 8.843v23.685l-13.673.295s-6.19.022-9.31-1.24c-3.04-1.237-4.699-4.631-4.699-9.342 0-4.547 1.392-7.188 3.483-8.847 2.995-2.377 8.352-2.142 8.352-2.142h4.367v4.037h-2.449c-1.834 0-3.721.339-4.77 1.663-.977 1.236-1.5 2.31-1.5 4.707 0 3.147.61 4.55 2.09 5.62 1.309.953 3.65 1.16 6.263 1.16l4.714-.287v-18.719M379.433 197.648c0-2.397-.599-3.885-1.58-5.133-1.057-1.325-3.203-1.82-5.026-1.82l-9.405.296v-4.635l11.316-.287s5.357-.228 8.348 2.146c2.09 1.66 3.486 4.3 3.486 8.843v23.685l-13.673.295s-6.198.022-9.31-1.24c-3.043-1.237-4.706-4.631-4.706-9.342 0-4.547 1.404-7.188 3.482-8.847 2.991-2.377 8.36-2.142 8.36-2.142h4.364v4.037h-2.453c-1.823 0-3.722.339-4.759 1.663-.981 1.236-1.507 2.31-1.507 4.707 0 3.147.614 4.55 2.09 5.62 1.304.953 3.657 1.16 6.27 1.16l4.703-.287v-18.719M509.576 221.405a6.953 6.953 0 0 0 6.968-6.964 6.94 6.94 0 0 0-2.038-4.93 6.936 6.936 0 0 0-4.93-2.035c-3.825 0-6.964 3.123-6.964 6.965 0 1.858.718 3.61 2.046 4.93a6.946 6.946 0 0 0 4.918 2.034zm-5.796-6.964c0-1.548.61-3.004 1.7-4.097a5.778 5.778 0 0 1 4.096-1.703c1.548 0 3.008.61 4.1 1.703a5.777 5.777 0 0 1 1.7 4.097c0 3.195-2.597 5.8-5.8 5.8a5.79 5.79 0 0 1-4.096-1.7 5.786 5.786 0 0 1-1.7-4.1"
    />
    <path d="M513.014 217.675c-.103-.04-.183-.16-.227-.339a2.87 2.87 0 0 1-.068-.586l-.032-1.001c-.016-.47-.115-.806-.283-1.03-.108-.15-.271-.27-.459-.382.232-.152.44-.335.587-.566.195-.312.299-.706.299-1.185 0-.918-.387-1.564-1.141-1.903-.399-.18-.882-.26-1.472-.26h-3.602v7.755h1.34v-3.18h2.118c.383 0 .67.04.834.113.275.135.423.41.439.83l.06 1.24c.015.303.031.494.055.606.036.12.056.215.1.295l.056.096h1.495v-.455l-.1-.048zm-1.551-4.993c0 .434-.112.722-.327.881-.248.164-.59.255-1.021.255h-2.158v-2.193h2.29c.306 0 .562.043.745.131.32.16.47.47.47.925M560.644 181.31c.095 5.266-.164 8.042-1.931 10.69-1.564 2.314-4.65 4.44-11.48 4.44l-8.472-.264c-1.332.016-4.806.415-6.441 2.182-1.412 1.5-1.504 2.64-1.66 6.681v11.815h28.807v5.807H527.98l-1.504-.019c-2.142 0-4.248-1.452-4.248-4.356v-8.815c.144-10.318.89-11.802 3.127-14.499 1.552-1.862 5.186-3.956 9.621-4.18.87-.048 2.517-.16 4.799-.076 1.69.056 3.354.1 4.096.108 3.92.048 5.353-.674 6.426-2.082 1.224-1.588 1.87-3.45 1.87-6.51 0-2.852-.574-5.572-1.667-6.825-1.328-1.443-2.584-2.413-6.278-2.42-9.302-.026-20.179.215-20.179.215v-5.465s10.626-.462 21.467-.622c6.753-.104 10.459 1.68 12.353 4.144 1.987 2.585 2.7 5.014 2.78 10.052"
    />
</svg>