<svg xmlns="http://www.w3.org/2000/svg" version="1" width="296" height="73.92" viewBox="0 0 1 1">
    <path d="M-1.308.017a.086.086 0 0 0-.08.069v.001L-1.39.09v.004l-.002.002V.1l-.001.002v.002l-.001.004-.002.005v.005l-.002.005v.005L-1.4.134-1.4.14l-.002.005-.002.012-.001.006-.001.006-.001.005-.001.006-.002.005V.19l-.001.005-.002.004v.012l-.002.002V.22c-.001.016.001.04.007.043.006.037.129.208.125.234A2.958 2.958 0 0 1-1.3.598c-.005.026-.022.047-.048.047a.038.038 0 0 1-.04-.047l.024-.127h-.092l-.03.177a.053.053 0 0 0 .054.064h.13c.037 0 .071-.029.078-.064 0 0 .033-.165.033-.177 0-.012-.003-.013-.003-.013 0-.013-.11-.194-.12-.2-.005-.003-.01-.021-.01-.032 0-.01.015-.083.015-.083a.058.058 0 0 1 .055-.046c.025 0 .036.02.032.046l-.02.115h.092l.032-.172c.008-.038-.017-.07-.054-.07h-.136zm.252 0l-.11.63a.053.053 0 0 0 .055.065h.13A.082.082 0 0 0-.903.648l.117-.631h-.082L-.979.63A.02.02 0 0 1-1 .646h-.065c-.009 0-.015-.007-.013-.016l.109-.613h-.088zm.315 0l-.132.695h.087l.06-.315h.112c.036 0 .07-.029.077-.064l.048-.247c.007-.039-.017-.07-.054-.07h-.198zm.312 0l-.136.695h.197l.013-.086h-.097l.04-.235h.097L-.3.318h-.097l.043-.215h.097l.014-.086H-.43zm.236 0l-.131.695h.087l.06-.315h.062c.008.008.009.022.01.029a.13.13 0 0 1 .002.033c0 .01-.048.253-.048.253h.088l.05-.268c0-.005 0-.018-.006-.026C-.022.414-.027.403-.034.398-.046.392-.06.387-.06.387h-.006C-.04.376.006.359.011.333L.06.086C.067.047.042.016.005.016h-.198zm.469 0L.144.712h.1L.326.309l.032.403h.087L.577.017h-.1L.408.38.363.017H.276zm.347 0L.491.712H.58L.71.017H.623zm.134 0L.625.712h.1L.808.309.84.712h.088L1.06.017H.958L.89.38.845.017H.757zm.34 0L1.08.103h.054l-.108.609h.1l.11-.61h.053l.014-.085h-.207zm.24 0L1.2.712h.197l.014-.086h-.097l.04-.235h.097l.014-.073h-.097L1.41.103h.097l.014-.086h-.184zm.222 0l-.132.695h.102L1.61.309l.032.403h.088l.132-.695H1.76L1.693.38 1.648.017h-.089zm.349 0l-.132.695h.2a.082.082 0 0 0 .077-.064L2.16.086c.007-.039-.018-.07-.055-.07h-.197zm.375 0a.085.085 0 0 0-.08.069l-.098.562c-.006.035.018.064.054.064h.144a.082.082 0 0 0 .078-.064l.106-.562c.008-.038-.017-.07-.054-.07h-.15zm-.3.08h.04c.025 0 .043.02.039.046l-.087.455a.06.06 0 0 1-.055.048h-.04l.102-.55zm.352 0h.002c.026 0 .043.02.039.046l-.082.455a.058.058 0 0 1-.054.048c-.026 0-.037-.022-.033-.048L2.29.143V.141L2.29.14V.136l.002-.002V.13l.002-.002.001-.003V.123l.002-.002V.12L2.3.117 2.3.116l.002-.002.001-.002.002-.002.002-.001.001-.001.002-.002.002-.001.001-.001.003-.002h.002L2.32.1h.001l.003-.001h.004L2.33.096h.005zM-.657.099h.042c.01 0 .03.022.028.031l-.037.172c-.001.009-.013.03-.022.03h-.052L-.7.33h-.005V.328h-.001L-.707.328h-.001V.326L-.709.326-.71.324V.323L-.71.322V.32h-.001V.314l.04-.21A.021.021 0 0 1-.656.099zm.545 0H-.069c.01 0 .029.022.027.031l-.036.171c-.002.01-.024.03-.033.03h-.038C-.156.331-.162.326-.162.32V.315l.04-.21.001-.001.002-.001h.001V.101h.002V.1h.004V.098zm-1.39.673V1h3.906V.772h-3.906zm2.871.024h.034c.008 0 .014.007.012.015L1.407.85H1.39l.004-.025c.001-.006-.002-.01-.008-.01a.013.013 0 0 0-.012.01l-.004.019.002.006a.304.304 0 0 1 .027.045v.003l-.007.039a.018.018 0 0 1-.017.014h-.029c-.008 0-.013-.007-.011-.014l.006-.04h.02l-.005.029c0 .005.003.01.009.01.005 0 .011-.005.012-.01L1.38.902C1.376.892 1.352.858 1.35.85V.84l.005-.029V.81l.001-.002V.806l.002-.001V.802h.002V.8h.002V.8l.001-.001h.001l.001-.002h.004zm.158 0h.024l.004.058.031-.058h.025l-.05.089-.013.065h-.022l.01-.07-.01-.084zm.223 0h.033c.009 0 .015.007.013.015L1.79.85H1.77l.004-.025c.001-.006-.002-.01-.008-.01a.013.013 0 0 0-.012.01L1.75.843l.002.006a.316.316 0 0 1 .027.045v.003l-.006.039a.018.018 0 0 1-.017.014h-.03c-.008 0-.013-.007-.011-.014l.007-.04h.02l-.005.029c-.001.005.002.01.008.01s.011-.005.012-.01l.004-.023c-.003-.01-.028-.044-.03-.052V.84l.005-.029V.81l.001-.002V.807h.001V.804L1.74.803 1.74.803l.001-.001L1.742.8 1.744.8l.001-.001h.002V.796h.004zm.16 0h.046l-.004.019h-.011L1.917.95h-.023l.024-.135h-.012L1.91.796zm.179 0h.041l-.003.019h-.022l-.01.048h.023L2.114.88h-.02l-.01.052h.021L2.103.95h-.044l.03-.154zm.169 0h.025l.004.089.04-.088h.024L2.325.95h-.02l.013-.081-.034.081H2.27L2.266.867 2.251.95H2.23l.029-.154zm-3.675.006h.04L-1.38.82h-.022l-.008.048h.02l-.002.016h-.022l-.008.052h.021l-.003.02h-.044l.03-.155zm.189 0h.019l.01.08.015-.08h.023l-.03.154h-.019l-.007-.09-.018.09h-.023l.03-.154zm.205 0h.045L-.981.82h-.011l-.025.135h-.022l.024-.135h-.012l.004-.02zm.199 0h.041L-.786.82h-.022l-.01.048h.022l-.003.016h-.02l-.01.052h.021l-.002.02h-.044l.03-.155zm.193 0h.044c.008 0 .013.007.011.015l-.01.055c-.001.006-.011.01-.017.013h.005l.001.001h.002v.001h.002l.002.008-.011.061h-.02L-.612.9a.03.03 0 0 0 0-.007c0-.002 0-.005-.002-.007h-.014l-.013.07h-.02l.03-.154zm.196 0h.046L-.392.82h-.012l-.025.135H-.45l.024-.135H-.44L-.435.8zm.228 0h.026L-.19.956h-.026l.004-.035h-.016l-.013.035h-.023l.057-.154zm.182 0h.02l-.03.154h-.02l.03-.154zm.176 0h.02l.01.08.015-.08h.021L.19.956h-.02L.162.866l-.018.09H.122l.03-.154zm.227 0h.025l.004.09.039-.09h.025L.445.956h-.02L.438.875.404.956H.39L.386.873.37.956H.349L.378.802zm.248 0h.04L.664.82H.642l-.01.048h.022L.651.885H.63L.621.937h.021L.64.957H.596l.03-.155zm.198 0h.02l.01.08.015-.08H.89L.862.956h-.02L.836.866l-.017.09H.795l.03-.154zm.204 0h.046L1.07.82h-.012l-.023.135h-.022l.024-.135h-.013L1.028.8zM-.612.82l-.003.001-.01.047c0 .002.002.003.004.003h.008c.002 0 .007-.004.007-.006l.008-.038C-.598.825-.602.82-.604.82h-.009zm.405.047l-.015.039h.011l.004-.04z"
    font-weight="400" fill="#fc0c18" />
</svg>