<svg xmlns="http://www.w3.org/2000/svg" width="566.929" height="142.564"><g fill="#CE021B"><path d="M0 .016l29.727 142.531L59.3.016H43.294L29.727 80.124 16.007.016H0zM65.855.016h16.006v142.531H65.855V.016zM96.181 0v142.555h16.012V68.899l22.266 73.652h14.762l-17.813-67.397c9.896-5.938 12.81-13.71 12.81-13.71V16.161C137.66 1.603 126.353 0 126.353 0H96.181zm16.012 14.51h16.012v49.536h-16.012V14.51zM149.24.016h47.867v14.48H181.1v128.05h-16.006V14.498H149.24V.016zM285.669 0l-30.924 142.402v.149h15.862l3.353-19.213h22.366l3.202 19.213h16.013L285.669 0zm0 61.443l7.306 49.085h-15.813l8.507-49.085zM321.955.016h16.008v128.049h23.936v14.481h-39.941L321.955.016zM493.148.016h14.635l14.938 61.435L536.289.016h16.156l-22.408 83.842v58.688h-16.006V83.859L493.148.016zM464.423.016c-18.193 0-24.041 16.146-24.041 16.146.15.229 0 107.181 0 110.23 2.412 17.325 24.041 16.155 24.041 16.155 24 0 23.992-16.155 23.992-16.155V16.161C482.21-.783 464.423.016 464.423.016zm-8.031 16.145h16.014v111.881h-16.014V16.161zM203.356.016h16.16V126.39h16.159V.016h15.853V126.39s-5.183 16.157-23.323 16.157-24.849-16.157-24.849-16.157V.016zM379.587 0v142.555h32.174c14.934-3.89 15.859-14.513 15.859-14.513s-.023-38.076-.023-47.918c-1.121-6.213-6.229-6.422-6.229-6.422s-.021-1.731 0-3.102c5.645-.433 6.254-6.556 6.254-6.556s-.023-38.039 0-47.885C425.179 4.533 411.761 0 411.761 0h-32.174zm16.061 16.26h16.111v47.785h-16.111V16.26zm-.049 62.247h16.16v49.535h-16.16V78.507zM539.72 128.066h11.125v1.656h-4.725v12.825h-1.604v-12.825h-4.801v-1.656h.005zM552.447 142.548v-14.481h1.602l5.717 12.92 5.486-12.92h1.678v14.481h-1.678v-11.209l-4.73 11.209h-1.615l-4.855-11.209v11.209h-1.605z"/></g></svg>