<svg xmlns="http://www.w3.org/2000/svg" viewBox="0 0 749.1 496.7" style="enable-background:new 0 0 749.1 496.7" xml:space="preserve"><style>.st0{fill:#44208d}.st1{fill:#00866b}</style><g id="illo"><path class="st0" d="M395.2 235.2c-11.8.3-23.5-.3-35.3 0-5.3.2-7.5-1.1-7.3-6.8.1-5.4.7-8.7 7.4-8.3 9.2.6 18.5.3 27.7.3 15.4 0 9.1-11.9 10.3-19.4 1.3-7.9-2.6-11.6-10.6-11.5-9.1.1-18.2-.6-27.3-.2-5.2.2-7.5-.8-7.6-6.6-.1-6.1 1.8-8 7.9-7.7 10 .4 20.2-.9 30.2.1 11 1.2 13.4-4.2 12.6-13.2-.7-8.2 4.3-19.8-11.7-19.3-19.6.6-39.3.6-58.9.3-9.3-.1-12.6 4-12.6 12.8.1 32.8.2 65.5-.1 98.3-.1 9.9 4.3 13.6 13.7 13.3 10.1-.3 20.2-.1 30.2-.1v-.1h31.5c15.2 0 9.3-11.8 10.6-19.3 1.3-8-1.4-12.8-10.7-12.6zM502.5 232.3c-3.5-5.7-3.3-8.5 2.6-12.9 13.1-9.8 19.4-33.2 12.6-49.2-6.6-15.5-18.1-26.8-36.5-28.2-2.5-.2-6.1 1.7-7.4-2.5h-5.1c-5.9 4-11.8 3.9-17.7 0h-25.3c-2 3.8-7.7 4-7.8 10-.3 35.7-1.2 71.3-1.6 107 0 4.9 1.1 9.9 7.7 11.3 19.6 4.2 26.8-1.5 26.6-21.5 0-3.4-.3-6.7 0-10.1.2-2.9-1.8-7.5 3.5-7.7 3.6-.2 7.7-2.1 10 4.2 2.9 7.7 8 14.7 12 22 8.3 14.9 23.2 20 38.6 13 4.6-2.1 4.5-5.1 2.2-9.1-4.7-8.8-9.1-17.8-14.4-26.3zm-37.7-35.8c-6.6.4-13.8 2.3-13.6-9.8.2-10.8 3.3-14.6 14-11.8 7.4.4 18.2-3 18.7 9.8.4 13.3-10.8 11.4-19.1 11.8zM57.7 142.1c-5.5-.6-11.7 1.9-16.6-2.6H36c-4.2 4.1-8.4 2.8-12.6 0H8.2c-4.7 3.4-8.1 7-8.1 13.7.2 33.9.1 67.7-.2 101.6-.1 6.6 1.7 10.5 6.5 12.3 0-.2.1-.4.1-.6.2.1.5.1.7.2-.1.2-.1.4-.2.6.5.2 1.1.3 1.7.4.6-.5 1.4-.5 2.4.3.4 0 .7.1 1.1.1 17.9.7 19.3-.3 19.2-18.1 0-2.9.4-6 0-8.8-1.7-10.7 3.8-12.8 13-12 5.8.5 11.7.5 17.4-.4-.1-.7-.2-1.4-.3-2.4.8.9 1.7 1.5 1 2.3 4.4-.7 8.6-1.9 12.7-3.7 17.6-8 25.4-26.7 21.2-49-3.4-19-18.2-31.6-38.7-33.9zM16.6 252.4c-.1-1.4-.1-1.4 3.8-1.1-1.8.5-2.8.8-3.8 1.1zm11.3 7.8c-.2-.1-.4-.2-.5-.3.3-.5.5-1 .8-1.5.2.2.5.3.7.5-.4.4-.7.8-1 1.3zm-.4-37c-.1 0-.3-.5-.3-.5.6-.3 1.1-.7 1.7-1 .1.4.3.7.4 1.1-.6.1-1.2.3-1.8.4zm17.3-25.5c-7.1.6-13.3.5-13.4-11.9-.1-14.6 9-11 16.6-11.3 8-.3 16.1.7 16 11.2-.2 11.6-8.8 12.5-19.2 12zm21 12.4c.2-1.1.5-2.4.8-3.6h4.3c.3 1.3.6 2.6 1 4.7-2.2-1.7-4.2 1.4-6.1-1.1zm5.9 15.7c-.1 0-.7-.4-.6-.5 0-.4.3-.7.6-1.2.4.4.8.7.8.8-.2.4-.5.7-.8.9zm.4-1.6c-.7-1.1-1.4-1.8-1.3-2.1.4-.7 1.1-1.3 1.8-1.9.4.5 1.2 1.1 1.1 1.5-.1.7-.8 1.4-1.6 2.5zm12-12.1s-.2-.5-.3-.8c.6-.1 1.1-.2 1.7-.3.1.2.1.4.2.6-.6.1-1.1.3-1.6.5zm3.1-4.3c-.3.8-.5 1.5-1 2.9-1-2.5-1-2.5 1-2.9zm-.4 4.7c0-.2-.1-.5-.1-.7.6-.1 1.2-.2 1.8-.4 0 .2.1.5.1.7-.7.1-1.3.2-1.8.4zm2.5-.9c.1-1.7.1-2.7.2-4 .9.4 1.5.6 2.5 1-.9.9-1.6 1.7-2.7 3zM270.7 142.1c-5.5-.6-11.7 1.9-16.6-2.6H249c-4.2 4.1-8.4 2.8-12.6 0h-15.2c-4.7 3.4-8.1 7-8.1 13.7.2 33.9.1 67.7-.2 101.6-.1 8.7 3 12.9 12.2 13.2 17.9.7 19.3-.3 19.2-18.1 0-2.9.4-6 0-8.8-1.6-10.7 3.8-12.8 13-12 10.5.9 21.2.2 30.9-4.2 17.6-8 25.4-26.7 21.2-49-3.3-18.9-18.2-31.5-38.7-33.8zm3.3 27.6c-.1.7-.1 1.4-.2 2.1h-1c0-.7-.1-1.4-.1-2.1h1.3zm-6.6-12c-1.2 1.2-1.7 1.8-2.3 2.4-.6-.7-.8-.9-.8-1.1-.2-1.6.7-1.8 3.1-1.3zm-9 4.4c-.3.7-.4 1.7-.9 2.1-.8.5-1.9.6-2.8.8-.1 1-.2 1.9-.3 3-2.4-2.4-2.4-2.4-.6-5.7 1-.2 1.9-.5 2.8-.5.6-.1 1.2.2 1.8.3zm-8-3.8c-.2-.3.3-1 .4-1.5.9.3 1.7.7 3 1.2-1.7 1.6-2.7 1.4-3.4.3zm4.3-6.4c-.3 2.4-.3 2.4-7.8 3 1.7-3.8 5.3-1.7 7.8-3zm-10.2-2.1c.1-.3 1.3-.4 2.7-.7-.7 1.5-1.1 2.4-1.4 3.2h-1c-.1-.8-.5-1.7-.3-2.5zm-12.1 1.5c-1.2 2.5-2.3 4.7-3.4 7-1.8-1.4-3.1-2.5-4.9-3.9 3.3.1 4.1-4.9 8.3-3.1zm-7.8-8.5c.6.8 1 1.3 1.3 1.9.1.1-.6.7-.6.7-.6-.4-1.1-.7-1.5-1.2-.1-.1.4-.7.8-1.4zm15.5 36.1-.3-.9c.6-.2 1.2-.4 1.9-.6.1.3.2.7.2 1-.6.1-1.2.3-1.8.5zm8.5 28.2c-.2-.2-.4-.4-.7-.6.5-1.3 1.2-2.3 3.2-2-.8.8-1.7 1.7-2.5 2.6zm9.3-9.4c-7.1.5-13.4.5-13.5-11.9 0-.9 0-1.8.1-2.5-.1.1-.2.2-.3.4-1.5-1.6-1.6-2.9.5-4.8.1.5.2 1 .3 1.4.7-2.7 2-4.2 3.7-5-1-.5-2-1-3-1.4-.5-.2-1.3-.2-1.8.1-1.2.6-2.3 1.5-3.5 2.3-.4-.3-1-.7-2-1.5.1 1.3.2 2.1.2 3-1 .4-2 .8-3.3 1.3.3.8.5 1.5.6 1.9-1 2-2 3.8-2.9 5.6-1.7-1.2-3.5-2.4-5.6-3.9.1-.3.4-1.1.6-1.9-.9-1.9-3.6-2.9-2.5-6 .7-1.8-1.8-1.5-3-2.1 2-2.2 3.2-2.2 6.3 0 .4-.8.7-1.5 1.2-2.4 2.3.2 4.6.5 7 1.5 2.9 1.2 6.3 1.6 9.6-.4-.5-.7-.9-1.3-1.5-2.1 1.1-1.1 2.2-2.3 3.4-3.6 1.3.8 2.4 1.6 4.6 3-1.3.6-2.2 1.1-3.1 1.6.2 1.3.4 2.3.5 3.2.6-.2 1.2-.5 1.9-.8.3 1-.1 1.6-.6 2 2.8-.3 6.1.2 9.1.1 8-.3 16.1.7 16 11.2 0 11.3-8.7 12.3-19 11.7zm18.3-21.4c-.2-1.5-.4-2.7-.6-4.1 1.3-.6 2.1-.3 2.4 1.2.2 1.3 1 2.8-1.8 2.9zm24-9.4c-.2-.6-.4-1.1-.6-1.7.2-.1.5-.1.7-.2.2.5.4 1 .5 1.5.1.1-.4.3-.6.4z"/><path class="st1" d="M181.3 174.8c-.3-2.8-3.3-5.8-4.5-8.9-.1-.2-.2-.4-.3-.5l-1.8-3.6c-.1-.2-.2-.4-.3-.5-1-.9-2.1-2-3.2-3.1-.3.3-.5.7-.6 1.3-.2-.1-.5-.2-.7-.2-.3-.8-.7-1.6-1-2.4.3-.1.6-.2.8-.2-2-2.4-3.4-5.2-2.8-8.6-2 0-5 0-7.5-.4H130.7s-1.7 3.3-4.2 8.4c.3.3.5.8.6 1.5h6.2c-.5.9-.6 1.5-.9 1.6-2.8.4-5.7.9-8.4 1.8-2.1 4.1-4.4 8.8-6.9 13.7.1.3.1.7.2 1-.2 0-.4-.1-.7-.1-4.4 8.8-9.1 18-12.6 25-.3.7-.7 1.4-1 2-3 6.4-4 13.4-4.6 20.2V255c-1.4 11 6.6 10 15.3 11H133.3l16.1-23 15.6 23h21.8c4.2.9 8.2-3.1 12.6-.5v-.2c.6-3.3.6-7.3.6-10.5v-42.7s-9.7-19.2-18.4-36.7l-.3-.6zm-10.7-2.8c1.3.5 1 1.5 0 3.4l-1.6-2.8c.5-.3 1.2-.8 1.6-.6zm-3.2-4.5h1.1c-.1.9-.1 1.8-.2 3.1-1.7-1.1-1.7-2.1-.9-3.1zm-6.5-12.8c.1.3.2.6.3 1-.7.1-1.3.3-2 .4l-.2-.6c.6-.3 1.2-.6 1.9-.8zm-20.2-2.7c.3.2.5.5.8.7l-1.8 1.8c-.2-.2-.4-.3-.6-.5.6-.6 1.1-1.3 1.6-2zm-11.1 26.9c.7 1.6 1.3 2.8 1.9 4.1-.2.2-.4.4-.7.6-1-.7-2-1.4-3.2-2.2.7-.9 1.2-1.5 2-2.5zm-10.3-7c-.2-.3.5-1.1.7-1.7.2.1.5.1.7.2.2.9.5 1.7 1 3.4-1.2-1-2-1.3-2.4-1.9zm38.8 37.2c-1.8-.4-1.5-2.4-1.7-4 1.6.3 2.8.5 4.3.8-.7 1.5-.6 3.6-2.6 3.2zm-36.7 34.1h-.2v-25.7s11.4-22.7 18.4-36.5c.1-.2.2-.4.3-.5C142 172 146 168 154 170c0 0 0 1 .3 2.1.1.3.3.5.4.8l6.6 13.2-39.9 57.1zm55.8 0c-.1 0-2.7-3.9-5.7-8.3-.1-.2-.3-.4-.4-.6-.8-1.2-2.1-2.5-3.4-3.9l-.4-.4c-4.3-3.1-5.3-7.1-1-11.1.1-.1.2-.3.3-.4 2.8-4 6.5-9.2 6.5-9.2l4.1 8.2v25.7zm6.2-38.9c.3.7.8 1.3.6 1.5-.3.5-.8.9-1.3 1.1-.2.1-1-.8-.9-.8.4-.6.9-1 1.6-1.8z"/><path class="st0" d="M312.3 98.2c-10.6 3.3-22.2 3-27.6-7.8-7.2-14.4-6.2-30.5 1-44.9 6.1-12.3 18.2-9.5 29-7.6 5.7 1 8.4-.6 9.3-6-.3.1-.7.3-1 .4-.1 0-.4-.8-.6-1.2.6-.3 1.2-.5 1.8-.8v-.2c1.6-20 .8-22-15.5-28.7h-20.2c-.4 2.9-2.8 2.5-4.7 3.1-20.5 6-32.3 19.6-36.5 40.5-1.1 5.2-1.4 10.4-1.5 15.7v.9c.1 5.4.1 10.4-.2 15.7v.9c-.1 26.1 17.7 53.3 49.2 53.8l-.6-.9c1.1-1.1 2.2-2.3 3.4-3.6 1.3.8 2.4 1.6 4.6 3-1.1.5-1.9.9-2.7 1.4 1.7-.1 3.4-.3 5.1-.5 20.7-3.1 20.6-1.9 21.4-23.2.2-11.5-3.8-13.1-13.7-10zM252 73.9c-.1-.3-.2-.5-.4-.8.6-.2 1.2-.5 1.8-.7.1.3.3.6.4.9l-1.8.6zm1.3-40.5c-.1 0-.8-.8-.7-1 .3-.5.7-.9 1.2-1.1.2-.1.7.4 1.4.9-.8.5-1.3.9-1.9 1.2zm5.6 71.6c-.5.1-1.1-.1-1.6-.2.3-.6.6-1.3 1.1-1.6.4-.3 1.1 0 1.7.1.1.3.1.5.2.8-.5.3-.9.7-1.4.9zm13.7 1.2c-.1-.1.4-.7.8-1.4.6.8 1 1.3 1.3 1.9.1.1-.6.7-.6.7-.5-.4-1.1-.7-1.5-1.2zm5.3 14.2c-1.8-1.4-3.1-2.5-4.9-3.9 3.3.1 4.1-5 8.3-3.1-1.2 2.4-2.3 4.6-3.4 7zm15.7-6c-.1-.9-.4-1.8-.2-2.5.1-.3 1.3-.4 2.7-.7-.7 1.5-1.1 2.4-1.4 3.2-.4-.1-.7-.1-1.1 0zm2.1 2.5c1.8-3.8 5.3-1.7 7.8-3-.3 2.3-.3 2.3-7.8 3zm3.6 3.4c-.2-.3.3-1 .4-1.5.9.3 1.7.7 3 1.2-1.8 1.6-2.7 1.4-3.4.3zm7 5.9c-.8.5-1.9.6-2.8.8-.1 1-.2 1.9-.3 3-2.4-2.4-2.4-2.4-.6-5.7 1-.2 1.9-.5 2.8-.5.6 0 1.2.2 1.9.3-.3.7-.4 1.7-1 2.1zm7.7-4.1c-.6-.7-.8-.9-.8-1.1-.2-1.7.7-1.9 3.1-1.3-1.2 1.2-1.7 1.8-2.3 2.4zM435 116.8c-9.4-17.7-18.5-35.6-28.7-52.9-3.7-6.3-2.8-10.3 1.3-15.4 8.4-10.5 16.7-21 24.4-32C437.9 8 435.7 5 425.6 4c-17.7-1.8-32.2 1.6-40.2 19.9-2.4 5.6-7.3 10.1-13.3 18.1V23.3c0-17.8-3-20.3-20.5-18.5-9.2.9-13.9 4.6-12.7 14.4.6 4.6.2 9.2.2 13.9.1 28.9-.2 57.8 2.5 86.6.5 5 .6 8.8 6.7 10.2 19.4 4.5 25.5-.4 24.6-20.1-.4-9.1-1.7-18.5 8.2-24.4 4.6 8.4 9.3 16.8 13.6 25.4 9.9 19.8 10.8 20.4 32.9 19.2 11.1-.7 12.7-3.4 7.4-13.2zm-85.9 12.1c-.2-.6-.4-1.1-.6-1.7.2-.1.5-.1.7-.2.2.5.4 1 .5 1.5 0 .1-.4.3-.6.4zM88.6 79.9c4-3 7.3-7.2 9.9-12.1.2-.3.3-.6.4-.9 0-1.9 1-2.9 1.6-3.6.1-.3.2-.6.4-.9 3.8-10.3 4.4-22.3.4-31.7C94.6 15.2 83.1 3.9 64.7 2.5c-2.5-.2-6.1 1.7-7.4-2.5h-5.1c-1.4.9-2.7 1.6-4.1 2.1.3.2.5.6.6 1.3.3 1.3 1 2.8-1.7 2.9-.2-1.3-.4-2.5-.6-3.7-4 .9-7.9 0-11.9-2.6H20.9s-.1 0-.1.1c.2 1.3.4 2.3.5 3.2.7-.3 1.3-.5 2.1-.8.6 2.3-1.8 2.1-2.5 3.4-1.4-.7-2.8-1.4-4.3-2-.5-.2-1.3-.2-1.8.1-1.2.6-2.3 1.5-3.5 2.3-.4-.3-1-.7-2-1.5.1 1.3.2 2.1.2 3-1 .4-2 .8-3.3 1.3.3.8.5 1.5.6 1.9-1 2-2 3.8-2.9 5.6-.8-.6-1.7-1.2-2.6-1.8C1.1 48.8.3 82.9 0 117c-.1 4.9 1.1 9.9 7.7 11.3 19.6 4.2 26.8-1.5 26.6-21.5 0-3.4-.3-6.7 0-10.1.2-2.9-1.8-7.5 3.5-7.7 3.6-.2 7.7-2.1 10 4.2 2.9 7.7 8 14.7 12 22 8.3 14.9 23.2 20 38.6 13 4.6-2.1 4.5-5.1 2.2-9.1-5-8.7-9.5-17.7-14.8-26.2-3.4-5.7-3.2-8.5 2.8-13zM11 8.9l-.3-.9c.6-.2 1.2-.4 1.9-.6.1.3.2.7.2 1-.6.1-1.2.3-1.8.5zm4 4.8c-1.5-1.6-1.6-2.9.5-4.8.5 2 1 3.4-.5 4.8zm4.5 23.4c-.2-.2-.4-.4-.7-.6.5-1.3 1.2-2.3 3.2-2-.9.8-1.7 1.7-2.5 2.6zm1.8-25.4c-.9-2-1.2-3 .2-3.4.4-.1 1 .4 1.5.6-.4.8-.9 1.6-1.7 2.8zm5.2 15.7c-.4-.7-.9-1.1-.9-1.4.1-.4.5-.9.9-1 .2-.1 1 .5 1 .6-.1.5-.5.9-1 1.8zm2.9-15.5c-.6-2.9-2.8-2.7-4.9-3 1.5-1.3 2.8-2.4 4-3.5-.2 1.9 4.1 3.1.9 6.5zm3.2-2.3c1.9-1 2.8.4 3.9 1 .2.1 0 1.6-.4 1.8-.8.4-1.4.2-.9-1.1.1-.1-1.5-1-2.6-1.7zM48.2 57c-6.6.4-13.7 2.1-13.6-9.9.1-11.1 3.9-13.9 13.9-12 7.6.6 18.5-2.8 18.8 10.1.4 13.3-10.8 11.4-19.1 11.8z"/><path d="M17.6 1.3c-.3-.4-.6-.9-.9-1.3H9.4C9 .7 8.5 1.2 8 1.7c2.9 1.3 6.3 1.6 9.6-.4z" style="fill:#60575d"/><path class="st1" d="M110.1 60.6c-4.9 7.4-2.9 13.4.8 19.1.1.2.2.3.3.5 2.5 4.6 5.7 10.2 8.9 15.9l.3.6c1.1 1.3 2.2 2.6 3.1 3.9 1.6-.7 2.9-1.3 4.3-1.9 0 0 0-.1.1-.1-.7-.4-1.3-.8-1.9-1.2 1.7-.5 3.4-1.3 5.8.6-1.8.3-2.9.4-3.9.6l.1.1c-.1 0-.1 0-.2.1-.6 1.7-1.3 3.3-2.1 5.3 2 3.4 3.5 7 4.9 10.9.1.2.2.3.3.5 4.3 7.8 7.5 13.4 7.5 13.4h40.3c-.1-.4-.2-.7-.3-1.1h2.8v1.1h10.7c10.4 3.2 16.4-2.8 19.9-11.8.1-.2.2-.4.3-.5 6.1-10.9 14.8-26.5 20.5-36.8.2-.3.3-.6.5-.9 5.2-6.9 5.2-11.9-.2-19.3-.2-.3-.3-.6-.5-.9-3.5-6.4-8.2-14.8-12.7-22.9-.5-.8-.9-1.7-1.4-2.5-3-5.2-6-10.2-8.6-15.6-.3-.6-.7-1.2-1-1.7-2.1-3.8-3.4-6.2-3.4-6.2h-11.6c-10.4 3.3-17.4 2.3-27.8 0h-1.7c-3.6 1.5-6.9 1.9-10 1.8-.3 0-.6 0-.9-.1-5-.4-10-3.4-15.3-2.3 0 0 0 .1-.1.2-1.6.7-1.6 3.7-3.3 6-.1.3-.2.5-.3.8-.5 1.1-.9 2.2-1.3 3.4-.4.7-.7 1.3-1.1 2-2.7 4.9-6 10.8-9.3 16.8-.2.3-.3.6-.5.9-2.7 4.8-3.7 10.8-7.6 14.6-.2.3-.3.5-.5.8-.8 1.3-1.6 2.5-2.5 3.7-.1.2-.3.5-.4.7-.1.2-.3.5-.4.7-.3.2-.5.5-.6.8zm56.2 46.3c-1.6-1-2.8-1.7-4.2-2.5 1.6-.8 3.2-1 4.5.3.2.4-.2 1.4-.3 2.2zm17.1 8.5c1.3.2 2.3.6 2.5 1.3.6 1.6 1 3.3 1.2 5 .1.4-1 .9-2.1 1.9-.7-3.3-1.2-5.8-1.6-8.2zm-10.8-10c-1.4.7-2.4.7-3.3 0h-2.6l1.2-1.9c0-.1-.1-.1-.1-.2.1 0 .2 0 .2-.1l22-33.8-23.5-36.3h24.8s1.6 2.9 3.9 7.1c.1.2.2.3.3.5 1.1 1.9 2.2 3.9 3.2 6.1.1.3.3.5.4.8 1.8 7.1 5.6 12 9.8 17.7.2.2.4.5.6.8.5.9 1.5 1.9 1.5 3.8 0 0-.1.1-.2.3-2.8 4.9-4.8 8.9-7.5 13.6l-.3.6c-1.8 3.2-3.6 6.5-5.3 9.6-.1.3-.3.5-.4.8-2.8 5.5-6.2 10.8-12 11 .1.9-.8 1.4-3 2.8.3-1.1.6-2.1.8-2.9-.2 0-.4 0-.5-.1h-.6c-3.1-.2-6.6-.2-9.4-.2zm-2.6 2c-.2 1.5-.6 2.9-3.1 2.3 1.3-1 2.2-1.7 3.1-2.3zm-8.2 12.1h6.2c.5-3.1 3-1.5 4.6-1.8.8 2 1.4 3.8 2.1 5.7-.9.3-1.2.5-1.3.5-3.4-1.6-7.1-2.2-10.7-2.8-.3-.1-.4-.8-.9-1.6zm-5.6-14.4c-.6-2.1.7-3.1 1.9-4.2.7 1.5 1.2 2.7 1.9 4.2h-3.8zm-2.5 9.6c.3-.2.5-.5.8-.7.5.7 1 1.3 1.5 2-.2.2-.4.3-.6.5-.5-.6-1.1-1.2-1.7-1.8zm-.8-7.7c1.4.7 2.9.1 3.3 2.1-1.4 0-3.1 1.1-3.3-2.1zm-1.8-3c.5-1.7.9-3 1.5-5.1 1.3 3 1.2 3.3-1.5 5.1zm-12.6-4c.5-1.2 1.5-2.3 2.3-3.3.2-.2.8 0 1.1 0-.4 2.1-.7 4-1.1 6.2-2.4-1-2.9-1.5-2.3-2.9zm-4.4 17.7c.1-.3.2-.6.3-1 .6.2 1.3.5 1.9.7l-.2.6c-.7 0-1.3-.2-2-.3zm.1-10.7c.7.4 1.3.7 2.6 1.3-2.4.4-2.4.4-2.6-1.3zM132 69.4l14-25.2s5.5 8.4 10.1 15.6c.1.2.2.4.4.6 1.8 2.7 3.8 5.7 6.3 9.1 0 0-.1.1-.2.3-2.3 4.3-4.3 7.3-7.3 10.5-.1.2-.3.4-.4.6-3.7 3.2-4.7 10.2-9.7 13.2 0-1 0-2-.7-2.1-.1-.3-.3-.6-.5-.9-3.8-7-12-21.7-12-21.7z"/><g><path class="st0" d="M722.4 282.6c-10.3 1.4-5.7 11.1-6.2 17.5-1.2 14 1.3 28.2-1.5 42.2-1-.4-2.6-.6-2.7-1.2-4.6-16.1-12.5-30.9-19-46.3-5.7-13.5-17-16.6-30.5-10.1-5.3 2.5-10.5 2.2-10.5 10.5-.2 33.1-.8 66.1-1.8 99.2-.3 12.3 7.4 11.9 15.8 11.8 8.1-.1 16.4 1.3 16-11.4-.3-8.3-.3-16.7-.3-25-.2.2-.4.5-.7.7-.7.7-1.3 1.4-2 2.1-.1-.1-.2-.2-.4-.3.9-2.1 1.9-4.1 2.9-6.4l.1.1c0-6.4.1-12.9.1-19.3 3.5.5 3.8 2.6 4.4 4.7 4.5 15.6 9.2 31.2 15.9 46.1 1.5 3.3 2.4 7 6.7 8.4 23.5 7.7 36.3-1 37.2-25.6.2-5.9-.1-11.8.6-17.6.4-3.3-2.4-7.7 2.5-9.9v-60.6c-5.1-13.5-16.9-10.9-26.6-9.6zm-54.6 90.3c-.8 0-2.1-.1-3.3-.2-.1-3 0-3 2.2-2.5 1.1.3 2.3.5 3.6.7.2 1.8.3 3.5.5 5.3-2-.3-1.6-2.3-3-3.3zm7.4 7.1c-1.2-2-1.2-2 1.2-3.2.9 1.6.3 2.5-1.2 3.2zm2.1 5.8c-1-1.6-.4-3 .7-4.5 1.9 3 1.9 3-.7 4.5zM680 367c-.2.5-.6.9-1.2 1.9-1.5-2.2-2.8-4-4.3-6 .2-.7.6-1.8.9-2.9 2.4 1.1 2.7 1.9 2.4 5.5h2.3c0 .6.1 1.1-.1 1.5zm23.7 24c-.1-.2-.2-.4-.3-.7.5-.2 1.1-.5 1.6-.7.1.2.2.5.3.7-.5.2-1 .5-1.6.7zm8.6 9.4c-.5.3-1.4.2-1.9-.2-.9-.6-1.7-1.4-2.7-2.3 1.4-.9 2.6-1.6 4.1-2.6.3 1.4.7 2.3.8 3.3.1.6 0 1.6-.3 1.8zm2.2-54.9c.1-.7.2-1.3.3-2l.3 2.1c-.3-.1-.6-.1-.6-.1zm3.4 55.9c-.2 0-.4-.1-.6-.1.1-.6.3-1.2.4-1.9.2.1.5.1.7.2-.2.6-.3 1.2-.5 1.8zm2.4 6c-.3-1.9-.3-1.9 1.8-1.7-.7.7-1.2 1.2-1.8 1.7zm.8-3.9c-.6-.2-1.2-.3-1.6-.6-.3-.3-.5-1.1-.3-1.4.7-1.1 1.7-1.6 3.1-.5-.3.7-.7 1.5-1.2 2.5zm6.6-18.1c-.1-1.4-.1-1.4 3.8-1.1-1.8.5-2.8.8-3.8 1.1zm11.3 7.8c-.2-.1-.4-.2-.5-.3.3-.5.5-1 .8-1.5.2.2.5.3.7.5-.3.4-.7.8-1 1.3zm-.4-37c-.1 0-.3-.5-.3-.5.6-.3 1.1-.7 1.7-1 .1.4.3.7.4 1.1-.5.1-1.1.3-1.8.4zM625.4 279.5h-20.2c-4.4 5-4.8 11.1-4.7 17.4.3 20.6.6 41.1.4 61.7-.1 12.4-5.5 17.5-16.4 17.1-11.3-.4-15-7.3-15-17.6-.1-20.1-.1-40.3-.7-60.4-.3-9.8-3.5-14.9-11.6-18.3h-12.6c-8.2 3-10.1 9.1-9.7 17.4 1 23.1 1.3 46.2 2.1 69.3.8 23.9 12.4 37.6 35.6 41.5 10.4 1.7 21 1.6 31.4-.2 17.1-3 28-15.4 29.4-32.9 2.1-26 1.9-52 2.1-78-.1-8-2-14.1-10.1-17zM68.9 334.4c-1-.5-2-1-2.9-1.4-.4.1-.9.2-1.3.3-.1 0-.3-.5-.3-.5.1-.1.3-.2.4-.2-6.4-2.7-13.1-4-19.6-6-2.1-.6-5.4-1.2-5.3-4.5.1-3.8 3.2-4.4 6.2-4.7 8.9-1.1 17.5.1 26 2.7 1.7 1.6 3.5 4.4 5.1-.1 1.4-.3 2.7-.6 2.6-2.5.6-.3 1.8-.4 1.8-.8.2-1.5-.9-1.6-2-1.3l-.4-.2c-.1-3.5 1.5-7-.4-10.4 3.8-16.1-8.2-20.3-19.2-25.2H34.3c-.5.6-.9 1.6-1.5 1.8-19.9 5.8-30.2 18.3-30.8 37.5-.3 10 1.4 18 5.5 24.4 0-.1.1-.1.1-.2.7.8 1.3 1.4 1.8 2.1l-.4.4c4.8 6.3 12.2 10.9 22.6 14.2 4.8 1.5 9.7 2.5 14.5 3.8 3.3.9 7.4 2.2 7.2 5.9-.2 3.4-4 5.2-7.6 5.6-2.4.2-4.8.4-7.2.5 0 .1 0 .2.1.3.1.6 0 1.6-.4 1.7-.5.3-1.4.2-1.9-.2-.8-.5-1.5-1.2-2.3-1.9-3.4-.1-6.8-.6-10.1-1.4-.1.2-.3.4-.4.6-.2-.2-.4-.4-.7-.6l.2-.2c-4.2-1.1-8.3-2.9-12.2-5.7-5.9-4.1-9.4-3.3-9.9 4.2-.4 5.5-.6 11-.7 16.4.5.3.8.9 1.1 1.8H.1c-.1 1.9-.1 3.8-.1 5.7-.2 7.3 3.1 11.6 10.7 12.8 15.3 2.4 30.6 3.1 45.8.5l.6-.3v.2c.8-.1 1.6-.3 2.4-.5 1.1-.2 2.2-.5 3.2-.7-.4-1-.5-2.1-.3-3.2.5.8.9 1.5 1.3 2.1 1.4-.1 2.1-.2 2.7 0 .9-.3 1.7-.6 2.5-1-.7-.1-1.3-.1-2-.2v-2.7c-.8 1-1.4 1.7-1.9 2.4-2.1-.4-2.5-1.8-2.3-3.7-3.1.9-2.6 4-3.9 6H56c1-2.1-1.8-3.9.2-6.2-1-.5-1.7-1.1-2.4-1.1-3.6 0-3.6.1-6.1-1.1 0-.3-.1-.7-.1-1 0-.3.1-.7.2-1.4 1 .5 1.8.9 2.7 1.3 1-.5-.2-3 2.2-2.3.1.6.1 1.3.2 1.9 1.7.5 3.4 1 5 1.5.5-.8.9-1.4 1.3-2 .2 0 .4.1.6.1v3.1c1.5-1.4 1.5-1.4.5-4 1.3-.4 2.4-.8 3.9-1.3.5.2 1.4.6 2.5 1.1-.1 1.4-.2 2.9-.2 4.5 1.4 1.3 3 2.7 4.5 4.1.8-.4 1.6-.8 2.3-1.2-.4-.5-.5-1.3-.5-1.9 0-.3.9-.9 1.3-.8.9.1 1.8.3 2.7.5l1.2-.9c-.4-.1-.7-.2-1.1-.3.4-.9.6-1.6 1-2.4.5.6.9 1.1 1.4 1.6 3.9-3.5 6.7-7.9 8.5-13.1-.7.2-1.4.4-2.1.3-.4 0-.7-1-1.1-1.5.4-.2 1-.8 1.3-.7 1.1.5.8-.4 1-.8.4-.7 1-1.3 1.7-2.1.1.2.2.4.4.7.3-1.3.6-2.6.7-4 2.8-21.1-4.2-35.3-20.8-44.2zM38 397.9c-.5-.4-1-.9-1.6-1.3.2-.2.4-.5.6-.7.6.1 1.3.1 2.3.2-.6.8-1 1.3-1.3 1.8zm4.7-3.9c-.6.8-.6.7-2.5 1 .9-.8 1.5-1.3 2.3-1.9.1.5.3.8.2.9zm1.2-15.6c-.2 0-.4-.1-.6-.1.1-.6.3-1.2.4-1.9.2.1.5.1.7.2-.2.6-.3 1.2-.5 1.8zm2.4 6c-.3-1.9-.3-1.9 1.8-1.7-.7.7-1.2 1.2-1.8 1.7zm.8-3.9c-.6-.2-1.2-.3-1.6-.6-.3-.3-.5-1.1-.3-1.4.7-1.1 1.7-1.6 3.1-.5-.3.7-.7 1.5-1.2 2.5zm6.6-18.1c-.1-1.4-.1-1.4 3.8-1.1-1.8.5-2.8.8-3.8 1.1zm7.6 24.8c-.3-1.5-.5-2.8-.7-4.1.3 0 .6-.1 1-.1-.1 1.3 2 2.5-.3 4.2zm3.7-17c-.2-.1-.4-.2-.5-.3.3-.5.5-1 .8-1.5.2.2.5.3.7.5-.3.4-.7.8-1 1.3zm2.4 29.8c1.1-.3 2-.6 2.8-.9-.3 1.7-1 3-2.8.9zm8.9-15c.5.8 1 1.6 1.4 2.5-.1.2-.3.4-.4.6-.6-.2-1.3-.3-1.7-.7-.6-.9-.6-1.7.7-2.4zm-.1 8.8c-.1-1.1-.1-1.9-.3-3.4 1 .9 1.6 1.5 2.6 2.4-.9.5-1.5.7-2.3 1zm1.5-49.6c-.3-.2-.4-.6-.6-1 .3-.1.6-.4.9-.3.2.1.4.5.7.8-.5.3-.9.6-1 .5zm7.7 46.3c-1.9.2-2.6-.6-2.7-1.9 0-.4.6-.8 1-1.2.2.4.3.7.5 1 .4.7.7 1.2 1.2 2.1zM86 358c.4 0 .7.4 1.2.6-.4.4-.8.8-.9.8-.3-.1-.6-.5-.9-.8.2-.2.4-.6.6-.6zm2.2 8c-.8.8-1.5 1.4-2.3 2.2-.6-2.7-.6-2.7 2.3-2.2zm-6.4-9.4c.2 0 .7.5.6.7-.2 1.1-.8 1.6-2 1-.2-1.1.3-1.7 1.4-1.7zm1.8 16.6c4.3 1 5.2 4.4 1.8 8.3-1.8-.9-3.7-1.9-5.4-2.8 1.2-1.8 2.4-3.6 3.6-5.5zM408 280.3c-.9-.1-1.6-1.5-2.4-2.3h-2.5c-.4 2-1.8 2.5-3.6 2.5-14.7.1-29.4.2-44.2.2-8.5 0-16.1-.1-16 12 .1 7.9.2 12.9 1.3 16 .7-.2 1.2-.4 1.8-.6-.2 1-.6 1.9-1.3 1.9 1 1.9 2.5 2.8 4.9 3.3-.2-.1-.3-.2-.5-.3-.5-.4-.6-1.4-.6-2.1 0-.3.9-.9 1.3-.8 1.6.2 3.1.6 4.4.9.2 1 .5 1.9.5 2.7 1 0 2.2 0 3.4-.1 9.1-.4 12.7 2.2 12.5 11.8-.3 22.7.8 45.4.4 68.1-.2 13.3 7.4 13.3 17.2 13.4 10.1.1 16.2-2.1 16-13.8-.5-21.4.7-43-1.1-64.3-1.1-12.8 1.3-17.9 14.5-15.4 5.4 1 9.7-.3 11.3-6.8 3.5-14.5-2.7-24.3-17.3-26.3zM348.3 294c.5.8 1 1.6 1.4 2.5-.1.2-.3.4-.4.6-.6-.2-1.3-.3-1.7-.7-.6-.9-.6-1.7.7-2.4zm-.3 5.4c1 .9 1.6 1.5 2.6 2.4-1 .4-1.5.7-2.3 1-.1-1-.2-1.9-.3-3.4zm.9 10c.4-.9.6-1.6 1-2.4.9 1 1.6 1.9 2.9 3.5-1.7-.5-2.7-.8-3.9-1.1zm3-21.7c1.2-1.9 2.4-3.6 3.7-5.5 4.3 1 5.2 4.4 1.8 8.3-1.8-.9-3.7-1.9-5.5-2.8zm2.9 9.9c0-.4.6-.8 1-1.2.2.4.3.7.5 1 .3.6.7 1.1 1.2 2-1.9.3-2.6-.5-2.7-1.8zm8.5 10.6c-.2-2.2-.3-3.5-.5-4.9 1.8 1.4 1.9 2.1.5 4.9zm.4-11.7c-.4.7-1.4.9-2.2 1.4v.1l-.1-.1.1.1h-.1c-.1 2.4-.2 2.4-2.3 2.2 0-1.6.9-2.1 2.3-2.2v-.1c-.4-.8-.7-1.6-1.1-2.5-.8.2-1.8.5-2.7.4-.4 0-.7-1-1.1-1.5.4-.2 1-.8 1.3-.7 1.1.5.8-.4 1-.8.4-.7 1-1.3 1.7-2.1.8 1.4 1.3 2.4 2.3 4.2.1-1.3.2-2 .2-2.6 0-.5-.1-1.3.2-1.4.5-.2 1.1-.1 1.7-.1h2.2c.9 2.9-2.2 3.8-3.4 5.7zM201.2 293.9c0-6.9-3-10-9.6-10.4-4.6-.3-9.2-.7-13.8-.9-6.6-.2-10.2 2.4-9.8 9.7.5 9.5-2.4 19.1-.2 28.7.6 2.6 1.1 5.3-3.5 6.3-20.6 4.6-27.3-.5-27.2-21.7.2-24.1 0-23.9-23.3-23.7-8.3 0-11.3 2.9-11.2 10.9.2 17.2.1 34.4.1 51.6h1v2.5c.2-.4.5-.7.7-1 .2.2.5.4.7.5-.3.6-.2 1.6-1.4 1.8 0 15.1.3 30.1-.2 45.2-.2 6.2.4 11.9 7.1 12.1 8.8.2 18.2 5.8 26.3-1.5 1.4-1.3 1.1-4.7 1.1-7.2 0-9.7-.3-19.3-.2-29 0-2.7-1.4-7.3 2.1-7.6 8.7-.7 18.1-1.8 26.3.5 5.5 1.5 1.7 9.6 2.2 14.7.6 5.4.4 10.9.1 16.4-.4 8.5.6 14.7 11.7 14.6 18.6-.1 20.9-.8 21-14.3.2-32.7-.1-65.4 0-98.2zM103 320.1c.2-1.1.5-2.4.8-3.6h4.3c.3 1.3.6 2.6 1 4.7-2.3-1.7-4.3 1.4-6.1-1.1zm5.8 15.7c-.1 0-.7-.4-.6-.5 0-.4.3-.7.6-1.2.4.4.8.7.8.8-.2.4-.5.7-.8.9zm.5-1.6c-.7-1.1-1.4-1.8-1.3-2.1.4-.7 1.1-1.3 1.8-1.9.4.5 1.2 1.1 1.1 1.5-.2.7-.9 1.4-1.6 2.5zm5.2 9.9c-.2-.2-.5-.4-.7-.6.4-.5.8-.9 1.2-1.4.2.1.4.3.6.4-.4.6-.7 1.1-1.1 1.6zm8.1-23.1c.1.2.1.4.2.6-.5.2-1 .4-1.5.5 0 0-.2-.5-.3-.8.5-.1 1-.2 1.6-.3zm0 26.7c-.7-.1-1.5-.3-2.2-.4.1-.4.2-.7.3-1.1.7.2 1.4.4 2.1.7-.1.2-.1.5-.2.8zm-1.1-3.6v.1h-.1c-.5 1.2-1.4 1.3-2.4.6-.9-.7-.9-1.2 0-2.7 1.3.1.7 2.6 2.4 2.2 0-.1 0-.1.1-.2-.1-1.1-.1-2.2 1.7-2.9-.4 1.4-.4 2.5-1.7 2.9zm2.8-26.3c-.3.8-.5 1.5-1 2.9-.9-2.5-.9-2.5 1-2.9zm-.4 4.7c0-.2-.1-.5-.1-.7.6-.1 1.2-.2 1.8-.4 0 .2.1.5.1.7-.6.1-1.2.2-1.8.4zm2.6-.9c.1-1.7.1-2.7.2-4 .9.4 1.5.6 2.5 1-1 .9-1.6 1.7-2.7 3zM523 365.7h.3c-.9-11.7 1.9-25.6-3.6-34.4-6.7-10.8-21.7-2.8-33-3.5-17.7-1-18.2 1-17.1 18.4.7 10.7 5.9 12.6 14.7 11.3 5.9-.9 7.1 2.3 6.7 7.4-.1 1.6-.1 3.1-.4 4.4 1.2.7 2 1.2 2.9 1.9-.8.5-1.2.7-1.8 1.1-.4-.8-.7-1.5-1.2-2.6-.5 1.9-1.8 3.3-5.6 3.6-15.6 1.4-25.2-5.7-26.1-21.4-.4-7.1.2-14.3 1-21.3 1.4-12.7 9.1-18.1 21.5-17.8 9.7.2 19.3.1 29 .5 10.4.4 11.3-6.2 10.9-14.1-.4-7.9 1.5-17.1-11.2-16.6-13.3.4-26.7.3-40 1.2-22 1.5-34.3 11.7-41.4 32.4-3.4 9.9-2.8 19.9-2.4 29.9 1.2 33.2 10.2 63.8 58.5 60.4 2.5-.2 5 .1 7.6 0 29.3-1.3 33.9 6.8 30.7-30.7-.2-3.5 0-6.8 0-10.1zm-64.2 33.7c-.5-.1-1-1-1.1-1.6-.1-.3.9-1 1.2-1 .6.1 1.1.7 2 1.4-1 .7-1.6 1.4-2.1 1.2zm50.5 6.5c-.1-.3-.2-.5-.4-.8.6-.2 1.2-.5 1.8-.7.1.3.3.6.4.9l-1.8.6zm1.3-40.5c-.1 0-.8-.8-.7-1 .3-.5.7-.9 1.2-1.1.2-.1.7.4 1.4.9-.8.5-1.3.9-1.9 1.2z"/><path class="st1" d="M339.2 366.2v-41.5s-.6-.7-1.7-1.9c-1.5 1.3-3.3 1.5-5.3 1.7-.3-.6-.6-1.1-.9-1.6.8-.1 1.6 0 2.2-.2.8-.2 1.7-.3 2.4-.7.2-.1.3-.2.5-.4-.3-.3-.6-.7-1-1.1-.2-.2-.4-.5-.7-.7-1.2-1.3-2.3-2.6-3.4-3.9-.1.3-.3.6-.5.9H328c.4-.9.2-1.7-.1-2.6-2.6-1.2-4.5-2.9-6-4.9-.6-.1-1.2-.4-2.2-.9 0-.3-.1-.7-.1-1 0-.3.1-.7.2-1.4.1.1.2.1.3.2-.7-1.5-1.3-3.2-1.8-4.9-.2-.2-.3-.4-.5-.5-7.3-8.2-13.7-15.4-13.7-15.4h-27.5c-10.4-2.4-24.4-3.4-31 2.3-.2.2-.3.4-.5.6-5.4 6.1-18.2 20.4-26 29.2-.1.1-.2.3-.3.4-6.6 5.2-5.6 12.2-6.2 20V341.5c-1.4 6.6-1.4 13.6 0 20.4v10.2s5.6 6.2 12.2 13.8c.2.2.3.4.5.5 3.9 4.6 9.9 8.6 13.3 14.9.1.2.3.3.4.5 5 5.6 8.7 9.7 8.7 9.7h46c6.6.5 12.6-3.5 17.9-8.3.1-.2.3-.3.4-.5 5.5-6.2 13-14.6 18.7-21l.4-.4c3.2-4.3 9.2-8.3 8.2-14.1-.1-.3-.1-.7-.1-1zM309 304.9c.6.1 1.3.1 2.3.2-.6.8-.9 1.3-1.3 1.8-.5-.4-1-.9-1.6-1.3.2-.2.4-.5.6-.7zm-35.7-5.4c-1.9.1-2.5-.5-2.6-2 1.5-.4 2.1.4 2.6 2zm41 36.5h-6c-5 0-11-2-13 1-3 2-1 8-1 13.5v10.4h20.2v1.7l-21.3 24h-4.6v-5c-.2-3.6-.2-8.6-.2-12.6-5 3-10 0-15.1-.1h-9.6v17.7h-4.6l-21.3-24v-1.7h3.7c6 .1 11-1.9 17-.9 0-3 0-7-.5-10.2V335.9h-20.2v-1.7s6.3-7.1 12.1-13.6l.5-.5c1-1 1.8-2.2 2.6-3.6-.7-1.5-1.3-2.8-1.9-4.2 1.3-.9 2.2-1.7 3.4-2.3 1-.6 2.3-.2 2.8.6.8-.6 1.6-1.1 2.6-1.1.1-.2.2-.5.3-.8.1.3.2.5.3.8.9.1 1.9.5 3.1 1.3 1 1 0 5 .3 8.1V327.8h9.6c5.1.1 11.1 2.1 14.1-.9 2-1 1-7 .8-10.5v-.9c0-2.1.2-4.1 1.2-5.6 0-1 4 0 5.5 2.2.2.2.4.4.6.7 5.5 6.2 19 21.3 19 21.3v1.9zm.4-33c-.6.8-.6.7-2.5 1 .9-.8 1.5-1.3 2.3-1.9.1.5.3.8.2.9zm15 18.1v-.2c-.5.2-1 .4-1.6.7v-3c.3-.2.7-.4 1-.6.2.9.4 1.9.6 2.8.3-.2.7-.3 1-.4-.3.3-.6.5-1 .7z"/></g><g><path class="st1" d="M1 483.5c-.3-.3-.4-.6-.4-1v-37.8c0-.4.1-.8.4-1 .3-.3.6-.4 1-.4h16.3c5 0 8.9 1.1 11.7 3.4 2.8 2.3 4.3 5.6 4.3 10 0 4.3-1.4 7.6-4.2 9.8-2.8 2.2-6.7 3.3-11.7 3.3h-6.9v12.7c0 .4-.1.8-.4 1-.3.3-.6.4-1.1.4H2.1c-.4 0-.8-.1-1.1-.4zm17.1-21.8c1.7 0 3-.4 4-1.3s1.5-2.2 1.5-3.9c0-1.6-.5-2.9-1.4-3.8-.9-.9-2.3-1.4-4.1-1.4h-6.8v10.4h6.8zM43.6 480.4c-3.1-2.7-4.8-6.6-5-11.7 0-1-.1-2.8-.1-5.1 0-2.4 0-4.1.1-5.2.2-5 1.9-8.9 5.1-11.7 3.2-2.7 7.5-4.1 12.9-4.1 3.4 0 6.5.6 9.2 1.7 2.7 1.1 4.9 2.8 6.4 4.9 1.6 2.1 2.4 4.6 2.4 7.4v.1c0 .3-.1.6-.4.8-.3.2-.5.3-.8.3h-7.9c-.5 0-.9-.1-1.2-.3-.3-.2-.5-.6-.7-1.2-.5-2-1.4-3.4-2.6-4.2-1.2-.8-2.7-1.2-4.6-1.2-4.6 0-6.9 2.6-7.1 7.7 0 1-.1 2.7-.1 4.8 0 2.2 0 3.8.1 4.9.2 5.1 2.5 7.7 7.1 7.7 1.9 0 3.5-.4 4.7-1.2 1.2-.8 2-2.2 2.5-4.1.2-.6.4-1 .6-1.2.3-.2.7-.3 1.2-.3h7.9c.3 0 .6.1.9.3.3.2.4.5.3.9 0 2.8-.8 5.3-2.4 7.4-1.6 2.1-3.7 3.7-6.4 4.9-2.7 1.1-5.8 1.7-9.2 1.7-5.4.1-9.8-1.3-12.9-4zM98.4 494.9c-2.3-1.2-3.9-2.6-4.9-4.1-1-1.6-1.5-2.8-1.5-3.9 0-.3.2-.7.5-.9.3-.3.7-.4 1-.4h7.4c.4 0 .7.1.9.3.2.2.4.5.6.9.4.9.9 1.6 1.6 2.1.7.5 1.7.8 3.1.8 1.8 0 3.1-.4 4-1.3.9-.9 1.3-2.3 1.3-4.4v-4c-2 2.2-4.8 3.3-8.5 3.3-3.9 0-6.9-1.2-9-3.5-2.1-2.3-3.2-5.6-3.4-10l-.1-1.6c0-4.7 1-8.4 3.1-11.1 2.1-2.7 5.2-4 9.3-4 2 0 3.7.4 5.2 1.1 1.5.8 2.8 1.8 3.8 3.1v-2.2c0-.4.1-.8.4-1 .3-.3.6-.4 1-.4h6.7c.4 0 .8.1 1.1.4.3.3.4.6.4 1v28c0 4.4-1.3 7.8-4 10.1-2.6 2.3-6.4 3.5-11.2 3.5-3.6 0-6.6-.6-8.8-1.8zm12.4-20.8c.9-1.1 1.3-2.4 1.5-4 0-.3.1-.9.1-1.8s0-1.5-.1-1.7c-.1-1.6-.6-3-1.4-4-.9-1.1-2.2-1.6-3.9-1.6-1.8 0-3.1.5-4 1.6-.8 1.1-1.3 2.6-1.3 4.5l-.1 1.3c0 2.3.4 4.1 1.2 5.4.8 1.3 2.2 2 4.2 2 1.7-.1 2.9-.6 3.8-1.7zM132.8 483.3c-1.7-.8-3-1.9-4-3.3s-1.4-2.9-1.4-4.6c0-2.7 1.1-4.8 3.3-6.5 2.2-1.6 5.2-2.8 9-3.4l7.3-1.1v-.8c0-1.5-.3-2.6-.9-3.3-.6-.7-1.7-1-3.1-1-.9 0-1.6.2-2.2.5-.6.3-1.2.7-1.8 1.3-.5.5-1 .8-1.2.9-.1.3-.3.5-.6.5h-6.3c-.4 0-.7-.1-1-.4-.3-.3-.4-.6-.3-.9 0-1 .6-2.2 1.5-3.5 1-1.3 2.5-2.4 4.5-3.3 2-.9 4.5-1.4 7.5-1.4 4.8 0 8.3 1.1 10.6 3.2 2.3 2.1 3.4 5 3.4 8.5v17.7c0 .4-.1.7-.4 1-.3.3-.6.4-1 .4H149c-.4 0-.7-.1-1-.4-.3-.3-.4-.6-.4-1v-2c-.9 1.2-2 2.2-3.6 2.9-1.5.8-3.3 1.1-5.4 1.1-2.2.1-4.1-.3-5.8-1.1zm12.7-7.2c1.1-1.2 1.7-2.9 1.7-5.1v-.8l-4.9.9c-3.5.6-5.2 1.8-5.2 3.7 0 1 .4 1.7 1.2 2.3.8.6 1.8.8 3 .8 1.6 0 3.1-.6 4.2-1.8zM164.1 483.5c-.3-.3-.4-.6-.4-1v-27.3c0-.4.1-.8.4-1 .3-.3.6-.4 1-.4h6.3c.4 0 .8.1 1 .4.3.3.4.6.4 1v2c.9-1.2 2.1-2.1 3.6-2.9 1.5-.8 3.2-1.1 5-1.1 4.3 0 7.2 1.7 8.8 5 .9-1.5 2.2-2.7 3.9-3.6 1.7-.9 3.5-1.4 5.4-1.4 3.2 0 5.8 1.1 7.8 3.2 2 2.2 3 5.4 3 9.6v16.5c0 .4-.1.7-.4 1-.3.3-.6.4-1 .4h-6.7c-.4 0-.8-.1-1.1-.4-.3-.3-.4-.6-.4-1v-16.1c0-1.9-.4-3.3-1.2-4.2-.8-.9-1.9-1.3-3.2-1.3-1.2 0-2.3.4-3.1 1.3-.8.9-1.2 2.3-1.2 4.2v16.1c0 .4-.1.7-.4 1-.3.3-.6.4-1 .4h-6.7c-.4 0-.8-.1-1-.4-.3-.3-.4-.6-.4-1v-16.1c0-1.9-.4-3.3-1.3-4.2-.8-.9-1.9-1.3-3.2-1.3-1.2 0-2.3.4-3.1 1.3-.8.9-1.3 2.2-1.3 4.1v16.2c0 .4-.1.7-.4 1-.3.3-.6.4-1 .4h-6.9c-.6 0-1-.1-1.2-.4zM217.3 448.9c-.3-.3-.4-.6-.4-1v-5.2c0-.4.1-.8.4-1 .3-.3.6-.4 1-.4h7c.4 0 .8.1 1 .4.3.3.4.6.4 1v5.2c0 .4-.1.8-.4 1-.3.3-.6.4-1 .4h-7c-.4 0-.8-.1-1-.4zm0 34.6c-.3-.3-.4-.6-.4-1v-27.3c0-.4.1-.8.4-1 .3-.3.6-.4 1-.4h6.9c.4 0 .8.1 1 .4.3.3.4.6.4 1v27.3c0 .4-.1.7-.4 1-.3.3-.6.4-1 .4h-6.9c-.3 0-.7-.1-1-.4zM234 483.5c-.3-.3-.4-.6-.4-1v-27.3c0-.4.1-.8.4-1 .3-.3.6-.4 1-.4h6.7c.4 0 .8.1 1.1.4.3.3.4.6.4 1v2.2c1-1.3 2.4-2.3 4-3.1 1.6-.8 3.5-1.2 5.6-1.2 3.4 0 6.2 1.2 8.3 3.5 2.1 2.3 3.2 5.5 3.2 9.7v16.2c0 .4-.1.7-.4 1-.3.3-.6.4-1 .4h-7.3c-.4 0-.7-.1-1-.4-.3-.3-.4-.6-.4-1v-15.9c0-1.8-.4-3.2-1.3-4.2s-2.2-1.5-3.8-1.5c-1.6 0-2.9.5-3.8 1.5-.9 1-1.4 2.4-1.4 4.2v15.9c0 .4-.1.7-.4 1-.3.3-.6.4-1 .4H235c-.4 0-.8-.1-1-.4zM276.8 494.9c-2.3-1.2-3.9-2.6-4.9-4.1-1-1.6-1.5-2.8-1.5-3.9 0-.3.2-.7.5-.9.3-.3.7-.4 1-.4h7.4c.4 0 .7.1.9.3.2.2.4.5.6.9.4.9.9 1.6 1.6 2.1.7.5 1.7.8 3.1.8 1.8 0 3.1-.4 4-1.3.9-.9 1.3-2.3 1.3-4.4v-4c-2 2.2-4.8 3.3-8.5 3.3-3.9 0-6.9-1.2-9-3.5-2.1-2.3-3.2-5.6-3.4-10l-.1-1.6c0-4.7 1-8.4 3.1-11.1 2.1-2.7 5.2-4 9.3-4 2 0 3.7.4 5.2 1.1 1.5.8 2.8 1.8 3.8 3.1v-2.2c0-.4.1-.8.4-1 .3-.3.6-.4 1-.4h6.7c.4 0 .8.1 1.1.4.3.3.4.6.4 1v28c0 4.4-1.3 7.8-4 10.1-2.6 2.3-6.4 3.5-11.2 3.5-3.5 0-6.5-.6-8.8-1.8zm12.5-20.8c.9-1.1 1.3-2.4 1.5-4 0-.3.1-.9.1-1.8s0-1.5-.1-1.7c-.1-1.6-.6-3-1.4-4-.9-1.1-2.2-1.6-3.9-1.6-1.8 0-3.1.5-4 1.6-.8 1.1-1.3 2.6-1.3 4.5l-.1 1.3c0 2.3.4 4.1 1.2 5.4.8 1.3 2.2 2 4.2 2 1.6-.1 2.9-.6 3.8-1.7zM324.8 483.1c-2.1-.9-3.7-2-4.7-3.2-1-1.2-1.5-2.3-1.5-3.3 0-.4.1-.7.4-1 .3-.3.6-.4 1-.4h6.6c.2 0 .4.1.6.3.5.3.8.6 1 .8.9.6 1.6 1.1 2.2 1.4.6.3 1.4.4 2.4.4 1.1 0 2-.2 2.8-.7.7-.4 1.1-1.1 1.1-1.9 0-.7-.2-1.2-.6-1.6-.4-.4-1.1-.8-2.1-1.1-1-.4-2.6-.8-4.8-1.2-3.2-.7-5.7-1.7-7.4-3.2-1.7-1.5-2.6-3.5-2.6-6 0-1.6.5-3.1 1.5-4.5s2.5-2.6 4.5-3.5c2-.9 4.4-1.3 7.1-1.3 2.8 0 5.2.4 7.2 1.3 2.1.9 3.6 1.9 4.7 3.1 1.1 1.2 1.6 2.3 1.6 3.3 0 .3-.1.7-.4.9-.3.3-.6.4-.9.4h-6c-.3 0-.6-.1-.9-.3-.5-.3-1-.6-1.3-.9-.7-.5-1.3-.9-1.9-1.2-.6-.3-1.3-.4-2.2-.4-1 0-1.8.2-2.4.7-.6.5-.9 1.1-.9 1.8 0 .6.2 1.1.5 1.5.3.4 1 .8 2.1 1.1 1.1.4 2.6.7 4.7 1.1 3.8.7 6.5 1.8 8.2 3.5 1.7 1.7 2.6 3.6 2.6 5.9 0 2.9-1.3 5.2-3.8 6.9-2.6 1.7-6.1 2.6-10.7 2.6-3 .1-5.6-.4-7.7-1.3zM352.7 448.9c-.3-.3-.4-.6-.4-1v-5.2c0-.4.1-.8.4-1 .3-.3.6-.4 1-.4h7c.4 0 .8.1 1 .4.3.3.4.6.4 1v5.2c0 .4-.1.8-.4 1-.3.3-.6.4-1 .4h-7c-.4 0-.7-.1-1-.4zm.1 34.6c-.3-.3-.4-.6-.4-1v-27.3c0-.4.1-.8.4-1 .3-.3.6-.4 1-.4h6.9c.4 0 .8.1 1 .4.3.3.4.6.4 1v27.3c0 .4-.1.7-.4 1-.3.3-.6.4-1 .4h-6.9c-.4 0-.8-.1-1-.4zM369.4 483.5c-.3-.3-.4-.6-.4-1v-27.3c0-.4.1-.8.4-1 .3-.3.6-.4 1-.4h6.7c.4 0 .8.1 1.1.4.3.3.4.6.4 1v2.2c1-1.3 2.4-2.3 4-3.1 1.6-.8 3.5-1.2 5.6-1.2 3.4 0 6.2 1.2 8.3 3.5 2.1 2.3 3.2 5.5 3.2 9.7v16.2c0 .4-.1.7-.4 1-.3.3-.6.4-1 .4H391c-.4 0-.7-.1-1-.4-.3-.3-.4-.6-.4-1v-15.9c0-1.8-.4-3.2-1.3-4.2s-2.2-1.5-3.8-1.5c-1.6 0-2.9.5-3.8 1.5-.9 1-1.4 2.4-1.4 4.2v15.9c0 .4-.1.7-.4 1-.3.3-.6.4-1 .4h-7.3c-.6 0-.9-.1-1.2-.4zM409.6 481c-2.7-2.3-4.2-5.6-4.4-9.8l-.1-2.3.1-2.4c.2-4.2 1.6-7.5 4.3-9.8 2.7-2.4 6.3-3.5 10.7-3.5 3.3 0 6.1.6 8.3 1.8 2.3 1.2 4 2.6 5.1 4.2 1.1 1.6 1.7 3.2 1.8 4.5 0 .4-.1.7-.4 1-.3.3-.6.4-1.1.4h-7.4c-.4 0-.8-.1-1-.3-.2-.2-.4-.5-.6-.9-.5-1.2-1.1-2.1-1.8-2.6s-1.6-.8-2.8-.8c-3.2 0-4.8 2.1-4.9 6.2l-.1 2.2.1 1.9c.1 2.1.5 3.6 1.4 4.6.8 1 2 1.5 3.6 1.5 1.2 0 2.2-.3 2.8-.8.7-.5 1.3-1.4 1.7-2.6.2-.4.4-.7.6-.9.2-.2.6-.3 1-.3h7.4c.4 0 .7.1 1 .4.3.3.4.6.4 1 0 1.2-.5 2.7-1.6 4.4-1.1 1.7-2.7 3.1-5 4.4-2.3 1.3-5.1 1.9-8.5 1.9-4.3.1-7.8-1.1-10.6-3.4zM443.7 480.7c-2.7-2.5-4.1-6.2-4.2-11v-2c.2-4.6 1.6-8.2 4.3-10.7 2.7-2.6 6.3-3.9 10.8-3.9 3.3 0 6.1.7 8.3 2 2.3 1.3 4 3.2 5.1 5.5 1.1 2.3 1.7 5 1.7 8v1.4c0 .4-.1.7-.4 1-.3.3-.6.4-1 .4h-18.6v.4c.1 1.8.5 3.3 1.3 4.4.8 1.1 2 1.7 3.5 1.7 1 0 1.8-.2 2.4-.6.6-.4 1.2-.9 1.7-1.5.3-.4.6-.7.8-.8.2-.1.6-.1 1-.1h7.2c.3 0 .6.1.9.3.3.2.4.5.4.8 0 1-.6 2.2-1.7 3.5-1.1 1.3-2.8 2.5-5 3.4-2.2 1-4.7 1.5-7.7 1.5-4.5.1-8.2-1.2-10.8-3.7zm15.8-15v-.1c0-1.9-.4-3.4-1.3-4.5s-2.1-1.7-3.6-1.7-2.7.6-3.6 1.7c-.9 1.1-1.3 2.6-1.3 4.5v.1h9.8zM499.3 483.5c-.3-.3-.4-.6-.4-1v-27.7l-8 6.1c-.3.2-.6.3-.9.3-.4 0-.8-.2-1.2-.7l-3.4-4.5c-.2-.3-.3-.6-.3-.9 0-.5.2-.9.7-1.2l13.4-10.4c.4-.3.9-.4 1.4-.4h7.3c.4 0 .8.1 1 .4.3.3.4.6.4 1v37.8c0 .4-.1.7-.4 1-.3.3-.6.4-1 .4h-7.6c-.4.2-.7.1-1-.2zM523.3 482.8c-2.6-1.1-4.5-2.7-5.7-4.6-1.3-1.9-1.9-4.1-1.9-6.5 0-2.1.5-3.9 1.5-5.6 1-1.6 2.4-2.9 4.1-3.9-1.4-.9-2.4-2-3.1-3.4-.7-1.4-1.1-2.9-1.1-4.7 0-2.2.6-4.2 1.7-6 1.1-1.8 2.9-3.1 5.2-4.2 2.3-1 5.2-1.5 8.7-1.5 5.1 0 8.9 1.1 11.5 3.2 2.6 2.1 3.9 4.9 3.9 8.4s-1.4 6.2-4.1 8.1c1.7.9 3.1 2.1 4.2 3.8 1 1.7 1.5 3.6 1.5 5.7 0 2.4-.6 4.6-1.9 6.5-1.3 1.9-3.2 3.4-5.8 4.6-2.6 1.1-5.7 1.7-9.4 1.7-3.6.1-6.7-.5-9.3-1.6zm14.2-7.2c1.2-1 1.9-2.3 1.9-3.9s-.6-2.9-1.9-3.9c-1.2-.9-2.8-1.4-4.7-1.4-1.9 0-3.5.5-4.7 1.4-1.3 1-1.9 2.2-1.9 3.9s.6 2.9 1.9 3.9c1.3 1 2.8 1.5 4.7 1.5 1.8-.1 3.4-.5 4.7-1.5zm-.6-17.6c1.1-.9 1.6-2 1.6-3.3 0-1.4-.5-2.5-1.6-3.4-1.1-.9-2.5-1.3-4.2-1.3-1.7 0-3.1.4-4.2 1.3s-1.6 2-1.6 3.4.5 2.5 1.6 3.4c1.1.9 2.5 1.3 4.2 1.3 1.7-.1 3.1-.5 4.2-1.4zM559.8 483.5c-.2-.3-.3-.6-.3-.9 0-.2 0-.4.1-.5L573 452h-17.4c-.4 0-.8-.1-1.1-.4-.3-.3-.4-.6-.4-1.1v-5.8c0-.4.1-.8.4-1 .3-.3.6-.4 1.1-.4h27.2c.5 0 .8.1 1.1.4.3.3.4.6.4 1v5.2c0 .8-.2 1.7-.6 2.6l-13.4 30.1c-.4.9-1.1 1.4-2 1.4h-7.5c-.5-.1-.8-.2-1-.5zM595.2 482.7c-2.5-1.2-4.4-2.6-5.6-4.3-1.2-1.7-1.9-3.5-1.9-5.2 0-.3.1-.6.4-.9.3-.2.6-.3.9-.3h7.6c.4 0 .8.1 1 .2.3.2.5.4.8.9.8 2 2.9 3 6.3 3 2 0 3.5-.5 4.6-1.4 1.1-.9 1.7-2.2 1.7-3.8 0-3.1-2-4.7-6-4.7h-6.5c-.4 0-.7-.1-1-.4-.3-.3-.4-.6-.4-1v-3.3c0-.9.3-1.5.9-2l9.5-8.1h-16.2c-.4 0-.7-.1-1-.4-.3-.3-.4-.6-.4-1v-5.5c0-.4.1-.8.4-1 .3-.3.6-.4 1-.4h26.8c.4 0 .8.1 1.1.4.3.3.4.6.4 1v4.9c0 .7-.3 1.4-.9 1.9l-8.8 8.2.4.1c3.6.5 6.4 1.7 8.5 3.6 2.1 1.9 3.1 4.7 3.1 8.2 0 2.6-.7 4.9-2.2 6.8-1.5 1.9-3.5 3.4-6.1 4.5-2.6 1-5.5 1.6-8.8 1.6-3.9.2-7-.4-9.6-1.6z"/></g></g></svg>
