<svg xmlns="http://www.w3.org/2000/svg" height="59" width="227"><path d="M0 993.362v59h227v-59z" style="fill:#c4242b;fill-opacity:1;fill-rule:evenodd;stroke:#000;stroke-width:1px;stroke-linecap:butt;stroke-linejoin:miter;stroke-opacity:0" transform="translate(0 -993.362)"/><path d="M28.835 1037.832c-.374-.42-.822-1.444-1.7-3.885l-9.163-22.46c-.182-.665-.163-.86.111-1.164.285-.314.678-.363 2.88-.36 2.129 0 2.626.064 3.017.365l6.957 17.698c.223.64.476 1.164.562 1.164.293 0 1.563-2.689 1.563-2.689l5.93-15.67c.017-.64.885-.872 3.24-.87 1.283 0 2.532.057 2.774.122.51.137.764.634.492.964-.103.125-.37.729-.594 1.341l-6.916 17.165-3.057 7.515c-.334 1.113-.664 1.231-3.451 1.231-2.073 0-2.258-.033-2.645-.467zM68.683 1038.311c-1.94-.27-4.528-1.485-6.354-2.981-2.39-1.958-3.834-4.167-4.739-7.252-.67-2.285-.672-5.852-.003-7.896 1.183-3.617 3.168-6.385 5.795-8.083 1.462-.945 2.935-1.661 3.754-1.826.39-.078 1.118-.295 1.62-.481 1.126-.42 5.92-.46 7.185-.06.446.14 1.311.382 1.924.538 1.479.376 4.411 1.944 4.905 2.623.246.337.174 1.084-.12 1.257-.152.089-.81.8-1.462 1.579-.651.779-1.279 1.487-1.394 1.574-.31.234-1.346-.011-1.819-.43-.228-.202-.96-.634-1.629-.959-1.165-.566-1.33-.59-4.048-.59-2.747 0-2.869.018-3.948.593-1.532.818-3.033 2.386-3.806 3.977-.787 1.62-1.05 4.137-.663 6.357.644 3.695 3.667 6.355 7.81 6.87 1.72.213 5.131-.61 6.022-1.455.524-.497.556-.63.556-2.3 0-1.195-.082-1.825-.253-1.935-.139-.09-1.528-.21-3.087-.265l-2.834-.101-.058-2.125c-.038-1.379.028-2.285.186-2.581l.244-.456H78c5.263 0 5.552.02 5.937.404.386.386.405.675.405 5.945 0 5.324-.016 5.56-.426 6.08-.432.55-3.09 2.145-3.09 2.145l-.516.28c-.206.111-.775.42-1.332.591-.557.172-1.306.581-1.923.65-.5.362-6.389.59-8.372.313zM99.271 1038.08c-.301-.175-.354-.52-.354-2.335 0-2.08.176-2.842.73-3.17.147-.087 1.354-1.043 2.683-2.126 1.33-1.082 3.451-2.802 4.715-3.82 4.614-3.722 5.71-4.959 6.057-6.839.265-1.432-.058-3.058-.73-3.68-.693-.643-1.057-.816-2.072-.984-2.07-.343-3.684.331-5.743 2.4-.854.858-.987.924-1.483.735-.904-.344-3.3-2.435-3.403-2.97-.058-.303.069-.695.336-1.036.72-.924 2.418-2.486 3.06-2.817.334-.172.748-.437.921-.587.173-.151 1.108-.505 2.078-.786 4.002-1.16 8.26-.406 11.012 1.948 1.342 1.148 2.365 3.443 2.603 5.84.145 1.457-.62 4.234-1.541 5.595-.78 1.152-4.093 4.434-4.901 4.855-.547.483-1.107.863-1.686 1.243-.215.194-.912.749-1.55 1.234-1.08.821-1.88 1.88-1.618 2.143.063.062 2.585.113 5.606.113 4.002 0 5.559.066 5.736.243.333.333.333 4.444 0 4.777-.317.317-19.913.34-20.456.024zM146.69 1038.118c-.501-.138-.507-.165-.607-2.899-.056-1.517-.177-2.834-.27-2.926-.092-.092-3.19-.214-6.882-.27l-6.714-.1-.544-1.519c-.85-2.37-.855-2.352 1.482-5.142 1.128-1.347 2.198-2.587 2.378-2.756.18-.17.874-.944 1.541-1.721.668-.777 1.32-1.504 1.45-1.615.129-.112 1.04-1.16 2.025-2.33.984-1.17 1.971-2.317 2.194-2.548.884-.919 3.046-3.385 3.198-3.648.379-.654 1.312-.887 3.552-.887 1.833 0 2.236.055 2.338.32.067.176.132 3.842.143 8.148.01 4.305.083 8.055.16 8.333.133.48.226.51 1.751.563 2.007.07 2.124.197 2.097 2.26-.033 2.515-.039 2.523-1.84 2.651-.847.061-1.686.231-1.864.38-.266.22-.324.728-.324 2.835 0 1.726-.08 2.646-.243 2.81-.265.264-4.118.311-5.02.061zm-.804-11.472c.108-.285.197-1.965.197-3.732 0-2.98-.165-4.253-.552-4.25-.086.002-.36.298-.608.659-.249.36-.71.93-1.025 1.264a83.385 83.385 0 0 0-1.822 2.06c-.687.798-1.575 1.8-1.975 2.226-.4.426-.814.995-.923 1.265-.392.977-.233 1.027 3.26 1.027h3.25l.198-.519zM177.457 993.362h4.909l-17.706 59h-5.162zM191.245 1038.02c-.26-.315-.157-.61.791-2.251.322-.557.776-1.377 1.01-1.822.235-.445.69-1.265 1.013-1.822a57.71 57.71 0 0 0 1.009-1.822c.232-.445.694-1.265 1.026-1.822.332-.556.747-1.285.921-1.62.175-.333.583-1.062.907-1.619.324-.556.78-1.376 1.015-1.821a78.4 78.4 0 0 1 .962-1.755c3.046-5.372 3.293-5.868 3.055-6.154-.199-.24-1.298-.29-6.35-.29-4.48 0-6.173-.065-6.35-.243-.306-.304-.333-4.07-.034-4.628.202-.38.524-.392 9.726-.392 8.26 0 9.599.042 10.133.318l.616.319-.083 1.959c-.086 2.045-.193 2.368-1.591 4.793-.321.556-.771 1.376-1 1.822-.23.445-.67 1.265-.98 1.821-.308.557-1.005 1.832-1.548 2.834a514.82 514.82 0 0 1-1.545 2.834c-.308.557-.75 1.377-.984 1.822a70.66 70.66 0 0 1-1.002 1.822 56.048 56.048 0 0 0-.993 1.822c-.228.445-.873 1.63-1.432 2.632a379.92 379.92 0 0 0-1.417 2.553c-.491.903-.852.989-4.163.989-1.86 0-2.538-.07-2.712-.279z" style="opacity:1;fill:#fff;fill-opacity:1;stroke:#e1e2e6;stroke-width:.20242915;stroke-opacity:0" transform="translate(0 -993.362)"/></svg>
