<svg xmlns="http://www.w3.org/2000/svg" version="1.0" width="1024" height="220" viewBox="-1.612 -1.612 264.649 56.949"><path d="M0 50.796c4.697-.274 5.991-.957 9.731-10.073L24.702 4.595h1.157l18.438 41.162c1.767 3.95 3.403 5.039 6.938 5.039v2.04c-4.692-.067-7.685-.204-10.405-.204-2.725 0-5.654.137-10.415.205v-2.041c3.814 0 4.902-.679 4.902-2.52 0-.747-.473-2.177-1.904-5.576l-2.72-6.396H15.107l-1.972 5.512c-1.7 4.761-1.841 5.713-1.841 6.397 0 1.763.815 2.515 5.034 2.583v2.04c-5.845-.204-6.528-.204-8.16-.204-1.703 0-2.377 0-8.168.205v-2.041zm29.6-17.08L22.25 16.23l-6.255 17.486H29.6M51.792 25.757c1.704-.274 8.3-2.178 11.91-4.014v5.308c5.238-4.155 8.163-5.308 11.493-5.308 4.36 0 6.875 2.178 7.827 5.308 4.624-3.745 8.301-5.308 11.431-5.308 4.287 0 8.032 2.588 8.032 8.975v17.016c0 2.447 1.563 3.062 4.15 3.062v2.04c-1.977-.067-5.854-.204-8.232-.204-2.378 0-6.264.137-8.232.205v-2.041c3.53 0 4.556-.547 4.556-4.424V31.88c0-4.76-2.862-5.381-4.834-5.381-1.905 0-4.15.82-6.802 2.861v18.233c0 2.182 1.225 3.203 3.335 3.203h.547v2.04c-2.178-.067-5.655-.204-7.76-.204-2.113 0-5.58.137-7.758.205v-2.041h.547c2.11 0 3.33-1.02 3.33-3.203V30.859c0-2.788-2.041-4.36-5.03-4.36-1.908 0-4.355 1.025-6.6 2.861v18.233c0 2.182 1.225 3.203 3.33 3.203h.546v2.04c-2.178-.067-5.65-.204-7.754-.204-2.114 0-5.58.137-7.759.205v-2.041h.542c2.11 0 3.335-1.02 3.335-3.203V30.176c0-1.836-.478-2.652-2.246-2.652-.41 0-1.157.137-1.904.406v-2.173M110.527 43.853h2.036c.884 5.654 4.561 7.417 8.033 7.417 3.266 0 5.78-1.695 5.78-4.283 0-5.854-15.575-5.722-15.575-15.927 0-5.235 3.74-9.317 11.63-9.317 2.794 0 5.645.474 8.575 1.29l.273 7.958h-1.904c-.615-3.94-3.335-7.212-7.554-7.212-2.793 0-5.034 1.5-5.034 4.219 0 5.786 15.581 6.128 15.581 15.723 0 5.576-4.492 9.594-12.925 9.594-2.177 0-5.854-.615-8.916-2.045v-7.417M140.879 25.552h-5.513V23.51c3.467-2.046 10.274-7.349 13.267-11.09v9.996h9.258l-1.094 3.135h-8.164v19.531c0 2.036.957 3.74 3.335 3.74 1.494 0 3.061-.952 4.492-2.314l1.152 1.904-7.417 4.692a6.535 6.535 0 01-1.562.21c-3.535 0-7.754-2.114-7.754-8.984v-18.78M159.37 25.757c1.294-.274 7.9-2.178 11.509-4.014v8.706h.132c3.266-7.007 6.186-8.706 9.052-8.706.88 0 1.763.132 2.647.405v9.664h-1.768c-.542-1.636-1.562-2.857-3.945-2.857-1.836 0-4.082 1.29-6.118 3.809v14.829c0 2.182 1.22 3.203 3.33 3.203h.542v2.04c-2.178-.067-5.645-.204-7.622-.204-2.173 0-5.645.137-7.48.205v-2.041h.541c2.11 0 3.335-1.02 3.335-3.203V30.176c0-1.836-.478-2.652-2.246-2.652-.405 0-1.157.137-1.909.406v-2.173M215.918 49.575c-.815 0-7.485 2.51-10.068 3.74-.684-1.093-1.026-2.724-1.094-3.74-3.94 2.72-8.091 3.74-10.615 3.74-4.014 0-7.55-3.608-7.55-6.943 0-5.918 5.513-8.643 17.764-10.137v-6.328c0-3.882-2.797-5.312-5.312-5.312-1.973 0-4.014.683-4.014 3.403 0 .684.342 1.91.952 3.203l-7.617 3.057c-.82-1.22-1.093-2.31-1.093-3.54 0-5.235 8.842-8.975 15.717-8.975 3.882 0 9.116 2.788 9.116 9.248v15.45c0 1.494.41 1.772 1.436 1.772.337 0 .81-.073 2.378-.684v2.046zm-11.563-11.572c-5.922.615-9.462 3.403-9.462 6.396 0 3.062 1.772 4.966 4.697 4.966 1.767 0 3.672-.473 4.897-1.43a27.184 27.184 0 01-.132-2.588v-7.344M238.442 3.843c2.93 0 9.327-1.631 12.593-3.062v46.27c0 1.362.542 1.972 1.768 1.972.747 0 1.294-.268 2.04-.678v2.04c-1.972 0-7.89 2.247-10.341 3.34-.474-.82-1.025-2.387-1.226-3.544-2.788 1.972-6.264 3.134-9.731 3.134-7.622 0-14.219-6.264-14.219-14.497 0-9.458 6.734-17.075 15.718-17.075 3.809 0 5.444.342 8.232 1.426V7.719c0-1.22-.473-2.104-2.72-2.104-.956 0-1.43.069-2.114.269V3.843zm4.834 22.734c-2.52-1.982-4.692-2.798-7.548-2.798-5.245 0-8.374 4.766-8.374 11.363 0 6.674 4.423 14.223 11.088 14.223 2.246 0 3.745-.752 4.834-1.225V26.577M256.362 1.519h1.646c.996 0 1.43.415 1.43 1.21 0 .718-.507 1.065-1.127 1.163l1.308 2.016h-.42l-1.318-2.026h-1.143v2.026h-.376v-4.39zm.376 2.03h.938c.664 0 1.387-.063 1.387-.83 0-.673-.586-.868-1.114-.868h-1.21V3.55zm-2.363.162c0 1.88 1.45 3.389 3.35 3.389 1.894 0 3.325-1.519 3.325-3.394 0-1.9-1.421-3.379-3.325-3.379-1.92 0-3.35 1.475-3.35 3.384zm7.05 0a3.711 3.711 0 01-3.715 3.716 3.711 3.711 0 01-3.716-3.716A3.71 3.71 0 01257.71 0a3.71 3.71 0 013.716 3.71" fill="#a6024f"/></svg>
