<svg xmlns="http://www.w3.org/2000/svg" width="530.5" height="219"><path d="M59.942 16.382h77.222c20.277 0 23.656.169 29.401.845 22.305 3.042 28.557 11.997 28.557 41.399 0 24.501-4.225 34.302-17.235 39.371-7.604 2.873-15.377 3.549-40.385 3.549H94.244v27.543H59.942V16.382zm77.222 56.945c15.545-.169 16.222-.169 19.094-1.689 3.379-1.859 4.562-5.069 4.562-13.011s-1.352-11.152-5.576-12.842c-2.366-1.014-2.704-1.014-18.08-1.183h-42.92v28.726h42.92zM326.646 15.793v26.529h-90.91v16.391h86.347v24.839h-86.347v17.912h91.585V128.5h-125.38V15.793h124.705zM472.363 16.382v28.726h-50.186v83.981h-35.992V45.107H336V16.382h136.363zM71.779 179.435c-.051-.617-.051-1.39-.051-1.544 0-10.345 2.161-11.632 19.558-11.632 13.999 0 15.801.155 18.064 1.493 2.471 1.44 3.294 3.757 3.294 9.367 0 4.015-.411 6.073-1.492 7.72-1.492 2.213-4.684 3.346-10.499 3.654-14.411.927-16.419 1.081-17.088 1.39-1.286.515-1.646 1.184-1.698 2.883v.359h31.344V201H72.294c-.154-1.75-.154-2.265-.154-3.911 0-6.022.206-8.544.875-10.242 1.184-3.037 3.603-4.323 9.265-4.941.36-.052 2.109-.206 5.353-.463 1.904-.104 4.786-.36 8.698-.669 6.021-.464 6.536-.721 6.536-3.552 0-1.904-.36-2.625-1.544-3.036-.927-.31-2.419-.36-7.875-.36-6.382 0-9.213.154-10.345.565-.927.36-1.184 1.185-1.235 3.86v1.184H71.779zM152.892 166.877c4.014.566 6.588 2.934 7.257 6.64.411 2.059.411 2.624.411 10.345 0 7.669 0 8.234-.411 10.293-.669 3.706-3.243 6.073-7.257 6.64-2.574.412-7.721.618-13.846.618-6.176 0-11.322-.206-13.845-.618-4.065-.566-6.639-2.934-7.309-6.64-.359-2.059-.411-2.934-.411-10.705 0-6.794.052-7.978.411-9.933.67-3.706 3.243-6.073 7.309-6.64 2.573-.412 7.669-.618 13.845-.618 6.125 0 11.271.206 13.846.618zm-23.213 9.213c-1.286.823-1.749 2.728-1.749 7.565 0 8.544.36 8.853 10.396 8.853 6.278 0 8.853-.258 10.036-.927 1.338-.823 1.75-2.728 1.75-7.771 0-5.404-.464-7.154-2.162-7.926-1.132-.515-4.015-.721-9.573-.721-4.992 0-7.617.258-8.698.927zM199.571 166.877c4.014.566 6.588 2.934 7.257 6.64.411 2.059.411 2.624.411 10.345 0 7.669 0 8.234-.411 10.293-.669 3.706-3.243 6.073-7.257 6.64-2.574.412-7.721.618-13.846.618-6.176 0-11.322-.206-13.845-.618-4.065-.566-6.639-2.934-7.309-6.64-.359-2.059-.411-2.934-.411-10.705 0-6.794.052-7.978.411-9.933.67-3.706 3.243-6.073 7.309-6.64 2.573-.412 7.669-.618 13.845-.618 6.126 0 11.272.206 13.846.618zm-23.213 9.213c-1.286.823-1.749 2.728-1.749 7.565 0 8.544.36 8.853 10.396 8.853 6.278 0 8.853-.258 10.036-.927 1.338-.823 1.75-2.728 1.75-7.771 0-5.404-.464-7.154-2.162-7.926-1.132-.515-4.015-.721-9.573-.721-4.992 0-7.617.258-8.698.927zM240.796 166.671V201h-10.448v-25.374h-2.728l-10.139 8.544-5.765-6.742 12.558-10.757h16.522zM267.323 189.626c0 2.059.206 2.728 1.029 3.242.978.617 2.11.721 9.47.721 7.926 0 9.11-.052 10.088-.464.771-.359 1.132-1.132 1.132-2.573 0-2.059-.823-2.573-4.169-2.625-1.132 0-4.528-.154-8.183-.309-3.758-.206-7.257-.36-8.338-.36-4.992-.154-7.411-.875-8.956-2.625-1.286-1.544-1.904-3.757-1.904-7.205 0-5.096 1.185-8.184 3.604-9.521 2.676-1.441 5.661-1.75 18.064-1.75 9.573 0 13.176.463 15.646 1.904 2.213 1.39 3.14 3.603 3.14 7.823 0 .206 0 .927-.052 1.596h-10.087c-.052-1.699-.206-2.162-.772-2.677-.823-.669-2.007-.771-9.882-.771-8.801 0-9.521.205-9.521 2.728 0 1.235.463 1.904 1.441 2.213.926.258 3.603.412 11.116.618 11.066.309 13.382.617 15.544 1.904 2.521 1.492 3.448 3.809 3.448 8.749 0 5.815-1.338 8.75-4.684 10.088-2.11.875-6.331 1.184-16.933 1.184-10.242 0-14.515-.463-16.984-1.853-2.574-1.441-3.397-3.5-3.397-8.39v-1.646h10.14zM336.082 193.229c-.669 6.742-4.015 8.389-17.036 8.389-7.051 0-10.396-.617-12.609-2.264-2.367-1.802-3.088-4.272-3.088-10.448 0-6.485.772-8.956 3.294-10.757 2.367-1.647 5.456-2.162 13.33-2.162 7.978 0 10.859.464 13.073 2.11 2.367 1.75 3.242 4.529 3.242 10.242 0 .309 0 1.441-.052 2.471h-23.778c0 2.471.258 3.294 1.133 3.963.927.721 2.934 1.029 6.176 1.029 5.765 0 6.897-.412 7.257-2.573h9.058zm-8.955-7.412c-.052-1.904-.154-2.368-.721-2.935-.823-.874-2.728-1.234-6.279-1.234-6.124 0-7.565.771-7.669 4.169h14.669zM349.823 176.655v3.654h.463c1.698-3.088 4.271-4.271 9.367-4.271 4.065 0 6.69.875 8.184 2.728 1.184 1.544 1.646 3.448 1.646 7.052v1.646h-8.595v-.257c0-1.699-.258-2.574-.824-3.191-.669-.721-2.109-1.133-4.014-1.133-2.008 0-3.706.67-4.581 1.75-.875 1.185-1.132 2.522-1.132 6.279V201h-9.11v-24.345h8.596zM382.555 166.671v6.846h-9.11v-6.846h9.11zm0 9.984V201h-9.11v-24.345h9.11zM420.279 193.229c-.669 6.742-4.015 8.389-17.036 8.389-7.051 0-10.396-.617-12.609-2.264-2.367-1.802-3.088-4.272-3.088-10.448 0-6.485.772-8.956 3.294-10.757 2.367-1.647 5.456-2.162 13.33-2.162 7.978 0 10.859.464 13.073 2.11 2.367 1.75 3.242 4.529 3.242 10.242 0 .309 0 1.441-.052 2.471h-23.778c0 2.471.258 3.294 1.133 3.963.927.721 2.934 1.029 6.176 1.029 5.765 0 6.897-.412 7.257-2.573h9.058zm-8.955-7.412c-.052-1.904-.154-2.368-.721-2.935-.823-.874-2.728-1.234-6.279-1.234-6.124 0-7.565.771-7.669 4.169h14.669zM433.917 193.229c.154 2.11 1.904 2.728 7.617 2.728 5.867 0 7.617-.515 7.617-2.265 0-.978-.771-1.646-2.11-1.801-1.234-.104-3.551-.155-12.455-.155-6.896-.103-9.778-2.265-9.778-7.463 0-3.653 1.286-5.918 3.963-6.999 2.007-.823 6.228-1.235 12.867-1.235 8.286 0 11.322.515 13.381 2.265 1.287 1.029 1.75 2.316 1.956 5.25h-9.264c-.206-.721-.31-.979-.618-1.133-.771-.463-2.676-.721-5.713-.721-5.713 0-7.463.464-7.463 2.008 0 .978.721 1.492 2.213 1.596 1.493.103 2.985.154 12.404.205 7.051.052 9.728 2.162 9.728 7.566 0 3.654-1.184 5.919-3.758 7.051-2.161 1.029-6.588 1.492-13.639 1.492-8.853 0-11.889-.565-14.051-2.521-1.492-1.338-2.11-3.037-2.161-5.867h9.264z"/><g><path d="M484.935 28.77V14.105h-5.844v-2.986h15.65v2.986h-5.83V28.77h-3.976zM496.841 28.77V11.119h5.951l3.573 12.04 3.533-12.04h5.965V28.77h-3.694V14.875l-3.91 13.895h-3.828l-3.896-13.895V28.77h-3.694z"/></g></svg>
