<svg xmlns="http://www.w3.org/2000/svg" width="220" height="162"><path fill="#231F20" d="M211.623 155.648h-1.092v-.377h2.602v.377h-1.083v2.939h-.427v-2.939zM214.898 158.587l-.905-2.693v2.693h-.436v-3.316h.604l.955 2.82.955-2.82h.605v3.316h-.436v-2.693l-.905 2.693h-.437zM4.406 127.169c0-1.152-.219-2.644-.728-3.271 3.333 0 10.534.022 13.621.022 7.102 0 17.816 3.942 17.816 17.23 0 9.863-7.563 17.211-17.816 17.211-2.249 0-10.836-.026-13.882-.026.625-1.153.989-2.717.989-3.952v-27.214zm5.107 27.818c3.278.424 6.304.555 9.042.163 2.649-.378 11.55-2.294 11.495-14.113-.053-11.2-6.969-13.759-12.299-14.073-2.781-.164-5.466-.06-8.238.421v27.602zM38.041 134.481l5.103-.797v4.493c1.309-3.234 5.381-5.833 11.169-3.581l-1.357 3.552c-5.297-2.513-9.812-.308-9.812 5.574v12.138c0 .577.125 1.744.471 2.492h-5.301c.536-.66.783-1.915.783-2.492v-17.509c0-1.27-.258-3.236-1.056-3.87zM199.368 136.916v15.504c0 4.865 3.354 6.167 5.84 6.167 1.052.052 2.539-.194 3.579-.425l.641-3.004c-1.213.462-2.622.572-3.466.572-1.558 0-2.685-1.034-2.685-2.651 0-1.452-.037-15.682 0-16.138h-.017c.208 0 3.439-.011 3.765 0 1.061.038 1.875.103 2.575.384l.004-2.829-6.328-.008.025-7.256-4.704 1.3c.65.606.86 2.382.86 3.552l-.003 2.43c-.212 0-2.598.011-2.994.011v2.391h2.908zM179.042 153.31c2.022 1.444 5.194 2.726 7.521 2.726 3.228 0 5.538-1.57 5.538-4.525 0-5.456-12.439-4.553-12.439-11.475 0-4.68 4.185-6.44 8.174-6.44 1.281 0 4.207.278 6.069.998l-.016 3.196c-1.652-1.412-4.175-1.754-5.837-1.754-2.64 0-4.62 1.309-4.62 3.877 0 3.771 12.428 3.553 12.428 11.291 0 5.004-4.337 7.338-9.108 7.338-2.326 0-4.749-.413-6.768-.99l-.942-4.242zM103.961 136.965c0-.283.011-2.818.011-3.143l-5.166.799c.622.652 1.1 2.688 1.1 4.142v16.929c0 .577-.247 1.978-.783 2.638h5.633c-.536-.66-.783-2.061-.783-2.638v-12.738c0-4.66 2.883-6.291 5.752-6.291 2.597 0 4.944 1.124 4.944 6.291v12.738c0 .577-.248 1.978-.783 2.638h5.463c-.536-.66-.783-2.061-.783-2.638v-12.738c0-5.167 3.193-6.291 5.793-6.291 2.596 0 5.313 1.63 5.313 6.291v12.738c0 .577-.247 1.978-.783 2.638h5.259c-.536-.66-.783-2.061-.783-2.638v-15.156c0-2.583-2.634-6.721-8.79-6.721-3.58 0-5.647 1.592-7.217 2.963-1.335-1.558-3.509-3.02-7.001-3.02-3.405 0-5.414 1.994-6.396 3.207zM91.779 144.906c-.737.693-2.281 1.232-3.875 1.441-4.187.549-7.814 1.245-7.814 5.324 0 2.419 2.636 4.324 4.726 4.324 5.534 0 6.964-3.992 6.964-7.138v-3.951h-.001zm-13.072-9.982c2.112-.847 5.521-1.235 7.657-1.235 5.458 0 9.084 2.727 9.084 9.058v10.501c0 1.946.029 3.787.723 5.081h-4.388l-.157-2.762c-1.662 2.144-3.646 3.104-7.016 3.104-6.647 0-8.099-4.542-8.099-6.726 0-7.789 7.414-7.881 10.633-8.339 1.781-.253 4.074-.756 4.418-2.426.569-2.763-1.407-4.834-5.442-4.834-2.961 0-5.387.9-7.413 2.113v-3.535zm94.303 9.982c-.737.693-2.282 1.232-3.876 1.441-4.186.549-7.814 1.245-7.814 5.324 0 2.419 2.636 4.324 4.726 4.324 5.534 0 6.964-3.992 6.964-7.138v-3.951zm-13.072-9.982c2.112-.847 5.521-1.235 7.657-1.235 5.458 0 9.084 2.727 9.084 9.058v10.501c0 1.946-.424 3.748.722 5.081h-4.388l-.157-2.762c-1.662 2.144-3.646 3.104-7.015 3.104-6.646 0-8.099-4.542-8.099-6.726 0-7.789 7.414-7.881 10.633-8.339 1.782-.253 4.075-.756 4.418-2.426.568-2.763-1.407-4.834-5.442-4.834-2.961 0-5.387.9-7.413 2.113v-3.535zM155.268 138.145c-1.647-.961-4.245-1.724-6.057-1.724-6.361 0-9.277 3.913-9.277 9.548 0 5.583 2.849 9.857 9.072 9.857 2.133 0 5.037-.957 7.29-2.342l-.917 4.107c-2.293.682-4.226 1.007-6.785 1.007-8.745 0-12.843-6.201-12.843-12.654 0-7.134 5.498-12.149 12.938-12.149 3.252 0 5.627.798 6.586 1.07l-.007 3.28zM57.38 146.268c.003-.59.081-1.152.148-1.696h16.919c0-5.817-2.908-10.807-9.8-10.807-7.153 0-11.399 5.594-11.399 12.729 0 6.453 4.728 12.217 12.825 12.217 2.56 0 4.701-.631 7.011-1.439l.813-4.125c-1.976 1.627-5.171 2.59-8.053 2.59-5.183-.001-8.488-3.752-8.464-9.469zm.683-4.276c.549-2.831 3.167-5.713 6.301-5.713 4.789 0 6.175 3.737 6.175 5.714-.001-.001-12.476.007-12.476-.001z"/><path fill="#CF3311" d="M125.279 4.448c4.702.706 9.504 2.348 12.008 3.114 5.045 1.542 13.235 6.335 16.127 8.634 1.368 1.087 4.245 3.934 5.359 5.367 1.085 1.396 3.158 4.42 4.481 6.283 2.105 3.075 4.584 7.655 6.687 11.87 2.349 4.709 2.51 6.073 3.22 10.01l1.553 6.94c.146 1.2.267 5.602-2.317 6.219-2.583.617-4.971-.575-6.097-2.317-1.558-2.411-1.343-5.833-3.105-9.75-1.374-3.166-1.975-7.767-4.169-11.076l-1.721-2.91c-3.045-4.688-6.219-8.409-8.112-10.836-1.667-2.039-4.78-4.811-7.731-6.783-2.729-1.655-7.141-3.542-10.323-4.514-1.014-.33-5.354-1.606-8.051-1.965-3.66-.411-6.068-.99-9.546-1.235-4.294-.303-6.354-.685-11.924-.034-2.11.572-5.453.799-8.462 1.95-2.43.991-5.81 2.592-9.121 4.537-3.563 1.954-8.972 5.95-12.559 9.362-3.615 3.863-5.423 5.936-7.916 10.833-1.104 2.423-3.239 6.171-4.1 8.817-.588 2.686-1.71 7.696-1.521 10.129.085 4.359-.296 5.257.031 8.82.012 3.208 1.065 5.432 1.503 8.056.375 1.813 2.114 8.086 3.19 9.542 4.891 10.538 11.456 15.102 18.772 18.394 2.062 1.05 8.515 2.777 10.382 3.272 3.183.574 7.372.957 11.404 1.035 4.242.083 10.089-.492 13.637-1.798 3.84-1.412 8.28-3.419 8.229-3.363 1.782-.982 4.501-2.585 5.348-3.29 1.637-1.049 2.623-1.455 3.593-2.465 1.399-1.224 2.246-1.929 3.306-3.446a69.052 69.052 0 012.44-3.321c.982-1.609 1.546-3.305 2.505-5.403 1.147-3.103.969-2.954 1.187-6.25.206-.955-.022-4.165-.195-4.71-.517-2.962-.334-5.575-1.012-8.451-.916-3.891-1.677-6.803-2.846-10.536-1.099-4.203-4.327-8.097-6.75-10.878-1.501-1.724-6.158-5.796-12.619-8.339-1.819-.612-4.797-1.306-6.688-1.651-4.037-.422-4.694-.151-8.559.132-1.33.232-4.418.863-5.553 1.262-3.32 1.166-4.541 1.907-7.935 3.986-1.58.917-2.771 1.619-4.386 3.133-1.289 1.193-2.21 3.221-3.254 4.41-1.43 1.946-3.022 4.542-4.09 7.342-1.158 2.785-1.531 6.706-1.355 9.229 0 1.923.523 5.443.731 6.213.207.771.727 3.161.84 3.641.113.479 1.356 3.008 1.527 3.374.701 1.492 2.043 3.636 4.304 5.825 1.668 1.822 4.893 3.61 7.307 4.303 2.165 1.188 5.816 1.39 7.836 1.394.994-.06 3.533-.216 4.858-.534 2.687-.645 3.183-.662 5.952-1.865 2.485-1.152 4.171-1.567 5.902-2.846 0 0 2.376-1.862 3.456-3.224.57-.719 1.547-4.145 1.373-6.267-.081-2.905.342-4.553-.251-6.943-.593-2.39-1.605-5.16-2.702-6.867-1.111-1.729-3.5-3.414-6.219-4.755-1.522-.752-5.129-1.449-6.659-1.63-2.907-.345-5.338.974-6.814 2.483-1.28 1.463-3.81 4.502-2.802 7.644.912 2.843 2.013 5.872 6.277 5.647 2.926.609 6.311-.275 7.438.244 1.673.95 2.316 3.048 1.708 4.511-.424 2.821-3.126 3.159-6.01 3.374-2.58.432-9.133-.831-10.573-1.91-.966-.574-2.445-1.953-3.487-2.884-.749-.67-1.597-2.164-2.176-3.237-.711-1.318-1.07-2.288-1.253-3.147-.217-1.02-.664-2.967-.495-4.914.114-1.313.466-1.872.816-3.792.697-2.177 1.563-3.834 2.956-5.722 1.815-1.842 4.12-4.035 6.37-5.054 1.984-1.048 5.46-1.434 8.605-1.25 2.551.244 5.569.555 7.564 1.224 3.415 1.22 4.391 1.463 7.194 3.231 2.369 1.466 4.752 4.163 6.082 6.397 2.829 5.789 4.452 12.229 3.272 20.898-.097 1.465-.553 2.896-1.466 4.835-.843 1.79-2.322 3.967-4.541 5.606-.894.827-2.303 1.845-3.45 2.441-1.628.988-2.723 1.502-4.423 2.356-1.492.701-3.231 1.503-5.499 2.133-2.458.972-4.344 1.012-7.435 1.473-3.043.763-11.368.218-16.327-1.969-3.385-1.423-7.183-3.932-10.07-6.99-1.604-1.681-3.173-4.731-3.634-5.355-2.296-4.414-2.746-8.566-3.114-9.438-.5-1.185-.749-3.842-1.084-5.66-.378-2.038-.144-10.585 1.914-16.071 1.16-2.184 1.839-4.131 2.624-5.154 1.411-2.007 2.093-3.261 3.293-4.684 1.809-2.194 3.126-3.984 4.888-5.246 4.49-3.651 8.241-5.577 13.314-7.987 6.304-2.567 8.197-2.036 14.163-1.941 2.684.023 6.59.867 8.51 1.217 3.566.475 5.609 1.334 8.021 2.007 2.579.72 4.07 1.869 6.186 3.148 1.742 1.125 3.792 2.666 5.146 3.917 3.464 2.54 5.135 5.21 7.258 8.489.385.55 2.906 5.923 3.308 7.419.186.749.757 2.9 1.123 4.157.471 1.994.699 3.76 1.224 6.01.47 2.318 1.27 6.695 1.617 10.786.583 3.509-.351 10.672-.902 12.871-1.227 4.1-3.373 9.104-7.611 13.923-1.8 2.134-3.714 3.788-5.925 5.583-1.691 1.411-3.142 2.232-5.754 3.792-3.548 2.117-6.248 3.469-11.221 5.413-2.025.65-4.576 1.505-7.326 2.074-5.327.492-10.801.964-16.776.254-5.976-.711-11.962-2.395-15.498-3.481-1.951-.732-5.731-2.317-7.316-3.17-1.031-.524-4.488-2.888-5.075-3.457-2.369-1.466-7.671-6.452-11.094-11.1-.75-1.436-3.447-5.745-4.032-7.633-1.555-3.193-2.639-7.055-3.276-8.705-.672-3.851-1.807-6.331-2.25-10.197.051-.91-.183-3.051-.389-4.236.301-2.646-.101-5.14.424-8.02.461-2.431 1.072-3.446 1.217-5.643.142-.94 1.352-3.767 1.674-5.025.976-2.072 1.219-3.779 2.493-6.094 1.836-3.608 3.755-7.759 6.704-11.385.842-1.124 3.23-3.821 4.044-4.756 1.924-1.923 3.053-2.227 5.235-4.157.227-.143 1.668-1.786 3.177-2.351 2.501-1.932 4.662-2.641 7.042-4.398 4.77-2.376 6.509-3.178 11.244-5.148 2.736-.976 6.552-1.516 7.926-2.049 2.614-.162 5.267-.996 8.017-.83 3.087-.029 6.198.191 9.3.473 2.099.129 4.828.231 8.53 1.034z"/></svg>
