<svg version="1.2" baseProfile="tiny" xmlns="http://www.w3.org/2000/svg" width="1249.503" height="547.747"><path fill="#DB1F26" d="M377.885 24.065h187.801c42.346 0 74.632 3.245 96.857 9.727 29.846 8.812 55.42 24.455 76.713 46.922 21.293 22.477 37.492 49.992 48.604 82.537 11.105 32.555 16.662 72.69 16.662 120.417 0 41.938-5.215 78.09-15.627 108.434-12.729 37.074-30.896 67.078-54.494 90.008-17.824 17.383-41.891 30.938-72.209 40.664-22.68 7.184-52.997 10.77-90.95 10.77H377.885V24.065zm102.961 86.393v336.695h76.75c28.708 0 49.428-1.619 62.168-4.855 16.669-4.16 30.501-11.205 41.503-21.145 10.994-9.939 19.963-26.295 26.914-49.066 6.943-22.772 10.42-53.812 10.42-93.105s-3.477-69.464-10.42-90.507c-6.951-21.034-16.678-37.446-29.18-49.234-12.5-11.789-28.355-19.768-47.57-23.928-14.357-3.236-42.492-4.854-84.395-4.854h-46.19z"/><path d="M373.742 537.683V19.92h191.944c42.565.013 75.123 3.232 98.028 9.897 30.508 8.999 56.78 25.067 78.548 48.046 21.735 22.941 38.24 51.015 49.517 84.048 11.302 33.144 16.881 73.708 16.883 121.756-.002 42.276-5.25 78.874-15.852 109.777-12.894 37.563-31.387 68.182-55.52 91.628-18.396 17.938-43.066 31.771-73.851 41.646-23.313 7.376-53.983 10.956-92.199 10.962H373.742v.003zm8.284-8.282h189.215c37.689.007 67.652-3.584 89.684-10.571 29.867-9.583 53.328-22.858 70.587-39.69 23.058-22.408 40.899-51.8 53.464-88.383 10.224-29.787 15.403-65.492 15.401-107.087.004-47.41-5.53-87.115-16.439-119.081-10.947-32.057-26.841-59.015-47.689-81.027-20.819-21.954-45.697-37.173-74.867-45.795-21.557-6.3-53.571-9.57-95.695-9.56h-183.66v501.194h-.001zm94.676-78.107v-344.98h50.333c42.054.019 70.2 1.579 85.273 4.948 19.817 4.284 36.437 12.605 49.534 24.963 13.125 12.377 23.164 29.44 30.271 50.949 7.166 21.763 10.618 52.259 10.629 91.807-.006 39.541-3.474 70.908-10.6 94.313-7.092 23.176-16.263 40.196-28.1 50.932-11.564 10.451-26.068 17.8-43.259 22.084-13.426 3.393-34.304 4.972-63.189 4.984h-80.892zm8.284-8.284h72.608c28.533.013 49.093-1.646 61.165-4.732 16.132-4.031 29.29-10.773 39.729-20.199 10.153-9.146 18.919-24.836 25.731-47.201 6.761-22.142 10.247-52.851 10.238-91.896.013-39.043-3.491-68.889-10.211-89.209-6.795-20.56-16.21-36.322-28.089-47.52-11.902-11.217-26.992-18.856-45.638-22.9-13.608-3.094-41.731-4.771-83.484-4.751h-42.047l-.002 328.408zm-4.14-328.409v-4.142 4.142z"/><path fill="#8461A9" d="M769.093 436.428c20.459 12.277 43.885 18.416 70.275 18.416 41.145 0 74.918-14.813 101.307-44.443 26.387-29.625 39.59-74.078 39.59-133.344 0-58.563-12.852-102.249-38.535-131.068-25.695-28.81-59.813-43.224-102.361-43.224-42.547 0-76.852 14.59-102.887 43.751-26.045 29.161-39.063 73.143-39.063 131.938 0 7.828.246 15.4.734 22.717-1.523 32.752-4.482 119.342-66.846 137.545-26.542-41.889-39.809-94.147-39.809-156.776 0-52.044 7.767-95.731 23.31-131.059 11.593-26.018 27.423-49.373 47.484-70.056 20.064-20.673 42.033-36.012 65.924-46.007 31.77-13.48 68.418-20.221 109.934-20.221 75.141 0 135.264 23.355 180.375 70.064 45.102 46.71 67.66 111.652 67.66 194.836 0 82.5-22.385 147.045-67.145 193.635-44.766 46.59-104.596 69.879-179.506 69.879-54.563 0-101.082-11.998-139.559-35.996 30.384-15.89 56.714-46.856 69.118-70.587z"/><path d="M839.534 547.152c-55.157.007-102.519-12.149-141.75-36.624l-6.14-3.833 6.411-3.352c29.329-15.266 55.413-45.856 67.367-68.834l2.034-3.894 3.767 2.26c19.782 11.862 42.391 17.817 68.146 17.826 40.154-.057 72.506-14.272 98.212-43.058 25.448-28.544 38.543-71.893 38.541-130.587.004-58.002-12.754-100.593-37.484-128.312-24.955-27.908-57.637-41.785-99.269-41.839-41.617.054-74.491 14.096-99.799 42.369-25.096 28.068-38.013 70.948-38.01 129.177 0 7.74.243 15.221.726 22.44l.015.227-.011.243c-.573 12.271-1.345 32.357-5.446 53.701-4.117 21.347-11.518 44.068-25.778 61.694-9.497 11.737-22.152 21.145-38.598 25.933l-2.991.871-1.667-2.631c-27.053-42.69-40.457-95.794-40.452-158.992.002-52.452 7.815-96.704 23.667-132.746 11.789-26.456 27.906-50.233 48.295-71.254 20.401-21.022 42.845-36.716 67.278-46.936 32.373-13.736 69.592-20.551 111.553-20.549 75.971-.043 137.443 23.741 183.354 71.328 46.002 47.62 68.847 113.818 68.823 197.712.023 83.211-22.647 149.009-68.3 196.506-45.527 47.434-106.645 71.152-182.296 71.151-.065.003-.134.003-.198.003zm0-8.284c74.078-.043 132.553-22.901 176.519-68.607 43.868-45.683 65.964-108.976 65.99-190.766-.026-82.473-22.298-146.158-66.498-191.957C971.231 41.706 912.458 18.78 838.15 18.739c-41.072 0-77.148 6.666-108.335 19.899-23.33 9.762-44.824 24.747-64.549 45.069-19.734 20.347-35.275 43.279-46.667 68.84-15.243 34.634-22.963 77.753-22.958 129.392.004 60.705 12.569 111.228 37.482 151.859 13.268-4.514 23.452-12.346 31.506-22.256 8.63-10.638 14.709-23.713 18.96-37.377 8.481-27.198 9.663-56.513 10.415-72.934a347.333 347.333 0 0 1-.729-22.779c.002-59.359 13.122-104.446 40.115-134.696 26.763-30.052 62.498-45.188 105.978-45.134 43.464-.054 79.017 14.898 105.454 44.611 26.634 29.917 39.581 74.7 39.583 133.824 0 59.835-13.312 105.394-40.637 136.097-27.071 30.476-62.267 45.887-104.4 45.832-25.451.009-48.433-5.599-68.675-16.851-12.54 22.145-35.39 48.759-62.48 64.995 36.526 21.109 80.206 31.732 131.321 31.738z"/><path fill="#FDC20F" d="M979.435 301.87c-37.617-11.826-65.129-25.586-82.539-41.27-31.213-28.117-46.813-62.391-46.813-102.832 0-26.027 7.342-50.371 22.023-73.032 14.684-22.652 35.838-39.914 63.473-51.767 27.627-11.853 60.984-17.779 100.066-17.779 63.814 0 111.848 14.136 144.105 42.41 32.248 28.274 49.188 66.015 50.813 113.215l-102.959 3.551c-4.383-26.277-13.785-45.175-28.209-56.695-14.426-11.511-36.059-17.271-64.896-17.271-.691 0-1.379.004-2.063.01-28.787.28-51.408 6.443-67.854 18.482-10.855 7.915-16.273 18.491-16.273 31.75 0 12.103 5.086 22.458 15.266 31.056.309.261.627.521.957.782 17.214 42.91 17.626 86.991 14.903 119.39zm102.742-79.924c37.871 9.975 66.764 20.219 86.666 30.73 23.945 12.648 42.678 29.948 56.213 51.877 13.535 21.941 20.305 49.041 20.305 81.309 0 29.254-8.109 56.648-24.326 82.186-16.217 25.539-39.154 44.51-68.807 56.926-29.652 12.418-66.598 18.633-110.848 18.633-64.406 0-113.863-14.914-148.377-44.74-34.523-29.828-55.143-73.301-61.854-130.412l100.002-9.47c6.02 33.591 18.232 58.259 36.65 74.015 18.416 15.754 43.26 23.623 74.529 23.623 33.119 0 58.082-7.008 74.873-21.043 16.791-14.027 25.193-30.43 25.193-49.207 0-12.057-3.531-22.311-10.576-30.779-7.055-8.461-19.361-15.818-36.928-22.088-2.98-1.037-6.902-2.271-11.771-3.709 4.345-34.238 4.445-68.855-.944-107.851z"/><path d="M890.295 502c-35.457-30.613-56.49-75.247-63.261-133.064l-.493-4.206 108.015-10.23.672 3.753c5.921 33.014 17.813 56.676 35.267 71.597 17.509 14.969 41.229 22.613 71.836 22.629 32.574.007 56.508-6.921 72.217-20.079 16.084-13.513 23.657-28.538 23.708-46.026-.024-11.261-3.217-20.4-9.615-28.129-6.262-7.559-17.946-14.725-35.107-20.829-2.881-1-6.755-2.222-11.583-3.649l-3.381-.997.444-3.494c2.056-16.212 3.148-32.492 3.148-49.296 0-18.334-1.303-37.296-4.089-57.466l4.104-.566-4.104.566-.85-6.155 6.008 1.582c38.05 10.03 67.167 20.32 87.545 31.074 24.538 12.952 43.887 30.801 57.805 53.365 14.021 22.726 20.927 50.651 20.922 83.483.011 30.022-8.363 58.273-24.972 84.406-16.658 26.261-40.366 45.838-70.703 58.525-30.337 12.698-67.815 18.95-112.448 18.955-65.006.002-115.564-15.06-151.085-45.749zm5.416-6.271c33.505 28.966 81.861 43.728 145.668 43.734 43.867.002 80.279-6.175 109.247-18.312 28.967-12.145 51.135-30.509 66.911-55.325 15.824-24.943 23.67-51.48 23.681-79.966-.007-31.702-6.64-57.977-19.688-79.133-13.153-21.297-31.271-38.045-54.622-50.39-18.39-9.72-45.057-19.375-79.818-28.794 2.278 18.247 3.355 35.592 3.355 52.434 0 15.957-.966 31.462-2.787 46.851 3.396 1.031 6.26 1.95 8.626 2.772 17.94 6.426 30.87 13.976 38.721 23.341 7.688 9.207 11.559 20.573 11.534 33.431.049 20.063-9.183 37.842-26.68 52.383-17.873 14.913-43.866 22.002-77.529 22.006-31.934.019-57.901-8.078-77.222-24.617-18.668-15.977-30.981-40.381-37.332-72.681l-91.989 8.711c7.147 54.307 27.173 95.24 59.924 123.555zm82.482-189.908c-37.939-11.943-65.929-25.83-84.07-42.143-31.979-28.735-48.234-64.389-48.181-105.91-.014-26.81 7.604-52.025 22.688-75.286 15.146-23.385 37.05-41.209 65.315-53.319 28.284-12.134 62.205-18.115 101.699-18.117 64.383.002 113.507 14.247 146.837 43.439 33.131 28.99 50.613 68.088 52.222 116.186l.142 4.14-110.729 3.819-.598-3.582c-4.287-25.69-13.363-43.495-26.705-54.14-13.322-10.663-33.992-16.378-62.313-16.367-.677 0-1.35.004-2.022.011-28.241.272-49.949 6.326-65.453 17.685-9.912 7.334-14.487 16.287-14.572 28.403.056 10.911 4.372 19.854 13.798 27.895.271.228.556.46.854.697l.862.684.41 1.022c12.782 31.87 16.448 64.238 16.45 92.105 0 10.437-.518 20.247-1.264 29.171l-.431 5.159-4.939-1.552zm1.241-3.952l1.243-3.951-1.243 3.951zM937.213 36.774c-27.005 11.596-47.409 28.294-61.632 50.212-14.278 22.064-21.345 45.537-21.356 70.781.051 39.362 14.995 72.254 45.442 99.754 15.929 14.377 41.301 27.457 76.038 38.804.509-7.292.836-15.098.836-23.282.003-26.853-3.514-57.78-15.458-88.029l-.181-.151c-10.937-9.158-16.791-20.924-16.735-34.222-.084-14.399 6.177-26.6 17.968-35.091 17.394-12.723 40.929-18.995 70.261-19.281.695-.007 1.396-.011 2.103-.011 29.354.011 51.949 5.817 67.481 18.177 14.807 11.837 24.348 30.604 29.073 55.668l95.183-3.283c-2.451-44.339-18.79-79.374-49.216-106.105-31.184-27.356-78.129-41.384-141.376-41.382h-.021c-38.656 0-71.448 5.872-98.41 17.441z"/><g><path fill="#C0BFBF" d="M302.11 537.997H9.138v-88.531l199.844-53.157-199.844-52.56v-88.73H302.11v54.957H71.489L302.11 368.13v56.955L71.489 483.04H302.11v54.957z"/><path d="M4.996 542.138V446.28l187.788-49.949-187.788-49.39v-96.065h301.256v63.239H104.853l201.399 50.788v63.409l-201.285 50.585h201.285V542.139H4.996v-.001zm297.113-4.141v-4.143 4.143zM13.28 340.552l211.907 55.729L13.28 452.647v81.207h284.688v-46.673H71.49l-1.011-8.159 227.488-57.169v-50.498L70.477 313.99l1.013-8.157 226.478-.002v-46.672H13.28v81.393z"/><g><path fill="#C0BFBF" d="M206.784 242.356l-5.596-57.555c19.319-3.463 33.508-10.492 42.567-21.083 9.062-10.592 13.589-24.88 13.589-42.867 0-19.051-4.028-33.405-12.091-43.066-8.059-9.658-17.486-14.489-28.278-14.489-6.926 0-12.821 2.033-17.686 6.095-4.862 4.066-9.093 11.16-12.69 21.284-2.398 6.929-6.66 22.716-12.79 47.363-7.859 31.71-17.518 53.958-28.977 66.748-16.119 17.986-35.772 26.979-58.954 26.979-14.92 0-28.877-4.228-41.868-12.69-12.99-8.459-22.882-20.649-29.677-36.572-6.795-15.918-10.192-35.138-10.192-57.655 0-36.771 8.063-64.45 24.181-83.036 16.122-18.585 37.639-28.343 64.55-29.277l2.598 59.154c-15.054 2.532-25.88 7.962-32.475 16.287-6.595 8.328-9.892 20.818-9.892 37.471 0 17.187 3.531 30.645 10.591 40.368 4.531 6.264 10.592 9.393 18.186 9.393 6.929 0 12.859-2.929 17.786-8.793 6.264-7.459 12.79-25.58 19.585-54.357 6.794-28.778 13.823-50.061 21.083-63.851 7.263-13.789 17.187-24.581 29.777-32.375 12.59-7.794 28.146-11.691 46.664-11.691 16.787 0 32.509 4.665 47.163 13.989 14.658 9.327 25.549 22.517 32.675 39.569 7.125 17.056 10.691 38.305 10.691 63.75 0 37.04-8.559 65.483-25.68 85.333-17.116 19.856-42.065 31.712-74.84 35.574z"/><path d="M196.695 181.397l3.762-.674c18.741-3.362 31.924-10.073 40.149-19.699 8.276-9.686 12.579-22.849 12.595-40.174.004-18.507-3.942-31.833-11.13-40.411-7.544-8.95-15.593-12.952-25.097-13.001-6.126.024-10.905 1.717-15.029 5.131-3.961 3.27-8.002 9.741-11.432 19.459-2.289 6.596-6.574 22.423-12.686 47.005-7.968 32.037-17.671 54.787-29.912 68.516-16.734 18.753-37.77 28.41-62.039 28.357-15.706.012-30.539-4.494-44.128-13.36-13.725-8.926-24.175-21.865-31.226-38.417C3.452 167.556 0 147.777-.002 124.848c.004-37.333 8.167-66.088 25.195-85.75C42.023 19.627 64.909 9.311 92.727 8.395l4.102-.141 2.938 66.912-3.61.608c-14.462 2.438-24.191 7.532-29.916 14.773-5.754 7.221-9.008 18.759-8.996 34.899-.004 16.646 3.432 29.185 9.805 37.94 3.955 5.321 8.389 7.594 14.829 7.68 5.727-.058 10.243-2.209 14.614-7.315 2.563-3.01 5.71-9.098 8.868-17.925 3.184-8.835 6.485-20.433 9.858-34.721 6.848-28.963 13.905-50.47 21.45-64.83 7.563-14.378 18.038-25.789 31.26-33.965C181.307 4.026 197.69-.007 216.774-.003c17.558-.01 34.137 4.92 49.388 14.637 15.378 9.77 26.875 23.73 34.272 41.468 7.405 17.736 11.007 39.518 11.011 65.346.004 37.639-8.704 67.18-26.685 88.037-17.9 20.79-44.013 33.061-77.493 36.983l-4.199.494-6.373-65.565zm10.09 60.959l4.121-.401-4.121.401zm3.706-4.661c29.96-4.279 52.383-15.527 67.996-33.619 16.259-18.843 24.668-46.186 24.674-82.627.004-25.062-3.526-45.78-10.372-62.154-6.854-16.366-17.141-28.787-31.076-37.671-14.057-8.93-28.922-13.329-44.94-13.341-17.95.006-32.678 3.766-44.482 11.071-11.957 7.411-21.331 17.585-28.293 30.783-6.975 13.223-13.977 34.283-20.716 62.873-3.422 14.491-6.782 26.34-10.126 35.625-3.369 9.294-6.618 15.997-10.319 20.445-5.481 6.621-12.827 10.327-20.958 10.272-8.745.084-16.436-3.901-21.538-11.102-7.753-10.696-11.378-25.074-11.382-42.802.012-17.165 3.352-30.608 10.788-40.042 6.88-8.672 17.548-14.248 31.426-17.125l-2.257-51.383c-24.035 1.731-42.873 10.87-57.467 27.629C16.242 62.035 8.28 88.639 8.284 124.848c-.002 22.105 3.34 40.766 9.858 56.029 6.541 15.292 15.872 26.734 28.127 34.727 12.393 8.057 25.476 12.007 39.608 12.018 22.095-.051 40.366-8.382 55.869-25.601 10.678-11.852 20.296-33.596 28.043-64.983 6.149-24.707 10.389-40.456 12.907-47.751 3.752-10.497 8.172-18.214 13.938-23.076 5.602-4.708 12.614-7.082 20.341-7.057 12.079-.051 22.886 5.61 31.457 15.976 8.94 10.743 13.048 26.125 13.055 45.72.014 18.65-4.737 34.062-14.585 45.559-9.26 10.82-23.167 17.95-41.227 21.739l4.816 49.547z"/></g></g></svg>