<svg version="1.1" id="Layer_1" xmlns="http://www.w3.org/2000/svg" x="0" y="0" viewBox="0 0 350 218" xml:space="preserve"><style>.st1{fill:#00a2e7}</style><path d="M65.4 45.3c11.8-11.6 23.3-23.5 35.2-34.9 14.6 14.8 29.4 29.4 44.1 44.1-.7 1.2-2.2 2.1-1.9 3.6.1 11.1-.1 22.2-.1 33.2h38.4c10.6 10.5 21 21.3 31.7 31.8-12.3 12.5-24.7 24.9-37.2 37.1-21.4-.1-42.8 0-64.3 0-1.6.3-2.5-1.2-3.6-2.1-14.9-15-30.1-29.7-44.8-44.9.3-21.4 0-42.8.1-64.2-.2-1.6 1.5-2.6 2.4-3.7z" fill="#ffe700"/><path d="M134.5 185.1c-1.6 0-2.9.6-4 1.7s-1.7 2.5-1.7 4c0 1.6.6 2.9 1.7 4s2.5 1.7 4 1.7c1.6 0 2.9-.6 4-1.7s1.7-2.4 1.7-4-.6-2.9-1.7-4c-1.1-1.2-2.4-1.7-4-1.7zm108.7-14c-5.9-.2-10.8 1.6-14.9 5.6-4 3.9-6 8.9-6 14.8 0 5.3 1.5 9.8 4.6 13.7 3.9 4.9 9.5 7.3 16.6 7.3 7.2 0 12.7-2.5 16.6-7.6 3-3.8 4.4-8.3 4.4-13.3 0-5.9-2-10.8-6-14.8-3.8-4.1-9-5.9-15.3-5.7zm9.4 31.7c-1 2.8-2.3 4.8-4 6-1.4 1-3 1.5-5 1.5-3 0-5.3-1.1-7-3.4-2.4-3.3-3.6-8.3-3.6-15.1 0-5.7.8-10.1 2.3-13.2 1.9-3.7 4.7-5.6 8.3-5.6 2 0 3.7.5 5.2 1.6s2.8 2.9 3.7 5.5c1 2.6 1.5 6.6 1.5 11.8 0 4.5-.5 8.1-1.4 10.9zm-66.6-8h-19.4v1h1c1 0 1.8.2 2.4.6.7.4 1.1.8 1.3 1.3s.3 1.5.3 3.1v8.3c-1.1.4-2.1.7-3.1.9s-2 .3-2.9.3c-2.8 0-5.1-.7-7.1-2-2-1.4-3.4-3.5-4.3-6.3-.9-2.9-1.3-6.2-1.3-10 0-3.2.4-6.2 1.2-9.2s2.2-5.3 4.2-7 4.5-2.5 7.4-2.5c3.1 0 6 1 8.6 3s4.6 4.9 5.9 8.8h1V171h-1c-.4 1.1-.8 1.9-1.3 2.3-.5.4-1 .6-1.5.6-.4 0-1.5-.4-3.4-1.1-1.9-.7-3.3-1.2-4.2-1.3-1.6-.3-3.4-.5-5.4-.5-6.4 0-11.7 2.1-15.9 6.2-4.2 4.1-6.3 9.2-6.3 15.2 0 3.3.7 6.4 2.1 9.1 1.1 2.1 2.6 4 4.5 5.7s4.1 3 6.6 4.1c2.5 1 5.6 1.5 9.4 1.5 3 0 5.8-.3 8.6-.9 2.8-.6 5.4-1.4 8-2.6V201c0-1.5.1-2.4.3-2.8.3-.7.8-1.2 1.3-1.5.6-.3 1.6-.5 3.1-.6v-1.3h-.1zm-80.9-23.7c-5.9-.2-10.8 1.6-14.9 5.6-4 3.9-6 8.9-6 14.8 0 5.3 1.5 9.8 4.6 13.7 3.9 4.9 9.5 7.3 16.6 7.3 7.2 0 12.7-2.5 16.6-7.6 3-3.8 4.4-8.3 4.4-13.3 0-5.9-2-10.8-6-14.8-3.8-4.1-8.9-5.9-15.3-5.7zm9.4 31.7c-1 2.8-2.3 4.8-4 6-1.4 1-3 1.5-5 1.5-3 0-5.3-1.1-7-3.4-2.4-3.3-3.6-8.3-3.6-15.1 0-5.7.8-10.1 2.3-13.2 1.9-3.7 4.7-5.6 8.3-5.6 2 0 3.7.5 5.2 1.6s2.8 2.9 3.7 5.5c1 2.6 1.5 6.6 1.5 11.8 0 4.5-.5 8.1-1.4 10.9zm100.2 4c-2.2 1.7-5.2 2.6-8.9 2.6h-2.4c-1.1 0-2-.2-2.5-.5s-.9-.7-1-1.2c-.2-.5-.3-1.8-.3-4v-11.2c1.9 0 3.4.3 4.4.8s1.9 1.5 2.6 2.9c.8 1.5 1.2 3.3 1.5 5.6h1.1v-20.9h-1.1c-.3 3.1-1 5.4-2.2 7-1.1 1.6-3 2.4-5.5 2.4h-.8V174h4.1c3 0 5.1.2 6.2.5 1.9.6 3.3 1.5 4.4 2.8 1 1.3 1.8 3.3 2.4 6.2h1.1v-11.8h-33.4v1h1.3c1.3 0 2.3.3 3 .8.5.4.9.9 1.1 1.6.1.4.1 1.5.1 3.4v26.3c0 2-.1 3.3-.3 3.7-.3.7-.7 1.1-1.2 1.4-.7.4-1.6.6-2.8.6h-1.3v1h34.4l1.8-12.7h-1.1c-.8 3.6-2.4 6.3-4.7 8zm-138 0c-2.2 1.7-5.2 2.6-8.9 2.6h-2.4c-1.1 0-2-.2-2.5-.5s-.9-.7-1-1.2c-.2-.5-.3-1.8-.3-4v-11.2c1.9 0 3.4.3 4.4.8s1.9 1.5 2.6 2.9c.8 1.5 1.2 3.3 1.5 5.6h1.1v-20.9H70c-.3 3.1-1 5.4-2.2 7-1.1 1.6-3 2.4-5.5 2.4h-.8V174h4.1c3 0 5.1.2 6.2.5 1.9.6 3.3 1.5 4.4 2.8 1 1.3 1.8 3.3 2.4 6.2h1.1v-11.8H33.9v1c2.2 0 3.8.5 4.8 1.7.7.8 1 2.5 1 4.9v17.1L20 171.7H5.9v1c1.2 0 2.1.2 2.8.6.6.3 1.4 1 2.2 2.1l.9 1.1v28.1c0 2.1-.4 3.7-1.3 4.6-.9.9-2.4 1.4-4.6 1.4v1h14.2v-1h-.9c-1.4 0-2.6-.4-3.6-1.2S14 207 14 204.7v-25.4l26.9 33.2h1v-33.2c0-1.9.2-3.2.5-4s.8-1.3 1.3-1.7c.6-.3 1.7-.6 3.4-.8h.6c1.3 0 2.3.3 3 .8.5.4.9.9 1.1 1.6.1.4.1 1.5.1 3.4v26.3c0 2-.1 3.3-.3 3.7-.3.7-.7 1.1-1.2 1.4-.7.4-1.6.6-2.8.6h-1.3v1h34.4l1.8-12.7h-1.1c-.9 3.5-2.5 6.2-4.7 7.9zm248.8-31.9c-1.3-.6-3.4-.8-6.4-.8v29.4c0 1.5.1 2.4.2 2.8.1.3.4.6.7.8.5.3 1.2.4 2.1.4 3 0 5.3-1 6.9-3.1 2.1-2.8 3.2-7.4 3.2-13.3 0-4.7-.7-8.4-2.2-11.3-1.2-2.1-2.7-4.1-4.5-4.9zm2.2 28.5c-1.3 1.7-3.1 2.5-5.6 2.5-.9 0-1.2-.2-1.3-.2 0-.2-.1-.7-.1-2.2v-27.8c2.4.1 3.6.4 4.2.7 1.5.7 2.7 2.4 3.7 4.3 1.3 2.6 2 6.1 2 10.5 0 5.3-1 9.7-2.9 12.2zm13.1-23.3c-1.8-3.2-4.6-6.2-8.1-7.8-2.9-1.3-6.6-1.9-11.2-1.9H301l-.2 1.4c-.1.8-.3 1-.4 1.1s-.2.2-.4.2c-.1 0-.6-.1-2.6-.9-3-1.2-6-1.8-8.7-1.8-3.7 0-7.3.9-10.6 2.8s-6 4.5-8 7.9-3 7-3 10.7c0 3.6.9 7 2.7 10.1 1.8 3.2 4.4 5.7 7.7 7.4 3.2 1.7 7 2.5 11.1 2.5 3.2 0 6-.5 8.4-1.6 2.4-1 4.7-2.7 6.9-5l.4-.5v-8.1l-2.8 3.3c-2 2.3-3.9 3.9-5.6 4.8-1.7.9-3.5 1.3-5.6 1.3-2.4 0-4.4-.6-5.8-1.7-1.5-1.2-2.6-2.9-3.3-5.3-.8-2.5-1.2-5.4-1.2-8.5s.5-5.9 1.6-8.4c.8-1.9 1.9-3.3 3.6-4.4 1.6-1.1 3.4-1.7 5.4-1.7 2.4 0 4.4.7 6.3 2.3 1.9 1.5 3.2 3.8 3.9 6.8l.3 1.2h3.9v-11.8h1.3c.9 0 1.4.2 1.6.3.4.2.5.4.5.5s.2 1.6.2 3.8v24.1c0 2-.1 2.6-.1 2.8-.1.2-.3.4-.6.6-.2.1-.6.3-1.6.3h-2.8v4.1h17.9c2.5 0 4.3-.1 5.5-.4 2.6-.5 4.9-1.2 6.7-2.1 1.9-.9 3.6-2.2 5-3.7 1.4-1.6 2.6-3.5 3.5-5.9.9-2.3 1.3-5.3 1.3-8 .2-4-.8-7.6-2.6-10.8zm-37.3 4.7h-1c-.8-3.3-2.3-5.9-4.4-7.6-2.2-1.8-4.6-2.6-7.3-2.6-2.3 0-4.4.7-6.3 2s-3.3 3-4.2 5.1c-1.1 2.7-1.7 5.7-1.7 9.1 0 3.3.4 6.2 1.2 8.9.8 2.7 2.1 4.7 3.9 6.1s4 2.1 6.8 2.1c2.3 0 4.4-.5 6.3-1.5s3.9-2.7 6-5.2v3.2c-2 2.1-4.2 3.7-6.4 4.7s-4.8 1.4-7.8 1.4c-3.9 0-7.4-.8-10.4-2.3-3-1.6-5.4-3.8-7-6.7s-2.5-6-2.5-9.4c0-3.5.9-6.8 2.7-9.9 1.8-3.1 4.3-5.6 7.4-7.3s6.4-2.6 9.9-2.6c2.6 0 5.3.6 8.1 1.7 1.7.6 2.7 1 3.2 1 .6 0 1.1-.2 1.5-.6.4-.4.7-1.1.8-2h1v12.4h.2zm37.2 13.6c-.8 2.2-1.9 4-3.2 5.4-1.3 1.4-2.8 2.5-4.5 3.4s-3.8 1.5-6.3 2c-1.1.2-2.8.3-5.2.3h-16.3v-.9h1.2c1.1 0 1.9-.2 2.4-.5.6-.3 1-.8 1.2-1.4.2-.4.2-1.5.2-3.4v-24.1c0-1.9-.1-3.9-.3-4.4-.2-.5-.6-.9-1.2-1.2-.6-.4-1.4-.5-2.4-.5h-1.2V172h16.3c4.4 0 7.9.6 10.5 1.8 3.3 1.5 5.7 4.1 7.4 7.1 1.7 2.9 2.5 6.3 2.5 10 .2 2.6-.3 5.3-1.1 7.5zM97.3 6.2c1.2-1 2.9-3.8 4.6-1.7 15.6 15.4 30.9 31 46.6 46.4 1.3-.7 2.3-1.8 3.4-2.9 11-11.2 22.2-22 33.2-33.2 1-.8 1.9-2.2 3.3-1.9 20.3-.1 40.6.1 60.8.1 14.7 14.6 29.3 29.3 44 43.9-.2 20.7-.2 41.3 0 62-14.1 14.1-28.2 28.3-42.4 42.2-11.4-11.4-22.9-22.7-34-34.4-13.2 12.6-25.7 26-39 38.4-22.5.4-45 0-67.5.2-2.8.6-4.4-1.9-6.2-3.6-15.3-15.5-31-30.6-46.1-46.3.2-23.3.2-46.5 0-69.8C70.9 32.3 84.3 19.4 97.3 6.2zM65.4 45.3c-.9 1.1-2.5 2.1-2.3 3.7-.1 21.4.1 42.8-.1 64.2 14.8 15.1 29.9 29.8 44.8 44.9 1.1.9 2 2.3 3.6 2.1h64.3c12.5-12.2 24.9-24.6 37.2-37.1-10.7-10.4-21.1-21.2-31.7-31.8-12.8-.1-25.6 0-38.4 0 0-11.1.2-22.1.1-33.2-.3-1.5 1.2-2.5 1.9-3.6-14.7-14.7-29.5-29.3-44.1-44.1-12 11.4-23.5 23.3-35.3 34.9z"/><path d="M110.5 64.7c1.9-2.7 3.7-5.5 5.6-8.2h6.7c2.1 3.1 4.4 6.2 5.9 9.7-.7 3-2.8 5.4-4.4 8-3-.1-6-.2-8.9-.3-1.7-3-3.3-6.1-4.9-9.2zM83.9 85.6c.8-3.1 2.9-5.5 5.7-7.1 1.9.5 3.9.6 5.6 1.6 1.4 1.5 2 3.6 2.8 5.5-1.6 1.4-3.2 2.9-4.9 4.2-3.6.4-6.5-2.3-9.2-4.2zM144.5 124.5c7.3-7 6.1-18.5 12.4-26 1.3 8.8 2.3 18.7-2.7 26.6-3.3 5.2-7.3 10.7-13.4 12.7-6.2 1.3-12.8 1.6-19 .3-5-1.1-8.8-4.8-11.5-8.9 10.9 4.9 25.3 3.6 34.2-4.7z"/><g><path class="st1" d="M220.2 45.5c-.3-3.6 2.1-6.7 3.3-9.9 2 .4 4.1.7 6.1 1 1.1 2.2 2.2 4.4 3.2 6.7-1.9 1.9-3.8 3.8-5.6 5.8-2.4-1.1-6.7-.3-7-3.6zM192.8 54.6c3.6-.6 7.8-3.5 11.1-.8 2.5 1.5 4.9 3 7.2 4.8.3 4.4-.7 8.8-1.2 13.1-2.6 2-6.1 2.7-9 4.1-3.3-2.6-6.6-5.2-9.7-8.1.7-4.3 1.2-8.7 1.6-13.1zM247.3 76.3c6.3-1.5 12.6-3 19-4.1 1.3 6.1 2.7 12.2 4.3 18.3 1.4 4.4-.4 8.8-1.3 13.1-2.9.7-5.7 1.3-8.6 2-1 4.4-2.1 8.9-2.7 13.4-5.2.7-10.4 1.8-15.6 2.1-2.5-1.4-4.8-3.3-6-5.8-1.4-4.1-1.8-8.4-2.9-12.5 4.7-2.3 9.3-4.5 14-6.8 2.1-6.5 1.1-13.2-.2-19.7z"/></g></svg>