<svg version="1.0" xmlns="http://www.w3.org/2000/svg" width="733.333" height="733.333" viewBox="0 0 550 550" fill="#fff"><path d="M136.5 34.6c-48.1 8.6-86.8 44.2-99 91-4.4 16.9-4.7 26.8-4.2 157.9.3 120.4.4 123.2 2.4 132.5 11.1 50.1 46.7 85.8 97.3 97.6 6.6 1.5 15 1.8 69.1 2.1 56 .4 61.8.3 63.3-1.2s1.6-20.8 1.6-239.6c0-162.2-.3-238.6-1-240-1-1.8-2.7-1.9-61.3-1.8-47.6.1-61.9.4-68.2 1.5zm90.5 240v202.6l-40.7-.5c-37.5-.4-41.5-.6-49-2.5-32.2-8.3-56.1-33.1-62.8-65.4-2.2-10.1-2.2-258.9-.1-268.8 6-28.1 25.5-51.4 51.8-61.9 13.2-5.3 19.3-5.9 62.1-6L227 72v202.6z"/><path d="M145.1 133.1c-6.3 1.2-15.9 6-21 10.5-10.5 9.1-15.7 22-14.9 37.2.4 7.9.9 10 4.1 16.4 4.7 9.7 11.8 16.8 21.5 21.6 6.7 3.3 8.4 3.7 17.1 4 7.9.3 10.7 0 16-1.8 21.7-7.3 34.8-28.4 31.1-50-4.3-25.7-28.7-42.9-53.9-37.9zm170.6-99.4c-.4.3-.7 108.7-.7 240.9 0 218.1.1 240.2 1.6 240.8 2.7 1 80.3.6 89.9-.4 40.6-4.6 76.4-29.3 95.9-66 2.5-4.7 5.8-12.6 7.5-17.5 6.3-18.8 6.1-13.8 6.1-157.5 0-114.7-.2-131.8-1.6-139.1-9.9-52.1-49.6-91.4-101.8-100.4-7-1.2-17.8-1.5-52.6-1.5-24 0-44 .3-44.3.7zm106.8 217.8c15.6 4.1 28.4 16 33.6 31.2 3.3 9.4 3.2 23.2-.1 31.8-6.1 15.8-18.1 26.9-33.5 31-25 6.5-51.6-8.6-58.9-33.4-2.2-7.6-2.1-20.4.4-28.2 7.5-24.5 33.5-38.9 58.5-32.4z"/></svg>