<svg xmlns="http://www.w3.org/2000/svg" height="102.235" width="798.114"><g stroke="#fdfdfd" stroke-width=".282"><path d="M4.176 52.076c-.354-.353-.214-9.532.15-9.896.256-.256 4.58-.338 17.738-.338 16.908 0 17.43-.016 18.491-.57.6-.312 1.344-.85 1.651-1.196.606-.68 1.219-2.52 1.219-3.655 0-1.542-1.555-4.157-2.472-4.157-.22 0-.8-.186-1.289-.414-.731-.342-3.121-.428-13.59-.493-8.853-.055-12.824-.174-13.1-.395-.217-.173-1.092-.482-1.944-.686-.852-.203-1.75-.537-1.994-.74-.244-.204-.597-.37-.784-.37-.186 0-1.406-1.072-2.71-2.381-1.845-1.854-2.461-2.68-2.787-3.732-.54-1.749-1.02-3.105-1.49-4.212-.543-1.282-.51-6.12.047-6.677.232-.233.423-.818.423-1.3 0-1.668 1.51-4.264 3.838-6.6 1.205-1.209 2.45-2.311 2.768-2.45.317-.14.767-.366 1-.505.232-.138 1.13-.455 1.996-.705 1.39-.4 4.307-.452 24.859-.452H59.48v4.732c0 3.305-.102 4.834-.338 5.07-.256.256-4.725.338-18.391.338-16.754 0-18.124.036-19.037.502-1.937.988-2.878 2.527-2.878 4.71 0 1.993 1.234 4.366 2.27 4.366.221 0 .801.187 1.29.416.732.343 3.094.429 13.563.493 8.927.054 12.843.173 13.24.401.31.179 1.133.48 1.83.668 2.143.58 3.124 1.185 5.238 3.233 2.158 2.091 3.21 3.573 3.212 4.524 0 .319.187.826.415 1.127.227.3.417.88.422 1.286.005.408.2.898.432 1.091.6.498.607 6.128.009 6.918-.228.301-.418.96-.423 1.464-.005.504-.262 1.39-.572 1.967-.31.578-.564 1.201-.564 1.384 0 .534-4.283 4.937-5.21 5.358-.466.21-1.036.489-1.268.619-.233.13-1.27.508-2.307.84-1.86.598-2.154.605-23.967.605-12.146 0-22.168-.085-22.271-.188zM80.326 51.998c-1.265-.395-4.507-2.022-4.507-2.262 0-.128-.349-.364-.775-.523-.869-.325-3.169-2.343-3.169-2.78 0-.157-.414-.842-.92-1.523-1.072-1.442-2.178-3.628-2.178-4.306 0-.26-.191-.764-.425-1.12-.37-.564-.415-3.14-.352-19.92L68.073.292l7.386-.075 7.386-.075.079 17.68.078 17.682.78 1.549c.955 1.9 2.532 3.325 4.496 4.064 1.353.51 2.327.567 10.99.65l9.505.09.072-20.783.073-20.782 7.677-.075 7.678-.075-.072 25.99-.072 25.991-21.55.047c-11.851.026-21.866-.052-22.253-.173zM134.44 51.926c-.258-.258-.339-6.299-.339-25.472V1.319l.743-.584c.736-.579.914-.583 21.76-.571 17.57.01 21.203.079 22.145.418.62.223 1.333.408 1.586.41.252.002.616.195.809.427.193.233.625.423.96.423 1.103 0 2.69 1.043 4.788 3.148 2.027 2.035 2.998 3.625 3.409 5.584.113.542.381 1.328.595 1.747.562 1.1.535 10.216-.034 11.21-.221.388-.407 1.061-.412 1.497-.036 2.831-5.858 9.208-8.407 9.208-.27 0-.806.222-1.189.493-.638.452-1.93.5-15.485.57-13.41.072-14.821.123-15.14.548-.262.348-.353 2.434-.353 8.105 0 5.564-.092 7.728-.338 7.974-.481.481-14.617.481-15.098 0zm36.567-27.652c.896-.473 1.487-1.067 2.032-2.043.698-1.25.768-1.643.774-4.336.006-2.871-.021-3.004-.909-4.358-1.548-2.363-1.873-2.42-13.262-2.333l-9.625.074-.076 6.473c-.042 3.56-.014 6.634.062 6.831.107.28 2.268.358 9.939.358 9.765 0 9.807-.002 11.065-.666zM213.397 51.792c-.774-.232-1.788-.492-2.253-.577-.465-.085-1.289-.49-1.831-.9a44.965 44.965 0 00-2.254-1.564c-1.419-.916-5.07-4.351-5.07-4.77 0-.15-.247-.534-.548-.855-.937-.997-3.677-6.63-3.687-7.578-.005-.489-.195-1.135-.422-1.436-.228-.301-.418-1.125-.424-1.831-.005-.707-.19-1.601-.412-1.989-.576-1.007-.577-6.682-.002-7.784.231-.444.421-1.394.422-2.11.001-.814.161-1.436.425-1.655.248-.206.425-.83.428-1.513.004-.718.217-1.432.558-1.867.303-.388.553-.919.557-1.18.003-.263.127-.552.276-.644.149-.092.61-.923 1.024-1.848.415-.924.87-1.68 1.012-1.68.142 0 .43-.413.641-.918.453-1.083 3.848-4.434 4.493-4.434.246 0 .447-.122.447-.27 0-.149.602-.62 1.338-1.047.736-.427 1.506-.94 1.71-1.139.205-.199.656-.361 1.003-.361.347 0 .876-.186 1.177-.414.3-.227.994-.418 1.54-.422.547-.005 1.27-.202 1.607-.438.535-.375 2.753-.42 17.55-.352 16.395.074 16.95.094 17.337.623.614.84.577 9.8-.042 10.42-.392.39-2.17.442-15.31.442-16.685 0-15.662-.123-17.9 2.147-1.234 1.252-3.53 5.382-3.53 6.35 0 .496.72.517 18.046.517 11.901 0 18.232.1 18.591.292.505.27.545.632.545 4.909 0 3.822-.076 4.694-.442 5.06-.394.394-2.469.443-18.592.443-18.114 0-18.149.001-18.149.578 0 .318.247 1.047.55 1.62.302.573.624 1.232.715 1.464.692 1.764 3.659 4.913 5.321 5.648.703.311 1.354.688 1.447.839.106.171 5.467.274 14.322.274 10.632 0 14.236.084 14.49.338.357.356.502 8.765.167 9.639-.153.4-1.97.443-17.817.42-14.808-.021-17.872-.093-19.054-.447zM259.078 52.076c-.103-.103-.188-11.623-.188-25.599 0-23.292.039-25.444.466-25.798.384-.319 4.325-.401 22.465-.47 19.728-.076 22.173-.037 23.689.38.93.254 2.027.641 2.438.858.411.217 1.004.395 1.318.395.313 0 .76.19.992.422.233.233.605.423.827.423.222 0 1.41 1.049 2.642 2.331 2.24 2.333 2.751 3.247 3.505 6.26.155.62.402 1.247.548 1.395.35.352.35 10.577 0 10.577-.145 0-.348.602-.451 1.338-.314 2.243-1.338 4.008-3.762 6.485-1.247 1.275-2.446 2.318-2.664 2.318-.217 0-.552.19-.745.423-.193.232-.696.422-1.118.422-.742 0-1.7.738-1.7 1.31 0 .155.513.779 1.14 1.387.626.608 1.34 1.486 1.588 1.95.246.466.875 1.322 1.396 1.903.52.582.947 1.184.947 1.338 0 .155.503.784 1.117 1.398.615.615 1.425 1.597 1.8 2.183.376.587 1.141 1.503 1.7 2.037.56.534 1.017 1.12 1.017 1.304 0 .183.203.501.452.707.589.49.984 1.549.778 2.086-.14.366-1.366.425-8.846.425-9.277 0-9.26 0-9.708-1.41-.099-.309-.288-.562-.422-.562-.135 0-.333-.278-.44-.618-.108-.34-.814-1.414-1.569-2.386-.754-.973-1.372-1.858-1.372-1.968 0-.307-3.196-5-3.57-5.24-.18-.118-.413-.593-.515-1.057-.102-.464-.3-.843-.439-.843-.14 0-.33-.303-.423-.673-.093-.37-.507-.973-.92-1.339-.744-.657-.836-.665-8.134-.752-4.971-.059-7.57.014-7.957.221-.56.3-.577.539-.577 8.023 0 4.242-.077 7.914-.171 8.159-.15.39-1.082.445-7.559.445-4.063 0-7.472-.085-7.575-.188zm38.652-27.748c1.407-.846 1.816-1.312 2.37-2.703.627-1.57.644-5.401.033-7.194-.514-1.506-1.642-2.58-3.153-3-.636-.176-5.28-.291-11.822-.292l-10.775-.002v6.714c0 3.692.085 6.798.188 6.901.103.103 5.127.188 11.164.188 10.77 0 10.995-.012 11.995-.613zM354.185 52.076c-.103-.103-.188-7.566-.188-16.585 0-14.232.056-16.444.423-16.748.234-.195.422-.809.422-1.382 0-.684.43-1.834 1.275-3.416.702-1.312 1.411-2.734 1.577-3.16.166-.426.415-.774.552-.774.138 0 .426-.412.64-.916.459-1.082 3.88-4.436 4.523-4.436.246 0 .447-.122.447-.27 0-.149.602-.62 1.338-1.047.736-.427 1.506-.94 1.71-1.139.205-.199.649-.365.987-.37.337-.005.86-.195 1.16-.423.3-.227 1.001-.413 1.557-.413s1.287-.194 1.625-.431c.54-.378 2.765-.421 17.973-.352 16.81.076 17.37.096 17.758.625.576.788.576 9.386 0 10.174-.385.527-.968.552-15.845.688-11.09.101-15.658.236-16.197.477-1.257.563-3.347 2.881-4.175 4.632-.43.91-.932 1.836-1.115 2.056-.183.22-.293.885-.245 1.477l.089 1.076 18.672.141c16.187.122 18.708.197 18.94.563.147.233.269 2.469.271 4.97.004 3.918-.064 4.628-.489 5.143-.492.596-.528.597-18.943.665l-18.451.067-.074 9.272c-.05 6.269-.176 9.394-.387 9.648-.246.297-1.926.376-7.977.376-4.216 0-7.75-.085-7.853-.188zM423.715 51.647c-3.118-1.07-3.949-1.602-6.376-4.09-1.863-1.91-2.46-2.715-2.607-3.52-.106-.575-.377-1.399-.603-1.831-.225-.433-.41-1.065-.412-1.404 0-.34-.128-.696-.283-.791-.35-.217-.382-6.902-.033-6.902.137 0 .335-.688.44-1.53.106-.84.366-1.673.578-1.85.213-.176.464-.671.558-1.1.232-1.056 4.29-5.156 5.823-5.882.674-.32 1.796-.74 2.493-.933.697-.194 1.445-.489 1.663-.655.267-.205 5.337-.329 15.704-.383 15.143-.079 15.309-.086 15.309-.648 0-.313-.241-1.038-.535-1.61l-1.185-2.31c-.792-1.549-2.287-3.125-3.711-3.916-1.045-.58-1.35-.591-16.487-.591-13.502 0-15.5-.055-16.048-.439-.605-.423-.626-.599-.626-5.2 0-4.536.03-4.789.617-5.336.606-.565.895-.574 17.996-.574 14.869 0 17.496.06 18.186.42.444.232 1.187.426 1.652.432.465.006 1.091.197 1.392.424.3.228.789.414 1.084.414.605 0 4.144 2.198 4.144 2.574 0 .133.202.243.45.243.544 0 4.339 3.603 4.339 4.12 0 .2.237.591.527.869.56.534 2.571 4.277 2.571 4.783 0 .165.187.454.415.644.228.19.5.807.604 1.372.103.566.36 1.279.57 1.584.312.453.383 3.599.383 16.949 0 9.016-.077 16.594-.171 16.839-.154.401-2.472.443-23.45.427-22.737-.018-23.32-.032-24.97-.599zm32.19-15.087l.077-5.14H445.33c-11.518 0-11.629.012-13.201 1.585-1.169 1.169-1.582 3.804-.902 5.754.372 1.069 1.5 2.233 2.176 2.248.249.005.77.192 1.157.414.582.335 2.481.394 10.985.342l10.282-.062.077-5.14zM480.93 51.823c-.095-.247-.172-11.697-.172-25.443 0-21.14.061-25.078.4-25.54.39-.535 1.083-.55 31.056-.629C542.62.131 542.885.135 544.7.717c1.007.323 2.275.828 2.817 1.122.543.295 1.262.662 1.599.817.337.155 1.647 1.311 2.911 2.569 2.247 2.234 4.223 5.364 4.223 6.687 0 .28.192.784.428 1.12.375.535.419 2.985.352 19.65-.066 16.561-.131 19.074-.499 19.307-.654.413-14.455.355-14.873-.062-.255-.256-.339-4.572-.342-17.676-.003-12.934-.093-17.634-.352-18.501-.37-1.235-2.87-3.897-4.097-4.364-.786-.298-10.216-.327-10.617-.033-.184.135-.282 7.227-.282 20.288 0 17.543-.053 20.115-.423 20.348-.236.15-3.534.269-7.5.271-5.588 0-7.145-.075-7.393-.374-.223-.27-.335-6.204-.386-20.493l-.073-20.114h-13.802L496.25 31.7l-.141 20.423-7.504.075c-6.658.067-7.522.024-7.676-.375zM567.034 52.076c-.103-.103-.187-11.623-.187-25.599 0-23.3.038-25.444.466-25.798.367-.304 1.929-.387 7.346-.387 6.486 0 6.904.032 7.28.547.339.463.4 4.418.4 25.648 0 19.148-.08 25.181-.338 25.44-.366.366-14.608.509-14.967.15zM608.207 51.998c-1.24-.241-6.21-2.65-6.71-3.252-.194-.234-.504-.425-.687-.425-.461 0-3.78-3.33-4.795-4.811-1.382-2.014-3.871-7.078-4.145-8.429-.142-.697-.408-2.028-.593-2.958-.437-2.202-.414-9.387.038-11.549.194-.93.423-2.197.508-2.817.085-.62.306-1.317.49-1.55.185-.232.64-1.119 1.012-1.97.373-.853.82-1.74.997-1.973.175-.232.482-.834.681-1.338.2-.503.454-.915.565-.915.111 0 .352-.328.534-.729.682-1.497 3.662-4.227 6.637-6.08 1.121-.7 4.532-2.205 4.993-2.205.307 0 1.152-.195 1.879-.432 1.136-.372 3.59-.42 17.61-.352 15.753.077 16.304.097 16.69.626.609.833.573 8.395-.042 9.01-.39.391-2.083.443-14.35.443-13.888 0-13.91.001-14.98.63-1.25.734-5.157 4.635-5.157 5.149 0 .192-.184.502-.409.689-.886.735-1.794 3.262-2.027 5.643-.068.696-.245 1.387-.393 1.535-.359.359-.348 4.864.012 5.087.155.095.281.633.281 1.194 0 1.096.4 2.577 1.022 3.779.213.411.387.954.387 1.206s.196.534.436.626c.24.092.589.53.775.975.46 1.1 4.296 4.944 5.145 5.157.377.095.686.296.686.448 0 .177 5.11.277 14.216.277 13.766 0 14.224.017 14.507.545.421.787.381 8.266-.047 8.694-.256.256-4.498.33-17.535.306-9.458-.018-17.662-.123-18.23-.234zM665.579 52.071c-1.082-.245-3.102-1.032-3.521-1.37-.233-.188-.74-.433-1.127-.545-.387-.111-1.172-.57-1.744-1.019-.572-.449-1.163-.816-1.313-.816-.459 0-3.841-3.436-4.853-4.93-1.27-1.875-3.916-7.185-3.919-7.863 0-.296-.184-1.183-.407-1.971-.904-3.196-1.065-4.594-.91-7.926.086-1.852.285-4 .442-4.775.615-3.032 1.027-4.578 1.318-4.957.167-.217.593-1.093.946-1.945.354-.852.819-1.75 1.034-1.994.216-.244.392-.575.392-.734 0-.813 5.008-6.56 5.72-6.566.126 0 .696-.369 1.268-.818.572-.449 1.357-.908 1.744-1.02.388-.11.895-.353 1.127-.538.496-.395 2.158-1.064 3.944-1.588.951-.28 4.674-.396 14.93-.467 11.682-.081 13.853-.032 14.982.336.726.238 1.569.432 1.872.432.447 0 3.7 1.44 5 2.213 2.808 1.671 6.31 4.89 6.717 6.176.11.344.304.625.434.625s.377.348.55.774c.173.426.753 1.599 1.29 2.606.535 1.007.976 1.99.98 2.183.002.194.126.352.274.352.148 0 .342.476.432 1.057.089.58.38 1.69.646 2.464.718 2.09.71 12.51-.01 13.917-.27.527-.492 1.278-.492 1.667 0 .798-3.177 7.419-3.814 7.947-.226.188-.411.49-.411.672 0 .51-2.798 3.329-4.47 4.504-2.303 1.618-5.439 3.212-7.249 3.683-1.372.358-4.049.422-16.439.395-8.14-.018-15.053-.09-15.363-.161zm24.507-9.743c1.758-.975 5.163-4.265 5.678-5.486.212-.504.481-.916.597-.916.474 0 1.724-3.418 2.216-6.056.777-4.171-.527-11.632-2.289-13.094-.235-.196-.427-.515-.427-.711 0-.76-4.214-4.682-6.073-5.65l-1.856-.968h-6.704c-7.117 0-7.087-.005-9.8 1.525-1.048.59-3.924 3.466-4.599 4.597-.348.584-.811 1.208-1.03 1.387-.58.476-1.755 3.996-1.772 5.308-.008.62-.201 1.373-.429 1.674-.537.71-.56 4.044-.033 4.813.21.305.462 1.351.56 2.324.203 2 .9 3.705 2.367 5.794 1.128 1.604 4.473 4.973 4.938 4.973.166 0 .502.179.746.398.92.824 2.478.976 9.46.923l7.042-.054 1.408-.78zM722.677 51.926c-.257-.258-.338-6.327-.338-25.601V1.06l.695-.455c.628-.411 3.58-.454 31.031-.454 27.032 0 30.51.049 31.912.452.865.25 1.764.567 1.996.707.233.139.613.323.845.41 2.444.908 6.781 5.108 8.206 7.948l.95 1.891v40.563h-14.93l-.141-18.169c-.157-20.259.03-18.413-2.112-20.804-1.653-1.846-2.33-2.013-8.159-2.013h-5.222l-.004 20.212c-.002 11.116-.106 20.372-.231 20.568-.175.276-1.903.34-7.672.282l-7.445-.075-.14-20.423-.142-20.422h-13.52l-.142 20.221c-.122 17.565-.196 20.257-.563 20.489-.654.413-14.455.355-14.873-.062zM.14 95.785v-5.211h9.546c7.92 0 9.683-.072 10.352-.42.444-.232 1.01-.422 1.26-.423.25-.001 1.285-.436 2.302-.966 2.312-1.205 7.245-6.023 7.245-7.076 0-.37.26-1.33.577-2.134.382-.97.548-1.947.493-2.898l-.084-1.435-14.648-.071c-13.372-.065-14.678-.112-15-.547-.247-.333-.352-1.804-.352-4.909 0-3.654.078-4.51.443-4.875.393-.394 2.503-.443 18.98-.443 15.771 0 18.586.06 18.872.405.248.298.312 2.506.246 8.393-.08 7.038-.149 8.078-.583 8.74-.271.414-.497.978-.502 1.255-.005.276-.32 1.136-.702 1.911-.38.775-.694 1.64-.695 1.925-.002.284 1.043 1.637 2.321 3.007 4.242 4.546 6.127 6.75 6.127 7.165 0 .226.158.512.352.636.194.125.658.573 1.033.997.585.664.635.87.358 1.479l-.322.707H38.24l-2.02-2.127c-1.111-1.17-2.157-2.426-2.324-2.793-.406-.892-1.206-1.057-1.959-.404-.338.294-.745.535-.903.535-.157 0-.492.185-.742.412-.597.54-4.18 2.405-4.62 2.405-.188 0-.838.252-1.443.56-.605.31-1.52.64-2.034.737-.514.096-1.004.287-1.089.425-.085.138-4.814.25-10.56.25H.14v-5.212z"/><path d="M45.987 86.997c-1.028-.162-1.094-.532-.997-5.578l.08-4.225 16.73-.073c12.121-.053 16.834.015 17.112.245.293.244.384 1.333.384 4.616 0 3.653-.07 4.355-.466 4.684-.381.317-3.324.392-16.267.42-8.692.017-16.15-.023-16.576-.09zM78.225 100.659c-.475-.476-.475-10.116 0-10.592.209-.209 1.26-.341 2.747-.347 1.67-.01 2.576-.136 2.955-.422.3-.228 1.076-.414 1.723-.414.749 0 1.435-.204 1.892-.563.394-.31.83-.564.968-.564.8 0 3.458-3.785 3.472-4.945.005-.456.191-1.146.412-1.534.322-.562.405-2.268.413-8.464.007-5.65.102-7.853.348-8.1.544-.543 6.264-.456 6.825.106.657.657.656 21.868-.001 23.782-.618 1.797-2.096 4.789-2.366 4.789-.125 0-.303.285-.395.634-.198.751-2.605 3.31-3.114 3.31-.195 0-.58.25-.856.554-.276.305-1.66 1.129-3.074 1.831l-2.573 1.277h-4.519c-3.139 0-4.622-.104-4.857-.338zM115.6 99.635c-3.041-1.647-4.015-2.258-5.013-3.145-1.045-.93-3.686-4.783-3.686-5.379 0-.257-.19-.626-.422-.819-.233-.192-.423-.62-.424-.95-.001-.33-.191-.962-.423-1.406-.352-.675-.42-2.576-.42-11.62 0-12.963-.325-11.94 3.784-11.94 1.461 0 2.976.122 3.364.27l.707.268.086 8.28c.058 5.524.19 8.412.4 8.675.172.218.388.888.481 1.49.093.603.427 1.337.743 1.631.316.295.575.71.575.922 0 .475 1.584 1.845 2.132 1.845.22 0 .557.254.75.564.277.443.657.563 1.78.563.82 0 1.66.176 1.974.414.37.279 1.26.416 2.749.422 3.452.014 3.291-.254 3.291 5.492 0 4.078-.074 4.973-.443 5.342-.368.368-1.21.439-5 .419l-4.557-.024-2.428-1.314z"/><path d="M119.174 78.082c-1.468-.409-4.126-2.885-4.626-4.308-1.022-2.916-.494-5.54 1.535-7.623 1.616-1.66 3.668-2.431 6.032-2.268 1.008.07 2.276.355 2.817.634 1.718.887 3.24 2.69 3.914 4.634.641 1.854.612 2.75-.138 4.189-.217.415-.396.882-.398 1.037-.004.374-1.468 1.92-2.609 2.758-1.708 1.252-4.154 1.607-6.527.947zm3.762-6.121c.477-.477.867-1.034.867-1.239 0-.402-1.825-2.12-2.254-2.12-.144 0-.713.397-1.265.881-1.136.997-1.12 1.58.072 2.684.95.88 1.541.833 2.58-.206zM128.928 86.997c-.374-.074-.771-.447-.938-.881-.33-.86-.225-8.17.125-8.711.178-.275 3.884-.352 16.962-.352 16.256 0 16.742.016 17.026.545.465.87.376 8.246-.108 8.908-.387.53-.91.548-16.409.583-8.805.02-16.3-.02-16.658-.092zM176.086 100.551c-.337-.878-.19-10.127.168-10.484.25-.251 3.168-.338 11.385-.338 9.004 0 11.195-.074 11.845-.402.439-.22 1.748-.696 2.91-1.056 2.665-.826 4.394-1.997 5.569-3.771l.92-1.39-.075-4.367-.076-4.366-17.683-.072-17.684-.072-.274-.72c-.15-.397-.274-2.36-.274-4.365 0-3.268.058-3.701.563-4.207.554-.553.94-.563 21.811-.563 18.94 0 21.296.048 21.69.443.385.385.443 1.688.443 10.017 0 9.028-.035 9.683-.606 11.459a37.34 37.34 0 01-2.165 5.35c-.596 1.185-5.175 5.689-5.784 5.689-.253 0-.46.116-.46.258 0 .583-2.905 1.955-5.492 2.594-.62.153-1.247.398-1.394.544-.16.158-5.3.266-12.717.266-11.092 0-12.467-.05-12.62-.446zM223.266 100.606c-.22-.265-.299-1.69-.246-4.424l.079-4.034.704-.195c.387-.108 2.911-.209 5.609-.224l4.904-.028.94-1.056c.863-.97.94-1.209.941-2.904 0-2.902-.344-2.768 7.366-2.861 6.202-.075 6.704-.12 7.285-.644.776-.7 1.191-1.739.971-2.431-.16-.505-.765-.527-15.054-.527-8.188 0-15.088-.077-15.333-.17-.667-.256-.667-7.854 0-8.11.245-.093 8.776-.17 18.957-.17 14.023 0 18.594.082 18.85.338.474.474.443 11.446-.037 13.183-.804 2.91-2.08 4.48-4.847 5.962l-1.679.898-5.282.118-5.281.117v1.434c0 2.432-1.25 4.397-3.537 5.563-.997.509-1.68.556-8.038.556-5.58 0-7.012-.077-7.272-.39zM301.549 101.42c-.545-.21-2.127-.39-3.535-.402-1.614-.014-2.677-.148-2.896-.367-.203-.204-1.708-.441-3.648-.576a277.377 277.377 0 01-5.978-.486c-1.471-.141-4.07-.343-5.774-.447-1.872-.115-3.319-.343-3.654-.577-.372-.258-1.41-.385-3.137-.385-1.742 0-2.844-.137-3.388-.421-.542-.282-1.646-.421-3.356-.423-1.605 0-2.675-.127-2.888-.34-.228-.228-.338-1.536-.338-4.04 0-4.844-.092-4.746 4.275-4.52 7.05.362 9.511.598 9.853.94.231.233 1.254.353 2.99.353 1.48 0 2.908.145 3.253.33.342.184 3.223.483 6.486.674 3.466.202 5.998.47 6.183.655.182.183 1.371.314 2.862.315 1.71 0 2.814.14 3.356.422.534.279 1.63.42 3.247.42 3.668 0 3.693.032 3.688 4.454-.002 1.966-.097 3.715-.211 3.885-.464.695-1.561.957-3.921.936-1.366-.012-2.927-.192-3.47-.4zM301.549 89.447c-.388-.124-1.925-.238-3.416-.253-2.041-.021-2.8-.133-3.063-.451-.266-.321-.99-.422-3.01-.422-1.522 0-2.924-.144-3.276-.335-.351-.191-3.132-.477-6.477-.665-3.58-.202-5.987-.455-6.184-.651-.191-.192-1.322-.321-2.809-.321-1.574 0-2.859-.155-3.499-.423-.618-.258-1.904-.422-3.308-.422-3.505 0-3.55-.057-3.545-4.453.002-1.967.097-3.715.21-3.885.456-.683 1.548-.958 3.78-.954 1.32 0 2.835.182 3.47.41.654.236 2.197.411 3.676.419 1.65.01 2.673.136 2.9.364.207.207 1.593.437 3.367.559 1.658.114 4.346.333 5.973.488 1.626.155 4.38.36 6.117.457 2.179.121 3.26.298 3.485.568.238.287 1.092.395 3.179.402 2.06.01 3.004.124 3.4.422.388.295 1.296.414 3.148.414 3.522 0 3.487-.044 3.487 4.386 0 4.621-.015 4.639-4.014 4.6-1.588-.015-3.204-.13-3.591-.254zM301.408 77.465c-.51-.233-1.857-.392-3.394-.4-1.65-.01-2.674-.136-2.9-.364-.212-.212-1.613-.433-3.508-.554-1.736-.111-4.55-.339-6.254-.506a169.321 169.321 0 00-5.909-.46c-1.717-.096-3.028-.31-3.372-.55-.384-.27-1.417-.398-3.247-.405-1.794-.01-2.917-.143-3.388-.412-.463-.265-1.576-.406-3.253-.413-1.595-.01-2.676-.137-2.888-.348-.229-.23-.338-1.545-.338-4.078 0-5.237-1.015-4.846 10.621-4.097 1.893.122 3.297.344 3.507.555.231.232 1.254.352 2.99.352 1.593 0 2.881.14 3.253.352.577.33 2.136.488 9.066.915 1.55.096 3.07.289 3.38.428.31.14 1.868.29 3.462.336 1.795.05 2.974.205 3.098.406.123.198 1.307.362 3.046.422 1.869.065 3.004.232 3.31.486.387.322.464.982.464 3.965 0 3.376-.036 3.613-.651 4.19-.584.548-.948.61-3.451.59-1.729-.014-3.122-.17-3.644-.41zM313.45 101.937c-.263-.106-.352-1.408-.352-5.155 0-4.318.065-5.066.466-5.399.38-.315 3.809-.412 18.662-.527l18.196-.141.075-7.015c.067-6.229.023-7.072-.395-7.535-.45-.496-1.314-.52-18.193-.52-11.677 0-17.907-.1-18.266-.292-.503-.27-.545-.63-.545-4.638 0-4.009.042-4.37.545-4.638.755-.404 44.07-.404 44.826 0 .53.283.545.78.545 17.995v17.704l-.634.17c-.76.204-44.424.195-44.93-.01h0zM364.245 75.202c-.362-.362-.443-1.196-.443-4.592 0-2.851.106-4.254.338-4.487.254-.253 3.645-.338 13.528-.338h13.19l.275.723c.151.397.275 2.416.275 4.487 0 3.046-.084 3.849-.443 4.207-.39.39-1.992.443-13.36.443-11.367 0-12.97-.053-13.36-.443z"/><path d="M364.154 101.945c-.429-.183-.499-9.012-.076-9.68.23-.365 2.14-.434 13.824-.504 10.749-.064 13.684-.16 14.166-.46.334-.208 1.184-.45 1.888-.54 1.78-.223 2.379-.598 4.697-2.94 1.55-1.565 2.07-2.295 2.212-3.098.1-.578.36-1.331.575-1.674.31-.494.39-2.285.39-8.606 0-5.832.092-8.073.339-8.32.393-.393 6.338-.472 6.937-.092.304.193.357 2.412.282 11.798-.084 10.536-.136 11.608-.586 12.104-.27.3-.493.753-.493 1.007 0 1.05-1.362 3.017-3.685 5.32-2.015 1.996-2.9 2.647-4.814 3.541-5.003 2.337-3.4 2.16-20.233 2.23-8.289.036-15.229 0-15.423-.086z"/></g></svg>
