<svg xmlns="http://www.w3.org/2000/svg" width="175.747" height="41.94"><g fill-rule="evenodd"><path d="M163.29 41.94l12.457-7.215V19.464l-11.937-6.903h-48.791L106.247 0H68.721l-8.824 12.561H11.886L0 19.412v15.313l12.509 7.215z"/><path fill="#fff" d="M2.595 33.789l10.484 6.073h149.588l10.485-6.073v-13.39l-9.912-5.762h-49.258l-8.875-12.561H69.759l-8.772 12.561h-48.53l-9.862 5.71z"/><path d="M80.925 11.588a1.17 1.17 0 0 0 1.179 1.172h4.815v-1.466h-4.522v-.411h3.563V9.424h-5.028l-.007 2.164zm.007-4.834c0-.606.522-1.169 1.172-1.166h4.815v1.459h-4.522v.411h3.563v1.479h-5.035l.007-2.183zm32.167 18.783h15.26v6.073l-5.449 3.685h-16.844l5.58-3.738h9.861v-2.283h-15.26V23.33l5.633-3.814h16.817l-5.555 3.736h-10.043zm17.389-6.021h6.851v15.779h-6.851zm16.349 6.021h15.26v6.073l-5.451 3.685h-16.842l5.58-3.738h9.862v-2.283h-15.26V23.33l5.631-3.814h16.818l-5.555 3.736h-10.043z"/><path d="M91.404 31.557v-2.283h6.564l5.58-3.737H91.404v-2.285h9.886l5.555-3.736H90.521l-5.969 3.66v12.119h16.61l5.605-3.738zm-47.96 0v-2.283h6.566l5.579-3.737H43.444v-2.285h9.887l5.554-3.736H42.561l-5.968 3.66v12.119h16.609l5.606-3.738zm32.336-1.504l-8.512-5.295v10.537h-6.852V19.516h6.955l8.409 4.619v-4.619h6.852v15.779H75.78zm-56.316-6.801v8.305h8.512v-2.283h-6.955l5.554-3.737h8.253v6.229l-5.243 3.529H12.613V23.358l5.683-3.842h18.582l-5.528 3.736zM81.932 3.621a2.96 2.96 0 0 0-2.96 2.959v5.18a2.96 2.96 0 0 0 2.96 2.959h4.988V13.26h-4.864c-.858 0-1.619-.813-1.619-1.671v-4.84c0-.858.761-1.651 1.619-1.651h4.864V3.619h-4.988v.002zm9.444 7.713V7.047h4.756V5.588h-5.023c-.65-.003-1.172.56-1.172 1.166l-.006 4.834c0 .658.535 1.179 1.178 1.172h3.064l-.008-3.362H91.86v1.446h.852v.489h-1.336v.001zM77.562 3.607h-4.779a3.646 3.646 0 0 0-3.646 3.645c0 2.014 1.633 3.607 3.646 3.59h1.456v.492h-5.07v1.427h4.905a1.67 1.67 0 0 0 1.67-1.669 1.66 1.66 0 0 0-1.67-1.657l-1.271-.005a2.166 2.166 0 0 1 0-4.332h4.762l-.003-1.491z"/><path d="M77.562 7.008h-4.967v.489l1.49.003c2.014 0 3.646 1.593 3.646 3.606 0 2.014-1.632 3.611-3.646 3.611l-4.916-.01v-1.451h4.905a2.165 2.165 0 0 0 2.166-2.165c0-1.196-.97-2.153-2.166-2.153l-1.271-.005a1.67 1.67 0 0 1 0-3.34h4.762l-.003 1.415zm24.127-1.67c-.059-.139-.08-.172-.24-.172-.16 0-.199.083-.26.222l-3.029 9.331 1.594.002 1.713-5.173.564 1.747H100.9v1.472h3.219l-2.43-7.429z"/><path d="M90.937 14.72a2.96 2.96 0 0 1-2.96-2.959v-5.18a2.96 2.96 0 0 1 2.96-2.959h5.195v1.479h-5.07c-.859 0-1.62.793-1.62 1.651v4.84c0 .858.76 1.671 1.62 1.671h3.592V8.912h-2.793V7.459h4.277v6.92l3.047-9.428a2.4 2.4 0 0 1 4.547.062l3.164 9.708H100.9v-1.459h3.895l-2.641-8.097c-.154-.445-.43-.498-.705-.498-.287 0-.553.118-.703.525l-3.1 9.529h-6.709v-.001z"/></g></svg>