<svg xmlns="http://www.w3.org/2000/svg" width="566.929" height="202.382" viewBox="0 -0.002 566.929 202.382"><path fill="#17569B" d="M126.595 99.044h39.796c16.265 0 29.501-13.238 29.501-29.5 0-16.261-13.236-29.42-29.501-29.42h-10.376a1.466 1.466 0 0 1-1.474-1.471c0-.898.654-1.551 1.474-1.551h39.716l.082-12.423h-39.798c-7.683 0-13.894 6.212-13.894 13.894 0 7.764 6.209 14.056 13.894 14.056h10.376c9.316 0 16.918 7.602 16.918 16.917 0 9.317-7.602 16.834-16.918 16.834h-39.796v12.664z"/><path fill="#17569B" d="M126.595 83.518h39.796c7.765 0 13.977-6.292 13.977-13.974s-6.211-13.974-13.977-13.974h-10.376c-9.315 0-16.835-7.682-16.835-16.998 0-9.317 7.521-16.834 16.835-16.834h39.796l-.082-12.585h-39.718c-16.261 0-29.418 13.156-29.418 29.5 0 16.262 13.156 29.42 29.418 29.42h10.297c.816 0 1.472.654 1.472 1.471s-.655 1.471-1.472 1.471h-39.716l.003 12.503zM226.701 86.459c-6.862 0-12.5-5.475-12.5-12.503V33.994c0-6.7 5.639-12.339 12.5-12.339h42.495V9.153h-42.495c-13.809 0-25.005 11.196-25.005 25.007v39.796c0 13.812 11.194 25.008 25.005 25.008h42.333V86.461l-42.333-.002z"/><path fill="#17569B" d="M217.222 34.158c0-5.23 4.249-9.562 9.479-9.562h42.495V37.1h-36.609c-2.944 0-2.944 2.94-2.944 2.94h30.563v12.504h-42.984V34.158zM226.701 83.438c-5.229 0-9.479-4.25-9.479-9.48v-18.39h42.983V68.07h-30.562c0 2.942 2.941 2.942 2.941 2.942h36.447v12.423l-42.33.003zM299.024 86.459c-6.946 0-12.586-5.64-12.586-12.503V34.16c0-6.866 5.642-12.505 12.506-12.505h41.188V9.153h-41.271c-13.811 0-25.005 11.196-25.005 25.007v39.796c0 13.812 11.274 25.008 25.088 25.008h41.188v-58.92h-35.387v12.502h22.883V86.46l-28.604-.001z"/><path fill="#17569B" d="M289.378 73.956c0 5.23 4.334 9.563 9.563 9.563h25.741V55.488h-19.938v12.585h7.437v2.942h-7.353c-1.637 0-2.943-1.387-2.943-2.942V40.042s0-2.943 2.943-2.943h35.301V24.595h-41.187c-5.229 0-9.563 4.332-9.563 9.563l-.001 39.798zM378.783 24.436c.57-1.634 2.043-2.778 3.842-2.778 1.797 0 3.271 1.146 3.844 2.778l19.938 59.166h-29.171V69.708h9.808l-4.414-13.159-14.385 42.414h-14.709l25.247-74.527z"/><path fill="#17569B" d="M410.492 86.459h-33.261v12.503h50.585L401.503 20.92c-2.291-7.6-9.891-13.239-18.881-13.239-8.986 0-16.586 5.558-18.877 13.239l-26.563 78.042h13.241l25.738-75.917c1.063-2.534 3.514-4.25 6.455-4.25 2.862 0 5.316 1.716 6.377 4.25l21.499 63.414zM420.46 19.531c2.613 0 5.066-.982 6.863-2.862 1.879-1.878 2.855-4.33 2.855-6.945 0-2.616-.979-5.065-2.855-6.866-1.797-1.878-4.25-2.86-6.863-2.86-5.394 0-9.81 4.332-9.81 9.726 0 2.615 1.063 5.065 2.856 6.945 1.887 1.882 4.337 2.862 6.954 2.862zm-8.419-9.806c0-2.207.903-4.332 2.455-5.967a8.397 8.397 0 0 1 5.965-2.452c2.207 0 4.332.898 5.969 2.452 1.553 1.635 2.451 3.759 2.451 5.967a8.407 8.407 0 0 1-8.416 8.417c-2.289 0-4.418-.818-5.967-2.452a8.403 8.403 0 0 1-2.457-5.965z"/><path fill="#17569B" d="M417.925 10.541v4.656h-1.391V4.329h4.01c1.467 0 2.363 0 3.268.653.734.572 1.145 1.472 1.145 2.535 0 2.533-2.043 2.86-2.613 2.943l3.021 4.738h-1.717l-2.941-4.656-2.782-.001zm0-1.144h2.859c.49 0 .895 0 1.309-.164 1.063-.245 1.391-.98 1.391-1.716 0-.247-.082-1.063-.654-1.554-.57-.489-1.307-.409-2.125-.409h-2.779v3.843h-.001z"/><g fill="red"><path d="M86.576 180.518H55.698v-3.498c1.118-.029 2.554-.146 4.31-.347 1.758-.194 2.963-.472 3.621-.838 1.02-.62 1.767-1.333 2.241-2.142.477-.805.713-1.813.713-3.029v-50.82h-.738l-23.836 59.54h-2.46l-22.705-60.77h-.64v41.711c0 4.036.255 7.108.763 9.208.51 2.102 1.29 3.611 2.341 4.527.723.688 2.214 1.352 4.48 1.976s3.743.953 4.432.981v3.496H0v-3.496a36.023 36.023 0 0 0 4.653-.735c1.625-.36 2.88-.9 3.768-1.625 1.15-.915 1.938-2.33 2.364-4.236.43-1.899.64-5.088.64-9.554v-35.756c0-2.067-.245-3.757-.738-5.069-.49-1.312-1.198-2.379-2.117-3.2-1.018-.888-2.265-1.543-3.743-1.973a19.225 19.225 0 0 0-4.382-.738v-3.495h23.836l19.993 52.4 17.091-43.832a42.958 42.958 0 0 0 1.601-5.048c.443-1.757.683-2.932.714-3.52h22.801v3.495c-.919.034-2.094.183-3.52.444-1.429.266-2.472.512-3.128.737-1.115.393-1.872 1.055-2.267 1.972-.395.92-.59 1.92-.59 3.003v50.38c0 1.15.195 2.116.59 2.905.395.785 1.15 1.48 2.267 2.064.592.334 1.643.637 3.153.914 1.51.275 2.708.437 3.594.465v3.5h-.004v.003z"/><path d="M130.284 179.63a69.818 69.818 0 0 1-4.062 1.355c-1.167.345-2.487.516-3.965.516-2.563 0-4.604-.596-6.132-1.796-1.526-1.197-2.503-2.943-2.93-5.244h-.296c-2.134 2.361-4.424 4.172-6.87 5.416-2.447 1.252-5.394 1.871-8.84 1.871-3.646 0-6.64-1.109-8.988-3.35-2.348-2.229-3.52-5.15-3.52-8.765 0-1.872.262-3.549.788-5.024a12.014 12.014 0 0 1 2.363-3.988c.822-.98 1.905-1.857 3.25-2.634 1.348-.769 2.61-1.382 3.792-1.847 1.48-.557 4.475-1.593 8.988-3.104 4.515-1.505 7.56-2.687 9.135-3.544v-4.874c0-.427-.089-1.248-.27-2.462a10.34 10.34 0 0 0-1.159-3.449c-.657-1.21-1.583-2.27-2.783-3.175-1.197-.9-2.896-1.354-5.096-1.354-1.512 0-2.914.255-4.21.762-1.298.514-2.209 1.044-2.733 1.602 0 .66.156 1.625.468 2.905.313 1.278.468 2.462.468 3.545 0 1.15-.518 2.2-1.553 3.15-1.033.96-2.47 1.428-4.308 1.428-1.64 0-2.848-.578-3.62-1.747-.77-1.16-1.157-2.468-1.157-3.915 0-1.509.533-2.955 1.601-4.335 1.067-1.378 2.454-2.608 4.163-3.69 1.478-.916 3.267-1.702 5.367-2.34 2.103-.643 4.153-.962 6.156-.962 2.758 0 5.161.19 7.215.565a13.287 13.287 0 0 1 5.59 2.44c1.673 1.216 2.946 2.865 3.816 4.947.87 2.088 1.305 4.77 1.305 8.053 0 4.695-.05 8.857-.147 12.482-.1 3.63-.146 7.595-.146 11.896 0 1.28.221 2.3.664 3.056.443.758 1.125 1.396 2.045 1.918.492.298 1.271.461 2.34.492 1.066.034 2.157.053 3.273.053v3.146h-.002zm-17.186-26.004c-2.792.823-5.236 1.623-7.338 2.413a29.434 29.434 0 0 0-5.859 2.955c-1.643 1.117-2.939 2.438-3.893 3.962-.949 1.526-1.428 3.347-1.428 5.442 0 2.73.714 4.728 2.143 6.01 1.43 1.277 3.24 1.92 5.441 1.92 2.331 0 4.383-.568 6.156-1.7 1.772-1.134 3.268-2.466 4.481-4.015l.297-16.987z"/><path d="M156.707 156.73c1.346 1.182 2.381 2.546 3.104 4.084.723 1.547 1.083 3.435 1.083 5.664 0 4.502-1.685 8.177-5.046 11.033-3.366 2.854-7.727 4.285-13.076 4.285-2.825 0-5.427-.512-7.807-1.529-2.382-1.017-4.08-1.95-5.098-2.807l-.984 3.202h-3.693l-.492-16.896h3.397c.263 1.28.82 2.778 1.674 4.48a21.511 21.511 0 0 0 3.104 4.628c1.28 1.448 2.814 2.66 4.604 3.646 1.79.982 3.801 1.48 6.033 1.48 3.151 0 5.582-.715 7.29-2.146 1.706-1.426 2.562-3.47 2.562-6.133 0-1.379-.27-2.563-.813-3.566-.542-1-1.339-1.876-2.389-2.637-1.083-.756-2.413-1.433-3.989-2.043a79.25 79.25 0 0 0-5.27-1.799c-1.545-.459-3.259-1.088-5.146-1.896-1.889-.806-3.505-1.752-4.852-2.833-1.444-1.146-2.626-2.563-3.546-4.235-.919-1.673-1.38-3.644-1.38-5.909 0-3.973 1.48-7.336 4.433-10.097 2.956-2.758 6.912-4.138 11.87-4.138 1.901 0 3.85.246 5.836.735 1.984.497 3.602 1.085 4.851 1.773l1.133-2.56h3.545l.738 15.608h-3.397c-.689-3.479-2.176-6.309-4.458-8.496-2.283-2.18-5.065-3.273-8.35-3.273-2.69 0-4.81.676-6.353 2.021-1.543 1.351-2.314 2.975-2.314 4.876 0 1.48.253 2.71.763 3.693.51.986 1.271 1.82 2.291 2.513.983.66 2.223 1.275 3.718 1.847 1.494.574 3.34 1.228 5.542 1.945a48.007 48.007 0 0 1 6.131 2.412c1.92.934 3.502 1.955 4.751 3.068z"/><path d="M187.71 178.396a74.507 74.507 0 0 1-6.058 2.242c-1.904.61-4.236.91-6.993.91-4.072 0-6.937-1.02-8.594-3.076-1.659-2.05-2.488-4.95-2.488-8.69v-32.896h-8.767v-4.73h8.964v-15.118h8.963v15.118h13.937v4.73h-13.838v27.133c0 2.04.073 3.738.222 5.101.147 1.362.5 2.558 1.058 3.57.525.952 1.314 1.675 2.364 2.165 1.05.492 2.462.738 4.234.738.82 0 2.026-.074 3.621-.226 1.593-.146 2.716-.332 3.374-.565l.001 3.594z"/><path d="M225.261 169.092c-2.035 3.875-4.76 6.961-8.175 9.258-3.414 2.3-7.338 3.444-11.77 3.444-3.906 0-7.329-.688-10.27-2.067-2.937-1.377-5.358-3.252-7.264-5.613-1.903-2.362-3.324-5.119-4.26-8.27-.937-3.155-1.403-6.48-1.403-9.997a29.5 29.5 0 0 1 1.502-9.285c1.002-3.032 2.471-5.768 4.408-8.198 1.872-2.327 4.194-4.209 6.968-5.64 2.775-1.429 5.887-2.142 9.334-2.142 3.545 0 6.582.562 9.11 1.674 2.528 1.118 4.58 2.644 6.155 4.578 1.511 1.844 2.635 4.012 3.374 6.504.737 2.494 1.108 5.205 1.108 8.123v3.251h-32.157c0 3.188.303 6.076.91 8.67.608 2.595 1.567 4.875 2.881 6.847 1.278 1.905 2.953 3.406 5.022 4.506 2.067 1.104 4.53 1.646 7.387 1.646 2.922 0 5.441-.68 7.56-2.047 2.12-1.354 4.162-3.813 6.131-7.357l3.45 2.115zm-10.884-18.517c0-1.839-.155-3.808-.467-5.909-.313-2.102-.813-3.857-1.502-5.27a10.066 10.066 0 0 0-3.104-3.694c-1.312-.949-3.005-1.427-5.07-1.427-3.45 0-6.314 1.436-8.596 4.311-2.28 2.873-3.52 6.868-3.717 11.988l22.456.001z"/><path d="M257.691 138.212c0 1.673-.41 3.16-1.23 4.457-.82 1.3-2.083 1.944-3.79 1.944-1.84 0-3.243-.477-4.214-1.43-.967-.949-1.452-2-1.452-3.149 0-.723.057-1.379.172-1.97.114-.595.221-1.186.32-1.774-1.543 0-3.35.623-5.418 1.871-2.068 1.25-3.824 3.021-5.27 5.317v28.268c0 1.154.223 2.088.665 2.811.442.725 1.141 1.265 2.092 1.625.822.33 1.881.574 3.176.734 1.3.17 2.422.281 3.376.348v3.25h-25.61v-3.25c.756-.065 1.536-.127 2.34-.195.804-.063 1.501-.194 2.093-.397.918-.295 1.601-.812 2.043-1.549.443-.738.664-1.699.664-2.879v-29.992c0-1.017-.238-2.02-.713-3.004a5.985 5.985 0 0 0-1.996-2.364c-.622-.396-1.359-.678-2.215-.862-.854-.177-1.773-.3-2.758-.367v-3.202l16.152-1.084.69.69v6.845h.245c2.038-2.66 4.304-4.679 6.797-6.057 2.496-1.38 4.777-2.069 6.845-2.069 2.07 0 3.752.675 5.05 2.021 1.3 1.344 1.946 3.148 1.946 5.413zM310.143 148.457c1.476 1.646 2.565 3.441 3.271 5.395.71 1.955 1.063 4.23 1.063 6.82 0 6.176-2.286 11.266-6.848 15.268-4.563 4.008-10.226 6.006-16.989 6.006-3.12 0-6.236-.479-9.356-1.45-3.119-.966-5.812-2.144-8.077-3.52l-2.117 3.596h-3.938l-.689-23.935h3.988c.821 2.953 1.782 5.625 2.882 8.002 1.102 2.385 2.554 4.604 4.36 6.674a19.73 19.73 0 0 0 5.98 4.63c2.283 1.15 4.934 1.722 7.951 1.722 2.267 0 4.242-.294 5.936-.886 1.691-.593 3.064-1.433 4.112-2.513a10.318 10.318 0 0 0 2.34-3.815c.511-1.458.765-3.144.765-5.05 0-2.784-.787-5.392-2.36-7.807-1.576-2.414-3.923-4.242-7.046-5.49a358.434 358.434 0 0 0-7.338-2.832c-2.756-1.033-5.138-2.01-7.14-2.933-3.938-1.77-7.002-4.094-9.186-6.968-2.184-2.87-3.273-6.626-3.273-11.256 0-2.655.542-5.135 1.624-7.436 1.084-2.296 2.625-4.352 4.63-6.156 1.903-1.704 4.153-3.045 6.746-4.014a23.053 23.053 0 0 1 8.125-1.452c3.218 0 6.1.49 8.644 1.48 2.543.981 4.87 2.135 6.967 3.442l2.021-3.349h3.94l.396 23.195h-3.988a87.55 87.55 0 0 0-2.438-7.636c-.9-2.427-2.073-4.629-3.52-6.598a16.207 16.207 0 0 0-5.169-4.559c-2.037-1.13-4.533-1.699-7.485-1.699-3.117 0-5.778 1.005-7.979 3.003-2.2 2.008-3.3 4.452-3.3 7.338 0 3.023.705 5.525 2.118 7.512 1.411 1.987 3.465 3.62 6.155 4.898a75.855 75.855 0 0 0 7.063 2.976c2.315.84 4.557 1.737 6.723 2.687a49.705 49.705 0 0 1 5.688 2.908c1.815 1.094 3.4 2.357 4.748 3.802z"/><path d="M307.755 196.375c0-1.64.447-2.979 1.354-4.016.9-1.035 2.023-1.55 3.373-1.55 1.05 0 1.951.191 2.71.591a7.819 7.819 0 0 1 2.02 1.524c.491.49 1.02 1.167 1.575 2.02a55.53 55.53 0 0 1 1.328 2.118c1.645-.887 3.604-3.203 5.89-6.942 2.276-3.745 3.935-7.022 4.946-9.853a2605.093 2605.093 0 0 0-8.47-20.88 3250.448 3250.448 0 0 0-7.929-19.062c-.623-1.506-1.676-2.685-3.152-3.522-1.477-.838-2.955-1.369-4.434-1.602v-3.25h22.164v3.447c-.988.034-2.168.241-3.547.615-1.379.38-2.068.813-2.068 1.305 0 .196.073.527.223.985.147.461.317.938.52 1.427 1.246 3.251 3.146 7.941 5.711 14.062 2.564 6.128 4.548 11.023 5.958 14.702 1.48-3.515 3.015-7.147 4.604-10.907 1.594-3.76 3.38-8.199 5.346-13.322.23-.62.563-1.48.982-2.583.426-1.1.643-2.045.643-2.832 0-.852-.744-1.65-2.24-2.39-1.496-.736-2.913-1.19-4.262-1.356v-3.15h18.025v3.056c-.986.167-2.287.731-3.892 1.697-1.61.972-2.81 2.341-3.597 4.112-3.908 9.063-7.385 17.32-10.416 24.772-3.039 7.454-5.344 12.937-6.918 16.446-2.07 4.603-3.916 8.185-5.54 10.763-1.626 2.58-3.214 4.604-4.755 6.08-1.512 1.381-2.88 2.311-4.109 2.785s-2.508.714-3.813.714c-2.563 0-4.574-.606-6.035-1.819-1.466-1.21-2.195-2.61-2.195-4.185z"/><path d="M382.687 156.73c1.342 1.182 2.38 2.546 3.102 4.084.723 1.547 1.082 3.435 1.082 5.664 0 4.502-1.684 8.177-5.045 11.033-3.369 2.854-7.726 4.285-13.078 4.285-2.82 0-5.428-.512-7.803-1.529-2.384-1.017-4.082-1.95-5.1-2.807l-.986 3.202h-3.693l-.49-16.896h3.396c.26 1.28.817 2.778 1.676 4.48a21.438 21.438 0 0 0 3.104 4.628c1.278 1.448 2.812 2.66 4.604 3.646 1.787.982 3.798 1.48 6.031 1.48 3.15 0 5.582-.715 7.29-2.146 1.702-1.426 2.56-3.47 2.56-6.133 0-1.379-.27-2.563-.813-3.566-.543-1-1.34-1.876-2.392-2.637-1.08-.756-2.41-1.433-3.985-2.043a79.328 79.328 0 0 0-5.272-1.799c-1.546-.459-3.26-1.088-5.146-1.896-1.892-.806-3.504-1.752-4.85-2.833a13.911 13.911 0 0 1-3.549-4.235c-.922-1.673-1.379-3.644-1.379-5.909 0-3.973 1.48-7.336 4.436-10.097 2.956-2.758 6.906-4.138 11.867-4.138 1.902 0 3.852.246 5.834.735 1.984.497 3.605 1.085 4.854 1.773l1.135-2.56h3.543l.738 15.608h-3.397c-.688-3.479-2.177-6.309-4.452-8.496-2.287-2.18-5.064-3.273-8.352-3.273-2.692 0-4.813.676-6.354 2.021-1.544 1.351-2.313 2.975-2.313 4.876 0 1.48.252 2.71.763 3.693.51.986 1.272 1.82 2.29 2.513.986.66 2.23 1.275 3.722 1.847 1.488.574 3.34 1.228 5.54 1.945a47.935 47.935 0 0 1 6.133 2.412c1.914.934 3.5 1.955 4.75 3.068z"/><path d="M413.686 178.396a73.583 73.583 0 0 1-6.06 2.242c-1.9.61-4.23.91-6.989.91-4.07 0-6.937-1.02-8.595-3.076-1.658-2.05-2.487-4.95-2.487-8.69v-32.896h-8.765v-4.73h8.96v-15.118h8.965v15.118h13.937v4.73h-13.84v27.133c0 2.04.075 3.738.223 5.101s.502 2.558 1.064 3.57c.521.952 1.313 1.675 2.357 2.165 1.051.492 2.463.738 4.234.738.821 0 2.027-.074 3.62-.226 1.593-.146 2.718-.332 3.374-.565l.002 3.594z"/><path d="M451.238 169.092c-2.033 3.875-4.76 6.961-8.176 9.258-3.414 2.3-7.338 3.444-11.77 3.444-3.899 0-7.327-.688-10.267-2.067-2.938-1.377-5.357-3.252-7.268-5.613-1.9-2.362-3.324-5.119-4.26-8.27-.938-3.155-1.4-6.48-1.4-9.997 0-3.15.503-6.246 1.5-9.285 1.001-3.032 2.473-5.768 4.408-8.198 1.87-2.327 4.193-4.209 6.968-5.64 2.772-1.429 5.886-2.142 9.33-2.142 3.548 0 6.583.562 9.11 1.674 2.53 1.118 4.58 2.644 6.156 4.578 1.512 1.844 2.635 4.012 3.375 6.504.734 2.494 1.104 5.205 1.104 8.123v3.251h-32.154c0 3.188.305 6.076.91 8.67.604 2.595 1.564 4.875 2.883 6.847 1.275 1.905 2.957 3.406 5.02 4.506 2.066 1.104 4.527 1.646 7.39 1.646 2.923 0 5.438-.68 7.56-2.047 2.117-1.354 4.162-3.813 6.135-7.357l3.446 2.115zm-10.885-18.517c0-1.839-.154-3.808-.467-5.909-.309-2.102-.813-3.857-1.502-5.27-.752-1.508-1.785-2.735-3.102-3.694-1.316-.949-3.006-1.427-5.074-1.427-3.445 0-6.313 1.436-8.594 4.311-2.279 2.873-3.52 6.868-3.718 11.988l22.457.001z"/><path d="M529.667 180.518h-23.689v-3.254c.756-.063 1.52-.127 2.291-.193.77-.064 1.45-.196 2.041-.396.918-.297 1.602-.813 2.045-1.55.445-.737.666-1.7.666-2.88v-25.068c0-3.412-.78-6.048-2.342-7.903-1.56-1.854-3.502-2.782-5.832-2.782-1.609 0-3.12.243-4.53.736a14.162 14.162 0 0 0-3.89 2.068c-.957.726-1.752 1.501-2.395 2.34-.639.837-1.123 1.537-1.453 2.091v28.021c0 1.154.2 2.096.594 2.834.396.736 1.064 1.307 2.02 1.7a16.07 16.07 0 0 0 2.045.664c.605.146 1.402.256 2.387.32v3.25h-23.189v-3.25c.756-.064 1.48-.13 2.188-.196a8.167 8.167 0 0 0 1.941-.398c.922-.295 1.602-.813 2.045-1.55.445-.737.67-1.698.67-2.882v-25.066c0-3.412-.783-6.047-2.346-7.903-1.557-1.854-3.504-2.783-5.83-2.783-1.609 0-3.123.256-4.533.766a15.02 15.02 0 0 0-3.89 2.094 11.786 11.786 0 0 0-2.413 2.437c-.656.908-1.148 1.586-1.48 2.044v27.825c0 1.117.232 2.055.691 2.807.46.76 1.146 1.331 2.063 1.727.69.33 1.398.572 2.117.735.73.167 1.527.281 2.414.347v3.252H446.48v-3.252l2.344-.195c.801-.06 1.496-.194 2.092-.396.918-.295 1.602-.813 2.041-1.552.443-.735.664-1.696.664-2.88V142.06c0-1.048-.232-1.994-.713-2.83-.477-.84-1.14-1.555-1.992-2.146-.625-.396-1.395-.715-2.313-.959a15.19 15.19 0 0 0-2.857-.47v-3.2L462 131.371l.688.688v6.943h.346c.82-.816 1.822-1.79 3.004-2.906 1.186-1.11 2.283-2.02 3.301-2.707 1.148-.786 2.588-1.44 4.314-1.97 1.721-.522 3.586-.789 5.588-.789 3.15 0 5.857.847 8.125 2.535 2.27 1.693 3.895 3.737 4.875 6.133 1.184-1.146 2.227-2.156 3.13-3.028.901-.868 2.093-1.796 3.57-2.782 1.25-.854 2.714-1.543 4.407-2.069 1.688-.52 3.566-.788 5.64-.788 4.103 0 7.353 1.352 9.753 4.037 2.393 2.694 3.592 6.834 3.592 12.415v24.671c0 1.151.195 2.092.596 2.832.395.735 1.064 1.31 2.02 1.698.756.296 1.5.518 2.238.667.74.145 1.566.254 2.488.317v3.252h-.006v-.002z"/></g><path fill="red" d="M566.93 143.755h-6.517v-.931c.197 0 .485-.028.858-.049.37-.027.613-.07.74-.13.205-.127.342-.24.414-.32.074-.084.113-.217.113-.393v-8.055h-.284l-4.593 9.482h-.61l-4.467-9.665h-.28v6.505c0 .627.042 1.106.124 1.437.084.326.22.574.426.742.16.094.44.194.827.293.39.102.73.153 1.017.153v.93h-5.935v-.89c.203-.033.5-.082.894-.132.394-.054.693-.143.894-.28.215-.148.358-.368.434-.64.073-.279.11-.786.11-1.535v-6.202c0-.285-.047-.52-.138-.713a1.416 1.416 0 0 0-.407-.5 1.876 1.876 0 0 0-.708-.311 5.942 5.942 0 0 0-.973-.137v-.91h5.243l3.973 8.43 3.316-6.912c.137-.302.24-.581.31-.85.069-.268.128-.49.157-.668h5.05v.91c-.21 0-.489.043-.815.088a4.707 4.707 0 0 0-.71.141c-.19.034-.309.116-.355.252-.05.127-.076.261-.076.396v8.645c0 .165.028.302.076.4.05.098.168.197.355.278.127.033.348.081.649.127.31.056.602.088.877.088v.93l.01-.004zm-20.343-8.719h-.905c-.13-.394-.379-.885-.764-1.48-.387-.586-.755-.919-1.127-.99-.268-.023-.543-.039-.807-.054-.266 0-.485-.023-.66-.023h-.922v9.36c0 .166.03.308.088.42.056.113.188.214.385.298.127.038.357.082.697.15.342.066.654.095.938.095v.932h-6.645v-.932c.25 0 .561-.025.927-.06.365-.04.605-.078.71-.112.191-.06.314-.155.379-.289a.883.883 0 0 0 .091-.392v-9.467h-.924c-.188 0-.437 0-.75.028-.311.023-.552.03-.714.042-.389.058-.77.389-1.14.99-.373.605-.62 1.097-.747 1.476h-.905v-3.54h12.79l.005 3.548z"/></svg>