<svg xmlns="http://www.w3.org/2000/svg" height="800" width="1200" viewBox="-18 -20 156 120"><defs><linearGradient gradientUnits="userSpaceOnUse" gradientTransform="scale(1.22474 .8165)" id="a" y2="70.763" x2="97.98" y1="27.217" x1="0"><stop offset="0%" stop-color="#FF4C1D"/><stop offset="100%" stop-color="#9B0063"/></linearGradient></defs><path fill="url(#a)" d="M1.009 23.341A2.408 2.408 0 000 25.291v.03c.003.317.069.64.204.946L11.69 52.288a2.41 2.41 0 003.011 1.296c7.52-2.681 33.562-11.165 50.415-6.589 0 0-16.906.978-32.193 12.966a2.4 2.4 0 00-.707 2.855l5.143 11.628 1.98 4.644c.471 1.102 1.977 1.235 2.641.237 3.567-5.372 9.581-8.055 15.359-10.397 5.918-2.398 12.094-4.187 18.394-5.252 6.713-1.135 13.567-1.439 20.351-.838 1.13.1 2.179-.593 2.516-1.674l5.189-16.583a2.398 2.398 0 00-.88-2.656c-5.786-4.19-28.705-18.269-69.008-12.613 0 0 34.392-19.756 78.053 1.946 1.323.658 2.92-.033 3.362-1.439l4.574-14.624a2.419 2.419 0 00.11-.682v-.07a2.4 2.4 0 00-1.216-2.052C113.304 9.291 94.751 0 69.23 0 49.669-.001 26.016 5.456 1.009 23.341" fill-rule="evenodd"/></svg>