<svg xmlns="http://www.w3.org/2000/svg" viewBox="0 0 267.7 88.8"><path fill="#ce181e" d="M28 34.9c0 2.5 2 4.5 4.5 4.5s4.5-2 4.5-4.5-2-4.5-4.5-4.5-4.5 2-4.5 4.5zm11.7 29.5h-6.9c-2.2 0-4.4-.9-5.9-2.4-1.6-1.6-2.5-3.7-2.5-5.9V32.8c0-2.2.9-4.3 2.4-5.9 1.6-1.6 3.7-2.5 5.9-2.5h6.9l.1 40zm3.5-43.8H32.8c-6.7 0-12.2 5.5-12.2 12.2V56c0 6.7 5.5 12.2 12.2 12.2h10.4c.2 0 .3-.2.3-.3v-47c.1-.1-.1-.3-.3-.3zM57.7 42c2.7.1 4.8 2.3 4.7 4.9-.1 2.6-2.1 4.7-4.7 4.7-2.7-.1-4.8-2.3-4.7-4.9.1-2.6 2.1-4.7 4.7-4.7zm-9 26.2H56c6.7 0 12.2-5.5 12.2-12.2V32.8c0-6.7-5.5-12.2-12.2-12.2h-7.4c-.2 0-.3.1-.3.3v46.9c0 .2.2.4.4.4zm159.5-36.1h-2.9v-7.7h2.9c2.1 0 3.8 1.7 3.8 3.9.1 2.1-1.7 3.8-3.8 3.8zm-.1-10.5h-5.5v13.3h5.5c3.8 0 6.8-3 6.8-6.6 0-3.7-3-6.7-6.8-6.7zm-10.2 24.8c2.8 0 5.5 1.5 6.9 3.9l4.1-3.5c-2.5-3.7-6.6-5.9-11.1-5.9-7.4 0-13.4 6-13.4 13.4s6 13.4 13.4 13.4c4.5 0 8.6-2.2 11.1-5.9l-4.1-3.5c-1.4 2.4-4 3.9-6.9 3.9-4.4 0-7.9-3.5-7.9-7.8 0-4.5 3.5-8 7.9-8zm-38.6.6h8v19.7h5.4V47h7.8v-5.3h-21.2V47zm72.2 4.6h-11.7v-9.9h-5.2v25h5.2v-10h11.7v10h5.2v-25h-5.2v9.9zM245.9 63l-.9 2.7-.9-2.7h-1v3.7h.7v-2.9l1 2.8h.6l1-2.8v2.9h.7V63h-1.2zm-15.3-30.6c-2.3 0-4.1-1.9-4.1-4.1 0-2.3 1.9-4.1 4.1-4.1 2.3 0 4.1 1.9 4.1 4.1s-1.9 4.1-4.1 4.1zm0-11.2c-3.9 0-7.1 3.2-7.1 7.1s3.2 7.1 7.1 7.1c3.9 0 7.1-3.2 7.1-7.1-.1-3.9-3.2-7.1-7.1-7.1zm8.5 42.5h1.1v3h.7v-3h1.1V63h-3l.1.7zm-70.6-31.3h-7.6v-3.1h7.1v-2.4h-7.1v-2.8h7.6v-2.5h-10.3v13.3h10.3v-2.5zm22.9 2.5V21.6h-2.7v8.7l-6.6-8.7h-2.7v13.3h2.7V26l6.6 8.9h2.7zm-88.5 0h3V21.6h-3v13.3zM91.3 51.5c-3.6-.6-5.9-1.3-5.9-3 0-1.9 2.6-2.7 6.1-2.7 3.2 0 6.5 1.2 7.7 1.7l1.8-4.3c-1.3-.5-5.3-1.9-9.7-1.9-5.4 0-11.2 2.6-11.2 7.5 0 4 2.8 6 10 7.2 5.1.9 7.8 1.3 7.8 3.5 0 1.2-1 3.2-6.7 3.2-4.6 0-7.8-1.7-8.9-2.3l-2.4 4.3c1.3.7 5.5 2.7 11 2.7 8 0 12.2-2.8 12.2-8-.1-3-1.2-6.1-11.8-7.9zm39.8 8.4l-5.3-18.2h-4.4l-5.3 18.1-4.8-18.1h-5.4l7.1 25h6l4.7-16.5 4.6 16.5h6l7.1-25H136l-4.9 18.2zM118.5 26l6.6 8.9h2.6V21.6H125v8.7l-6.5-8.7h-2.7v13.3h2.7V26zm29.1 40.7h5.6v-25h-5.6v25zm.8-45.1h-11.2v2.8h4.2v10.5h2.9V24.4h4.1v-2.8zM83.6 26l6.6 8.9h2.6V21.6h-2.7v8.7l-6.5-8.7h-2.7v13.3h2.7V26z"/></svg>