<svg xmlns="http://www.w3.org/2000/svg" version="1" width="990" height="445"><path d="M166.997 430.01c-18.173-4.99-35.888-21.829-43.638-41.479-5.194-13.171-23.966-79.255-89.76-316l-9.866-35.5 44.517-.26c24.485-.143 44.832.082 45.215.5.383.418 17.05 64.935 37.038 143.37l36.342 142.611 17.274-66.11c41.02-156.993 47.988-182.31 53.165-193.184 6.976-14.654 19.169-25.124 33.647-28.895 7.628-1.987 25.207-2.008 32.765-.04 15.955 4.156 28.425 15.66 35.29 32.555 4.187 10.304 13.197 43.473 46.844 172.453 11.335 43.45 20.935 79.786 21.334 80.746.452 1.087 14.501-52.221 37.225-141.244l36.5-142.99 45.219-.005c35.74-.005 45.128.255 44.786 1.243-.238.688-9.867 35.225-21.397 76.75-55.103 198.443-74.286 265.085-79.688 276.84-9.176 19.97-24.597 33.846-42.914 38.617-7.652 1.993-24.288 2.012-31.875.036-10.565-2.752-16.608-6.39-25.671-15.453-7.08-7.078-9.34-10.165-13.206-18.04-6.323-12.873-12.417-33.87-51.227-176.5-9.129-33.55-16.85-61.675-17.158-62.5-.308-.825-9.728 31.98-20.933 72.9-24.628 89.938-37.601 136.4-41.633 149.1-8.714 27.454-24.558 45.03-45.447 50.416-7.533 1.943-25.774 1.977-32.748.062zM635.39 292.03v-136.5h85v273h-85v-136.5zm171 0v-136.5h85v273h-85v-136.5zm117 123v-13.5h-5c-4.666 0-5-.166-5-2.5v-2.5h26v2.5c0 2.334-.333 2.5-5 2.5h-5v27h-6v-13.5zm18-2.5v-16h8.914l3.043 9.861c1.674 5.424 3.043 10.464 3.043 11.2 0 3.122 1.954-1.178 4.911-10.81l3.147-10.25h8.942v32h-6l-.079-11.25c-.085-12.163-.036-12.192-4.444 2.557-2.63 8.8-2.635 8.807-5.774 8.5-3.08-.301-3.202-.516-6.172-10.808l-3.03-10.5-.285 10.75-.283 10.75h-5.933v-16zm-275.5-304.103c-19.26-3.903-35.21-20.392-38.481-39.786-3.985-23.626 11.77-47.392 35.516-53.578 12.12-3.156 27.642-1.517 38.702 4.088 6.624 3.356 16.689 12.99 20.078 19.217 11.64 21.387 4.745 49.29-15.37 62.198-11.154 7.157-27.876 10.407-40.445 7.86zm171 0c-24.943-5.054-42.598-29.911-38.57-54.304 3.09-18.71 17.292-34.29 35.605-39.06 12.108-3.153 27.643-1.517 38.678 4.075 6.648 3.369 16.028 12.322 19.78 18.879 12.047 21.058 5.19 49.562-15.049 62.55-11.153 7.156-27.875 10.406-40.444 7.86z" fill="#999"/></svg>