<svg xmlns="http://www.w3.org/2000/svg" xml:space="preserve" width="698.294" height="208.332" viewBox="0 0 197.074 58.796" id="svg2" version="1.1" fill-rule="evenodd"><defs id="defs4"><style type="text/css" id="style6">.fil0{fill:#02abca}.fil1{fill:#8b8b8b;fill-rule:nonzero}</style></defs><g id="Capa_x0020_1" transform="translate(-5.825 -5.621)"><g id="_56610944"><path id="_56666168" class="fil0" d="M165.011 25.954c0 13.427 15.875 11.507 15.875 2.117V5.846h-15.875v20.108z" fill="#009ac7" fill-opacity="1" stroke="none"/><path id="_56603080" class="fil0" d="M143.139 40.065c0 6.634 4.582 10.583 11.289 10.583h38.1c5.659 0 10.23-3.907 10.23-9.525V13.254c0-3.386-2.523-7.055-5.644-7.055h-8.82v22.93c0 17.416-30.338 17.282-30.338.353V5.846h-6.703c-4.364 0-8.114 2.765-8.114 7.055v27.164z" fill="#009ac7" fill-opacity="1" stroke="none"/><path id="_56604928" class="fil1" d="M90.402 12.433c0 3.622 3.05 6.671 6.861 6.671 4.003 0 7.148-2.954 7.148-6.67 0-3.717-3.145-6.671-7.148-6.671-3.812 0-6.861 2.954-6.861 6.67z" fill="#8b8b8b" fill-opacity="1" fill-rule="nonzero" stroke="none"/><path id="_56605920" class="fil1" fill="#8b8b8b" fill-opacity="1" fill-rule="nonzero" stroke="none" d="M103.363 63.895V25.68H91.546v38.215z"/><path id="_56605848" class="fil1" d="M114.322 12.433c0 3.622 3.145 6.671 6.957 6.671 3.907 0 7.052-2.954 7.052-6.67 0-3.717-3.145-6.671-7.052-6.671-3.812 0-6.957 2.954-6.957 6.67z" fill="#8b8b8b" fill-opacity="1" fill-rule="nonzero" stroke="none"/><path id="_56607936" class="fil1" fill="#8b8b8b" fill-opacity="1" fill-rule="nonzero" stroke="none" d="M127.283 63.895V25.68h-11.817v38.215z"/><path id="_56607472" class="fil1" d="M72.772 9.003L62.479 49.505s-7.91-30.4-9.244-34.785c-1.239-4.288-3.907-6.194-7.624-6.194-3.812 0-6.385 1.906-7.72 6.195-1.238 4.383-9.148 34.784-9.148 34.784L18.356 9.003H5.965S17.88 52.173 19.5 57.224c1.239 3.908 4.289 7.052 8.672 7.052 5.146 0 7.529-3.716 8.577-7.052 1.144-3.43 8.863-31.925 8.863-31.925s7.72 28.494 8.768 31.925c1.143 3.336 3.526 7.052 8.577 7.052 4.479 0 7.433-3.144 8.767-7.052 1.62-5.05 13.533-48.221 13.533-48.221H72.77z" fill="#8b8b8b" fill-opacity="1" fill-rule="nonzero" stroke="none"/></g></g></svg>