<svg width="400" height="258" xmlns="http://www.w3.org/2000/svg"><path d="M261.85 58.54c30.919 2.008 63.248 28.088 72.232 58.266C316.114 56.449 251.444 4.266 189.622.266c-61.815-4.014-109.46 38.84-79.413 102.05 11.099 23.333 28.052 44.348 51.6 53.488-5.34 1.734-11.41 2.533-18.136 2.09-30.907-1.985-63.248-28.088-72.232-58.266 17.969 60.369 82.65 112.54 144.47 116.56 61.827 4.002 106.68-43.201 79.401-102.05-10.812-23.37-28.04-44.36-51.588-53.488 5.34-1.734 11.41-2.544 18.136-2.104zm4.026 52.974c6.595 18.088 4.253 34.288-4.755 45.005 4.11-5.926 4.982-14.313 1.601-23.631-6.547-17.969-26.39-32.52-44.372-32.52-17.945 0-27.216 14.552-20.669 32.52 6.523 17.956 26.391 32.508 44.348 32.508 5.221 0 9.677-1.23 13.25-3.393-6.823 5.065-15.83 7.98-26.595 7.98-32.293 0-68.015-26.175-79.759-58.468-11.756-32.305 4.898-58.493 37.191-58.493 32.305 0 68.003 26.188 79.76 58.493" fill="#ce001d"/><path d="M161.83 237.83l7.658-9.032h-11.302l-2.82 4.54-3.954 3.727h-12.019l-9.987 6.153-2.748 10.263c-.61 2.259 1.385 4.086 4.444 4.086h19.462l8.291.203 4.385-16.595c.37-1.361-.213-2.58-1.41-3.332zm-13.214 16.57l-4.194.101h-5.531c-.753 0-1.254-.477-1.111-1.016l2.7-10.263 4.994-3.071h5.591c.741 0 1.255.43 1.1 1.016l-3.55 13.237m205.84 3.139l-6.845-.036 4.66-17.383h-4.17c-3.8 0-7.587 2.306-8.327 5.113l-1.111 4.086c-.705 2.845 1.792 5.15 5.59 5.15h3.263l-4.074 3.07h-6.918c-6.129 0-10.19-3.69-8.984-8.22l1.147-4.085c1.266-4.516 7.204-8.184 13.321-8.184h11.087l11.23-.416-5.543 20.74-4.325.169m-78.827-26.756h-15.352c-1.517 0-3.178 1.375-3.644 3.119l-.442 1.612c-.442 1.744.394 3.12 1.935 3.12h12.533c3.812 0 6.022 3.524 4.815 7.908l-.872 3.106c-1.194 4.373-5.34 7.897-9.151 7.897h-42.33l5.473-4.72h31.23c1.529 0 3.142-1.445 3.62-3.176l.43-1.565c.477-1.744-.395-3.166-1.924-3.166h-12.544c-3.811 0-5.902-3.524-4.767-7.837l.872-3.177c1.183-4.313 5.28-7.837 9.152-7.837h15.209l11.756-.718-5.998 5.436m-69.365 26.748h-6.953l3.835-14.325 9.988-6.164H229.8c4.587 0 7.538 2.76 6.63 6.164l-.026.072-4.935 3.072h-6.965l.849-3.153c.501-1.73-1.075-3.095-3.346-3.095h-2.795l-4.994 3.095-3.74 14.158-4.217.17m-88.755.01h-6.965l3.835-14.326c.466-1.73-1.063-3.095-3.333-3.095h-6.965l-3.298 12.508-5.484 4.91h-6.965l5.615-20.956 10.908.468h13.966c4.588 0 7.55 2.76 6.631 6.165l-3.727 14.158-4.218.17m274.38 0h-6.977l3.847-14.326c.466-1.73-1.063-3.095-3.333-3.095h-6.977l-3.286 12.508-5.495 4.91h-6.954l5.604-20.956 10.92.468h13.966c4.6 0 7.55 2.76 6.642 6.165l-3.74 14.158-4.217.169m-216.82-4.088l.98-3.728h13.871l9.988-6.152.598-2.439c.609-2.259-1.386-4.086-4.445-4.086h-19.414l-9.988 6.165-.943 3.524c-.036.102-.045.204-.072.305l-1.709 6.404c-.609 2.245 1.386 4.086 4.445 4.086h18.877l4.994-3.072h-16.081c-.741 0-1.255-.468-1.1-1.016zm2.677-10.239l4.993-3.095h7.372c.728 0 1.254.43 1.099 1.016l-.67 2.438-4.982 3.072h-8.733l.92-3.43m-101.6 14.324H56.669c-3.059 0-5.042-1.84-4.445-4.086l2.748-10.24 9.988-6.164h19.414c3.059 0 5.042 1.829 4.445 4.086l-2.7 10.25zm-1.147-6.153l2.736-10.25c.166-.586-.347-1.016-1.1-1.016h-5.59l-4.983 3.095-2.7 10.239c-.142.548.359 1.016 1.1 1.016h5.531l5.006-3.082m239.03 6.151h-37.538l4.683-17.527 4.827-2.973 6.834-.454-4.803 17.98h2.64l4.827-2.963 3.106-11.589 4.815-2.973 6.845-.454-4.026 15.017-1.923 2.964h3.775l4.862-2.964 3.059-11.588 4.826-2.973 6.846-.455-4.038 15.018-9.617 5.938m-275.14 0H.01l6.308-28.279 5.006-3.703 7.06-.478-6.427 28.77h2.748l4.994-3.704 4.671-20.884 4.994-3.704 7.073-.477-5.604 25.065-1.983 3.703h3.907l5.042-3.703 4.611-20.884 4.994-3.704 7.073-.478-5.603 25.065-9.988 7.396"/></svg>