<?xml version="1.0" encoding="UTF-8" standalone="no"?>
<!-- Created with Inkscape (http://www.inkscape.org/) -->
<svg xmlns="http://www.w3.org/2000/svg" width="341.26642" height="402.25967">
  <defs>
  </defs>
  <path d="M 325.13497,301.70356 C 325.13497,314.54301 314.73079,324.95306 301.89721,324.95306 L 38.4714,324.95306 C 25.63782,324.95306 15.23364,314.54301 15.23364,301.70356 L 15.23364,38.27776 C 15.23364,25.45004 25.63782,15.04 38.4714,15.04 L 301.89721,15.04 C 314.73079,15.04 325.13497,25.45004 325.13497,38.27776 L 325.13497,301.70356 z" style="fill: rgb(3, 149, 63);"/>
  <path d="M 192.07533,250.66265 C 187.82681,214.19815 183.49027,169.11338 179.07157,115.42007 C 170.47478,177.06468 165.08784,222.13771 162.91664,250.66265 L 192.07533,250.66265 z M 195.17956,318.90889 L 194.28761,307.69491 L 163.94943,307.69491 L 162.95771,318.7974 L 77.02495,318.76219 L 114.2171,43.87008 L 236.93711,43.87008 L 278.70053,318.85021 L 195.17956,318.90889 z" style="fill: rgb(255, 255, 255);"/>
  <path d="M 312.70042,197.21581 L 312.70042,269.42303 L 319.95928,269.42303 L 319.95928,297.38463 L 276.32394,297.38463 L 276.32394,197.21581 L 312.70042,197.21581 z" style="fill: rgb(255, 255, 255);"/>
  <path d="M 246.23221,197.21581 L 246.23221,269.42303 L 268.41958,269.42303 L 268.41958,297.38463 L 209.8616,297.38463 L 209.8616,197.21581 L 246.23221,197.21581 z" style="fill: rgb(167, 169, 172);"/>
  <path d="M 307.59515,318.87955 L 33.84732,318.87955 C 27.0227,318.87955 21.48906,313.35178 21.48906,306.52129 L 21.45385,33.7417 C 21.45385,26.91707 26.98749,21.37757 33.81211,21.37757 L 307.55408,21.37757 C 314.38457,21.37757 319.91821,26.91707 319.91821,33.7417 L 319.95342,306.52129 C 319.95342,313.35178 314.41978,318.87955 307.59515,318.87955 M 311.09842,0 L 30.16801,0 C 13.50842,0 0,13.50255 0,30.16215 L 0,372.09167 C 0,388.75127 13.50842,402.25968 30.16801,402.25968 L 311.09842,402.25968 C 327.75802,402.25968 340.9965,388.75127 341.26643,372.09167 L 341.26643,30.16215 C 340.9965,13.50255 327.75802,0 311.09842,0 L 311.09842,0 z" style="fill: rgb(0, 0, 0);"/>
  <g style="fill: rgb(255, 255, 255);">
  <path d="M 82.02459,367.74339 L 73.87377,367.74339 L 73.87377,351.70582 L 64.86621,351.70582 L 64.86621,346.89983 L 73.87377,346.89983 L 73.87377,336.73624 L 82.02459,336.73624 L 82.02459,367.74339 z M 49.19833,374.05749 L 82.40015,374.05749 L 82.40015,378.81067 L 48.25943,378.81067 C 45.65398,378.81067 43.78205,378.44098 42.64363,377.70746 C 41.57564,376.97395 41.04751,375.78859 41.04751,374.14551 L 41.04751,365.12621 L 49.19833,365.12621 L 49.19833,374.05749 z M 67.32495,337.61059 L 67.32495,342.36377 L 56.66844,342.36377 C 56.66844,346.54774 58.10026,350.17424 60.97564,353.23153 C 63.25834,355.6492 66.35084,357.64436 70.25901,359.20528 L 66.55623,363.00195 C 63.68085,361.88114 61.02846,360.58429 58.59905,359.11139 C 55.94666,357.49766 53.93977,355.87805 52.57836,354.25258 C 51.28738,355.84285 49.31569,357.46245 46.66917,359.11139 C 44.2339,360.58429 41.62258,361.88114 38.82349,363.00195 L 35.508,359.20528 C 39.33988,357.70304 42.33849,355.71375 44.51557,353.23153 C 47.16209,350.23292 48.49415,346.61229 48.49415,342.36377 L 38.38338,342.36377 L 38.38338,337.61059 L 67.32495,337.61059 z"/>
  <path d="M 139.40308,379.26838 L 131.24639,379.26838 L 131.24639,336.75385 L 139.40308,336.75385 L 139.40308,379.26838 z M 112.14566,357.85561 L 112.14566,353.21393 L 118.82945,353.21393 L 118.82945,336.77732 L 126.98613,336.77732 L 126.98613,379.29772 L 118.82945,379.29772 L 118.82945,357.85561 L 112.14566,357.85561 z M 100.20403,340.69136 L 100.20403,336.53673 L 108.35485,336.53673 L 108.35485,340.69136 L 116.08903,340.69136 L 116.08903,345.44454 L 108.35485,345.44454 L 108.35485,352.29263 C 108.35485,357.38616 109.31135,361.82246 111.23023,365.58979 C 112.81462,368.74097 114.98583,371.26427 117.74971,373.14793 L 112.72073,376.19936 C 110.61995,374.7558 108.91232,373.10686 107.58613,371.25253 C 105.93132,369.01091 104.81637,366.40546 104.22369,363.42446 C 103.52539,366.42893 102.33416,369.05785 100.64414,371.29361 C 99.17711,373.17727 97.31692,374.81448 95.06943,376.19936 L 90.59205,373.14793 C 93.46743,371.29361 95.70905,368.79379 97.33452,365.64261 C 99.24753,361.95743 100.20403,357.50939 100.20403,352.29263 L 100.20403,345.44454 L 92.58134,345.44454 L 92.58134,340.69136 L 100.20403,340.69136 z"/>
  <path d="M 195.16196,379.26838 L 187.00527,379.26838 L 187.00527,336.75385 L 195.16196,336.75385 L 195.16196,379.26838 z M 160.19383,345.54429 C 159.11996,348.22602 158.59183,351.69408 158.59183,355.93087 C 158.59183,360.52561 159.11996,364.22839 160.19383,367.02162 C 161.36745,370.03196 163.06334,371.5342 165.27562,371.5342 C 167.44683,371.5342 169.11924,370.03196 170.29873,367.02162 C 171.40781,364.22839 171.95941,360.52561 171.95941,355.93087 C 171.95941,351.69408 171.40781,348.22602 170.29873,345.54429 C 169.08403,342.62784 167.41162,341.17254 165.27562,341.17254 C 163.09855,341.17254 161.40853,342.62784 160.19383,345.54429 M 176.4896,342.36377 C 178.98942,345.92572 180.2452,350.46765 180.2452,355.97781 C 180.2452,361.81072 178.98942,366.55217 176.4896,370.208 C 173.83721,374.18659 170.11682,376.17002 165.32843,376.17002 C 160.50484,376.17002 156.74924,374.18659 154.05577,370.208 C 151.59116,366.55217 150.35886,361.81072 150.35886,355.97781 C 150.35886,350.46765 151.59116,345.92572 154.05577,342.36377 C 156.78445,338.47908 160.54005,336.53086 165.32843,336.53086 C 170.08161,336.53086 173.79613,338.47908 176.4896,342.36377 L 176.4896,342.36377 z"/>
  <path d="M 236.71999,356.459 L 236.71999,353.71859 C 235.76349,353.83008 234.70723,353.93571 233.56881,354.0296 C 232.53015,354.08241 231.37413,354.11175 230.08315,354.11175 C 228.75108,354.11175 227.57159,354.08241 226.5388,354.0296 C 225.35931,353.93571 224.28544,353.83008 223.32894,353.71859 L 223.32894,356.459 L 236.71999,356.459 z M 220.62374,369.71508 C 218.56403,370.37231 217.53124,371.16451 217.53124,372.10341 C 217.53124,373.04818 218.56403,373.84624 220.62374,374.4976 C 222.94751,375.23112 226.09282,375.59494 230.07141,375.59494 C 233.9385,375.59494 237.0134,375.23112 239.2961,374.4976 C 241.39688,373.84624 242.44728,373.04818 242.44728,372.10341 C 242.44728,371.16451 241.39688,370.37231 239.2961,369.71508 C 237.0134,369.01678 233.9385,368.66469 230.07141,368.66469 C 226.09282,368.66469 222.94751,369.01678 220.62374,369.71508 M 220.3538,342.58676 C 218.21194,343.29093 217.14394,344.20636 217.14394,345.3213 C 217.14394,346.41278 218.21194,347.31647 220.3538,348.02064 C 222.67171,348.78936 225.8757,349.17079 229.95992,349.17079 C 234.05,349.17079 237.27159,348.78936 239.63058,348.02064 C 241.76658,347.31647 242.83457,346.41278 242.83457,345.3213 C 242.83457,344.20636 241.76658,343.29093 239.63058,342.58676 C 237.27159,341.84738 234.05,341.47769 229.95992,341.47769 C 225.8757,341.47769 222.67171,341.84738 220.3538,342.58676 M 245.48696,366.36439 C 248.94329,367.92531 250.67438,369.85005 250.67438,372.15035 C 250.67438,374.38611 248.94329,376.28738 245.48696,377.85417 C 241.65508,379.58526 236.497,380.45961 230.0186,380.45961 C 223.49912,380.45961 218.32343,379.58526 214.49742,377.85417 C 211.07044,376.28738 209.35694,374.38611 209.35694,372.15035 C 209.35694,369.85005 211.07044,367.92531 214.49742,366.36439 C 218.32343,364.62742 223.49912,363.75307 230.0186,363.75307 C 236.497,363.75307 241.65508,364.62742 245.48696,366.36439 M 210.31345,348.89499 C 209.25132,347.78005 208.71732,346.58295 208.71732,345.3213 C 208.71732,342.8743 210.48362,340.82632 214.01623,339.17738 C 217.91853,337.41108 223.27026,336.52499 230.08315,336.52499 C 236.84909,336.52499 242.20082,337.41108 246.14419,339.17738 C 249.71201,340.82632 251.50179,342.8743 251.50179,345.3213 C 251.50179,346.58295 250.95018,347.78005 249.84111,348.89499 C 248.66162,350.05101 247.00681,351.05446 244.87081,351.90534 L 244.87081,356.459 L 253.984,356.459 L 253.984,361.25912 L 206.17055,361.25912 L 206.17055,356.459 L 215.17812,356.459 L 215.17812,351.90534 C 213.04212,351.05446 211.42252,350.05101 210.31345,348.89499 L 210.31345,348.89499 z"/>
  <path d="M 307.48953,336.73624 L 307.48953,353.97091 L 313.07011,353.97091 L 313.07011,358.82972 L 307.48953,358.82972 L 307.48953,379.25078 L 299.33284,379.25078 L 299.33284,336.73624 L 307.48953,336.73624 z M 289.18099,337.61059 L 289.18099,350.76692 C 289.18099,357.08102 287.12715,362.3682 283.0136,366.64019 C 279.18758,370.55422 273.50137,373.72301 265.9491,376.14067 L 262.69229,372.51418 C 268.2142,370.63051 272.50379,368.23045 275.56108,365.30812 C 279.24039,361.80486 281.08298,357.57394 281.08298,352.62711 L 281.08298,342.41658 L 264.01262,342.41658 L 264.01262,337.61059 L 289.18099,337.61059 z"/>
  </g>
</svg>