<?xml version="1.0" encoding="UTF-8" standalone="no"?>
<!-- Created with Inkscape (http://www.inkscape.org/) -->
<svg xmlns="http://www.w3.org/2000/svg" width="341.75058" height="402.83035">
  <defs>
  </defs>
  <path
     d="M 325.60211,302.13159 C 325.60211,314.98925 315.17729,325.41406 302.32551,325.41406 L 38.52598,325.41406 C 25.67419,325.41406 15.25525,314.98925 15.25525,302.13159 L 15.25525,38.33206 C 15.25525,25.48615 25.67419,15.06133 38.52598,15.06133 L 302.32551,15.06133 C 315.17729,15.06133 325.60211,25.48615 325.60211,38.33206 L 325.60211,302.13159 z"
     style="fill:#fdb934" />
  <path
     d="M 128.78231,320.41908 L 128.78231,183.09242 C 128.78231,159.73355 128.21229,145.7006 127.08402,140.97594 C 125.96162,136.25715 122.85885,132.68427 117.79336,130.2573 C 112.71611,127.84208 101.40982,126.62566 83.86863,126.62566 L 76.35854,126.62566 L 76.35854,91.34935 C 112.88065,83.48079 140.61159,67.30881 159.55726,42.81579 L 326.74214,42.81579 L 326.48945,303.94153 L 319.96072,314.81296 L 309.23621,320.03712 L 128.78231,320.41908 z"
     style="fill:#a7a9ac" />
  <path
     d="M 327.7999,301.96117 L 324.66188,309.43601 L 316.6229,317.20467 L 307.81411,320.41908 L 201.30353,320.80105 C 199.81091,318.62677 198.90594,317.35158 197.71889,314.94811 C 191.47811,302.38427 188.36359,282.94499 188.36359,256.65377 L 188.36359,241.28687 L 263.64674,241.28687 L 263.64674,258.94559 C 263.64674,277.24484 264.34016,290.23766 265.727,297.9358 C 267.1256,305.62219 271.93253,309.46539 280.15955,309.46539 C 283.94398,309.46539 287.01149,308.36062 289.35619,306.15107 C 291.69501,303.93565 292.95257,301.55569 293.15237,298.99944 C 293.34042,296.43143 293.55785,285.32495 293.81054,265.66236 L 293.81054,209.63633 C 293.81054,199.05285 292.61174,191.84245 290.21415,187.99926 C 287.81068,184.16194 283.82645,182.24622 278.25558,182.24622 C 274.70621,182.24622 271.73861,183.23346 269.33514,185.20207 C 266.93167,187.18243 265.38029,189.3097 264.69275,191.56626 C 263.99345,193.83457 263.64674,199.09399 263.64674,207.34452 L 188.9865,207.34452 L 192.02462,64.71142 L 327.44731,64.71142 L 327.44731,110.07171 L 260.59686,110.07171 L 260.59686,158.27619 C 272.32037,145.34801 287.40521,138.87805 305.869,138.87805 C 313.89035,138.87805 321.15364,139.68312 327.68237,141.29914 L 327.7999,301.96117 z"
     style="fill:#ffffff" />
  <path
     d="M 308.03153,319.33194 L 33.89534,319.33194 C 27.06103,319.33194 21.51954,313.79633 21.51954,306.95615 L 21.48429,33.78957 C 21.48429,26.95526 27.02577,21.40789 33.86596,21.40789 L 307.98452,21.40789 C 314.82471,21.40789 320.36619,26.95526 320.36619,33.78957 L 320.40733,306.95615 C 320.40733,313.79633 314.87172,319.33194 308.03153,319.33194 M 311.53977,0 L 30.21668,0 C 13.52758,0 0,13.5217 0,30.20493 L 0,372.61955 C 0,389.30278 13.52758,402.83036 30.21668,402.83036 L 311.53977,402.83036 C 328.21713,402.83036 341.48026,389.30278 341.75058,372.61955 L 341.75058,30.20493 C 341.48026,13.5217 328.21713,0 311.53977,0 L 311.53977,0 z"
     style="fill:#000000" />
  <g style="fill:#ffffff">
  <path
     d="M 44.86666,339.20608 L 44.86666,377.70855 L 37.02748,377.70855 L 37.02748,356.02447 L 37.02748,354.87269 C 37.02748,353.33893 36.99223,352.31056 36.92171,351.7758 C 36.81006,350.92371 36.55149,350.28318 36.14602,349.87183 C 35.70528,349.46048 34.98248,349.16666 33.98936,348.99036 C 33.06088,348.83758 31.67992,348.76706 29.84059,348.76706 L 28.72994,348.76706 L 28.72994,345.35872 C 31.53301,344.8886 33.91297,344.11879 35.86983,343.06103 C 37.70915,342.11492 39.38394,340.83386 40.89419,339.20608 L 44.86666,339.20608 z" />
  <path
     d="M 83.78636,339.14732 L 83.78636,343.90136 L 65.3402,343.90136 L 65.3402,353.5211 C 65.82207,352.49273 66.66828,351.72291 67.8847,351.22341 C 69.33031,350.63577 71.37531,350.33607 74.03734,350.33607 C 77.95105,350.33607 80.92453,351.1764 82.95778,352.85707 C 85.06155,354.57299 86.11344,357.14099 86.11344,360.56696 L 86.11344,365.57369 C 86.11344,369.91639 85.17321,373.08967 83.29274,375.09354 C 81.18897,377.36772 77.64548,378.50775 72.66225,378.50775 C 67.01499,378.50775 63.13653,377.48525 61.03864,375.44025 C 59.19344,373.66556 58.27084,370.62744 58.27084,366.32 L 58.27084,364.72749 L 65.8397,364.72749 L 65.8397,366.67259 C 65.8397,369.08781 66.2628,370.79785 67.11489,371.80273 C 68.07862,372.95451 69.83568,373.5304 72.38606,373.5304 C 74.71901,373.5304 76.38204,372.77822 77.38104,371.27385 C 78.19199,370.12206 78.59746,368.57068 78.59746,366.62558 L 78.59746,359.89117 C 78.59746,358.3868 77.93342,357.17038 76.59947,356.25953 C 75.27139,355.37806 73.56722,354.93145 71.49872,354.93145 C 69.91208,354.93145 68.53699,355.40744 67.39108,356.34767 C 66.35683,357.23502 65.8397,358.1635 65.8397,359.13899 L 58.48239,359.13899 L 58.48239,339.14732 L 83.78636,339.14732 z" />
  <path
     d="M 139.63023,380.10027 L 131.57362,380.10027 L 131.57362,337.52542 L 139.63023,337.52542 L 139.63023,380.10027 z M 127.51887,337.52542 L 127.51887,380.10027 L 119.46814,380.10027 L 119.46814,358.41031 L 113.60345,358.41031 L 113.60345,353.41533 L 119.46814,353.41533 L 119.46814,337.52542 L 127.51887,337.52542 z M 108.0032,337.88388 L 108.0032,352.13426 C 108.0032,357.11161 109.01395,361.71875 111.0472,365.93803 C 112.85126,369.68133 115.02555,372.32573 117.57593,373.85948 L 112.48105,377.00338 C 110.56533,375.64592 108.84941,373.88886 107.33916,371.73809 C 105.72314,369.40514 104.54785,366.91352 103.80741,364.25149 C 103.10812,366.91352 101.93283,369.40514 100.28155,371.73809 C 98.73017,373.88886 96.96136,375.64592 94.96924,377.00338 L 90.26808,373.85948 C 92.62454,372.2082 94.71068,369.56968 96.52062,365.93803 C 98.73017,361.60122 99.84081,356.99996 99.84081,352.13426 L 99.84081,337.88388 L 108.0032,337.88388 z" />
  <path
     d="M 195.46822,380.10027 L 187.30583,380.10027 L 187.30583,337.52542 L 195.46822,337.52542 L 195.46822,380.10027 z M 160.45048,346.33421 C 159.38096,349.01975 158.84621,352.48685 158.84621,356.72964 C 158.84621,361.33678 159.38096,365.04481 160.45048,367.842 C 161.63164,370.85074 163.32406,372.35511 165.53948,372.35511 C 167.71376,372.35511 169.39443,370.85074 170.57559,367.842 C 171.68036,365.04481 172.23275,361.33678 172.23275,356.72964 C 172.23275,352.48685 171.68036,349.01975 170.57559,346.33421 C 169.35329,343.40774 167.6785,341.95038 165.53948,341.95038 C 163.36519,341.95038 161.6669,343.40774 160.45048,346.33421 M 176.77524,343.1433 C 179.28448,346.71618 180.53029,351.25867 180.53029,356.77665 C 180.53029,362.61784 179.28448,367.36601 176.77524,371.03291 C 174.11321,375.01127 170.38755,377.00338 165.59824,377.00338 C 160.7678,377.00338 157.001,375.01127 154.30959,371.03291 C 151.84148,367.36601 150.60155,362.61784 150.60155,356.77665 C 150.60155,351.25867 151.84148,346.71618 154.30959,343.1433 C 157.03626,339.25309 160.80306,337.30211 165.59824,337.30211 C 170.35229,337.30211 174.07795,339.25309 176.77524,343.1433 L 176.77524,343.1433 z" />
  <path
     d="M 237.09108,357.25852 L 237.09108,354.51422 C 236.12734,354.63175 235.07546,354.73753 233.93543,354.82567 C 232.8953,354.87856 231.73176,354.91382 230.44482,354.91382 C 229.10499,354.91382 227.91795,354.87856 226.89545,354.82567 C 225.71428,354.73753 224.63889,354.63175 223.68103,354.51422 L 223.68103,357.25852 L 237.09108,357.25852 z M 220.96611,370.53929 C 218.90936,371.19158 217.86335,371.9849 217.86335,372.931 C 217.86335,373.87711 218.90936,374.67043 220.96611,375.32272 C 223.28731,376.05727 226.44884,376.42749 230.42719,376.42749 C 234.29977,376.42749 237.3849,376.05727 239.67084,375.32272 C 241.76873,374.67043 242.82649,373.87711 242.82649,372.931 C 242.82649,371.9849 241.76873,371.19158 239.67084,370.53929 C 237.3849,369.83412 234.29977,369.48153 230.42719,369.48153 C 226.44884,369.48153 223.28731,369.83412 220.96611,370.53929 M 220.68992,343.37248 C 218.55677,344.07766 217.48726,344.9885 217.48726,346.11091 C 217.48726,347.20392 218.55677,348.10302 220.68992,348.80819 C 223.02287,349.57801 226.21966,349.95998 230.32142,349.95998 C 234.41142,349.95998 237.63759,349.57801 240.0058,348.80819 C 242.13895,348.10302 243.21434,347.20392 243.21434,346.11091 C 243.21434,344.9885 242.13895,344.07766 240.0058,343.37248 C 237.63759,342.63205 234.41142,342.26183 230.32142,342.26183 C 226.21966,342.26183 223.02287,342.63205 220.68992,343.37248 M 245.86461,367.18384 C 249.33172,368.7411 251.06527,370.67445 251.06527,372.97214 C 251.06527,375.21694 249.33172,377.12091 245.86461,378.68404 C 242.0273,380.42347 236.86778,381.29906 230.3743,381.29906 C 223.85145,381.29906 218.66842,380.42347 214.8311,378.68404 C 211.39926,377.12091 209.68334,375.21694 209.68334,372.97214 C 209.68334,370.67445 211.39926,368.7411 214.8311,367.18384 C 218.66842,365.43854 223.85145,364.56882 230.3743,364.56882 C 236.86778,364.56882 242.0273,365.43854 245.86461,367.18384 M 210.64707,349.68966 C 209.57756,348.56726 209.04281,347.37434 209.04281,346.10503 C 209.04281,343.65455 210.80574,341.60367 214.35511,339.95239 C 218.25707,338.18358 223.61639,337.29624 230.44482,337.29624 C 237.22036,337.29624 242.57968,338.18358 246.52865,339.95239 C 250.10153,341.60367 251.88209,343.65455 251.88209,346.10503 C 251.88209,347.37434 251.33559,348.56726 250.23081,349.68966 C 249.04965,350.84144 247.39249,351.84044 245.25346,352.6984 L 245.25346,357.25852 L 254.37958,357.25852 L 254.37958,362.07133 L 206.4983,362.07133 L 206.4983,357.25852 L 215.51865,357.25852 L 215.51865,352.6984 C 213.37962,351.84044 211.75772,350.84144 210.64707,349.68966 L 210.64707,349.68966 z" />
  <path
     d="M 307.96102,337.50779 L 307.96102,354.77279 L 313.54364,354.77279 L 313.54364,359.63848 L 307.96102,359.63848 L 307.96102,380.08264 L 299.79276,380.08264 L 299.79276,337.50779 L 307.96102,337.50779 z M 289.62063,338.38926 L 289.62063,351.55837 C 289.62063,357.88143 287.56975,363.1761 283.45036,367.45416 C 279.61892,371.37375 273.91289,374.54703 266.36166,376.96812 L 263.09435,373.33648 C 268.62997,371.45014 272.91977,369.04667 275.98728,366.12608 C 279.67768,362.61197 281.51701,358.38092 281.51701,353.4212 L 281.51701,343.20206 L 264.42243,343.20206 L 264.42243,338.38926 L 289.62063,338.38926 z" />
  </g>
</svg>
